<?xml version="1.0" encoding="UTF-8"?>
<svg width="20px" height="21px" viewBox="0 0 20 21" version="1.1" xmlns="http://www.w3.org/2000/svg" xmlns:xlink="http://www.w3.org/1999/xlink">
    <!-- Generator: Sketch 48.2 (47327) - http://www.bohemiancoding.com/sketch -->
    <title>Path</title>
    <desc>Created with Sketch.</desc>
    <defs></defs>
    <g id="Contact-Us" stroke="none" stroke-width="1" fill="none" fill-rule="evenodd" transform="translate(-234.000000, -916.000000)">
        <g id="Address/phone/social" transform="translate(150.000000, 675.000000)" fill="#818181">
            <g id="Follow" transform="translate(0.000000, 241.000000)">
                <path d="M102.341788,20.0946072 C102.243272,20.1159522 102.143387,20.1299085 102.043776,20.146875 L86.7083077,20.146875 C86.6675328,20.1403073 86.6264843,20.1323714 86.5857094,20.1274456 C85.742572,20.019079 85.0338002,19.3754468 84.8460715,18.5451831 C84.8241789,18.4483099 84.8102224,18.3500684 84.7927083,18.2526479 L84.7927083,2.8752564 C84.7990024,2.83940784 84.8063912,2.80383293 84.811317,2.76798437 C84.9322734,1.90761886 85.56059,1.22375964 86.4097479,1.03028686 C86.5011493,1.00948922 86.5944664,0.996901176 86.6872361,0.980208333 L102.064847,0.980208333 C102.100423,0.986502356 102.135724,0.994438297 102.171847,0.999090401 C103.041803,1.11812952 103.750301,1.7847486 103.918053,2.64374584 C103.934472,2.7274837 103.945966,2.81176887 103.959375,2.89578039 L103.959375,18.2313029 C103.945418,18.3166827 103.933378,18.4031571 103.916958,18.4882633 C103.763984,19.2755634 103.124447,19.9284998 102.341788,20.0946072 Z M86.8662079,8.8034046 C86.8662079,11.6398195 86.8659342,14.4762344 86.8664815,17.3126493 C86.8664815,17.7206662 87.2197728,18.0714895 87.6277955,18.0714895 C92.1256229,18.0717632 96.6231766,18.0717632 101.121004,18.0714895 C101.532858,18.0714895 101.884234,17.7212135 101.884234,17.3101864 C101.884507,14.4770554 101.884234,11.644198 101.884234,8.81134054 L101.884234,8.75250512 L100.054562,8.75250512 C100.312895,9.57811667 100.392255,10.4179582 100.291002,11.2739452 C100.189202,12.130206 99.9133554,12.9270839 99.4640105,13.6629373 C99.014392,14.3996115 98.4315024,15.0098581 97.7178048,15.4955924 C95.8678831,16.7554915 93.4323353,16.866321 91.4693932,15.7645934 C90.4771127,15.2082566 89.6980111,14.4324499 89.1548018,13.432795 C88.3445033,11.9411116 88.2150635,10.375542 88.6904058,8.75113685 C88.0834345,8.75168416 87.478926,8.75168416 86.8662079,8.75168416 L86.8662079,8.8034046 Z M90.4924375,10.5047062 C90.4617879,12.6777859 92.2014259,14.4004325 94.2869663,14.4453116 C96.4570668,14.4918326 98.2123031,12.7579663 98.2580039,10.6491951 C98.3047992,8.47447352 96.5506575,6.67821423 94.3761785,6.6795825 C92.2504105,6.67821423 90.5222662,8.38854643 90.4924375,10.5047062 Z M101.147549,5.89583988 C101.553382,5.88571471 101.88396,5.53790156 101.88396,5.13152663 C101.884234,4.52647951 101.884234,3.92115874 101.88396,3.31611163 C101.88396,2.88209773 101.54052,2.53674745 101.107047,2.5364738 C100.503634,2.53620015 99.9002199,2.53592649 99.2965324,2.5364738 C98.8641542,2.53702111 98.51962,2.88319234 98.5193463,3.31720624 C98.5190727,3.91705395 98.5174307,4.51690165 98.5215356,5.11702301 C98.5220829,5.20650759 98.5390497,5.29954966 98.56751,5.38438214 C98.6758782,5.70373537 98.9684176,5.89967102 99.3266347,5.90131294 C99.6178058,5.90186025 99.9089769,5.90103929 100.200422,5.90103929 C100.515675,5.8974818 100.832022,5.90350217 101.147549,5.89583988 Z" id="Path"></path>
            </g>
        </g>
    </g>
</svg>