<?xml version="1.0" encoding="UTF-8"?>
<svg width="23px" height="19px" viewBox="0 0 23 19" version="1.1" xmlns="http://www.w3.org/2000/svg" xmlns:xlink="http://www.w3.org/1999/xlink">
    <!-- Generator: Sketch 48.2 (47327) - http://www.bohemiancoding.com/sketch -->
    <title>Path</title>
    <desc>Created with Sketch.</desc>
    <defs></defs>
    <g id="Contact-Us" stroke="none" stroke-width="1" fill="none" fill-rule="evenodd" transform="translate(-150.000000, -918.000000)">
        <g id="Address/phone/social" transform="translate(150.000000, 675.000000)" fill="#818181">
            <g id="Follow" transform="translate(0.000000, 241.000000)">
                <path d="M11.1464447,7.30214901 L11.1934108,8.05907336 L10.4106427,7.96638874 C7.56136686,7.61109772 5.07216436,6.40619774 2.95869055,4.38258365 L1.92543668,3.37850033 L1.65929553,4.11997725 C1.09570252,5.77285287 1.45577583,7.51841311 2.62992795,8.69241822 C3.25614242,9.34121053 3.11524416,9.43389514 2.03502421,9.04770925 C1.65929553,8.92412976 1.33053294,8.83144515 1.29922222,8.87778745 C1.18963468,8.9859195 1.56536336,10.3916362 1.86281523,10.9477438 C2.26985464,11.7201156 3.0995888,12.47704 4.00759978,12.9250156 L4.77471249,13.2803066 L3.86670152,13.2957541 C2.99000127,13.2957541 2.95869055,13.3112015 3.05262272,13.6355977 C3.36572995,14.639681 4.60250352,15.705554 5.98017534,16.1689771 L6.95080776,16.4933733 L6.10541823,16.9876912 C4.8529893,17.6982733 3.38138531,18.0999066 1.90978132,18.1308015 C1.20529005,18.1462489 0.626041667,18.2080386 0.626041667,18.2543809 C0.626041667,18.4088553 2.53599578,19.2739117 3.64752646,19.6137553 C6.98211848,20.6178386 10.942925,20.1853104 13.9174437,18.470645 C16.0309175,17.2502976 18.1443913,14.8250502 19.1306791,12.47704 C19.6629614,11.2257977 20.1952437,8.9395772 20.1952437,7.84280926 C20.1952437,7.13222722 20.2422098,7.0395426 21.11891,6.18993364 C21.635537,5.69561569 22.1208532,5.15495544 22.2147853,5.00048108 C22.3713389,4.70697981 22.3556836,4.70697981 21.5572601,4.96958621 C20.2265544,5.43300928 20.0386901,5.37121954 20.6962153,4.67608493 C21.1815315,4.18176699 21.7607798,3.28581572 21.7607798,3.02320931 C21.7607798,2.976867 21.5259494,3.05410418 21.2598083,3.1931311 C20.9780118,3.34760546 20.3517973,3.579317 19.8821365,3.71834392 L19.0367469,3.98095033 L18.2696342,3.47118495 C17.8469394,3.1931311 17.2520357,2.88418239 16.9389285,2.79149777 C16.140505,2.57523367 14.9193868,2.60612855 14.1992402,2.85328752 C12.24232,3.54842213 11.0055464,5.34032467 11.1464447,7.30214901 Z" id="Path"></path>
            </g>
        </g>
    </g>
</svg>