<?xml version="1.0" encoding="UTF-8"?>
<svg width="29px" height="21px" viewBox="0 0 29 21" version="1.1" xmlns="http://www.w3.org/2000/svg" xmlns:xlink="http://www.w3.org/1999/xlink">
    <!-- Generator: Sketch 48.2 (47327) - http://www.bohemiancoding.com/sketch -->
    <title>youtube</title>
    <desc>Created with Sketch.</desc>
    <defs></defs>
    <g id="Contact-Us" stroke="none" stroke-width="1" fill="none" fill-rule="evenodd" transform="translate(-278.000000, -916.000000)">
        <g id="Address/phone/social" transform="translate(150.000000, 675.000000)" fill="#818181" fill-rule="nonzero">
            <g id="Follow" transform="translate(0.000000, 241.000000)">
                <g id="youtube" transform="translate(128.784426, 0.000000)">
                    <path d="M27.1133504,1.95450903 C26.0960777,0.745236299 24.2178959,0.251963571 20.6309868,0.251963571 L7.61053222,0.251963571 C3.94153222,0.251963571 2.03153222,0.77705448 1.01807768,2.06450903 C0.0299867692,3.31978175 0.0299867692,5.16932721 0.0299867692,7.72914539 L0.0299867692,12.6081454 C0.0299867692,17.5673272 1.20235041,20.0852363 7.61053222,20.0852363 L20.6310777,20.0852363 C23.7416231,20.0852363 25.4652595,19.6499636 26.5803504,18.5827818 C27.7238959,17.4884181 28.211805,15.7015999 28.211805,12.6081454 L28.211805,7.72914539 C28.211805,5.02959994 28.1353504,3.16914539 27.1133504,1.95450903 Z M18.122805,10.8422363 L12.2102595,13.9323272 C12.0780777,14.0014181 11.9335322,14.0356908 11.7891686,14.0356908 C11.625714,14.0356908 11.4626231,13.9916908 11.3181686,13.9042363 C11.0461686,13.7394181 10.8800777,13.4445999 10.8800777,13.1265999 L10.8800777,6.9662363 C10.8800777,6.64878175 11.045714,6.3542363 11.3171686,6.18932721 C11.588714,6.02441812 11.9264413,6.01314539 12.2081686,6.15950903 L18.120714,9.22969084 C18.4215322,9.38587266 18.6104413,9.69641812 18.6108959,10.0352363 C18.6112595,10.3743272 18.4231686,10.6853272 18.122805,10.8422363 Z" id="XMLID_823_"></path>
                </g>
            </g>
        </g>
    </g>
</svg>