<?xml version="1.0" encoding="utf-8"?>
<!-- Generator: Adobe Illustrator 22.1.0, SVG Export Plug-In . SVG Version: 6.00 Build 0)  -->
<svg version="1.1" id="wall_mural" xmlns="http://www.w3.org/2000/svg" xmlns:xlink="http://www.w3.org/1999/xlink" x="0px" y="0px"
	 viewBox="0 0 576 576" style="enable-background:new 0 0 576 576;" xml:space="preserve">
<style type="text/css">
	.st0{opacity:0.5;}
	.st1{fill:#BAAFAB;}
	.st2{fill:#EE7623;}
	.st3{fill:#8C9091;}
	.st4{fill:#D3D655;}
	.st5{fill:none;stroke:#8C9091;stroke-miterlimit:10;}
	.st6{fill:#87D1E6;}
	.st7{fill:#6BB1BA;}
	.st8{fill:#AFBC37;}
	.st9{fill:#8C9091;stroke:#D3D655;stroke-miterlimit:10;}
	.st10{fill:#FFFFFF;}
</style>
<g>
	<path class="st3" d="M41.9,209.5l-3.9-4.7c-3.7-4.5-5.9-11.2-5.9-18.5c0-15.2,8.1-25.8,19.9-25.8c5.9,0,9.3,3.5,9.8,3.5
		s0.6-2,0.6-3h3.9l5.1,6.7v17.3h-4.3l-5.1-5.9c0.2-2.6-0.2-4.7-1.2-7.3c-0.6-0.4-1.4-0.6-2-0.6c-3.7,0-5.1,5.7-5.1,20.7
		c0,6.3,0.2,10.8,0.8,14c4.3-0.6,8.3-8.1,8.1-16.5h4.5l5.1,6.5c-0.4,13.4-6.3,20.9-16.1,20.9C50.3,216.8,45.2,214.3,41.9,209.5z
		 M66.5,190.6h-2.8c-0.2,9.1-4.9,16.5-9.8,16.5c-4.5,0-5.9-5.9-5.9-20.9c0-12.6,0.8-21.9,6.3-21.9c4.7,0,8.9,6.3,9.1,13.8h2.4v-15.8
		h-2.4c-0.2,2.4-0.6,3-1.4,3c-1.6,0-3.7-3.7-10-3.7c-12.2,0-18.7,11.6-18.7,24.6c0,13.2,6.7,23.6,18.3,23.6
		C63.7,209.9,66.1,198.1,66.5,190.6z M35.6,186.3c0-0.4,0-0.8,0-1.2h9.8v1.6h-9.8V186.3z M35.8,182.2h9.8c0,0.6,0,1,0,1.6h-9.8
		V182.2z M35.8,188.1h9.8c0,0.4,0,1,0,1.6h-9.8C35.8,189.1,35.8,188.5,35.8,188.1z M36,191h9.6c0,0.6,0,1,0,1.6h-9.5
		C36.2,192,36,191.4,36,191z M36.4,179.2h9.5c0,0.6,0,1,0,1.6H36L36.4,179.2z M36.6,194h9.3c0,0.6,0,1,0.2,1.6H37
		C36.8,195,36.6,194.4,36.6,194z M37.2,176.3h8.7c0,0.4,0,1,0,1.4h-9.3C36.8,177.2,37,176.6,37.2,176.3z M37.3,196.9H46l0.2,1.6
		h-8.3C37.7,197.9,37.5,197.3,37.3,196.9z M38.3,173.3h7.9c0,0.4-0.2,1-0.2,1.6h-8.3L38.3,173.3z M38.9,199.9h7.5
		c0,0.6,0.2,1,0.2,1.6h-6.9C39.5,200.9,39.1,200.3,38.9,199.9z M40.1,170.3h6.7c-0.2,0.4-0.4,1-0.4,1.4h-7.3
		C39.5,171.3,39.7,170.7,40.1,170.3z M41.1,202.8H47c0.2,0.6,0.2,1,0.4,1.6h-4.9C42.1,203.8,41.5,203.4,41.1,202.8z M42.9,167.4h4.7
		l-0.6,1.4h-5.7C41.9,168.2,42.3,167.8,42.9,167.4z M44.6,205.8H48c0.2,0.6,0.6,1.2,1,1.6C47.4,207,46,206.6,44.6,205.8z
		 M49.2,164.2c-0.4,0.6-0.6,1-1,1.6H45C46.4,165,47.6,164.6,49.2,164.2z M62,167.2L62,167.2c0.6,0,1.2-0.2,1.6-0.4v3
		C63.1,168.8,62.6,168,62,167.2z"/>
	<path class="st3" d="M85.4,209.1l-4.1-5.3c-3.7-4.7-5.9-10.8-5.9-18.1c0-14.4,8.7-25.2,20.5-25.2c5.9,0,11,2.8,15.2,7.7l4.5,5.7
		c3.5,4.5,5.5,10.6,5.5,17.3c0,14.4-8.9,25.4-20.7,25.4C94.4,216.8,89.1,213.9,85.4,209.1z M115.3,185.7c0-13.8-8.5-24-19.5-24
		c-10.8,0-19.3,9.8-19.3,24c0,14.2,8.5,24,19.3,24C106.9,209.9,115.3,199.7,115.3,185.7z M79.1,185.1h9.6v1.6h-9.6V185.1z
		 M79.3,182.4h9.5v1.6h-9.6L79.3,182.4z M79.1,187.9h9.6v1.6h-9.5L79.1,187.9z M79.7,179.4h9.1v1.6h-9.3L79.7,179.4z M79.5,190.6
		h9.3v1.6h-9.1L79.5,190.6z M80.5,176.6h8.3v1.6h-8.7L80.5,176.6z M80.1,193.4h8.7v1.6h-8.1L80.1,193.4z M81.6,173.9h6.9v1.6h-7.7
		L81.6,173.9z M81.1,196.3h7.7v1.6h-6.9L81.1,196.3z M83.4,170.9h5.5l-0.2,1.6h-6.3C82.6,171.9,83,171.5,83.4,170.9z M82.4,199.1
		h6.3l0.2,1.6h-5.3C83,200.1,82.8,199.7,82.4,199.1z M85.8,168.2h3.3c-0.2,0.4-0.2,1-0.2,1.6h-4.5C84.8,169.2,85.4,168.6,85.8,168.2
		z M84.4,201.8h4.5c0,0.6,0.2,1,0.2,1.6h-3.3C85.4,203,85,202.4,84.4,201.8z M90.3,165.4c-0.2,0.4-0.4,1-0.6,1.6h-2.2
		C88.5,166.2,89.3,165.8,90.3,165.4z M87.6,204.8h2.2c0.2,0.6,0.4,1.2,0.6,1.6C89.3,206,88.7,205.6,87.6,204.8z M91.1,197.9v-24.2
		c0-6.7,2-9.8,4.9-9.8c3,0,4.9,3.3,4.9,9.8v24.2c0,6.7-2,9.8-4.9,9.8C93.1,207.8,91.1,204.4,91.1,197.9z M99.6,197.9v-24.2
		c0-1,0-1.6-0.2-2.8c-1.6,0.8-2.8,3.7-2.8,8.5v24.2c0,1,0,2,0.2,2.8C98.6,205.4,99.6,202.4,99.6,197.9z M102.3,204.8h2.2
		c-1.2,0.8-1.8,1.2-2.8,1.6C101.9,205.8,102.1,205.2,102.3,204.8z M101.7,165.4c0.8,0.4,1.6,0.6,2.8,1.6h-2.2
		C102.1,166.4,101.9,165.8,101.7,165.4z M102.7,168.2h3.3c0.6,0.4,1,1,1.4,1.6h-4.5C102.9,169.2,102.7,168.6,102.7,168.2z
		 M102.9,201.8h4.5c-0.4,0.6-1,1-1.4,1.6h-3.3C102.7,203,102.9,202.4,102.9,201.8z M103.1,170.9h5.5c0.4,0.4,0.6,1,1,1.6h-6.3
		L103.1,170.9z M103.3,199.1h6.3c-0.2,0.6-0.6,1-1,1.6h-5.3V199.1z M103.3,173.9h6.9c0.4,0.4,0.6,1,0.8,1.4h-7.7
		C103.3,175.3,103.3,173.9,103.3,173.9z M103.3,176.6h8.3l0.4,1.6h-8.7C103.3,178.2,103.3,176.6,103.3,176.6z M103.3,179.4h9.1
		l0.2,1.6h-9.3C103.3,181,103.3,179.4,103.3,179.4z M103.3,182.4h9.5l0.2,1.6h-9.6C103.3,183.9,103.3,182.4,103.3,182.4z
		 M103.3,185.1h9.6v1.6h-9.6V185.1z M103.3,187.9h9.5v1.4h-9.5V187.9z M103.3,190.6h9.3l-0.2,1.6h-9.1
		C103.3,192.2,103.3,190.6,103.3,190.6z M103.3,193.4h8.7l-0.4,1.6h-8.1v-1.6H103.3z M103.3,196.3h7.5c-0.2,0.6-0.4,1-0.6,1.6h-6.9
		V196.3z"/>
	<path class="st3" d="M142.7,212.3v3.7h-14l-5.1-6.5v-3.9h3c1.6,0,1.8,0,1.8-1.6v-32.9l-4.5-5.7v-3.9h19.9l5.1,6.3l3.2,12.4
		l4.7-18.7h19.1l5.1,6.5v3.9h-3c-1.8,0-1.8,0-1.8,1.6v31.9l4.7,6.3v4.3h-23.6l-2.8-3.5l-1,3.5h-7.9L142.7,212.3z M148,208.9
		l9.8-36.8v31.5c0,2.4-0.4,3-3,3h-1.8v2.4h21.7v-2.4H173c-2.4,0-3-0.4-3-3v-35.8c0-2.4,0.4-3,3-3h1.8v-2.4h-17.5l-7.1,28.2
		l-7.3-28.2h-18.1v2.4h1.8c2.2,0,2.8,0.4,3,2.2l-0.2,36.8c0,2.4-0.6,3-3,3h-1.8v2.4h12v-2.4h-1.8c-2.4,0-3-0.4-3-3v-31.1l9.6,36.2
		H148z M130.5,205.2c0.2,0.4,0.4,1,0.8,1.4h-1.6C130.3,206.2,130.5,205.8,130.5,205.2z M132.4,164.8h8.7l0.4,1.6h-8.7L132.4,164.8z
		 M133.2,167.8h8.7l0.4,1.6h-8.5L133.2,167.8z M134,170.5h8.7l0.4,1.6h-8.7L134,170.5z M134.8,173.5h8.5l0.4,1.6h-8.5L134.8,173.5z
		 M135.4,176.3h8.5l0.4,1.6h-8.5L135.4,176.3z M136.2,179.2h8.5l0.4,1.6h-8.5L136.2,179.2z M137,182.2h8.5l0.4,1.6h-8.5L137,182.2z
		 M137.4,197.5v7.5l3.2,3.9L137.4,197.5z M137.8,184.9h8.5l0.4,1.6h-8.5L137.8,184.9z M138.6,187.9h8.5l0.4,1.6h-8.5L138.6,187.9z
		 M139.3,190.6h8.5l0.4,1.6h-8.5L139.3,190.6z M140.1,193.6h8.5l0.4,1.6h-8.5L140.1,193.6z M140.7,196.5h8.1l-0.2,1.4h-7.3
		L140.7,196.5z M141.7,199.3h6.5l-0.4,1.6h-5.7L141.7,199.3z M142.3,202.2h5.1l-0.4,1.6h-4.1L142.3,202.2z M143.1,205.2h3.5
		l-0.4,1.4h-2.8L143.1,205.2z M160.2,205.2h7.9c0,0.6,0.2,1,0.4,1.6h-8.7C160,206.2,160.2,205.6,160.2,205.2z M160.2,164.8h8.3
		c-0.2,0.4-0.2,1-0.4,1.6h-7.9V164.8z M160.2,167.8h7.7v1.6h-7.7V167.8z M160.2,170.5h7.7v1.6h-7.7V170.5z M160.2,173.5h7.7v1.6
		h-7.7V173.5z M160.2,176.3h7.7v1.6h-7.7V176.3z M160.2,179.2h7.7v1.6h-7.7V179.2z M160.2,182.2h7.7v1.6h-7.7V182.2z M160.2,184.9
		h7.7v1.6h-7.7V184.9z M160.2,187.9h7.7v1.6h-7.7V187.9z M160.2,190.6h7.7v1.6h-7.7V190.6z M160.2,193.6h7.7v1.6h-7.7V193.6z
		 M160.2,196.5h7.7v1.4h-7.7V196.5z M160.2,199.3h7.7v1.6h-7.7V199.3z M160.2,202.2h7.7v1.6h-7.7V202.2z"/>
	<path class="st3" d="M202.7,212.3v3.7h-14l-5.1-6.5v-3.9h3c1.6,0,1.8,0,1.8-1.6v-32.9l-4.7-5.9v-3.9h19.9l5.1,6.3l3.2,12.4
		l4.7-18.7h19.1l5.1,6.5v3.9h-3c-1.8,0-1.8,0-1.8,1.6v31.9l4.7,6.3v4.3h-23.4l-2.8-3.5l-1,3.5h-7.9L202.7,212.3z M208.1,208.9
		l9.8-36.8v31.5c0,2.4-0.4,3-3,3h-1.8v2.4h21.7v-2.4h-1.8c-2.4,0-3-0.4-3-3v-35.8c0-2.4,0.4-3,3-3h1.8v-2.4h-17.5l-7.3,28.2
		l-7.1-28.2h-18.1v2.4h1.8c2.2,0,2.8,0.4,3,2.2l-0.2,36.8c0,2.4-0.6,3-3,3h-1.8v2.4h12v-2.4h-1.8c-2.4,0-3-0.4-3-3v-31.1l9.6,36.2
		H208.1z M190.5,205.2c0.2,0.4,0.4,1,0.8,1.4h-1.6C190.3,206.2,190.5,205.8,190.5,205.2z M192.5,164.8h8.7l0.4,1.6h-8.7L192.5,164.8
		z M193.3,167.8h8.7l0.4,1.6h-8.5L193.3,167.8z M194.1,170.5h8.7l0.4,1.6h-8.5L194.1,170.5z M194.9,173.5h8.5l0.4,1.6h-8.5
		L194.9,173.5z M195.7,176.3h8.5l0.4,1.6H196L195.7,176.3z M196.2,179.2h8.5l0.4,1.6h-8.5L196.2,179.2z M197,182.2h8.5l0.4,1.6h-8.5
		L197,182.2z M197.4,197.5v7.5l3.2,3.9L197.4,197.5z M197.8,184.9h8.5l0.4,1.6h-8.5L197.8,184.9z M198.6,187.9h8.5l0.4,1.6H199
		L198.6,187.9z M199.4,190.6h8.5l0.4,1.6h-8.5L199.4,190.6z M200.2,193.6h8.5l0.4,1.6h-8.5L200.2,193.6z M201,196.5h8.1l-0.4,1.4
		h-7.3L201,196.5z M201.8,199.3h6.5l-0.4,1.6h-5.7L201.8,199.3z M202.3,202.2h5.1l-0.4,1.6h-4.1L202.3,202.2z M203.1,205.2h3.5
		l-0.4,1.6h-2.8L203.1,205.2z M220.3,205.2h7.9c0,0.6,0.2,1,0.4,1.6h-8.7C220.1,206.2,220.3,205.6,220.3,205.2z M220.3,164.8h8.3
		c-0.2,0.4-0.2,1-0.4,1.6h-7.9V164.8z M220.3,167.8h7.7v1.6h-7.7V167.8z M220.3,170.5h7.7v1.6h-7.7V170.5z M220.3,173.5h7.7v1.6
		h-7.7V173.5z M220.3,176.3h7.7v1.6h-7.7V176.3z M220.3,179.2h7.7v1.6h-7.7V179.2z M220.3,182.2h7.7v1.6h-7.7V182.2z M220.3,184.9
		h7.7v1.6h-7.7V184.9z M220.3,187.9h7.7v1.6h-7.7V187.9z M220.3,190.6h7.7v1.6h-7.7V190.6z M220.3,193.6h7.7v1.6h-7.7V193.6z
		 M220.3,196.5h7.7v1.4h-7.7V196.5z M220.3,199.3h7.7v1.6h-7.7V199.3z M220.3,202.2h7.7v1.6h-7.7V202.2z"/>
	<path class="st3" d="M254.1,211.7l-4.3-5.5c-1.8-2.2-2.8-5.3-2.8-8.7v-26.6l-4.5-5.7v-3.9h23.4l2.4,3v-3h12l5.1,6.5v3.9h-2.4
		c-1.8,0-1.6,0-1.6,1.6v30.5c0,8.5-5.1,12.8-15,12.8C260.6,216.6,256.5,214.8,254.1,211.7z M275.8,198.1v-30.3c0-2.4,0.4-3,3-3h1.2
		v-2.4h-10.4v2.4h0.8c2.4,0,3,0.4,3,3v30.3c0,5.3-2.6,7.7-6.1,7.7c-3.3,0-5.9-2.4-5.9-7.1v-30.9c0-2.4,0.4-3,3-3h1.4v-2.4h-21.7v2.4
		h1.8c2.4,0,3,0.4,3,3v29.7c0,6.3,3.2,12.2,13.8,12.2C271.7,209.5,275.8,205.4,275.8,198.1z M250.2,164.8h8.9
		c-0.2,0.4-0.2,0.8-0.4,1.4h-8.1C250.6,165.6,250.4,165.2,250.2,164.8z M250.6,167.8h7.9v1.6h-7.9V167.8z M250.6,170.5h7.9v1.6h-7.9
		V170.5z M250.6,173.5h7.9v1.6h-7.9V173.5z M250.6,176.4h7.9v1.6h-7.9V176.4z M250.6,179.4h7.9v1.6h-7.9V179.4z M250.6,182.4h7.9
		v1.6h-7.9V182.4z M250.6,185.3h7.9v1.6h-7.9V185.3z M250.6,188.1h7.9v1.6h-7.9V188.1z M250.6,191h7.9v1.6h-7.9V191z M250.6,194h7.9
		v1.6h-7.9V194z M250.6,197.5v-0.6h7.9v1.6h-7.9C250.6,198.1,250.6,197.7,250.6,197.5z M250.8,199.9h7.9c0,0.6,0.2,1,0.2,1.6h-7.7
		C251,200.9,251,200.3,250.8,199.9z M251.8,202.8h7.5c0.2,0.6,0.4,1,0.8,1.6H253C252.6,203.8,252.2,203.4,251.8,202.8z M254.7,205.6
		h6.3c0.6,0.6,1.2,1.2,2,1.6h-2.2C258.5,207.2,256.3,206.6,254.7,205.6z M266.9,204.4c3.2,0,4.9-2.2,4.9-6.3v-28l-1-1.2v2.8h-3
		c-1.8,0-1.6,0-1.6,1.6v30.9C266.5,204.4,266.7,204.4,266.9,204.4z M273.6,164.8h1.6c-0.4,0.4-0.6,1-0.8,1.4
		C274.2,165.6,273.8,165.2,273.6,164.8z"/>
	<path class="st3" d="M313.2,209.7l-11.6-23.6v19.3l4.3,5.7v4.7h-12.8l-5.1-6.5v-3.9h2.4c1.6,0,1.6-0.2,1.6-1.6l0.2-33.7l-3.9-4.9
		v-3.9h18.9l5.1,6.3l7.5,14.8v-12.2l-3.9-4.9v-3.9h12.6l5.1,6.5v3.9h-3.2c-0.6,0-0.8,0.2-0.8,0.8l-0.2,43.3l-10.8,0.2L313.2,209.7z
		 M300.4,208.9v-2.4H299c-2.2,0-2.8-0.6-3-3l-0.2-32.3l18.3,37.6h9.1l0.4-41.3c0-2.4,0.6-2.8,2.8-2.8h1.2v-2.4h-10.8v2.4h1.2
		c2.4,0,3,0.4,3,3v22.8l-14.2-28.2h-17.1v2.4h1.2c2.2,0,2.8,0.4,2.8,2.2v36.8c0,2.4-0.6,3-3,3h-1.2v2.4h11V208.9z M294.7,205.2
		c0.2,0.4,0.4,1,0.8,1.4h-1.6C294.1,206.2,294.5,205.8,294.7,205.2z M295.7,165.6c-0.2-0.2-0.2-0.4-0.4-0.6h9.8l0.8,1.6h-9.8
		L295.7,165.6z M296.7,167.8h9.8l0.8,1.6h-9.8L296.7,167.8z M298,170.5h10l0.8,1.6h-10L298,170.5z M299.4,173.5h10l0.8,1.6h-10
		L299.4,173.5z M301,176.3h10l0.8,1.6h-10L301,176.3z M302.4,179.2h10l0.8,1.6h-10L302.4,179.2z M303.8,182.2H314l0.8,1.6h-10.2
		L303.8,182.2z M305.1,184.9h10.2l0.8,1.6h-10.2L305.1,184.9z M306.5,187.9h10.2l0.8,1.6h-10.2L306.5,187.9z M307.9,190.6h10.2
		l0.8,1.6h-10.2L307.9,190.6z M309.5,193.6h10.2l0.8,1.6h-10.2L309.5,193.6z M310.8,196.5h10.2v1.4h-9.5L310.8,196.5z M312.2,199.3
		h8.9v1.6H313L312.2,199.3z M313.6,202.2h7.5v1.6h-6.7L313.6,202.2z M315,205.2h6.1v1.6h-5.3L315,205.2z M321.5,164.6h1.6
		c-0.4,0.4-0.6,1-0.8,1.4C322.1,165.6,321.7,165.2,321.5,164.6z"/>
	<path class="st3" d="M335.8,209.3v-3.9h3c1.6,0,1.6,0,1.6-1.2v-33.3l-4.5-5.7v-3.9h23.8l5.1,6.5v3.9h-3c-1.8,0-1.8,0-1.8,1.6v31.9
		l4.7,6.1v4.3h-23.6L335.8,209.3z M359.1,208.9v-2.4h-1.8c-2.4,0-3-0.4-3-3v-35.8c0-2.4,0.4-3,3-3h1.8v-2.4H337v2.4h1.8
		c2.4,0,3,0.4,3,3v36.4c0,2-0.6,2.4-3,2.4H337v2.4H359.1z M343.5,164.8h9.1c-0.2,0.4-0.2,1-0.4,1.6h-8.3
		C343.9,165.8,343.7,165.2,343.5,164.8z M343.9,205.2h8.3c0,0.6,0.2,1,0.4,1.6h-9.1C343.7,206.2,343.9,205.6,343.9,205.2z
		 M344.1,167.8h8.1v1.6h-8.1V167.8z M344.1,170.5h8.1v1.6h-8.1V170.5z M344.1,173.5h8.1v1.6h-8.1V173.5z M344.1,176.3h8.1v1.6h-8.1
		V176.3z M344.1,179.2h8.1v1.6h-8.1V179.2z M344.1,182.2h8.1v1.6h-8.1V182.2z M344.1,184.9h8.1v1.6h-8.1V184.9z M344.1,187.9h8.1
		v1.6h-8.1V187.9z M344.1,190.6h8.1v1.6h-8.1V190.6z M344.1,193.6h8.1v1.6h-8.1V193.6z M344.1,196.5h8.1v1.4h-8.1V196.5z
		 M344.1,199.3h8.1v1.6h-8.1V199.3z M344.1,202.2h8.1v1.6h-8.1V202.2z"/>
	<path class="st3" d="M377,209.5l-3.7-4.7c-3.7-4.5-5.9-11.2-5.9-18.5c0-15.2,8.1-25.8,19.9-25.8c5.9,0,9.3,3.5,9.8,3.5s0.6-2,0.6-3
		h3.9l5.1,6.5v17.3h-4.5l-5.1-5.9c0.2-2.6-0.2-4.7-1.2-7.3c-0.6-0.4-1.4-0.6-2-0.6c-3.5,0-5.1,5.5-5.1,20.5c0,6.3,0.2,10.8,0.8,14
		c4.3-0.6,8.3-8.1,8.1-16.5h4.5l5.1,6.5c-0.4,13.4-6.3,20.9-16.1,20.9C385.5,216.8,380.5,214.3,377,209.5z M401.6,190.6h-2.8
		c-0.2,9.1-4.9,16.5-9.8,16.5c-4.5,0-5.9-5.9-5.9-20.9c0-12.6,0.8-21.9,6.3-21.9c4.7,0,8.9,6.3,9.1,13.8h2.4v-15.8h-2.4
		c-0.2,2.4-0.6,3-1.4,3c-1.6,0-3.7-3.7-10-3.7c-12.2,0-18.7,11.6-18.7,24.6c0,13.2,6.7,23.6,18.3,23.6
		C399.1,209.9,401.4,198.1,401.6,190.6z M370.9,186.3c0-0.4,0-0.8,0-1.2h9.8v1.6h-9.8V186.3z M371.1,182.2h9.8c0,0.6,0,1,0,1.6h-9.8
		V182.2z M370.9,188.1h9.8c0,0.4,0,1,0,1.6h-9.8C370.9,189.1,370.9,188.5,370.9,188.1z M371.1,191h9.6c0,0.6,0,1,0,1.6h-9.5
		C371.3,192,371.3,191.4,371.1,191z M371.5,179.2h9.5c0,0.6,0,1,0,1.6h-9.6L371.5,179.2z M371.7,194h9.3c0,0.6,0,1,0.2,1.6h-9.1
		C371.9,195,371.7,194.4,371.7,194z M372.3,176.3h8.9c0,0.4-0.2,1-0.2,1.6h-9.1C372.1,177.2,372.1,176.6,372.3,176.3z M372.7,196.9
		h8.7l0.2,1.6h-8.1C373.1,197.9,372.9,197.3,372.7,196.9z M373.5,173.3h7.9c0,0.4-0.2,1-0.2,1.6h-8.5L373.5,173.3z M374,199.9h7.5
		c0,0.6,0.2,1,0.2,1.6h-6.9C374.6,200.9,374.4,200.3,374,199.9z M375.2,170.3h6.7c-0.2,0.4-0.2,1-0.2,1.6h-7.3
		C374.6,171.3,374.8,170.7,375.2,170.3z M376.2,202.8h5.9c0.2,0.6,0.2,1,0.4,1.6h-4.9C377.2,203.8,376.6,203.4,376.2,202.8z
		 M378,167.4h4.7l-0.6,1.6h-5.7C377,168.2,377.6,167.8,378,167.4z M380,205.8h3.3c0.2,0.6,0.6,1.2,1,1.6
		C382.7,207,381.1,206.6,380,205.8z M384.3,164.2c-0.4,0.4-0.6,1-1,1.6h-3.2C381.5,165,382.9,164.6,384.3,164.2z M397.1,167.2
		L397.1,167.2c0.6,0,1.2-0.2,1.6-0.4v3C398.3,168.8,397.7,168,397.1,167.2z"/>
	<path class="st3" d="M408.3,209.3v-3.9h2.2c1.4,0,2.4-0.8,2.8-2l14.2-42.5h6.9l5.9,7.3l12,37.2l4.7,6.3v4.1h-23.8l-5.1-6.5v-4.1
		h3.3c0.4,0,0.6-0.2,0.4-0.6l-0.8-2.4H425l-1.6,5.1l3.5,4.5v3.9h-13.6L408.3,209.3z M421.3,208.9v-2.4h-1.8c-1.8,0-2.6-0.8-2.6-2
		c0-0.4,0.2-0.8,0.2-1.2l2.4-7.9h10.6l2.8,9.1c0,0.2,0.2,0.4,0.2,0.6c0,0.8-0.4,1.6-1.8,1.6h-2.2v2.4h22.1v-2.4h-1
		c-1.4,0-2.4-0.8-2.8-2l-13.8-42.3h-5.5L414.4,204c-0.6,1.8-2,2.8-3.9,2.8h-1v2.4h11.8V208.9z M415.4,204.8c0,0.6,0.4,1.2,0.8,1.8
		H414C414.6,206.2,415.2,205.4,415.4,204.8z M425,178.4l4.5,14.6h-9.1L425,178.4z M427,173.3h7.7l0.4,1.6h-8.7L427,173.3z M428,192
		l-0.6-2.2l-0.8,2.2H428z M426.6,176.1h9.1l0.4,1.6H427L426.6,176.1z M428,170.3h5.9l0.4,1.6h-6.9L428,170.3z M427.6,179h9.1
		l0.4,1.6H428L427.6,179z M429,167.4h3.9l0.4,1.6h-4.9L429,167.4z M428.4,182h9.1l0.6,1.6H429L428.4,182z M429.8,164.6h2l0.4,1.6h-3
		L429.8,164.6z M429.4,184.9h9.1l0.6,1.6h-9.3L429.4,184.9z M430.2,187.7h9.1l0.6,1.6h-9.3L430.2,187.7z M431.1,190.6h9.3l0.6,1.6
		h-9.3L431.1,190.6z M431.9,193.6h9.3l0.4,1.6h-9.3L431.9,193.6z M432.9,196.3h9.3l0.4,1.6h-9.3L432.9,196.3z M433.7,199.3h9.5
		l0.4,1.6h-9.5L433.7,199.3z M434.7,202.2h9.5l0.4,1.6h-9.5L434.7,202.2z M435.5,205.2h9.6v0.2c0.2,0.4,0.4,1,0.6,1.4h-10.6
		C435.3,206.2,435.3,205.6,435.5,205.2z"/>
	<path class="st3" d="M460.9,209.3v-3.9h3c1.8,0,1.6,0,1.6-1.6v-27c-1.8,3.2-3,7.3-3,10.4c0,0.4,0,0.8,0,1.2h-4.3L453,182v-20.7h40
		l5.1,6.5v20.9h-4.3l-5.1-6.5c0.2-3-1-6.7-2.6-10c-0.2-0.2-0.2-0.2-0.4-0.2v33.7l4.5,6.1v4.3H466L460.9,209.3z M484.5,208.9v-2.4
		h-1.8c-2.4,0-3-0.4-3-3v-38.2c0-0.6,0.2-0.6,0.6-0.6c4.5,0,9.3,10.4,9.3,16.9h2.6v-19.3H454v19.1h2.6c0-6.3,4.7-16.7,9.3-16.9
		c0.4,0,0.6,0,0.6,0.6v38.6c0,2.4-0.4,3-3,3h-1.8v2.4h22.8V208.9z M456.5,164.8h4.5c-0.4,0.4-1,1-1.4,1.6h-3.2V164.8z M456.5,167.8
		h2c-0.8,1.2-1.4,1.8-2,3.2V167.8z M469,205.2h8.7c0,0.6,0.2,1.2,0.4,1.6h-9.5C468.8,206.2,469,205.6,469,205.2z M469,165.4
		c0-0.2,0-0.4,0-0.6h8.7c0,0.2,0,0.4,0,0.6v1h-8.5v-1H469z M469,167.8h8.5v1.6H469V167.8z M469,170.5h8.5v1.6H469V170.5z M469,173.5
		h8.5v1.6H469V173.5z M469,176.3h8.5v1.6H469V176.3z M469,179.2h8.5v1.6H469V179.2z M469,182.2h8.5v1.6H469V182.2z M469,184.9h8.5
		v1.6H469V184.9z M469,187.9h8.5v1.6H469V187.9z M469,190.6h8.5v1.6H469V190.6z M469,193.6h8.5v1.6H469V193.6z M469,196.5h8.5v1.4
		H469V196.5z M469,199.3h8.5v1.6H469V199.3z M469,202.2h8.5v1.6H469V202.2z M485.5,164.8h4.5v1.6h-3.2
		C486.5,165.8,485.9,165.2,485.5,164.8z M487.9,167.8h2v3.2C489.2,169.6,488.6,169,487.9,167.8z"/>
	<path class="st3" d="M501,209.3v-3.9h3c1.8,0,1.6,0,1.6-1.6v-32.9l-4.5-5.7v-3.9h36.6l5.1,6.5v17.1h-4.1l-3.3-4.1v8.7h3.3l5.3,6.5
		l-0.6,20.1h-36.8L501,209.3z M537.5,208.9l0.6-18.5h-2.6c-0.4,7.3-6.3,16.5-13.2,16.5c-2.2,0-2.6-0.8-2.6-3.2v-17.5
		c3.7,0,7.1,3.5,7.1,10.2h2.6v-22.6h-2.6c0,5.7-3.3,9.8-7.1,9.8v-18.5c0-0.4,1.2-0.4,1.8-0.4c6.7,0.2,13,4.5,13,13h2.6v-15.4h-34.9
		v2.4h1.8c2.4,0,3,0.4,3,3v36c0,2.4-0.4,3-3,3h-1.8v2.4h35.2V208.9z M508.7,164.8h8.5v1.6h-8.1C509.1,165.8,508.9,165.2,508.7,164.8
		z M509.1,205.2h8.1c0,0.6,0.2,1,0.4,1.6h-8.9C508.9,206.2,509.1,205.6,509.1,205.2z M509.3,167.8h8.1v1.6h-8.1V167.8z M509.3,170.5
		h8.1v1.6h-8.1V170.5z M509.3,173.5h8.1v1.6h-8.1V173.5z M509.3,176.3h8.1v1.6h-8.1V176.3z M509.3,179.2h8.1v1.6h-8.1V179.2z
		 M509.3,182.2h8.1v1.6h-8.1V182.2z M509.3,184.9h8.1v1.6h-8.1V184.9z M509.3,187.9h8.1v1.6h-8.1V187.9z M509.3,190.6h8.1v1.6h-8.1
		V190.6z M509.3,193.6h8.1v1.6h-8.1V193.6z M509.3,196.5h8.1v1.4h-8.1V196.5z M509.3,199.3h8.1v1.6h-8.1V199.3z M509.3,202.2h8.1
		v1.6h-8.1V202.2z M527,181.8v2.6h-3C525.1,183.9,526.4,182.7,527,181.8z M524.1,185.9h3v2.4C526.4,187.3,525.1,186.1,524.1,185.9z
		 M532.5,173.1c-2-1.6-4.7-2-7.5-2v6.5c0.6-1.4,0.6-3,0.6-4.9h4.5l3,4.3C533.3,176.1,532.9,174.1,532.5,173.1z M525.1,205.2
		c1.4-0.6,2.8-1.8,3.9-3l-3.3-4.5c0-1.2,0-2.4-0.2-3.5h-0.4V205.2z M530.8,205.2h4.3v1.6h-5.9C529.6,206.2,530.2,205.6,530.8,205.2z
		 M530.2,164.8h4.3v1.2h-2.8C531.4,165.6,530.8,165.2,530.2,164.8z M533.1,202.4h2v1.6H532C532.4,203.4,532.7,202.8,533.1,202.4z
		 M533.1,167.4h1.6v2.2C534.1,168.8,533.7,168,533.1,167.4z M535.3,199.1v2h-1.2C534.5,200.5,534.9,199.7,535.3,199.1z"/>
</g>
<path class="st3" d="M220.7,314.1c3.7-1.6,4.7-5.3,4.7-8.9c0-15.4-0.2-26.4-0.2-39c0,0,8.7-3.5,11.2-3.5c0,0,0.2,0,0.2,0.4
	c10.2,20.7,15.9,31.3,18.9,36.8c1.8,3.2,3.2,3.2,5.7,3.2c0.4,0,0.8,1.8,0.8,5.7c0,0-8.1,0.8-19.5,4.1l-1.2-5.1
	c0-0.2,5.3-1.8,5.3-4.9l-3.5-7.5l-10,3.3v4.3c0,5.1,4.3,5.1,6.5,5.1l1.2,5.1c0,0-7.1,2.6-18.5,7.7L220.7,314.1z M240.4,290.7
	l-8.5-19.3c0,5.5,0.2,14.8,0.2,22.1L240.4,290.7z M289.2,309c-4.7-13-11.4-27.8-16.5-40l1.8,25.2c0,5.1,1.8,7.5,5.7,7.5l-0.2,6.7
	c-2.2-0.2-4.1-0.2-6.7-0.2c-2.4,0-5.1,0.2-9.1,0.8c0,0,0-4.9,0-5.3c0-1.2,3.5-0.8,3.5-5.1c0-11-1.2-19.7-1.8-31.5c-0.2-2-1-3-3.5-3
	c-1,0-2.2,0.2-3.7,0.4c-0.8-4.1-0.8-5.7-0.8-6.1c0-0.2,6.1-1.8,13.4-1.8c1.6,0,3.2,0,5.1,0.2l12.6,33.1c0-4.9,1.6-17.7,1.6-22.8
	c0-2.8-2.2-3.7-4.7-4.1l0.2-5.7c0,0,11.2,0.2,18.9,2.2l-1,5.7c0,0.2-0.2,0.4-0.2,0.4c-2.8,0-4.7,0-4.9,2.4
	c-1.2,11.2-1.8,19.9-3.3,42.1L289.2,309z M299.2,310.3v-0.4l1-5.1c3-0.4,6.5-0.4,7.7-3c1.8-4.1,7.1-23.2,8.7-30.1
	c0.2-1,0.4-1.8,0.4-2.4c0-4.5-4.9-3.3-4.9-4.7l1-3.9c2.8,0.2,18.5,4.7,22.2,6.1c9.1,3.2,14.4,8.5,14.4,15.9c0,11-7.5,34.7-19.5,34.7
	C321.5,317.2,308.9,312.3,299.2,310.3z M325,310.3c2.8,0,6.1-1.6,7.9-4.7c1.6-3,6.7-15.2,6.7-23.8V281c-0.2-5.3-4.7-9.1-9.1-9.1
	c-2.6,0-3.7,3.2-4.9,6.7c-1.2,3.7-7.5,24.2-7.5,27.2C318.1,308.6,322.5,310.3,325,310.3z"/>
<g>
	<path class="st2" d="M60.4,371.2c0-1.8-1-2.6-2.6-2.6h-12c-1.8,0-2.6,1-2.6,2.6v29.9c0,1.8,1,2.6,2.6,2.6h12c1.8,0,2.6-1,2.6-2.6
		v-6.7h11v8.9c0,6.5-4.5,11-11,11H43.1c-6.5,0-11-4.5-11-11V369c0-6.5,4.5-11,11-11h17.5c6.5,0,11,4.5,11,11v8.9h-11v-6.7H60.4z
		 M59.2,364.1c3.9,0,5.9,2.2,5.9,5.9v3.5h1.6V370c0-4.7-2.8-7.5-7.5-7.5H44.4c-4.7,0-7.5,2.8-7.5,7.5v32.1c0,4.7,2.8,7.5,7.5,7.5
		h14.8c4.7,0,7.5-2.8,7.5-7.5v-3.3h-1.6v3.3c0,3.9-2.2,5.9-5.9,5.9H44.4c-3.9,0-5.9-2.2-5.9-5.9V370c0-3.9,2.2-5.9,5.9-5.9
		C44.4,364.1,59.2,364.1,59.2,364.1z"/>
	<path class="st2" d="M109.4,358.2c6.5,0,11,4.5,11,11v34.3c0,6.5-4.5,11-11,11H90.9c-6.5,0-11-4.5-11-11v-34.3c0-6.5,4.5-11,11-11
		H109.4z M115.5,370.2c0-4.7-2.8-7.5-7.5-7.5H92.3c-4.7,0-7.5,2.8-7.5,7.5v32.1c0,4.7,2.8,7.5,7.5,7.5H108c4.7,0,7.5-2.8,7.5-7.5
		V370.2z M108,364.1c3.9,0,5.9,2.2,5.9,5.9v32.1c0,3.9-2.2,5.9-5.9,5.9H92.3c-3.9,0-5.9-2.2-5.9-5.9V370c0-3.9,2.2-5.9,5.9-5.9
		C92.3,364.1,108,364.1,108,364.1z M109.2,371.2c0-1.8-1-2.6-2.6-2.6h-13c-1.8,0-2.6,1-2.6,2.6v29.9c0,1.8,1,2.6,2.6,2.6h13
		c1.8,0,2.6-1,2.6-2.6V371.2z"/>
	<path class="st2" d="M142.3,358.6v44.9h23.2v10.4h-34.3v-55.3H142.3z M160.8,409.4v-1.6h-23.2v-44.9H136v46.5H160.8z"/>
	<path class="st2" d="M185,358.6v44.9h23.2v10.4H174v-55.3H185z M203.5,409.4v-1.6h-23.2v-44.9h-1.6v46.5H203.5z"/>
	<path class="st2" d="M223.2,413.9h-11.4l17.9-55.3h13l17.9,55.3h-12l-3.5-12.4H227L223.2,413.9z M253.9,409.4l-14.2-46.5h-7.1
		l-14.4,46.5h1.4l3.9-12.4h25l3.7,12.4H253.9z M233.5,364.5l-9.6,30.9h24.4l-9.5-30.9H233.5z M236,370.6l5.9,20.3h-11.8L236,370.6z"
		/>
	<path class="st2" d="M307.3,393.8v9.1c0,6.5-4.5,11-11,11h-28.6v-55.3h28c6.5,0,11,4.5,11,11v7.9c0,3.3-1.4,6.3-4.9,8.3
		C305.7,387.5,307.3,390.7,307.3,393.8z M302.6,393.4c0-3.5-2.8-7.3-7.1-7.9c4.1-0.8,6.5-4.1,6.5-7.7v-7.5c0-4.7-2.8-7.5-7.5-7.5
		h-21.9v46.5h22.4c4.7,0,7.5-2.8,7.5-7.5V393.4z M300.4,377.9c0,4.5-4.3,6.9-8.7,6.9H274v-20.3h20.3c3.9,0,5.9,2.2,5.9,5.9v7.5
		H300.4z M291.9,386.3c5.3,0,9.1,3.2,9.1,7.1v8.5c0,3.9-2.2,5.9-5.9,5.9h-20.9v-21.5H291.9z M292.9,380.6c2,0,2.6-0.4,2.6-2.6v-6.7
		c0-1.8-1-2.6-2.6-2.6h-14.2v11.8C278.7,380.6,292.9,380.6,292.9,380.6z M296.3,393c0-2.4-1.4-2.6-3.5-2.6h-13.8v13h14.8
		c1.8,0,2.6-1,2.6-2.6V393z"/>
	<path class="st2" d="M345.9,358.2c6.5,0,11,4.5,11,11v34.3c0,6.5-4.5,11-11,11h-18.5c-6.5,0-11-4.5-11-11v-34.3c0-6.5,4.5-11,11-11
		H345.9z M352,370.2c0-4.7-2.8-7.5-7.5-7.5h-15.8c-4.7,0-7.5,2.8-7.5,7.5v32.1c0,4.7,2.8,7.5,7.5,7.5h15.8c4.7,0,7.5-2.8,7.5-7.5
		V370.2z M344.5,364.1c3.9,0,5.9,2.2,5.9,5.9v32.1c0,3.9-2.2,5.9-5.9,5.9h-15.8c-3.9,0-5.9-2.2-5.9-5.9V370c0-3.9,2.2-5.9,5.9-5.9
		C328.8,364.1,344.5,364.1,344.5,364.1z M345.7,371.2c0-1.8-1-2.6-2.6-2.6h-13c-1.8,0-2.6,1-2.6,2.6v29.9c0,1.8,1,2.6,2.6,2.6h13
		c1.8,0,2.6-1,2.6-2.6V371.2z"/>
	<path class="st2" d="M396.5,413.9l-8.9-20.5h-8.9v20.5h-11v-55.3h28.2c6.5,0,11,4.5,11,11v13c0,5.3-3,9.3-7.5,10.4l9.3,21.1h-12.2
		V413.9z M401.4,409.4l-8.9-20.5h2c4.7,0,7.5-2.8,7.5-7.5v-11c0-4.7-2.8-7.5-7.5-7.5h-22.1v46.5h1.6v-20.5H391l8.9,20.5H401.4z
		 M400.4,381.4c0,3.9-2.2,5.9-5.9,5.9H374v-22.8h20.5c3.9,0,5.9,2.2,5.9,5.9V381.4z M393.1,383c1.8,0,2.6-1,2.6-2.6v-8.9
		c0-1.8-1-2.6-2.6-2.6h-14.4v14.2h14.4V383z"/>
	<path class="st2" d="M424.3,413.9h-11.4l17.9-55.3h13l17.9,55.3h-12.2l-3.5-12.4H428L424.3,413.9z M455,409.4l-14.2-46.5h-7.1
		l-14.4,46.5h1.4l3.9-12.4h25.2l3.7,12.4H455z M434.5,364.5l-9.6,30.9h24.4l-9.5-30.9H434.5z M437.1,370.6l5.9,20.3h-11.8
		L437.1,370.6z"/>
	<path class="st2" d="M485.1,368.8v45.1h-11v-45.1h-14.4v-10.2h40v10.2C499.7,368.8,485.1,368.8,485.1,368.8z M478.8,364.5v45.1h1.6
		v-45.1h14.6v-1.6h-30.5v1.6H478.8z"/>
	<path class="st2" d="M543.8,358.6V369h-25.2v11.4H539v10.4h-20.5v12.6h25.2v10.4h-36.2v-55.3L543.8,358.6L543.8,358.6z M539,409.4
		v-1.6h-25.2v-21.5h20.5v-1.6h-20.5v-20.3H539v-1.6h-26.8v46.5L539,409.4L539,409.4z"/>
</g>
<path class="st6" d="M218.5,299.1c1,0,1.6,0.2,1.6,0.4c0,0.8-1.2,1.4-2.6,1.6c-5.5,0.8-14.6,5.7-19.3,13.8c-2.2,4.1-3.2,11-3.9,11
	c-0.6,0-2.4-1.8-2.4-6.5C191.9,304.2,214.8,299.1,218.5,299.1z M192.1,281c0.6,0,0.8,0.2,1.2,0.4c2.8,5.1,9.1,11.6,15.4,12
	c1,0,3.2,0.4,3.2,0.6c0,1.8-5.3,3.3-9.1,3.3c-7.3,0-10.6-9.3-10.6-14.6V281z M199.4,271.2c-0.6-0.2-0.8-0.4-0.8-1
	c0-3.2,32.1-29.1,76-29.1c49.6,0,70.9,18.7,94.9,18.7c3.7,0,6.9-1.8,8.3-1.8c0.4,0,0.6,0.2,0.6,0.8c0,5.7-7.1,7.7-12,7.7
	c-18.3,0-47.1-19.1-92.5-19.1C248.4,247.3,221.3,256.8,199.4,271.2z M205.7,321.8c0-7.1,5.1-12.8,8.5-12.8l0.4,0.4
	c0,0.8-5.1,4.7-5.1,13.4c0,4.7,2.8,10,2.8,11.8c0,0.2-0.2,0.6-0.2,0.6C210.6,335.1,205.7,326.7,205.7,321.8z M275,317.6
	c24.6,0,42.1,9.1,59.1,9.1c2.6,0,7.1-0.8,8.1-0.8c0.4,0,0.8,0,0.8,0.2c0,2.2-6.5,5.1-14,5.1c-15,0-36.8-7.1-57.9-7.1
	c-28.9,0-48.4,11-51.4,11c-0.6,0-0.8-0.4-0.8-1C219.5,331.2,244.1,317.6,275,317.6z M354.4,320.6c0-9.1-3.9-10.2-3.9-13.4
	c2.2,0,9.8,4.7,9.8,10.8s-2.4,9.1-7.5,10.8C352.8,326.3,354.4,323.5,354.4,320.6z M366,304.4c6.7,0,12.6-2.2,17.7-6.1
	c0,0,0.2,0,0.2,0.6c-2,7.5-9.1,10-15,10c-7.3,0-16.3-5.7-16.3-7.1C355.3,301.7,360.9,304.4,366,304.4z M366.2,278.4
	c0.6,0,2.8,3.2,2.8,6.9c0,6.3-3.7,10.2-9.6,10.2c-1.8,0-6.1-0.6-6.1-1.2C366,290.5,364.4,278.4,366.2,278.4z"/>
<path class="st4" d="M199.4,271.2c-0.6-0.2-0.8-0.4-0.8-1c0-3.2,32.1-29.1,76-29.1c49.6,0,70.9,18.7,94.9,18.7
	c3.7,0,6.9-1.8,8.3-1.8c0.4,0,0.6,0.2,0.6,0.8c0,5.7-7.1,7.7-12,7.7c-18.3,0-47.1-19.1-92.5-19.1
	C248.4,247.3,221.3,256.8,199.4,271.2z"/>
<path class="st4" d="M275,317.6c24.6,0,42.1,9.1,59.1,9.1c2.6,0,7.1-0.8,8.1-0.8c0.4,0,0.8,0,0.8,0.2c0,2.2-6.5,5.1-14,5.1
	c-15,0-36.8-7.1-57.9-7.1c-28.9,0-48.4,11-51.4,11c-0.6,0-0.8-0.4-0.8-1C219.5,331.2,244.1,317.6,275,317.6z"/>
</svg>
