<?xml version="1.0" encoding="UTF-8"?><svg id="Layer_1" xmlns="http://www.w3.org/2000/svg" viewBox="0 0 247.65 122.87"><defs><style>.cls-1{fill:#ee7623;}.cls-2{fill:#8c9091;}.cls-3{fill:#d4d755;}.cls-4{fill:#88d1e6;}</style></defs><g><path class="cls-2" d="M4.76,23.72l-1.9-2.29c-1.81-2.19-2.86-5.43-2.86-8.95C0,5.14,3.91,0,9.62,0c2.86,0,4.48,1.71,4.76,1.71s.29-.95,.29-1.43h1.91l2.48,3.24V11.91h-2.1l-2.48-2.86c.1-1.24-.1-2.29-.57-3.52-.29-.19-.67-.29-.95-.29-1.81,0-2.48,2.76-2.48,10,0,3.05,.1,5.24,.38,6.76,2.1-.29,4-3.91,3.91-8h2.19l2.48,3.14c-.19,6.48-3.05,10.1-7.81,10.1-2.76,0-5.24-1.24-6.86-3.52Zm11.91-9.14h-1.33c-.1,4.38-2.38,8-4.76,8-2.19,0-2.86-2.86-2.86-10.1,0-6.1,.38-10.57,3.05-10.57,2.29,0,4.29,3.05,4.38,6.67h1.14V.95h-1.14c-.1,1.14-.29,1.43-.67,1.43-.76,0-1.81-1.81-4.86-1.81C3.71,.57,.57,6.19,.57,12.48s3.24,11.43,8.86,11.43c5.91,0,7.05-5.71,7.24-9.33ZM1.71,12.48v-.57H6.48v.76H1.71v-.19Zm.1-2H6.57v.76H1.81v-.76Zm0,2.86H6.57v.76H1.81v-.76Zm.1,1.43H6.57v.76H2c0-.29-.1-.57-.1-.76Zm.19-5.71H6.67v.76H1.9l.19-.76Zm.1,7.14H6.67c0,.29,0,.48,.1,.76H2.38c-.1-.29-.19-.57-.19-.76Zm.29-8.57H6.67v.67H2.19c.1-.19,.19-.48,.29-.67Zm.1,10H6.76l.1,.76H2.86c-.1-.29-.19-.57-.29-.76Zm.48-11.43h3.81c0,.19-.1,.48-.1,.76H2.76l.29-.76Zm.29,12.86h3.62c0,.29,.1,.48,.1,.76H3.71c-.1-.29-.29-.57-.38-.76Zm.57-14.29h3.24c-.1,.19-.19,.48-.19,.67H3.43c.19-.19,.29-.48,.48-.67Zm.48,15.72h2.86c.1,.29,.1,.48,.19,.76h-2.38c-.19-.29-.48-.48-.67-.76ZM5.24,3.33h2.29l-.29,.67h-2.76c.29-.29,.48-.48,.76-.67Zm.86,18.57h1.62c.1,.29,.29,.57,.48,.76-.76-.19-1.43-.38-2.1-.76ZM8.29,1.81c-.19,.29-.29,.48-.48,.76h-1.52c.67-.38,1.24-.57,2-.76Zm6.19,1.43h0c.29,0,.57-.1,.76-.19v1.43c-.19-.48-.48-.86-.76-1.24Z"/><path class="cls-2" d="M25.81,23.53l-2-2.57c-1.81-2.29-2.86-5.24-2.86-8.76C20.95,5.24,25.15,0,30.86,0c2.86,0,5.33,1.33,7.33,3.71l2.19,2.76c1.71,2.19,2.67,5.14,2.67,8.38,0,6.95-4.29,12.29-10,12.29-2.86,.1-5.43-1.33-7.24-3.62Zm14.48-11.33c0-6.67-4.1-11.62-9.43-11.62s-9.33,4.76-9.33,11.62,4.1,11.62,9.33,11.62c5.33,.1,9.43-4.86,9.43-11.62Zm-17.53-.29h4.67v.76h-4.67v-.76Zm.1-1.33h4.57v.76h-4.67l.1-.76Zm-.1,2.67h4.67v.76h-4.57l-.1-.76Zm.29-4.1h4.38v.76h-4.48l.1-.76Zm-.1,5.43h4.48v.76h-4.38l-.1-.76Zm.48-6.76h4v.76h-4.19l.19-.76Zm-.19,8.1h4.19v.76h-3.91l-.29-.76Zm.76-9.43h3.33v.76h-3.71l.38-.76Zm-.29,10.86h3.71v.76h-3.33l-.38-.76Zm1.14-12.29h2.67l-.1,.76h-3.05c.1-.29,.29-.48,.48-.76Zm-.48,13.62h3.05l.1,.76h-2.57c-.29-.29-.38-.48-.57-.76Zm1.62-14.95h1.62c-.1,.19-.1,.48-.1,.76h-2.19c.19-.29,.48-.57,.67-.76Zm-.67,16.29h2.19c0,.29,.1,.48,.1,.76h-1.62c-.19-.19-.38-.48-.67-.76ZM28.19,2.38c-.1,.19-.19,.48-.29,.76h-1.05c.48-.38,.86-.57,1.33-.76Zm-1.33,19.05h1.05c.1,.29,.19,.57,.29,.76-.48-.19-.76-.38-1.33-.76Zm1.71-3.33V6.38c0-3.24,.95-4.76,2.38-4.76s2.38,1.62,2.38,4.76v11.72c0,3.24-.95,4.76-2.38,4.76s-2.38-1.62-2.38-4.76Zm4.1,0V6.38c0-.48,0-.76-.1-1.33-.76,.38-1.33,1.81-1.33,4.1v11.72c0,.48,0,.95,.1,1.33,.86-.48,1.33-1.91,1.33-4.1Zm1.33,3.33h1.05c-.57,.38-.86,.57-1.33,.76,.1-.29,.19-.57,.29-.76Zm-.29-19.05c.38,.19,.76,.29,1.33,.76h-1.05c-.1-.29-.19-.57-.29-.76Zm.48,1.33h1.62c.29,.19,.48,.48,.67,.76h-2.19c0-.29-.1-.57-.1-.76Zm.1,16.29h2.19c-.19,.29-.48,.48-.67,.76h-1.62c0-.19,.1-.48,.1-.76Zm.1-14.95h2.67c.19,.19,.29,.48,.48,.76h-3.05l-.1-.76Zm.1,13.62h3.05c-.1,.29-.29,.48-.48,.76h-2.57v-.76Zm0-12.19h3.33c.19,.19,.29,.48,.38,.67h-3.71v-.67Zm0,1.33h4l.19,.76h-4.19v-.76Zm0,1.33h4.38l.1,.76h-4.48v-.76Zm0,1.43h4.57l.1,.76h-4.67v-.76Zm0,1.33h4.67v.76h-4.67v-.76Zm0,1.33h4.57v.67h-4.57v-.67Zm0,1.33h4.48l-.1,.76h-4.38v-.76Zm0,1.33h4.19l-.19,.76h-3.91v-.76h-.1Zm0,1.43h3.62c-.1,.29-.19,.48-.29,.76h-3.33v-.76Z"/><path class="cls-2" d="M53.53,25.05v1.81h-6.76l-2.48-3.14v-1.9h1.43c.76,0,.86,0,.86-.76V5.14l-2.19-2.76V.48h9.62l2.48,3.05,1.52,6L60.29,.48h9.24l2.48,3.14v1.9h-1.43q-.86,0-.86,.76v15.43l2.29,3.05v2.1h-11.43l-1.33-1.71-.48,1.71h-3.81l-1.43-1.81Zm2.57-1.62l4.76-17.81v15.24c0,1.14-.19,1.43-1.43,1.43h-.86v1.14h10.48v-1.14h-.86c-1.14,0-1.43-.19-1.43-1.43V3.52c0-1.14,.19-1.43,1.43-1.43h.86V.95h-8.48l-3.43,13.62L53.63,.95h-8.76v1.14h.86c1.05,0,1.33,.19,1.43,1.05l-.1,17.81c0,1.14-.29,1.43-1.43,1.43h-.86v1.14h5.81v-1.14h-.86c-1.14,0-1.43-.19-1.43-1.43V5.91l4.67,17.53h3.14Zm-8.48-1.81c.1,.19,.19,.48,.38,.67h-.76c.29-.19,.38-.38,.38-.67Zm.95-19.53h4.19l.19,.76h-4.19l-.19-.76Zm.38,1.43h4.19l.19,.76h-4.1l-.29-.76Zm.38,1.33h4.19l.19,.76h-4.19l-.19-.76Zm.38,1.43h4.1l.19,.76h-4.1l-.19-.76Zm.29,1.33h4.1l.19,.76h-4.1l-.19-.76Zm.38,1.43h4.1l.19,.76h-4.1l-.19-.76Zm.38,1.43h4.1l.19,.76h-4.1l-.19-.76Zm.19,7.43v3.62l1.52,1.9-1.52-5.52Zm.19-6.1h4.1l.19,.76h-4.1l-.19-.76Zm.38,1.43h4.1l.19,.76h-4.1l-.19-.76Zm.38,1.33h4.1l.19,.76h-4.1l-.19-.76Zm.38,1.43h4.1l.19,.76h-4.1l-.19-.76Zm.29,1.43h3.91l-.1,.67h-3.52l-.29-.67Zm.48,1.33h3.14l-.19,.76h-2.76l-.19-.76Zm.29,1.43h2.48l-.19,.76h-2l-.29-.76Zm.38,1.43h1.71l-.19,.67h-1.33l-.19-.67Zm8.29,0h3.81c0,.29,.1,.48,.19,.76h-4.19c.1-.29,.19-.57,.19-.76Zm0-19.53h4c-.1,.19-.1,.48-.19,.76h-3.81v-.76Zm0,1.43h3.71v.76h-3.71v-.76Zm0,1.33h3.71v.76h-3.71v-.76Zm0,1.43h3.71v.76h-3.71v-.76Zm0,1.33h3.71v.76h-3.71v-.76Zm0,1.43h3.71v.76h-3.71v-.76Zm0,1.43h3.71v.76h-3.71v-.76Zm0,1.33h3.71v.76h-3.71v-.76Zm0,1.43h3.71v.76h-3.71v-.76Zm0,1.33h3.71v.76h-3.71v-.76Zm0,1.43h3.71v.76h-3.71v-.76Zm0,1.43h3.71v.67h-3.71v-.67Zm0,1.33h3.71v.76h-3.71v-.76Zm0,1.43h3.71v.76h-3.71v-.76Z"/><path class="cls-2" d="M82.58,25.05v1.81h-6.76l-2.48-3.14v-1.9h1.43c.76,0,.86,0,.86-.76V5.14l-2.29-2.86V.38h9.62l2.48,3.05,1.52,6L89.25,.38h9.24l2.48,3.14v1.9h-1.43q-.86,0-.86,.76v15.43l2.29,3.05v2.1h-11.33l-1.33-1.71-.48,1.71h-3.81l-1.43-1.71Zm2.57-1.62l4.76-17.81v15.24c0,1.14-.19,1.43-1.43,1.43h-.86v1.14h10.48v-1.14h-.86c-1.14,0-1.43-.19-1.43-1.43V3.52c0-1.14,.19-1.43,1.43-1.43h.86V.95h-8.48l-3.52,13.62-3.43-13.62h-8.76v1.14h.86c1.05,0,1.33,.19,1.43,1.05l-.1,17.81c0,1.14-.29,1.43-1.43,1.43h-.86v1.14h5.81v-1.14h-.86c-1.14,0-1.43-.19-1.43-1.43V5.91l4.67,17.53h3.14Zm-8.48-1.81c.1,.19,.19,.48,.38,.67h-.76c.29-.19,.38-.38,.38-.67Zm.95-19.53h4.19l.19,.76h-4.19l-.19-.76Zm.38,1.43h4.19l.19,.76h-4.1l-.29-.76Zm.38,1.33h4.19l.19,.76h-4.1l-.29-.76Zm.38,1.43h4.1l.19,.76h-4.1l-.19-.76Zm.38,1.33h4.1l.19,.76h-4.1l-.19-.76Zm.29,1.43h4.1l.19,.76h-4.1l-.19-.76Zm.38,1.43h4.1l.19,.76h-4.1l-.19-.76Zm.19,7.43v3.62l1.52,1.9-1.52-5.52Zm.19-6.1h4.1l.19,.76h-4.1l-.19-.76Zm.38,1.43h4.1l.19,.76h-4.1l-.19-.76Zm.38,1.33h4.1l.19,.76h-4.1l-.19-.76Zm.38,1.43h4.1l.19,.76h-4.1l-.19-.76Zm.38,1.43h3.91l-.19,.67h-3.52l-.19-.67Zm.38,1.33h3.14l-.19,.76h-2.76l-.19-.76Zm.29,1.43h2.48l-.19,.76h-2l-.29-.76Zm.38,1.43h1.71l-.19,.76h-1.33l-.19-.76Zm8.29,0h3.81c0,.29,.1,.48,.19,.76h-4.19c.1-.29,.19-.57,.19-.76Zm0-19.53h4c-.1,.19-.1,.48-.19,.76h-3.81v-.76Zm0,1.43h3.71v.76h-3.71v-.76Zm0,1.33h3.71v.76h-3.71v-.76Zm0,1.43h3.71v.76h-3.71v-.76Zm0,1.33h3.71v.76h-3.71v-.76Zm0,1.43h3.71v.76h-3.71v-.76Zm0,1.43h3.71v.76h-3.71v-.76Zm0,1.33h3.71v.76h-3.71v-.76Zm0,1.43h3.71v.76h-3.71v-.76Zm0,1.33h3.71v.76h-3.71v-.76Zm0,1.43h3.71v.76h-3.71v-.76Zm0,1.43h3.71v.67h-3.71v-.67Zm0,1.33h3.71v.76h-3.71v-.76Zm0,1.43h3.71v.76h-3.71v-.76Z"/><path class="cls-2" d="M107.44,24.76l-2.1-2.67c-.86-1.05-1.33-2.57-1.33-4.19V5.05l-2.19-2.76V.38h11.33l1.14,1.43V.38h5.81l2.48,3.14v1.9h-1.14c-.86,0-.76,0-.76,.76v14.76c0,4.1-2.48,6.19-7.24,6.19-2.86,0-4.86-.86-6-2.38Zm10.48-6.57V3.52c0-1.14,.19-1.43,1.43-1.43h.57V.95h-5.05v1.14h.38c1.14,0,1.43,.19,1.43,1.43v14.67c0,2.57-1.24,3.71-2.95,3.71-1.62,0-2.86-1.14-2.86-3.43V3.52c0-1.14,.19-1.43,1.43-1.43h.67V.95h-10.48v1.14h.86c1.14,0,1.43,.19,1.43,1.43v14.38c0,3.05,1.52,5.91,6.67,5.91,4.48-.1,6.48-2.1,6.48-5.62ZM105.54,2.1h4.29c-.1,.19-.1,.38-.19,.67h-3.91c0-.29-.1-.48-.19-.67Zm.19,1.43h3.81v.76h-3.81v-.76Zm0,1.33h3.81v.76h-3.81v-.76Zm0,1.43h3.81v.76h-3.81v-.76Zm0,1.43h3.81v.76h-3.81v-.76Zm0,1.43h3.81v.76h-3.81v-.76Zm0,1.43h3.81v.76h-3.81v-.76Zm0,1.43h3.81v.76h-3.81v-.76Zm0,1.33h3.81v.76h-3.81v-.76Zm0,1.43h3.81v.76h-3.81v-.76Zm0,1.43h3.81v.76h-3.81v-.76Zm0,1.71v-.29h3.81v.76h-3.81v-.48Zm.1,1.14h3.81c0,.29,.1,.48,.1,.76h-3.71c-.1-.29-.1-.57-.19-.76Zm.48,1.43h3.62c.1,.29,.19,.48,.38,.76h-3.43c-.19-.29-.38-.48-.57-.76Zm1.43,1.33h3.05c.29,.29,.57,.57,.95,.76h-1.05c-1.14,0-2.19-.29-2.95-.76Zm5.91-.57c1.52,0,2.38-1.05,2.38-3.05V4.67l-.48-.57v1.33h-1.43c-.86,0-.76,0-.76,.76v14.95c.1,.1,.19,.1,.29,.1Zm3.24-19.15h.76c-.19,.19-.29,.48-.38,.67-.1-.29-.29-.48-.38-.67Z"/><path class="cls-2" d="M136.02,23.81l-5.62-11.43v9.33l2.1,2.76v2.29h-6.19l-2.48-3.14v-1.9h1.14c.76,0,.76-.1,.76-.76l.1-16.29-1.9-2.38V.38h9.14l2.48,3.05,3.62,7.14V4.67l-1.9-2.38V.38h6.1l2.48,3.14v1.9h-1.52c-.29,0-.38,.1-.38,.38l-.1,20.95-5.24,.1-2.57-3.05Zm-6.19-.38v-1.14h-.67c-1.05,0-1.33-.29-1.43-1.43l-.1-15.62,8.86,18.19h4.38l.19-20c0-1.14,.29-1.33,1.33-1.33h.57V.95h-5.24v1.14h.57c1.14,0,1.43,.19,1.43,1.43V14.57l-6.86-13.62h-8.29v1.14h.57c1.05,0,1.33,.19,1.33,1.05V20.95c0,1.14-.29,1.43-1.43,1.43h-.57v1.14h5.33v-.1Zm-2.76-1.81c.1,.19,.19,.48,.38,.67h-.76c.1-.19,.29-.38,.38-.67Zm.48-19.15c-.1-.1-.1-.19-.19-.29h4.76l.38,.76h-4.76l-.19-.48Zm.48,1.05h4.76l.38,.76h-4.76l-.38-.76Zm.67,1.33h4.86l.38,.76h-4.86l-.38-.76Zm.67,1.43h4.86l.38,.76h-4.86l-.38-.76Zm.76,1.33h4.86l.38,.76h-4.86l-.38-.76Zm.67,1.43h4.86l.38,.76h-4.86l-.38-.76Zm.67,1.43h4.95l.38,.76h-4.95l-.38-.76Zm.67,1.33h4.95l.38,.76h-4.95l-.38-.76Zm.67,1.43h4.95l.38,.76h-4.95l-.38-.76Zm.67,1.33h4.95l.38,.76h-4.95l-.38-.76Zm.76,1.43h4.95l.38,.76h-4.95l-.38-.76Zm.67,1.43h4.95v.67h-4.57l-.38-.67Zm.67,1.33h4.29v.76h-3.91l-.38-.76Zm.67,1.43h3.62v.76h-3.24l-.38-.76Zm.67,1.43h2.95v.76h-2.57l-.38-.76Zm3.14-19.62h.76c-.19,.19-.29,.48-.38,.67-.1-.19-.29-.38-.38-.67Z"/><path class="cls-2" d="M146.97,23.62v-1.9h1.43q.76,0,.76-.57V5.05l-2.19-2.76V.38h11.53l2.48,3.14v1.9h-1.43q-.86,0-.86,.76v15.43l2.29,2.95v2.1h-11.43l-2.57-3.05Zm11.24-.19v-1.14h-.86c-1.14,0-1.43-.19-1.43-1.43V3.52c0-1.14,.19-1.43,1.43-1.43h.86V.95h-10.67v1.14h.86c1.14,0,1.43,.19,1.43,1.43V21.15c0,.95-.29,1.14-1.43,1.14h-.86v1.14h10.67Zm-7.52-21.34h4.38c-.1,.19-.1,.48-.19,.76h-4c0-.29-.1-.57-.19-.76Zm.19,19.53h4c0,.29,.1,.48,.19,.76h-4.38c.1-.29,.19-.57,.19-.76Zm.1-18.1h3.91v.76h-3.91v-.76Zm0,1.33h3.91v.76h-3.91v-.76Zm0,1.43h3.91v.76h-3.91v-.76Zm0,1.33h3.91v.76h-3.91v-.76Zm0,1.43h3.91v.76h-3.91v-.76Zm0,1.43h3.91v.76h-3.91v-.76Zm0,1.33h3.91v.76h-3.91v-.76Zm0,1.43h3.91v.76h-3.91v-.76Zm0,1.33h3.91v.76h-3.91v-.76Zm0,1.43h3.91v.76h-3.91v-.76Zm0,1.43h3.91v.67h-3.91v-.67Zm0,1.33h3.91v.76h-3.91v-.76Zm0,1.43h3.91v.76h-3.91v-.76Z"/><path class="cls-2" d="M166.88,23.72l-1.81-2.29c-1.81-2.19-2.86-5.43-2.86-8.95,0-7.33,3.91-12.48,9.62-12.48,2.86,0,4.48,1.71,4.76,1.71s.29-.95,.29-1.43h1.9l2.48,3.14V11.81h-2.19l-2.48-2.86c.1-1.24-.1-2.29-.57-3.52-.29-.19-.67-.29-.95-.29-1.71,0-2.48,2.67-2.48,9.91,0,3.05,.1,5.24,.38,6.76,2.1-.29,4-3.91,3.91-8h2.19l2.48,3.14c-.19,6.48-3.05,10.1-7.81,10.1-2.76,.19-5.14-1.05-6.86-3.33Zm11.91-9.14h-1.33c-.1,4.38-2.38,8-4.76,8-2.19,0-2.86-2.86-2.86-10.1,0-6.1,.38-10.57,3.05-10.57,2.29,0,4.29,3.05,4.38,6.67h1.14V.95h-1.14c-.1,1.14-.29,1.43-.67,1.43-.76,0-1.81-1.81-4.86-1.81-5.91,0-9.05,5.62-9.05,11.91s3.24,11.43,8.86,11.43c6,0,7.14-5.71,7.24-9.33Zm-14.86-2.1v-.57h4.76v.76h-4.76v-.19Zm.1-2h4.76v.76h-4.76v-.76Zm-.1,2.86h4.76v.76h-4.76v-.76Zm.1,1.43h4.67v.76h-4.57c0-.29,0-.57-.1-.76Zm.19-5.71h4.57v.76h-4.67l.1-.76Zm.1,7.14h4.48c0,.29,0,.48,.1,.76h-4.38c-.1-.29-.19-.57-.19-.76Zm.29-8.57h4.29c0,.19-.1,.48-.1,.76h-4.38c.1-.29,.1-.57,.19-.76Zm.19,10h4.19l.1,.76h-3.91c-.19-.29-.29-.57-.38-.76Zm.38-11.43h3.81c0,.19-.1,.48-.1,.76h-4.1l.38-.76Zm.29,12.86h3.62c0,.29,.1,.48,.1,.76h-3.33c-.1-.29-.19-.57-.38-.76Zm.57-14.29h3.24c-.1,.19-.1,.48-.1,.76h-3.52c.1-.29,.19-.57,.38-.76Zm.48,15.72h2.86c.1,.29,.1,.48,.19,.76h-2.38c-.19-.29-.48-.48-.67-.76Zm.86-17.14h2.29l-.29,.76h-2.76c.29-.38,.57-.57,.76-.76Zm.95,18.57h1.62c.1,.29,.29,.57,.48,.76-.76-.19-1.52-.38-2.1-.76Zm2.1-20.1c-.19,.19-.29,.48-.48,.76h-1.52c.67-.38,1.33-.57,2-.76Zm6.19,1.43h0c.29,0,.57-.1,.76-.19v1.43c-.19-.48-.48-.86-.76-1.24Z"/><path class="cls-2" d="M182.02,23.62v-1.9h1.05c.67,0,1.14-.38,1.33-.95L191.26,.19h3.33l2.86,3.52,5.81,18,2.29,3.05v2h-11.53l-2.48-3.14v-2h1.62c.19,0,.29-.1,.19-.29l-.38-1.14h-2.86l-.76,2.48,1.71,2.19v1.9h-6.57l-2.48-3.14Zm6.29-.19v-1.14h-.86c-.86,0-1.24-.38-1.24-.95,0-.19,.1-.38,.1-.57l1.14-3.81h5.14l1.33,4.38c0,.1,.1,.19,.1,.29,0,.38-.19,.76-.86,.76h-1.05v1.14h10.67v-1.14h-.48c-.67,0-1.14-.38-1.33-.95L194.31,.95h-2.67l-6.67,20.1c-.29,.86-.95,1.33-1.9,1.33h-.48v1.14h5.71v-.1Zm-2.86-2c0,.29,.19,.57,.38,.86h-1.05c.29-.19,.57-.57,.67-.86Zm4.67-12.76l2.19,7.05h-4.38l2.19-7.05Zm.95-2.48h3.71l.19,.76h-4.19l.29-.76Zm.48,9.05l-.29-1.05-.38,1.05h.67Zm-.67-7.72h4.38l.19,.76h-4.38l-.19-.76Zm.67-2.76h2.86l.19,.76h-3.33l.29-.76Zm-.19,4.19h4.38l.19,.76h-4.38l-.19-.76Zm.67-5.62h1.9l.19,.76h-2.38l.29-.76Zm-.29,7.05h4.38l.29,.76h-4.38l-.29-.76Zm.67-8.38h.95l.19,.76h-1.43l.29-.76Zm-.19,9.81h4.38l.29,.76h-4.48l-.19-.76Zm.38,1.33h4.38l.29,.76h-4.48l-.19-.76Zm.48,1.43h4.48l.29,.76h-4.48l-.29-.76Zm.38,1.43h4.48l.19,.76h-4.48l-.19-.76Zm.48,1.33h4.48l.19,.76h-4.48l-.19-.76Zm.38,1.43h4.57l.19,.76h-4.57l-.19-.76Zm.48,1.43h4.57l.19,.76h-4.57l-.19-.76Zm.38,1.43h4.67v.1c.1,.19,.19,.48,.29,.67h-5.14c.1-.29,.1-.57,.19-.76Z"/><path class="cls-2" d="M207.45,23.62v-1.9h1.43c.86,0,.76,0,.76-.76V7.91c-.86,1.52-1.43,3.52-1.43,5.05v.57h-2.1l-2.48-3.14V.38h19.34l2.48,3.14V13.62h-2.1l-2.48-3.14c.1-1.43-.48-3.24-1.24-4.86q-.1-.1-.19-.1V21.81l2.19,2.95v2.1h-11.72l-2.48-3.24Zm11.43-.19v-1.14h-.86c-1.14,0-1.43-.19-1.43-1.43V2.38c0-.29,.1-.29,.29-.29,2.19,0,4.48,5.05,4.48,8.19h1.24V.95h-18.48V10.19h1.24c0-3.05,2.29-8.1,4.48-8.19,.19,0,.29,0,.29,.29V20.95c0,1.14-.19,1.43-1.43,1.43h-.86v1.14h11.05v-.1Zm-13.53-21.34h2.19c-.19,.19-.48,.48-.67,.76h-1.52v-.76Zm0,1.43h.95c-.38,.57-.67,.86-.95,1.52v-1.52Zm6,18.1h4.19c0,.29,.1,.57,.19,.76h-4.57c.1-.29,.19-.57,.19-.76Zm0-19.24v-.29h4.19v.76h-4.1v-.48h-.1Zm0,1.14h4.1v.76h-4.1v-.76Zm0,1.33h4.1v.76h-4.1v-.76Zm0,1.43h4.1v.76h-4.1v-.76Zm0,1.33h4.1v.76h-4.1v-.76Zm0,1.43h4.1v.76h-4.1v-.76Zm0,1.43h4.1v.76h-4.1v-.76Zm0,1.33h4.1v.76h-4.1v-.76Zm0,1.43h4.1v.76h-4.1v-.76Zm0,1.33h4.1v.76h-4.1v-.76Zm0,1.43h4.1v.76h-4.1v-.76Zm0,1.43h4.1v.67h-4.1v-.67Zm0,1.33h4.1v.76h-4.1v-.76Zm0,1.43h4.1v.76h-4.1v-.76Zm8-18.1h2.19v.76h-1.52c-.19-.29-.48-.57-.67-.76Zm1.14,1.43h.95v1.52c-.29-.67-.57-.95-.95-1.52Z"/><path class="cls-2" d="M226.89,23.62v-1.9h1.43c.86,0,.76,0,.76-.76V5.05l-2.19-2.76V.38h17.72l2.48,3.14V11.81h-2l-1.62-2v4.19h1.62l2.57,3.14-.29,9.72h-17.81l-2.67-3.24Zm17.62-.19l.29-8.95h-1.24c-.19,3.52-3.05,8-6.38,8-1.05,0-1.24-.38-1.24-1.52V12.48c1.81,0,3.43,1.71,3.43,4.95h1.24V6.48h-1.24c0,2.76-1.62,4.76-3.43,4.76V2.29c0-.19,.57-.19,.86-.19,3.24,.1,6.29,2.19,6.29,6.29h1.24V.95h-16.86v1.14h.86c1.14,0,1.43,.19,1.43,1.43V20.95c0,1.14-.19,1.43-1.43,1.43h-.86v1.14h17.05v-.1Zm-13.91-21.34h4.1v.76h-3.91c0-.29-.1-.57-.19-.76Zm.19,19.53h3.91c0,.29,.1,.48,.19,.76h-4.29c.1-.29,.19-.57,.19-.76Zm.1-18.1h3.91v.76h-3.91v-.76Zm0,1.33h3.91v.76h-3.91v-.76Zm0,1.43h3.91v.76h-3.91v-.76Zm0,1.33h3.91v.76h-3.91v-.76Zm0,1.43h3.91v.76h-3.91v-.76Zm0,1.43h3.91v.76h-3.91v-.76Zm0,1.33h3.91v.76h-3.91v-.76Zm0,1.43h3.91v.76h-3.91v-.76Zm0,1.33h3.91v.76h-3.91v-.76Zm0,1.43h3.91v.76h-3.91v-.76Zm0,1.43h3.91v.67h-3.91v-.67Zm0,1.33h3.91v.76h-3.91v-.76Zm0,1.43h3.91v.76h-3.91v-.76Zm8.57-9.91v1.24h-1.43c.48-.19,1.14-.76,1.43-1.24Zm-1.43,2h1.43v1.14c-.29-.48-.95-1.05-1.43-1.14Zm4.1-6.19c-.95-.76-2.29-.95-3.62-.95v3.14c.29-.67,.29-1.43,.29-2.38h2.19l1.43,2.1c.1-.48-.1-1.43-.29-1.9Zm-3.62,15.53c.67-.29,1.33-.86,1.9-1.43l-1.62-2.19c0-.57,0-1.14-.1-1.71h-.19v5.33Zm2.76,0h2.1v.76h-2.86c.19-.29,.48-.57,.76-.76Zm-.29-19.53h2.1v.57h-1.33c-.19-.19-.48-.38-.76-.57Zm1.43,18.19h.95v.76h-1.52c.19-.29,.38-.57,.57-.76Zm0-16.95h.76v1.05c-.29-.38-.48-.76-.76-1.05Zm1.05,15.34v.95h-.57c.19-.29,.38-.67,.57-.95Z"/></g><path class="cls-2" d="M91.25,74.29c1.81-.76,2.29-2.57,2.29-4.29,0-7.43-.1-12.76-.1-18.86,0,0,4.19-1.71,5.43-1.71,0,0,.1,0,.1,.19,4.95,10,7.72,15.14,9.14,17.81,.86,1.52,1.52,1.52,2.76,1.52,.19,0,.38,.86,.38,2.76,0,0-3.91,.38-9.43,2l-.57-2.48c0-.1,2.57-.86,2.57-2.38l-1.71-3.62-4.86,1.62v2.1c0,2.48,2.1,2.48,3.14,2.48l.57,2.48s-3.43,1.24-8.95,3.71l-.76-3.33Zm9.52-11.33l-4.1-9.33c0,2.67,.1,7.14,.1,10.67l4-1.33Zm23.62,8.86c-2.29-6.29-5.52-13.43-8-19.34l.86,12.19c0,2.48,.86,3.62,2.76,3.62l-.1,3.24c-1.05-.1-2-.1-3.24-.1-1.14,0-2.48,.1-4.38,.38v-2.57c0-.57,1.71-.38,1.71-2.48,0-5.33-.57-9.52-.86-15.24-.1-.95-.48-1.43-1.71-1.43-.48,0-1.05,.1-1.81,.19-.38-2-.38-2.76-.38-2.95,0-.1,2.95-.86,6.48-.86,.76,0,1.52,0,2.48,.1l6.1,16c0-2.38,.76-8.57,.76-11.05,0-1.33-1.05-1.81-2.29-2l.1-2.76s5.43,.1,9.14,1.05l-.48,2.76c0,.1-.1,.19-.1,.19-1.33,0-2.29,0-2.38,1.14-.57,5.43-.86,9.62-1.62,20.38l-3.05-.48Zm4.86,.67v-.19l.48-2.48c1.43-.19,3.14-.19,3.71-1.43,.86-2,3.43-11.24,4.19-14.57,.1-.48,.19-.86,.19-1.14,0-2.19-2.38-1.62-2.38-2.29l.48-1.9c1.33,.1,8.95,2.29,10.76,2.95,4.38,1.52,6.95,4.1,6.95,7.72,0,5.33-3.62,16.76-9.43,16.76-4.19-.1-10.29-2.48-14.95-3.43Zm12.48,0c1.33,0,2.95-.76,3.81-2.29,.76-1.43,3.24-7.33,3.24-11.53v-.38c-.1-2.57-2.29-4.38-4.38-4.38-1.24,0-1.81,1.52-2.38,3.24-.57,1.81-3.62,11.72-3.62,13.14,0,1.33,2.1,2.19,3.33,2.19Z"/><g><path class="cls-1" d="M13.72,101.92c0-.86-.48-1.24-1.24-1.24H6.67c-.86,0-1.24,.48-1.24,1.24v14.48c0,.86,.48,1.24,1.24,1.24h5.81c.86,0,1.24-.48,1.24-1.24v-3.24h5.33v4.29c0,3.14-2.19,5.33-5.33,5.33H5.33c-3.14,0-5.33-2.19-5.33-5.33v-16.57c0-3.14,2.19-5.33,5.33-5.33H13.81c3.14,0,5.33,2.19,5.33,5.33v4.29h-5.33v-3.24h-.1Zm-.57-3.43c1.9,0,2.86,1.05,2.86,2.86v1.71h.76v-1.71c0-2.29-1.33-3.62-3.62-3.62H6c-2.29,0-3.62,1.33-3.62,3.62v15.53c0,2.29,1.33,3.62,3.62,3.62h7.14c2.29,0,3.62-1.33,3.62-3.62v-1.62h-.76v1.62c0,1.9-1.05,2.86-2.86,2.86H6c-1.9,0-2.86-1.05-2.86-2.86v-15.53c0-1.9,1.05-2.86,2.86-2.86h7.14Z"/><path class="cls-1" d="M37.43,95.63c3.14,0,5.33,2.19,5.33,5.33v16.57c0,3.14-2.19,5.33-5.33,5.33h-8.95c-3.14,0-5.33-2.19-5.33-5.33v-16.57c0-3.14,2.19-5.33,5.33-5.33h8.95Zm2.95,5.81c0-2.29-1.33-3.62-3.62-3.62h-7.62c-2.29,0-3.62,1.33-3.62,3.62v15.53c0,2.29,1.33,3.62,3.62,3.62h7.62c2.29,0,3.62-1.33,3.62-3.62v-15.53Zm-3.62-2.95c1.9,0,2.86,1.05,2.86,2.86v15.53c0,1.9-1.05,2.86-2.86,2.86h-7.62c-1.9,0-2.86-1.05-2.86-2.86v-15.53c0-1.9,1.05-2.86,2.86-2.86h7.62Zm.57,3.43c0-.86-.48-1.24-1.24-1.24h-6.29c-.86,0-1.24,.48-1.24,1.24v14.48c0,.86,.48,1.24,1.24,1.24h6.29c.86,0,1.24-.48,1.24-1.24v-14.48Z"/><path class="cls-1" d="M53.34,95.82v21.72h11.24v5.05h-16.57v-26.77h5.33Zm8.95,24.57v-.76h-11.24v-21.72h-.76v22.48h12Z"/><path class="cls-1" d="M74.01,95.82v21.72h11.24v5.05h-16.57v-26.77h5.33Zm8.95,24.57v-.76h-11.24v-21.72h-.76v22.48h12Z"/><path class="cls-1" d="M92.49,122.59h-5.52l8.67-26.77h6.29l8.67,26.77h-5.81l-1.71-6h-8.76l-1.81,6Zm14.86-2.19l-6.86-22.48h-3.43l-6.95,22.48h.67l1.9-6h12.1l1.81,6h.76Zm-9.91-21.72l-4.67,14.95h11.81l-4.57-14.95h-2.57Zm1.24,2.95l2.86,9.81h-5.71l2.86-9.81Z"/><path class="cls-1" d="M133.16,112.87v4.38c0,3.14-2.19,5.33-5.33,5.33h-13.81v-26.77h13.53c3.14,0,5.33,2.19,5.33,5.33v3.81c0,1.62-.67,3.05-2.38,4,1.9,.86,2.67,2.38,2.67,3.91Zm-2.29-.19c0-1.71-1.33-3.52-3.43-3.81,2-.38,3.14-2,3.14-3.71v-3.62c0-2.29-1.33-3.62-3.62-3.62h-10.57v22.48h10.86c2.29,0,3.62-1.33,3.62-3.62v-4.1Zm-1.05-7.52c0,2.19-2.1,3.33-4.19,3.33h-8.57v-9.81h9.81c1.9,0,2.86,1.05,2.86,2.86v3.62h.1Zm-4.1,4.1c2.57,0,4.38,1.52,4.38,3.43v4.1c0,1.9-1.05,2.86-2.86,2.86h-10.1v-10.38h8.57Zm.48-2.76c.95,0,1.24-.19,1.24-1.24v-3.24c0-.86-.48-1.24-1.24-1.24h-6.86v5.71h6.86Zm1.62,6c0-1.14-.67-1.24-1.71-1.24h-6.67v6.29h7.14c.86,0,1.24-.48,1.24-1.24v-3.81Z"/><path class="cls-1" d="M151.83,95.63c3.14,0,5.33,2.19,5.33,5.33v16.57c0,3.14-2.19,5.33-5.33,5.33h-8.95c-3.14,0-5.33-2.19-5.33-5.33v-16.57c0-3.14,2.19-5.33,5.33-5.33h8.95Zm2.95,5.81c0-2.29-1.33-3.62-3.62-3.62h-7.62c-2.29,0-3.62,1.33-3.62,3.62v15.53c0,2.29,1.33,3.62,3.62,3.62h7.62c2.29,0,3.62-1.33,3.62-3.62v-15.53Zm-3.62-2.95c1.9,0,2.86,1.05,2.86,2.86v15.53c0,1.9-1.05,2.86-2.86,2.86h-7.62c-1.9,0-2.86-1.05-2.86-2.86v-15.53c0-1.9,1.05-2.86,2.86-2.86h7.62Zm.57,3.43c0-.86-.48-1.24-1.24-1.24h-6.29c-.86,0-1.24,.48-1.24,1.24v14.48c0,.86,.48,1.24,1.24,1.24h6.29c.86,0,1.24-.48,1.24-1.24v-14.48Z"/><path class="cls-1" d="M176.31,122.59l-4.29-9.91h-4.29v9.91h-5.33v-26.77h13.62c3.14,0,5.33,2.19,5.33,5.33v6.29c0,2.57-1.43,4.48-3.62,5.05l4.48,10.19h-5.91v-.1Zm2.38-2.19l-4.29-9.91h.95c2.29,0,3.62-1.33,3.62-3.62v-5.33c0-2.29-1.33-3.62-3.62-3.62h-10.67v22.48h.76v-9.91h8.19l4.29,9.91h.76Zm-.48-13.53c0,1.9-1.05,2.86-2.86,2.86h-9.91v-11.05h9.91c1.9,0,2.86,1.05,2.86,2.86v5.33Zm-3.52,.76c.86,0,1.24-.48,1.24-1.24v-4.29c0-.86-.48-1.24-1.24-1.24h-6.95v6.86h6.95v-.1Z"/><path class="cls-1" d="M189.74,122.59h-5.52l8.67-26.77h6.29l8.67,26.77h-5.91l-1.71-6h-8.67l-1.81,6Zm14.86-2.19l-6.86-22.48h-3.43l-6.95,22.48h.67l1.9-6h12.19l1.81,6h.67Zm-9.91-21.72l-4.67,14.95h11.81l-4.57-14.95h-2.57Zm1.24,2.95l2.86,9.81h-5.71l2.86-9.81Z"/><path class="cls-1" d="M219.17,100.77v21.81h-5.33v-21.81h-6.95v-4.95h19.34v4.95h-7.05Zm-3.05-2.1v21.81h.76v-21.81h7.05v-.76h-14.76v.76h6.95Z"/><path class="cls-1" d="M247.55,95.82v5.05h-12.19v5.52h9.91v5.05h-9.91v6.1h12.19v5.05h-17.53v-26.77h17.53Zm-2.29,24.57v-.76h-12.19v-10.38h9.91v-.76h-9.91v-9.81h12.19v-.76h-12.95v22.48h12.95Z"/></g><path class="cls-4" d="M90.2,67.06c.48,0,.76,.1,.76,.19,0,.38-.57,.67-1.24,.76-2.67,.38-7.05,2.76-9.33,6.67-1.05,2-1.52,5.33-1.9,5.33-.29,0-1.14-.86-1.14-3.14,0-7.33,11.05-9.81,12.86-9.81Zm-12.76-8.76c.29,0,.38,.1,.57,.19,1.33,2.48,4.38,5.62,7.43,5.81,.48,0,1.52,.19,1.52,.29,0,.86-2.57,1.62-4.38,1.62-3.52,0-5.14-4.48-5.14-7.05v-.86Zm3.52-4.76c-.29-.1-.38-.19-.38-.48,0-1.52,15.53-14.1,36.77-14.1,24,0,34.29,9.05,45.91,9.05,1.81,0,3.33-.86,4-.86,.19,0,.29,.1,.29,.38,0,2.76-3.43,3.71-5.81,3.71-8.86,0-22.76-9.24-44.77-9.24-12.29,0-25.43,4.57-36,11.53Zm3.05,24.48c0-3.43,2.48-6.19,4.1-6.19l.19,.19c0,.38-2.48,2.29-2.48,6.48,0,2.29,1.33,4.86,1.33,5.71,0,.1-.1,.29-.1,.29-.67,0-3.05-4.1-3.05-6.48Zm33.53-2c11.91,0,20.38,4.38,28.57,4.38,1.24,0,3.43-.38,3.91-.38,.19,0,.38,0,.38,.1,0,1.05-3.14,2.48-6.76,2.48-7.24,0-17.81-3.43-28-3.43-14,0-23.43,5.33-24.86,5.33-.29,0-.38-.19-.38-.48,.29-1.43,12.19-8,27.15-8Zm38.39,1.43c0-4.38-1.9-4.95-1.9-6.48,1.05,0,4.76,2.29,4.76,5.24s-1.14,4.38-3.62,5.24c0-1.24,.76-2.57,.76-4Zm5.62-7.81c3.24,0,6.1-1.05,8.57-2.95,0,0,.1,0,.1,.29-.95,3.62-4.38,4.86-7.24,4.86-3.52,0-7.91-2.76-7.91-3.43,1.33-.1,4,1.24,6.48,1.24Zm.1-12.57c.29,0,1.33,1.52,1.33,3.33,0,3.05-1.81,4.95-4.67,4.95-.86,0-2.95-.29-2.95-.57,6.19-1.9,5.43-7.72,6.29-7.72Z"/><path class="cls-3" d="M80.96,53.53c-.29-.1-.38-.19-.38-.48,0-1.52,15.53-14.1,36.77-14.1,24,0,34.29,9.05,45.91,9.05,1.81,0,3.33-.86,4-.86,.19,0,.29,.1,.29,.38,0,2.76-3.43,3.71-5.81,3.71-8.86,0-22.76-9.24-44.77-9.24-12.29,0-25.43,4.57-36,11.53Z"/><path class="cls-3" d="M117.54,76.01c11.91,0,20.38,4.38,28.57,4.38,1.24,0,3.43-.38,3.91-.38,.19,0,.38,0,.38,.1,0,1.05-3.14,2.48-6.76,2.48-7.24,0-17.81-3.43-28-3.43-14,0-23.43,5.33-24.86,5.33-.29,0-.38-.19-.38-.48,.29-1.43,12.19-8,27.15-8Z"/></svg>