<?xml version="1.0" encoding="utf-8"?>
<!-- Generator: Adobe Illustrator 26.3.1, SVG Export Plug-In . SVG Version: 6.00 Build 0)  -->
<svg version="1.1" id="Layer_1" xmlns="http://www.w3.org/2000/svg" xmlns:xlink="http://www.w3.org/1999/xlink" x="0px" y="0px"
	 viewBox="0 0 222.9 140" style="enable-background:new 0 0 222.9 140;" xml:space="preserve">
<style type="text/css">
	.st0{fill:none;}
	.st1{fill:#87D1E6;}
	.st2{fill:#D3D655;}
	.st3{fill:#EE7623;}
	.st4{fill:#8C9091;}
</style>
<g>
	<g>
		<polygon class="st0" points="130.4,84.3 132.6,84.3 131.5,77.3 		"/>
		<path class="st0" d="M101,58.1c0-0.2,0-0.3-0.1-0.5c0,0,0,0,0,0c-0.3-0.1-0.7-0.1-1-0.1h-4.7l0,12.4l0,2.2h1.2
			c2.6,0,4.7-2,4.7-4.5l0-9C101,58.5,101,58.3,101,58.1C101,58.2,101,58.1,101,58.1z"/>
		<g>
			<g>
				<polygon class="st1" points="45.8,97.6 45.8,97.6 45.8,97.6 				"/>
				<polygon class="st1" points="45.7,97.5 45.7,97.5 45.7,97.5 				"/>
				<polygon class="st1" points="46.1,97.8 46.1,97.8 46.1,97.8 				"/>
				<polygon class="st1" points="45.8,97.6 45.8,97.6 45.8,97.6 				"/>
				<polygon class="st1" points="32.4,104.6 32.4,104.6 32.4,104.6 				"/>
				<polygon class="st1" points="32.3,104.5 32.3,104.5 32.3,104.5 				"/>
				<polygon class="st1" points="32.3,104.4 32.3,104.4 32.3,104.4 				"/>
				<polygon class="st1" points="32.5,104.7 32.5,104.7 32.5,104.7 				"/>
				<polygon class="st1" points="45.3,97.1 45.3,97.1 45.3,97.1 				"/>
				<polygon class="st1" points="45.3,97 45.3,97 45.3,97 				"/>
				<polygon class="st1" points="45.3,97.1 45.3,97.1 45.3,97.1 				"/>
				<polygon class="st1" points="47.2,98.9 47.2,98.9 47.2,98.9 				"/>
				<polygon class="st1" points="47.4,99.1 47.4,99.1 47.4,99.1 				"/>
				<polygon class="st1" points="47.3,99 47.3,99 47.3,99 				"/>
				<polygon class="st1" points="47,98.7 47,98.7 47,98.7 				"/>
				<polygon class="st1" points="47.4,99.1 47.4,99.1 47.4,99.1 				"/>
				<polygon class="st1" points="47.5,99.2 47.5,99.2 47.5,99.2 				"/>
				<polygon class="st1" points="46.9,98.6 46.9,98.6 46.9,98.6 				"/>
				<polygon class="st1" points="46.6,98.3 46.6,98.3 46.6,98.3 				"/>
				<polygon class="st1" points="46.6,98.3 46.6,98.3 46.6,98.3 				"/>
				<polygon class="st1" points="46.5,98.3 46.5,98.3 46.5,98.3 				"/>
				<polygon class="st1" points="46.8,98.5 46.8,98.5 46.8,98.5 				"/>
				<polygon class="st1" points="46.4,98.1 46.4,98.1 46.4,98.1 				"/>
				<polygon class="st1" points="46.7,98.4 46.7,98.4 46.7,98.4 				"/>
				<polygon class="st1" points="30.4,102.7 30.4,102.7 30.4,102.7 				"/>
				<polygon class="st1" points="29.5,101.8 29.5,101.8 29.5,101.8 				"/>
				<polygon class="st1" points="29.5,101.8 29.5,101.8 29.5,101.8 				"/>
				<polygon class="st1" points="29.5,101.8 29.5,101.8 29.5,101.8 				"/>
				<polygon class="st1" points="29.3,101.6 29.3,101.6 29.3,101.6 				"/>
				<polygon class="st1" points="29.6,101.9 29.6,101.9 29.6,101.9 				"/>
				<polygon class="st1" points="29.8,102 29.8,102 29.8,102 				"/>
				<polygon class="st1" points="31.9,104.1 31.9,104.1 31.9,104.1 				"/>
				<polygon class="st1" points="47.5,99.2 47.5,99.2 47.5,99.2 				"/>
				<polygon class="st1" points="29.2,101.5 29.2,101.5 29.2,101.5 				"/>
				<polygon class="st1" points="73.3,48.5 73.3,48.5 73.3,48.5 73.2,48.5 73.2,48.5 73.2,48.5 73.2,48.4 73.2,48.4 73.2,48.4 
					73.1,48.4 73.1,48.4 73.1,48.4 73.1,48.3 73.1,48.3 73.1,48.3 73,48.3 73,48.3 73,48.3 73,48.2 73,48.2 73,48.2 72.9,48.2 
					72.9,48.2 72.9,48.2 72.9,48.1 72.9,48.1 72.9,48.1 72.8,48.1 72.8,48.1 72.8,48.1 72.8,48 72.8,48 72.7,48 72.7,48 72.7,48 
					72.7,48 72.7,47.9 72.6,47.9 72.6,47.9 72.6,47.9 72.6,47.9 72.6,47.9 72.6,47.8 72.5,47.8 72.5,47.8 72.5,47.8 72.5,47.8 
					72.5,47.8 72.5,47.7 72.4,47.7 72.4,47.7 72.4,47.7 72.4,47.7 72.4,47.7 72.4,47.6 72.3,47.6 72.3,47.6 72.3,47.6 72.3,47.6 
					72.3,47.6 72.3,47.5 72.2,47.5 72.2,47.5 72.2,47.5 72.2,47.5 72.2,47.5 72.2,47.4 72.1,47.4 72.1,47.4 72.1,47.4 72.1,47.4 
					72.1,47.4 72.1,47.3 72,47.3 72,47.3 72,47.3 72,47.3 72,47.3 72,47.2 71.9,47.2 71.9,47.2 71.9,47.2 71.9,47.2 71.8,47.2 
					71.8,47.1 71.8,47.1 71.8,47.1 71.8,47.1 71.8,47.1 71.7,47.1 71.7,47 71.7,47 71.7,47 71.7,47 71.7,47 71.6,47 71.6,46.9 
					71.6,46.9 71.6,46.9 71.6,46.9 71.6,46.9 71.5,46.9 71.5,46.8 71.5,46.8 71.5,46.8 71.5,46.8 71.5,46.8 71.4,46.8 71.4,46.7 
					71.4,46.7 71.4,46.7 71.4,46.7 71.4,46.7 71.3,46.7 71.3,46.6 71.3,46.6 71.3,46.6 71.3,46.6 71.3,46.6 71.2,46.6 71.2,46.5 
					71.2,46.5 71.2,46.5 71.2,46.5 71.2,46.5 71.1,46.5 71.1,46.4 71.1,46.4 71.1,46.4 71,46.4 71,46.4 71,46.4 71,46.3 71,46.3 
					71,46.3 70.9,46.3 70.9,46.3 70.9,46.3 70.9,46.2 70.9,46.2 70.9,46.2 70.8,46.2 70.8,46.2 70.8,46.2 70.8,46.1 70.8,46.1 
					70.8,46.1 70.7,46.1 70.7,46.1 70.7,46.1 70.7,46 70.7,46 70.7,46 70.6,46 70.6,46 70.6,46 70.6,45.9 70.6,45.9 70.6,45.9 
					70.5,45.9 70.5,45.9 70.5,45.9 70.5,45.8 70.5,45.8 70.5,45.8 70.4,45.8 70.4,45.8 70.4,45.8 70.4,45.7 70.4,45.7 70.4,45.7 
					70.3,45.7 70.3,45.7 70.3,45.7 70.3,45.6 70.3,45.6 70.3,45.6 70.2,45.6 70.2,45.6 70.2,45.6 70.2,45.5 70.1,45.5 70.1,45.5 
					70.1,45.5 70.1,45.5 70.1,45.5 70.1,45.4 70,45.4 70,45.4 70,45.4 70,45.4 70,45.4 70,45.3 69.9,45.3 69.9,45.3 69.9,45.3 
					69.9,45.3 69.9,45.3 69.9,45.2 69.8,45.2 69.8,45.2 69.8,46.3 69.8,100.2 69.8,101.4 73.3,104.7 73.3,103.6 73.3,49.7 
					73.3,48.6 73.3,48.6 				"/>
				<polygon class="st1" points="38.4,100.2 38.4,101.4 41.9,104.7 41.9,103.6 41.9,86.6 44.8,96.1 38.4,75.4 				"/>
				<polygon class="st1" points="41.9,49.4 41.6,48.6 41.6,48.6 41.6,48.5 41.6,48.5 41.6,48.5 41.5,48.5 41.5,48.5 41.5,48.5 
					41.5,48.4 41.5,48.4 41.5,48.4 41.4,48.4 41.4,48.4 41.4,48.4 41.4,48.3 41.4,48.3 41.3,48.3 41.3,48.3 41.3,48.3 41.3,48.3 
					41.3,48.2 41.3,48.2 41.2,48.2 41.2,48.2 41.2,48.2 41.2,48.2 41.2,48.1 41.2,48.1 41.1,48.1 41.1,48.1 41.1,48.1 41.1,48.1 
					41.1,48 41,48 41,48 41,48 41,48 41,48 41,47.9 40.9,47.9 40.9,47.9 40.9,47.9 40.9,47.9 40.9,47.9 40.9,47.8 40.8,47.8 
					40.8,47.8 40.8,47.8 40.8,47.8 40.8,47.8 40.8,47.7 40.7,47.7 40.7,47.7 40.7,47.7 40.7,47.7 40.7,47.7 40.7,47.6 40.6,47.6 
					40.6,47.6 40.6,47.6 40.6,47.6 40.6,47.6 40.6,47.5 40.5,47.5 40.5,47.5 40.5,47.5 40.5,47.5 40.5,47.5 40.4,47.4 40.4,47.4 
					40.4,47.4 40.4,47.4 40.4,47.4 40.4,47.4 40.3,47.3 40.3,47.3 40.3,47.3 40.3,47.3 40.3,47.3 40.2,47.3 40.2,47.2 40.2,47.2 
					40.2,47.2 40.2,47.2 40.2,47.2 40.1,47.2 40.1,47.1 40.1,47.1 40.1,47.1 40.1,47.1 40.1,47.1 40,47.1 40,47 40,47 40,47 40,47 
					40,47 39.9,47 39.9,46.9 39.9,46.9 39.9,46.9 39.9,46.9 39.9,46.9 39.8,46.9 39.8,46.8 39.8,46.8 39.8,46.8 39.8,46.8 
					39.8,46.8 39.7,46.8 39.7,46.7 39.7,46.7 39.7,46.7 39.7,46.7 39.6,46.7 39.6,46.7 39.6,46.6 39.6,46.6 39.6,46.6 39.6,46.6 
					39.5,46.6 39.5,46.6 39.5,46.5 39.5,46.5 39.5,46.5 39.5,46.5 39.4,46.5 39.4,46.5 39.4,46.4 39.4,46.4 39.4,46.4 39.3,46.4 
					39.3,46.4 39.3,46.4 39.3,46.3 39.3,46.3 39.3,46.3 39.2,46.3 39.2,46.3 39.2,46.3 39.2,46.2 39.2,46.2 39.2,46.2 39.1,46.2 
					39.1,46.2 39.1,46.2 39.1,46.1 39.1,46.1 39.1,46.1 39,46.1 39,46.1 39,46.1 39,46 39,46 39,46 38.9,46 38.9,46 38.9,46 
					38.9,45.9 38.9,45.9 38.9,45.9 38.8,45.9 38.8,45.9 38.8,45.9 38.8,45.8 38.8,45.8 38.7,45.8 38.7,45.8 38.7,45.8 38.7,45.8 
					38.7,45.7 38.7,45.7 38.6,45.7 38.6,45.7 38.6,45.7 38.6,45.7 38.6,45.6 38.5,45.6 38.5,45.6 38.5,45.6 38.5,45.6 38.5,45.6 
					38.5,45.5 38.4,45.5 38.4,45.5 38.4,45.5 38.4,45.5 38.4,45.5 38.4,45.4 38.3,45.4 38.3,45.4 38.3,45.4 38.3,45.4 38.3,45.4 
					38.3,45.3 38.2,45.3 38.2,45.3 38.2,45.3 38.2,45.3 38.2,45.3 38.2,45.2 38.1,45.2 38.4,46 49.4,81.7 60.5,46 50.7,77.7 				"/>
				<polygon class="st1" points="29.1,101.4 29.1,101.4 29.1,101.4 				"/>
				<polygon class="st1" points="53.8,96.9 57.3,100.3 57.5,99.4 60.5,90 60.5,100.2 60.5,75.4 54,96.1 				"/>
				<polygon class="st1" points="31.3,103.5 31.3,103.5 31.3,103.5 				"/>
				<polygon class="st1" points="31.7,103.9 31.7,103.9 31.7,103.9 				"/>
				<polygon class="st1" points="31.2,103.5 31.2,103.5 31.2,103.5 				"/>
				<polygon class="st1" points="30.4,102.7 30.4,102.7 30.4,102.7 				"/>
				<polygon class="st1" points="31.8,104 31.8,104 31.8,104 				"/>
				<polygon class="st1" points="30.8,103 30.8,103 30.8,103 				"/>
				<polygon class="st1" points="30.5,102.8 30.5,102.8 30.5,102.8 				"/>
				<polygon class="st1" points="30.6,102.8 30.6,102.8 30.6,102.8 				"/>
				<polygon class="st1" points="30.5,102.7 30.5,102.7 30.5,102.7 				"/>
				<polygon class="st1" points="30.7,102.9 30.7,102.9 30.7,102.9 				"/>
				<polygon class="st1" points="30.6,102.8 30.6,102.8 30.6,102.8 				"/>
				<polygon class="st1" points="30.7,102.9 30.7,102.9 30.7,102.9 				"/>
				<polygon class="st1" points="30.6,102.9 30.6,102.9 30.6,102.9 				"/>
				<polygon class="st1" points="61.1,101.9 61.1,101.9 61.1,101.9 				"/>
				<polygon class="st1" points="63,103.8 63,103.8 63,103.8 				"/>
				<polygon class="st1" points="62.8,103.6 62.8,103.6 62.8,103.6 				"/>
				<polygon class="st1" points="63.1,103.9 63.1,103.9 63.1,103.9 				"/>
				<polygon class="st1" points="63.2,104 63.2,104 63.2,104 				"/>
				<polygon class="st1" points="63.1,103.9 63.1,103.9 63.1,103.9 				"/>
				<polygon class="st1" points="63.1,103.9 63.1,103.9 63.1,103.9 				"/>
				<polygon class="st1" points="62.2,103 62.2,103 62.2,103 				"/>
				<polygon class="st1" points="62.4,103.2 62.4,103.2 62.4,103.2 				"/>
				<polygon class="st1" points="62.2,103 62.2,103 62.2,103 				"/>
				<polygon class="st1" points="62.6,103.4 62.6,103.4 62.6,103.4 				"/>
				<polygon class="st1" points="62.6,103.4 62.6,103.4 62.6,103.4 				"/>
				<polygon class="st1" points="62.7,103.5 62.7,103.5 62.7,103.5 				"/>
				<polygon class="st1" points="62.8,103.6 62.8,103.6 62.8,103.6 				"/>
				<polygon class="st1" points="63,103.8 63,103.8 63,103.8 				"/>
				<polygon class="st1" points="63.9,104.7 63.9,104.7 63.9,104.7 				"/>
				<polygon class="st1" points="63.9,104.7 63.9,104.7 63.9,104.7 				"/>
				<polygon class="st1" points="63.9,104.6 63.9,104.6 63.9,104.6 				"/>
				<polygon class="st1" points="63.7,104.5 63.7,104.5 63.7,104.5 				"/>
				<polygon class="st1" points="63.8,104.6 63.8,104.6 63.8,104.6 				"/>
				<polygon class="st1" points="63.8,104.6 63.8,104.6 63.8,104.6 				"/>
				<polygon class="st1" points="63.3,104.1 63.3,104.1 63.3,104.1 				"/>
				<polygon class="st1" points="63.5,104.3 63.5,104.3 63.5,104.3 				"/>
				<polygon class="st1" points="63.4,104.2 63.4,104.2 63.4,104.2 				"/>
				<polygon class="st1" points="63.4,104.2 63.4,104.2 63.4,104.2 				"/>
				<polygon class="st1" points="63.7,104.4 63.7,104.4 63.7,104.4 				"/>
				<polygon class="st1" points="63.5,104.3 63.5,104.3 63.5,104.3 				"/>
				<polygon class="st1" points="63.6,104.4 63.6,104.4 63.6,104.4 				"/>
				<polygon class="st1" points="62.7,103.5 62.7,103.5 62.7,103.5 				"/>
				<polygon class="st1" points="48,99.7 48,99.7 48,99.7 				"/>
				<polygon class="st1" points="48,99.7 48,99.7 48,99.7 				"/>
				<polygon class="st1" points="47.9,99.6 47.9,99.6 47.9,99.6 				"/>
				<polygon class="st1" points="47.9,99.6 47.9,99.6 47.9,99.6 				"/>
				<polygon class="st1" points="48,99.7 48,99.7 48,99.7 				"/>
				<polygon class="st1" points="48.1,99.8 48.1,99.8 48.1,99.8 				"/>
				<polygon class="st1" points="48.1,99.8 48.1,99.8 48.1,99.8 				"/>
				<polygon class="st1" points="48.1,99.8 48.1,99.8 48.1,99.8 				"/>
				<polygon class="st1" points="62,102.8 62,102.8 62,102.8 				"/>
				<polygon class="st1" points="47.6,99.3 47.6,99.3 47.6,99.3 				"/>
				<polygon class="st1" points="47.6,99.3 47.6,99.3 47.6,99.3 				"/>
				<polygon class="st1" points="48.3,100 48.3,100 48.3,100 				"/>
				<polygon class="st1" points="47.8,99.5 47.8,99.5 47.8,99.5 				"/>
				<polygon class="st1" points="47.8,99.5 47.8,99.5 47.8,99.5 				"/>
				<polygon class="st1" points="47.7,99.4 47.7,99.4 47.7,99.4 				"/>
				<polygon class="st1" points="47.7,99.4 47.7,99.4 47.7,99.4 				"/>
				<polygon class="st1" points="47.9,99.6 47.9,99.6 47.9,99.6 				"/>
				<polygon class="st1" points="61.9,102.7 61.9,102.7 61.9,102.7 				"/>
				<polygon class="st1" points="61.8,102.7 61.8,102.7 61.8,102.7 				"/>
				<polygon class="st1" points="61.8,102.6 61.8,102.6 61.8,102.6 				"/>
				<polygon class="st1" points="62,102.8 62,102.8 62,102.8 				"/>
				<polygon class="st1" points="61.9,102.7 61.9,102.7 61.9,102.7 				"/>
				<polygon class="st1" points="61.9,102.8 61.9,102.8 61.9,102.8 				"/>
				<polygon class="st1" points="60.6,101.5 60.6,101.5 60.6,101.5 				"/>
				<polygon class="st1" points="60.5,101.4 60.5,101.4 60.5,101.4 				"/>
				<polygon class="st1" points="48.6,100.2 48.6,100.2 48.6,100.2 				"/>
				<polygon class="st1" points="60.8,101.7 60.8,101.7 60.8,101.7 				"/>
				<polygon class="st1" points="48.3,100 48.3,100 48.3,100 				"/>
				<polygon class="st1" points="61.6,102.4 61.6,102.4 61.6,102.4 				"/>
				<polygon class="st1" points="83.8,102.8 83.8,102.8 83.8,102.8 				"/>
				<polygon class="st1" points="83.6,102.6 83.6,102.6 83.6,102.6 				"/>
				<polygon class="st1" points="83.1,102.2 83.1,102.2 83.1,102.2 				"/>
				<polygon class="st1" points="84.3,103.3 84.3,103.3 84.3,103.3 				"/>
				<polygon class="st1" points="83,102 83,102 83,102 				"/>
				<polygon class="st1" points="83.1,102.1 83.1,102.1 83.1,102.1 				"/>
				<polygon class="st1" points="83.1,102.1 83.1,102.1 83.1,102.1 				"/>
				<polygon class="st1" points="84.3,103.3 84.3,103.3 84.3,103.3 				"/>
				<polygon class="st1" points="83.8,102.8 83.8,102.8 83.8,102.8 				"/>
				<polygon class="st1" points="84,103 84,103 84,103 				"/>
				<polygon class="st1" points="84.3,103.3 84.3,103.3 84.3,103.3 				"/>
				<polygon class="st1" points="84.2,103.2 84.2,103.2 84.2,103.2 				"/>
				<polygon class="st1" points="84,103 84,103 84,103 				"/>
				<polygon class="st1" points="82.9,101.9 82.9,101.9 82.9,101.9 				"/>
				<polygon class="st1" points="91.7,66.5 91.7,72.2 95.2,72.2 95.2,69.9 95.2,57.5 91.7,54.2 				"/>
				<path class="st1" d="M107,82.6c1.2-0.7,2.4-1.6,3.3-2.6C109.3,81,108.2,81.9,107,82.6z"/>
				<polygon class="st1" points="91.6,81.1 91.6,100.2 91.6,101.4 95.1,104.7 95.1,103.6 95.2,84.5 91.6,81.1 				"/>
				<polygon class="st1" points="85.7,104.6 85.7,104.6 85.7,104.6 				"/>
				<polygon class="st1" points="85.6,104.6 85.6,104.6 85.6,104.6 				"/>
				<polygon class="st1" points="85.8,104.7 85.8,104.7 85.8,104.7 				"/>
				<polygon class="st1" points="85.6,104.5 85.6,104.5 85.6,104.5 				"/>
				<polygon class="st1" points="85.5,104.4 85.5,104.4 85.5,104.4 				"/>
				<polygon class="st1" points="85.4,104.4 85.4,104.4 85.4,104.4 				"/>
				<polygon class="st1" points="85.5,104.5 85.5,104.5 85.5,104.5 				"/>
				<path class="st1" d="M109.7,52.5C109.7,52.5,109.7,52.4,109.7,52.5C109.6,52.4,109.6,52.4,109.7,52.5c-0.1-0.1-0.1-0.1-0.1-0.1
					c0,0,0,0,0,0c0,0,0,0,0,0c0,0,0,0,0,0c0,0,0,0,0,0c0,0,0,0,0,0c0,0,0,0,0,0c0,0,0,0,0,0c0,0,0,0,0,0c0,0,0,0,0,0c0,0,0,0,0,0
					c0,0,0,0,0,0c0,0,0,0,0,0c0,0,0,0,0,0c0,0,0,0,0,0c0,0,0,0,0,0c0,0,0,0,0,0c0,0,0,0,0,0c0,0,0,0,0,0c0,0,0,0,0,0c0,0,0,0,0,0
					c0,0,0,0,0,0c0,0,0,0,0,0c0,0,0,0,0,0c0,0,0,0,0,0c0,0,0,0,0,0c0,0,0,0,0,0c0,0,0,0,0,0c0,0,0,0,0,0c0,0,0,0,0,0c0,0,0,0,0,0
					c0,0,0,0,0,0c0,0,0,0,0,0c0,0,0,0,0,0c0,0,0,0,0,0c0,0,0,0,0,0c0,0,0,0,0,0c0,0,0,0,0,0c0,0,0,0,0,0c0,0,0,0,0,0c0,0,0,0,0,0
					c0,0,0,0,0,0c0,0,0,0,0,0c0,0,0,0,0,0c0,0,0,0,0,0c0,0,0,0,0,0c0,0,0,0,0,0c0,0,0,0,0,0c0,0,0,0,0,0c0,0,0,0,0,0c0,0,0,0,0,0
					c0,0,0,0,0,0c0,0,0,0,0,0c0,0,0,0,0,0c0,0,0,0,0,0c0,0,0,0,0,0c0,0,0,0,0,0c0,0,0,0,0,0c0,0,0,0,0,0c0,0,0,0,0,0c0,0,0,0,0,0
					c0,0,0,0,0,0c0,0,0,0,0,0c0,0,0,0,0,0c0,0,0,0,0,0c0,0,0,0,0,0c0,0,0,0,0,0c0,0,0,0,0,0c0,0,0,0,0,0c0,0,0,0,0,0c0,0,0,0,0,0
					c0,0,0,0,0,0c0,0,0,0,0,0c0,0,0,0,0,0c0,0,0,0,0,0c0,0,0,0,0,0c0,0,0,0,0,0c0,0,0,0,0,0c0,0,0,0,0,0c0,0,0,0,0,0c0,0,0,0,0,0
					c0,0,0,0,0,0c0,0,0,0,0,0c0,0,0,0,0,0c0,0,0,0,0,0c0,0,0,0,0,0c0,0,0,0,0,0c0,0,0,0,0,0c0,0,0,0,0,0c0,0,0,0,0,0c0,0,0,0,0,0
					c0,0,0,0,0,0c0,0,0,0,0,0c0,0,0,0,0,0c0,0,0,0,0,0c0,0,0,0,0,0c0,0,0,0,0,0c0,0,0,0,0,0c2.5,2.4,4.1,5.8,4.1,9.5l0,9
					c0,3.4-1.3,6.6-3.5,8.9l3.5,3.4c2.2-2.4,3.5-5.5,3.5-8.9l0-9C113.8,58.3,112.3,54.9,109.7,52.5
					C109.7,52.5,109.7,52.5,109.7,52.5z"/>
				<polygon class="st1" points="84.4,103.4 84.4,103.4 84.4,103.4 				"/>
				<polygon class="st1" points="84.6,103.6 84.6,103.6 84.6,103.6 				"/>
				<polygon class="st1" points="84.8,103.8 84.8,103.8 84.8,103.8 				"/>
				<polygon class="st1" points="84.9,103.8 84.9,103.8 84.9,103.8 				"/>
				<polygon class="st1" points="84.9,103.9 84.9,103.9 84.9,103.9 				"/>
				<polygon class="st1" points="85.4,104.3 85.4,104.3 85.4,104.3 				"/>
				<polygon class="st1" points="84.5,103.5 84.5,103.5 84.5,103.5 				"/>
				<polygon class="st1" points="84.5,103.5 84.5,103.5 84.5,103.5 				"/>
				<polygon class="st1" points="84.9,103.9 84.9,103.9 84.9,103.9 				"/>
				<polygon class="st1" points="85.2,104.2 85.2,104.2 85.2,104.2 				"/>
				<polygon class="st1" points="85.3,104.2 85.3,104.2 85.3,104.2 				"/>
				<polygon class="st1" points="85.1,104.1 85.1,104.1 85.1,104.1 				"/>
				<polygon class="st1" points="85.3,104.3 85.3,104.3 85.3,104.3 				"/>
				<polygon class="st1" points="85,104 85,104 85,104 				"/>
				<polygon class="st1" points="85,103.9 85,103.9 85,103.9 				"/>
				<polygon class="st1" points="85,104 85,104 85,104 				"/>
				<polygon class="st1" points="7.1,46.3 7.1,45.2 7.1,73.3 				"/>
				<polygon class="st1" points="10.6,104.7 10.6,104.7 10.6,104.7 				"/>
				<polygon class="st1" points="10.3,104.4 10.3,104.4 10.3,104.4 				"/>
				<polygon class="st1" points="10.4,104.5 10.4,104.5 10.4,104.5 				"/>
				<polygon class="st1" points="9.5,103.7 9.5,103.7 9.5,103.7 				"/>
				<polygon class="st1" points="10.5,104.6 10.5,104.6 10.5,104.6 				"/>
				<polygon class="st1" points="10.6,104.7 10.6,104.7 10.6,104.7 				"/>
				<polygon class="st1" points="7.2,101.4 7.2,101.4 7.2,101.4 				"/>
				<polygon class="st1" points="7.4,101.6 7.4,101.6 7.4,101.6 				"/>
				<polygon class="st1" points="7.4,101.7 7.4,101.7 7.4,101.7 				"/>
				<polygon class="st1" points="9.5,103.6 9.5,103.6 9.5,103.6 				"/>
				<polygon class="st1" points="7.4,101.6 7.4,101.6 7.4,101.6 				"/>
				<polygon class="st1" points="7.5,101.7 7.5,101.7 7.5,101.7 				"/>
				<polygon class="st1" points="7.2,101.4 7.2,101.4 7.2,101.4 				"/>
				<polygon class="st1" points="7.3,101.5 7.3,101.5 7.3,101.5 				"/>
				<polygon class="st1" points="7.2,101.5 7.2,101.5 7.2,101.5 				"/>
				<polygon class="st1" points="9.5,103.6 9.5,103.6 9.5,103.6 				"/>
				<polygon class="st1" points="9.6,103.7 9.6,103.7 9.6,103.7 				"/>
				<polygon class="st1" points="9.6,103.7 9.6,103.7 9.6,103.7 				"/>
				<polygon class="st1" points="9.7,103.8 9.7,103.8 9.7,103.8 				"/>
				<polygon class="st1" points="10.3,104.4 10.3,104.4 10.3,104.4 				"/>
				<polygon class="st1" points="9.6,103.8 9.6,103.8 9.6,103.8 				"/>
				<polygon class="st1" points="9.7,103.8 9.7,103.8 9.7,103.8 				"/>
				<polygon class="st1" points="20,48.5 19.9,48.5 19.9,48.5 19.9,48.5 19.9,48.5 19.9,48.5 19.9,48.4 19.8,48.4 19.8,48.4 
					19.8,48.4 19.8,48.4 19.7,48.4 19.7,48.3 19.7,48.3 19.7,48.3 19.7,48.3 19.7,48.3 19.6,48.3 19.6,48.2 19.6,48.2 19.6,48.2 
					19.6,48.2 19.6,48.2 19.5,48.2 19.5,48.1 19.5,48.1 19.5,48.1 19.5,48.1 19.5,48.1 19.4,48.1 19.4,48 19.4,48 19.4,48 19.4,48 
					19.4,48 19.3,48 19.3,47.9 19.3,47.9 19.3,47.9 19.3,47.9 19.3,47.9 19.2,47.9 19.2,47.8 19.2,47.8 19.2,47.8 19.2,47.8 
					19.2,47.8 19.1,47.8 19.1,47.7 19.1,47.7 19.1,47.7 19.1,47.7 19.1,47.7 19,47.7 19,47.6 19,47.6 19,47.6 19,47.6 19,47.6 
					18.9,47.6 18.9,47.5 18.9,47.5 18.9,47.5 18.8,47.5 18.8,47.5 18.8,47.5 18.8,47.4 18.8,47.4 18.8,47.4 18.7,47.4 18.7,47.4 
					18.7,47.4 18.7,47.3 18.7,47.3 18.7,47.3 18.6,47.3 18.6,47.3 18.6,47.3 18.6,47.2 18.6,47.2 18.6,47.2 18.5,47.2 18.5,47.2 
					18.5,47.2 18.5,47.1 18.5,47.1 18.5,47.1 18.4,47.1 18.4,47.1 18.4,47.1 18.4,47 18.4,47 18.4,47 18.3,47 18.3,47 18.3,47 
					18.3,46.9 18.3,46.9 18.3,46.9 18.2,46.9 18.2,46.9 18.2,46.9 18.2,46.8 18.2,46.8 18.2,46.8 18.1,46.8 18.1,46.8 18.1,46.8 
					18.1,46.7 18,46.7 18,46.7 18,46.7 18,46.7 18,46.7 18,46.6 17.9,46.6 17.9,46.6 17.9,46.6 17.9,46.6 17.9,46.6 17.9,46.5 
					17.8,46.5 17.8,46.5 17.8,46.5 17.8,46.5 17.8,46.5 17.8,46.4 17.7,46.4 17.7,46.4 17.7,46.4 17.7,46.4 17.7,46.4 17.7,46.3 
					17.6,46.3 17.6,46.3 17.6,46.3 17.6,46.3 17.6,46.3 17.6,46.2 17.5,46.2 17.5,46.2 17.5,46.2 17.5,46.2 17.5,46.2 17.5,46.1 
					17.4,46.1 17.4,46.1 17.4,46.1 17.4,46.1 17.4,46.1 17.4,46 17.3,46 17.3,46 17.3,46 17.3,46 17.3,46 17.3,45.9 17.2,45.9 
					17.2,45.9 17.2,45.9 17.2,45.9 17.1,45.9 17.1,45.8 17.1,45.8 17.1,45.8 17.1,45.8 17.1,45.8 17,45.8 17,45.7 17,45.7 17,45.7 
					17,45.7 17,45.7 16.9,45.7 16.9,45.6 16.9,45.6 16.9,45.6 16.9,45.6 16.9,45.6 16.8,45.6 16.8,45.5 16.8,45.5 16.8,45.5 
					16.8,45.5 16.8,45.5 16.7,45.5 16.7,45.4 16.7,45.4 16.7,45.4 16.7,45.4 16.7,45.4 16.6,45.4 16.6,45.3 16.6,45.3 16.6,45.3 
					16.6,45.3 16.6,45.3 16.5,45.3 16.5,45.2 16.5,45.2 16.5,45.2 16.5,46.3 16.5,100.2 16.5,101.4 20,104.7 20,48.6 20,48.6 				
					"/>
				<polygon class="st1" points="9.7,103.9 9.7,103.9 9.7,103.9 				"/>
				<polygon class="st1" points="10,104.2 10,104.2 10,104.2 				"/>
				<polygon class="st1" points="9.9,104 9.9,104 9.9,104 				"/>
				<polygon class="st1" points="10.1,104.2 10.1,104.2 10.1,104.2 				"/>
				<polygon class="st1" points="10.2,104.4 10.2,104.4 10.2,104.4 				"/>
				<polygon class="st1" points="10.2,104.3 10.2,104.3 10.2,104.3 				"/>
				<polygon class="st1" points="10,104.1 10,104.1 10,104.1 				"/>
				<polygon class="st1" points="8,102.2 8,102.2 8,102.2 				"/>
				<polygon class="st1" points="8.6,102.8 8.6,102.8 8.6,102.8 				"/>
				<polygon class="st1" points="9.2,103.4 9.2,103.4 9.2,103.4 				"/>
				<polygon class="st1" points="8.5,102.7 8.5,102.7 8.5,102.7 				"/>
				<polygon class="st1" points="8.5,102.7 8.5,102.7 8.5,102.7 				"/>
				<polygon class="st1" points="8.5,102.7 8.5,102.7 8.5,102.7 				"/>
				<polygon class="st1" points="8.4,102.6 8.4,102.6 8.4,102.6 				"/>
				<polygon class="st1" points="8.4,102.6 8.4,102.6 8.4,102.6 				"/>
				<polygon class="st1" points="8.7,102.9 8.7,102.9 8.7,102.9 				"/>
				<polygon class="st1" points="7.6,101.8 7.6,101.8 7.6,101.8 				"/>
				<polygon class="st1" points="8.7,102.9 8.7,102.9 8.7,102.9 				"/>
				<polygon class="st1" points="8.3,102.5 8.3,102.5 8.3,102.5 				"/>
				<polygon class="st1" points="8.7,102.8 8.7,102.8 8.7,102.8 				"/>
				<polygon class="st1" points="8.6,102.8 8.6,102.8 8.6,102.8 				"/>
				<polygon class="st1" points="8.8,102.9 8.8,102.9 8.8,102.9 				"/>
				<polygon class="st1" points="9,103.1 9,103.1 9,103.1 				"/>
				<polygon class="st1" points="8.9,103.1 8.9,103.1 8.9,103.1 				"/>
				<polygon class="st1" points="9.1,103.3 9.1,103.3 9.1,103.3 				"/>
				<polygon class="st1" points="7.9,102.1 7.9,102.1 7.9,102.1 				"/>
				<polygon class="st1" points="7.9,102.1 7.9,102.1 7.9,102.1 				"/>
				<polygon class="st1" points="9.4,103.5 9.4,103.5 9.4,103.5 				"/>
				<polygon class="st1" points="8,102.2 8,102.2 8,102.2 				"/>
				<polygon class="st1" points="7.7,101.9 7.7,101.9 7.7,101.9 				"/>
				<polygon class="st1" points="7.6,101.8 7.6,101.8 7.6,101.8 				"/>
				<polygon class="st1" points="7.8,102 7.8,102 7.8,102 				"/>
				<polygon class="st1" points="9.8,103.9 9.8,103.9 9.8,103.9 				"/>
				<polygon class="st1" points="8.1,102.3 8.1,102.3 8.1,102.3 				"/>
				<polygon class="st1" points="8.1,102.3 8.1,102.3 8.1,102.3 				"/>
				<polygon class="st1" points="8.2,102.4 8.2,102.4 8.2,102.4 				"/>
				<polygon class="st1" points="9.3,103.5 9.3,103.5 9.3,103.5 				"/>
				<polygon class="st1" points="8.1,102.3 8.1,102.3 8.1,102.3 				"/>
				<polygon class="st1" points="8.3,102.5 8.3,102.5 8.3,102.5 				"/>
				<polygon class="st1" points="8.2,102.4 8.2,102.4 8.2,102.4 				"/>
				<polygon class="st1" points="174.4,66.9 174.4,66.9 174.4,66.9 				"/>
				<polygon class="st1" points="174.3,66.8 174.3,66.8 174.3,66.8 				"/>
				<polygon class="st1" points="174.3,66.9 174.3,66.9 174.3,66.9 				"/>
				<polygon class="st1" points="174.4,67 174.4,67 174.4,67 				"/>
				<polygon class="st1" points="174.3,66.9 174.3,66.9 174.3,66.9 				"/>
				<polygon class="st1" points="174.5,67.1 174.5,67.1 174.5,67.1 				"/>
				<polygon class="st1" points="174.5,67.1 174.5,67.1 174.5,67.1 				"/>
				<polygon class="st1" points="174.5,67 174.5,67 174.5,67 				"/>
				<polygon class="st1" points="174.1,66.7 174.1,66.7 174.1,66.7 				"/>
				<polygon class="st1" points="174.2,66.8 174.2,66.8 174.2,66.8 				"/>
				<polygon class="st1" points="174,66.6 174,66.6 174,66.6 				"/>
				<polygon class="st1" points="173.9,66.5 173.9,66.5 173.9,66.5 				"/>
				<polygon class="st1" points="174,66.6 174,66.6 174,66.6 				"/>
				<polygon class="st1" points="174.1,66.7 174.1,66.7 174.1,66.7 				"/>
				<polygon class="st1" points="174.2,66.8 174.2,66.8 174.2,66.8 				"/>
				<polygon class="st1" points="174.1,66.7 174.1,66.7 174.1,66.7 				"/>
				<polygon class="st1" points="174.6,67.1 174.6,67.1 174.6,67.1 				"/>
				<polygon class="st1" points="171.8,64.4 171.8,64.4 171.8,64.4 				"/>
				<polygon class="st1" points="173.7,66.3 173.7,66.3 173.7,66.3 				"/>
				<polygon class="st1" points="171.9,64.6 171.9,64.6 171.9,64.6 				"/>
				<polygon class="st1" points="174.6,67.2 174.6,67.2 174.6,67.2 				"/>
				<polygon class="st1" points="171.7,64.4 171.7,64.4 171.7,64.4 				"/>
				<polygon class="st1" points="171.8,64.5 171.8,64.5 171.8,64.5 				"/>
				<polygon class="st1" points="172,64.6 172,64.6 172,64.6 				"/>
				<polygon class="st1" points="172.1,64.8 172.1,64.8 172.1,64.8 				"/>
				<polygon class="st1" points="172,64.7 172,64.7 172,64.7 				"/>
				<polygon class="st1" points="175.1,67.6 175.1,67.6 175.1,67.6 				"/>
				<path class="st1" d="M169.3,57.7C169.2,57.7,169.2,57.7,169.3,57.7c-0.1,0-0.1,0-0.1,0c0,0,0,0,0,0
					C169.2,57.7,169.2,57.7,169.3,57.7C169.3,57.7,169.3,57.7,169.3,57.7C169.3,57.7,169.3,57.7,169.3,57.7
					C169.3,57.7,169.3,57.7,169.3,57.7C169.3,57.7,169.3,57.7,169.3,57.7z"/>
				<polygon class="st1" points="174.7,67.3 174.7,67.3 174.7,67.3 				"/>
				<polygon class="st1" points="174.7,67.3 174.7,67.3 174.7,67.3 				"/>
				<polygon class="st1" points="174.6,67.2 174.6,67.2 174.6,67.2 				"/>
				<polygon class="st1" points="174.7,67.2 174.7,67.2 174.7,67.2 				"/>
				<polygon class="st1" points="175,67.6 175,67.6 175,67.6 				"/>
				<polygon class="st1" points="175,67.5 175,67.5 175,67.5 				"/>
				<polygon class="st1" points="174.9,67.4 174.9,67.4 174.9,67.4 				"/>
				<polygon class="st1" points="172.3,65 172.3,65 172.3,65 				"/>
				<polygon class="st1" points="174.8,67.4 174.8,67.4 174.8,67.4 				"/>
				<polygon class="st1" points="174.8,67.3 174.8,67.3 174.8,67.3 				"/>
				<polygon class="st1" points="157,97.4 157,97.4 157,97.4 				"/>
				<polygon class="st1" points="173.7,66.3 173.7,66.3 173.7,66.3 				"/>
				<polygon class="st1" points="173.5,66.1 173.5,66.1 173.5,66.1 				"/>
				<polygon class="st1" points="173.5,66.1 173.5,66.1 173.5,66.1 				"/>
				<polygon class="st1" points="173.4,66 173.4,66 173.4,66 				"/>
				<polygon class="st1" points="173.2,65.9 173.2,65.9 173.2,65.9 				"/>
				<polygon class="st1" points="173.4,66 173.4,66 173.4,66 				"/>
				<polygon class="st1" points="173.5,66.1 173.5,66.1 173.5,66.1 				"/>
				<polygon class="st1" points="173.7,66.3 173.7,66.3 173.7,66.3 				"/>
				<polygon class="st1" points="173.6,66.2 173.6,66.2 173.6,66.2 				"/>
				<polygon class="st1" points="173.6,66.2 173.6,66.2 173.6,66.2 				"/>
				<path class="st1" d="M180,101.1c0.2-0.2,0.4-0.4,0.6-0.5C180.3,100.8,180.1,101,180,101.1C179.9,101.2,179.9,101.2,180,101.1z"
					/>
				<path class="st1" d="M179.9,101.2c-0.1,0.1-0.1,0.1-0.2,0.2C179.8,101.3,179.8,101.3,179.9,101.2z"/>
				<path class="st1" d="M166.9,92.4L166.9,92.4c-0.2,0-0.4,0-0.5,0C166.6,92.4,166.8,92.4,166.9,92.4z"/>
				<path class="st1" d="M165.9,92.3c0.2,0,0.3,0.1,0.5,0.1C166.2,92.3,166.1,92.3,165.9,92.3z"/>
				<path class="st1" d="M165.9,92.3C165.9,92.3,165.9,92.3,165.9,92.3C165.9,92.3,165.9,92.3,165.9,92.3
					C165.9,92.3,165.9,92.3,165.9,92.3z"/>
				<path class="st1" d="M184.4,85.6L184.4,85.6L184.4,85.6L184.4,85.6L184.4,85.6l-0.1-0.1l0,0h0l0,0h0l0,0h0v0h0l0,0h0v0h0l0,0h0
					v0h0l0,0h0v0h0l0,0h0v0h0l0,0h0l0,0h0l0,0h0v0h0l0,0h0l0,0h0l0,0h0l0,0h0l0,0h0v0h0l0,0h0l0,0h0v0h0l0,0h0v0h0l0,0h0v0h0v0h0v0
					h0v0h0l0,0h0v0h0v0h0l0,0h0v0h0l0,0h0l0,0h0l0,0h0v0h0l0,0h0v0h0l0,0h0l0,0h0v0h0v0h0l0,0h0v0h0l0,0h0v0h0l0,0h0v0h0v0h0l0,0h0
					v0h0v0h0l0,0h0v0h0v0h0v0h0l0,0h0l0,0h0v0h0l0,0h0l0,0h0v0h0v0h0l0,0h0v0h0l0,0h0l0,0h0v0h0v0h0l0,0h0v0h0l0,0h0l0,0h0v0h0l0,0
					h0v0h0l0,0h0v0h0v0h0l0,0h0v0h0l0,0h0v0h0l0,0h0v0h0l0,0h0v0h0l0,0h0v0h0l0,0h0v0h0v0h0l0,0l0,1.1l0,4.5c0,3.4-1.3,6.4-3.4,8.8
					l3.5,3.4c2.1-2.4,3.4-5.4,3.4-8.8l0-4.5L184.4,85.6L184.4,85.6L184.4,85.6z"/>
				<path class="st1" d="M180.3,52.5C180.3,52.5,180.3,52.4,180.3,52.5C180.3,52.4,180.2,52.4,180.3,52.5c-0.1-0.1-0.1-0.1-0.1-0.1
					c0,0,0,0,0,0c0,0,0,0,0,0c0,0,0,0,0,0c0,0,0,0,0,0c0,0,0,0,0,0c0,0,0,0,0,0c0,0,0,0,0,0c0,0,0,0,0,0c0,0,0,0,0,0c0,0,0,0,0,0
					c0,0,0,0,0,0c0,0,0,0,0,0c0,0,0,0,0,0c0,0,0,0,0,0c0,0,0,0,0,0c0,0,0,0,0,0c0,0,0,0,0,0c0,0,0,0,0,0c0,0,0,0,0,0c0,0,0,0,0,0
					c0,0,0,0,0,0c0,0,0,0,0,0c0,0,0,0,0,0c0,0,0,0,0,0c0,0,0,0,0,0c0,0,0,0,0,0c0,0,0,0,0,0c0,0,0,0,0,0c0,0,0,0,0,0c0,0,0,0,0,0
					c0,0,0,0,0,0c0,0,0,0,0,0c0,0,0,0,0,0c0,0,0,0,0,0c0,0,0,0,0,0c0,0,0,0,0,0c0,0,0,0,0,0c0,0,0,0,0,0c0,0,0,0,0,0c0,0,0,0,0,0
					c0,0,0,0,0,0c0,0,0,0,0,0c0,0,0,0,0,0c0,0,0,0,0,0c0,0,0,0,0,0c0,0,0,0,0,0c0,0,0,0,0,0c0,0,0,0,0,0c0,0,0,0,0,0c0,0,0,0,0,0
					c0,0,0,0,0,0c0,0,0,0,0,0c0,0,0,0,0,0c0,0,0,0,0,0c0,0,0,0,0,0c0,0,0,0,0,0c0,0,0,0,0,0c0,0,0,0,0,0c0,0,0,0,0,0c0,0,0,0,0,0
					c0,0,0,0,0,0c0,0,0,0,0,0c0,0,0,0,0,0c0,0,0,0,0,0c0,0,0,0,0,0c0,0,0,0,0,0c0,0,0,0,0,0c0,0,0,0,0,0c0,0,0,0,0,0c0,0,0,0,0,0
					c0,0,0,0,0,0c0,0,0,0,0,0c0,0,0,0,0,0c0,0,0,0,0,0c0,0,0,0,0,0c0,0,0,0,0,0c0,0,0,0,0,0c0,0,0,0,0,0c0,0,0,0,0,0c0,0,0,0,0,0
					c0,0,0,0,0,0c0,0,0,0,0,0c0,0,0,0,0,0c0,0,0,0,0,0c0,0,0,0,0,0c0,0,0,0,0,0c0,0,0,0,0,0c0,0,0,0,0,0c0,0,0,0,0,0c0,0,0,0,0,0
					c0,0,0,0,0,0c0,0,0,0,0,0c0,0,0,0,0,0c0,0,0,0,0,0c0,0,0,0,0,0c0,0,0,0,0,0c0,0,0,0,0,0c2.5,2.4,4.1,5.8,4.1,9.5l0,4.5l0,1.1
					l3.5,3.4l0-1.1l0-4.5C184.5,58.3,182.9,54.9,180.3,52.5C180.3,52.5,180.3,52.5,180.3,52.5z"/>
				<polygon class="st1" points="173,65.6 173,65.6 173,65.6 				"/>
				<polygon class="st1" points="172.4,65.1 172.4,65.1 172.4,65.1 				"/>
				<polygon class="st1" points="172.9,65.6 172.9,65.6 172.9,65.6 				"/>
				<polygon class="st1" points="172.8,65.5 172.8,65.5 172.8,65.5 				"/>
				<polygon class="st1" points="173.1,65.7 173.1,65.7 173.1,65.7 				"/>
				<polygon class="st1" points="173.1,65.8 173.1,65.8 173.1,65.8 				"/>
				<polygon class="st1" points="173.2,65.8 173.2,65.8 173.2,65.8 				"/>
				<polygon class="st1" points="173.2,65.8 173.2,65.8 173.2,65.8 				"/>
				<polygon class="st1" points="172.7,65.4 172.7,65.4 172.7,65.4 				"/>
				<polygon class="st1" points="172.6,65.2 172.6,65.2 172.6,65.2 				"/>
				<polygon class="st1" points="172.8,65.4 172.8,65.4 172.8,65.4 				"/>
				<polygon class="st1" points="172.4,65.1 172.4,65.1 172.4,65.1 				"/>
				<polygon class="st1" points="172.5,65.1 172.5,65.1 172.5,65.1 				"/>
				<polygon class="st1" points="172.5,65.2 172.5,65.2 172.5,65.2 				"/>
				<path class="st1" d="M171.4,104.7c0.1,0,0.3,0,0.4,0c0,0,0.1,0,0.1,0c0,0,0,0,0,0C171.8,104.7,171.6,104.7,171.4,104.7z"/>
				<path class="st1" d="M176.5,103.4c0,0-0.1,0-0.1,0.1c0.1-0.1,0.3-0.1,0.4-0.2c0,0,0.1,0,0.1-0.1c0,0,0,0,0,0c0,0,0,0,0,0
					c0,0,0,0,0,0C176.8,103.3,176.7,103.3,176.5,103.4z"/>
				<path class="st1" d="M170.4,104.7c0.2,0,0.5,0,0.7,0c0,0,0,0,0.1,0c0,0,0,0,0,0C170.9,104.7,170.7,104.7,170.4,104.7z"/>
				<path class="st1" d="M179,102c-0.1,0.1-0.2,0.1-0.2,0.2c-0.1,0.1-0.2,0.2-0.3,0.2c-0.1,0.1-0.2,0.1-0.2,0.2
					c-0.1,0.1-0.2,0.1-0.3,0.2c-0.1,0-0.2,0.1-0.3,0.1c-0.1,0.1-0.2,0.1-0.4,0.2c-0.1,0-0.2,0.1-0.2,0.1c0.1-0.1,0.3-0.1,0.4-0.2
					c0,0,0.1,0,0.1-0.1c0,0,0.1,0,0.1,0c0.1,0,0.2-0.1,0.3-0.1c0,0,0.1-0.1,0.1-0.1c0,0,0.1,0,0.1-0.1c0,0,0.1-0.1,0.1-0.1
					c0.1-0.1,0.2-0.1,0.2-0.2c0,0,0.1,0,0.1-0.1c0,0,0,0,0.1,0c0.1,0,0.1-0.1,0.2-0.1C178.8,102.1,178.9,102,179,102
					C179,101.9,179,101.9,179,102C179,101.9,179,101.9,179,102c0.2-0.1,0.3-0.2,0.3-0.3c0.1-0.1,0.1-0.1,0.2-0.2
					c0.1-0.1,0.1-0.1,0.2-0.2c-0.2,0.2-0.4,0.3-0.6,0.4C179.1,101.9,179,101.9,179,102z"/>
				<path class="st1" d="M173,104.5c0.1,0,0.2,0,0.2,0c0.1,0,0.1,0,0.2,0c0,0,0,0-0.1,0C173.2,104.5,173.1,104.5,173,104.5z"/>
				<path class="st1" d="M174.4,104.2c0,0,0.1,0,0.1,0c0.1,0,0.2-0.1,0.4-0.1c0,0,0,0-0.1,0C174.7,104.1,174.5,104.2,174.4,104.2z"
					/>
				<path class="st1" d="M173.7,104.4c0.1,0,0.1,0,0.2,0c0.1,0,0.2,0,0.3-0.1c0,0,0,0-0.1,0C173.9,104.3,173.8,104.3,173.7,104.4z"
					/>
				<path class="st1" d="M172.2,104.6c0.1,0,0.2,0,0.3,0c0.1,0,0.1,0,0.2,0c0,0,0,0,0,0C172.5,104.6,172.4,104.6,172.2,104.6z"/>
				<path class="st1" d="M175.1,104c0.1,0,0.3-0.1,0.4-0.1c0,0,0,0,0,0C175.4,103.9,175.2,103.9,175.1,104
					C175.1,104,175.1,104,175.1,104z"/>
				<path class="st1" d="M175.7,103.7c0.1-0.1,0.3-0.1,0.4-0.2c0,0,0.1,0,0.1-0.1C176.1,103.6,175.9,103.7,175.7,103.7
					C175.7,103.7,175.7,103.7,175.7,103.7z"/>
				<path class="st1" d="M168.3,58C168.3,58,168.4,58,168.3,58C168.4,58,168.4,58,168.3,58C168.4,58,168.4,58,168.3,58
					C168.3,58,168.3,58,168.3,58z"/>
				<path class="st1" d="M169.7,57.6c-0.1,0-0.1,0-0.2,0C169.6,57.6,169.7,57.6,169.7,57.6C169.7,57.6,169.8,57.6,169.7,57.6
					C169.8,57.6,169.8,57.6,169.7,57.6C169.8,57.6,169.8,57.6,169.7,57.6C169.8,57.6,169.7,57.6,169.7,57.6z"/>
				<path class="st1" d="M168.7,57.9C168.7,57.9,168.7,57.9,168.7,57.9c0.1,0,0.1,0,0.1,0C168.8,57.8,168.8,57.8,168.7,57.9
					C168.8,57.9,168.7,57.9,168.7,57.9z"/>
				<path class="st1" d="M163.8,55.3c-0.2,0.2-0.5,0.4-0.6,0.7c-0.1,0.1-0.2,0.3-0.3,0.4c-0.4,0.7-0.6,1.4-0.6,2.2l0,29.2
					c0,2.1,1.6,3.9,3.6,4.4c-0.1-0.3-0.1-0.7-0.1-1l0-29.2c0-0.8,0.2-1.6,0.6-2.2c0.1-0.2,0.2-0.3,0.3-0.4c0.1-0.1,0.2-0.3,0.3-0.4
					c0,0,0,0,0,0c0.1-0.1,0.2-0.2,0.3-0.3c0,0,0,0,0,0L163.8,55.3z"/>
				<polygon class="st1" points="116.8,103.7 116.8,103.7 116.8,103.7 				"/>
				<polygon class="st1" points="116.4,103.3 116.4,103.3 116.4,103.3 				"/>
				<polygon class="st1" points="116,102.9 116,102.9 116,102.9 				"/>
				<polygon class="st1" points="115.9,102.8 115.9,102.8 115.9,102.8 				"/>
				<polygon class="st1" points="115.9,102.8 115.9,102.8 115.9,102.8 				"/>
				<polygon class="st1" points="115.8,102.8 115.8,102.8 115.8,102.8 				"/>
				<polygon class="st1" points="134.6,96.7 134.8,98.2 134.6,96.7 				"/>
				<polygon class="st1" points="116.3,103.2 116.3,103.2 116.3,103.2 				"/>
				<polygon class="st1" points="116.4,103.3 116.4,103.3 116.4,103.3 				"/>
				<polygon class="st1" points="116.5,103.4 116.5,103.4 116.5,103.4 				"/>
				<polygon class="st1" points="116.3,103.2 116.3,103.2 116.3,103.2 				"/>
				<polygon class="st1" points="116.1,103 116.1,103 116.1,103 				"/>
				<polygon class="st1" points="116.2,103.1 116.2,103.1 116.2,103.1 				"/>
				<polygon class="st1" points="114.9,101.9 114.9,101.9 114.9,101.9 				"/>
				<polygon class="st1" points="115,102 115,102 115,102 				"/>
				<polygon class="st1" points="115,102 115,102 115,102 				"/>
				<polygon class="st1" points="115.1,102.1 115.1,102.1 115.1,102.1 				"/>
				<polygon class="st1" points="115.1,102 115.1,102 115.1,102 				"/>
				<polygon class="st1" points="115,101.9 115,101.9 115,101.9 				"/>
				<polygon class="st1" points="114.9,101.8 114.9,101.8 114.9,101.8 				"/>
				<polygon class="st1" points="114.8,101.8 114.8,101.8 114.8,101.8 				"/>
				<polygon class="st1" points="114.8,101.8 114.8,101.8 114.8,101.8 				"/>
				<polygon class="st1" points="114.9,101.9 114.9,101.9 114.9,101.9 				"/>
				<polygon class="st1" points="116.9,103.8 116.9,103.8 116.9,103.8 				"/>
				<polygon class="st1" points="115.1,102.1 115.1,102.1 115.1,102.1 				"/>
				<polygon class="st1" points="115.6,102.5 115.6,102.5 115.6,102.5 				"/>
				<polygon class="st1" points="115.4,102.4 115.4,102.4 115.4,102.4 				"/>
				<polygon class="st1" points="115.8,102.7 115.8,102.7 115.8,102.7 				"/>
				<polygon class="st1" points="115.7,102.6 115.7,102.6 115.7,102.6 				"/>
				<polygon class="st1" points="115.4,102.3 115.4,102.3 115.4,102.3 				"/>
				<polygon class="st1" points="123.9,100.4 123.8,101.4 127.3,104.7 127.4,103.8 128.5,96.7 125,93.3 				"/>
				<polygon class="st1" points="115.3,102.2 115.3,102.2 115.3,102.2 				"/>
				<polygon class="st1" points="115.2,102.2 115.2,102.2 115.2,102.2 				"/>
				<polygon class="st1" points="116,102.9 116,102.9 116,102.9 				"/>
				<polygon class="st1" points="117,103.8 117,103.8 117,103.8 				"/>
				<polygon class="st1" points="138.1,104 138.1,104 138.1,104 				"/>
				<polygon class="st1" points="138.3,104.3 138.3,104.3 138.3,104.3 				"/>
				<polygon class="st1" points="114.7,101.7 114.7,101.7 114.7,101.7 				"/>
				<polygon class="st1" points="138.7,104.7 138.7,104.7 138.7,104.7 				"/>
				<polygon class="st1" points="138.7,104.6 138.7,104.6 138.7,104.6 				"/>
				<polygon class="st1" points="137.2,103.2 137.2,103.2 137.2,103.2 				"/>
				<polygon class="st1" points="137.4,103.4 137.4,103.4 137.4,103.4 				"/>
				<polygon class="st1" points="137.9,103.8 137.9,103.8 137.9,103.8 				"/>
				<polygon class="st1" points="138,103.9 138,103.9 138,103.9 				"/>
				<polygon class="st1" points="134.9,45.2 124.2,45.2 123.2,45.2 123,46.1 114.6,100.1 123,46.1 123.2,45.2 135.9,45.2 
					135.9,45.2 135.9,45.2 				"/>
				<polygon class="st1" points="131.5,77.3 132.6,84.3 129.5,64.4 				"/>
				<polygon class="st1" points="137,103 137,103 137,103 				"/>
				<polygon class="st1" points="139.6,49.5 139.4,48.6 139.4,48.6 139.4,48.5 139.4,48.5 139.3,48.5 139.3,48.5 139.3,48.5 
					139.3,48.5 139.3,48.4 139.2,48.4 139.2,48.4 139.2,48.4 139.2,48.4 139.2,48.4 139.2,48.3 139.1,48.3 139.1,48.3 139.1,48.3 
					139.1,48.3 139.1,48.3 139.1,48.2 139,48.2 139,48.2 139,48.2 139,48.2 139,48.2 139,48.1 138.9,48.1 138.9,48.1 138.9,48.1 
					138.9,48.1 138.9,48.1 138.9,48 138.8,48 138.8,48 138.8,48 138.8,48 138.8,48 138.8,47.9 138.7,47.9 138.7,47.9 138.7,47.9 
					138.7,47.9 138.7,47.9 138.7,47.8 138.6,47.8 138.6,47.8 138.6,47.8 138.6,47.8 138.6,47.8 138.5,47.7 138.5,47.7 138.5,47.7 
					138.5,47.7 138.5,47.7 138.4,47.7 138.4,47.6 138.4,47.6 138.4,47.6 138.4,47.6 138.4,47.6 138.3,47.6 138.3,47.5 138.3,47.5 
					138.3,47.5 138.3,47.5 138.3,47.5 138.2,47.5 138.2,47.4 138.2,47.4 138.2,47.4 138.2,47.4 138.2,47.4 138.1,47.4 138.1,47.3 
					138.1,47.3 138.1,47.3 138.1,47.3 138.1,47.3 138,47.3 138,47.2 138,47.2 138,47.2 138,47.2 138,47.2 137.9,47.2 137.9,47.1 
					137.9,47.1 137.9,47.1 137.9,47.1 137.9,47.1 137.8,47.1 137.8,47 137.8,47 137.8,47 137.8,47 137.8,47 137.7,47 137.7,46.9 
					137.7,46.9 137.7,46.9 137.7,46.9 137.6,46.9 137.6,46.9 137.6,46.8 137.6,46.8 137.6,46.8 137.5,46.8 137.5,46.8 137.5,46.8 
					137.5,46.7 137.5,46.7 137.5,46.7 137.4,46.7 137.4,46.7 137.4,46.7 137.4,46.6 137.4,46.6 137.4,46.6 137.3,46.6 137.3,46.6 
					137.3,46.6 137.3,46.5 137.3,46.5 137.3,46.5 137.2,46.5 137.2,46.5 137.2,46.5 137.2,46.4 137.2,46.4 137.2,46.4 137.1,46.4 
					137.1,46.4 137.1,46.4 137.1,46.3 137.1,46.3 137.1,46.3 137,46.3 137,46.3 137,46.3 137,46.2 137,46.2 137,46.2 136.9,46.2 
					136.9,46.2 136.9,46.2 136.9,46.1 136.9,46.1 136.8,46.1 136.8,46.1 136.8,46.1 136.8,46.1 136.8,46 136.7,46 136.7,46 
					136.7,46 136.7,46 136.7,46 136.7,45.9 136.6,45.9 136.6,45.9 136.6,45.9 136.6,45.9 136.6,45.9 136.6,45.8 136.5,45.8 
					136.5,45.8 136.5,45.8 136.5,45.8 136.5,45.8 136.5,45.7 136.4,45.7 136.4,45.7 136.4,45.7 136.4,45.7 136.4,45.7 136.4,45.6 
					136.3,45.6 136.3,45.6 136.3,45.6 136.3,45.6 136.3,45.6 136.3,45.5 136.2,45.5 136.2,45.5 136.2,45.5 136.2,45.5 136.2,45.5 
					136.2,45.4 136.1,45.4 136.1,45.4 136.1,45.4 136.1,45.4 136.1,45.4 136.1,45.3 136,45.3 136,45.3 136,45.3 136,45.3 136,45.3 
					135.9,45.2 135.9,45.2 136.1,46.1 144.5,100.1 144.7,101.4 144.7,101.4 148.2,104.7 148,103.5 				"/>
				<polygon class="st1" points="114.6,101.6 114.6,101.6 114.6,101.6 				"/>
				<polygon class="st1" points="114.6,101.5 114.6,101.5 114.6,101.5 				"/>
				<polygon class="st1" points="114.5,101.4 114.5,101.4 114.5,101.4 				"/>
				<polygon class="st1" points="114.4,101.4 114.6,100.1 114.4,101.4 				"/>
				<polygon class="st1" points="114.7,101.7 114.7,101.7 114.7,101.7 				"/>
				<polygon class="st1" points="117.2,104 117.2,104 117.2,104 				"/>
				<polygon class="st1" points="117.4,104.2 117.4,104.2 117.4,104.2 				"/>
				<polygon class="st1" points="117.1,104 117.1,104 117.1,104 				"/>
				<polygon class="st1" points="136.9,102.9 136.9,102.9 136.9,102.9 				"/>
				<polygon class="st1" points="117,103.9 117,103.9 117,103.9 				"/>
				<polygon class="st1" points="117,103.9 117,103.9 117,103.9 				"/>
				<polygon class="st1" points="117.1,103.9 117.1,103.9 117.1,103.9 				"/>
				<polygon class="st1" points="117.1,104 117.1,104 117.1,104 				"/>
				<polygon class="st1" points="135.6,101.7 135.6,101.7 135.6,101.7 				"/>
				<polygon class="st1" points="136.7,102.8 136.7,102.8 136.7,102.8 				"/>
				<polygon class="st1" points="135.9,102 135.9,102 135.9,102 				"/>
				<polygon class="st1" points="136,102 136,102 136,102 				"/>
				<polygon class="st1" points="135.8,101.9 135.8,101.9 135.8,101.9 				"/>
				<polygon class="st1" points="135.9,101.9 135.9,101.9 135.9,101.9 				"/>
				<polygon class="st1" points="135.7,101.7 135.7,101.7 135.7,101.7 				"/>
				<polygon class="st1" points="135.9,102 135.9,102 135.9,102 				"/>
				<polygon class="st1" points="135.7,101.8 135.7,101.8 135.7,101.8 				"/>
				<polygon class="st1" points="206.6,100.2 206.6,101.4 210.1,104.7 210.1,103.6 210.1,57.5 206.6,54.2 				"/>
				<polygon class="st1" points="219.4,48.6 219.4,48.5 219.4,48.5 219.4,48.5 219.3,48.5 219.3,48.5 219.3,48.5 219.3,48.4 
					219.3,48.4 219.3,48.4 219.2,48.4 219.2,48.4 219.2,48.4 219.2,48.3 219.2,48.3 219.2,48.3 219.1,48.3 219.1,48.3 219.1,48.3 
					219.1,48.2 219.1,48.2 219.1,48.2 219,48.2 219,48.2 219,48.2 219,48.1 219,48.1 219,48.1 218.9,48.1 218.9,48.1 218.9,48.1 
					218.9,48 218.9,48 218.9,48 218.8,48 218.8,48 218.8,48 218.8,47.9 218.8,47.9 218.8,47.9 218.7,47.9 218.7,47.9 218.7,47.9 
					218.7,47.8 218.6,47.8 218.6,47.8 218.6,47.8 218.6,47.8 218.6,47.8 218.6,47.7 218.5,47.7 218.5,47.7 218.5,47.7 218.5,47.7 
					218.5,47.7 218.5,47.6 218.4,47.6 218.4,47.6 218.4,47.6 218.4,47.6 218.4,47.6 218.4,47.5 218.3,47.5 218.3,47.5 218.3,47.5 
					218.3,47.5 218.3,47.5 218.3,47.4 218.2,47.4 218.2,47.4 218.2,47.4 218.2,47.4 218.2,47.4 218.2,47.3 218.1,47.3 218.1,47.3 
					218.1,47.3 218.1,47.3 218.1,47.3 218.1,47.2 218,47.2 218,47.2 218,47.2 218,47.2 218,47.2 218,47.1 217.9,47.1 217.9,47.1 
					217.9,47.1 217.9,47.1 217.8,47.1 217.8,47 217.8,47 217.8,47 217.8,47 217.8,47 217.7,47 217.7,46.9 217.7,46.9 217.7,46.9 
					217.7,46.9 217.7,46.9 217.6,46.9 217.6,46.8 217.6,46.8 217.6,46.8 217.6,46.8 217.6,46.8 217.5,46.8 217.5,46.7 217.5,46.7 
					217.5,46.7 217.5,46.7 217.5,46.7 217.4,46.7 217.4,46.6 217.4,46.6 217.4,46.6 217.4,46.6 217.4,46.6 217.3,46.6 217.3,46.5 
					217.3,46.5 217.3,46.5 217.3,46.5 217.3,46.5 217.2,46.5 217.2,46.4 217.2,46.4 217.2,46.4 217.2,46.4 217.2,46.4 217.1,46.4 
					217.1,46.3 217.1,46.3 217.1,46.3 217.1,46.3 217.1,46.3 217,46.3 217,46.2 217,46.2 217,46.2 216.9,46.2 216.9,46.2 
					216.9,46.2 216.9,46.1 216.9,46.1 216.9,46.1 216.8,46.1 216.8,46.1 216.8,46.1 216.8,46 216.8,46 216.8,46 216.7,46 216.7,46 
					216.7,46 216.7,45.9 216.7,45.9 216.7,45.9 216.6,45.9 216.6,45.9 216.6,45.9 216.6,45.8 216.6,45.8 216.6,45.8 216.5,45.8 
					216.5,45.8 216.5,45.8 216.5,45.7 216.5,45.7 216.5,45.7 216.4,45.7 216.4,45.7 216.4,45.7 216.4,45.6 216.4,45.6 216.4,45.6 
					216.3,45.6 216.3,45.6 216.3,45.6 216.3,45.5 216.3,45.5 216.3,45.5 216.2,45.5 216.2,45.5 216.2,45.5 216.2,45.4 216.1,45.4 
					216.1,45.4 216.1,45.4 216.1,45.4 216.1,45.4 216.1,45.3 216,45.3 216,45.3 216,45.3 216,45.3 216,45.3 216,45.2 215.9,45.2 
					215.9,46.3 215.9,53.1 215.9,54.2 219.4,57.5 219.4,56.4 219.4,49.7 219.4,48.6 				"/>
				<polygon class="st1" points="197.2,100.2 197.3,57.5 197.3,57.5 				"/>
				<polygon class="st1" points="198.2,102.3 198.2,102.3 198.2,102.3 				"/>
				<polygon class="st1" points="197.5,101.6 197.5,101.6 197.5,101.6 				"/>
				<polygon class="st1" points="197.6,101.7 197.6,101.7 197.6,101.7 				"/>
				<polygon class="st1" points="197.5,101.6 197.5,101.6 197.5,101.6 				"/>
				<polygon class="st1" points="197.7,101.8 197.7,101.8 197.7,101.8 				"/>
				<polygon class="st1" points="197.7,101.8 197.7,101.8 197.7,101.8 				"/>
				<polygon class="st1" points="197.4,101.6 197.4,101.6 197.4,101.6 				"/>
				<polygon class="st1" points="197.6,101.7 197.6,101.7 197.6,101.7 				"/>
				<polygon class="st1" points="197.4,101.5 197.4,101.5 197.4,101.5 				"/>
				<polygon class="st1" points="191.1,57.2 191.1,57.2 191.1,57.2 				"/>
				<polygon class="st1" points="191,57.1 191,57.1 191,57.1 				"/>
				<polygon class="st1" points="191.3,57.4 191.3,57.4 191.3,57.4 				"/>
				<polygon class="st1" points="197.4,101.5 197.4,101.5 197.4,101.5 				"/>
				<polygon class="st1" points="191.4,57.5 191.4,57.5 191.4,57.5 				"/>
				<polygon class="st1" points="197.3,101.4 197.3,101.4 197.3,101.4 				"/>
				<polygon class="st1" points="198.3,102.4 198.3,102.4 198.3,102.4 				"/>
				<polygon class="st1" points="198.2,102.3 198.2,102.3 198.2,102.3 				"/>
				<polygon class="st1" points="198.1,102.2 198.1,102.2 198.1,102.2 				"/>
				<polygon class="st1" points="198.4,102.5 198.4,102.5 198.4,102.5 				"/>
				<polygon class="st1" points="198.1,102.2 198.1,102.2 198.1,102.2 				"/>
				<polygon class="st1" points="197.8,101.9 197.8,101.9 197.8,101.9 				"/>
				<polygon class="st1" points="197.9,102 197.9,102 197.9,102 				"/>
				<polygon class="st1" points="197.9,102 197.9,102 197.9,102 				"/>
				<polygon class="st1" points="198,102.1 198,102.1 198,102.1 				"/>
				<polygon class="st1" points="197.8,101.9 197.8,101.9 197.8,101.9 				"/>
				<polygon class="st1" points="197.9,102 197.9,102 197.9,102 				"/>
				<polygon class="st1" points="198,102.1 198,102.1 198,102.1 				"/>
				<polygon class="st1" points="198,102.1 198,102.1 198,102.1 				"/>
				<polygon class="st1" points="189.5,55.7 189.5,55.7 189.5,55.7 				"/>
				<polygon class="st1" points="188.9,55.1 188.9,55.1 188.9,55.1 				"/>
				<polygon class="st1" points="188.7,55 188.7,55 188.7,55 				"/>
				<polygon class="st1" points="189.4,55.6 189.4,55.6 189.4,55.6 				"/>
				<polygon class="st1" points="198.5,102.5 198.5,102.5 198.5,102.5 				"/>
				<polygon class="st1" points="189.4,55.6 189.4,55.6 189.4,55.6 				"/>
				<polygon class="st1" points="188.3,54.6 188.3,54.6 188.3,54.6 				"/>
				<polygon class="st1" points="188.7,54.9 188.7,54.9 188.7,54.9 				"/>
				<polygon class="st1" points="188.2,54.4 188.2,54.4 188.2,54.4 				"/>
				<polygon class="st1" points="188.4,54.6 188.4,54.6 188.4,54.6 				"/>
				<polygon class="st1" points="188.6,54.8 188.6,54.8 188.6,54.8 				"/>
				<polygon class="st1" points="188.5,54.8 188.5,54.8 188.5,54.8 				"/>
				<polygon class="st1" points="188.4,54.6 188.4,54.6 188.4,54.6 				"/>
				<polygon class="st1" points="189.5,55.7 189.5,55.7 189.5,55.7 				"/>
				<polygon class="st1" points="190,56.2 190,56.2 190,56.2 				"/>
				<polygon class="st1" points="190.7,56.8 190.7,56.8 190.7,56.8 				"/>
				<polygon class="st1" points="190,56.2 190,56.2 190,56.2 				"/>
				<polygon class="st1" points="190.8,56.9 190.8,56.9 190.8,56.9 				"/>
				<polygon class="st1" points="190.9,57 190.9,57 190.9,57 				"/>
				<polygon class="st1" points="190.1,56.2 190.1,56.2 190.1,56.2 				"/>
				<polygon class="st1" points="189.6,55.8 189.6,55.8 189.6,55.8 				"/>
				<polygon class="st1" points="189.7,55.9 189.7,55.9 189.7,55.9 				"/>
				<polygon class="st1" points="189.8,56 189.8,56 189.8,56 				"/>
				<polygon class="st1" points="190,56.1 190,56.1 190,56.1 				"/>
				<polygon class="st1" points="189.8,55.9 189.8,55.9 189.8,55.9 				"/>
				<polygon class="st1" points="198.7,102.7 198.7,102.7 198.7,102.7 				"/>
				<polygon class="st1" points="200,104 200,104 200,104 				"/>
				<polygon class="st1" points="199.6,103.7 199.6,103.7 199.6,103.7 				"/>
				<polygon class="st1" points="199.9,104 199.9,104 199.9,104 				"/>
				<polygon class="st1" points="200,104.1 200,104.1 200,104.1 				"/>
				<polygon class="st1" points="200.1,104.1 200.1,104.1 200.1,104.1 				"/>
				<polygon class="st1" points="199.9,103.9 199.9,103.9 199.9,103.9 				"/>
				<polygon class="st1" points="200.1,104.1 200.1,104.1 200.1,104.1 				"/>
				<polygon class="st1" points="200.2,104.2 200.2,104.2 200.2,104.2 				"/>
				<polygon class="st1" points="199.7,103.7 199.7,103.7 199.7,103.7 				"/>
				<polygon class="st1" points="199.7,103.7 199.7,103.7 199.7,103.7 				"/>
				<polygon class="st1" points="199.7,103.8 199.7,103.8 199.7,103.8 				"/>
				<polygon class="st1" points="199.8,103.9 199.8,103.9 199.8,103.9 				"/>
				<polygon class="st1" points="199.9,103.9 199.9,103.9 199.9,103.9 				"/>
				<polygon class="st1" points="199.8,103.8 199.8,103.8 199.8,103.8 				"/>
				<polygon class="st1" points="199.8,103.8 199.8,103.8 199.8,103.8 				"/>
				<polygon class="st1" points="200,104 200,104 200,104 				"/>
				<polygon class="st1" points="200.6,104.6 200.6,104.6 200.6,104.6 				"/>
				<polygon class="st1" points="200.5,104.5 200.5,104.5 200.5,104.5 				"/>
				<polygon class="st1" points="200.5,104.5 200.5,104.5 200.5,104.5 				"/>
				<polygon class="st1" points="200.6,104.6 200.6,104.6 200.6,104.6 				"/>
				<polygon class="st1" points="200.7,104.7 200.7,104.7 200.7,104.7 				"/>
				<polygon class="st1" points="200.7,104.7 200.7,104.7 200.7,104.7 				"/>
				<polygon class="st1" points="200.6,104.6 200.6,104.6 200.6,104.6 				"/>
				<polygon class="st1" points="200.3,104.3 200.3,104.3 200.3,104.3 				"/>
				<polygon class="st1" points="200.3,104.3 200.3,104.3 200.3,104.3 				"/>
				<polygon class="st1" points="200.3,104.3 200.3,104.3 200.3,104.3 				"/>
				<polygon class="st1" points="200.2,104.2 200.2,104.2 200.2,104.2 				"/>
				<polygon class="st1" points="200.4,104.4 200.4,104.4 200.4,104.4 				"/>
				<polygon class="st1" points="200.2,104.2 200.2,104.2 200.2,104.2 				"/>
				<polygon class="st1" points="200.4,104.4 200.4,104.4 200.4,104.4 				"/>
				<polygon class="st1" points="200.5,104.5 200.5,104.5 200.5,104.5 				"/>
				<polygon class="st1" points="199.2,103.2 199.2,103.2 199.2,103.2 				"/>
				<polygon class="st1" points="198.9,102.9 198.9,102.9 198.9,102.9 				"/>
				<polygon class="st1" points="199,103.1 199,103.1 199,103.1 				"/>
				<polygon class="st1" points="198.8,102.9 198.8,102.9 198.8,102.9 				"/>
				<polygon class="st1" points="198.9,103 198.9,103 198.9,103 				"/>
				<polygon class="st1" points="198.9,103 198.9,103 198.9,103 				"/>
				<polygon class="st1" points="199,103.1 199,103.1 199,103.1 				"/>
				<polygon class="st1" points="199,103 199,103 199,103 				"/>
				<polygon class="st1" points="198.8,102.9 198.8,102.9 198.8,102.9 				"/>
				<polygon class="st1" points="198.6,102.7 198.6,102.7 198.6,102.7 				"/>
				<polygon class="st1" points="198.8,102.8 198.8,102.8 198.8,102.8 				"/>
				<polygon class="st1" points="198.5,102.6 198.5,102.6 198.5,102.6 				"/>
				<polygon class="st1" points="198.6,102.6 198.6,102.6 198.6,102.6 				"/>
				<polygon class="st1" points="198.7,102.8 198.7,102.8 198.7,102.8 				"/>
				<polygon class="st1" points="197.3,54.2 197.3,54.2 197.3,54.2 				"/>
				<polygon class="st1" points="198.6,102.7 198.6,102.7 198.6,102.7 				"/>
				<polygon class="st1" points="199.6,103.6 199.6,103.6 199.6,103.6 				"/>
				<polygon class="st1" points="199.4,103.4 199.4,103.4 199.4,103.4 				"/>
				<polygon class="st1" points="199.4,103.4 199.4,103.4 199.4,103.4 				"/>
				<polygon class="st1" points="199.1,103.1 199.1,103.1 199.1,103.1 				"/>
				<polygon class="st1" points="199.5,103.6 199.5,103.6 199.5,103.6 				"/>
				<polygon class="st1" points="199.6,103.6 199.6,103.6 199.6,103.6 				"/>
				<polygon class="st1" points="199.5,103.5 199.5,103.5 199.5,103.5 				"/>
				<polygon class="st1" points="199.3,103.4 199.3,103.4 199.3,103.4 				"/>
				<polygon class="st1" points="199.5,103.5 199.5,103.5 199.5,103.5 				"/>
				<polygon class="st1" points="199.1,103.2 199.1,103.2 199.1,103.2 				"/>
				<polygon class="st1" points="199.1,103.2 199.1,103.2 199.1,103.2 				"/>
				<polygon class="st1" points="199.3,103.3 199.3,103.3 199.3,103.3 				"/>
				<polygon class="st1" points="199.3,103.3 199.3,103.3 199.3,103.3 				"/>
				<polygon class="st1" points="199.2,103.3 199.2,103.3 199.2,103.3 				"/>
				<polygon class="st1" points="200.4,104.4 200.4,104.4 200.4,104.4 				"/>
			</g>
			<g>
				<polygon class="st2" points="37.2,101.4 30.2,101.4 29.1,101.4 29.1,101.4 29.1,101.4 29.1,101.4 29.2,101.5 29.2,101.5 
					29.2,101.5 29.3,101.6 29.3,101.6 29.3,101.6 29.5,101.8 29.5,101.8 29.5,101.8 29.5,101.8 29.5,101.8 29.5,101.8 29.6,101.9 
					29.6,101.9 29.8,102 29.8,102 29.8,102.1 29.8,102.1 29.8,102.1 30.3,102.6 30.4,102.7 30.4,102.7 30.4,102.7 30.4,102.7 
					30.5,102.7 30.5,102.7 30.5,102.8 30.5,102.8 30.6,102.8 30.6,102.8 30.6,102.8 30.6,102.8 30.6,102.9 30.6,102.9 30.7,102.9 
					30.7,102.9 30.7,102.9 30.7,102.9 30.8,103 30.8,103 31,103.3 31.2,103.5 31.2,103.5 31.3,103.5 31.3,103.5 31.7,103.9 
					31.7,103.9 31.8,104 31.8,104 31.8,104 31.8,104 31.9,104.1 31.9,104.1 32,104.2 32.3,104.4 32.3,104.4 32.3,104.5 32.3,104.5 
					32.4,104.6 32.4,104.6 32.5,104.7 32.5,104.7 32.6,104.7 33.7,104.7 40.7,104.7 41.9,104.7 38.4,101.4 				"/>
				<polygon class="st2" points="68.6,101.4 61.6,101.4 60.5,101.4 60.5,101.4 60.5,101.4 60.5,101.4 60.6,101.5 60.6,101.5 
					60.8,101.7 60.8,101.7 61,101.8 61.1,101.9 61.1,101.9 61.6,102.4 61.6,102.4 61.7,102.5 61.8,102.6 61.8,102.6 61.8,102.6 
					61.8,102.7 61.8,102.7 61.9,102.7 61.9,102.7 61.9,102.7 61.9,102.7 61.9,102.8 61.9,102.8 62,102.8 62,102.8 62,102.8 
					62,102.8 62.1,102.9 62.2,103 62.2,103 62.2,103 62.2,103 62.4,103.2 62.4,103.2 62.5,103.3 62.6,103.4 62.6,103.4 62.6,103.4 
					62.6,103.4 62.7,103.5 62.7,103.5 62.7,103.5 62.7,103.5 62.8,103.6 62.8,103.6 62.8,103.6 62.8,103.6 62.9,103.7 63,103.8 
					63,103.8 63,103.8 63,103.8 63.1,103.9 63.1,103.9 63.1,103.9 63.1,103.9 63.1,103.9 63.1,103.9 63.2,104 63.2,104 63.3,104 
					63.3,104.1 63.3,104.1 63.4,104.2 63.4,104.2 63.4,104.2 63.4,104.2 63.5,104.2 63.5,104.2 63.5,104.2 63.5,104.3 63.5,104.3 
					63.5,104.3 63.5,104.3 63.6,104.4 63.6,104.4 63.6,104.4 63.7,104.4 63.7,104.4 63.7,104.5 63.7,104.5 63.8,104.5 63.8,104.6 
					63.8,104.6 63.8,104.6 63.8,104.6 63.9,104.6 63.9,104.6 63.9,104.7 63.9,104.7 63.9,104.7 63.9,104.7 64,104.7 65.1,104.7 
					72.2,104.7 73.3,104.7 69.8,101.4 				"/>
				<polygon class="st2" points="52.9,96.9 46,96.9 45.1,96.9 45.1,96.9 45.3,97 45.3,97 45.3,97.1 45.3,97.1 45.3,97.1 45.3,97.1 
					45.7,97.4 45.7,97.4 45.7,97.5 45.7,97.5 45.8,97.5 45.8,97.5 45.8,97.5 45.8,97.6 45.8,97.6 45.8,97.6 45.8,97.6 45.9,97.6 
					46,97.7 46,97.7 46.1,97.8 46.1,97.8 46.3,98 46.4,98.1 46.4,98.1 46.5,98.3 46.5,98.3 46.6,98.3 46.6,98.3 46.6,98.3 
					46.6,98.3 46.6,98.4 46.7,98.4 46.7,98.4 46.8,98.5 46.8,98.5 46.8,98.5 46.8,98.5 46.9,98.6 46.9,98.6 47,98.7 47,98.7 
					47.2,98.9 47.2,98.9 47.3,99 47.3,99 47.3,99 47.3,99 47.3,99 47.4,99.1 47.4,99.1 47.4,99.1 47.4,99.1 47.4,99.1 47.5,99.2 
					47.5,99.2 47.5,99.2 47.5,99.2 47.5,99.2 47.6,99.3 47.6,99.3 47.6,99.3 47.6,99.3 47.7,99.3 47.7,99.3 47.7,99.4 47.7,99.4 
					47.7,99.4 47.7,99.4 47.8,99.5 47.8,99.5 47.8,99.5 47.8,99.5 47.9,99.6 47.9,99.6 47.9,99.6 47.9,99.6 47.9,99.6 47.9,99.6 
					48,99.7 48,99.7 48,99.7 48,99.7 48,99.7 48,99.7 48.1,99.8 48.1,99.8 48.1,99.8 48.1,99.8 48.1,99.8 48.1,99.8 48.3,100 
					48.3,100 48.3,100 48.3,100 48.6,100.2 48.6,100.2 48.6,100.3 49.5,100.3 56.4,100.3 57.3,100.3 53.8,96.9 				"/>
				<path class="st2" d="M99.8,57.5c0.4,0,0.7,0,1,0.1c-0.5-2-2.3-3.5-4.5-3.5h-4.7v0l3.5,3.4H99.8z"/>
				<polygon class="st2" points="90.5,101.4 83.5,101.4 82.3,101.4 82.3,101.4 82.8,101.8 82.9,101.9 82.9,101.9 83,102 83,102 
					83,102.1 83,102.1 83,102.1 83.1,102.1 83.1,102.1 83.1,102.1 83.1,102.1 83.1,102.2 83.1,102.2 83.2,102.2 83.5,102.5 
					83.6,102.6 83.6,102.6 83.8,102.8 83.8,102.8 83.8,102.8 83.8,102.8 83.8,102.8 83.9,102.9 84,103 84,103 84,103 84,103 
					84.2,103.2 84.2,103.2 84.2,103.2 84.2,103.2 84.2,103.2 84.3,103.3 84.3,103.3 84.3,103.3 84.3,103.3 84.3,103.3 84.3,103.3 
					84.4,103.4 84.4,103.4 84.5,103.5 84.5,103.5 84.5,103.5 84.5,103.5 84.6,103.6 84.6,103.6 84.8,103.7 84.8,103.8 84.8,103.8 
					84.9,103.8 84.9,103.8 84.9,103.9 84.9,103.9 84.9,103.9 84.9,103.9 85,103.9 85,103.9 85,104 85,104 85,104 85,104 85.1,104 
					85.1,104.1 85.1,104.1 85.2,104.2 85.2,104.2 85.3,104.2 85.3,104.2 85.3,104.3 85.3,104.3 85.4,104.3 85.4,104.3 85.4,104.4 
					85.4,104.4 85.5,104.4 85.5,104.4 85.5,104.4 85.5,104.5 85.5,104.5 85.6,104.5 85.6,104.5 85.6,104.6 85.6,104.6 85.7,104.6 
					85.7,104.6 85.8,104.7 85.8,104.7 85.8,104.7 87,104.7 94,104.7 95.1,104.7 91.6,101.4 				"/>
				<path class="st2" d="M106.8,76.6c-2.6,2.8-6.3,4.5-10.5,4.5h-4.7l3.5,3.4h4.7c0.3,0,0.5,0,0.7,0c0.1,0,0.2,0,0.2,0
					c0.2,0,0.3,0,0.5,0c0.1,0,0.2,0,0.3,0c0.2,0,0.3,0,0.5-0.1c0.1,0,0.2,0,0.3,0c0.1,0,0.3-0.1,0.4-0.1c0.1,0,0.2,0,0.3-0.1
					c0.1,0,0.3-0.1,0.4-0.1c0.1,0,0.2,0,0.3-0.1c0.1,0,0.3-0.1,0.4-0.1c0.1,0,0.2-0.1,0.2-0.1c0.1,0,0.3-0.1,0.4-0.2
					c0.1,0,0.1-0.1,0.2-0.1c0.2-0.1,0.3-0.1,0.5-0.2c0.1,0,0.1-0.1,0.2-0.1c0.2-0.1,0.3-0.1,0.5-0.2c0.1,0,0.1,0,0.2-0.1
					c0.2-0.1,0.3-0.2,0.5-0.3c0,0,0.1,0,0.1-0.1c1.2-0.7,2.4-1.6,3.3-2.6c0,0,0,0,0,0l0,0L106.8,76.6z"/>
				<polygon class="st2" points="15.3,101.4 8.3,101.4 7.2,101.4 7.1,101.4 7.2,101.4 7.2,101.4 7.2,101.4 7.2,101.4 7.2,101.5 
					7.2,101.5 7.3,101.5 7.3,101.5 7.3,101.6 7.4,101.6 7.4,101.6 7.4,101.6 7.4,101.6 7.4,101.7 7.4,101.7 7.5,101.7 7.5,101.7 
					7.5,101.7 7.6,101.8 7.6,101.8 7.6,101.8 7.6,101.8 7.7,101.9 7.7,101.9 7.8,102 7.8,102 7.8,102 7.8,102 7.8,102 7.9,102.1 
					7.9,102.1 7.9,102.1 7.9,102.1 7.9,102.1 7.9,102.1 7.9,102.1 8,102.2 8,102.2 8,102.2 8,102.2 8,102.2 8.1,102.3 8.1,102.3 
					8.1,102.3 8.1,102.3 8.1,102.3 8.1,102.3 8.2,102.4 8.2,102.4 8.2,102.4 8.2,102.4 8.3,102.5 8.3,102.5 8.3,102.5 8.3,102.5 
					8.3,102.5 8.4,102.6 8.4,102.6 8.4,102.6 8.4,102.6 8.4,102.6 8.5,102.7 8.5,102.7 8.5,102.7 8.5,102.7 8.5,102.7 8.5,102.7 
					8.6,102.8 8.6,102.8 8.6,102.8 8.6,102.8 8.7,102.8 8.7,102.8 8.7,102.9 8.7,102.9 8.7,102.9 8.7,102.9 8.8,102.9 8.8,102.9 
					8.9,103.1 8.9,103.1 9,103.1 9,103.1 9.1,103.3 9.1,103.3 9.2,103.4 9.2,103.4 9.2,103.4 9.3,103.5 9.3,103.5 9.3,103.5 
					9.4,103.5 9.4,103.5 9.4,103.6 9.4,103.6 9.4,103.6 9.5,103.6 9.5,103.6 9.5,103.6 9.5,103.6 9.5,103.7 9.5,103.7 9.6,103.7 
					9.6,103.7 9.6,103.7 9.6,103.7 9.6,103.8 9.6,103.8 9.7,103.8 9.7,103.8 9.7,103.8 9.7,103.8 9.7,103.9 9.7,103.9 9.8,103.9 
					9.8,103.9 9.8,104 9.9,104 9.9,104 9.9,104 10,104.1 10,104.1 10,104.1 10,104.2 10,104.2 10.1,104.2 10.1,104.2 10.2,104.3 
					10.2,104.3 10.2,104.4 10.2,104.4 10.3,104.4 10.3,104.4 10.3,104.4 10.3,104.4 10.4,104.5 10.4,104.5 10.5,104.6 10.5,104.6 
					10.6,104.7 10.6,104.7 10.6,104.7 10.6,104.7 20,104.7 16.5,101.4 				"/>
				<polygon class="st2" points="171.6,58.7 171.6,59.9 171.6,59.9 				"/>
				<polygon class="st2" points="179.8,64.3 172.8,64.3 171.7,64.3 171.6,64.3 171.7,64.4 171.7,64.4 171.7,64.4 171.8,64.4 
					171.8,64.4 171.8,64.5 171.8,64.5 171.9,64.5 171.9,64.5 171.9,64.5 171.9,64.6 171.9,64.6 172,64.6 172,64.6 172,64.7 
					172,64.7 172.1,64.8 172.1,64.8 172.1,64.8 172.3,65 172.3,65 172.3,65 172.3,65 172.3,65 172.4,65.1 172.4,65.1 172.4,65.1 
					172.4,65.1 172.5,65.1 172.5,65.1 172.5,65.2 172.5,65.2 172.6,65.2 172.6,65.2 172.6,65.3 172.7,65.3 172.7,65.4 172.7,65.4 
					172.8,65.4 172.8,65.4 172.8,65.4 172.8,65.4 172.8,65.4 172.8,65.5 172.8,65.5 172.9,65.6 172.9,65.6 173,65.6 173,65.6 
					173,65.7 173.1,65.7 173.1,65.7 173.1,65.8 173.1,65.8 173.2,65.8 173.2,65.8 173.2,65.8 173.2,65.8 173.2,65.9 173.2,65.9 
					173.4,66 173.4,66 173.4,66 173.4,66 173.5,66.1 173.5,66.1 173.5,66.1 173.5,66.1 173.5,66.1 173.5,66.1 173.6,66.2 
					173.6,66.2 173.6,66.2 173.6,66.2 173.6,66.2 173.7,66.3 173.7,66.3 173.7,66.3 173.7,66.3 173.7,66.3 173.7,66.3 173.9,66.5 
					173.9,66.5 173.9,66.5 174,66.6 174,66.6 174,66.6 174,66.6 174,66.6 174.1,66.7 174.1,66.7 174.1,66.7 174.1,66.7 174.1,66.7 
					174.1,66.7 174.2,66.8 174.2,66.8 174.2,66.8 174.2,66.8 174.3,66.8 174.3,66.8 174.3,66.9 174.3,66.9 174.3,66.9 174.3,66.9 
					174.4,66.9 174.4,66.9 174.4,67 174.4,67 174.4,67 174.5,67 174.5,67 174.5,67.1 174.5,67.1 174.5,67.1 174.5,67.1 174.6,67.1 
					174.6,67.1 174.6,67.2 174.6,67.2 174.6,67.2 174.6,67.2 174.7,67.2 174.7,67.2 174.7,67.3 174.7,67.3 174.7,67.3 174.7,67.3 
					174.8,67.3 174.8,67.3 174.8,67.4 174.8,67.4 174.9,67.4 174.9,67.4 175,67.5 175,67.5 175,67.6 175,67.6 175.1,67.6 
					175.1,67.6 175.1,67.7 176.3,67.7 183.3,67.7 184.5,67.7 181,64.3 				"/>
				<path class="st2" d="M167.3,58.7c-0.1,0.1-0.2,0.2-0.3,0.3c0,0,0,0,0,0c-0.1,0.1-0.2,0.3-0.3,0.4c-0.1,0.1-0.2,0.3-0.3,0.4l0,0
					c0.1-0.2,0.2-0.3,0.3-0.5c0,0,0.1-0.1,0.1-0.1c0.1-0.1,0.2-0.2,0.3-0.3C167.1,58.9,167.2,58.8,167.3,58.7c0,0,0.1-0.1,0.2-0.1
					c0,0,0,0,0,0c0.1,0,0.1-0.1,0.2-0.1c0.1-0.1,0.2-0.1,0.3-0.2c0.1,0,0.1-0.1,0.2-0.1c0.1-0.1,0.2-0.1,0.3-0.1
					c0.1,0,0.1-0.1,0.2-0.1c0.1,0,0.2-0.1,0.3-0.1c0.1,0,0.1,0,0.2-0.1c0,0-0.1,0-0.1,0c0,0,0,0,0,0c0,0,0,0,0,0c0,0,0.1,0,0.1,0
					c0,0,0,0,0,0c0,0,0,0,0,0c0,0,0,0,0,0c0.1,0,0.2-0.1,0.4-0.1c0,0,0.1,0,0.1,0c0,0,0,0-0.1,0c-0.1,0-0.1,0-0.2,0
					c0.1,0,0.1,0,0.2,0c0,0,0,0,0,0c0,0,0,0,0,0c0,0,0.1,0,0.1,0c0.2,0,0.4,0,0.6,0c0.4,0,0.7,0,1,0.1c-0.5-2-2.3-3.5-4.5-3.5
					c-1.2,0-2.3,0.4-3.1,1.2L167.3,58.7C167.3,58.7,167.3,58.7,167.3,58.7z M168.8,57.9C168.8,57.8,168.8,57.8,168.8,57.9
					C168.8,57.8,168.8,57.8,168.8,57.9C168.7,57.9,168.7,57.9,168.8,57.9C168.7,57.9,168.8,57.9,168.8,57.9z M168.4,58
					C168.4,58,168.4,58,168.4,58C168.4,58,168.3,58,168.4,58C168.3,58,168.3,58,168.4,58C168.4,58,168.4,58,168.4,58z"/>
				<path class="st2" d="M177.5,96.7c-0.3,0.4-0.7,0.7-1,1c-2.5,2.3-5.9,3.7-9.6,3.7c-3.9,0-7.3-1.5-9.9-3.9c0,0,0,0,0,0
					c0,0,0,0,0,0c0,0,0,0,0,0c0,0,0,0,0,0c0,0,0,0,0,0c0,0,0,0,0,0c0,0,0,0,0,0c0,0,0,0,0,0c0,0,0,0,0,0c0,0,0,0,0,0c0,0,0,0,0,0
					c0,0,0,0,0,0c0,0,0,0,0,0c0,0,0,0,0,0c0,0,0,0,0,0c0,0,0,0,0,0c0,0,0,0,0,0c0,0,0,0,0,0c0,0,0,0,0,0c0,0,0,0,0,0c0,0,0,0,0,0
					c0,0,0,0,0,0c0,0,0,0,0,0c0,0,0,0,0,0c0,0,0,0,0,0c0,0,0,0,0,0c0,0,0,0,0,0c0,0,0,0,0,0c0,0,0,0,0,0c0,0,0,0,0,0c0,0,0,0,0,0
					c0,0,0,0,0,0c0,0,0,0,0,0c0,0,0,0,0,0c0,0,0,0,0,0c0,0,0,0,0,0c0,0,0,0,0,0c0,0,0,0,0,0c0,0,0,0,0,0c0,0,0,0,0,0c0,0,0,0,0,0
					c0,0,0,0,0,0c0,0,0,0,0,0c0,0,0,0,0,0c0,0,0,0,0,0c0,0,0,0,0,0c0,0,0,0,0,0c0,0,0,0,0,0c0,0,0,0,0,0c0,0,0,0,0,0c0,0,0,0,0,0
					c0,0,0,0,0,0c0,0,0,0,0,0c0,0,0,0,0,0c0,0,0,0,0,0c0,0,0,0,0,0c0,0,0,0,0,0c0,0,0,0,0,0c0,0,0,0,0,0c0,0,0,0,0,0c0,0,0,0,0,0
					c0,0,0,0,0,0c0,0,0,0,0,0c0,0,0,0,0,0c0,0,0,0,0,0c0,0,0,0,0,0c0,0,0,0,0,0c0,0,0,0,0,0c0,0,0,0,0,0c0,0,0,0,0,0c0,0,0,0,0,0
					c0,0,0,0,0,0c0,0,0,0,0,0c0,0,0,0,0,0c0,0,0,0,0,0c0,0,0,0,0,0c0,0,0,0,0,0c0,0,0,0,0,0c0,0,0,0,0,0c0,0,0,0,0,0c0,0,0,0,0,0
					c0,0,0,0,0,0c0,0,0,0,0,0c0,0,0,0,0,0c0,0,0,0,0,0c0,0,0,0,0,0c0,0,0,0,0,0s0,0,0,0c0,0,0,0,0,0c0,0,0,0,0,0c0,0,0,0,0,0
					c0,0,0,0,0,0c0,0,0,0,0,0c0,0,0,0,0,0c0,0,0,0,0,0c0,0,0,0,0,0c0,0,0,0,0,0c0,0,0,0,0,0c0,0,0,0,0,0c0,0,0,0,0,0c0,0,0,0,0,0
					c0,0,0,0,0,0c2.5,2.5,6,4,9.9,4c0.2,0,0.5,0,0.7,0c0,0,0,0,0,0c0.1,0,0.2,0,0.2,0c0.1,0,0.3,0,0.4,0c-0.1,0-0.3,0-0.4,0
					c0.2,0,0.3,0,0.5,0c0,0,0,0,0,0c0.1,0,0.2,0,0.3,0c0.1,0,0.2,0,0.3,0c-0.1,0-0.2,0-0.3,0c0.1,0,0.3,0,0.4-0.1c0,0,0,0,0,0
					c0.1,0,0.2,0,0.2,0c0.1,0,0.2,0,0.3,0c-0.1,0-0.2,0-0.2,0c0.1,0,0.3,0,0.4-0.1c0,0,0,0,0.1,0c0.1,0,0.2,0,0.2-0.1
					c0.1,0,0.1,0,0.2,0c-0.1,0-0.1,0-0.2,0c0.1,0,0.3-0.1,0.4-0.1c0,0,0,0,0.1,0c0.1,0,0.1,0,0.2-0.1c0.1,0,0.1,0,0.2,0
					c0,0-0.1,0-0.1,0c0.1,0,0.3-0.1,0.4-0.1c0,0,0,0,0.1,0c0.1,0,0.1,0,0.2-0.1c0,0,0.1,0,0.1,0c0,0,0,0-0.1,0
					c0.2-0.1,0.3-0.1,0.5-0.2c0,0,0,0,0,0c0,0,0.1,0,0.1,0c0,0,0,0,0,0c0,0,0,0,0,0c0,0,0,0,0,0c0.2-0.1,0.4-0.1,0.5-0.2
					c0,0-0.1,0-0.1,0.1c0.1,0,0.1,0,0.2-0.1c0,0,0,0,0.1,0c0,0,0.1,0,0.1-0.1c0.1-0.1,0.3-0.1,0.4-0.2c0.1,0,0.2-0.1,0.2-0.1
					c0.1-0.1,0.2-0.1,0.4-0.2c0.1,0,0.2-0.1,0.3-0.1c0.1-0.1,0.2-0.1,0.3-0.2c0.1-0.1,0.2-0.1,0.2-0.2c0.1-0.1,0.2-0.2,0.3-0.2
					c0.1-0.1,0.2-0.1,0.2-0.2c0.1-0.1,0.2-0.2,0.3-0.3c0.1-0.1,0.1-0.1,0.2-0.2c0.2-0.1,0.3-0.3,0.5-0.4c0,0,0,0,0.1,0l0,0
					c0.2-0.2,0.4-0.3,0.5-0.5c0,0,0,0,0,0c0.2-0.2,0.3-0.3,0.5-0.5c0,0,0,0,0,0l0,0L177.5,96.7z"/>
				<polygon class="st2" points="125,93.3 128.5,96.7 134.6,96.7 134.6,96.7 134,93.3 				"/>
				<polygon class="st2" points="114.4,101.4 114.4,101.4 114.5,101.4 114.5,101.4 114.6,101.5 114.6,101.5 114.6,101.6 
					114.6,101.6 114.7,101.6 114.7,101.7 114.7,101.7 114.7,101.7 114.7,101.7 114.8,101.7 114.8,101.8 114.8,101.8 114.8,101.8 
					114.8,101.8 114.9,101.8 114.9,101.8 114.9,101.9 114.9,101.9 114.9,101.9 114.9,101.9 115,101.9 115,101.9 115,102 115,102 
					115,102 115,102 115.1,102 115.1,102 115.1,102.1 115.1,102.1 115.1,102.1 115.1,102.1 115.2,102.2 115.2,102.2 115.3,102.2 
					115.3,102.2 115.3,102.2 115.4,102.3 115.4,102.3 115.4,102.3 115.4,102.4 115.4,102.4 115.5,102.5 115.6,102.5 115.6,102.5 
					115.6,102.6 115.7,102.6 115.7,102.6 115.8,102.7 115.8,102.7 115.8,102.8 115.8,102.8 115.9,102.8 115.9,102.8 115.9,102.8 
					115.9,102.8 115.9,102.9 116,102.9 116,102.9 116,102.9 116,102.9 116.1,103 116.1,103 116.1,103 116.2,103.1 116.2,103.1 
					116.2,103.1 116.3,103.2 116.3,103.2 116.3,103.2 116.3,103.2 116.4,103.3 116.4,103.3 116.4,103.3 116.4,103.3 116.5,103.4 
					116.5,103.4 116.8,103.7 116.8,103.7 116.9,103.8 116.9,103.8 117,103.8 117,103.8 117,103.9 117,103.9 117,103.9 117,103.9 
					117.1,103.9 117.1,103.9 117.1,104 117.1,104 117.1,104 117.1,104 117.2,104 117.2,104 117.4,104.2 117.4,104.2 117.4,104.3 
					117.4,104.3 117.4,104.3 117.9,104.7 119.2,104.7 126.3,104.7 127.3,104.7 123.8,101.4 				"/>
				<polygon class="st2" points="135.3,101.4 135.3,101.4 135.5,101.5 135.6,101.7 135.6,101.7 135.7,101.7 135.7,101.7 
					135.7,101.8 135.7,101.8 135.8,101.9 135.8,101.9 135.9,101.9 135.9,101.9 135.9,102 135.9,102 135.9,102 135.9,102 136,102 
					136,102 136.7,102.8 136.7,102.8 136.8,102.9 136.9,102.9 136.9,102.9 137,103 137,103 137.2,103.2 137.2,103.2 137.2,103.2 
					137.2,103.2 137.2,103.2 137.4,103.4 137.4,103.4 137.9,103.8 137.9,103.8 137.9,103.9 137.9,103.9 137.9,103.9 138,103.9 
					138,103.9 138,104 138,104 138,104 138.1,104 138.1,104 138.3,104.3 138.3,104.3 138.7,104.6 138.7,104.6 138.7,104.7 
					138.7,104.7 138.8,104.7 139.8,104.7 146.8,104.7 148.2,104.7 144.7,101.4 				"/>
				<polygon class="st2" points="131.5,77.3 129.5,64.4 126.4,84.3 130.4,84.3 				"/>
				<polygon class="st2" points="205.4,101.4 198.4,101.4 197.3,101.4 197.2,101.4 197.3,101.4 197.3,101.4 197.4,101.5 
					197.4,101.5 197.4,101.5 197.4,101.5 197.4,101.6 197.4,101.6 197.5,101.6 197.5,101.6 197.5,101.6 197.5,101.6 197.6,101.7 
					197.6,101.7 197.6,101.7 197.6,101.7 197.6,101.7 197.6,101.7 197.6,101.7 197.7,101.8 197.7,101.8 197.7,101.8 197.7,101.8 
					197.7,101.8 197.8,101.9 197.8,101.9 197.8,101.9 197.8,101.9 197.9,102 197.9,102 197.9,102 197.9,102 197.9,102 197.9,102 
					198,102.1 198,102.1 198,102.1 198,102.1 198,102.1 198,102.1 198.1,102.2 198.1,102.2 198.1,102.2 198.1,102.2 198.1,102.2 
					198.2,102.3 198.2,102.3 198.2,102.3 198.2,102.3 198.2,102.3 198.3,102.4 198.3,102.4 198.3,102.4 198.3,102.4 198.3,102.4 
					198.4,102.5 198.4,102.5 198.5,102.5 198.5,102.5 198.5,102.6 198.5,102.6 198.5,102.6 198.6,102.6 198.6,102.6 198.6,102.7 
					198.6,102.7 198.6,102.7 198.6,102.7 198.7,102.7 198.7,102.7 198.7,102.8 198.7,102.8 198.8,102.8 198.8,102.8 198.8,102.9 
					198.8,102.9 198.8,102.9 198.8,102.9 198.9,102.9 198.9,102.9 198.9,103 198.9,103 198.9,103 198.9,103 199,103 199,103 
					199,103.1 199,103.1 199,103.1 199,103.1 199.1,103.1 199.1,103.1 199.1,103.2 199.1,103.2 199.1,103.2 199.1,103.2 
					199.2,103.2 199.2,103.2 199.2,103.3 199.2,103.3 199.3,103.3 199.3,103.3 199.3,103.3 199.3,103.3 199.3,103.4 199.3,103.4 
					199.4,103.4 199.4,103.4 199.4,103.4 199.4,103.4 199.4,103.5 199.4,103.5 199.4,103.5 199.5,103.5 199.5,103.5 199.5,103.5 
					199.5,103.5 199.5,103.6 199.5,103.6 199.6,103.6 199.6,103.6 199.6,103.6 199.6,103.6 199.6,103.7 199.6,103.7 199.7,103.7 
					199.7,103.7 199.7,103.7 199.7,103.7 199.7,103.8 199.7,103.8 199.8,103.8 199.8,103.8 199.8,103.8 199.8,103.8 199.8,103.9 
					199.8,103.9 199.9,103.9 199.9,103.9 199.9,103.9 199.9,103.9 199.9,104 199.9,104 200,104 200,104 200,104 200,104 200,104.1 
					200,104.1 200.1,104.1 200.1,104.1 200.1,104.1 200.1,104.1 200.2,104.2 200.2,104.2 200.2,104.2 200.2,104.2 200.2,104.2 
					200.2,104.2 200.3,104.3 200.3,104.3 200.3,104.3 200.3,104.3 200.3,104.3 200.3,104.3 200.4,104.4 200.4,104.4 200.4,104.4 
					200.4,104.4 200.4,104.4 200.4,104.4 200.5,104.5 200.5,104.5 200.5,104.5 200.5,104.5 200.5,104.5 200.5,104.5 200.6,104.6 
					200.6,104.6 200.6,104.6 200.6,104.6 200.6,104.6 200.6,104.6 200.7,104.7 200.7,104.7 200.7,104.7 200.7,104.7 200.7,104.7 
					201.9,104.7 208.9,104.7 210.1,104.7 206.6,101.4 				"/>
				<polygon class="st2" points="215.9,54.2 214.8,54.2 213,54.2 206.6,54.2 206.6,54.2 210.1,57.5 216.5,57.5 218.3,57.5 
					219.4,57.5 				"/>
				<polygon class="st2" points="197.3,57.5 197.3,54.2 197.3,54.2 189.1,54.2 187.9,54.2 187.9,54.2 188.2,54.4 188.2,54.4 
					188.3,54.6 188.3,54.6 188.4,54.6 188.4,54.6 188.4,54.6 188.4,54.6 188.5,54.8 188.5,54.8 188.6,54.8 188.6,54.8 188.7,54.9 
					188.7,54.9 188.7,54.9 188.7,55 188.7,55 188.9,55.1 188.9,55.1 189.4,55.6 189.4,55.6 189.4,55.6 189.4,55.6 189.4,55.6 
					189.5,55.7 189.5,55.7 189.5,55.7 189.5,55.7 189.5,55.7 189.6,55.8 189.6,55.8 189.6,55.8 189.7,55.9 189.7,55.9 189.8,55.9 
					189.8,55.9 189.8,56 189.8,56 189.9,56.1 189.9,56.1 189.9,56.1 190,56.1 190,56.1 190,56.2 190,56.2 190,56.2 190,56.2 
					190.1,56.2 190.1,56.2 190.7,56.8 190.7,56.8 190.7,56.8 190.8,56.9 190.8,56.9 190.8,57 190.9,57 190.9,57 190.9,57 191,57.1 
					191,57.1 191.1,57.2 191.1,57.2 191.3,57.4 191.3,57.4 191.4,57.5 191.4,57.5 191.4,57.5 192.6,57.5 197.3,57.5 				"/>
			</g>
			<g>
				<polygon class="st3" points="61.7,45.2 60.8,45.2 60.5,46 49.4,81.7 38.4,46 38.1,45.2 38.1,45.2 37.3,45.2 30.2,45.2 
					29.1,45.2 29.1,46.3 29.1,100.2 29.1,101.4 29.1,101.4 30.2,101.4 37.2,101.4 38.4,101.4 38.4,100.2 38.4,75.4 44.8,96.1 
					45.1,96.9 45.1,96.9 46,96.9 52.9,96.9 53.8,96.9 54,96.1 60.5,75.4 60.5,100.2 60.5,101.4 60.5,101.4 61.6,101.4 68.6,101.4 
					69.8,101.4 69.8,100.2 69.8,46.3 69.8,45.2 68.7,45.2 				"/>
				<path class="st3" d="M105.8,48.7C105.8,48.7,105.8,48.7,105.8,48.7c-0.3-0.3-0.7-0.6-1-0.8c0,0,0,0,0,0
					c-0.2-0.1-0.4-0.3-0.5-0.4c0,0,0,0,0,0c-0.2-0.1-0.4-0.2-0.6-0.4c0,0,0,0,0,0c-0.2-0.1-0.4-0.2-0.6-0.3c0,0,0,0,0,0
					c-0.2-0.1-0.4-0.2-0.6-0.3c0,0,0,0,0,0c-0.2-0.1-0.4-0.2-0.6-0.3c0,0,0,0,0,0c-0.2-0.1-0.4-0.1-0.6-0.2c0,0,0,0-0.1,0
					c-0.2-0.1-0.4-0.1-0.6-0.2c0,0-0.1,0-0.1,0c-0.2-0.1-0.4-0.1-0.5-0.1c0,0-0.1,0-0.1,0c-0.2,0-0.3-0.1-0.5-0.1
					c-0.1,0-0.1,0-0.2,0c-0.2,0-0.3-0.1-0.5-0.1c-0.1,0-0.1,0-0.2,0c-0.2,0-0.3,0-0.5-0.1c-0.1,0-0.1,0-0.2,0c-0.2,0-0.4,0-0.5,0
					c-0.1,0-0.1,0-0.2,0c-0.2,0-0.5,0-0.7,0H83.5h-1.2l0,1.1l0,53.9l0,1.1h0h1.1h7h1.2l0-1.1l0-19.1h0h4.7c4.2,0,7.9-1.8,10.5-4.5
					c2.2-2.4,3.5-5.5,3.5-8.9l0-9c0-3.7-1.6-7.1-4.1-9.5C106.1,49,105.9,48.9,105.8,48.7z M91.7,66.5l0-12.4v0h4.7
					c2.2,0,4.1,1.5,4.5,3.5c0,0,0,0,0,0c0,0.2,0.1,0.3,0.1,0.5c0,0,0,0,0,0c0,0.2,0,0.3,0,0.5l0,9c0,2.5-2.1,4.5-4.7,4.5h-1.2h-3.5
					L91.7,66.5z"/>
				<polygon class="st3" points="8.3,45.2 7.1,45.2 7.1,46.3 7.1,73.3 7.1,100.2 7.1,101.4 7.2,101.4 8.3,101.4 15.3,101.4 
					16.5,101.4 16.5,100.2 16.5,46.3 16.5,45.2 15.3,45.2 				"/>
				<path class="st3" d="M173,46.5C173,46.5,173,46.5,173,46.5c-0.2-0.1-0.4-0.2-0.6-0.3c0,0,0,0,0,0c-0.2-0.1-0.4-0.2-0.6-0.2
					c0,0,0,0-0.1,0c-0.2-0.1-0.4-0.1-0.6-0.2c0,0,0,0-0.1,0c-0.2-0.1-0.4-0.1-0.5-0.2c0,0-0.1,0-0.1,0c-0.2,0-0.3-0.1-0.5-0.1
					c-0.1,0-0.1,0-0.2,0c-0.2,0-0.3-0.1-0.5-0.1c-0.1,0-0.1,0-0.2,0c-0.2,0-0.3,0-0.5-0.1c-0.1,0-0.1,0-0.2,0c-0.2,0-0.4,0-0.6,0
					c-0.1,0-0.1,0-0.2,0c-0.2,0-0.5,0-0.7,0c-7.7,0-14,6-14,13.5l0,29.2c0,0.7,0.1,1.4,0.2,2.1c0,0,0,0,0,0c0,0.2,0.1,0.4,0.1,0.6
					c0,0,0,0,0,0c0.1,0.4,0.2,0.9,0.3,1.3c0,0,0,0,0,0c0.7,2.1,1.9,4,3.5,5.5c0,0,0,0,0,0c0,0,0,0,0,0c2.5,2.4,6,3.9,9.9,3.9
					c3.7,0,7.1-1.4,9.6-3.7c0.4-0.3,0.7-0.7,1-1c2.1-2.4,3.4-5.4,3.4-8.8l0-4.5l0-1.1h-1.2h-7h-1.2l0,1.1l0,4.5
					c0,2.5-2.1,4.5-4.7,4.5h0c-0.2,0-0.4,0-0.5,0c0,0,0,0,0,0c-2.3-0.3-4.1-2.2-4.1-4.5l0-29.2c0-0.8,0.2-1.6,0.6-2.2
					c0.1-0.2,0.2-0.3,0.3-0.4c0.2-0.2,0.4-0.5,0.6-0.7c0.8-0.7,1.9-1.2,3.1-1.2c2.2,0,4.1,1.5,4.5,3.5c0,0,0,0,0,0
					c0,0.2,0.1,0.3,0.1,0.5c0,0,0,0,0,0c0,0.2,0,0.3,0,0.5l0,1.2l0,3.3l0,1.1h0h1.1h7h1.2l0-1.1l0-4.5c0-3.7-1.6-7.1-4.1-9.5
					C175.8,48.1,174.5,47.2,173,46.5z"/>
				<path class="st3" d="M136.1,46.1l-0.1-0.9l0,0l0,0h-12.7l-0.1,1l-8.4,53.9l-0.2,1.3l0,0h0h9.3l0.1-1l1.1-7.1h9l0.5,3.4l0.2,1.5
					l0.3,2.2l0.1,1h0h9.3h0l-0.2-1.3L136.1,46.1z M130.4,84.3h-4l3.1-20l3.1,20H130.4z"/>
				<polygon class="st3" points="214.8,45.2 189.1,45.2 187.9,45.2 187.9,46.3 187.9,53.1 187.9,54.2 187.9,54.2 189.1,54.2 
					197.3,54.2 197.3,54.2 197.3,54.2 197.3,57.5 197.2,100.2 197.2,101.4 197.3,101.4 198.4,101.4 205.4,101.4 206.6,101.4 
					206.6,100.2 206.6,54.2 206.6,54.2 213,54.2 214.8,54.2 215.9,54.2 215.9,53.1 215.9,46.3 215.9,45.2 215.9,45.2 				"/>
			</g>
		</g>
	</g>
	<path class="st1" d="M222.7,107.7l-111.2,14.5c0,0,0,0,0,0L0.2,107.7c-0.2,0-0.3,0.3-0.1,0.4L111.4,140c0,0,0.1,0,0.1,0l111.3-31.9
		C223,108,222.9,107.7,222.7,107.7z M142.7,125.3c-9.3,2.1-22.7,4.9-32.1,6.9c-20.2-4.4-42.1-9.2-62.1-14.3
		c20.2,3.6,42.2,8.1,62.3,12.3c7.1-1.7,23-4.7,31.6-6.4c9.4-1.8,22.8-4.4,32.1-5.9C165.4,120.2,152,123.2,142.7,125.3z"/>
	<g>
		<path class="st4" d="M46.6,28.6H44V18.1c0-1.6-0.2-2.9-0.2-3.9c-0.1-2.3-1.9-4.2-4.7-4.2c-1.8,0-3.7,0.9-4.8,2.4
			c-1.5,1.9-1.8,4.4-1.8,7.5v8.8h-2.6V8h2.6v3.5c1.8-2.6,4.1-4.1,7.1-4.1c3.2,0,5.4,1.6,6.5,5c1.8-3.3,4.6-5,7.6-5c4.3,0,7,3.1,7,9
			v12.3h-2.6V17.4c0-1.5-0.2-2.7-0.2-3.5C57.8,12,56,10,53.2,10c-2.6,0-4.8,1.6-5.9,4.2c-0.7,1.7-0.7,3.5-0.7,5.4V28.6z"/>
		<path class="st4" d="M84.4,8H87v20.7h-2.6v-3.5c-2.3,2.7-5.1,4-8.3,4c-6,0-10.6-5-10.6-10.9c0-5.9,4.7-10.8,10.7-10.8
			c3.3,0,6.2,1.4,8.3,4.3V8z M68.2,18.3c0,4.5,3.5,8.4,8.1,8.4c4.2,0,8.3-3.2,8.3-8.3c0-4.8-3.6-8.4-8.2-8.4
			C71.6,10,68.2,13.9,68.2,18.3z"/>
		<path class="st4" d="M93,0h2.6v16.3l9.5-8.3h3.9l-11.3,9.8l12,10.8H106l-10.4-9.3v9.3H93V0z"/>
		<path class="st4" d="M114.3,18.5c0.1,4.7,3.3,8.2,7.8,8.2c4.3,0,6.4-2.5,7.9-4.9l2.2,1.2c-2.1,4.1-5.3,6.2-9.8,6.2
			c-6.8,0-10.8-5.3-10.8-10.8c0-5.6,4.2-10.9,10.6-10.9c5.9,0,10.6,4.2,10.7,11.1H114.3z M130,16.2c-1.1-4.3-4.2-6.2-7.7-6.2
			c-3.7,0-6.5,2-7.7,6.2H130z"/>
		<path class="st4" d="M166.6,8h2.6v20.7h-2.6v-3.5c-2.3,2.7-5.1,4-8.3,4c-6,0-10.6-5-10.6-10.9c0-5.9,4.7-10.8,10.7-10.8
			c3.3,0,6.2,1.4,8.3,4.3V8z M150.4,18.3c0,4.5,3.5,8.4,8.1,8.4c4.2,0,8.2-3.2,8.2-8.3c0-4.8-3.6-8.4-8.2-8.4
			C153.8,10,150.4,13.9,150.4,18.3z"/>
		<path class="st4" d="M177.8,11.7c2.1-2.8,4.7-4.2,7.7-4.2c4.5,0,7.7,3.1,7.7,9.6v11.6h-2.6V17.4c0-4.9-1.5-7.5-5.5-7.5
			c-2.2,0-4,1-5.4,2.8c-1.6,2-1.8,4-1.8,7.3v8.7h-2.6V8h2.6V11.7z"/>
	</g>
</g>
</svg>
