<?xml version="1.0" encoding="UTF-8"?><svg id="Layer_1" xmlns="http://www.w3.org/2000/svg" viewBox="0 0 238.59 119.44"><defs><style>.cls-1{fill:#ee7623;}.cls-2{fill:#8c9091;}.cls-3{fill:#afbd37;}.cls-4{fill:#87d1e6;}</style></defs><path class="cls-2" d="M32.27,88.82c.05,.34,.1,.63,.05,.92,0,.29-.1,.58-.19,.92-.1,.34-.19,.68-.24,1.02s-.19,.63-.44,.92-.44,.58-.63,.87c-.19,.29-.44,.58-.77,.82-.29,.19-.63,.44-.92,.63s-.63,.39-.97,.53c-.1,.05-.24,.1-.39,.15-.15,.05-.29,.1-.39,.19-.1,.1-.24,.15-.39,.15s-.29,0-.44,.05-.34,.15-.48,.15c-.15,.05-.34,.1-.48,.15-.1,0-.19,.05-.24,.05s-.1,.05-.05,.19c0,.1,.05,.19,.1,.24s.1,.15,.15,.19c.15,.24,.34,.53,.44,.82,.15,.29,.24,.58,.29,.87,0,.05,.05,.19,.1,.44,.05,.19,.1,.44,.15,.68,.05,.24,.05,.44,.05,.63s0,.29-.1,.34c-.05,.05-.1,0-.1,0,0-.05-.05-.05-.1,0,0,.05,.05,.1,.05,.1,0,0,.05-.05,.1-.05s.05,.05,.05,.15v.29c0,.24,0,.53-.05,.77s-.05,.53-.15,.77c-.05,.39-.19,.77-.44,1.16-.1,.15-.19,.34-.24,.48s-.15,.34-.24,.48c-.1,.19-.24,.39-.39,.53-.15,.15-.29,.34-.44,.48l-.44,.44c-.15,.15-.34,.29-.48,.34-.1,.05-.19,.1-.24,.19-.05,.05-.1,.15-.19,.19-.1,.1-.24,.15-.39,.19s-.29,.1-.39,.15c-.05,0-.15,.05-.29,.15-.1,.05-.19,.15-.34,.19-.1,.05-.19,.1-.34,.15-.1,.05-.19,0-.29-.05,0,.1-.05,.19-.19,.19s-.24,0-.29,.05c-.15,0-.29,.1-.39,.15-.1,.1-.24,.15-.34,.19-.1,0-.24,.05-.34,.05s-.19,0-.34,.05c-.1,0-.19,.05-.29,.05s-.19,.05-.29,.05h-.44c-.15,0-.29,0-.48,.05-.1,0-.24,.05-.39,.1s-.24,.1-.39,.15c-.1,0-.24,0-.34-.05s-.24-.05-.34,0c-.15,.05-.29,.05-.44,.05h-.44c-.53,0-1.06-.05-1.6-.05s-1.06-.1-1.55-.24c-.1-.05-.24-.05-.39-.05h-.39c-.1,0-.24-.05-.34-.1s-.24-.1-.34-.1c-.19,0-.44-.05-.77-.15-.29-.1-.58-.19-.77-.29-.19-.05-.39-.1-.53-.19-.15-.05-.34-.15-.53-.19-.1-.05-.24-.1-.34-.15-.1-.05-.19-.1-.34-.15-.1-.05-.19-.1-.29-.1s-.19-.05-.29-.1l-.19-.19-.19-.19c-.1-.05-.19-.1-.24-.1s-.15-.05-.24-.15c-.1-.05-.19-.15-.29-.19-.1-.05-.15-.15-.24-.29-.05-.05-.15-.15-.24-.19s-.19-.1-.24-.19c-.05-.1-.15-.15-.24-.19s-.15-.15-.19-.24c-.05-.1-.1-.24-.19-.29-.1-.1-.15-.19-.24-.29-.15-.19-.29-.44-.44-.68-.1-.24-.24-.53-.34-.77-.05-.1-.05-.24-.05-.34s0-.24-.05-.34c0-.15,0-.29-.05-.39-.05-.1-.1-.24-.1-.34-.05-.15-.05-.34-.05-.48s.05-.29,.05-.48v-.34s.1-.1,.29-.05c0-.1,0-.15-.1-.1-.1,.05-.15,.05-.19,0-.05-.15-.05-.34,.05-.48,.05-.15,.1-.34,.15-.48,.1-.73,.39-1.35,.77-1.98,.05-.1,.15-.24,.29-.34,.1-.1,.19-.24,.24-.39s.15-.29,.34-.44c.15-.15,.29-.24,.44-.39,.24-.24,.53-.48,.77-.68s.53-.39,.82-.58c.24-.15,.53-.34,.87-.48,.29-.15,.63-.24,.92-.34,.15-.05,.29-.1,.44-.19,.15-.05,.29-.15,.44-.19,.19-.05,.34-.05,.44-.05s.19-.05,.24-.1,.15-.1,.24-.1c.15,0,.29-.05,.44-.05s.24-.1,.34-.19c-.05-.1-.15-.15-.29-.19-.15-.05-.24-.1-.34-.15-.1-.1-.24-.15-.34-.19s-.24-.1-.39-.15c-.15-.05-.34-.15-.44-.24l-.44-.29c-.1-.1-.24-.19-.39-.24s-.24-.15-.39-.24c-.1-.1-.19-.19-.24-.29s-.15-.19-.24-.29c-.24-.19-.44-.48-.58-.77s-.24-.58-.29-.92c-.05-.34-.1-.68-.05-1.02,0-.19,0-.34,.05-.48s.05-.29,.05-.48c0-.24,.1-.53,.29-.77,.19-.24,.34-.53,.44-.77,.1-.29,.34-.58,.63-.82,.29-.29,.58-.48,.82-.58,.1-.05,.24-.15,.34-.24s.24-.19,.34-.24c.15-.1,.29-.15,.44-.19,.15,0,.29-.1,.44-.19,.15-.1,.29-.19,.44-.15,.15,0,.29,0,.44-.05s.29-.1,.39-.15c.1-.05,.24-.1,.34-.15,.15-.05,.34-.1,.48-.1s.29-.05,.44-.05c.19,0,.39-.05,.58-.1,.19-.05,.39-.05,.58,0,.15,0,.29,0,.39-.05,.1-.05,.24-.1,.39-.05s.29,.05,.44,0c.1-.05,.24-.05,.39-.1,.15,0,.29,0,.44,.05s.29,.05,.44,.1c.19,.05,.39,.1,.58,.1s.39,.05,.58,.1c.15,0,.29,.05,.39,.15,.1,.05,.24,.15,.34,.24s.24,.19,.44,.24c.15,.05,.29,.15,.44,.24,.1,.05,.24,.19,.29,.29,.1,.15,.19,.24,.29,.29v.15s0,.1,.05,.1h.15s.1,.05,.15,.15c.05,.1,.15,.24,.15,.39,.05,.15,.1,.24,.15,.39,.15,.24,.24,.53,.29,.87,.05,.68,0,1.4-.24,2.18-.19,.63-.63,1.16-1.16,1.45-.58,.34-1.16,.53-1.79,.63-.34,.05-.68,.05-1.02,0l-1.02-.15c-.34-.1-.68-.19-.92-.34-.24-.15-.53-.34-.77-.63-.15-.15-.34-.39-.48-.68s-.19-.53-.15-.82,.05-.58,.05-.92c0-.29,.15-.58,.39-.77,.1-.1,.19-.19,.29-.34,.05-.15,.15-.24,.29-.34l.29-.15c.1-.05,.24-.1,.34-.15,.24-.15,.53-.19,.77-.19,.19,.05,.39,.05,.53,.05s.34,.05,.48,.15c.1,.05,.19,.1,.34,.19l.29,.29c.05,.1,.1,.19,.1,.29s-.1,.15-.29,.19c-.29,.05-.53,.15-.73,.29-.19,.15-.34,.39-.39,.68-.05,.34,0,.73,.15,1.11s.39,.68,.73,.82c.39,.15,.87,.19,1.35,.15s.92-.29,1.16-.63c.1-.1,.19-.24,.24-.34s.15-.19,.19-.34c.05-.1,.1-.24,.1-.44v-.44c.05-.63-.05-1.21-.29-1.74-.24-.44-.53-.82-.82-1.11-.1-.05-.19-.15-.24-.19s-.15-.1-.24-.15c-.1-.05-.24-.1-.34-.15-.1-.05-.15-.1-.1-.24t-.05,.05s-.05,.1-.1,.05c-.05,0-.1-.05-.15-.05-.1-.05-.24-.1-.39-.1s-.29-.05-.44-.05c-.29-.05-.63-.1-.92-.1s-.58,0-.92,.1c-.53,.1-1.02,.34-1.45,.63-.44,.29-.73,.73-.92,1.26l-.29,.73c-.1,.19-.15,.48-.19,.77v.39c0,.15,0,.29-.05,.44,0,.05-.05,.1-.15,.15-.1,0-.1,.1,0,.19,.05,.05,.1,.15,.05,.34-.05,.15-.05,.29-.05,.34,0,.29,.05,.58,.1,.87,0,.1,.05,.24,.05,.39s.05,.29,.05,.44c.05,.19,.1,.34,.1,.48t-.1,.05h-.1s.1,.05,.15,.05,.1,0,.15,.05c0,.15,.05,.29,.15,.44,.05,.1,.15,.24,.24,.34s.15,.24,.24,.34c.15,.19,.34,.39,.63,.48,.24,.1,.53,.19,.77,.24,.15,.05,.29,.1,.39,.1s.19,.15,.19,.34c0,.15,0,.24-.1,.29l-.29,.15c-.1,.05-.24,.05-.39,0h-.39c-.15,.05-.34,.1-.48,.15-.15,.1-.29,.15-.44,.24-.1,.05-.24,.15-.34,.15l-.29,.15c-.1,.1-.24,.24-.34,.29-.1,.1-.19,.19-.29,.34-.05,.1-.15,.24-.29,.29-.1,.1-.19,.19-.19,.29s-.05,.19-.19,.24l-.19,.63c-.1,.29-.24,.63-.29,.92-.1,.29-.15,.63-.24,.97-.05,.1-.05,.24-.1,.34s-.05,.24-.05,.39v.48c0,.19,0,.34-.05,.48s-.1,.29-.05,.44,.05,.29,.05,.44c-.05,.29-.05,.63,0,.92,0,.34,.05,.63,.15,.97,.05,.29,.1,.63,.15,.92,.05,.15,.1,.29,.15,.39,.05,.1,.1,.24,.15,.34,.05,.15,.1,.34,.15,.48,.05,.15,.1,.29,.19,.44,.15,.24,.39,.53,.63,.77l.15,.15,.15,.15c.05,.1,.15,.19,.15,.24,.05,.05,.1,.1,.24,.15,.1,.05,.19,.15,.24,.29h.19s.05,.05,.15,.05c.1,.1,.24,.19,.39,.24l.44,.15c.1,.05,.24,.1,.39,.19,.15,.05,.29,.1,.39,.15,.19,.05,.39,.05,.53,.05s.34,.05,.48,.1c.34-.05,.68-.05,1.06,0,.39,.05,.73,.05,1.06-.1,.34-.1,.68-.19,1.06-.19s.77-.1,1.11-.19c.53-.15,1.11-.39,1.69-.73,.29-.15,.58-.34,.82-.53s.53-.39,.77-.63c.19-.15,.34-.34,.48-.53l.44-.58c.19-.24,.34-.48,.44-.77,.1-.24,.19-.53,.29-.77s.19-.53,.19-.82,.05-.58,.1-.82c.05-.15,.05-.29,0-.39-.05-.1-.05-.24-.05-.39-.05-.15-.05-.29-.05-.44,0-.1-.05-.24-.1-.39l-.15-.44c-.05-.15-.1-.24-.15-.39-.05-.1-.1-.24-.19-.39-.1-.15-.1-.29-.05-.44-.05,0-.19-.1-.34-.19-.15-.1-.19-.19-.15-.29,0-.05,.05-.1,.05-.1,0,0,0-.05-.05-.1-.05,0-.1,0-.1,.05s0,.1-.05,.1c-.1-.1-.24-.19-.39-.29s-.24-.19-.39-.24c-.19-.1-.34-.15-.48-.19-.05,0-.1-.1-.1-.19-.05,.05-.15,.05-.24,.05-.05,0-.19-.1-.34-.19-.1-.05-.19-.05-.24-.05h-.24l-.58-.15c-.19-.05-.39-.1-.58-.1-.24,0-.44,0-.53-.05-.1,0-.19,0-.34-.05-.05,0-.15,.05-.29,.1-.19,.05-.39,.05-.53,.05s-.34,0-.53,.05c-.05,0-.15,.05-.19,.1l-.15,.15c-.1,.05-.19,.05-.29,.05s-.19,0-.29,.05c-.15,.1-.29,.19-.44,.24s-.29,.15-.39,.29c-.1,.1-.24,.24-.44,.34-.15,.1-.24,.19-.29,.34-.05,.19-.15,.34-.29,.44-.1,.1-.19,.24-.24,.44-.05,.15-.1,.34-.19,.48-.1,.15-.15,.34-.15,.53s-.05,.39-.05,.53v.48c0,.24,.05,.58,.19,.92,.15,.34,.29,.68,.48,.97s.44,.53,.68,.77c.29,.19,.58,.29,.82,.29,0-.1,0-.24-.1-.29-.1-.1-.15-.15-.19-.24-.05-.15-.1-.24-.1-.29v-.15s-.1,0-.15-.1c-.05-.39-.15-.77-.19-1.11-.05-.34-.05-.68,.1-1.11,.05-.24,.19-.58,.34-.87,.15-.34,.34-.58,.58-.68,.1-.05,.19-.15,.29-.24,.05-.1,.15-.19,.29-.24,.1-.1,.29-.15,.44-.19s.34-.1,.48-.15c.29-.1,.58-.15,.92-.15s.68,.1,.97,.19c.15,.05,.29,.1,.39,.19,.1,.1,.24,.15,.39,.24s.29,.24,.44,.39c.1,.15,.24,.29,.34,.44,.05,.05,.15,.19,.29,.34,.15,.15,.15,.29,.1,.39-.1,.15-.15,.19-.05,.15,.1-.05,.15-.05,.19,0,.1,.34,.19,.68,.15,.97,0,.29-.05,.63-.1,.97-.05,.05-.05,.15,0,.15,0,.05,0,.1-.05,.15-.05,.05-.05,.1-.05,.15v.15c-.1,.1-.15,.24-.19,.34s-.1,.24-.19,.34c-.05,.1-.15,.19-.19,.34-.05,.1-.15,.19-.24,.29-.15,.1-.29,.24-.44,.34s-.34,.24-.48,.34c-.24,.15-.48,.24-.77,.29-.05,.05-.1,.05-.19,.05h-.19s-.05-.05-.05-.05v-.05s-.1-.05-.1-.05v.1c.05,.1,.05,.15-.05,.15h-.19c-.19,0-.44,.05-.68,.05s-.44,0-.68-.05c-.15,0-.34-.05-.48-.15-.15-.05-.29-.15-.44-.19-.34-.05-.68-.15-.92-.24s-.53-.29-.77-.53l-.68-.68c-.19-.24-.34-.48-.44-.73-.1-.24-.24-.48-.34-.77-.1-.34-.19-.73-.19-1.06s-.05-.68-.05-1.06c-.05-.34-.05-.63,0-.92s.1-.58,.19-.92c-.05-.34,0-.63,.1-.92s.24-.58,.34-.82c.1-.34,.29-.68,.44-1.02,.19-.29,.39-.63,.58-.92,.19-.24,.44-.53,.68-.77s.48-.44,.73-.63c.19-.19,.48-.39,.77-.58,.29-.19,.58-.29,.87-.39,.15-.05,.29-.1,.44-.19,.1-.1,.24-.15,.39-.19,.19-.05,.39-.1,.58-.1s.39-.05,.58-.1c.39-.05,.77-.1,1.11-.1h1.11s.19,0,.44-.05c.19,0,.39-.05,.63-.05,.19,0,.39,0,.53,.05,.15,.05,.24,.1,.29,.19,.05,0,.05-.05,.05-.15,0-.05,.1-.05,.19-.05s.19,.05,.24,.05c.15,0,.34,.05,.48,.05h.53c.19,0,.39,0,.53-.05,.15,0,.34-.05,.48-.05h.48c.15,0,.34,0,.48-.05,.1-.05,.24-.05,.39-.05s.29,0,.44-.05c.1-.05,.24-.1,.39-.15,.15-.05,.24-.15,.39-.19,.24-.15,.48-.34,.63-.58s.24-.48,.34-.77,.15-.58,.19-.92c.05-.34,0-.68-.1-.97-.05-.15-.05-.29-.05-.44s-.05-.24-.15-.39c-.1-.15-.15-.29-.19-.44s-.1-.29-.24-.39c-.1-.1-.24-.24-.29-.34l-.34-.34c-.15-.1-.29-.19-.44-.34-.15-.1-.29-.19-.44-.24s-.34-.1-.48-.1-.34-.05-.48-.05c-.1,0-.29,0-.53-.05s-.39,0-.48,.1c.19,.19,.44,.39,.68,.48s.48,.29,.68,.48,.34,.44,.48,.68c.1,.29,.19,.53,.24,.82s.1,.58,.1,.92-.05,.63-.19,.92c-.1,.24-.24,.53-.44,.82-.15,.29-.39,.48-.63,.68s-.53,.34-.77,.44c-.24,.1-.58,.19-.92,.19s-.68-.05-.97-.1c-.34-.05-.63-.19-.87-.39-.48-.34-.87-.77-1.11-1.26s-.34-1.06-.34-1.64c0-.63,.19-1.21,.44-1.74,.29-.53,.63-1.02,1.06-1.4,.53-.48,1.11-.77,1.84-.92,.68-.1,1.35-.1,2.03,0,.29,.05,.63,.1,.92,.19,.29,.1,.58,.24,.87,.44l.44,.29c.15,.1,.29,.19,.39,.29,.05,.05,.1,.15,.1,.19s.05,.15,.1,.19c.05,.1,.1,.19,.19,.29,.1,.05,.15,.15,.19,.24s.15,.24,.19,.39,.1,.24,.19,.39c.05,.1,.1,.24,.15,.39,0,.15,.05,.29,.1,.39,.05,.15,.1,.34,.15,.48,0,.15,.05,.34,.05,.53,0,.05,.05,.15,.05,.19s.05,.15,.05,.24,0,.24-.05,.34c.24,.15,.29,.24,.34,.34Zm-27.19,12.82s.05,.05,.15,.05c.05,0,.1-.05,.05-.1-.05-.05-.15-.05-.24-.05s-.19,.1-.19,.19c.1,.05,.15,.05,.15,0-.05-.05,0-.05,.1-.1Zm-.19-4.26h.05s0-.05-.05,0h0Zm.19,7.11s0-.1-.05-.1-.1,.05-.1,.1h.15Zm.05-1.84s-.1,0-.15,.05l.15,.05s.05-.05,0-.1Zm-.05-.53s.05-.05,.1-.05,.05,0,.05-.05t-.15,0s-.05,.05,0,.1Zm.15-1.06s-.05,.15,0,.19,.1,.1,.19,.1v-.19c-.05-.1-.1-.1-.19-.1Zm.05-3.53c-.05,.1-.05,.15,.05,.15,0-.1,0-.15-.05-.15Zm.58,3.82s-.1,.1-.19,.1c-.05,0-.1,.05-.15,.15h-.19c.1,.1,.24,.19,.39,.19,0,0,.05-.1,.15-.19,.1-.15,.1-.19,0-.24Zm-.24,2.52c.1-.1,.15-.15,.05-.15s-.15,0-.15-.05c-.05,.1-.1,.15-.19,.1,0,.1,.05,.15,.15,.15s.1,0,.15-.05Zm-.05-3.39s-.05,.1,0,.1c.05,.05,.1,0,.1-.05t-.05-.05s0-.05-.05,0Zm.48,2.56c.15-.05,.24-.15,.19-.29-.05-.15-.15-.19-.29-.15,0,.05,0,.1,.05,.15,.05,.05,.05,.1,0,.15-.05-.1-.15-.15-.29-.1-.1,.05-.15,.15-.15,.24,.05,0,.1,0,.1-.05s.05-.05,.1-.05c.05,.1,.15,.15,.29,.1Zm-.34-4.35s0-.15-.05-.15c-.05-.05-.1,0-.1,.05t.05,.05s.05,.05,.1,.05Zm-.1,3.48s0-.1,.05-.1,0-.05-.15-.05q.05,.1,.1,.15Zm.24,.24c0-.1,.1-.15,.19-.15s.19,.05,.24,.05c.05,.05,.1,.05,.15,0,0,0,0-.1-.1-.29,.1,0,.15-.05,.1-.1s-.05-.1-.15-.1c-.05,0-.1,.1-.15,.15-.05,.1-.05,.15,0,.19-.1-.1-.19-.15-.29-.05-.05,.1-.1,.19-.15,.34-.05,.15-.05,.19,0,.1,.1-.05,.1-.1,.15-.15Zm-.05-1.6s-.05-.1-.1-.1v.1h.1Zm.29,3.58c0-.15-.05-.19-.19-.19,.05,.1,.15,.19,.19,.19Zm.05-4.74c-.1,0-.19,0-.19,.1s.05,.15,.1,.19c.15-.1,.15-.19,.1-.29Zm-.15-2.03s0,.1,0,.15t.1,0s-.05,0-.05-.05c0-.05,0-.1-.05-.1Zm0,4.16s.1,0,.05-.05t-.05,.05Zm.05,1.79c.05-.19,.05-.24,0-.19-.05,.1-.05,.15,0,.19Zm0-4.31s0,.1,.1,.15c.1,0,.1-.05,.05-.15h-.15Zm.15-.63s-.05-.05-.05-.1v.1h.05s-.05,0,0,0Zm.15,2.81s.05-.1-.05-.19c-.1-.1-.15-.05-.15,.05,.05,0,.1,.05,.1,.1,0,.05,.05,.05,.1,.05Zm.05,3.39s-.05-.1-.15-.15c0,.1,.05,.15,.15,.15Zm.05-7.06v.19c.1,0,.15-.05,.1-.15t-.1-.05Zm0,5.47c0,.1,.05,.15,.15,.1,.05-.05,.15-.05,.19-.05-.05-.15-.05-.19-.1-.1-.05,.1-.15,.1-.24,.05Zm.05-4.89s0-.05,0,0t.05-.05s-.1,0-.1,.05h.05Zm.05,2.76c.1-.05,.19-.1,.15-.19,0-.1-.1-.15-.19-.15,.05,.1,.05,.19,.05,.34Zm0,1.93s0,.05,.05,.05,.1-.05,.05-.05c0-.1-.05-.05-.1,0Zm.24,.97c-.05-.1,0-.19,.05-.29,.05-.05,0-.05-.19,0,0,.05,.05,.1,.05,.15,0,.1,.05,.15,.1,.15Zm-.1-3.63s.1,0,.05-.05t-.05,.05Zm.19,4.69s.1-.15,.05-.24c-.05,0-.1,.05-.15,.1,.05,.05,.05,.1,.1,.15Zm.1-4.69s-.1,.05-.1,.1c.1,0,.1-.05,.1-.1Zm-.1,3.14c.1,.1,.15,.15,.15,.19s.05,.05,.19,.05c0-.15,0-.29-.05-.34s-.1-.05-.15-.05c-.1,0-.15,.05-.15,.15Zm.15-2.61s0-.05,.05-.05c0,0,.05,0,.05-.05-.05,0-.15,0-.15,.05-.1-.05-.05,0,.05,.05Zm-.1,.82s.1,0,.05-.05c0-.1-.05-.05-.05,.05Zm.34-3.87c-.05-.1-.1-.1-.19-.05s-.1,.15-.05,.19c.15-.05,.19-.1,.24-.15Zm-.24,.44c.1,0,.15-.05,.1-.1-.1-.05-.1,0-.1,.1Zm0,4.74c0,.1,.05,.15,.15,.19,.1,0,.15,0,.15-.05-.05,0-.15-.05-.15-.05-.05-.1-.1-.1-.15-.1Zm.05-1.5c.1,0,.15-.05,.05-.1-.05-.05-.05,0-.05,.1Zm0,2.81s.1,0,.05-.05c-.05-.05-.05,0-.05,.05Zm.1-1.98s0,.1-.05,.1-.05,.05,0,.1c.15,.15,.29,.24,.39,.24,.05-.1,0-.19-.1-.24-.15,0-.19-.1-.24-.19h0Zm0-5.32c0,.1,0,.15,.1,.15s.15-.05,.15-.15c-.1-.05-.15-.05-.24,0Zm.19,.34s.05,0,.1-.05c0,0-.05-.05-.1-.05v.1Zm.29,3.43s-.05-.15-.1-.19c-.05-.05-.1-.05-.15,0,0,.1,.1,.19,.24,.19Zm-.19-13.64s.05,0,.05-.05t-.05,.05Zm0,18.09s.05,.05,.15,.05c.05,0,.1-.05,.05-.15-.1,.05-.19,.05-.19,.1Zm.15-2.13s.05-.1,.05-.15-.05-.05-.1-.05c0,.1,0,.15,.05,.19Zm0-1.4c.15,0,.19-.05,.1-.1-.1-.05-.15-.05-.1,.1Zm.1,1.89s-.05,.1-.05,.15,.05,.05,.15,.05c0-.1-.05-.15-.1-.19Zm.29-.15s-.1,0-.19-.05-.15,0-.15,.15c.1-.05,.15-.05,.19,0,0,.05,.05,.1,.1,.15,.05,.05,.15,.05,.24-.1,.1-.15,.15-.24,.15-.29-.1,.05-.24,.1-.34,.15Zm-.19,1.5v-.1s-.1,0-.15,.05c.05,0,.1,0,.15,.05Zm-.1-4.4s.05,0,.05-.05,0-.1-.05-.05v.1Zm.15-1.69h.1s-.05-.1-.1-.05v.05Zm0,6.68s.1,0,.15-.05c0,0-.05-.05-.15-.05v.1Zm0-3.77c.1,0,.15,0,.15-.1-.1,0-.15,0-.15,.1Zm.77,4.16c0-.15,0-.29-.05-.44-.05-.1-.15-.24-.19-.39,.05-.1,.1-.15,.05-.15,0,0-.05,0-.15,.05-.05,.05-.15,.05-.19,.1-.1,.05-.15,.05-.19,.1,.15,.05,.29,.15,.34,.34,.05-.05,.1-.05,.19-.05,.05,0,.1,0,.1,.05-.05,.05-.1,.1-.05,.19,.05,.15,.1,.19,.15,.19Zm-.68-11.56c.15,0,.19-.05,.1-.1-.1-.05-.15-.05-.1,.1Zm.05,7.11s.05,.05,.15,.05c0-.1-.05-.15-.1-.15l-.05,.1Zm.15-14.66c.1,.1,.15,.05,.15-.05-.05-.05-.1-.05-.1-.05-.05,0-.05,.05-.05,.1Zm.24,9.92c-.05-.15-.15-.24-.24-.24,0,.1,.05,.19,.24,.24Zm-.19-2.52h.1s-.05-.1-.1-.1v.1Zm0,1.6q.1,0,.05-.05s-.05-.05-.05,.05Zm.05,10.11l.05-.05s-.05-.05-.1-.05c0,.05,0,.1,.05,.1Zm.19-20.08s0-.05,.05-.05c-.05,0-.1-.05-.15-.05-.05,.1,0,.1,.1,.1Zm-.1,1.4s.05,.1,.15,.1c0-.05-.05-.1-.05-.19,0,.05-.05,.05-.05,.05t-.05,.05Zm.1,17.03s-.1,0-.1,.05t.1-.05Zm-.1,1.98c.1,.05,.19,0,.19-.1s0-.19-.15-.19c.05,.15,0,.24-.05,.29Zm.24-2.27c.1,.05,.19,.05,.29,.05,.05,0,.15-.05,.24-.19h-.19s-.15,.05-.19,.05c-.05-.1-.1-.15-.19-.1-.1,.1-.1,.15,.05,.19Zm-.1-4.89s0,.1,.05,.1h.1s0-.1-.05-.1c-.05-.1-.05-.05-.1,0Zm.24-1.35c-.1-.05-.15-.05-.19,0,0,.05,.05,.1,.1,.1q.1,0,.1-.1Zm-.15,6.82s.1-.05,.1-.1c-.1,0-.15,0-.1,.1Zm.1-1.84s.1,.05,.19,.05,.15-.05,.15-.15c-.05-.05-.1-.05-.19-.05-.15,0-.19,.05-.15,.15Zm.1-3.43s-.05-.1-.1-.1v.1h.1Zm-.05-9.82c.1,0,.19-.05,.19-.1-.05-.05-.05-.1-.15-.05-.05,0-.05,.05-.05,.15Zm0,13.64h0s.05,0,.05-.05l-.05-.05v.1Zm.1,1.93s0,.05,.05,.05,.1-.05,.05-.05t-.1,0Zm0-17.08c.1,0,.19,0,.19-.1s-.05-.15-.19-.15v.24Zm.15,.53s0-.1-.05-.1-.1,0-.1,.05c.05,0,.05,.05,.05,.05h.1Zm-.1,13.59l-.05,.05h.05l.05-.05h-.05Zm.19,1.26c-.1,0-.19,.05-.24,.1,.05,0,.1,.05,.15,.05,.05,.05,.05-.05,.1-.15Zm-.1-5.9s-.1,.05-.15,.05c0,.05,.05,.05,.05,.05,0,0,.05,0,.05,.05,.05,0,.05-.05,.05-.15Zm-.1-8.9c.1,.05,.19,.15,.19,.15,0,.05,.05,.05,.19,0,0-.05-.05-.1-.1-.19-.05-.05-.1-.1-.15-.1,.05,.05,.05,.1,0,.1q-.1,0-.15,.05Zm.24,11.8s-.1,.05-.1,.1c.05,0,.1-.05,.1-.1Zm-.1,4.4s.1,0,.1-.05c-.05,0-.05-.05-.05-.1-.05-.1-.05-.05-.05,.15Zm.05-.29c.1,0,.15-.05,.05-.1-.05-.05-.1,0-.05,.1Zm0-6.53c-.05,.1,0,.15,.1,.15v-.15s-.05,0-.1,0Zm.05,3.92c.1-.05,.1-.1,0-.15-.1,.1-.1,.15,0,.15Zm.15-.63s-.05,.05-.1,.05-.05,0,0,.05c.05,0,.1,0,.15-.05,0,0,0-.05-.05-.05Zm-.15-14.27s.05,0,.05,.05c0-.05,0-.1-.05-.1v.05Zm.15,17.22s0-.1-.05-.1-.1,0-.1,.05c.1,.05,.15,.1,.15,.05Zm0-16.5c.05,.1,.1,.15,.19,.19,.1,0,.15,.05,.24,.1-.05-.1-.1-.19-.19-.24l-.19-.19s0,.05-.05,.05v.1Zm.05,15.04s-.05,.05-.05,.15c0,.05,0,.1,.05,.05,.05,0,.05-.05,.05-.15,.05,0,0-.05-.05-.05Zm.05,.97v.15s0,.05,.1,.05v-.1s-.1-.05-.1-.1Zm.24-15.19s-.1-.05-.15,0-.05,.1,0,.15c.05,0,.1,0,.1-.05,0,0,.05-.05,.05-.1Zm-.15,18.82s.1-.05,.1-.19c-.1,.05-.1,.1-.1,.19Zm0-18.24c.1,0,.15-.05,.1-.1-.05-.1-.1-.05-.1,.1Zm0,7.5s.05,.15,.1,.19c.05,.05,.1,.05,.15,0,0-.05-.05-.1-.1-.15-.05,0-.1-.05-.15-.05Zm.05-7.01c.15,0,.19-.05,.19-.19-.05-.05-.1-.05-.15,0-.05,.05-.05,.1-.05,.19Zm.19-2.85s-.1-.05-.15,.05c-.05,.05-.05,.1,0,.15,.05-.1,.1-.15,.15-.19Zm.05,15.38c.05-.1,0-.15-.05-.1-.1,0-.15,.1-.15,.19,.05,0,.1,0,.15,.05-.05,0,0-.05,.05-.15Zm-.05-.48c.1,.05,.19,0,.24-.1s.05-.15-.1-.19c.05,.05,.05,.1-.05,.1s-.15-.05-.15-.1c-.05,.05-.05,.1,0,.15-.05,.05,0,.1,.05,.15Zm0-16.16c-.1,0-.15,0-.15,.05,0,0,.05,.05,.1,0,.05,.05,.05,0,.05-.05Zm-.15,20.17s.1,.05,.15,.05,.1-.05,.15-.05c-.05-.05-.05-.1-.05-.19,0-.05-.05-.15-.1-.19-.05,.05-.05,.15-.05,.19-.05,.05-.05,.1-.1,.19Zm.19-19.45s0,.1,.15,.15c.15,.05,.24,.1,.29,.1,.1,0,.1-.05,.05-.15-.05-.1-.1-.1-.19-.05-.05,0-.1,0-.19-.05,0-.05-.05-.05-.1,0Zm.24-.58s0-.1-.05-.1h-.15s0,.1,.05,.15c.05,0,.1,0,.15-.05Zm-.15,4.16s0,.1,.05,.1,.05-.05,.05-.15c0,0-.05,.05-.1,.05Zm.19-.39s-.05-.05,0-.15v-.39s-.05-.1-.15-.1c0,.05,.05,.1,0,.19,0,.1-.05,.15-.05,.24-.05,.05-.05,.15,0,.19,.05,0,.1,.05,.19,0Zm-.1-1.55s.05-.05,0-.1c0-.05-.05-.05-.1,0,0,.05,.05,.1,.1,.1Zm.29-.15c-.1,0-.15,.05-.19,.15-.05,.1-.05,.19-.05,.34,.15,.05,.24,.05,.24-.15v-.34Zm-.05-.87s-.1-.05-.15,0-.1,.1-.05,.24c.05,0,.1-.05,.1-.1s.05-.1,.1-.15Zm-.19,17.12h.1s.05-.05,.1-.05c-.15-.05-.19,0-.19,.05Zm.1-8.71s.05,0,.05-.05,0-.1,.05-.15c-.15,0-.19,.05-.1,.19Zm.48-6.72c-.05-.1-.1-.15-.29-.19-.15,0-.24,0-.24,.05,.1,0,.19,.05,.29,.15,.1,.05,.19,.05,.24,0Zm-.48,.19c0,.1,.1,.15,.24,.15-.05-.15-.15-.19-.24-.15Zm.05,.44c-.05,.1,0,.15,.1,.15s.15-.05,.19-.15h-.29Zm.05,.87s0,.1,.05,.1,.05,0,.05-.05t-.05-.05s0-.05-.05,0Zm.05,.68c-.1,.1-.05,.15,.1,.15,0-.1-.05-.15-.1-.15Zm.05,14.13s.1,0,.15-.05c.05-.05,.05-.1,0-.15-.05,.05-.05,.1-.1,.1t-.05,.1Zm.15-14.17c.1-.1,.15-.19,.05-.24-.1-.05-.19-.05-.19,.05,0,.1,.05,.15,.15,.19Zm-.1-4.69s.05,.1,.1,.1c0-.1-.05-.15-.1-.1Zm.05,12.72s-.05,.05,.05,.05c.05,0,.1-.05,.05-.1,0,0,0-.05-.05,0t-.05,.05Zm0,6.77c0,.1,.05,.15,.15,.15,.05,0,.1-.05,.15-.15-.05,0-.1,0-.15-.05-.05,0-.1,0-.15,.05Zm.1-16.59s.1,0,.1-.05-.05-.1-.1-.05c-.05,0-.05,.05,0,.1Zm.1-2.03v.15s-.1,.05-.15,.05c0,.1,.05,.15,.15,.19,0-.05,0-.1,.05-.15,.05,0,.1-.05,.15-.1,.1-.1,.15-.19,0-.15h-.19Zm.05,2.66s-.1-.05-.15,0c-.05,.05-.05,.1-.05,.15,.15-.05,.19-.1,.19-.15Zm.05,5.47c-.1,0-.19,0-.19,.1,.05,.05,.1,.05,.15,0,.05,0,.05-.05,.05-.1Zm-.19,11.42c.1,0,.19-.05,.19-.19-.1,0-.15,.05-.19,.19Zm.19-16.5s.05-.05,0-.1c0-.05-.05-.05-.1-.05-.05,.05-.05,.1,0,.15h.1Zm-.05-2.08s.15,.05,.19,0,.1-.15,.1-.19c0-.15,0-.19-.1-.19-.05,.05-.05,.1,0,.15v.15c-.1,0-.19,.05-.19,.1Zm.05-1.69s-.05,.05-.05,.1c.05,.05,.1,.05,.1,0,.05,0,.05-.05-.05-.1Zm.05,4.5s.05,0,.05-.05,0-.1-.05-.1v.15Zm.05-1.16h.1v-.1s-.05-.05-.05-.05c-.05,0-.05,.05-.05,.15Zm.05,1.06s.05,0,.1,.05c0-.05,0-.1-.05-.15,0,0-.05,.05-.05,.1Zm.48-4.26c-.15-.05-.29-.1-.44-.1,0,.05,.05,.1,.1,.19h.19s.1-.05,.15-.1Zm-.29,2.08c-.1-.05-.15,0-.1,.15,.05,0,.1-.05,.1-.15Zm-.1,3s.05,.05,.1,.05,.05-.05,.05-.1c-.1-.05-.15,0-.15,.05Zm.19-1.31s.1-.1,0-.1c-.05,0-.1,0-.15,.05,0,.05,0,.1,.05,.1,.05-.05,.1-.05,.1-.05Zm-.1-1.11c-.05,.1-.05,.15,0,.15s.1-.05,.05-.15h-.05Zm.15,5.9s-.05,.05,0,.1c0,.05,.05,.05,.1,.05,0-.1,0-.15-.1-.15Zm.19-4.79c0-.1-.05-.19-.19-.19,0,.1,.1,.15,.19,.19Zm-.19,.53s.15-.05,.24,0,.19,0,.24-.05c0-.05-.1-.05-.15-.05q-.1,0,0-.05h-.15c-.1-.1-.15,0-.19,.15Zm.29-3.58s-.05-.05-.1,0c-.05,0-.05,.05,0,.1,.05-.05,.1-.05,.1-.1Zm-.1,2.42s0,.1,.05,.05h.15s0-.1-.05-.1c-.1,0-.15,.05-.15,.05Zm.15,5.08s0,.1-.05,.15c-.05,.05-.05,.1-.05,.15,.1,.1,.19,.05,.19-.1,0-.15-.05-.24-.1-.19Zm-.05,.82s.1,.05,.15,0c.05,0,.05-.05,.05-.1-.05-.05-.1-.05-.15-.05t-.05,.15Zm0,11.27c.15,0,.24-.1,.29-.29l-.05-.05c0,.1-.05,.19-.19,.19v.15h-.05Zm.05-20.27v.15s.05,.05,.1,0c0-.15-.05-.19-.1-.15Zm.34,1.5c-.19,0-.24,.1-.19,.34,.1-.05,.15-.15,.19-.34Zm-.19,19.16s0,.1,.05,.1,.1,0,.1-.05c-.05-.1-.1-.1-.15-.05Zm.1-23.56s-.05,.05-.05,.05c0,0,0,.05,.05,.05s.05-.05,.05-.05t-.05-.05Zm.1,3.97c0,.1,0,.15,.1,.15s.1-.05,.05-.15h-.15Zm0,5.47s.05,0,.05-.05,0-.1-.05-.05v.1Zm0,1.89s.1,0,.05-.05-.05,0-.05,.05Zm.24-8.56c0-.1-.05-.15-.15-.15-.1,.05-.1,.1,0,.15,.05,0,.1,0,.1-.05t.05,.05Zm0-3.34c-.1,0-.15,0-.19,.05,0,.05,.05,.1,.15,.1s.1-.05,.05-.15Zm.24,24.62s.1,0,.05-.05c0-.05-.05-.05-.05,0v.05Zm.05-.68q.1,0,.05-.05s-.05-.05-.05,.05Zm.15,.92s.1,0,.1-.05h-.1v.05Zm.15-.68c.1,0,.15,0,.1-.05-.05-.05-.1-.05-.1-.05v.1Zm.73-14.9q.1,0,.05-.05c0-.1-.05-.05-.05,.05Zm.92-9.38v0h0Zm.48,3.1s.1,.05,.19,.1c.05,.05,.1,0,.05-.15h-.15s-.1,0-.1,.05Zm.1,2.52l.05-.05s-.1-.05-.15,0c0,0,.05,.05,.1,.05Zm.24,14.13s.1,0,.05-.05-.05-.05-.05,.05Zm2.37-8.22s.05-.1-.05-.15c0,.1,0,.15,.05,.15Zm.34,.73s.05,0,.05,.05h.05v-.05s-.05-.05-.1,0Zm.34,8.42c-.15,0-.24,.1-.29,.19,.15-.05,.24-.1,.29-.19Zm-.24-8.03s.1,0,.1-.05-.05-.1-.05-.1c0,0-.05,.05-.05,.15Zm.15-1.79c.15,.05,.24,0,.29-.1s.05-.19-.05-.29c-.05,.1-.05,.15-.15,.19-.05,.05-.1,.1-.1,.19Zm.53,8.76s-.05,.05-.05,.1,0,.05,.05,.05c0,0,.05-.05,.05-.1s0-.05-.05-.05Zm.15-1.64s-.05,.05-.05,.1,.05,.05,.1,.05c0-.05,0-.1-.05-.15Zm-.05-6.19s.1,0,.05-.05c-.05-.1-.05-.05-.05,.05Zm.44-.39s.05-.1,0-.19c-.05-.05-.05-.15,.05-.19-.05,0-.15,0-.15,.05-.05,0-.1,.05-.15,.1v.19c.1-.05,.15-.05,.15,0-.05,.05,0,.05,.1,.05Zm.05-2.47q.1,0,.05-.05s-.05,0-.05,.05Zm0,2.32s.1,.05,.1,.05c0,0,.05-.05,0-.1,0-.05-.05-.05-.05-.05,0-.05,0,0-.05,.1Zm.34-.68v-.1s-.05-.05-.05-.1v.15l.05,.05s-.05,0,0,0Zm.19,.97c0-.1-.05-.15-.15-.15,0,.1,.05,.15,.15,.15Zm.1-10.5c-.1,.1-.1,.15-.05,.19s.1,.05,.15-.05c-.05-.1-.05-.15-.1-.15Zm-.1,8.95s.1-.05,.05-.1t-.05,.05s.05,0,0,.05Zm.15,11.32c-.1,0-.15,0-.15,.1,0,.05,.05,.05,.1,0,.1,0,.1-.05,.05-.1Zm.15-10.98s-.1-.1-.15-.05c-.05,.05-.1,.1-.1,.15,.05,.05,.1,.05,.15,.05,.1-.05,.1-.1,.1-.15Zm-.05,.58s0-.1-.05-.1-.1,.05-.1,.1h.15Zm-.1-1.31c0,.1,0,.15,.05,.19,0-.05,.05-.1,.1-.15,.05-.05,0-.05-.15-.05Zm.1,2.27s0,.1,.05,.05c.05,0,.1-.05,.05-.1h-.05s0,.05-.05,.05h0Zm.19-10.4c-.1-.05-.1,0-.05,.1,.05,0,.05-.05,.05-.1Zm0,7.69h.1s0-.1-.05-.15c-.05-.05-.1-.05-.1,0-.05,.05,0,.1,.05,.15Zm0,2.13c.1,0,.15,0,.19-.05,0-.05,0-.1-.1-.15,0,.05-.05,.1-.05,.1,0,0,0,.05-.05,.1Zm.19-1.89c-.1,0-.15,0-.15,.05t.05-.05h.1Zm0,.63s0-.15-.1-.19c0,0-.05,.05,0,.15,0,.05,.05,.1,.1,.05Zm.1-8.42s-.05,0-.05,.05l.05,.05s.05-.05,0-.1t0,0Zm.1,9.67s.15-.1,.19-.19c-.15,0-.19,.05-.19,.19Zm.19,5.56s0-.1-.05-.05h-.1s0,.1,.05,.1c0-.05,.05-.05,.1-.05Zm-.05-6.97h.15s.05,0,.05-.1c-.05,0-.15,0-.19,.1Zm.34,6.19h-.15s-.05,0,0,.1h.1s.05-.1,.05-.1Zm.15-5.51c.15,0,.24,0,.29-.05v-.1s-.1-.05-.15-.05-.1,0-.1,.05c-.1,0-.19,.05-.29,.15-.05,.05-.05,.19,0,.34,.05,.1,.15,.15,.24,.05,.05-.05,.1-.1,.05-.15,0-.1-.05-.15-.05-.24Zm-.19-6.68s-.05,.1,.05,.15c.05-.1,.05-.15-.05-.15Zm.15,5.85q.1,0,.1-.05c-.05-.1-.1-.05-.1,.05Zm.24,0c.1-.05,.19-.05,.29,.05,.05,.1,.15,.15,.29,.1-.05-.1-.1-.19-.19-.19s-.24-.05-.34-.05v.1h-.05Zm.05,9.19c0,.1,.05,.15,.15,.1,0-.05-.05-.1-.15-.1Zm.15-2.85s-.05,.05-.05,.15c0,.05,.05,.1,.15,.1,0,0,.05-.05,.05-.15s-.05-.15-.15-.1Zm.19-5.95s-.15-.05-.19,0-.05,.15,.05,.19c0-.05,.05-.1,.05-.1,.05,0,.05-.05,.1-.1Zm-.05,1.11s0-.1-.05-.15c-.05-.05-.1-.05-.15,0,.05,0,.05,.05,.05,.15,0,.05,.05,.05,.15,0Zm0-.39c.1,0,.19-.1,.15-.19,0-.1-.1-.15-.19-.1,0,.05,0,.15,.05,.29Zm.1,8.08c-.1-.05-.1,0-.05,.05s.05,0,.05-.05Zm0-8.8c.1,.1,.19,.1,.34-.05,.1-.15,.05-.24-.05-.29-.05,0-.05,.05,0,.15,.05,.05,.05,.1,0,.15-.05,0-.1-.05-.15-.1,0-.05-.05-.1-.15-.15v.15s-.05,.1,0,.15Zm.15-.68h.1s-.05-.1-.1-.05v.05Zm.15,1.31s.15,.1,.24,.15c.1,.05,.15,0,.15-.15-.05-.05-.1-.1-.15-.1s-.05-.05,0-.15c.05-.05,0-.1-.15-.1-.1,0-.15,.1-.1,.34Zm.15-1.4h-.1s-.05,.05-.1,.1c.05,0,.1,.05,.1,.05,0,0,.05,0,.1-.05t-.05-.05s0,0,.05-.05Zm-.15,7.26s.05,.05,.1,.05,.1,0,.05-.05h-.15Zm.19-5.32c0-.1,0-.15-.1-.15s-.1,.05-.1,.15h.19Zm0-2.61c-.05,.1,0,.1,.05,.05,.05,0,.05-.05-.05-.05Zm.34,8.18s0,.1,.05,.1,.05,0,.05-.05h-.05s0-.05-.05-.05Zm.15-7.26s.05-.05-.05-.05-.1,0-.05,.05h.05s0,0,.05,0Zm.29,10.01s-.1,.05-.1,.19c.05,0,.1-.05,.1-.19Zm.24-9.48s.1,.05,.15,0c.05-.05,.05-.1,.05-.15-.05-.05-.1-.05-.15,0-.05,.05-.05,.1-.05,.15Zm.1,.24s.1,.05,.19,0c.05-.05,.1-.1,.05-.15-.15-.05-.19,0-.24,.15Zm.39-.97s.05-.05,.05-.1,0-.1-.1-.15c-.05,.1-.05,.19,.05,.24Zm.05,4.06s0-.1-.05-.1v.05s0,0,.05,.05c-.05,0,0,0,0,0Zm0-9.34h0Zm.24,5.27s-.05,.1-.05,.19,.05,.15,.1,.15c0-.05,.05-.15,0-.24,0-.05,0-.1-.05-.1Zm-.05,3.53c0,.1,0,.15,.05,.1,.05,0,.1-.05,.15-.05-.05-.15-.1-.15-.19-.05Zm.34-2.71c.15,0,.19-.05,.19-.15s0-.19,.05-.29c-.1-.05-.19,0-.24,.1,.05,.05,.1,.1,.05,.15-.1,.1-.1,.15-.05,.19Zm.05,.34s0,.15,.15,.19c.1,.05,.19,.1,.24,.1,0-.1-.05-.19-.1-.24-.1-.1-.19-.1-.29-.05Zm.05,1.64s.05,.05,.1,.05c.1,0,.15,0,.15-.05,0,0-.05-.05-.1-.15l-.05,.05v.05c-.1-.05-.1,0-.1,.05Zm.15,.73h0c.05-.1,0-.1-.05-.1,0,.05,0,.1,.05,.1Zm.05-.97c.1,0,.15-.05,.05-.1t-.05,.1Zm0-1.84c0,.1,.05,.15,.1,.15,0-.1,0-.15-.1-.15Zm.39,1.64c.1,.1,.15,.1,.19,0,0-.1,0-.19-.05-.29,0-.05-.05-.19-.05-.29,0-.15,0-.19-.05-.24s-.1-.05-.15,.1c-.05,.15-.1,.24-.15,.29,.05,.05,.1,.05,.1,.05,0,0,.05,.05,.05,.1-.05,.15,0,.19,.1,.29Zm-.05-1.55v-.19q0-.1-.15-.05s.05,.1,.05,.15t.1,.1Zm.39,1.45v-.05s-.05,0-.05,.05h.05Zm.19-1.11c-.1,0-.19,.05-.19,.19h.15s0,0,.05-.19Zm-.05,.82s-.1-.05-.1,0c-.05,.05,0,.1,.1,.05v-.05Zm0-5.66s-.05,.05,0,.1c0,.05,.05,.05,.1,0-.05,0-.05-.05-.1-.1Zm0,7.35c.1,0,.15-.05,.1-.1-.05-.05-.1-.05-.1,.1Zm.44-3.68s-.1-.05-.15,0c-.05,0-.1,0-.15-.05,0,.1,.05,.15,.19,.19v-.05s.05-.1,.1-.1Zm-.24,4.02c.1,.1,.19,.05,.24-.15s.05-.29,.1-.39c-.15-.05-.24,0-.24,.15-.05,.19-.05,.29-.1,.39Zm.24,4.26h-.15s-.05,0-.1,.05c0,.05,.05,.05,.15,.05s.1,0,.1-.1Zm-.19-6.97c0,.1,.05,.15,.15,.15v-.15s-.1-.05-.15,0Zm0,.63s.1,.05,.05,.1,0,.05,.1,.05c0-.05,0-.1-.05-.19t-.1,.05Zm.05,.53s.1,0,.05-.05-.05,0-.05,.05Zm.1-2.52s.1,0,.05-.05-.05-.05-.05,.05Zm.1,.63h0l-.05-.05v.1s.05,0,.05-.05Zm0,1.31s0,.1,.05,.15h.19v-.19s-.15,.05-.24,.05Zm.15-2.32c-.1,0-.19,0-.19,.05h.15q.1,0,.05-.05Zm.15,3.92s0-.1-.05-.1t-.05,.1h.1Zm.05-3.53v-.05s-.05,0-.05,.05h.05Zm-.05,1.64s.1,.1,.1,.15,.05,.1,.15,.15c.05-.1,.05-.19,0-.24s-.1-.15-.15-.19c-.05,.05-.05,.1-.1,.15Zm.05-6.43s.05,0,.05,.05,0,.05,.05,0c0-.05,0-.1-.05-.1l-.05,.05Zm.34,6.97c-.05-.1-.05-.15,.05-.15,.1,.05,.1,0,.1-.1-.05-.1-.1-.05-.19,.1-.1,.15-.15,.24-.15,.29,.05,.05,.15,.05,.19,0v-.15Zm.1-.48s0-.1-.05-.1h-.15s0,.1,.05,.1q.1,.05,.15,0Zm-.1-1.26v.05s-.05,0-.05,.05c.1,.05,.15,.05,.15-.05,.05-.05,0-.05-.1-.05Zm.48,.1s.05-.1,.05-.15c-.05-.05-.1-.05-.19,0,0,.1,.05,.15,.15,.15Zm.1-6.19c.1,0,.15-.05,.1-.1q-.1-.05-.1,.1Zm0,6.68l.05,.05c.1-.05,.05-.1-.05-.05h0Zm.15,1.6s.1-.05,.15-.05q.1,0,.05-.1s-.05-.1-.1-.1-.05-.05,0-.1c-.1,0-.19,.05-.19,.1,.1,0,.15,.05,.1,.1-.05,.05-.05,.1,0,.15Zm0-2.18s0,.1,.05,.1,.1,0,.15-.05c-.05-.05-.1-.05-.19-.05Zm.05-.53c0,.15,0,.19,.05,.19s.05-.05,.05-.1v-.15c0-.1,0-.05-.1,.05Zm.44,3.29s.05,.05,.1,.05,.1-.05,.1-.1c0,0-.05,0-.15-.05-.05-.05-.1,0-.05,.1Zm.34-1.74c0-.1,0-.15-.05-.19s-.1-.05-.15,0c0,.05,0,.15,.05,.15,.05,.05,.1,.05,.15,.05Zm.29-.63s.1-.05,.1-.19c-.05,0-.1,0-.15,.05,0,.05,0,.1,.05,.15Zm.19-.48v-.15s0-.05-.05-.05c0,.05-.05,.1,0,.15-.05,.05,0,.05,.05,.05Zm.05,1.84s.1,0,.05-.05c0-.05-.05-.05-.05,.05Zm.1-1.55s.1,.05,.15,.05c0-.05,0-.1-.05-.1-.05-.05-.1,0-.1,.05Zm.24-.73s0-.1-.05-.15c0,0-.05,.05-.05,.1t.1,.05Zm.1,1.45s-.05,.05,0,.05,.1,0,.05-.05c0,.05-.05,.05-.05,0h0Zm.15,1.11c.1,.05,.15,0,.15-.1-.05,0-.1,0-.15,.05v.05Z"/><path class="cls-3" d="M37.54,108.7l-.58-.1-.48-.1-.34-.1-.39-.19-.39-.24-.29-.24-.29-.34-.29-.39-.29-.58-.1-.34-.15-.87v-.39l.05-.48,.1-.58,.1-.48,.1-.34,.1-.29,.19-.24,.15-.29,.15-.34,.24-.39,.24-.39,.24-.29,.24-.24,.24-.24,.39-.34,.34-.29,.24-.24,.29-.19,.24-.19,.58-.29,.24-.19,.58-.29,.34-.15,.39-.15,.44-.15,.68-.15,.34-.1,.48-.1,.48-.05,.24-.05,.39-.1,.34-.05h.68l.44-.1,.39-.24,.24-.39,.24-.77,.1-.44,.1-.39,.1-.29,.15-.29,.1-.29,.1-.34,.1-.29,.1-.34,.1-.29,.19-.34,.19-.44,.24-.53,.19-.48,.1-.34,.29-.58,.19-.34,.1-.24,.19-.34,.19-.24,.29-.58,.19-.34,.15-.19,.24-.39,.1-.24,.24-.34,.15-.29,.19-.24,.44-.53,.24-.29,.58-.68,.29-.24,.24-.19,.63-.58,.39-.24,.34-.19,.39-.15,.19-.1,.39-.1,.29-.1,.34-.1,.68-.1h.34l.68,.1,.29,.1,.34,.15,.29,.24,.24,.24,.19,.24,.19,.29,.15,.34,.1,.29,.24,1.02,.05,.39v.34l-.05,.34v.73l-.1,.68-.1,.34v.34l-.1,.48-.1,.44-.1,.39-.1,.44-.1,.39-.1,.39-.1,.39-.05,.34-.1,.48-.15,.58-.15,.48-.1,.34-.1,.48-.1,.44-.1,.39-.15,.44-.15,.58-.1,.48-.1,.39-.24,.87v.24l.24,.15,.58-.05,.63-.1,.58-.15,.63-.24,.58-.24,.58-.24,.58-.29,.53-.34,.48-.39,.63-.58,.24-.19,.24-.1,.29,.1,.19,.24v.29l-.1,.34-.19,.24-.24,.24-.24,.29-.19,.19-.34,.39-.39,.29-.58,.39-.39,.24-.87,.53-.44,.19-.34,.1-.29,.15-.34,.1-.39,.1-.44,.1-.39,.1-.34,.05-.29,.05-.39,.05-.24,.1-.24,.19-.15,.24-.1,.39-.1,.39-.1,.39-.15,.58-.39,1.64-.1,.39-.1,.48-.15,.58-.1,.63-.1,.48-.1,.34-.1,.48-.1,.44-.24,.24-.34,.15-.34,.1-.39,.05-.39-.05-.34-.05-.39-.1-.29-.15-.19-.24v-.44l.05-.58,.1-.53,.05-.24,.15-.48,.1-.44,.1-.39,.24-.87,.1-.39,.1-.44,.1-.58,.19-.63,.19-.58,.1-.48v-.24l-.1-.19-.29-.05-.87-.1-.39-.05-.73-.05-.48-.1-.53-.1-.77-.19-.44-.1-.29,.05-.24,.24-.15,.39-.15,.34-.1,.29-.1,.34-.1,.29-.1,.34-.1,.29-.15,.34-.19,.39-.19,.44-.15,.29-.34,.63-.24,.39-.24,.39-.19,.34-.19,.24-.24,.24-.39,.58-.29,.34-.34,.29-.29,.24-.24,.19-.58,.29-.29,.19-.44,.15-.39,.15-.34,.1-.48,.29-.34,.05h-.92l-.39-.05-.44-.05Zm-.73-3.92v.34l.1,.34,.1,.34,.19,.24,.24,.24,.34,.19,.34,.1,.39,.05,.44-.05,.48-.1,.34-.1,.29-.15,.34-.24,.15-.15,.34-.24,.24-.24,.24-.24,.24-.24,.19-.29,.19-.24,.15-.34,.19-.39,.24-.44,.15-.39,.29-.58,.1-.29,.1-.34,.1-.29,.24-.68,.1-.29,.1-.34v-.29l-.24-.15-.39-.1-.39,.05-.34,.05-.34,.1-.44,.1-.44,.15-.92,.39-.58,.29-.29,.19-.24,.19-.29,.19-.24,.19-.24,.24-.19,.24-.24,.29-.15,.24-.19,.29-.19,.34-.19,.39-.15,.44-.1,.39-.15,.58Zm16.88-19.64l-.29,.19-.24,.19-.24,.24-.24,.24-.24,.24-.19,.24-.24,.24-.19,.24-.19,.29-.19,.24-.24,.29-.19,.39-.24,.39-.68,1.11-.63,1.26-.15,.87-.19,.44-.19,.34-.34,.87-.15,.34-.1,.29-.15,.34-.15,.44-.1,.44-.1,.39-.1,.34-.1,.34-.1,.29-.1,.34-.05,.44,.19,.34,.44,.15,1.35,.24,.58,.1h.24l.53,.1,.68,.1,.44,.05,.29-.05,.24-.15,.1-.29,.24-1.02,.1-.29,.34-1.02,.1-.29,.1-.34,.24-.68,.1-.29,.1-.34,.24-.63,.1-.34,.1-.34,.1-.29,.24-1.02,.1-.34,.1-.34,.1-.29,.05-.39,.1-.34,.1-.24,.15-.68,.1-.34,.1-.34,.05-.29,.05-.34,.05-.39v-.34l-.1-.68-.1-.29-.15-.29-.63-.19-.29-.1-.34,.1-.29,.1Z"/><path class="cls-3" d="M63.37,108.7l-.29-.05-.34-.1-.34-.1-.44-.19-.39-.24-.34-.19-.39-.29-.34-.34-.24-.24-.24-.24-.24-.24-.15-.29-.19-.34-.19-.44-.19-.39-.1-.34-.1-.48-.1-.44-.05-.39-.05-.34v-.68l.05-.29,.05-.34,.05-.39,.1-.44,.1-.48,.1-.34,.1-.34,.24-.77,.19-.39,.19-.34,.58-1.21,.19-.29,.39-.53,.53-.58,.1-.15,.24-.29,.24-.24,.24-.24,.24-.24,.24-.19,.29-.24,.24-.19,.29-.15,.29-.19,.24-.15,.29-.15,.39-.19,.77-.24,.39-.1,.34-.1,.34-.05,.39-.05h.63l.34,.05,.48,.1,.58,.15,.48,.15,.34,.1,.24,.15,.24,.19,.24,.24,.24,.24,.24,.24,.15,.34,.15,.39,.1,.44,.05,.39-.05,.44-.1,.48-.1,.34-.15,.29-.19,.29-.24,.39-.24,.34-.24,.24-.24,.24-.29,.15-.48,.1h-.58l-.58-.15-.39-.24v-.39l.19-.34,.24-.39,.24-.34,.15-.34,.1-.29,.1-.34v-.29l-.1-.15-.24-.39-.39-.24-.34-.1-.34-.05-.34,.05-.44,.1-.44,.15-.34,.15-.24,.19-.29,.24-.24,.19-.29,.24-.29,.34-.24,.24-.24,.34-.34,.39-.24,.39-.15,.34-.19,.29-.15,.24-.15,.29-.1,.34-.1,.29-.19,.34-.1,.48-.1,.44-.1,.39-.1,.44-.05,.48-.05,.39v.48l.05,.58,.1,.53,.1,.39,.39,.73,.24,.29,.24,.24,.24,.24,.39,.19,.44,.19,.34,.1,.48,.1h.82l.87-.1,.34-.1,.39-.1,.34-.15,.39-.24,.39-.19,.87-.58,.39-.29,.34-.29,.53-.44,.44-.53,.24-.24,.44-.53,.39-.53,.24-.34,.1-.24,.24-.39,.24-.39,.15-.34,.24-.48,.39-.24,.48,.1,.29,.34v.39l-.1,.29-.15,.29-.15,.34-.19,.39-.24,.39-.29,.39-.29,.44-.58,.82-.24,.29-.19,.24-.24,.24-.68,.77-.19,.24-.24,.24-.24,.24-.53,.39-.24,.19-.24,.19-.34,.24-.29,.19-.29,.15-.29,.19-.44,.19-.44,.15-.39,.1-.44,.1-.44,.1-.68,.1-1.02,.1-.68-.1h-.29Z"/><path class="cls-3" d="M77.59,108.7l-.29-.05-.34-.1-.34-.1-.44-.19-.39-.24-.34-.19-.39-.29-.34-.34-.24-.24-.24-.24-.24-.24-.15-.29-.19-.34-.19-.44-.19-.39-.1-.34-.1-.48-.1-.44v-.34l-.05-.34v-.68l.05-.29,.05-.34,.05-.39,.1-.44,.1-.48,.1-.34,.1-.34,.24-.77,.19-.39,.19-.34,.58-1.21,.19-.29,.39-.53,.53-.58,.1-.15,.24-.29,.24-.24,.24-.24,.24-.24,.24-.19,.29-.24,.24-.19,.29-.15,.29-.19,.24-.15,.29-.15,.39-.19,.77-.24,.39-.1,.34-.1,.34-.05,.39-.05h.63l.34,.05,.48,.1,.58,.15,.48,.15,.34,.1,.24,.15,.24,.19,.24,.24,.24,.24,.24,.24,.15,.34,.15,.39,.1,.44,.05,.39-.05,.44-.1,.48-.1,.34-.15,.29-.19,.29-.19,.58-.24,.34-.24,.24-.24,.24-.29,.15-.48,.1h-.58l-.58-.15-.39-.24v-.39l.19-.34,.24-.39,.24-.34,.15-.34,.1-.29,.1-.34v-.29l-.1-.34-.24-.39-.39-.24-.34-.1-.34-.05-.34,.05-.44,.1-.44,.15-.34,.15-.24,.19-.29,.24-.24,.19-.29,.24-.29,.34-.24,.24-.24,.34-.34,.39-.24,.39-.15,.34-.19,.29-.15,.24-.15,.29-.1,.34-.1,.29-.1,.34-.1,.48-.1,.44-.1,.39-.1,.44-.05,.48-.05,.39v.48l.05,.58,.1,.53,.1,.39,.39,.73,.24,.29,.24,.24,.24,.24,.39,.19,.44,.19,.34,.1,.48,.1h.82l.87-.1,.34-.1,.39-.1,.34-.15,.39-.24,.39-.19,.87-.58,.39-.29,.34-.29,.53-.44,.44-.53,.24-.24,.44-.53,.39-.53,.24-.34,.1-.24,.24-.39,.24-.39,.15-.34,.24-.48,.39-.24,.48,.1,.29,.34v.39l-.1,.29-.15,.29-.15,.34-.19,.39-.24,.39-.29,.39-.29,.44-.58,.82-.24,.29-.19,.24-.24,.24-.68,.77-.19,.24-.24,.24-.24,.24-.53,.39-.24,.19-.24,.19-.34,.24-.29,.19-.29,.15-.29,.19-.44,.19-.44,.15-.39,.1-.44,.1-.44,.1-.68,.1-1.02,.1-.68-.1-.48-.05Z"/><path class="cls-3" d="M97.57,106.72l-.53,.44-.58,.39-.29,.15-.58,.39-.29,.15-.68,.24-.39,.1-.68,.1-.24,.1-.39,.1-.29,.05h-.29l-.39,.05h-.34l-.68-.1-.39-.1-.34-.1-.24-.1-.34-.1-.29-.15-.58-.39-.24-.24-.44-.53-.19-.29-.15-.29-.19-.29-.24-.68-.15-.68-.1-.68-.05-.39,.05-.34v-1.02l.1-.34,.1-.29,.1-.34,.1-.68,.1-.39,.1-.34,.1-.29,.1-.34,.15-.34,.15-.29,.1-.34,.19-.44,.24-.44,.19-.29,.24-.29,.19-.24,.24-.24,.39-.58,.24-.24,.48-.48,.53-.44,.24-.19,.29-.24,.34-.24,.39-.24,.39-.24,.29-.15,.39-.15,.24-.1,.39-.15,.24-.1,.39-.1,.34-.1,.39-.05,.34-.05h.87l.58,.1,.48,.1,.34,.1,.34,.1,.29,.15,.68,.39,.39,.24,.24,.24,.19,.24,.24,.24,.24,.29,.44,.82,.1,.34,.05,.34,.05,.29,.15,.68v1.31l-.1,.44-.05,.39-.05,.39-.24,1.11-.15,.53-.1,.39-.15,.39-.15,.39-.1,.34-.24,.39-.34,.68-.19,.39,.05,.24,.29,.05h.24l.39-.05,.24-.05,.34-.1,.39-.15,.24-.15,.58-.39,.24-.24,.48-.48,.44-.53,.19-.24,.19-.29,.19-.24,.29-.58,.34-.63,.1-.24,.24-.34,.34-.19,.44,.1,.29,.34,.05,.39-.1,.34-.44,.87-.19,.24-.39,.58-.15,.29-.19,.24-.24,.29-.19,.24-.24,.24-.48,.53-.24,.24-.24,.24-.24,.19-.29,.24-.24,.15-.58,.29-.34,.15-.29,.1-1.35,.15-.39-.05-.34-.05-.29-.1-.29-.05-.24,.1-.24,.19-.44,.29Zm-7.35-4.06l-.05,.44,.05,.39,.05,.48,.1,.58,.15,.58,.24,.58,.24,.39,.29,.24,.39,.19,.58,.15h.48l.39-.05,.39-.1,.34-.15,.29-.15,.34-.19,.29-.19,.24-.24,.29-.24,.15-.24v-.24l-.15-.24-.19-.29-.1-.34,.1-.44,.15-.44,.24-.24,.29-.19,.34-.05,.34,.1,.24,.1,.24-.05,.15-.24,.1-.29,.44-1.35,.24-1.02,.1-.48,.1-.63,.1-1.26-.05-.58-.15-.63-.24-.58-.24-.39-.29-.24-.44-.19-.58-.1-.48-.05h-.39l-.29,.1-.34,.1-.39,.24-.29,.19-.34,.24-.39,.29-.24,.24-.24,.24-.19,.24-.24,.24-.19,.29-.39,.53-.19,.29-.73,1.5-.1,.34-.1,.29-.24,.68-.1,.29-.1,.34-.05,.34v.34l.05,.53Z"/><path class="cls-3" d="M116.58,93.03l.39-.05,.39,.05,.34,.05,.39,.1,.29,.1,.29,.19,.15,.29-.1,.44-.24,.77-.29,.58-.1,.34-.1,.29-.1,.34-.15,.29-.15,.68-.1,.34-.1,.29-.1,.39-.1,.34-.19,.24-.1,.34-.1,.29-.1,.34-.1,.34-.24,1.02-.1,.44-.1,.48-.1,.39-.1,.44-.1,.48-.05,.39v.34l-.05,.34v.34l.1,.68,.1,.34,.19,.24,.24,.15,.34,.05,.29-.05,.34-.15,.53-.39,.24-.24,.24-.24,.24-.19,.44-.53,.39-.53,.24-.29,.24-.24,.15-.24,.15-.34,.19-.29,.19-.34,.15-.19,.24-.39,.19-.39,.19-.39,.34-.68,.24-.29,.29-.19,.44,.1,.29,.39,.05,.39-.1,.34-.15,.29-.19,.24-.19,.29-.29,.58-.1,.34-.15,.29-.39,.58-.19,.24-.39,.58-.19,.24-.44,.53-.19,.24-.24,.29-.44,.53-.48,.44-.24,.24-.53,.44-.58,.39-.87,.44-.68,.15-.34,.05-.44-.05-.44-.1-.39-.15-.34-.29-.29-.34-.24-.34-.19-.44-.15-.58-.1-.58-.05-.48,.05-.39,.1-.39-.05-.15-.1,.19-.19,.29-.39,.53-.24,.29-.68,.77-.73,.73-.24,.24-.24,.19-.29,.19-.58,.34-.58,.29-.34,.1-1.35,.29-.34,.05-.34-.05-.39-.05-.34-.05-.24-.1-.34-.1-.29-.15-.53-.39-.24-.24-.39-.53-.15-.34-.1-.29-.05-.34-.05-.39v-.87l.05-.34,.1-.34,.05-.34,.1-.34,.05-.34,.1-.44,.1-.48,.15-.68,.1-.34,.1-.44,.24-.77,.1-.29,.1-.34,.1-.34,.05-.29,.53-1.55,.1-.39,.39-1.21,.1-.29,.1-.34,.19-.44,.1-.44,.1-.34,.15-.29,.24-.19,.34-.15,.34-.1,.39-.1,.34,.05,.34,.1,.34,.1,.29,.15,.15,.24v.29l-.1,.34-.1,.34-.1,.29-.24,.68-.15,.39-.05,.24-.15,.44-.1,.19-.1,.39-.1,.34-.1,.48-.15,.48-.1,.24-.15,.39-.1,.34-.1,.34-.1,.29-.15,.68-.05,.34-.1,.34-.1,.34-.15,.68-.1,.29-.1,.34-.1,.34-.1,.48-.1,.58v.68l.1,.58,.29,.53,.48,.29,.44,.1,.68-.15,.29-.15,.24-.1,.29-.15,.34-.19,.29-.19,.53-.44,.24-.24,.68-.77,.19-.24,.24-.34,.24-.39,.24-.39,.29-.58,.19-.34,.15-.29,.15-.34,.1-.29,.1-.34,.1-.29,.1-.34,.1-.29,.15-.34,.1-.29,.15-.68,.1-.34,.1-.29,.1-.34,.1-.29,.15-.34,.1-.34,.1-.29,.24-.68,.1-.29,.24-.68,.1-.29,.1-.34,.15-.29,.19-.29,.24-.19,.58-.24Z"/><path class="cls-3" d="M130.13,95.3l-.29,.15-.24,.15-.24,.19-.29,.24-.24,.24-.68,.39-.24,.19-.24,.24-.24,.24-.44,.53-.24,.24-.53,.48-.39,.58-.24,.29-.44,.87-.39,1.21-.1,.48-.15,.58-.15,.48-.24,1.02-.15,.48-.15,.58-.1,.48-.1,.34-.1,.48-.1,.39-.1,.39-.05,.34-.1,.29-.1,.29-.24,.19-.34,.1-.34,.05-.48,.05-.58-.05-.48-.1-.29-.15-.24-.34-.05-.39,.1-.39,.1-.48,.1-.44,.1-.34,.1-.34,.1-.34,.1-.29,.1-.34,.1-.34,.1-.29,.1-.34,.1-.34,.1-.29,.15-.68,.1-.29,.05-.34,.1-.34,.1-.34,.1-.34,.1-.44,.15-.48,.19-.68,.1-.29,.1-.34,.1-.34,.1-.34,.1-.29,.1-.34,.1-.34,.1-.48,.1-.44,.1-.34,.24-.68,.1-.29,.1-.34,.15-.68,.24-.39,.48-.24,.58-.1,.58,.1,.58,.19,.39,.39,.1,.44-.1,.39-.1,.24-.1,.34-.1,.34-.1,.29-.1,.34-.1,.34-.1,.34-.05,.24,.05,.05,.15-.19,.24-.24,.19-.24,.44-.53,.24-.24,.48-.39,.24-.24,.48-.48,.73-.58,.29-.19,.29-.15,.29-.19,.29-.1,.34-.1,.48-.1,.44-.1h.87l.58,.1,.39,.1,.34,.15,.34,.19,.24,.24,.19,.24,.19,.29,.15,.29,.1,.34,.1,.44,.1,.44v.73l-.05,.34v.34l-.05,.29-.1,.34-.1,.39-.1,.24,.05,.34-.1,.48-.15,.58-.15,.48-.1,.34-.1,.48-.15,.63-.15,.58-.15,.53-.1,.34-.1,.24-.1,.34-.1,.34-.1,.29-.24,1.02-.05,.34v.68l.15,.29,.24,.19,.34,.05,.34-.1,.34-.15,.29-.19,.24-.19,.29-.24,.48-.48,.19-.24,.24-.29,.19-.24,.24-.29,.19-.24,.24-.34,.34-.58,.24-.34,.1-.19,.24-.34,.19-.34,.29-.58,.15-.34,.1-.29,.1-.34,.19-.29,.34-.24,.48,.1,.29,.39v.39l-.1,.34-.15,.29-.15,.34-.15,.29-.19,.29-.15,.29-.24,.34-.1,.24-.39,.68-.1,.24-.19,.34-.39,.58-.24,.34-.15,.19-.24,.29-.24,.34-.24,.24-.39,.44-.24,.24-.53,.44-.24,.24-.29,.24-.29,.19-.58,.29-.29,.1-.34,.1-.34,.1-.29,.05-.39,.05h-.34l-.34-.05-.29-.1-.34-.1-.29-.1-.29-.19-.24-.19-.24-.24-.15-.34-.1-.29-.1-.34-.1-.29v-.82l.1-.48,.05-.39,.1-.48,.34-1.21,.1-.63,.15-.63,.15-.58,.15-.48,.1-.34,.15-.48,.15-.58,.1-.58,.15-.48,.15-.68,.05-.34,.15-.73,.05-.34-.1-.39-.24-.39-.34-.34-.34-.1-.34-.05-.34,.05-.1,.05Z"/><path class="cls-3" d="M150.83,100.33v.39l-.15,.39-.44,.82-.15,.34-.15,.29-.39,.58-.15,.24-.19,.29-.29,.58-.15,.24-.24,.34-.44,.53-.19,.29-.19,.24-.24,.24-.73,.73-.53,.39-.53,.44-.29,.24-.39,.24-.44,.19-.34,.15-.34,.1-.29,.1-.34,.05h-1.02l-.34-.05-.34-.1-.44-.15-.39-.19-.29-.19-.53-.44-.19-.24-.19-.29-.29-.58-.1-.29-.1-.34-.1-.34-.1-.29v-.34l-.05-.34v-.34l-.05-.39v-.34l.1-1.02v-.34l.19-1.69,.1-.34,.05-.34,.15-.68,.1-.48,.1-.44,.1-.34,.1-.34,.1-.34,.1-.34,.1-.34,.1-.44,.15-.48,.24-.68v-.29l-.1-.19-.24-.1-.29-.05-.39-.1-.39-.15-.24-.34-.1-.34-.05-.39,.1-.29,.15-.24,.24-.19,.48-.05,.58,.05h.58l.39-.1,.15-.24,.1-.39,.1-.29,.1-.34,.15-.29,.15-.34,.1-.29,.24-.68,.15-.68,.1-.34,.15-.29,.24-.68,.1-.29,.15-.34,.1-.34,.1-.29,.1-.34,.15-.29,.15-.34,.1-.29,.1-.34,.15-.34,.19-.24,.29-.19,.34-.1,.39,.05,.44,.1,.48,.1,.34,.19,.29,.24,.1,.39-.1,.34-.19,.48-.24,.53-.19,.48-.1,.39-.1,.24-.1,.39-.39,1.21-.1,.29-.1,.34-.15,.48-.24,.58-.24,.77-.1,.34-.15,.29-.1,.29v.24l.24,.19,.39,.1h.39l.63-.05,.53-.05h1.16l.48,.05,.24,.24,.1,.39v.48l-.1,.34-.19,.24-.24,.19-.34,.1-.34,.1-.39,.05-1.02,.05h-.39l-.34-.05h-1.35l-.24,.15-.1,.29-.15,.44-.15,.58-.15,.63-.19,.58-.15,.63-.15,.58-.1,.53-.05,.24-.1,.53-.1,.39-.1,.39-.15,.68-.05,.44-.1,.48-.1,.68v1.02l.1,.48,.1,.44,.1,.34,.15,.34,.19,.24,.39,.24,.53,.24,.39,.1h.39l.39-.1,.87-.44,1.02-.87,.24-.24,.19-.24,.39-.48,.48-.58,.19-.24,.15-.29,.19-.29,.24-.29,.19-.24,.19-.29,.15-.29,.1-.34,.19-.39,.19-.29,.24-.39,.44-.29,.48,.1,.19,.44Z"/><path class="cls-3" d="M167.76,101.44l-.1,.19-.19,.39-.19,.24-.15,.29-.15,.34-.15,.29-.39,.58-.19,.24-.19,.29-.15,.29-.19,.29-.24,.24-.24,.29-.24,.24-.39,.53-.24,.24-.24,.24-1.02,.87-.29,.19-.34,.19-.39,.19-.44,.19-.34,.1-.34,.1h-.39l-.44-.05-.44-.1-.34-.1-.24-.19-.24-.24-.24-.39-.24-.39-.1-.34-.1-.44-.05-.48v-.39l.05-.48,.05-.44-.1-.1-.19,.24-.39,.58-.39,.53-.24,.24-.19,.24-.24,.24-.19,.24-.24,.24-.24,.24-.24,.24-.24,.19-.29,.19-.39,.24-.58,.24-.58,.19-.48,.1-.68,.1-.39-.05-.44-.1-.44-.1-.34-.1-.29-.1-.24-.19-.53-.44-.19-.24-.19-.29-.24-.39-.24-.58-.1-.48-.05-.39-.1-.48-.05-.58v-.48l.05-.39,.05-.48,.1-.44,.1-.39,.1-.44,.1-.48,.1-.34,.15-.29,.1-.34,.87-1.79,.19-.29,.19-.24,.19-.29,.39-.53,.24-.24,.48-.58,.15-.15,.24-.29,.53-.44,.34-.34,.39-.29,.53-.39,.29-.19,.24-.19,.34-.15,.44-.19,.39-.24,.39-.19,.44-.15,.44-.1,.39-.1,.92-.1,.34-.05h.44l.73,.05,.87,.1,.82,.15,.34,.1,.39,.1,1.5,.68,.24,.24,.24,.19,.24,.24,.24,.24,.1,.39-.15,.53-.39,.44-.39,.24-.29,.05-.29-.1-.29-.24-.34-.19-.29-.19-.24-.1-.29-.15-.34-.15-.29-.1-.63-.15-.39-.1-.39-.1h-.73l-.24,.05-.39,.05-.48,.1-.92,.34-.39,.19-.39,.24-.24,.19-.29,.19-.24,.19-.24,.24-.29,.24-.15,.15-.24,.29-.24,.24-.19,.24-.44,.53-.19,.24-.19,.29-.44,.87-.19,.29-.24,.68-.15,.34-.15,.29-.24,1.02-.1,.39-.1,1.02v1.02l.05,.39,.1,.34,.15,.29,.19,.29,.24,.24,.34,.15,.44,.1,.48-.05,.34-.1,.58-.29,.53-.44,.24-.24,.24-.24,.24-.24,.19-.24,.24-.24,.19-.24,.39-.58,.19-.24,.58-.87,.24-.39,.24-.48,.15-.24,.44-.97,.15-.34,.1-.24,.15-.34,.1-.29,.1-.34,.15-.39,.24-.73,.15-.39,.1-.39,.24-.34,.39-.19,.34-.1,.34,.05,.34,.1,.58,.29,.29,.19,.15,.24,.05,.34-.1,.29-.15,.24-.1,.34-.15,.68-.1,.34-.1,.29-.24,.68-.1,.39-.05,.24-.1,.44-.1,.34-.15,.63-.1,.44-.1,.39-.1,.39-.1,.58-.1,.63-.05,.58,.05,.48,.19,.29,.39,.19,.58,.05,.44-.15,.34-.19,.53-.39,.24-.24,.44-.48,.44-.53,.39-.53,.19-.29,.24-.29,.1-.24,.58-.87,.15-.29,.19-.29,.73-1.5,.34-.19,.44,.1,.29,.39,.05,.39-.15,.34-.19,.24Z"/><path class="cls-3" d="M173.13,82.87l.68,.1,.39,.1,.34,.1,.29,.15,.24,.24,.1,.29-.1,.29-.15,.39-.1,.24-.15,.39-.1,.29-.1,.34-.1,.29-.15,.29-.15,.34-.15,.29-.24,.68-.1,.29-.1,.34-.1,.34-.1,.29-.24,.68-.19,.44-.15,.44-.15,.34-.1,.34-.1,.34-.1,.34-.1,.29-.24,.68-.1,.29-.1,.34-.1,.34-.05,.29-.1,.34-.05,.24,.19-.05,.34-.15,.29-.24,.39-.24,.39-.24,.34-.15,.39-.19,.44-.15,.39-.1,.48-.1,.58-.1,.63-.05h.48l.39,.05,.68,.15,.29,.15,.34,.15,.29,.19,.24,.19,.44,.53,.19,.24,.24,.24,.19,.29,.1,.34,.15,.29,.1,.34,.1,.34,.05,.29,.1,.34,.05,.39,.05,.34v.34l-.05,.34v.34l-.05,.34-.05,.39-.15,.68-.05,.39-.15,.68-.24,.68-.1,.34-.29,.68-.1,.34-.15,.29-.29,.68-.24,.29-.1,.24,.1,.15,.24,.1,.34-.05,.39-.05,.34-.05,.34-.1,.29-.1,.34-.1,.29-.19,.53-.44,.24-.19,.53-.53,.19-.24,.19-.29,.24-.29,.39-.58,.19-.24,.15-.29,.19-.34,.1-.29,.19-.29,.29-.19,.44,.1,.29,.34,.1,.39-.1,.34-.29,.58-.19,.29-.15,.29-.19,.29-.24,.29-.15,.19-.24,.34-.19,.29-.24,.29-.24,.24-.24,.24-.24,.19-.24,.24-.29,.24-.24,.24-.24,.19-.29,.15-.63,.24-.34,.1-.29,.1-.34,.05-.39,.05-.34,.05h-.58l-.39-.05-.68-.1-.29,.1-.24,.19-.24,.24-.53,.44-.29,.19-.34,.24-.58,.34-.24,.15-.29,.15-.34,.15-.34,.1-.29,.1-.34,.1-.34,.1-1.35,.15h-.34l-.77-.1-.34-.05-.29-.1-1.02-.34-.29-.19-.34-.19-.24-.24-.24-.24-.24-.29-.19-.24-.19-.34-.1-.29-.1-.34-.15-.68-.1-.29-.05-.34-.05-.39,.05-.34v-.34l.05-.34,.05-.39,.1-.68v-.34l.05-.34,.05-.39,.1-.48,.24-1.26,.1-.48,.1-.39,.15-.68,.05-.34,.1-.34,.1-.34,.1-.34,.1-.34,.15-.68,.15-.48,.1-.44,.15-.68,.1-.34,.19-.68,.1-.34,.1-.29,.24-.68,.1-.29,.24-.68,.1-.29,.15-.34,.24-.63,.1-.34,.1-.39,.1-.24,.1-.39,.1-.34,.1-.29,.15-.34,.1-.29,.15-.34,.1-.29,.1-.34,.15-.29,.1-.34,.1-.29,.34-1.02,.29-.58,.24-.24,.29-.15,.29-.1Zm1.6,12.05l-.39,.1-.24,.1-.39,.1-.29,.15-.34,.15-.29,.15-.24,.19-.58,.39-.24,.19-.29,.24-.19,.15-.24,.29-.19,.24-.1,.29-.1,.34-.1,.29-.1,.34-.1,.34-.1,.48-.1,.44-.1,.34-.1,.34-.1,.39-.1,.44-.1,.48-.05,.39v.34l-.05,.34v.34l.05,.34v.73l.1,.48,.1,.44,.15,.34,.15,.29,.53,.44,.29,.19,.29,.1,.68,.1,.68-.1,.68-.15,.29-.1,.29-.15,.29-.24,.24-.19,.29-.19,.24-.24,.15-.24v-.19l-.15-.29-.19-.39-.1-.44,.1-.39,.29-.34,.39-.24,.34-.1,.29,.05,.24,.1,.24-.1,.15-.24,.15-.29,.1-.34,.1-.34,.1-.29,.34-1.02,.1-.34,.05-.34,.1-.34,.1-1.02v-1.02l-.05-.34-.15-.68-.15-.29-.19-.29-.24-.24-.58-.29-.34-.1-.29-.05-.68-.1-.34,.1Z"/><path class="cls-3" d="M193.11,100.43v.39l-.1,.34-.29,.58-.34,.58-.19,.34-.15,.29-.24,.34-.1,.24-.19,.34-.19,.29-.19,.24-.24,.29-.19,.24-.39,.58-.68,.77-.44,.48-.24,.24-.24,.24-.24,.24-.82,.63-.24,.19-.34,.15-.34,.1-.29,.1-.68,.15h-.63l-.39-.05-.29-.1-.34-.1-.29-.19-.24-.24-.19-.24-.19-.29-.15-.34-.1-.29-.1-.34-.05-.34v-.34l.1-.68,.1-.34,.1-.34,.15-.68,.1-.29,.1-.34,.1-.34,.1-.29,.34-1.02,.05-.29,.1-.34,.1-.34,.1-.34,.1-.29,.24-.68,.1-.44,.1-.48,.24-.68,.1-.34,.1-.24,.1-.34,.15-.39,.1-.29,.24-1.02,.1-.34,.1-.44,.15-.48,.1-.34,.15-.29,.24-.19,.34-.15,.29-.05,.39,.05,.68,.1,.58,.24,.19,.24v.34l-.1,.34-.1,.44-.1,.48-.24,.68-.1,.29-.1,.34-.1,.39-.1,.44-.39,1.11-.1,.34-.15,.48-.24,.77-.1,.34-.1,.29-.1,.34-.24,.63-.1,.34-.24,.92-.24,.68-.1,.34-.1,.48-.1,.58-.1,.63,.1,.58,.29,.39,.39,.1,.34-.05,.34-.15,.24-.19,.29-.24,1.21-1.21,.24-.24,.19-.24,.24-.29,.39-.58,.24-.24,.15-.24,.19-.29,.24-.34,.15-.34,.29-.63,.44-.87,.19-.29,.34-.19,.48,.1,.29,.39Zm-6-11.42l.19-.29,.29-.24,.29-.19,.39-.1,.34-.1h.39l.34,.1,.29,.19,.24,.24,.24,.24,.19,.29,.1,.34,.05,.34v.39l-.1,.34-.19,.29-.24,.29-.24,.24-.29,.24-.34,.15-.39,.1-.34-.05-.39-.1-.58-.39-.24-.24-.19-.29-.1-.34-.05-.34,.05-.34,.1-.39,.19-.39Z"/><path class="cls-3" d="M202.84,90.61l-.19,.34-.29,.58-.19,.39-.24,.39-.19,.24-.19,.29-.19,.24-.19,.34-.15,.24-.19,.29-.24,.34-.34,.44-.34,.34-.15,.19-.24,.29-.48,.48-.24,.24-.39,.44-.24,.24-.29,.29-.39,.29-.58,.48-.29,.19-.82,.53-.24,.1-.29,.19-.39,.34-.24,.34-.15,.29-.1,.39-.1,.68v.24l-.1,.39-.1,.34-.05,.39v.77l-.05,.48v.73l.1,.39,.05,.24,.1,.39,.15,.34,.15,.29,.24,.24,.29,.19,.29,.1,.39,.1h.63l.29-.05,.34-.1,.44-.19,.39-.24,.29-.24,.39-.29,.34-.34,.44-.39,.29-.24,.24-.29,.15-.19,.24-.29,.15-.24,.24-.34,.15-.19,.24-.34,.29-.58,.19-.29,.24-.34,.19-.34,.19-.39,.34-.48,.39-.29,.48,.1,.29,.39v.39l-.1,.34-.15,.29-.19,.29-.15,.34-.15,.29-.1,.29-.19,.29-.15,.24-.19,.29-.24,.34-.1,.19-.19,.34-.24,.29-.39,.53-.24,.34-.15,.15-.24,.34-.24,.24-.29,.39-.34,.29-.24,.24-.24,.19-.24,.24-.34,.19-.29,.15-.34,.15-.29,.15-.29,.1-.34,.15-.44,.15-.73,.15-.44,.05-.39-.05h-.24l-.39-.05-.34-.1-.29-.1-.34-.1-.29-.15-.29-.19-.24-.24-.24-.24-.24-.24-.15-.29-.15-.34-.1-.29-.1-.34-.1-.34-.05-.34-.1-.39v-.19l-.1-.39-.05-.34v-.34l.05-.34,.05-.39v-.24l.05-.48,.1-.82,.05-.44v-.34l.1-.34,.1-.39,.24-1.21,.1-.44,.1-.68,.1-.19,.1-.44,.1-.24,.15-.58,.1-.48,.1-.34,.1-.44,.15-.53,.05-.24,.15-.53,.15-.48,.1-.24,.15-.48,.15-.44,.15-.34,.39-.97,.1-.24,.24-.53,.24-.58,.19-.44,.15-.34,.1-.24,.19-.34,.24-.63,.19-.39,.19-.34,.24-.34,.29-.48,.48-.68,.24-.29,.48-.48,.15-.19,.24-.24,.24-.19,.58-.39,.39-.24,.39-.19,.34-.1,.34-.1h.68l.39,.1,.24,.05,.39,.1,.29,.15,.53,.44,.19,.29,.24,.39,.19,.44,.15,.34,.15,.44,.1,.48v.68l-.1,1.02-.15,.68-.1,.29-.1,.39-.29,.87-.15,.29-.29,.44Zm-6.14,1.02l-.53,1.55-.1,.34-.1,.34-.15,.48-.24,.77-.1,.39-.05,.24-.1,.39-.1,.34-.1,.39,.1,.24,.24-.15,.39-.29,1.5-1.5,.19-.24,.19-.29,.24-.34,.15-.15,.24-.34,.24-.34,.24-.39,.24-.39,.19-.29,.15-.24,.19-.24,.29-.58,.15-.39,.1-.24,.15-.39,.15-.34,.1-.34,.1-.34,.1-.39,.15-.39,.1-.39,.15-.39,.05-.39,.05-.34v-.73l-.1-.29-.1-.29-.24-.19-.29-.1-.34,.1-.34,.24-.24,.24-.19,.24-.19,.24-.19,.29-.39,.58-.19,.34-.15,.34-.15,.29-.15,.34-.15,.29-.15,.34-.1,.29-.15,.39-.24,.58-.15,.34-.39,.73Z"/><path class="cls-3" d="M211.01,100.43v.39l-.1,.34-.29,.58-.34,.58-.19,.34-.19,.29-.24,.34-.1,.24-.19,.34-.19,.29-.19,.24-.24,.29-.19,.24-.39,.58-.68,.77-.44,.48-.24,.24-.24,.24-.24,.24-.82,.63-.24,.19-.34,.15-.34,.1-.29,.1-.68,.15h-.63l-.39-.05-.29-.1-.34-.1-.29-.19-.24-.24-.19-.24-.19-.29-.15-.34-.1-.29-.1-.34-.05-.34v-.34l.1-.68,.1-.34,.1-.34,.15-.68,.1-.29,.1-.34,.1-.34,.1-.29,.34-1.02,.05-.29,.1-.34,.1-.34,.1-.34,.1-.29,.24-.68,.1-.44,.1-.48,.24-.68,.1-.34,.1-.24,.1-.34,.15-.39,.1-.29,.24-1.02,.1-.34,.1-.44,.15-.48,.1-.34,.15-.29,.24-.19,.34-.15,.29-.05,.39,.05,.68,.1,.58,.24,.19,.24v.34l-.1,.34-.1,.44-.1,.48-.24,.68-.1,.29-.1,.34-.1,.39-.1,.44-.39,1.11-.1,.34-.15,.48-.24,.77-.1,.34-.1,.29-.1,.34-.24,.63-.1,.34-.24,.92-.24,.68-.1,.34-.1,.48-.1,.58-.1,.63,.1,.58,.29,.39,.39,.1,.34-.05,.34-.15,.24-.19,.29-.24,1.21-1.21,.24-.24,.19-.24,.24-.29,.39-.58,.24-.24,.15-.24,.19-.29,.24-.34,.15-.34,.29-.63,.44-.87,.19-.29,.34-.19,.48,.1,.34,.39Zm-6-11.42l.19-.29,.29-.24,.29-.19,.39-.1,.34-.1h.39l.34,.1,.29,.19,.24,.24,.24,.24,.19,.29,.1,.34,.05,.34v.39l-.1,.34-.19,.29-.24,.29-.24,.24-.29,.24-.34,.15-.39,.1-.34-.05-.39-.1-.58-.39-.24-.24-.19-.29-.1-.34-.05-.34,.05-.34,.1-.39,.19-.39Z"/><path class="cls-3" d="M221.36,100.33v.39l-.15,.39-.44,.82-.15,.34-.15,.29-.39,.58-.15,.24-.19,.29-.29,.58-.15,.24-.24,.39-.44,.53-.19,.29-.19,.24-.24,.24-.73,.73-.53,.39-.53,.44-.29,.24-.39,.24-.44,.19-.34,.15-.34,.1-.29,.1-.34,.05h-1.02l-.34-.05-.34-.1-.44-.15-.39-.19-.29-.19-.53-.44-.19-.24-.19-.29-.29-.58-.1-.29-.1-.34-.1-.34-.1-.29v-.34l-.05-.34v-.34l-.05-.39v-.34l.1-1.02v-.34l.19-1.69,.1-.34,.05-.34,.15-.68,.1-.48,.1-.44,.1-.34,.1-.34,.1-.34,.1-.34,.1-.34,.1-.44,.15-.48,.24-.68v-.29l-.1-.19-.24-.1-.29-.05-.39-.1-.39-.15-.24-.34-.1-.34-.05-.39,.1-.29,.15-.24,.24-.19,.48-.05,.58,.05h.58l.39-.1,.15-.24,.1-.39,.1-.29,.1-.34,.15-.29,.15-.34,.1-.29,.24-.68,.15-.68,.1-.34,.15-.29,.24-.68,.1-.29,.15-.34,.1-.34,.1-.29,.1-.34,.15-.29,.15-.34,.1-.29,.1-.34,.15-.34,.19-.24,.29-.19,.34-.1,.39,.05,.44,.1,.48,.1,.34,.19,.29,.24,.1,.39-.1,.34-.19,.48-.24,.53-.19,.48-.1,.39-.1,.24-.1,.39-.39,1.21-.1,.29-.1,.34-.15,.48-.24,.58-.29,.87-.1,.34-.15,.29-.1,.29v.24l.24,.19,.39,.1h.39l.63-.05,.53-.05h1.16l.48,.05,.24,.24,.1,.39v.48l-.1,.34-.19,.24-.24,.19-.34,.1-.34,.1-.39,.05-1.02,.05h-.39l-.34-.05h-1.35l-.24,.15-.1,.29-.15,.44-.15,.58-.15,.63-.19,.58-.15,.63-.15,.58-.1,.53-.05,.24-.15,.53-.1,.39-.1,.39-.15,.68-.05,.44-.1,.48-.1,.68v1.02l.1,.48,.1,.44,.1,.34,.15,.34,.19,.24,.39,.24,.53,.24,.39,.1h.39l.39-.1,.87-.44,1.02-.87,.24-.24,.19-.24,.39-.48,.48-.58,.19-.24,.15-.29,.19-.29,.24-.29,.19-.24,.19-.29,.15-.29,.1-.34,.19-.39,.19-.29,.24-.39,.44-.29,.48,.1,.29,.29Z"/><path class="cls-3" d="M238.54,100.33l.05,.39-.15,.29-.15,.39-.34,.68-.24,.39-.24,.34-.24,.39-.19,.39-.15,.34-.39,.58-.15,.19-.19,.34-.19,.29-.24,.29-.24,.34-.29,.39-.24,.29-.24,.24-.48,.48-.19,.24-.24,.24-.48,.39-.24,.24-.29,.24-.63,.39-.24,.15-.82,.53-.68,.34-.39,.19-.24,.24-.24,.24-.24,.68-.1,.34-.34,1.02-.1,.39-.1,.34-.1,.39-.15,.44-.19,.44-.15,.34-.1,.29-.19,.34-.1,.24-.19,.34-.29,.58-.19,.24-.44,.53-.24,.24-.24,.24-.29,.24-.39,.24-.39,.24-.34,.19-.44,.15-.53,.1-.44,.1h-1.02l-.58-.1-.44-.15-.39-.15-.39-.29-.39-.39-.29-.39-.19-.39-.1-.44-.1-.44v-.34l.05-.34,.1-.34,.1-.29,.1-.34,.1-.29,.15-.34,.24-.39,.24-.39,.24-.29,.68-.68,.29-.19,.34-.24,1.02-.73,.29-.19,.39-.19,.19-.1,.97-.44,.24-.1,.48-.24,.44-.19,.34-.19,.39-.19,.34-.29,.19-.29,.1-.34,.1-.29,.1-.34,.1-.34,.1-.29,.1-.34,.19-.63,.1-.34,.1-.34,.29-.87,.1-.39,.1-.34h-.05l-.19,.24-.24,.24-.19,.24-.24,.24-.39,.53-.24,.24-.24,.29-.44,.44-.39,.29-.34,.34-.29,.24-.24,.19-.34,.15-.39,.24-.44,.24-.34,.1-.68,.15-.44,.05-.48,.1-.34-.05-.39-.1-.34-.1-.39-.15-.39-.19-.29-.24-.24-.24-.19-.29-.19-.39-.15-.44-.05-.39v-.44l-.05-.48v-.39l.05-.44,.1-.48,.05-.39,.1-.39,.1-.24,.1-.39,.05-.34,.1-.34,.1-.34,.1-.34,.29-1.35,.1-.29,.24-.68,.15-.39,.1-.34,.1-.24,.24-.68,.1-.29,.1-.39,.05-.34,.1-.29,.24-.68,.1-.34,.1-.34,.24-1.02,.1-.29,.19-.24,.34-.15,.34-.05,.39-.05h.34l.39,.05,.29,.1,.29,.19,.15,.24v.29l-.05,.34-.1,.34-.1,.34-.24,1.02-.1,.29-.1,.34-.1,.34-.24,1.02-.1,.29-.1,.34-.15,.34-.1,.48-.1,.44-.15,.68-.24,.68-.05,.34-.1,.34-.1,.29-.1,.34-.1,.34-.1,.39-.05,.24-.1,.39-.1,.34-.1,.39-.05,.34v.73l.05,.34,.15,.34,.24,.24,.34,.1,.34,.1,.34,.05,.34-.1,.34-.1,.29-.19,.24-.24,.29-.24,.29-.24,.15-.15,.39-.29,.44-.44,.24-.24,.19-.24,.24-.34,.1-.19,.24-.34,.24-.29,.19-.24,.19-.34,.15-.29,.1-.34,.19-.34,.15-.19,.29-.68,.1-.29,.1-.34,.24-.48,.24-.53,.15-.48,.1-.34,.1-.34,.1-.34,.1-.29,.15-.34,.15-.39,.1-.44,.1-.39,.15-.68,.1-.39,.1-.44,.1-.39,.15-.29,.24-.24,.34-.1,.34-.05h.73l.39,.1,.34,.1,.29,.19,.1,.24v.34l-.05,.34-.1,.34-.24,.58-.1,.34-.1,.48-.1,.44-.1,.39-.1,.44-.15,.39-.1,.39-.1,.44-.15,.48-.15,.68-.1,.34-.1,.44-.15,.44-.1,.34-.1,.34-.1,.34-.1,.44-.1,.48-.1,.34-.1,.29-.1,.34-.1,.44-.15,.44-.1,.39-.1,.48-.1,.44-.15,.68-.1,.39-.1,.24-.1,.39v.39l.24,.1,.48-.15,.39-.24,.34-.19,.24-.19,.29-.24,.24-.24,.19-.15,.29-.29,.24-.24,.24-.24,.24-.24,.24-.24,.19-.24,.44-.53,.24-.24,.19-.24,.24-.29,.19-.29,.34-.58,.39-.58,.39-.82,.19-.34,.19-.29,.44-.87,.34-.24,.44,.05,.29,.34Zm-12.14,12.24l.1-.44-.19-.1-.39,.15-.29,.19-.29,.24-.24,.19-.77,.44-.24,.24-.29,.24-.58,.58-.39,.48-.34,.53-.19,.58-.05,.44,.1,.34,.34,.34,.48,.24h.48l.39-.1,.58-.39,.24-.29,.19-.29,.24-.24,.19-.29,.19-.39,.15-.34,.1-.24,.1-.39,.15-.44,.15-.58,.1-.73Z"/><g><path class="cls-1" d="M22.59,55.15c-.1,.92,.05,1.55,.39,1.93,.19,.24,.39,.34,.53,.39,.19,.05,.29,.05,.29,.05v.39s-.15,0-.29,.05c-.15,.05-.34,.15-.58,.29s-.44,.39-.63,.68c-.19,.29-.29,.77-.39,1.35l-.58,4.26c-.24,1.69-.73,3.05-1.55,3.97s-1.69,1.6-2.61,2.03c-.92,.44-1.74,.68-2.47,.77s-1.11,.1-1.16,.1H6.19c-.34,0-.77-.1-1.26-.24s-1.02-.34-1.55-.63c-.53-.24-1.06-.68-1.5-1.21-1.06-1.16-1.45-2.85-1.21-4.93l.53-4.21c.15-.82,0-1.5-.34-1.93-.19-.19-.39-.29-.58-.39-.15-.05-.24-.05-.29-.05v-.34c.34-.05,.63-.19,.82-.34s.39-.39,.63-.68c.19-.29,.34-.77,.39-1.35l1.4-11.03c.19-1.69,.73-3.05,1.55-3.97s1.69-1.6,2.61-2.03,1.74-.68,2.47-.77c.73-.1,1.11-.1,1.16-.1h7.35c.34,0,.77,.1,1.26,.24s1.02,.34,1.55,.63c.58,.29,1.06,.68,1.55,1.16,1.02,1.26,1.45,2.9,1.21,4.89l-1.35,11.03Zm-14.56,8.18c-.05,.24,0,.48,.15,.68,.05,.1,.19,.19,.44,.24,.1,.05,.19,.05,.24,.05h4.55s.19-.05,.53-.1c.29-.1,.48-.39,.58-.87l2.27-18.04c0-.29-.05-.53-.19-.68-.1-.1-.24-.19-.44-.24-.1-.05-.19-.05-.24-.05h-4.5s-.19,.05-.53,.15c-.29,.1-.48,.39-.58,.82l-2.27,18.04Z"/><path class="cls-1" d="M62.16,38.07c-.58,1.74-1.21,3.58-1.84,5.51-.53,1.64-1.11,3.48-1.84,5.56-.68,2.03-1.4,4.16-2.08,6.29-.05,.73,.1,1.31,.44,1.69,.15,.19,.34,.29,.48,.34,.19,.05,.29,.05,.29,.05v.39h-.05c-.1,0-.24,0-.44,.05s-.44,.1-.68,.19-.53,.29-.77,.53-.48,.58-.68,.97l-.19,.68v-.05c-.73,2.32-1.35,4.11-1.84,5.47-.48,1.35-.82,2.42-1.06,3.14s-.39,1.21-.48,1.45-.15,.39-.15,.44c-.15,.29-.34,.48-.48,.58-.19,.05-.29,.1-.29,.1h-5.66c-.1,0-.24-.05-.39-.15-.15-.1-.24-.29-.34-.53-.05-.1-.1-1.06-.24-2.9-.15-1.84-.39-4.55-.68-8.13l-.39-4.55-1.55,4.74c-.39,1.21-.82,2.47-1.26,3.68-.44,1.26-.82,2.37-1.16,3.43-.34,1.06-.63,1.89-.87,2.61-.24,.68-.39,1.06-.39,1.11-.05,.15-.15,.29-.24,.34-.1,.1-.19,.15-.24,.19-.1,.05-.19,.1-.29,.1h-5.66c-.15,0-.24-.05-.39-.15-.15-.1-.24-.29-.29-.53,0-.05,0-.19-.05-.44s-.1-.77-.15-1.55c-.05-.77-.15-1.89-.29-3.34-.15-1.45-.29-3.34-.48-5.76-.05-.44-.19-.77-.44-1.02s-.44-.44-.68-.53c-.24-.1-.44-.19-.68-.19-.24-.05-.34-.05-.39-.05v-.39c.29-.05,.58-.15,.77-.29s.39-.34,.58-.63c.19-.29,.34-.68,.44-1.21-.19-2.13-.34-4.26-.53-6.29-.15-2.03-.29-3.92-.48-5.61-.15-1.93-.29-3.77-.44-5.51,.05-.29,.19-.48,.34-.58,.19-.1,.34-.15,.48-.15h5.66s.15,0,.19,.05,.1,.05,.15,.05,.1,.05,.15,.1c.15,.15,.19,.29,.15,.58l.87,17.08c.19-.63,.44-1.45,.77-2.56,.34-1.06,.73-2.23,1.11-3.43s.82-2.47,1.21-3.77,.77-2.47,1.11-3.53c.34-1.06,.63-1.98,.87-2.66s.39-1.11,.39-1.21c.15-.34,.29-.53,.44-.63,.19-.05,.29-.1,.34-.1h5.9s.15,0,.19,.05c.15,.05,.19,.15,.29,.19,.05,.05,.1,.19,.1,.39v.19l.82,17.08c.19-.63,.44-1.45,.82-2.56,.34-1.06,.73-2.23,1.11-3.43s.77-2.47,1.21-3.77,.82-2.47,1.16-3.53,.63-1.98,.87-2.66,.39-1.11,.39-1.21c.15-.34,.29-.53,.44-.63,.19-.05,.29-.1,.34-.1h6.1c.15,0,.19,.1,.29,.19,.39,.29,.34,.48,.24,.73Z"/><path class="cls-1" d="M87.61,37.44c.1,.1,.15,.29,.15,.58l-2.13,17.17c-.1,.92,.05,1.55,.39,1.93,.15,.19,.34,.29,.58,.39,.1,.05,.19,.05,.29,.05v.39s-.15,0-.29,.05-.34,.15-.58,.29-.44,.39-.63,.68c-.19,.29-.29,.77-.39,1.35h-.05l-1.31,10.4c-.05,.29-.15,.53-.34,.63-.19,.1-.34,.15-.48,.15h-5.66c-.24,0-.44-.1-.53-.29-.1-.19-.15-.34-.19-.39l-4.5-15.48-1.93,15.43c-.05,.29-.15,.53-.34,.63-.19,.1-.34,.15-.48,.15h-5.9c-.15,0-.24-.1-.34-.19-.15-.15-.19-.29-.15-.58l1.35-10.88c.05-.63-.05-1.11-.39-1.45-.19-.19-.39-.29-.58-.39-.15-.05-.24-.05-.29-.05v-.39c.29-.05,.58-.15,.73-.24,.19-.1,.39-.29,.58-.58,.19-.24,.34-.63,.44-1.11l2.23-17.66c.05-.29,.15-.48,.34-.58s.34-.15,.48-.15h5.8c.24,0,.44,.1,.53,.29,.1,.19,.15,.34,.19,.39l4.45,15.48,1.98-15.43c.05-.29,.15-.48,.34-.58s.34-.15,.48-.15h5.8c.15-.05,.24,.05,.34,.15Z"/><path class="cls-1" d="M115.62,37.39c.1,.1,.15,.29,.15,.58l-.68,5.66c-.05,.29-.19,.48-.34,.58-.19,.1-.34,.15-.48,.15h-12.43s-.1,0-.19,.05-.19,.15-.19,.34l-1.16,9c0,.15,.05,.19,.1,.24,.05,.1,.1,.15,.24,.15h5.85c.1,0,.19,.1,.29,.19,.15,.15,.19,.29,.15,.53l-.68,5.66c-.05,.29-.15,.48-.34,.58-.19,.1-.34,.15-.48,.15h-5.66s-.1,0-.24,.05-.19,.15-.24,.34l-.29,2.27c0,.15,0,.19,.05,.24s.15,.1,.29,.1h12.38s.1,0,.19,.05c.1,.05,.19,.1,.29,.19,.05,.05,.1,.15,.15,.19,.05,.1,.05,.19,0,.34l-.68,5.66c-.05,.29-.15,.48-.34,.58-.19,.1-.34,.15-.48,.15h-19.45c-.15,0-.24-.1-.34-.19-.15-.15-.19-.29-.15-.53l1.31-10.45c.1-.92-.05-1.55-.39-1.93-.24-.19-.39-.29-.53-.39-.1-.05-.19-.05-.29-.05v-.39c.34-.05,.63-.19,.82-.34s.39-.39,.58-.68c.19-.29,.34-.77,.44-1.35l2.13-17.17c.05-.29,.15-.48,.34-.58s.34-.15,.48-.15h19.45c.19,0,.29,.1,.39,.19Z"/><path class="cls-1" d="M140.92,39.33c1.06,1.26,1.45,2.85,1.16,4.84l-1.35,11.03c-.1,.82-.29,1.4-.63,1.79-.34,.39-.63,.63-.92,.73,.19,.15,.34,.24,.44,.34,.44,.48,.63,1.21,.53,2.08-.1,.63-.19,1.16-.24,1.69-.05,.48-.15,1.06-.19,1.69-.1,.63-.15,1.31-.24,1.93l-.68,5.22c-.05,.29-.15,.48-.34,.58-.19,.1-.34,.15-.48,.15h-5.56c-.24,0-.44-.1-.63-.24-.15-.15-.19-.24-.19-.34-.05-.05-.05-.15,0-.19l1.06-8.56c.05-.24,0-.48-.15-.68-.15-.15-.29-.19-.53-.19h-5.22s-.1,0-.19,.05c-.1,.05-.19,.15-.19,.34l-1.16,9c0,.15-.05,.34-.19,.48-.15,.19-.34,.24-.68,.24h-5.61c-.15,0-.29,0-.34-.05-.1-.05-.15-.1-.19-.15-.05-.15-.1-.24-.1-.34s0-.19,.05-.19l1.26-10.4c.15-.82,0-1.5-.34-1.93-.19-.19-.39-.29-.58-.39-.15-.05-.24-.05-.29-.05v-.39c.34-.05,.63-.19,.82-.34,.19-.15,.39-.39,.63-.68,.19-.29,.34-.77,.39-1.35l2.13-17.17c.05-.29,.19-.48,.34-.58,.19-.1,.34-.15,.44-.15h13.01s.19,0,.58,.05c.34,.05,.77,.1,1.26,.24s1.02,.34,1.55,.63c.63,.34,1.11,.73,1.6,1.26Zm-6.14,5.95c.05-.29,0-.48-.15-.68-.1-.1-.24-.19-.44-.24-.1-.05-.19-.05-.24-.05h-5.03s-.15,0-.24,.05-.19,.15-.19,.34l-1.11,9c-.05,.1,0,.19,.05,.24s.1,.1,.24,.1h5.08s.19-.05,.53-.1c.29-.1,.48-.34,.58-.82l.92-7.84Z"/><path class="cls-1" d="M169.6,37.44c.15,.15,.19,.29,.15,.58l-.68,5.66c-.05,.29-.19,.48-.34,.58-.19,.1-.34,.15-.48,.15h-9.58c-.48,0-.87,0-1.31,.05-.39,.05-.73,.15-1.06,.34-.29,.19-.58,.53-.82,.97s-.39,1.06-.48,1.89l-.44,3.39c-.15,1.11,0,1.89,.44,2.37,.34,.39,.82,.58,1.45,.68,.63,.05,1.26,.1,1.93,.1h3.87c.24,0,.58,.1,.97,.19s.77,.29,1.21,.53,.82,.58,1.21,1.02c1.11,1.26,1.5,3,1.21,5.22l-.44,3.39c-.24,1.69-.73,3.05-1.55,3.97s-1.69,1.6-2.61,2.03c-.92,.44-1.74,.68-2.47,.77s-1.11,.1-1.16,.1h-13.21c-.15,0-.24-.1-.34-.19-.15-.15-.19-.29-.15-.53l.68-5.66c.05-.29,.19-.48,.34-.58,.19-.1,.34-.15,.48-.15h11.27c.34-.05,.63-.1,.82-.19,.19-.1,.39-.24,.58-.48,.19-.19,.29-.53,.34-.87,.05-.48,0-.82-.24-1.02-.19-.19-.44-.29-.68-.39-.15-.05-.24-.05-.39-.05h-5.37c-.24,0-.53-.05-.92-.15s-.77-.19-1.26-.34c-.44-.15-.92-.39-1.35-.68-1.89-1.26-2.66-3.19-2.27-5.85l1.31-10.11c.15-1.16,.39-2.13,.82-2.9,.44-.77,.92-1.45,1.5-1.98s1.16-.92,1.79-1.21c.63-.29,1.21-.48,1.74-.63s1.16-.19,1.89-.29h13.21c.19,.1,.29,.19,.39,.29Z"/><path class="cls-1" d="M194.23,55.2c-.15,.92-.05,1.55,.39,1.93,.05,.15,.15,.19,.24,.24s.19,.1,.24,.1c.1,.05,.19,.05,.29,.05v.39c-.34,.05-.63,.19-.82,.34-.19,.15-.39,.39-.63,.68-.19,.29-.34,.77-.39,1.35l-1.31,10.45c-.05,.29-.15,.48-.34,.58-.19,.1-.34,.15-.48,.15h-5.9c-.15,0-.24-.1-.34-.19-.15-.15-.19-.29-.15-.53l1.11-9.05c.05-.1,0-.19-.05-.24s-.1-.1-.24-.1h-5.66s-.1,0-.24,.05-.19,.15-.24,.34l-1.11,9.05c-.05,.29-.15,.48-.34,.58-.19,.1-.34,.15-.48,.15h-5.9c-.15,0-.24-.1-.34-.19-.15-.15-.19-.29-.15-.53l1.31-10.45c.1-.87-.05-1.5-.39-1.93-.24-.19-.39-.29-.53-.39-.1-.05-.19-.05-.29-.05v-.39c.34-.05,.63-.19,.82-.34,.19-.15,.39-.39,.58-.68,.19-.29,.34-.77,.44-1.35l2.13-17.17c.05-.29,.15-.48,.34-.58,.19-.1,.34-.15,.48-.15h5.9c.15,0,.24,.1,.34,.19s.15,.29,.15,.58l-2.03,15.77c0,.1,.05,.19,.1,.24,.05,.1,.1,.15,.24,.15h5.66s.1,0,.19-.05c.1-.05,.19-.15,.19-.34l1.98-15.77c.05-.29,.15-.48,.34-.58,.19-.1,.34-.15,.48-.15h5.9c.15,0,.24,.1,.34,.19s.15,.29,.15,.58l-1.98,17.08Z"/><path class="cls-1" d="M208.64,55.2c-.15,.92-.05,1.55,.39,1.93,.05,.15,.15,.19,.24,.24s.19,.1,.24,.1c.1,.05,.19,.05,.29,.05v.39c-.34,.05-.63,.19-.82,.34-.19,.15-.39,.39-.63,.68-.19,.29-.34,.77-.39,1.35l-1.31,10.4c-.05,.29-.15,.53-.34,.63-.19,.1-.34,.15-.48,.15h-5.85c-.15,0-.24-.1-.34-.19-.15-.15-.19-.29-.15-.58l1.35-10.59c.05-.77-.1-1.35-.44-1.74-.24-.19-.39-.29-.53-.39-.1-.05-.19-.05-.29-.05v-.39c.29-.05,.58-.15,.77-.29s.39-.34,.58-.68c.19-.29,.34-.73,.44-1.31l2.18-17.32c.05-.29,.15-.48,.34-.58,.19-.1,.34-.15,.48-.15h5.9c.15,0,.24,.1,.34,.19s.15,.29,.15,.58l-2.13,17.22Z"/><path class="cls-1" d="M237.09,39.33c1.11,1.26,1.5,2.85,1.21,4.84l-1.26,10.16c-.15,1.16-.44,2.13-.87,2.9-.44,.77-.92,1.45-1.5,1.98-.58,.53-1.16,.92-1.84,1.21-.63,.29-1.21,.48-1.74,.63s-1.16,.24-1.89,.29h-6.19s-.1,0-.24,.05-.19,.15-.24,.34l-1.11,9c-.05,.29-.15,.53-.34,.63-.19,.1-.34,.15-.48,.15h-5.9c-.15,0-.24-.1-.34-.19-.15-.15-.19-.29-.15-.58l1.31-10.4c.1-.92-.05-1.55-.39-1.93-.24-.19-.39-.29-.53-.39-.1-.05-.19-.05-.29-.05v-.39c.34-.05,.63-.19,.82-.34,.19-.15,.39-.39,.58-.68,.19-.29,.34-.77,.44-1.35l2.13-17.17c.05-.29,.15-.48,.34-.58,.19-.1,.34-.15,.48-.15h13.06s.24,0,.58,.05,.77,.1,1.26,.24,1.02,.34,1.55,.63c.58,.19,1.11,.58,1.55,1.11Zm-6.1,5.95c.05-.29,0-.48-.15-.68-.1-.1-.24-.19-.44-.24-.1-.05-.19-.05-.24-.05h-5.08s-.1,0-.19,.05c-.1,.05-.19,.15-.19,.34l-1.16,9c0,.1,.05,.19,.1,.24s.1,.1,.24,.1h5.08c.24-.05,.39-.05,.53-.1,.15-.05,.24-.15,.34-.24,.1-.15,.19-.29,.19-.58l.97-7.84Z"/></g><g><path class="cls-4" d="M88.96,25.98V3.68h-4.31c-4.55,0-6.14,1.74-6.14,3.92,0,1.84,1.21,3.43,3.87,3.43v3.68c-5.27,0-7.74-3.24-7.74-7.11C74.64,3.19,77.45,.05,84.66,.05h15.38V3.72h-7.21V26.03h-3.87v-.05Z"/><path class="cls-4" d="M118.52,25.98l-2.13-5.18h-11.71l-2.13,5.18h-4.11c3.58-8.66,7.21-17.32,10.84-25.98h2.61c3.58,8.66,7.21,17.32,10.84,25.98h-4.21Zm-5.61-13.64l-1.21-3.43-1.11-3.58c-.39,1.21-.77,2.37-1.16,3.58l-1.21,3.43-1.98,4.79h8.66l-1.98-4.79Z"/><path class="cls-4" d="M139.61,25.98l-10.26-11.71v11.71h-3.92V0h3.92V11.76L139.61,0h4.74l-11.22,12.96,11.22,12.96h-4.74v.05Z"/><path class="cls-4" d="M147.69,25.98V0h16.5V3.68h-12.63v7.5h10.74v3.68h-10.74v7.45h12.63v3.68h-16.5Z"/></g></svg>