<?xml version="1.0" encoding="utf-8"?>
<!-- Generator: Adobe Illustrator 22.1.0, SVG Export Plug-In . SVG Version: 6.00 Build 0)  -->
<svg version="1.1" id="wall_mural" xmlns="http://www.w3.org/2000/svg" xmlns:xlink="http://www.w3.org/1999/xlink" x="0px" y="0px"
	 viewBox="0 0 576 576" style="enable-background:new 0 0 576 576;" xml:space="preserve">
<style type="text/css">
	.st0{opacity:0.5;}
	.st1{fill:#BAAFAB;}
	.st2{fill:#EE7623;}
	.st3{fill:#8C9091;}
	.st4{fill:#D3D655;}
	.st5{fill:none;stroke:#8C9091;stroke-miterlimit:10;}
	.st6{fill:#87D1E6;}
	.st7{fill:#6BB1BA;}
	.st8{fill:#AFBC37;}
	.st9{fill:#8C9091;stroke:#D3D655;stroke-miterlimit:10;}
	.st10{fill:#FFFFFF;}
</style>
<g>
	<path class="st2" d="M62.4,304.1l-0.9,0.1V197l20.4-2c7.4-0.7,14.8-0.7,18.9,5.8l5.1,4.5c3.2,2.9,5.1,7.8,5.1,16.4v63.6
		c0,21.4-16.8,22.8-21.7,23.3l-20,2L62.4,304.1z M103.3,214.9c0-19.8-10.8-20.2-21.4-19.2l-19.7,2v105.7l19.7-2
		c4.8-0.5,21.4-1.8,21.4-23L103.3,214.9z M95.6,279.2c0,12.4-7.4,14.2-13.6,14.8l-11.7,1.2V204l11.7-1.2c7.6-0.8,13.6-0.5,13.6,12.8
		V279.2z M94.8,215.8c0-2.4-0.3-4.3-0.6-5.8c-1.5-0.2-3-0.2-4.7,0l-11.4,1.1v82.6l3.8-0.4c5.9-0.6,12.9-2.3,12.9-14
		C94.8,279.3,94.8,215.8,94.8,215.8z"/>
	<path class="st2" d="M129.8,295.3c-6.4-3.3-10-10.2-10-18.5V213c0-11.8,7.4-23.4,21.8-24.8c7.6-0.8,13.5,2.3,17,7.4l4.7,4.1
		c4.1,3.8,6.4,9.6,6.4,16.1v63.6c0,11.3-6.8,23-20.4,24.4c-6.4,0.6-11.4-1.1-15-4.4L129.8,295.3z M161.8,272.5v-63.6
		c0-11.8-7.4-21.3-20.1-20c-13.9,1.4-21,12.7-21,24v63.9c0,11.9,7.9,21.1,21,19.8C155.1,295.2,161.8,283.7,161.8,272.5z M154,209.7
		v63.6c0,8-4.1,15.2-12.4,16c-8.9,0.9-13-5.6-13-13.3v-63.9c0-8.2,4.1-15.2,13-16.1C150.2,195.1,154,202.3,154,209.7z M137.1,288.2
		c1.4,0.3,2.9,0.5,4.5,0.3c7.9-0.8,11.7-7.7,11.7-15.2v-63.6c0-2.3-0.5-4.6-1.2-6.7c-0.9-0.1-1.8-0.1-2.9,0
		c-8.8,0.9-12.7,7.8-12.7,15.8v63.9C136.5,284.7,136.6,286.6,137.1,288.2z"/>
	<path class="st2" d="M225.2,188.6l8.6,57c0.2-1.5,0.3-2.9,0.6-4.4l9.4-62.4l11.4-1.1v0.9l7.1,6.4l4.1,106l-8.6,0.9l-7.1-6.4
		l-0.9,0.1l-1.4-30.8l-5.9,37l-9.1,0.9l-7.1-6.4l-0.9,0.1l-5.3-31.9l-1.5,41.4l-8.3,0.8l-7.1-6.4l-0.9,0.1l4.1-107.7l11.8-1.2l0.2,1
		L225.2,188.6z M213.4,203.5l4.4,31.9l8.3,50l8.5-0.8l8.5-51.7l5.1-33h0.3l-0.2,33.2l2.1,51.6l8-0.8l-4.1-105.4l-9.8,1l-9.4,61.6
		l-4.5,30.9l-4.1-30.1l-9.2-59.8l-10.3,1l-4.1,106.2l7.7-0.8l2-52l0.5-33.1L213.4,203.5z"/>
	<path class="st2" d="M283.2,280c-6.4-3.3-10-10.2-10-18.5v-63.9c0-11.8,7.4-23.4,21.8-24.8c7.6-0.8,13.5,2.3,17,7.4l4.7,4.1
		c4.1,3.8,6.4,9.6,6.4,16.1V264c0,11.3-6.8,23-20.4,24.4c-6.4,0.6-11.4-1.1-15-4.4L283.2,280z M315.1,257.2v-63.6
		c0-11.8-7.4-21.3-20.1-20c-13.9,1.4-21,12.7-21,24v63.9c0,11.9,7.9,21.1,21,19.8C308.5,279.9,315.1,268.4,315.1,257.2z
		 M307.4,194.4V258c0,8-4.1,15.2-12.4,16c-8.9,0.9-13-5.6-13-13.3v-63.9c0-8.2,4.1-15.2,13-16.1C303.6,179.9,307.4,187,307.4,194.4z
		 M290.4,273c1.4,0.3,2.9,0.5,4.5,0.3c7.9-0.8,11.7-7.7,11.7-15.2v-63.6c0-2.3-0.5-4.6-1.2-6.7c-0.9-0.1-1.8-0.1-2.9,0
		c-8.8,0.9-12.7,7.8-12.7,15.8v63.9C289.8,269.4,290,271.4,290.4,273z"/>
	<path class="st2" d="M333.8,277.1l-0.9,0.1V170l20-2c7.6-0.6,14.4,1.3,18,7l4.8,4.2c3.5,3.1,5.6,8.2,5.5,15.8v35.2
		c0,5.6-2.7,12.2-7.4,16.6l3.2,3l-0.5-0.4l0.9,0.7c3,2.7,4.4,6.5,4.4,10.6v18.9l-8.5,0.8l-7.1-6.4l-0.9,0.1v-19.3
		c0-0.5,0-0.8-0.2-1.2l-0.9,0.1l-14.7,1.5v27.6l-8.6,0.9L333.8,277.1z M373.9,253.8c0-5.9-2.9-11.2-9.2-13
		c5.6-4.2,8.6-11.6,8.6-17.5v-35.2c0.3-15.4-8.9-20.4-20.4-19.4l-19.2,1.9v105.7l8-0.8v-27.6l15-1.5c5.9-0.6,9.4,2.7,9.4,8.1v18.6
		l7.9-0.8L373.9,253.8L373.9,253.8z M341.7,177l11.2-1.1c8.5-0.8,12.7,4.3,12.7,13.1v35.2c0,9.4-7.3,15.1-12.7,15.6l-11.2,1.1V177z
		 M349.5,239.3l3.3-0.3c5.1-0.5,12-5.9,12-14.8V189c0-2.3-0.3-4.3-0.9-6.1c-1.1,0-2.3-0.1-3.5,0l-10.9,1.1V239.3z"/>
	<path class="st2" d="M392.1,271.3l-0.9,0.1V164.2l38.3-3.8v0.9l7.1,6.4v7.5l-28.8,2.9v55l15.7-1.6v0.9l7.1,6.4v7.5l-22.9,2.3v12.5
		l21.7-2.2v0.9l7.1,6.4v7.7l-37.4,3.7L392.1,271.3z M428.7,168.2v-6.9l-36.8,3.7v105.7l36.8-3.7v-7.1l-28.8,2.9v-21.1l22.9-2.3v-6.9
		l-22.9,2.3V171L428.7,168.2z"/>
</g>
<g>
	<g>
		<path class="st7" d="M136.1,322l4.8-0.5l8.3,58.4l-2.3,19.9h-0.4l-3.4-30L136.1,322z M165.5,353.3l-9,61.9l-9.3,0.9l-0.8-5.4
			l4.6-0.5l9.3-63.7l1.9-18.3L165.5,353.3z M149.2,379.9v0.1V379.9z M178,396.9l-4.1-30.2l-7.5-47.8l4.6-0.5l9.3,60l-2,18.4
			L178,396.9z M183,407.1l12.5-91.1l6.3-0.6L188.4,412l-9,0.9l-0.8-5.4L183,407.1z M180.4,378.5v0.1V378.5z"/>
		<path class="st7" d="M211.8,409.7v-5.4l1.8-0.2v-89.7l5.5-0.5V409L211.8,409.7z"/>
		<path class="st7" d="M236.1,318.4l-7.9,0.8v-5.4l7.9-0.8V318.4z M261.7,315.9l-13.2,1.3v88.9l-7,0.7v-5.4l1.5-0.1v-88.9l13.2-1.3
			v-0.8l5.5-0.5V315.9z"/>
		<path class="st7" d="M296.9,376.9l-17.4,1.7V403l-7.2,0.7v-5.4l1.8-0.2v-24.3l22.9-2.3L296.9,376.9L296.9,376.9z M279.5,366.8
			l-5.5,0.5v-59l5.5-0.5V366.8z M303.8,395.1v-89.7l5.5-0.5V400l-6.9,0.7v-5.4L303.8,395.1z"/>
		<path class="st7" d="M368.6,388.7v-1l5.5-0.5v6.4l-28.1,2.8V391L368.6,388.7z M353.2,383.8l-5.5,0.5V301l5.5-0.5V383.8z"/>
		<path class="st7" d="M413,384.2v-1l5.5-0.5v6.4l-33.1,3.3V387L413,384.2z M392.6,302.8v51.8l-5.5,0.5v-57.2l25.9-2.6v-0.8l5.5-0.5
			v6.3L392.6,302.8z M407.7,359.4v-0.8l5.4-0.5v6.3l-20.6,2V380l-5.5,0.5v-19L407.7,359.4z"/>
		<path class="st7" d="M430,363.5v-3.8l5.5-0.5v9.2c-0.1,2.6,0.3,5.1,1.2,7.2C432.1,373.9,429.8,369,430,363.5z M449.5,297.3
			c-1.1-0.2-2.2-0.3-3.4-0.2c-6.1,0.6-10.2,5.2-10.2,14.1V330c0.1,1.8,0.4,3.2,1.2,4.5c-3.5-2.2-6.4-4.9-6.7-9.4v-18.8
			c0-2.3,0.3-4.4,0.8-6.1c1.6-3.3,4.4-6,7.6-7.7c0.7-0.2,1.1-0.2,1.8-0.3C445.2,291.8,448.2,293.8,449.5,297.3z M431.5,380.8
			c3,1.5,6.5,2.1,10.4,1.7c2.6-0.3,4.8-0.9,6.8-1.8c5-0.9,8.2-4.6,9.3-9.6c1.5-3.1,2.2-6.6,2.2-10.3v-6.9c0-2.6-0.7-4.8-1.8-6.6
			c4.2,2.8,7.2,6.3,7.2,11.5v6.9c0,10.6-5.9,20.4-18.3,21.7C440.4,388,434.8,385.5,431.5,380.8z M452.4,351.5l-4.1-1.9l-1.8-0.8
			l-1.4-0.7c-4.9-2.2-10.2-4.7-13.5-9c2.9,1.9,6.3,3.3,9.4,4.8C446,346.3,450.5,347.9,452.4,351.5z M454.6,292
			c5.5,2.6,8.4,8.7,8.4,16.1v12.4l-6.9,0.7v-5.4l1.5-0.1v-12.4C457.6,299,456.5,295,454.6,292z"/>
		<path class="st7" d="M478.8,358.7v-3.8l5.5-0.5v9.2c-0.1,2.6,0.3,5.1,1.2,7.2C480.9,369.1,478.6,364.1,478.8,358.7z M498.3,292.4
			c-1.1-0.2-2.2-0.3-3.4-0.2c-6.1,0.6-10.2,5.2-10.2,14.1v18.8c0.1,1.8,0.4,3.2,1.2,4.5c-3.5-2.2-6.4-4.9-6.7-9.4v-18.8
			c0-2.3,0.3-4.4,0.8-6.1c1.6-3.3,4.4-6,7.6-7.7c0.7-0.2,1.1-0.2,1.8-0.3C494,286.9,496.9,288.9,498.3,292.4z M480.3,375.9
			c3,1.5,6.5,2.1,10.4,1.7c2.6-0.3,4.8-0.9,6.8-1.8c5-0.9,8.2-4.6,9.3-9.6c1.5-3.1,2.2-6.6,2.2-10.3V349c0-2.6-0.7-4.8-1.8-6.6
			c4.2,2.8,7.2,6.3,7.2,11.5v6.9c0,10.6-5.9,20.4-18.3,21.7C489.2,383.2,483.6,380.6,480.3,375.9z M501.2,346.6l-4.1-1.9l-1.8-0.8
			l-1.4-0.7c-4.9-2.2-10.2-4.7-13.5-9c2.9,1.9,6.3,3.3,9.4,4.8C494.8,341.4,499.3,343,501.2,346.6z M503.4,287.2
			c5.5,2.6,8.4,8.7,8.4,16.1v12.4l-6.9,0.7V311l1.5-0.1v-12.4C506.4,294.1,505.3,290.1,503.4,287.2z"/>
	</g>
</g>
</svg>
