<?xml version="1.0" encoding="utf-8"?>
<!-- Generator: Adobe Illustrator 22.1.0, SVG Export Plug-In . SVG Version: 6.00 Build 0)  -->
<svg version="1.1" id="wall_mural" xmlns="http://www.w3.org/2000/svg" xmlns:xlink="http://www.w3.org/1999/xlink" x="0px" y="0px"
	 viewBox="0 0 576 576" style="enable-background:new 0 0 576 576;" xml:space="preserve">
<style type="text/css">
	.st0{opacity:0.5;}
	.st1{fill:#BAAFAB;}
	.st2{fill:#EE7623;}
	.st3{fill:#8C9091;}
	.st4{fill:#D3D655;}
	.st5{fill:none;stroke:#8C9091;stroke-miterlimit:10;}
	.st6{fill:#87D1E6;}
	.st7{fill:#6BB1BA;}
	.st8{fill:#AFBC37;}
	.st9{fill:#8C9091;stroke:#D3D655;stroke-miterlimit:10;}
	.st10{fill:#FFFFFF;}
</style>
<g>
	<path class="st4" d="M338.2,172.3c-0.2-1.3-0.6-2.4-1.2-3.2c-0.5-0.7-1.3-1.1-2.2-1.1c-0.8,0-1.6,0.4-2.1,1c-0.6,0.8-0.9,1.8-1.2,3
		c0,0,0,0,0,0c-6.3,0-12.6,0-19,0c-3.2,0-6.3,0-9.5,0c-1.4-4.2-5.3-7.2-10-7.2c-4.6,0-8.6,3-10,7.2h-13.3c-1.3,0-2.6,0-4-0.1
		c-1.4,0-2.8-0.1-4.2-0.1c-1.3,0-2.4,0-3.4,0.1c-1.3,0-2.4,0.1-3.5,0.3c-0.2-1.3-0.6-2.3-1.2-3.1c-0.5-0.7-1.3-1.1-2.2-1.1
		c-0.8,0-1.6,0.4-2.1,1c-0.6,0.8-0.9,1.8-1.2,3c-0.5,1.8-0.3,3.8-0.2,5.5c0,0.7,0.1,1.3,0.1,1.9c0,1.9,1.5,3.2,3.4,3.1
		c0.1,0,0.2,0,0.3,0c1.8,0,3.1-1.3,3.1-3.1c0-0.2,0-0.4,0-0.7c1.1,0.2,2.3,0.3,3.7,0.3c0.9,0.1,1.9,0.1,3,0.1c1.4,0,2.7,0,4.1-0.1
		c1.3,0,2.6-0.1,3.9-0.1h13.7c1.5,4,5.3,6.8,9.8,6.8c4.5,0,8.3-2.8,9.8-6.8c3.4,0,6.8,0,10.1,0c6.1,0,12.2,0,18.2,0
		c0,0.2,0,0.4,0,0.5c0,1.9,1.5,3.2,3.4,3.1c0.1,0,0.2,0,0.3,0c1.8,0,3.1-1.3,3.1-3.1c0-0.6,0-1.2,0.1-1.9
		C338.4,175.9,338.5,174,338.2,172.3z"/>
</g>
<g>
	<g>
		<path class="st4" d="M238.1,162.5c-1.8-6.5-7.6-10.7-14.7-10.7c-3.5,0-7,1.1-9.8,3.2c-3.6,2.7-5.3,6.5-4.4,10.3
			c0.5,2.3,2.6,4.5,4.3,5.6c0.9,0.5,1.7,0.8,2.5,0.8c1.6,0,2.9-1,4.3-2.1c0.6-0.4,0.8-1.2,0.5-1.8c-0.3-0.8-1-1.1-1.8-0.9l-0.2,0
			c-1.9,0.6-2.5,0.7-4-0.7c-0.7-0.7-1.2-1.6-1.3-2.6c-0.2-2.1,1.8-3.9,3-4.8c1.9-1.4,4.1-2.1,6.3-2.1c2.7,0,5.4,1.1,7.5,3.2
			c2.7,2.6,3.7,5.6,2.8,8.9c-1.8,6.9-11.6,13.4-17.8,15c-1.5,0.4-3.1,0.6-4.6,0.6c-6.7,0-12.5-3.6-16.1-6.8c1-1.4,1.8-2.7,2-3.4
			c0.2-0.8,0.1-1.8-0.5-2.5c-0.7-0.9-1.7-1.2-2.7-0.7c-1,0.5-2,1.2-3.1,2.4c-0.6-0.7-1.3-1.4-1.9-2.2c0.9-1.4,1.7-2.6,1.9-3.3
			c0.2-0.8,0.1-1.8-0.5-2.5c-0.7-0.9-1.7-1.2-2.7-0.7c-0.8,0.4-1.6,0.9-2.4,1.7c-1.1-1.5-2.2-3.1-3.3-4.6c-2.1-2.9-4.3-6-6.6-8.8
			c-7.2-8.9-14.3-14-22.5-16.1c-2.6-0.7-5.2-1-7.9-1c-7,0-13.9,2.3-19.6,6.4c-8,5.8-13.5,15.5-14.3,25.2c-0.7,8,1.7,15.1,6.9,20.6
			c5.2,5.5,12.6,8.5,20.8,8.5c1.9,0,3.8-0.2,5.6-0.5c8.6-1.5,19.5-6.5,22.1-15.6c1.1-4-0.3-8.5-4.1-13c-3.9-4.5-7.9-6.3-11.9-5.3
			c-3.4,0.9-7.3,6-7.5,10c-0.1,1.7,0.4,3.9,3.2,5c0.3,0.1,0.7,0.2,1,0.2c1.2,0,2.5-0.6,3.3-1.2c0.9-0.6,1.3-1.7,0.9-2.8
			c-0.3-1.1-1.2-1.8-2.1-1.8c-0.3,0-0.6,0.1-0.8,0.2c0.1-0.7,0.4-1.4,0.9-2.2c0.8-1.4,1.9-2.1,3.2-2.1c1.2,0,2.7,0.7,4.1,1.9
			c3,2.7,6.2,7,3.9,11.5c-1.6,3.2-4.9,5.8-10.4,8c-3.9,1.6-7.8,2.4-11.6,2.4c-5.6,0-10.7-1.8-15.1-5.2c-6.2-4.9-8.6-13.1-6.6-21.8
			c1.9-8.3,7.7-15.7,15.4-19.9c3.6-2,7.9-3,12.2-3c5.1,0,10.2,1.4,14.6,4c8.2,4.8,13.7,12.7,19.1,20.3c1.1,1.6,2.3,3.3,3.5,4.9
			c-1.4,1.6-3.4,3.9-1.8,6.1c1.1,1.5,3.1,1.1,5.6-1.2c0.6,0.8,1.3,1.5,1.9,2.2c-1.3,1.6-2.5,3.5-1.2,5.3c1.1,1.5,3,1.1,5.4-1.1
			c1.6,1.4,3.2,2.6,4.9,3.7c4.3,2.7,9.3,4.2,14.5,4.2c4,0,7.9-0.9,11.5-2.5C231.9,182.5,241.1,172.9,238.1,162.5z"/>
	</g>
	<g>
		<path class="st4" d="M348.1,162.5c1.8-6.5,7.6-10.7,14.7-10.7c3.5,0,7,1.1,9.8,3.2c3.6,2.7,5.3,6.5,4.4,10.3
			c-0.5,2.3-2.6,4.5-4.3,5.6c-0.9,0.5-1.7,0.8-2.5,0.8c-1.6,0-2.9-1-4.3-2.1c-0.6-0.4-0.8-1.2-0.5-1.8c0.3-0.8,1-1.1,1.8-0.9l0.2,0
			c1.9,0.6,2.5,0.7,4-0.7c0.7-0.7,1.2-1.6,1.3-2.6c0.2-2.1-1.8-3.9-3-4.8c-1.9-1.4-4.1-2.1-6.3-2.1c-2.7,0-5.4,1.1-7.5,3.2
			c-2.7,2.6-3.7,5.6-2.8,8.9c1.8,6.9,11.6,13.4,17.8,15c1.5,0.4,3.1,0.6,4.6,0.6c6.7,0,12.5-3.6,16.1-6.8c-1-1.4-1.8-2.7-2-3.4
			c-0.2-0.8-0.1-1.8,0.5-2.5c0.7-0.9,1.7-1.2,2.7-0.7c1,0.5,2,1.2,3.1,2.4c0.6-0.7,1.3-1.4,1.9-2.2c-0.9-1.4-1.7-2.6-1.9-3.3
			c-0.2-0.8-0.1-1.8,0.5-2.5c0.7-0.9,1.7-1.2,2.7-0.7c0.8,0.4,1.6,0.9,2.4,1.7c1.1-1.5,2.2-3.1,3.3-4.6c2.1-2.9,4.3-6,6.6-8.8
			c7.2-8.9,14.3-14,22.5-16.1c2.6-0.7,5.2-1,7.9-1c7,0,13.9,2.3,19.6,6.4c8,5.8,13.5,15.5,14.3,25.2c0.7,8-1.7,15.1-6.9,20.6
			c-5.2,5.5-12.6,8.5-20.8,8.5c-1.9,0-3.8-0.2-5.6-0.5c-8.6-1.5-19.5-6.5-22.1-15.6c-1.1-4,0.3-8.5,4.1-13c3.9-4.5,7.9-6.3,11.9-5.3
			c3.4,0.9,7.3,6,7.5,10c0.1,1.7-0.4,3.9-3.2,5c-0.3,0.1-0.7,0.2-1,0.2c-1.2,0-2.5-0.6-3.3-1.2c-0.9-0.6-1.3-1.7-0.9-2.8
			c0.3-1.1,1.2-1.8,2.1-1.8c0.3,0,0.6,0.1,0.8,0.2c-0.1-0.7-0.4-1.4-0.9-2.2c-0.8-1.4-1.9-2.1-3.2-2.1c-1.2,0-2.7,0.7-4.1,1.9
			c-3,2.7-6.2,7-3.9,11.5c1.6,3.2,4.9,5.8,10.4,8c3.9,1.6,7.8,2.4,11.6,2.4c5.6,0,10.7-1.8,15.1-5.2c6.2-4.9,8.6-13.1,6.6-21.8
			c-1.9-8.3-7.7-15.7-15.4-19.9c-3.6-2-7.9-3-12.2-3c-5.1,0-10.2,1.4-14.6,4c-8.2,4.8-13.7,12.7-19.1,20.3c-1.1,1.6-2.3,3.3-3.5,4.9
			c1.4,1.6,3.4,3.9,1.8,6.1c-1.1,1.5-3.1,1.1-5.6-1.2c-0.6,0.8-1.3,1.5-1.9,2.2c1.3,1.6,2.5,3.5,1.2,5.3c-1.1,1.5-3,1.1-5.4-1.1
			c-1.6,1.4-3.2,2.6-4.9,3.7c-4.3,2.7-9.3,4.2-14.5,4.2c-4,0-7.9-0.9-11.5-2.5C354.4,182.5,345.2,172.9,348.1,162.5z"/>
	</g>
</g>
<g>
	<g>
		<path class="st4" d="M283.8,104.8c-8-5.4-19.8-3.9-26,3.5c-3,3.5-4.1,8.1-3.9,12.6c0.1,2.2,0.6,6.4,2.3,8c2.1,1.9,7.3,1.7,9.9,1.1
			c1.2-0.2,1.7-1.6,1.4-2.7c-0.4-1.5-1.4-2.4-2.1-3.7c-0.4-0.8-1.6-0.5-1.8,0.3c-0.1,0.5-0.1,1-0.1,1.5c-1.2-0.2-2.4-0.3-3.6-0.5
			c-1.2-4-1.2-8.1,1-11.9c2-3.4,5.9-5.3,9.7-5.8c10.7-1.4,17.7,8.3,18.9,17.9c1.4,11.4-5.4,22.9-16.4,26.4
			c-10.5,3.4-29.2-1.5-27.5-15.4c0.5-3.6-5.1-5-5.5-1.3c-2,15.2,11.9,23,25.3,23.7c13.3,0.7,24.5-8.6,28.7-20.7
			C297.9,126.2,294.1,111.7,283.8,104.8z"/>
	</g>
	<g>
		<path class="st4" d="M302.5,104.8c8-5.4,19.8-3.9,26,3.5c3,3.5,4.1,8.1,3.9,12.6c-0.1,2.2-0.6,6.4-2.3,8c-2.1,1.9-7.3,1.7-9.9,1.1
			c-1.2-0.2-1.7-1.6-1.4-2.7c0.4-1.5,1.4-2.4,2.1-3.7c0.4-0.8,1.6-0.5,1.8,0.3c0.1,0.5,0.1,1,0.1,1.5c1.2-0.2,2.4-0.3,3.6-0.5
			c1.2-4,1.2-8.1-1-11.9c-2-3.4-5.9-5.3-9.7-5.8c-10.7-1.4-17.7,8.3-18.9,17.9c-1.4,11.4,5.4,22.9,16.4,26.4
			c10.5,3.4,29.2-1.5,27.5-15.4c-0.5-3.6,5.1-5,5.5-1.3c2,15.2-11.9,23-25.3,23.7c-13.3,0.7-24.5-8.6-28.7-20.7
			C288.4,126.2,292.2,111.7,302.5,104.8z"/>
	</g>
</g>
<g>
	<path class="st3" d="M189.4,298.4c0.1,7.6-1.8,14.1-5.9,19.4c-2.7,3.7-6.4,6.2-11.3,7.7c-2.6,0.8-5.7,1.2-9.1,1.2
		c-6.4,0-11.7-1.6-16-4.8c-3.5-2.6-6.3-6.2-8.3-10.6c-2.1-4.5-3.3-9.6-3.6-15.4l15.5-1.1c0.7,6.3,2.4,10.9,5.1,13.7
		c1.9,2.1,4.2,3.2,6.7,3c3.6-0.1,6.4-1.9,8.6-5.2c1.1-1.7,1.7-4.1,1.7-7.2c0-4.6-2-9.1-6.1-13.5c-3.3-3.1-8.1-7.6-14.6-13.8
		c-5.4-5.2-9.3-9.9-11.5-14.1c-2.4-4.7-3.6-9.8-3.6-15.2c0-9.9,3.3-17.4,9.9-22.4c4.1-3.1,9.2-4.6,15.2-4.6c5.8,0,10.8,1.3,15,3.9
		c3.2,2,5.8,4.9,7.8,8.5c2,3.6,3.2,7.8,3.6,12.5l-15.7,2.9c-0.4-4.4-1.7-7.9-3.8-10.4c-1.5-1.8-3.7-2.7-6.5-2.7c-3,0-5.3,1.3-6.8,4
		c-1.3,2.1-1.9,4.8-1.9,8c0,5,2.1,10,6.4,15.2c1.6,1.9,4,4.2,7.3,6.9c3.8,3.2,6.3,5.4,7.6,6.7c4,4,7.1,8,9.3,12
		c1,1.8,1.9,3.5,2.5,5.1C188.5,291.8,189.3,295.3,189.4,298.4z"/>
	<path class="st3" d="M228.6,215.5c7.2,0,13.4,2.5,18.4,7.6c5.1,5.1,7.6,11.2,7.6,18.4v59.2c0,7.2-2.5,13.4-7.6,18.4
		c-5.1,5.1-11.2,7.6-18.4,7.6c-7.2,0-13.3-2.5-18.3-7.6c-5-5.1-7.5-11.2-7.5-18.4v-59.2c0-7.2,2.5-13.4,7.6-18.4
		C215.4,218,221.5,215.5,228.6,215.5z M237.5,241.2c0-2.6-0.9-4.8-2.7-6.6c-1.8-1.8-4-2.7-6.6-2.7c-2.6,0-4.8,0.9-6.6,2.7
		s-2.8,4-2.8,6.6v59.4c0,2.6,0.9,4.8,2.8,6.6c1.8,1.8,4.1,2.7,6.6,2.7c2.6,0,4.8-0.9,6.6-2.7c1.8-1.8,2.7-4,2.7-6.6V241.2z"/>
	<path class="st3" d="M313.7,325.4H269V216.8h16.4v92.3h28.3V325.4z"/>
	<path class="st3" d="M329.6,325.4l-19.3-108.6h17.1l13.6,84.5l13.8-84.5h17.1l-19.7,108.6H329.6z"/>
	<path class="st3" d="M385.6,325.4V216.8h46.6v16.4H402v29.8h22.1v16.4H402V309h30.2v16.4H385.6z"/>
</g>
<polygon class="st6" points="472,439.2 105.8,439.2 126.4,398.8 105.8,354.4 472,354.4 454.8,398.8 "/>
<g>
	<path class="st10" d="M168.1,400.2c-1.5,0-2.6,0-3.3-0.1c-2.3,10.2-3.6,17.3-3.9,21.3c-2.3,1.1-5.9,1.7-10.7,1.7
		c-1,0-1.7,0-2.1-0.1c0.4-3.2,2-11.3,4.9-24.2c2.9-12.9,4.3-21.1,4.3-24.5c0-0.7-0.4-1.5-1.1-2.6c-0.7-1.1-1.5-1.9-2.2-2.7l-1.1-1.1
		l0.2-1.2c9.1-1.4,16.5-2,22.2-2c11.2,0,16.8,4.6,16.8,13.7c0,6.1-2,11.2-6,15.4C182.1,398.1,176.1,400.2,168.1,400.2z M166.8,394.7
		c4.2,0,7.4-1.6,9.5-4.7c2.2-3.2,3.2-7.4,3.2-12.7c0-2.2-0.4-4-1.2-5.3c-0.8-1.4-2-2.1-3.6-2.1c-1,0-2.3,0.2-3.8,0.6
		c-0.9,5.7-2.5,13.8-4.9,24.3H166.8z"/>
	<path class="st10" d="M193.1,423.1h-0.6c-0.1-0.4-0.2-1.4-0.2-3c0-1.6,0.7-5.7,2.2-12.5c1.5-6.8,2.2-10.7,2.2-11.7
		c0-1.7-0.8-3.5-2.3-5.6l-0.7-1l0.1-1.1c2.9-0.8,7.6-1.2,14.1-1.2c0.7,1.4,1,3.4,1,6c0.6-1,1.9-2.3,3.8-3.9c1.9-1.6,3.9-2.5,5.9-2.5
		c2.9,0,4.4,2.6,4.4,7.7c-0.3,0.3-0.6,0.7-1.1,1.3c-0.5,0.5-1.4,1.2-2.8,2.2c-1.4,0.9-2.7,1.5-4,1.7c-0.1,0-0.5-0.7-1.4-2.2
		c-0.9-1.5-1.5-2.2-2-2.2c-1.4,0.5-2.6,1.3-3.6,2.5c-2.5,11.3-3.8,18.6-3.8,21.9c0,1.2,0,2,0.1,2.5
		C202.6,422.7,198.8,423.1,193.1,423.1z"/>
	<path class="st10" d="M232.6,423.8c-3.8,0-6.7-1.3-8.8-4c-2.1-2.6-3.2-6.3-3.2-11.1c0-6,1.6-11.2,4.9-15.6
		c3.2-4.4,7.7-6.5,13.4-6.5l2.9,0.2c0.9-0.5,2-0.7,3.1-0.7c4.3,0,6.5,4.1,6.5,12.2c2.2-0.1,4.5-0.4,6.8-0.9l1.3-0.3l0.5,3.2
		c-1.8,0.8-4.2,1.4-7.3,2l-1.6,0.3c-1,5.7-3.1,10.7-6.3,14.9C241.6,421.7,237.6,423.8,232.6,423.8z M237,416.8
		c2.3,0,4.3-1.5,6.2-4.4c1.8-2.9,3.1-6,3.8-9.3c-5.8,0-8.7-2.2-8.7-6.5c0-1.7,0.4-3.4,1.1-4.9l0.4-0.8c-0.2-0.1-0.5-0.2-0.8-0.2
		s-0.6,0.1-0.7,0.2c-1.4,0.9-2.6,2.9-3.8,6.1c-1.2,3.2-1.8,6.9-1.8,11C232.6,413.8,234.1,416.8,237,416.8z"/>
	<path class="st10" d="M275.8,365.8c0,4.1-1.4,12.2-4.2,24.3c3.3-2.3,6.2-3.5,8.9-3.5c2.6,0,4.9,1.1,6.8,3.3s2.8,5.6,2.8,10.1
		c0,7.6-1.5,13.4-4.5,17.6c-3,4.1-6.6,6.2-10.8,6.2c-1.6,0-3.2-0.2-4.8-0.6c-1.6-0.4-2.8-0.8-3.6-1.2l-1.2-0.6
		c-3.5,1.2-6.9,1.8-10.2,1.8c-0.3-0.3-0.5-1.6-0.5-4s1.5-10.2,4.6-23.5c3-13.3,4.6-22.4,4.6-27.3c0-0.9-0.1-2-0.4-3.3
		c4.2-1.5,8.3-2.2,12.2-2.2C275.6,363.6,275.8,364.6,275.8,365.8z M275,393.6c-1,0-2.6,0.5-4.7,1.5c-2.5,10.6-3.9,18.1-4.1,22.7
		c1.6,0.7,3.2,1.1,4.7,1.1c2.1,0,3.8-1.9,5.2-5.7c1.4-3.8,2.1-8,2.1-12.6S277.1,393.6,275,393.6z"/>
	<path class="st10" d="M300.1,423.8c-1.9,0-3.4-0.6-4.7-1.9s-1.8-3-1.8-5.3c0-2.3,1.3-9.5,4-21.6c2.7-12.2,4-20.9,4-26.3l-0.5-3.6
		c4.2-1.5,8.2-2.2,11.9-2.2c0.5,0.8,0.8,2.1,0.8,4c0,4.4-1.4,12.8-4.1,25.3c-2.7,12.5-4.1,19.8-4.1,21.8c0,2,0.2,3.1,0.7,3.1l5.7-2
		l1.5,2.9c-1.9,1.5-4.1,2.8-6.7,4.1C304.3,423.2,302,423.8,300.1,423.8z"/>
	<path class="st10" d="M315.2,408.7c0-6.8,2.1-12.2,6.2-16.1c4.1-3.9,8.8-5.9,14-5.9c3.2,0,5.9,0.8,7.9,2.4c2.1,1.6,3.1,3.7,3.1,6.3
		c0,2.6-0.7,4.9-2,6.7c-1.3,1.8-3,3.2-4.9,4.2c-3.9,1.9-7.4,3.1-10.6,3.6l-2,0.2c0.4,5.1,2.5,7.7,6.3,7.7c1.3,0,2.7-0.3,4.2-1
		c1.5-0.7,2.6-1.3,3.4-2l1.2-1l2,2.6c-0.4,0.6-1.3,1.4-2.6,2.4c-1.3,1-2.5,1.8-3.7,2.4c-3.2,1.7-6.6,2.6-10.4,2.6
		c-3.8,0-6.7-1.3-8.9-4C316.3,417.1,315.2,413.4,315.2,408.7z M333.5,402.5c1.6-1.8,2.4-4.2,2.4-7.2c0-2.9-0.9-4.4-2.6-4.4
		c-2.1,0-3.7,1.8-4.8,5.3c-1.1,3.5-1.7,6.8-1.7,9.8C329.7,405.5,331.9,404.3,333.5,402.5z"/>
	<path class="st10" d="M350.3,423.1h-1.6c0-2.6,0.8-7.5,2.3-14.7c1.6-7.2,2.3-11.4,2.3-12.3c0-1.8-0.8-3.7-2.3-5.7l-0.7-1l0.1-1.1
		c2.9-0.8,7.6-1.2,14.1-1.2c0.8,1,1.1,2.7,1.1,5.1c4.9-3.6,8.8-5.5,11.7-5.5c3.6,0,5.8,1.9,6.5,5.6c1.5-1.2,3.4-2.4,5.8-3.7
		c2.4-1.3,4.5-1.9,6.4-1.9s3.4,0.6,4.7,1.8c1.3,1.2,1.9,2.9,1.9,5.1c0,2.2-0.6,5.8-1.8,10.8c-1.2,5-1.8,8.4-1.8,10.1
		c0,1.7,0.2,2.6,0.7,2.6c0.3,0,1.4-0.5,3.3-1.6l0.9-0.5l1.5,2.9c-1.4,1.4-3.3,2.8-5.8,4c-2.4,1.3-4.6,1.9-6.4,1.9
		c-4.1,0-6.1-2.3-6.1-6.9c0-1.7,0.6-5.1,1.8-10.2c1.2-5.1,1.8-8.4,1.8-10s-0.5-2.3-1.4-2.3c-1.6,0-3.4,0.6-5.4,1.8
		c-0.1,1.1-0.9,4.8-2.2,11.1c-1.4,6.3-2.1,11.2-2.1,14.7c-1.6,0.7-5.3,1.1-11.1,1.1c-0.1-0.6-0.2-2-0.2-4.3c0-2.3,0.6-6.2,1.9-11.7
		c1.3-5.5,1.9-9,1.9-10.5c0-1.5-0.5-2.2-1.6-2.2c-1.6,0-3.4,0.7-5.4,2c-0.1,0.5-0.7,2.9-1.6,7.2c-2,8.6-2.9,14.7-2.9,18.4
		C358.7,422.7,355.3,423.1,350.3,423.1z"/>
	<path class="st10" d="M433.3,412.1c0,3.4-1.5,6.2-4.5,8.4c-3,2.2-6.5,3.3-10.3,3.3c-3.9,0-6.9-0.8-9.2-2.5
		c-2.3-1.6-3.4-3.1-3.4-4.3c0-0.8,1-2,2.9-3.7c1.9-1.7,3.5-2.8,4.8-3.1c2.7,2,5,5.2,6.7,9.6c2-0.2,3-1.1,3-2.9
		c0-2.5-2.2-6.1-6.6-10.7c-4.4-4.6-6.6-8.3-6.6-11c0-2.7,1.2-4.8,3.7-6.3c2.4-1.5,5.4-2.2,8.9-2.2c3.5,0,6.1,0.6,7.8,1.8
		c1.7,1.2,2.6,2.9,2.6,5c0,2.1-1.7,5-5,8.7c0.4,0.4,0.9,0.9,1.5,1.5c0.6,0.6,1.4,1.8,2.4,3.6S433.3,410.6,433.3,412.1z M428.9,393.5
		c0-1.9-1.3-2.9-3.9-2.9c-1.3,0-2.3,0.3-3.1,0.8c-0.8,0.5-1.2,1.1-1.2,1.8c0,1.2,1.2,2.9,3.6,5.1l1.2,1.1
		C427.7,397.3,428.9,395.4,428.9,393.5z"/>
</g>
</svg>
