<?xml version="1.0" encoding="utf-8"?>
<!-- Generator: Adobe Illustrator 22.1.0, SVG Export Plug-In . SVG Version: 6.00 Build 0)  -->
<svg version="1.1" id="wall_mural" xmlns="http://www.w3.org/2000/svg" xmlns:xlink="http://www.w3.org/1999/xlink" x="0px" y="0px"
	 viewBox="0 0 576 576" style="enable-background:new 0 0 576 576;" xml:space="preserve">
<style type="text/css">
	.st0{opacity:0.5;}
	.st1{fill:#BAAFAB;}
	.st2{fill:#EE7623;}
	.st3{fill:#8C9091;}
	.st4{fill:#D3D655;}
	.st5{fill:none;stroke:#8C9091;stroke-miterlimit:10;}
	.st6{fill:#87D1E6;}
	.st7{fill:#6BB1BA;}
	.st8{fill:#AFBC37;}
	.st9{fill:#8C9091;stroke:#D3D655;stroke-miterlimit:10;}
	.st10{fill:#FFFFFF;}
</style>
<path class="st3" d="M109.7,354.9c0.1,0.7,0.2,1.3,0.1,1.9c0,0.6-0.2,1.2-0.4,1.9c-0.2,0.7-0.4,1.4-0.5,2.1s-0.4,1.3-0.9,1.9
	s-0.9,1.2-1.3,1.8c-0.4,0.6-0.9,1.2-1.6,1.7c-0.6,0.4-1.3,0.9-1.9,1.3s-1.3,0.8-2,1.1c-0.2,0.1-0.5,0.2-0.8,0.3
	c-0.3,0.1-0.6,0.2-0.8,0.4c-0.2,0.2-0.5,0.3-0.8,0.3s-0.6,0-0.9,0.1s-0.7,0.3-1,0.3c-0.3,0.1-0.7,0.2-1,0.3c-0.2,0-0.4,0.1-0.5,0.1
	s-0.2,0.1-0.1,0.4c0,0.2,0.1,0.4,0.2,0.5s0.2,0.3,0.3,0.4c0.3,0.5,0.7,1.1,0.9,1.7c0.3,0.6,0.5,1.2,0.6,1.8c0,0.1,0.1,0.4,0.2,0.9
	c0.1,0.4,0.2,0.9,0.3,1.4c0.1,0.5,0.1,0.9,0.1,1.3s0,0.6-0.2,0.7c-0.1,0.1-0.2,0-0.2,0c0-0.1-0.1-0.1-0.2,0c0,0.1,0.1,0.2,0.1,0.2
	s0.1-0.1,0.2-0.1s0.1,0.1,0.1,0.3c0,0.3,0,0.5,0,0.6c0,0.5,0,1.1-0.1,1.6s-0.1,1.1-0.3,1.6c-0.1,0.8-0.4,1.6-0.9,2.4
	c-0.2,0.3-0.4,0.7-0.5,1s-0.3,0.7-0.5,1c-0.2,0.4-0.5,0.8-0.8,1.1c-0.3,0.3-0.6,0.7-0.9,1c-0.2,0.2-0.5,0.5-0.9,0.9
	c-0.3,0.3-0.7,0.6-1,0.7c-0.2,0.1-0.4,0.2-0.5,0.4c-0.1,0.1-0.2,0.3-0.4,0.4c-0.2,0.2-0.5,0.3-0.8,0.4s-0.6,0.2-0.8,0.3
	c-0.1,0-0.3,0.1-0.6,0.3c-0.2,0.1-0.4,0.3-0.7,0.4c-0.2,0.1-0.4,0.2-0.7,0.3c-0.2,0.1-0.4,0-0.6-0.1c0,0.2-0.1,0.4-0.4,0.4
	s-0.5,0-0.6,0.1c-0.3,0-0.6,0.2-0.8,0.3c-0.2,0.2-0.5,0.3-0.7,0.4c-0.2,0-0.5,0.1-0.7,0.1s-0.4,0-0.7,0.1c-0.2,0-0.4,0.1-0.6,0.1
	s-0.4,0.1-0.6,0.1c-0.3,0-0.6,0-0.9,0s-0.6,0-1,0.1c-0.2,0-0.5,0.1-0.8,0.2s-0.5,0.2-0.8,0.3c-0.2,0-0.5,0-0.7-0.1s-0.5-0.1-0.7,0
	c-0.3,0.1-0.6,0.1-0.9,0.1s-0.6,0-0.9,0c-1.1,0-2.2-0.1-3.3-0.1c-1.1,0-2.2-0.2-3.2-0.5c-0.2-0.1-0.5-0.1-0.8-0.1s-0.5,0-0.8,0
	c-0.2,0-0.5-0.1-0.7-0.2s-0.5-0.2-0.7-0.2c-0.4,0-0.9-0.1-1.6-0.3c-0.6-0.2-1.2-0.4-1.6-0.6c-0.4-0.1-0.8-0.2-1.1-0.4
	c-0.3-0.1-0.7-0.3-1.1-0.4c-0.2-0.1-0.5-0.2-0.7-0.3c-0.2-0.1-0.4-0.2-0.7-0.3c-0.2-0.1-0.4-0.2-0.6-0.2c-0.2,0-0.4-0.1-0.6-0.2
	c-0.1-0.1-0.2-0.2-0.4-0.4c-0.2-0.2-0.3-0.3-0.4-0.4c-0.2-0.1-0.4-0.2-0.5-0.2s-0.3-0.1-0.5-0.3c-0.2-0.1-0.4-0.3-0.6-0.4
	c-0.2-0.1-0.3-0.3-0.5-0.6c-0.1-0.1-0.3-0.3-0.5-0.4s-0.4-0.2-0.5-0.4c-0.1-0.2-0.3-0.3-0.5-0.4s-0.3-0.3-0.4-0.5
	c-0.1-0.2-0.2-0.5-0.4-0.6c-0.2-0.2-0.3-0.4-0.5-0.6c-0.3-0.4-0.6-0.9-0.9-1.4c-0.2-0.5-0.5-1.1-0.7-1.6c-0.1-0.2-0.1-0.5-0.1-0.7
	s0-0.5-0.1-0.7c0-0.3,0-0.6-0.1-0.8c-0.1-0.2-0.2-0.5-0.2-0.7c-0.1-0.3-0.1-0.7-0.1-1s0.1-0.6,0.1-1c0-0.3,0-0.6,0-0.7
	s0.2-0.2,0.6-0.1c0-0.2,0-0.3-0.2-0.2c-0.2,0.1-0.3,0.1-0.4,0c-0.1-0.3-0.1-0.7,0.1-1c0.1-0.3,0.2-0.7,0.3-1
	c0.2-1.5,0.8-2.8,1.6-4.1c0.1-0.2,0.3-0.5,0.6-0.7c0.2-0.2,0.4-0.5,0.5-0.8s0.3-0.6,0.7-0.9c0.3-0.3,0.6-0.5,0.9-0.8
	c0.5-0.5,1.1-1,1.6-1.4s1.1-0.8,1.7-1.2c0.5-0.3,1.1-0.7,1.8-1c0.6-0.3,1.3-0.5,1.9-0.7c0.3-0.1,0.6-0.2,0.9-0.4
	c0.3-0.1,0.6-0.3,0.9-0.4c0.4-0.1,0.7-0.1,0.9-0.1s0.4-0.1,0.5-0.2s0.3-0.2,0.5-0.2c0.3,0,0.6-0.1,0.9-0.1s0.5-0.2,0.7-0.4
	c-0.1-0.2-0.3-0.3-0.6-0.4c-0.3-0.1-0.5-0.2-0.7-0.3c-0.2-0.2-0.5-0.3-0.7-0.4s-0.5-0.2-0.8-0.3c-0.3-0.1-0.7-0.3-0.9-0.5
	c-0.3-0.2-0.6-0.4-0.9-0.6c-0.2-0.2-0.5-0.4-0.8-0.5s-0.5-0.3-0.8-0.5c-0.2-0.2-0.4-0.4-0.5-0.6s-0.3-0.4-0.5-0.6
	c-0.5-0.4-0.9-1-1.2-1.6s-0.5-1.2-0.6-1.9c-0.1-0.7-0.2-1.4-0.1-2.1c0-0.4,0-0.7,0.1-1s0.1-0.6,0.1-1c0-0.5,0.2-1.1,0.6-1.6
	c0.4-0.5,0.7-1.1,0.9-1.6c0.2-0.6,0.7-1.2,1.3-1.7c0.6-0.6,1.2-1,1.7-1.2c0.2-0.1,0.5-0.3,0.7-0.5s0.5-0.4,0.7-0.5
	c0.3-0.2,0.6-0.3,0.9-0.4c0.3,0,0.6-0.2,0.9-0.4c0.3-0.2,0.6-0.4,0.9-0.3c0.3,0,0.6,0,0.9-0.1s0.6-0.2,0.8-0.3
	c0.2-0.1,0.5-0.2,0.7-0.3c0.3-0.1,0.7-0.2,1-0.2s0.6-0.1,0.9-0.1c0.4,0,0.8-0.1,1.2-0.2c0.4-0.1,0.8-0.1,1.2,0c0.3,0,0.6,0,0.8-0.1
	c0.2-0.1,0.5-0.2,0.8-0.1s0.6,0.1,0.9,0c0.2-0.1,0.5-0.1,0.8-0.2c0.3,0,0.6,0,0.9,0.1s0.6,0.1,0.9,0.2c0.4,0.1,0.8,0.2,1.2,0.2
	c0.4,0,0.8,0.1,1.2,0.2c0.3,0,0.6,0.1,0.8,0.3c0.2,0.1,0.5,0.3,0.7,0.5s0.5,0.4,0.9,0.5c0.3,0.1,0.6,0.3,0.9,0.5
	c0.2,0.1,0.5,0.4,0.6,0.6c0.2,0.3,0.4,0.5,0.6,0.6c0,0.1,0,0.2,0,0.3c-0.1,0.1,0,0.2,0.1,0.2s0.3,0,0.3,0c0.1,0,0.2,0.1,0.3,0.3
	c0.1,0.2,0.3,0.5,0.3,0.8c0.1,0.3,0.2,0.5,0.3,0.8c0.3,0.5,0.5,1.1,0.6,1.8c0.1,1.4,0,2.9-0.5,4.5c-0.4,1.3-1.3,2.4-2.4,3
	c-1.2,0.7-2.4,1.1-3.7,1.3c-0.7,0.1-1.4,0.1-2.1,0s-1.4-0.2-2.1-0.3c-0.7-0.2-1.4-0.4-1.9-0.7c-0.5-0.3-1.1-0.7-1.6-1.3
	c-0.3-0.3-0.7-0.8-1-1.4s-0.4-1.1-0.3-1.7s0.1-1.2,0.1-1.9c0-0.6,0.3-1.2,0.8-1.6c0.2-0.2,0.4-0.4,0.6-0.7c0.1-0.3,0.3-0.5,0.6-0.7
	c0.2-0.1,0.4-0.2,0.6-0.3c0.2-0.1,0.5-0.2,0.7-0.3c0.5-0.3,1.1-0.4,1.6-0.4c0.4,0.1,0.8,0.1,1.1,0.1c0.3,0,0.7,0.1,1,0.3
	c0.2,0.1,0.4,0.2,0.7,0.4c0.2,0.2,0.4,0.4,0.6,0.6c0.1,0.2,0.2,0.4,0.2,0.6s-0.2,0.3-0.6,0.4c-0.6,0.1-1.1,0.3-1.5,0.6
	c-0.4,0.3-0.7,0.8-0.8,1.4c-0.1,0.7,0,1.5,0.3,2.3s0.8,1.4,1.5,1.7c0.8,0.3,1.8,0.4,2.8,0.3s1.9-0.6,2.4-1.3
	c0.2-0.2,0.4-0.5,0.5-0.7s0.3-0.4,0.4-0.7c0.1-0.2,0.2-0.5,0.2-0.9c0-0.3,0-0.6,0-0.9c0.1-1.3-0.1-2.5-0.6-3.6
	c-0.5-0.9-1.1-1.7-1.7-2.3c-0.2-0.1-0.4-0.3-0.5-0.4s-0.3-0.2-0.5-0.3c-0.2-0.1-0.5-0.2-0.7-0.3c-0.2-0.1-0.3-0.2-0.2-0.5
	c-0.1,0-0.1,0-0.1,0.1s-0.1,0.2-0.2,0.1c-0.1,0-0.2-0.1-0.3-0.1c-0.2-0.1-0.5-0.2-0.8-0.2s-0.6-0.1-0.9-0.1
	c-0.6-0.1-1.3-0.2-1.9-0.2s-1.2,0-1.9,0.2c-1.1,0.2-2.1,0.7-3,1.3c-0.9,0.6-1.5,1.5-1.9,2.6c-0.2,0.5-0.4,1-0.6,1.5
	c-0.2,0.4-0.3,1-0.4,1.6c0,0.2,0,0.5,0,0.8s0,0.6-0.1,0.9c0,0.1-0.1,0.2-0.3,0.3c-0.2,0-0.2,0.2,0,0.4c0.1,0.1,0.2,0.3,0.1,0.7
	c-0.1,0.3-0.1,0.6-0.1,0.7c0,0.6,0.1,1.2,0.2,1.8c0,0.2,0.1,0.5,0.1,0.8s0.1,0.6,0.1,0.9c0.1,0.4,0.2,0.7,0.2,1
	c-0.1,0.1-0.1,0.1-0.2,0.1c0,0-0.1,0-0.2,0c0.1,0.1,0.2,0.1,0.3,0.1s0.2,0,0.3,0.1c0,0.3,0.1,0.6,0.3,0.9c0.1,0.2,0.3,0.5,0.5,0.7
	s0.3,0.5,0.5,0.7c0.3,0.4,0.7,0.8,1.3,1c0.5,0.2,1.1,0.4,1.6,0.5c0.3,0.1,0.6,0.2,0.8,0.2c0.2,0,0.4,0.3,0.4,0.7
	c0,0.3,0,0.5-0.2,0.6s-0.4,0.2-0.6,0.3c-0.2,0.1-0.5,0.1-0.8,0c-0.3,0-0.6,0-0.8,0c-0.3,0.1-0.7,0.2-1,0.3c-0.3,0.2-0.6,0.3-0.9,0.5
	c-0.2,0.1-0.5,0.3-0.7,0.3c-0.2,0.1-0.4,0.2-0.6,0.3c-0.2,0.2-0.5,0.5-0.7,0.6c-0.2,0.2-0.4,0.4-0.6,0.7c-0.1,0.2-0.3,0.5-0.6,0.6
	c-0.2,0.2-0.4,0.4-0.4,0.6s-0.1,0.4-0.4,0.5l-0.4,1.3c-0.2,0.6-0.5,1.3-0.6,1.9c-0.2,0.6-0.3,1.3-0.5,2c-0.1,0.2-0.1,0.5-0.2,0.7
	s-0.1,0.5-0.1,0.8c0,0.2,0,0.6,0,1s0,0.7-0.1,1s-0.2,0.6-0.1,0.9s0.1,0.6,0.1,0.9c-0.1,0.6-0.1,1.3,0,1.9c0,0.7,0.1,1.3,0.3,2
	c0.1,0.6,0.2,1.3,0.3,1.9c0.1,0.3,0.2,0.6,0.3,0.8c0.1,0.2,0.2,0.5,0.3,0.7c0.1,0.3,0.2,0.7,0.3,1c0.1,0.3,0.2,0.6,0.4,0.9
	c0.3,0.5,0.8,1.1,1.3,1.6c0.1,0.1,0.2,0.2,0.3,0.3c0.1,0.1,0.2,0.2,0.3,0.3c0.1,0.2,0.3,0.4,0.3,0.5c0.1,0.1,0.2,0.2,0.5,0.3
	c0.2,0.1,0.4,0.3,0.5,0.6c0.2,0,0.3,0,0.4,0c0,0,0.1,0.1,0.3,0.1c0.2,0.2,0.5,0.4,0.8,0.5s0.6,0.2,0.9,0.3c0.2,0.1,0.5,0.2,0.8,0.4
	c0.3,0.1,0.6,0.2,0.8,0.3c0.4,0.1,0.8,0.1,1.1,0.1c0.3,0,0.7,0.1,1,0.2c0.7-0.1,1.4-0.1,2.2,0c0.8,0.1,1.5,0.1,2.2-0.2
	c0.7-0.2,1.4-0.4,2.2-0.4c0.8,0,1.6-0.2,2.3-0.4c1.1-0.3,2.3-0.8,3.5-1.5c0.6-0.3,1.2-0.7,1.7-1.1s1.1-0.8,1.6-1.3
	c0.4-0.3,0.7-0.7,1-1.1s0.6-0.8,0.9-1.2c0.4-0.5,0.7-1,0.9-1.6c0.2-0.5,0.4-1.1,0.6-1.6s0.4-1.1,0.4-1.7s0.1-1.2,0.2-1.7
	c0.1-0.3,0.1-0.6,0-0.8c-0.1-0.2-0.1-0.5-0.1-0.8c-0.1-0.3-0.1-0.6-0.1-0.9c0-0.2-0.1-0.5-0.2-0.8s-0.2-0.6-0.3-0.9
	c-0.1-0.3-0.2-0.5-0.3-0.8c-0.1-0.2-0.2-0.5-0.4-0.8c-0.2-0.3-0.2-0.6-0.1-0.9c-0.1,0-0.4-0.2-0.7-0.4c-0.3-0.2-0.4-0.4-0.3-0.6
	c0-0.1,0.1-0.2,0.1-0.2s0-0.1-0.1-0.2c-0.1,0-0.2,0-0.2,0.1s0,0.2-0.1,0.2c-0.2-0.2-0.5-0.4-0.8-0.6s-0.5-0.4-0.8-0.5
	c-0.4-0.2-0.7-0.3-1-0.4c-0.1,0-0.2-0.2-0.2-0.4c-0.1,0.1-0.3,0.1-0.5,0.1c-0.1,0-0.4-0.2-0.7-0.4c-0.2-0.1-0.4-0.1-0.5-0.1
	s-0.3,0-0.5,0c-0.4-0.1-0.8-0.2-1.2-0.3c-0.4-0.1-0.8-0.2-1.2-0.2c-0.5,0-0.9,0-1.1-0.1c-0.2,0-0.4,0-0.7-0.1
	c-0.1,0-0.3,0.1-0.6,0.2c-0.4,0.1-0.8,0.1-1.1,0.1c-0.3,0-0.7,0-1.1,0.1c-0.1,0-0.3,0.1-0.4,0.2s-0.2,0.2-0.3,0.3
	c-0.2,0.1-0.4,0.1-0.6,0.1s-0.4,0-0.6,0.1c-0.3,0.2-0.6,0.4-0.9,0.5s-0.6,0.3-0.8,0.6c-0.2,0.2-0.5,0.5-0.9,0.7
	c-0.3,0.2-0.5,0.4-0.6,0.7c-0.1,0.4-0.3,0.7-0.6,0.9c-0.2,0.2-0.4,0.5-0.5,0.9c-0.1,0.3-0.2,0.7-0.4,1c-0.2,0.3-0.3,0.7-0.3,1.1
	s-0.1,0.8-0.1,1.1c0,0.3,0,0.7,0,1c0,0.5,0.1,1.2,0.4,1.9c0.3,0.7,0.6,1.4,1,2s0.9,1.1,1.4,1.6c0.6,0.4,1.2,0.6,1.7,0.6
	c0-0.2,0-0.5-0.2-0.6c-0.2-0.2-0.3-0.3-0.4-0.5c-0.1-0.3-0.2-0.5-0.2-0.6c0-0.2,0-0.3,0-0.3c-0.1,0.1-0.2,0-0.3-0.2
	c-0.1-0.8-0.3-1.6-0.4-2.3c-0.1-0.7-0.1-1.4,0.2-2.3c0.1-0.5,0.4-1.2,0.7-1.8c0.3-0.7,0.7-1.2,1.2-1.4c0.2-0.1,0.4-0.3,0.6-0.5
	c0.1-0.2,0.3-0.4,0.6-0.5c0.2-0.2,0.6-0.3,0.9-0.4s0.7-0.2,1-0.3c0.6-0.2,1.2-0.3,1.9-0.3c0.7,0,1.4,0.2,2,0.4
	c0.3,0.1,0.6,0.2,0.8,0.4c0.2,0.2,0.5,0.3,0.8,0.5s0.6,0.5,0.9,0.8c0.2,0.3,0.5,0.6,0.7,0.9c0.1,0.1,0.3,0.4,0.6,0.7
	c0.3,0.3,0.3,0.6,0.2,0.8c-0.2,0.3-0.3,0.4-0.1,0.3c0.2-0.1,0.3-0.1,0.4,0c0.2,0.7,0.4,1.4,0.3,2c0,0.6-0.1,1.3-0.2,2
	c-0.1,0.1-0.1,0.3,0,0.3c0,0.1,0,0.2-0.1,0.3c-0.1,0.1-0.1,0.2-0.1,0.3c0,0.1,0,0.2,0,0.3c-0.2,0.2-0.3,0.5-0.4,0.7
	s-0.2,0.5-0.4,0.7c-0.1,0.2-0.3,0.4-0.4,0.7c-0.1,0.2-0.3,0.4-0.5,0.6c-0.3,0.2-0.6,0.5-0.9,0.7s-0.7,0.5-1,0.7
	c-0.5,0.3-1,0.5-1.6,0.6c-0.1,0.1-0.2,0.1-0.4,0.1c-0.2,0-0.3,0-0.4,0s-0.1-0.1-0.1-0.1v-0.1c-0.1-0.1-0.2-0.1-0.2-0.1s0,0.1,0,0.2
	c0.1,0.2,0.1,0.3-0.1,0.3s-0.3,0-0.4,0c-0.4,0-0.9,0.1-1.4,0.1s-0.9,0-1.4-0.1c-0.3,0-0.7-0.1-1-0.3c-0.3-0.1-0.6-0.3-0.9-0.4
	c-0.7-0.1-1.4-0.3-1.9-0.5s-1.1-0.6-1.6-1.1s-1-1-1.4-1.4c-0.4-0.5-0.7-1-0.9-1.5c-0.2-0.5-0.5-1-0.7-1.6c-0.2-0.7-0.4-1.5-0.4-2.2
	s-0.1-1.4-0.1-2.2c-0.1-0.7-0.1-1.3,0-1.9s0.2-1.2,0.4-1.9c-0.1-0.7,0-1.3,0.2-1.9s0.5-1.2,0.7-1.7c0.2-0.7,0.6-1.4,0.9-2.1
	c0.4-0.6,0.8-1.3,1.2-1.9c0.4-0.5,0.9-1.1,1.4-1.6s1-0.9,1.5-1.3c0.4-0.4,1-0.8,1.6-1.2c0.6-0.4,1.2-0.6,1.8-0.8
	c0.3-0.1,0.6-0.2,0.9-0.4c0.2-0.2,0.5-0.3,0.8-0.4c0.4-0.1,0.8-0.2,1.2-0.2c0.4,0,0.8-0.1,1.2-0.2c0.8-0.1,1.6-0.2,2.3-0.2
	c0.8,0,1.5,0,2.3,0c0.1,0,0.4,0,0.9-0.1c0.4,0,0.8-0.1,1.3-0.1c0.4,0,0.8,0,1.1,0.1c0.3,0.1,0.5,0.2,0.6,0.4c0.1,0,0.1-0.1,0.1-0.3
	c0-0.1,0.2-0.1,0.4-0.1c0.2,0,0.4,0.1,0.5,0.1c0.3,0,0.7,0.1,1,0.1s0.7,0,1.1,0s0.8,0,1.1-0.1c0.3,0,0.7-0.1,1-0.1s0.7,0,1,0
	s0.7,0,1-0.1c0.2-0.1,0.5-0.1,0.8-0.1s0.6,0,0.9-0.1c0.2-0.1,0.5-0.2,0.8-0.3c0.3-0.1,0.5-0.3,0.8-0.4c0.5-0.3,1-0.7,1.3-1.2
	s0.5-1,0.7-1.6s0.3-1.2,0.4-1.9c0.1-0.7,0-1.4-0.2-2c-0.1-0.3-0.1-0.6-0.1-0.9s-0.1-0.5-0.3-0.8c-0.2-0.3-0.3-0.6-0.4-0.9
	s-0.2-0.6-0.5-0.8c-0.2-0.2-0.5-0.5-0.6-0.7c-0.2-0.2-0.4-0.4-0.7-0.7c-0.3-0.2-0.6-0.4-0.9-0.7c-0.3-0.2-0.6-0.4-0.9-0.5
	s-0.7-0.2-1-0.2s-0.7-0.1-1-0.1c-0.2,0-0.6,0-1.1-0.1s-0.8,0-1,0.2c0.4,0.4,0.9,0.8,1.4,1s1,0.6,1.4,1s0.7,0.9,1,1.4
	c0.2,0.6,0.4,1.1,0.5,1.7s0.2,1.2,0.2,1.9c0,0.7-0.1,1.3-0.4,1.9c-0.2,0.5-0.5,1.1-0.9,1.7c-0.3,0.6-0.8,1-1.3,1.4s-1.1,0.7-1.6,0.9
	c-0.5,0.2-1.2,0.4-1.9,0.4c-0.7,0-1.4-0.1-2-0.2c-0.7-0.1-1.3-0.4-1.8-0.8c-1-0.7-1.8-1.6-2.3-2.6s-0.7-2.2-0.7-3.4
	c0-1.3,0.4-2.5,0.9-3.6c0.6-1.1,1.3-2.1,2.2-2.9c1.1-1,2.3-1.6,3.8-1.9c1.4-0.2,2.8-0.2,4.2,0c0.6,0.1,1.3,0.2,1.9,0.4
	c0.6,0.2,1.2,0.5,1.8,0.9c0.3,0.2,0.6,0.4,0.9,0.6s0.6,0.4,0.8,0.6c0.1,0.1,0.2,0.3,0.2,0.4s0.1,0.3,0.2,0.4
	c0.1,0.2,0.2,0.4,0.4,0.6c0.2,0.1,0.3,0.3,0.4,0.5s0.3,0.5,0.4,0.8s0.2,0.5,0.4,0.8c0.1,0.2,0.2,0.5,0.3,0.8c0,0.3,0.1,0.6,0.2,0.8
	c0.1,0.3,0.2,0.7,0.3,1c0,0.3,0.1,0.7,0.1,1.1c0,0.1,0.1,0.3,0.1,0.4s0.1,0.3,0.1,0.5s0,0.5-0.1,0.7
	C109.4,354.5,109.5,354.8,109.7,354.9z M53.4,381.4c0,0.1,0.1,0.1,0.3,0.1c0.1,0,0.2-0.1,0.1-0.2c-0.1-0.1-0.3-0.1-0.5-0.1
	s-0.4,0.2-0.4,0.4c0.2,0.1,0.3,0.1,0.3,0C53.1,381.5,53.2,381.5,53.4,381.4z M53,372.6L53,372.6C53.1,372.6,53.1,372.5,53,372.6
	L53,372.6z M53.4,387.4c0-0.1,0-0.2-0.1-0.2s-0.2,0.1-0.2,0.2H53.4z M53.5,383.5c-0.1,0-0.2,0-0.3,0.1l0.3,0.1
	C53.6,383.6,53.6,383.6,53.5,383.5z M53.4,382.4c0-0.1,0.1-0.1,0.2-0.1c0.1,0,0.1,0,0.1-0.1c-0.1-0.1-0.1-0.1-0.3,0
	C53.3,382.2,53.3,382.4,53.4,382.4z M53.8,380.2c-0.1,0.1-0.1,0.3,0,0.4s0.2,0.2,0.4,0.2c0-0.1,0-0.2,0-0.4
	C54,380.2,53.9,380.2,53.8,380.2z M53.8,372.9c-0.1,0.2-0.1,0.3,0.1,0.3C53.9,373,53.9,372.9,53.8,372.9z M55,380.9
	c-0.1,0.1-0.2,0.2-0.4,0.2c-0.1,0-0.2,0.1-0.3,0.3h-0.4c0.2,0.2,0.5,0.4,0.8,0.4c0,0,0.1-0.2,0.3-0.4C55.2,381,55.2,380.9,55,380.9z
	 M54.5,386c0.2-0.2,0.3-0.3,0.1-0.3s-0.3,0-0.3-0.1c-0.1,0.2-0.2,0.3-0.4,0.2c0,0.2,0.1,0.3,0.3,0.3S54.4,386.1,54.5,386z M54.4,379
	c-0.1,0.1-0.1,0.2,0,0.2c0.1,0.1,0.2,0,0.2-0.1c-0.1,0-0.1,0-0.1-0.1S54.5,378.9,54.4,379z M55.4,384.4c0.3-0.1,0.5-0.3,0.4-0.6
	c-0.1-0.3-0.3-0.4-0.6-0.3c0,0.1,0,0.2,0.1,0.3c0.1,0.1,0.1,0.2,0,0.3c-0.1-0.2-0.3-0.3-0.6-0.2c-0.2,0.1-0.3,0.3-0.3,0.5
	c0.1,0,0.2,0,0.2-0.1s0.1-0.1,0.2-0.1C54.9,384.4,55.1,384.4,55.4,384.4z M54.8,375.4c0-0.1,0-0.3-0.1-0.3c-0.1-0.1-0.2,0-0.2,0.1
	c0.1,0,0.1,0,0.1,0.1C54.5,375.2,54.6,375.4,54.8,375.4z M54.5,382.5c0-0.1,0-0.2,0.1-0.2s0-0.1-0.3-0.1
	C54.4,382.4,54.4,382.4,54.5,382.5z M55,383c0-0.2,0.2-0.3,0.4-0.3s0.4,0.1,0.5,0.1c0.1,0.1,0.2,0.1,0.3,0c0,0,0-0.2-0.2-0.6
	c0.2,0,0.3-0.1,0.2-0.2s-0.1-0.2-0.3-0.2c-0.1,0-0.2,0.2-0.3,0.3c-0.1,0.2-0.1,0.3,0,0.4c-0.2-0.2-0.4-0.3-0.6-0.1
	c-0.1,0.2-0.2,0.4-0.3,0.7c-0.1,0.3-0.1,0.4,0,0.2C54.9,383.2,54.9,383.1,55,383z M54.9,379.8c0-0.1-0.1-0.2-0.2-0.2v0.2H54.9z
	 M55.5,387.1c0-0.3-0.1-0.4-0.4-0.4C55.2,386.9,55.4,387.1,55.5,387.1z M55.6,377.4c-0.2,0-0.4,0-0.4,0.2s0.1,0.3,0.2,0.4
	C55.8,377.8,55.8,377.5,55.6,377.4z M55.3,373.1c-0.1,0.1,0,0.2,0,0.3c0.1,0.1,0.1,0.1,0.2,0c-0.1,0-0.1,0-0.1-0.1
	C55.4,373.2,55.4,373.1,55.3,373.1z M55.3,381.8c0.1,0,0.2,0,0.1-0.1C55.3,381.5,55.3,381.5,55.3,381.8z M55.4,385.4
	c0.1-0.4,0.1-0.5,0-0.4C55.3,385.2,55.3,385.4,55.4,385.4z M55.4,376.5c-0.1,0.1,0,0.2,0.2,0.3c0.2,0,0.2-0.1,0.1-0.3H55.4z
	 M55.8,375.2c0,0-0.1-0.1-0.1-0.2c0,0.1,0,0.1,0,0.1S55.7,375.1,55.8,375.2L55.8,375.2C55.6,375.2,55.6,375.2,55.8,375.2z M56,381
	c0.1-0.1,0.1-0.2-0.1-0.4c-0.2-0.2-0.3-0.1-0.3,0.1c0.1,0,0.2,0.1,0.2,0.2C55.8,381,55.9,381,56,381z M56.1,388
	c0-0.1-0.1-0.2-0.3-0.3C55.8,387.9,55.9,388,56.1,388z M56.2,373.4c0,0.1,0,0.2,0,0.2s0,0.1,0,0.2c0.2,0,0.3-0.1,0.2-0.3
	C56.3,373.4,56.3,373.4,56.2,373.4z M56.2,384.8c0,0.2,0.1,0.3,0.3,0.2c0.1-0.1,0.3-0.1,0.4-0.1c-0.1-0.3-0.1-0.4-0.2-0.2
	C56.6,384.9,56.4,384.9,56.2,384.8z M56.3,374.6C56.3,374.6,56.3,374.5,56.3,374.6c0.1,0,0.1,0,0.1-0.1c-0.1,0-0.2,0-0.2,0.1
	C56.2,374.6,56.2,374.6,56.3,374.6z M56.4,380.4c0.2-0.1,0.4-0.2,0.3-0.4c0-0.2-0.2-0.3-0.4-0.3C56.4,379.9,56.4,380,56.4,380.4z
	 M56.4,384.4c-0.1,0.1,0,0.1,0.1,0.1s0.2-0.1,0.1-0.1C56.6,384.1,56.5,384.2,56.4,384.4z M56.9,386.4c-0.1-0.2,0-0.4,0.1-0.6
	c0.1-0.1,0-0.1-0.4,0c0,0.1,0.1,0.2,0.1,0.3C56.8,386.2,56.8,386.4,56.9,386.4z M56.8,378.9c0.1,0,0.2,0,0.1-0.1
	C56.8,378.8,56.8,378.8,56.8,378.9z M57.1,388.5c0.1-0.1,0.2-0.3,0.1-0.5c-0.1,0-0.2,0.1-0.3,0.2C57,388.4,57,388.4,57.1,388.5z
	 M57.3,378.9c-0.1,0-0.2,0.1-0.2,0.2C57.3,379,57.3,378.9,57.3,378.9z M57.1,385.4c0.2,0.2,0.3,0.3,0.3,0.4s0.1,0.1,0.4,0.1
	c0-0.3,0-0.6-0.1-0.7s-0.2-0.1-0.3-0.1C57.2,385,57.1,385.1,57.1,385.4z M57.4,379.9c0-0.1,0-0.1,0.1-0.1c0,0,0.1,0,0.1-0.1
	c-0.1,0-0.3,0-0.3,0.1C57.1,379.8,57.2,379.9,57.4,379.9z M57.2,381.6c0.1,0,0.2,0,0.1-0.1C57.3,381.4,57.2,381.4,57.2,381.6z
	 M57.9,373.6c-0.1-0.2-0.2-0.2-0.4-0.1s-0.2,0.3-0.1,0.4C57.8,373.9,57.8,373.8,57.9,373.6z M57.4,374.5c0.2,0,0.3-0.1,0.2-0.2
	C57.4,374.2,57.4,374.4,57.4,374.5z M57.4,384.4c0,0.2,0.1,0.3,0.3,0.4c0.2,0,0.3,0,0.3-0.1c-0.1,0-0.3-0.1-0.3-0.1
	C57.6,384.4,57.5,384.4,57.4,384.4z M57.5,381.2c0.2,0,0.3-0.1,0.1-0.2C57.5,380.9,57.5,381,57.5,381.2z M57.5,387
	c0.1,0,0.2,0,0.1-0.1C57.5,386.9,57.5,386.9,57.5,387z M57.8,382.9c0,0.1,0,0.2-0.1,0.2s-0.1,0.1,0,0.2c0.3,0.3,0.6,0.5,0.8,0.5
	c0.1-0.2,0-0.4-0.2-0.5C57.9,383.4,57.8,383.1,57.8,382.9L57.8,382.9L57.8,382.9z M57.8,371.9c0,0.2,0,0.3,0.2,0.3s0.3-0.1,0.3-0.3
	C58,371.9,57.9,371.9,57.8,371.9z M58.1,372.6c0,0,0.1,0,0.2-0.1c0,0-0.1-0.1-0.2-0.1V372.6z M58.8,379.8c0-0.1-0.1-0.3-0.2-0.4
	c-0.1-0.1-0.2-0.1-0.3,0C58.2,379.5,58.4,379.8,58.8,379.8z M58.3,351.5c0.1,0,0.1,0,0.1-0.1C58.3,351.4,58.3,351.4,58.3,351.5z
	 M58.3,388.9c0,0.1,0.1,0.1,0.3,0.1c0.1,0,0.2-0.1,0.1-0.3C58.5,388.9,58.3,388.9,58.3,388.9z M58.6,384.5c0.1-0.1,0.1-0.2,0.1-0.3
	c0-0.1-0.1-0.1-0.2-0.1C58.5,384.4,58.5,384.4,58.6,384.5z M58.6,381.6c0.3,0,0.4-0.1,0.2-0.2C58.6,381.4,58.5,381.4,58.6,381.6z
	 M58.8,385.5c-0.1,0.1-0.1,0.2-0.1,0.3c0,0.1,0.1,0.1,0.3,0.1C59,385.8,58.9,385.6,58.8,385.5z M59.4,385.2c-0.1,0-0.2,0-0.4-0.1
	s-0.3,0-0.3,0.3c0.2-0.1,0.3-0.1,0.4,0c0,0.1,0.1,0.2,0.2,0.3c0.1,0.1,0.3,0.1,0.5-0.2c0.2-0.3,0.3-0.5,0.3-0.6
	C59.9,385,59.6,385.1,59.4,385.2z M59,388.4v-0.1v-0.1c-0.1,0-0.2,0-0.3,0.1C58.8,388.2,58.9,388.2,59,388.4z M58.8,379.2
	c0.1,0.1,0.1,0,0.1-0.1s0-0.2-0.1-0.1V379.2z M59.1,375.8h0.2c0-0.1-0.1-0.2-0.2-0.1V375.8z M59.1,389.5c0.1,0,0.2,0,0.3-0.1
	c0,0-0.1-0.1-0.3-0.1V389.5z M59.1,381.8c0.2,0,0.3,0,0.3-0.2C59.2,381.5,59.1,381.5,59.1,381.8z M60.8,390.4c0-0.3,0-0.6-0.1-0.9
	c-0.1-0.2-0.3-0.5-0.4-0.8c0.1-0.2,0.2-0.3,0.1-0.3c0,0-0.1,0-0.3,0.1c-0.1,0.1-0.3,0.1-0.4,0.2c-0.2,0.1-0.3,0.1-0.4,0.2
	c0.3,0.1,0.6,0.3,0.7,0.7c0.1-0.1,0.2-0.1,0.4-0.1c0.1,0,0.2,0,0.2,0.1c-0.1,0.1-0.2,0.2-0.1,0.4C60.5,390.2,60.6,390.4,60.8,390.4z
	 M59.3,366.4c0.3,0,0.4-0.1,0.2-0.2C59.3,366.1,59.2,366.1,59.3,366.4z M59.4,381.1c0,0,0.1,0.1,0.3,0.1c0-0.2-0.1-0.3-0.2-0.3
	L59.4,381.1z M59.8,350.9c0.2,0.2,0.3,0.1,0.3-0.1c-0.1-0.1-0.2-0.1-0.2-0.1C59.8,350.6,59.8,350.8,59.8,350.9z M60.2,371.4
	c-0.1-0.3-0.3-0.5-0.5-0.5C59.8,371,59.8,371.2,60.2,371.4z M59.8,366.1H60c0-0.1-0.1-0.2-0.2-0.2V366.1z M59.8,369.4
	c0.2,0,0.2,0,0.1-0.1C59.9,369.2,59.8,369.2,59.8,369.4z M59.9,390.4l0.1-0.1c0,0-0.1-0.1-0.2-0.1C59.8,390.2,59.8,390.4,59.9,390.4
	z M60.3,348.9c0-0.1,0-0.1,0.1-0.1c-0.1,0-0.2-0.1-0.3-0.1C60,348.9,60.1,348.9,60.3,348.9z M60.1,351.8c0,0.1,0.1,0.2,0.3,0.2
	c0-0.1-0.1-0.2-0.1-0.4c0,0.1-0.1,0.1-0.1,0.1C60.2,351.8,60.2,351.8,60.1,351.8z M60.3,386.9c-0.1,0-0.2,0-0.2,0.1
	C60.2,387,60.2,387,60.3,386.9z M60.1,391c0.2,0.1,0.4,0,0.4-0.2s0-0.4-0.3-0.4C60.3,390.8,60.2,390.9,60.1,391z M60.6,386.4
	c0.2,0.1,0.4,0.1,0.6,0.1c0.1,0,0.3-0.1,0.5-0.4c-0.1,0-0.2,0-0.4,0c-0.1,0-0.3,0.1-0.4,0.1c-0.1-0.2-0.2-0.3-0.4-0.2
	C60.3,386.1,60.3,386.2,60.6,386.4z M60.4,376.2c0,0.1,0,0.2,0.1,0.2s0.2,0,0.2,0c0-0.1,0-0.2-0.1-0.2
	C60.5,376,60.5,376.1,60.4,376.2z M60.9,373.4c-0.2-0.1-0.3-0.1-0.4,0c0,0.1,0.1,0.2,0.2,0.2C60.9,373.6,60.9,373.6,60.9,373.4z
	 M60.6,387.5c0.1,0,0.2-0.1,0.2-0.2C60.6,387.4,60.5,387.4,60.6,387.5z M60.8,383.8c0.1,0.1,0.2,0.1,0.4,0.1s0.3-0.1,0.3-0.3
	c-0.1-0.1-0.2-0.1-0.4-0.1C60.8,383.4,60.8,383.5,60.8,383.8z M61,376.6c0-0.1-0.1-0.2-0.2-0.2v0.2H61z M60.9,356.4
	c0.2,0,0.4-0.1,0.4-0.2c-0.1-0.1-0.1-0.2-0.3-0.1C60.9,356,60.9,356.1,60.9,356.4z M60.9,384.5L60.9,384.5c0.1,0,0.1,0,0.1-0.1
	l-0.1-0.1V384.5z M61.1,388.5c-0.1,0.1,0,0.1,0.1,0.1s0.2-0.1,0.1-0.1C61.2,388.4,61.2,388.4,61.1,388.5z M61.1,353.2
	c0.2,0,0.4,0,0.4-0.2s-0.1-0.3-0.4-0.3V353.2z M61.4,354.4c0-0.1,0-0.2-0.1-0.2s-0.2,0-0.2,0.1c0.1,0,0.1,0.1,0.1,0.1
	S61.3,354.4,61.4,354.4z M61.2,382.4l-0.1,0.1h0.1V382.4C61.2,382.4,61.2,382.4,61.2,382.4z M61.6,385c-0.2,0-0.4,0.1-0.5,0.2
	c0.1,0,0.2,0.1,0.3,0.1C61.5,385.4,61.5,385.2,61.6,385z M61.4,372.9c-0.1,0-0.2,0.1-0.3,0.1c0,0.1,0.1,0.1,0.1,0.1s0.1,0,0.1,0.1
	C61.4,373.1,61.4,373,61.4,372.9z M61.2,354.4c0.2,0.1,0.4,0.3,0.4,0.3c0,0.1,0.1,0.1,0.4,0c0-0.1-0.1-0.2-0.2-0.4
	c-0.1-0.1-0.2-0.2-0.3-0.2c0.1,0.1,0.1,0.2,0,0.2C61.3,354.4,61.3,354.4,61.2,354.4z M61.8,378.9c-0.1,0-0.2,0.1-0.2,0.2
	C61.6,379,61.8,378.9,61.8,378.9z M61.5,387.9c0.1,0,0.2,0,0.2-0.1c-0.1,0-0.1-0.1-0.1-0.2C61.5,387.4,61.5,387.5,61.5,387.9z
	 M61.6,387.4c0.2,0,0.3-0.1,0.1-0.2C61.6,387,61.5,387.1,61.6,387.4z M61.6,373.9c-0.1,0.2,0,0.3,0.2,0.3c0-0.2,0-0.3,0-0.3
	C61.8,373.9,61.8,373.9,61.6,373.9z M61.8,381.9c0.2-0.1,0.2-0.2,0-0.3C61.5,381.9,61.5,381.9,61.8,381.9z M62,380.6
	c-0.1,0.1-0.1,0.1-0.2,0.1c-0.1,0-0.1,0,0,0.1c0.1,0,0.2,0,0.3-0.1C62.1,380.8,62.1,380.6,62,380.6z M61.8,351.1c0,0,0.1,0,0.1,0.1
	c0-0.1,0-0.2-0.1-0.2V351.1z M62,386.8c0-0.1,0-0.2-0.1-0.2s-0.2,0-0.2,0.1C61.9,386.8,62,386.9,62,386.8z M62,352.6
	c0.1,0.2,0.2,0.3,0.4,0.4c0.2,0,0.3,0.1,0.5,0.2c-0.1-0.2-0.2-0.4-0.4-0.5c-0.1-0.1-0.3-0.3-0.4-0.4c0,0.1,0,0.1-0.1,0.1
	C62,352.4,62,352.5,62,352.6z M62.1,383.8c-0.1,0.1-0.1,0.1-0.1,0.3c0,0.1,0,0.2,0.1,0.1c0.1,0,0.1-0.1,0.1-0.3
	C62.3,383.9,62.2,383.8,62.1,383.8z M62.2,385.8c0,0.1,0,0.2,0,0.3c-0.1,0.1,0,0.1,0.2,0.1c0-0.1,0-0.2,0-0.2
	C62.3,385.9,62.2,385.9,62.2,385.8z M62.8,354.4c-0.1-0.1-0.2-0.1-0.3,0s-0.1,0.2,0,0.3c0.1,0,0.2,0,0.2-0.1
	C62.7,354.5,62.8,354.4,62.8,354.4z M62.4,393.2c0.1,0,0.2-0.1,0.2-0.4C62.4,392.9,62.4,393,62.4,393.2z M62.4,355.5
	c0.2,0,0.3-0.1,0.2-0.2C62.5,355.1,62.4,355.2,62.4,355.5z M62.4,371c0,0.1,0.1,0.3,0.2,0.4c0.1,0.1,0.2,0.1,0.3,0
	c0-0.1-0.1-0.2-0.2-0.3C62.6,371.1,62.5,371,62.4,371z M62.5,356.5c0.3,0,0.4-0.1,0.4-0.4c-0.1-0.1-0.2-0.1-0.3,0
	C62.5,356.2,62.5,356.4,62.5,356.5z M62.9,350.6c-0.1-0.1-0.2-0.1-0.3,0.1c-0.1,0.1-0.1,0.2,0,0.3C62.8,350.9,62.8,350.8,62.9,350.6
	z M63,382.4c0.1-0.2,0-0.3-0.1-0.2c-0.2,0-0.3,0.2-0.3,0.4c0.1,0,0.2,0,0.3,0.1C62.8,382.8,62.9,382.6,63,382.4z M62.9,381.4
	c0.2,0.1,0.4,0,0.5-0.2s0.1-0.3-0.2-0.4c0.1,0.1,0.1,0.2-0.1,0.2c-0.2,0-0.3-0.1-0.3-0.2c-0.1,0.1-0.1,0.2,0,0.3
	C62.8,381.2,62.8,381.4,62.9,381.4z M62.9,348c-0.2,0-0.3,0-0.3,0.1c0,0,0.1,0.1,0.2,0C62.9,348.2,62.9,348.1,62.9,348z M62.6,389.8
	c0.1,0.1,0.2,0.1,0.3,0.1s0.2-0.1,0.3-0.1c-0.1-0.1-0.1-0.2-0.1-0.4c0-0.1-0.1-0.3-0.2-0.4c-0.1,0.1-0.1,0.3-0.1,0.4
	C62.8,389.4,62.8,389.5,62.6,389.8z M63,349.5c-0.1,0.1,0,0.2,0.3,0.3c0.3,0.1,0.5,0.2,0.6,0.2c0.2,0,0.2-0.1,0.1-0.3
	c-0.1-0.2-0.2-0.2-0.4-0.1c-0.1,0-0.2,0-0.4-0.1C63.2,349.4,63.1,349.4,63,349.5z M63.5,348.4c0-0.1,0-0.2-0.1-0.2s-0.2,0-0.3,0
	c0,0.1,0,0.2,0.1,0.3C63.3,348.4,63.4,348.4,63.5,348.4z M63.2,356.9c0,0.1,0,0.2,0.1,0.2s0.1-0.1,0.1-0.3
	C63.4,356.9,63.3,356.9,63.2,356.9z M63.6,356.1c-0.1,0-0.1-0.1,0-0.3c0-0.1,0-0.3,0-0.4s0-0.3,0-0.4s-0.1-0.2-0.3-0.2
	c0,0.1,0.1,0.2,0,0.4c0,0.2-0.1,0.3-0.1,0.5c-0.1,0.1-0.1,0.3,0,0.4C63.3,356.1,63.4,356.2,63.6,356.1z M63.4,352.9
	c0,0,0.1-0.1,0-0.2c0-0.1-0.1-0.1-0.2,0C63.2,352.9,63.3,352.9,63.4,352.9z M64,352.6c-0.2,0-0.3,0.1-0.4,0.3
	c-0.1,0.2-0.1,0.4-0.1,0.7c0.3,0.1,0.5,0.1,0.5-0.3C64,352.9,64,352.8,64,352.6z M63.9,350.9c-0.1-0.1-0.2-0.1-0.3,0
	s-0.2,0.2-0.1,0.5c0.1,0,0.2-0.1,0.2-0.2S63.8,350.9,63.9,350.9z M63.5,386.2c0,0,0.1,0,0.2,0c0.1,0,0.1-0.1,0.2-0.1
	C63.6,386,63.5,386.1,63.5,386.2z M63.8,368.2c0.1,0,0.1,0,0.1-0.1s0-0.2,0.1-0.3C63.6,367.9,63.5,367.9,63.8,368.2z M64.8,354.4
	c-0.1-0.2-0.2-0.3-0.6-0.4c-0.3,0-0.5,0-0.5,0.1c0.2,0,0.4,0.1,0.6,0.3C64.4,354.4,64.7,354.4,64.8,354.4z M63.8,354.8
	c0,0.2,0.2,0.3,0.5,0.3C64.2,354.8,63.9,354.6,63.8,354.8z M63.8,355.6c-0.1,0.2,0,0.3,0.2,0.3s0.3-0.1,0.4-0.3
	C64.2,355.6,64,355.6,63.8,355.6z M63.9,357.4c-0.1,0.1,0,0.2,0.1,0.2s0.1,0,0.1-0.1C64,357.5,64,357.5,63.9,357.4
	C64,357.4,64,357.4,63.9,357.4z M64,358.9c-0.2,0.2-0.1,0.3,0.2,0.3C64.2,358.9,64.2,358.9,64,358.9z M64.2,388c0.1,0,0.2,0,0.3-0.1
	c0.1-0.1,0.1-0.2,0-0.3c-0.1,0.1-0.1,0.2-0.2,0.2C64.2,387.9,64.2,387.9,64.2,388z M64.4,358.8c0.2-0.2,0.3-0.4,0.1-0.5
	c-0.2-0.1-0.4-0.1-0.4,0.1C64.2,358.5,64.2,358.6,64.4,358.8z M64.2,349c0,0.1,0.1,0.2,0.2,0.2C64.4,349,64.3,348.9,64.2,349z
	 M64.3,375.4c-0.1,0.1-0.1,0.1,0.1,0.1c0.1,0,0.2-0.1,0.1-0.2c0,0,0-0.1-0.1,0C64.3,375.2,64.3,375.2,64.3,375.4z M64.3,389.4
	c0,0.2,0.1,0.3,0.3,0.3c0.1,0,0.2-0.1,0.3-0.3c-0.1,0-0.2,0-0.3-0.1C64.5,389.2,64.4,389.2,64.3,389.4z M64.5,355
	c0.1,0,0.2,0,0.2-0.1s-0.1-0.2-0.2-0.1C64.4,354.9,64.4,354.9,64.5,355z M64.8,350.9c0,0.2,0,0.3,0,0.3c-0.1,0-0.2,0.1-0.3,0.1
	c0,0.2,0.1,0.3,0.3,0.4c0-0.1,0-0.2,0.1-0.3c0.1,0,0.2-0.1,0.3-0.2c0.2-0.2,0.3-0.4,0-0.3C65,350.9,64.8,350.9,64.8,350.9z
	 M64.8,356.4c-0.1-0.1-0.2-0.1-0.3,0c-0.1,0.1-0.1,0.2-0.1,0.3C64.8,356.5,64.8,356.4,64.8,356.4z M64.9,367.6c-0.2,0-0.4,0-0.4,0.2
	c0.1,0.1,0.2,0.1,0.3,0C64.9,367.9,64.9,367.8,64.9,367.6z M64.5,391.2c0.2,0,0.4-0.1,0.4-0.4C64.8,390.9,64.7,390.9,64.5,391.2z
	 M64.9,357.1c0,0,0.1-0.1,0-0.2c0-0.1-0.1-0.1-0.2-0.1c-0.1,0.1-0.1,0.2,0,0.3C64.8,357.1,64.8,357.1,64.9,357.1z M64.8,352.9
	c0.1,0.1,0.3,0.1,0.4,0s0.2-0.3,0.2-0.4c0-0.3,0-0.4-0.2-0.4c-0.1,0.1-0.1,0.2,0,0.3c0,0.1,0,0.2,0,0.3
	C65,352.6,64.8,352.8,64.8,352.9z M64.9,349.4c-0.1,0.1-0.1,0.1-0.1,0.2c0.1,0.1,0.2,0.1,0.2,0C65.2,349.5,65.2,349.4,64.9,349.4z
	 M65,358.6c0.1,0,0.1,0,0.1-0.1s0-0.2-0.1-0.2c0,0.1,0,0.1,0,0.1C65,358.5,65,358.5,65,358.6z M65.2,356.2c0.1,0,0.2,0,0.2,0
	c0-0.1,0-0.1,0-0.2s-0.1-0.1-0.1-0.1C65.2,355.9,65.2,356,65.2,356.2z M65.2,358.4c0,0,0.1,0,0.2,0.1c0-0.1,0-0.2-0.1-0.3
	C65.3,358.2,65.2,358.4,65.2,358.4z M66.2,349.6c-0.3-0.1-0.6-0.2-0.9-0.2c0,0.1,0.1,0.2,0.2,0.4c0.1,0,0.2,0,0.4,0
	C66,349.9,66.2,349.8,66.2,349.6z M65.7,353.9c-0.2-0.1-0.3,0-0.2,0.3C65.5,354.2,65.7,354.1,65.7,353.9z M65.4,360.1
	c0,0.1,0.1,0.1,0.2,0.1s0.1-0.1,0.1-0.2C65.5,359.9,65.4,360,65.4,360.1z M65.8,357.4c0.1-0.1,0.2-0.2,0-0.2c-0.1,0-0.2,0-0.3,0.1
	c0,0.1,0,0.2,0.1,0.2C65.8,357.4,65.8,357.4,65.8,357.4z M65.7,355.1c-0.1,0.2-0.1,0.3,0,0.3S65.8,355.3,65.7,355.1L65.7,355.1z
	 M65.9,367.4c0,0-0.1,0.1,0,0.2c0,0.1,0.1,0.1,0.2,0.1C66.2,367.4,66.2,367.4,65.9,367.4z M66.3,357.4c0-0.2-0.1-0.4-0.4-0.4
	C65.9,357.2,66.2,357.4,66.3,357.4z M65.9,358.5c0.1-0.1,0.3-0.1,0.5,0s0.4,0,0.5-0.1c0-0.1-0.2-0.1-0.3-0.1c-0.2,0-0.2,0,0-0.1
	c-0.1,0-0.2,0-0.3,0C66.2,358,66,358.2,65.9,358.5z M66.5,351.1c0,0-0.1-0.1-0.2,0c-0.1,0-0.1,0.1,0,0.2
	C66.4,351.2,66.5,351.2,66.5,351.1z M66.3,356.1c0,0.1,0,0.2,0.1,0.1c0.1,0,0.2,0,0.3,0c0-0.1,0-0.2-0.1-0.2
	C66.4,356,66.3,356.1,66.3,356.1z M66.7,366.6c0,0.1,0,0.2-0.1,0.3c-0.1,0.1-0.1,0.2-0.1,0.3c0.2,0.2,0.4,0.1,0.4-0.2
	C66.8,366.8,66.8,366.5,66.7,366.6z M66.5,368.4c0.1,0,0.2,0.1,0.3,0c0.1,0,0.1-0.1,0.1-0.2c-0.1-0.1-0.2-0.1-0.3-0.1
	C66.5,368.1,66.5,368.1,66.5,368.4z M66.5,391.6c0.3,0,0.5-0.2,0.6-0.6l-0.1-0.1c0,0.2-0.1,0.4-0.4,0.4L66.5,391.6L66.5,391.6z
	 M66.7,349.8c0,0.1,0,0.2,0,0.3c0,0.1,0.1,0.1,0.2,0C66.8,349.8,66.8,349.6,66.7,349.8z M67.3,352.9c-0.4,0-0.5,0.2-0.4,0.7
	C67.2,353.4,67.2,353.2,67.3,352.9z M66.9,392.4c0,0.1,0,0.2,0.1,0.2s0.2,0,0.2-0.1C67.2,392.4,67,392.4,66.9,392.4z M67.2,343.8
	c-0.1,0-0.1,0.1-0.1,0.1s0,0.1,0.1,0.1s0.1-0.1,0.1-0.1C67.2,343.8,67.2,343.8,67.2,343.8z M67.3,351.9c0,0.2,0,0.3,0.2,0.3
	s0.2-0.1,0.1-0.3H67.3z M67.3,363.2c0.1,0,0.1,0,0.1-0.1s0-0.2-0.1-0.1V363.2z M67.3,367.1c0.1,0,0.2,0,0.1-0.1S67.3,367,67.3,367.1
	z M67.8,349.4c0-0.2-0.1-0.3-0.3-0.3c-0.2,0.1-0.2,0.2,0,0.3c0.1,0,0.2,0,0.2-0.1C67.8,349.4,67.8,349.4,67.8,349.4z M67.8,342.5
	c-0.2,0-0.3,0-0.4,0.1c0,0.1,0.1,0.2,0.3,0.2C67.9,342.9,67.9,342.8,67.8,342.5z M68.3,393.4c0.1,0,0.2,0,0.1-0.1
	c0-0.1-0.1-0.1-0.1,0V393.4z M68.4,392c0.2,0,0.2,0,0.1-0.1C68.5,391.9,68.4,391.9,68.4,392z M68.8,393.9c0.1,0,0.2,0,0.2-0.1h-0.1
	h-0.1V393.9z M69,392.5c0.2,0,0.3,0,0.2-0.1c-0.1-0.1-0.2-0.1-0.2-0.1V392.5z M70.5,361.8c0.2,0,0.2,0,0.1-0.1
	C70.7,361.4,70.5,361.5,70.5,361.8z M72.4,342.4v-0.1C72.4,342.2,72.4,342.2,72.4,342.4L72.4,342.4z M73.4,348.8
	c0.1,0,0.2,0.1,0.4,0.2c0.1,0.1,0.2,0,0.1-0.3c-0.1,0-0.2,0-0.3,0C73.5,348.6,73.4,348.6,73.4,348.8z M73.7,353.9l0.1-0.1
	c-0.1-0.1-0.2-0.1-0.3,0C73.4,353.9,73.5,353.9,73.7,353.9z M74.2,383.1c0.1,0,0.2,0,0.1-0.1S74.2,382.9,74.2,383.1z M79,366.1
	c0.1-0.1,0.1-0.2-0.1-0.3C78.9,366,78.9,366.1,79,366.1z M79.8,367.6c0.1,0,0.1,0,0.1,0.1c0,0,0,0,0.1,0v-0.1
	C79.9,367.5,79.8,367.5,79.8,367.6z M80.4,385c-0.3,0-0.5,0.2-0.6,0.4C80.2,385.4,80.3,385.2,80.4,385z M79.9,368.4
	c0.1,0,0.2,0,0.2-0.1s-0.1-0.2-0.1-0.2C80,368.1,79.9,368.2,79.9,368.4z M80.2,364.8c0.3,0.1,0.5,0,0.6-0.2s0.1-0.4-0.1-0.6
	c-0.1,0.2-0.1,0.3-0.3,0.4C80.3,364.4,80.2,364.5,80.2,364.8z M81.3,382.9c-0.1,0-0.1,0.1-0.1,0.2s0,0.1,0.1,0.1
	c0,0,0.1-0.1,0.1-0.2S81.4,382.9,81.3,382.9z M81.7,379.4c-0.1,0.1-0.1,0.1-0.1,0.2s0.1,0.1,0.2,0.1
	C81.8,379.6,81.8,379.5,81.7,379.4z M81.5,366.6c0.1,0,0.2,0,0.1-0.1C81.5,366.4,81.5,366.4,81.5,366.6z M82.4,365.9
	c0.1-0.1,0.1-0.2,0-0.4c-0.1-0.1-0.1-0.3,0.1-0.4c-0.1,0-0.3,0-0.3,0.1c-0.1,0-0.2,0.1-0.3,0.2v0.4c0.2-0.1,0.3-0.1,0.3,0
	C82.2,365.9,82.2,365.9,82.4,365.9z M82.5,360.8c0.2,0,0.2,0,0.1-0.1S82.5,360.6,82.5,360.8z M82.5,365.5c0.1,0.1,0.2,0.1,0.2,0.1
	s0.1-0.1,0-0.2c0-0.1-0.1-0.1-0.1-0.1C82.7,365.2,82.7,365.4,82.5,365.5z M83.2,364.1c0-0.1,0-0.2,0-0.2s-0.1-0.1-0.1-0.2v0.3
	C83.2,364,83.2,364,83.2,364.1C83.2,364.1,83.2,364.1,83.2,364.1z M83.7,366.1c0-0.2-0.1-0.3-0.3-0.3
	C83.3,366,83.4,366.1,83.7,366.1z M83.8,344.4c-0.2,0.2-0.2,0.3-0.1,0.4s0.2,0.1,0.3-0.1C83.9,344.5,83.9,344.4,83.8,344.4z
	 M83.7,362.9c0.1,0,0.2-0.1,0.1-0.2c-0.1,0-0.1,0-0.1,0.1C83.8,362.9,83.8,362.9,83.7,362.9z M83.9,386.4c-0.2,0-0.3,0-0.3,0.2
	c0,0.1,0.1,0.1,0.2,0C84,386.5,84,386.4,83.9,386.4z M84.2,363.6c-0.1-0.1-0.2-0.2-0.3-0.1c-0.1,0.1-0.2,0.2-0.2,0.3
	c0.1,0.1,0.2,0.1,0.3,0.1C84.2,363.9,84.2,363.8,84.2,363.6z M84.2,364.9c0-0.1,0-0.2-0.1-0.2s-0.2,0.1-0.2,0.2H84.2z M83.9,362.1
	c0,0.2,0,0.3,0.1,0.4c0-0.1,0.1-0.2,0.2-0.3C84.3,362.1,84.2,362.1,83.9,362.1z M84.2,366.9c0,0.1,0,0.2,0.1,0.1
	c0.1,0,0.2-0.1,0.1-0.2h-0.1C84.2,366.9,84.2,366.9,84.2,366.9L84.2,366.9z M84.5,345.4c-0.2-0.1-0.2,0-0.1,0.2
	C84.5,345.5,84.5,345.4,84.5,345.4z M84.5,361.2c0.1,0,0.2,0,0.2,0c0-0.1,0-0.2-0.1-0.3c-0.1-0.1-0.2-0.1-0.2,0
	C84.3,361,84.4,361.1,84.5,361.2z M84.5,365.6c0.2,0,0.3,0,0.4-0.1c0-0.1,0-0.2-0.2-0.3c0,0.1-0.1,0.2-0.1,0.2
	C84.7,365.4,84.7,365.5,84.5,365.6z M84.9,361.8c-0.2,0-0.3,0-0.3,0.1c0.1,0,0.1,0,0.1-0.1C84.8,361.8,84.8,361.8,84.9,361.8z
	 M84.9,363c0-0.1,0-0.3-0.2-0.4c0,0-0.1,0.1,0,0.3C84.8,363,84.8,363.1,84.9,363z M85.2,345.6c0,0-0.1,0-0.1,0.1l0.1,0.1
	C85.2,345.9,85.2,345.8,85.2,345.6C85.2,345.6,85.2,345.6,85.2,345.6z M85.3,365.6c0.1,0,0.3-0.2,0.4-0.4
	C85.4,365.2,85.3,365.4,85.3,365.6z M85.8,377.1c0-0.1,0-0.2-0.1-0.1c0,0-0.1,0-0.2,0c0,0.1,0,0.2,0.1,0.2
	C85.5,377.1,85.7,377.1,85.8,377.1z M85.7,362.8c0.1,0,0.2,0,0.3,0c0.1,0,0.1,0,0.1-0.2C85.9,362.5,85.8,362.5,85.7,362.8z
	 M86.3,375.5c-0.1,0-0.2,0-0.3,0c-0.1,0-0.1,0,0,0.2c0.1,0,0.2,0,0.2,0C86.2,375.6,86.3,375.5,86.3,375.5z M86.7,364.1
	c0.3,0,0.5,0,0.6-0.1c0-0.1,0-0.1,0-0.2c-0.1-0.1-0.2-0.1-0.3-0.1c-0.1,0-0.2,0-0.2,0.1c-0.2,0-0.4,0.1-0.6,0.3
	c-0.1,0.1-0.1,0.4,0,0.7c0.1,0.2,0.3,0.3,0.5,0.1c0.1-0.1,0.2-0.2,0.1-0.3C86.8,364.4,86.7,364.4,86.7,364.1z M86.2,350.4
	c-0.1,0.1-0.1,0.2,0.1,0.3C86.4,350.4,86.4,350.4,86.2,350.4z M86.5,362.4c0.2,0,0.2,0,0.2-0.1C86.7,362.1,86.5,362.2,86.5,362.4z
	 M87,362.4c0.2-0.1,0.4-0.1,0.6,0.1c0.1,0.2,0.3,0.3,0.6,0.2c-0.1-0.2-0.2-0.4-0.4-0.4c-0.2,0-0.5-0.1-0.7-0.1L87,362.4L87,362.4z
	 M87.2,381.4c0,0.2,0.1,0.3,0.3,0.2C87.4,381.5,87.3,381.4,87.2,381.4z M87.4,375.5c-0.1,0-0.1,0.1-0.1,0.3c0,0.1,0.1,0.2,0.3,0.2
	c0,0,0.1-0.1,0.1-0.3C87.8,375.5,87.7,375.4,87.4,375.5z M87.8,363.2c-0.1-0.1-0.3-0.1-0.4,0s-0.1,0.3,0.1,0.4
	c0-0.1,0.1-0.2,0.1-0.2C87.8,363.4,87.8,363.4,87.8,363.2z M87.8,365.5c0-0.1,0-0.2-0.1-0.3c-0.1-0.1-0.2-0.1-0.3,0
	c0.1,0,0.1,0.1,0.1,0.3C87.4,365.6,87.5,365.6,87.8,365.5z M87.8,364.8c0.2,0,0.4-0.2,0.3-0.4c0-0.2-0.2-0.3-0.4-0.2
	C87.7,364.2,87.7,364.4,87.8,364.8z M87.9,381.4c-0.2-0.1-0.2,0-0.1,0.1S87.9,381.5,87.9,381.4z M87.9,363.2
	c0.2,0.2,0.4,0.2,0.7-0.1c0.2-0.3,0.1-0.5-0.1-0.6c-0.1,0-0.1,0.1,0,0.3c0.1,0.1,0.1,0.2,0,0.3c-0.1,0-0.2-0.1-0.3-0.2
	c0-0.1-0.1-0.2-0.3-0.3c0,0.2,0,0.3,0,0.3C87.8,363,87.8,363.1,87.9,363.2z M88.2,361.9h0.2c0-0.1-0.1-0.2-0.2-0.1V361.9z
	 M88.5,364.5c0.1,0.1,0.3,0.2,0.5,0.3c0.2,0.1,0.3,0,0.3-0.3c-0.1-0.1-0.2-0.2-0.3-0.2c-0.1,0-0.1-0.1,0-0.3c0.1-0.1,0-0.2-0.3-0.2
	C88.5,363.9,88.4,364,88.5,364.5z M88.8,361.6c-0.1,0-0.2,0-0.2,0c0,0.1-0.1,0.1-0.2,0.2c0.1,0,0.2,0.1,0.2,0.1s0.1,0,0.2-0.1
	c0-0.1,0-0.1-0.1-0.1C88.8,361.9,88.8,361.8,88.8,361.6z M88.5,376.6c0,0.1,0.1,0.1,0.2,0.1s0.2,0,0.1-0.1H88.5z M88.9,365.6
	c0-0.2,0-0.3-0.2-0.3s-0.2,0.1-0.2,0.3H88.9z M88.9,360.2c-0.1,0.2,0,0.2,0.1,0.1C89.2,360.4,89.2,360.2,88.9,360.2z M89.7,377.1
	c-0.1,0.1,0,0.2,0.1,0.2s0.1,0,0.1-0.1c-0.1,0-0.1,0-0.1,0C89.8,377.1,89.8,377.1,89.7,377.1z M89.9,362.1C90,362,90,362,89.8,362
	s-0.2,0-0.1,0.1H89.9C89.8,362,89.8,362.1,89.9,362.1z M90.5,382.9c-0.1,0-0.2,0.1-0.2,0.4C90.4,383.2,90.5,383.1,90.5,382.9z
	 M91,363.2c0.1,0.1,0.2,0.1,0.3,0c0.1-0.1,0.1-0.2,0.1-0.3c-0.1-0.1-0.2-0.1-0.3,0C91,363,91,363.1,91,363.2z M91.2,363.8
	c0.1,0.1,0.2,0.1,0.4,0c0.1-0.1,0.2-0.2,0.1-0.3C91.4,363.4,91.3,363.4,91.2,363.8z M92,361.8c0,0,0.1-0.1,0.1-0.2s0-0.2-0.2-0.3
	C91.8,361.4,91.8,361.6,92,361.8z M92.2,370.1c0-0.1,0-0.2-0.1-0.2v0.1C92.1,370,92,370,92.2,370.1C92,370.1,92.2,370.1,92.2,370.1z
	 M92.2,350.9L92.2,350.9C92.2,350.9,92.2,350.9,92.2,350.9L92.2,350.9z M92.7,361.8c0,0.1-0.1,0.2-0.1,0.4c0,0.2,0.1,0.3,0.2,0.3
	c0-0.1,0.1-0.3,0-0.5C92.8,361.9,92.8,361.8,92.7,361.8z M92.5,369c0,0.2,0,0.3,0.1,0.2c0.1,0,0.2-0.1,0.3-0.1
	C92.8,368.9,92.8,368.9,92.5,369z M93.2,363.4c0.3,0,0.4-0.1,0.4-0.3c0-0.2,0-0.4,0.1-0.6c-0.2-0.1-0.4,0-0.5,0.2
	c0.1,0.1,0.2,0.2,0.1,0.3C93.2,363.2,93.2,363.4,93.2,363.4z M93.3,364.1c0,0.1,0,0.3,0.3,0.4c0.2,0.1,0.4,0.2,0.5,0.2
	c0-0.2-0.1-0.4-0.2-0.5C93.8,364,93.5,364,93.3,364.1z M93.4,367.5c0,0,0.1,0.1,0.2,0.1c0.2,0,0.3,0,0.3-0.1c0,0-0.1-0.1-0.2-0.3
	l-0.1,0.1c0,0.1,0,0.1,0,0.1C93.4,367.4,93.4,367.4,93.4,367.5z M93.8,369L93.8,369c0.1-0.2,0-0.2-0.1-0.2
	C93.7,368.9,93.7,369,93.8,369z M93.8,367c0.2,0,0.3-0.1,0.1-0.2C93.8,366.8,93.8,366.8,93.8,367z M93.8,363.2
	c0,0.2,0.1,0.3,0.2,0.3C94,363.4,94,363.2,93.8,363.2z M94.7,366.6c0.2,0.2,0.3,0.2,0.4,0c0-0.2,0-0.4-0.1-0.6
	c0-0.1-0.1-0.4-0.1-0.6c0-0.3,0-0.4-0.1-0.5s-0.2-0.1-0.3,0.2c-0.1,0.3-0.2,0.5-0.3,0.6c0.1,0.1,0.2,0.1,0.2,0.1s0.1,0.1,0.1,0.2
	C94.3,366.4,94.4,366.4,94.7,366.6z M94.5,363.4c0-0.1,0-0.2,0-0.4c0-0.2,0-0.2-0.3-0.1c0,0.1,0.1,0.2,0.1,0.3
	C94.3,363.4,94.3,363.4,94.5,363.4z M95.3,366.4c0-0.1,0-0.1,0-0.1C95.2,366.3,95.2,366.3,95.3,366.4L95.3,366.4z M95.8,364.1
	c-0.2,0-0.4,0.1-0.4,0.4c0.2,0,0.3,0,0.3,0C95.7,364.6,95.7,364.5,95.8,364.1z M95.7,365.9c-0.1-0.1-0.2-0.1-0.2,0
	c-0.1,0.1,0,0.2,0.2,0.1V365.9z M95.7,354.1c-0.1,0-0.1,0.1,0,0.2c0,0.1,0.1,0.1,0.2,0C95.8,354.4,95.8,354.2,95.7,354.1z
	 M95.7,369.4c0.2,0,0.3-0.1,0.2-0.2C95.8,369,95.7,369,95.7,369.4z M96.5,361.8c-0.1,0-0.2-0.1-0.3,0c-0.1,0-0.2,0-0.3-0.1
	c0,0.2,0.1,0.3,0.4,0.4v-0.1C96.4,361.9,96.4,361.8,96.5,361.8z M96,370c0.2,0.2,0.4,0.1,0.5-0.3s0.1-0.6,0.2-0.8
	c-0.3-0.1-0.5,0-0.5,0.3C96.2,369.6,96.2,369.9,96,370z M96.5,378.9c-0.1,0-0.2,0-0.3,0c-0.1,0-0.1,0-0.2,0.1c0,0.1,0.1,0.1,0.3,0.1
	S96.5,379,96.5,378.9z M96.2,364.4c0,0.2,0.1,0.3,0.3,0.3c0-0.1,0-0.2,0-0.3C96.3,364.4,96.2,364.4,96.2,364.4z M96.2,365.8
	c0.1,0,0.2,0.1,0.1,0.2s0,0.1,0.2,0.1c0-0.1,0-0.2-0.1-0.4C96.2,365.5,96.2,365.5,96.2,365.8z M96.2,366.9c0.1,0,0.2,0,0.1-0.1
	S96.2,366.8,96.2,366.9z M96.4,361.6c0.1,0,0.2,0,0.1-0.1S96.4,361.4,96.4,361.6z M96.7,362.9L96.7,362.9c-0.1-0.1-0.1-0.1-0.1-0.1
	v0.2C96.7,363,96.7,363,96.7,362.9z M96.7,365.6c-0.1,0.1,0,0.2,0.1,0.3c0.1,0,0.3,0,0.4,0c0-0.3,0-0.4,0-0.4
	C97,365.5,96.8,365.6,96.7,365.6z M96.9,360.9c-0.2,0-0.4,0-0.4,0.1c0.1,0,0.2,0,0.3,0C97,360.9,97,360.9,96.9,360.9z M97.2,368.9
	c0-0.1,0-0.2-0.1-0.2c-0.1,0.1-0.1,0.1-0.1,0.2H97.2z M97.3,361.6c0-0.1,0-0.1,0-0.1C97.2,361.5,97.2,361.5,97.3,361.6L97.3,361.6z
	 M97.2,365c0.1,0.1,0.2,0.2,0.2,0.3c0,0.1,0.1,0.2,0.3,0.3c0.1-0.2,0.1-0.4,0-0.5s-0.2-0.3-0.3-0.4C97.3,364.9,97.3,364.9,97.2,365z
	 M97.3,351.8c0.1,0,0.1,0,0.1,0.1s0,0.1,0.1,0c0-0.1,0-0.2-0.1-0.2C97.4,351.6,97.4,351.6,97.3,351.8z M98,366.1
	c-0.1-0.2-0.1-0.3,0.1-0.3c0.2,0.1,0.2,0,0.2-0.2c-0.1-0.2-0.2-0.1-0.4,0.2c-0.2,0.3-0.3,0.5-0.3,0.6c0.1,0.1,0.3,0.1,0.4,0
	C98,366.4,98,366.2,98,366.1z M98.2,365.1c0-0.1,0-0.2-0.1-0.2s-0.2,0-0.3,0c0,0.1,0,0.2,0.1,0.2C98.2,365.2,98.2,365.2,98.2,365.1z
	 M98,362.5c0,0.1,0,0.1,0,0.1c-0.1,0-0.1,0-0.1,0.1c0.2,0.1,0.3,0.1,0.3-0.1C98.3,362.5,98.2,362.5,98,362.5z M99,362.8
	c0.1-0.1,0.1-0.2,0.1-0.3c-0.1-0.1-0.2-0.1-0.4,0C98.8,362.6,98.8,362.8,99,362.8z M99.2,349.9c0.2,0,0.3-0.1,0.2-0.2
	C99.2,349.6,99.2,349.6,99.2,349.9z M99.2,363.8l0.1,0.1C99.5,363.8,99.4,363.6,99.2,363.8L99.2,363.8z M99.5,367
	c0-0.1,0.2-0.1,0.3-0.1c0.2,0,0.2,0,0.1-0.2c0-0.1-0.1-0.2-0.2-0.2s-0.1-0.1,0-0.2c-0.2,0-0.4,0.1-0.4,0.2c0.2,0,0.3,0.1,0.2,0.2
	C99.4,366.9,99.4,366.9,99.5,367z M99.5,362.5c0,0.1,0,0.2,0.1,0.2s0.2,0,0.3-0.1C99.8,362.5,99.8,362.5,99.5,362.5z M99.7,361.4
	c0,0.3,0,0.4,0.1,0.4s0.1-0.1,0.1-0.2s0-0.2,0-0.3C99.8,361.1,99.8,361.2,99.7,361.4z M100.5,368.2c0,0.1,0.1,0.1,0.2,0.1
	s0.2-0.1,0.2-0.2c0,0-0.1,0-0.3-0.1C100.5,367.9,100.4,368,100.5,368.2z M101.2,364.6c0-0.2,0-0.3-0.1-0.4s-0.2-0.1-0.3,0
	c0,0.1,0,0.3,0.1,0.3C101,364.6,101.2,364.6,101.2,364.6z M101.8,363.4c0.1,0,0.2-0.1,0.2-0.4c-0.1,0-0.2,0-0.3,0.1
	C101.8,363.1,101.8,363.2,101.8,363.4z M102.2,362.4c0-0.1,0-0.2,0-0.3c0-0.1,0-0.1-0.1-0.1c0,0.1-0.1,0.2,0,0.3
	C102,362.4,102.2,362.4,102.2,362.4z M102.3,366.1c0.1,0,0.2,0,0.1-0.1C102.4,365.9,102.3,365.9,102.3,366.1z M102.5,362.9
	c0.1,0,0.2,0.1,0.3,0.1c0-0.1,0-0.2-0.1-0.2C102.7,362.8,102.5,362.9,102.5,362.9z M103,361.4c0-0.1,0-0.2-0.1-0.3
	c0,0-0.1,0.1-0.1,0.2C102.9,361.4,102.9,361.4,103,361.4z M103.2,364.4c-0.1,0.1-0.1,0.1,0,0.1S103.4,364.5,103.2,364.4
	C103.3,364.5,103.2,364.5,103.2,364.4L103.2,364.4z M103.5,366.8c0.2,0.1,0.3,0,0.3-0.2c-0.1,0-0.2,0-0.3,0.1V366.8z"/>
<path class="st8" d="M120.5,396l-1.2-0.2l-1-0.2l-0.7-0.2l-0.8-0.4l-0.8-0.5l-0.6-0.5l-0.6-0.7l-0.6-0.8l-0.6-1.2l-0.2-0.7l-0.3-1.8
	V388l0.1-1l0.2-1.2l0.2-1l0.2-0.7l0.2-0.6l0.4-0.5l0.3-0.6l0.3-0.7l0.5-0.8l0.5-0.8l0.5-0.6l0.5-0.5l0.5-0.5l0.8-0.7l0.7-0.6
	l0.5-0.5l0.6-0.4l0.5-0.4l1.2-0.6l0.5-0.4l1.2-0.6l0.7-0.3l0.8-0.3l0.9-0.3l1.4-0.3l0.7-0.2l1-0.2l1-0.1l0.5-0.1l0.8-0.2l0.7-0.1
	h1.4l0.9-0.2l0.8-0.5l0.5-0.8l0.5-1.6l0.2-0.9l0.2-0.8l0.2-0.6l0.3-0.6l0.2-0.6l0.2-0.7l0.2-0.6l0.2-0.7l0.2-0.6l0.4-0.7l0.4-0.9
	l0.5-1.1l0.4-1l0.2-0.7l0.6-1.2l0.4-0.7l0.2-0.5l0.4-0.7l0.4-0.5l0.6-1.2l0.4-0.7l0.3-0.4l0.5-0.8l0.2-0.5l0.5-0.7l0.3-0.6l0.4-0.5
	l0.9-1.1l0.5-0.6l1.2-1.4l0.6-0.5l0.5-0.4l1.3-1.2l0.8-0.5l0.7-0.4l0.8-0.3l0.4-0.2l0.8-0.2l0.6-0.2l0.7-0.2l1.4-0.2h0.7l1.4,0.2
	l0.6,0.2l0.7,0.3l0.6,0.5l0.5,0.5l0.4,0.5l0.4,0.6l0.3,0.7l0.2,0.6l0.5,2.1l0.1,0.8v0.7l-0.1,0.7v1.5l-0.2,1.4l-0.2,0.7v0.7l-0.2,1
	l-0.2,0.9l-0.2,0.8l-0.2,0.9l-0.2,0.8l-0.2,0.8l-0.2,0.8l-0.1,0.7l-0.2,1l-0.3,1.2l-0.3,1l-0.2,0.7l-0.2,1l-0.2,0.9l-0.2,0.8
	l-0.3,0.9l-0.3,1.2l-0.2,1l-0.2,0.8l-0.5,1.8v0.5l0.5,0.3l1.2-0.1l1.3-0.2l1.2-0.3l1.3-0.5l1.2-0.5l1.2-0.5l1.2-0.6l1.1-0.7l1-0.8
	l1.3-1.2l0.5-0.4l0.5-0.2l0.6,0.2l0.4,0.5v0.6l-0.2,0.7l-0.4,0.5l-0.5,0.5l-0.5,0.6l-0.4,0.4l-0.7,0.8l-0.8,0.6l-1.2,0.8l-0.8,0.5
	l-1.8,1.1l-0.9,0.4l-0.7,0.2l-0.6,0.3l-0.7,0.2l-0.8,0.2l-0.9,0.2l-0.8,0.2l-0.7,0.1l-0.6,0.1l-0.8,0.1l-0.5,0.2l-0.5,0.4l-0.3,0.5
	l-0.2,0.8l-0.2,0.8l-0.2,0.8l-0.3,1.2l-0.8,3.4l-0.2,0.8l-0.2,1l-0.3,1.2l-0.2,1.3l-0.2,1l-0.2,0.7l-0.2,1l-0.2,0.9l-0.5,0.5
	l-0.7,0.3l-0.7,0.2l-0.8,0.1l-0.8-0.1l-0.7-0.1l-0.8-0.2l-0.6-0.3l-0.4-0.5v-0.9l0.1-1.2l0.2-1.1l0.1-0.5l0.3-1l0.2-0.9l0.2-0.8
	l0.5-1.8l0.2-0.8l0.2-0.9l0.2-1.2l0.4-1.3l0.4-1.2l0.2-1v-0.5l-0.2-0.4l-0.6-0.1l-1.8-0.2l-0.8-0.1l-1.5-0.1l-1-0.2l-1.1-0.2
	l-1.6-0.4l-0.9-0.2l-0.6,0.1l-0.5,0.5l-0.3,0.8l-0.3,0.7l-0.2,0.6l-0.2,0.7l-0.2,0.6l-0.2,0.7l-0.2,0.6l-0.3,0.7l-0.4,0.8l-0.4,0.9
	l-0.3,0.6l-0.7,1.3l-0.5,0.8l-0.5,0.8l-0.4,0.7l-0.4,0.5l-0.5,0.5l-0.8,1.2l-0.6,0.7l-0.7,0.6l-0.6,0.5l-0.5,0.4l-1.2,0.6l-0.6,0.4
	l-0.9,0.3l-0.8,0.3l-0.7,0.2l-1,0.6l-0.7,0.1h-1.9l-0.8-0.1L120.5,396z M119,387.9v0.7l0.2,0.7l0.2,0.7l0.4,0.5l0.5,0.5l0.7,0.4
	l0.7,0.2l0.8,0.1l0.9-0.1l1-0.2l0.7-0.2l0.6-0.3l0.7-0.5l0.3-0.3l0.7-0.5l0.5-0.5l0.5-0.5l0.5-0.5l0.4-0.6l0.4-0.5l0.3-0.7l0.4-0.8
	l0.5-0.9l0.3-0.8l0.6-1.2l0.2-0.6l0.2-0.7l0.2-0.6l0.5-1.4l0.2-0.6l0.2-0.7v-0.6l-0.5-0.3l-0.8-0.2l-0.8,0.1l-0.7,0.1l-0.7,0.2
	l-0.9,0.2l-0.9,0.3l-1.9,0.8l-1.2,0.6l-0.6,0.4l-0.5,0.4l-0.6,0.4l-0.5,0.4l-0.5,0.5l-0.4,0.5l-0.5,0.6l-0.3,0.5l-0.4,0.6l-0.4,0.7
	l-0.4,0.8l-0.3,0.9l-0.2,0.8L119,387.9z M154,347.4l-0.6,0.4l-0.5,0.4l-0.5,0.5l-0.5,0.5l-0.5,0.5l-0.4,0.5l-0.5,0.5l-0.4,0.5
	l-0.4,0.6l-0.4,0.5l-0.5,0.6l-0.4,0.8l-0.5,0.8l-1.4,2.3l-1.3,2.6l-0.3,1.8l-0.4,0.9l-0.4,0.7l-0.7,1.8l-0.3,0.7l-0.2,0.6l-0.3,0.7
	l-0.3,0.9l-0.2,0.9l-0.2,0.8l-0.2,0.7l-0.2,0.7l-0.2,0.6l-0.2,0.7l-0.1,0.9l0.4,0.7l0.9,0.3l2.8,0.5l1.2,0.2h0.5l1.1,0.2l1.4,0.2
	l0.9,0.1l0.6-0.1l0.5-0.3l0.2-0.6l0.5-2.1l0.2-0.6l0.7-2.1l0.2-0.6l0.2-0.7l0.5-1.4l0.2-0.6l0.2-0.7l0.5-1.3l0.2-0.7l0.2-0.7
	l0.2-0.6l0.5-2.1l0.2-0.7l0.2-0.7l0.2-0.6l0.1-0.8l0.2-0.7l0.2-0.5l0.3-1.4l0.2-0.7l0.2-0.7l0.1-0.6l0.1-0.7l0.1-0.8v-0.7l-0.2-1.4
	l-0.2-0.6l-0.3-0.6l-1.3-0.4l-0.6-0.2l-0.7,0.2L154,347.4z"/>
<path class="st8" d="M174,396l-0.6-0.1l-0.7-0.2l-0.7-0.2l-0.9-0.4l-0.8-0.5l-0.7-0.4l-0.8-0.6l-0.7-0.7l-0.5-0.5l-0.5-0.5l-0.5-0.5
	l-0.3-0.6l-0.4-0.7l-0.4-0.9l-0.4-0.8l-0.2-0.7l-0.2-1l-0.2-0.9l-0.1-0.8l-0.1-0.7v-1.4l0.1-0.6l0.1-0.7l0.1-0.8l0.2-0.9l0.2-1
	l0.2-0.7l0.2-0.7l0.5-1.6l0.4-0.8l0.4-0.7l1.2-2.5l0.4-0.6l0.8-1.1l1.1-1.2l0.2-0.3l0.5-0.6l0.5-0.5l0.5-0.5l0.5-0.5l0.5-0.4
	l0.6-0.5l0.5-0.4l0.6-0.3l0.6-0.4l0.5-0.3l0.6-0.3l0.8-0.4l1.6-0.5l0.8-0.2l0.7-0.2l0.7-0.1l0.8-0.1h1.3l0.7,0.1l1,0.2l1.2,0.3
	l1,0.3l0.7,0.2l0.5,0.3l0.5,0.4l0.5,0.5l0.5,0.5l0.5,0.5l0.3,0.7l0.3,0.8l0.2,0.9l0.1,0.8l-0.1,0.9l-0.2,1l-0.2,0.7l-0.3,0.6
	l-0.4,0.6l-0.5,0.8l-0.5,0.7l-0.5,0.5l-0.5,0.5l-0.6,0.3l-1,0.2H185l-1.2-0.3L183,375v-0.8l0.4-0.7l0.5-0.8l0.5-0.7l0.3-0.7l0.2-0.6
	l0.2-0.7v-0.6l-0.2-0.3l-0.5-0.8l-0.8-0.5l-0.7-0.2l-0.7-0.1l-0.7,0.1l-0.9,0.2l-0.9,0.3l-0.7,0.3l-0.5,0.4l-0.6,0.5l-0.5,0.4
	l-0.6,0.5l-0.6,0.7l-0.5,0.5l-0.5,0.7l-0.7,0.8l-0.5,0.8l-0.3,0.7l-0.4,0.6l-0.3,0.5l-0.3,0.6l-0.2,0.7l-0.2,0.6l-0.4,0.7l-0.2,1
	l-0.2,0.9l-0.2,0.8l-0.2,0.9l-0.1,1l-0.1,0.8v1l0.1,1.2l0.2,1.1l0.2,0.8l0.8,1.5l0.5,0.6l0.5,0.5l0.5,0.5l0.8,0.4l0.9,0.4l0.7,0.2
	l1,0.2h1.7l1.8-0.2l0.7-0.2l0.8-0.2l0.7-0.3l0.8-0.5l0.8-0.4l1.8-1.2l0.8-0.6l0.7-0.6l1.1-0.9l0.9-1.1l0.5-0.5l0.9-1.1l0.8-1.1
	l0.5-0.7l0.2-0.5l0.5-0.8l0.5-0.8l0.3-0.7l0.5-1l0.8-0.5l1,0.2l0.6,0.7v0.8l-0.2,0.6l-0.3,0.6l-0.3,0.7l-0.4,0.8l-0.5,0.8l-0.6,0.8
	l-0.6,0.9l-1.2,1.7l-0.5,0.6l-0.4,0.5l-0.5,0.5l-1.4,1.6l-0.4,0.5l-0.5,0.5l-0.5,0.5l-1.1,0.8l-0.5,0.4l-0.5,0.4l-0.7,0.5l-0.6,0.4
	l-0.6,0.3l-0.6,0.4l-0.9,0.4l-0.9,0.3l-0.8,0.2l-0.9,0.2l-0.9,0.2l-1.4,0.2l-2.1,0.2l-1.4-0.2L174,396z"/>
<path class="st8" d="M203.4,396l-0.6-0.1l-0.7-0.2l-0.7-0.2l-0.9-0.4l-0.8-0.5l-0.7-0.4l-0.8-0.6l-0.7-0.7l-0.5-0.5l-0.5-0.5
	l-0.5-0.5l-0.3-0.6l-0.4-0.7l-0.4-0.9l-0.4-0.8l-0.2-0.7l-0.2-1l-0.2-0.9l0-0.7l-0.1-0.7V383l0.1-0.6l0.1-0.7l0.1-0.8l0.2-0.9l0.2-1
	l0.2-0.7l0.2-0.7l0.5-1.6l0.4-0.8l0.4-0.7l1.2-2.5l0.4-0.6l0.8-1.1l1.1-1.2l0.2-0.3l0.5-0.6l0.5-0.5l0.5-0.5l0.5-0.5l0.5-0.4
	l0.6-0.5l0.5-0.4l0.6-0.3l0.6-0.4l0.5-0.3l0.6-0.3l0.8-0.4l1.6-0.5l0.8-0.2l0.7-0.2l0.7-0.1l0.8-0.1h1.3l0.7,0.1l1,0.2l1.2,0.3
	l1,0.3l0.7,0.2l0.5,0.3l0.5,0.4l0.5,0.5l0.5,0.5l0.5,0.5l0.3,0.7l0.3,0.8l0.2,0.9l0.1,0.8l-0.1,0.9l-0.2,1l-0.2,0.7l-0.3,0.6
	l-0.4,0.6l-0.4,1.2l-0.5,0.7l-0.5,0.5l-0.5,0.5l-0.6,0.3l-1,0.2h-1.2l-1.2-0.3l-0.8-0.5v-0.8l0.4-0.7l0.5-0.8l0.5-0.7l0.3-0.7
	l0.2-0.6l0.2-0.7v-0.6l-0.2-0.7l-0.5-0.8l-0.8-0.5l-0.7-0.2l-0.7-0.1l-0.7,0.1l-0.9,0.2l-0.9,0.3l-0.7,0.3l-0.5,0.4l-0.6,0.5
	l-0.5,0.4l-0.6,0.5l-0.6,0.7l-0.5,0.5l-0.5,0.7L204,373l-0.5,0.8l-0.3,0.7l-0.4,0.6l-0.3,0.5l-0.3,0.6l-0.2,0.7l-0.2,0.6l-0.2,0.7
	l-0.2,1l-0.2,0.9l-0.2,0.8l-0.2,0.9l-0.1,1l-0.1,0.8v1l0.1,1.2l0.2,1.1l0.2,0.8l0.8,1.5l0.5,0.6l0.5,0.5l0.5,0.5l0.8,0.4l0.9,0.4
	l0.7,0.2l1,0.2h1.7l1.8-0.2l0.7-0.2l0.8-0.2l0.7-0.3l0.8-0.5l0.8-0.4l1.8-1.2l0.8-0.6l0.7-0.6l1.1-0.9l0.9-1.1l0.5-0.5l0.9-1.1
	l0.8-1.1l0.5-0.7l0.2-0.5l0.5-0.8l0.5-0.8l0.3-0.7l0.5-1l0.8-0.5l1,0.2l0.6,0.7v0.8l-0.2,0.6l-0.3,0.6l-0.3,0.7l-0.4,0.8l-0.5,0.8
	l-0.6,0.8l-0.6,0.9l-1.2,1.7l-0.5,0.6l-0.4,0.5l-0.5,0.5l-1.4,1.6l-0.4,0.5l-0.5,0.5l-0.5,0.5l-1.1,0.8l-0.5,0.4l-0.5,0.4l-0.7,0.5
	l-0.6,0.4l-0.6,0.3l-0.6,0.4l-0.9,0.4l-0.9,0.3l-0.8,0.2l-0.9,0.2l-0.9,0.2l-1.4,0.2l-2.1,0.2l-1.4-0.2L203.4,396z"/>
<path class="st8" d="M244.6,391.9l-1.1,0.9l-1.2,0.8l-0.6,0.3l-1.2,0.8l-0.6,0.3l-1.4,0.5l-0.8,0.2l-1.4,0.2l-0.5,0.2l-0.8,0.2
	l-0.6,0.1h-0.6l-0.8,0.1h-0.7l-1.4-0.2l-0.8-0.2l-0.7-0.2l-0.5-0.2l-0.7-0.2l-0.6-0.3l-1.2-0.8l-0.5-0.5l-0.9-1.1l-0.4-0.6l-0.3-0.6
	L224,391l-0.5-1.4l-0.3-1.4l-0.2-1.4l-0.1-0.8l0.1-0.7v-2.1l0.2-0.7l0.2-0.6l0.2-0.7l0.2-1.4l0.2-0.8l0.2-0.7l0.2-0.6l0.2-0.7
	l0.3-0.7l0.3-0.6l0.2-0.7l0.4-0.9l0.5-0.9l0.4-0.6l0.5-0.6l0.4-0.5l0.5-0.5l0.8-1.2l0.5-0.5l1-1l1.1-0.9l0.5-0.4l0.6-0.5l0.7-0.5
	l0.8-0.5l0.8-0.5l0.6-0.3l0.8-0.3l0.5-0.2l0.8-0.3l0.5-0.2l0.8-0.2l0.7-0.2l0.8-0.1l0.7-0.1h1.8l1.2,0.2l1,0.2l0.7,0.2l0.7,0.2
	l0.6,0.3l1.4,0.8l0.8,0.5l0.5,0.5l0.4,0.5l0.5,0.5l0.5,0.6l0.9,1.7l0.2,0.7l0.1,0.7l0.1,0.6l0.3,1.4v2.7l-0.2,0.9l-0.1,0.8l-0.1,0.8
	l-0.5,2.3l-0.3,1.1l-0.2,0.8l-0.3,0.8l-0.3,0.8l-0.2,0.7l-0.5,0.8l-0.7,1.4l-0.4,0.8l0.1,0.5l0.6,0.1h0.5l0.8-0.1l0.5-0.1l0.7-0.2
	l0.8-0.3l0.5-0.3l1.2-0.8l0.5-0.5l1-1l0.9-1.1l0.4-0.5l0.4-0.6l0.4-0.5l0.6-1.2l0.7-1.3l0.2-0.5l0.5-0.7l0.7-0.4l0.9,0.2l0.6,0.7
	l0.1,0.8l-0.2,0.7l-0.9,1.8l-0.4,0.5l-0.8,1.2l-0.3,0.6l-0.4,0.5l-0.5,0.6l-0.4,0.5l-0.5,0.5l-1,1.1l-0.5,0.5l-0.5,0.5l-0.5,0.4
	l-0.6,0.5l-0.5,0.3l-1.2,0.6l-0.7,0.3l-0.6,0.2l-2.8,0.3l-0.8-0.1l-0.7-0.1l-0.6-0.2l-0.6-0.1l-0.5,0.2l-0.5,0.4L244.6,391.9z
	 M229.5,383.5l-0.1,0.9l0.1,0.8l0.1,1l0.2,1.2l0.3,1.2l0.5,1.2l0.5,0.8l0.6,0.5l0.8,0.4l1.2,0.3h1l0.8-0.1l0.8-0.2l0.7-0.3l0.6-0.3
	l0.7-0.4l0.6-0.4l0.5-0.5l0.6-0.5l0.3-0.5v-0.5l-0.3-0.5l-0.4-0.6l-0.2-0.7l0.2-0.9l0.3-0.9l0.5-0.5l0.6-0.4l0.7-0.1l0.7,0.2
	l0.5,0.2l0.5-0.1l0.3-0.5l0.2-0.6l0.9-2.8l0.5-2.1l0.2-1l0.2-1.3l0.2-2.6l-0.1-1.2l-0.3-1.3l-0.5-1.2l-0.5-0.8l-0.6-0.5l-0.9-0.4
	l-1.2-0.2l-1-0.1H240l-0.6,0.2l-0.7,0.2l-0.8,0.5l-0.6,0.4l-0.7,0.5l-0.8,0.6l-0.5,0.5l-0.5,0.5l-0.4,0.5l-0.5,0.5l-0.4,0.6
	l-0.8,1.1l-0.4,0.6l-1.5,3.1l-0.2,0.7l-0.2,0.6l-0.5,1.4l-0.2,0.6l-0.2,0.7l-0.1,0.7v0.7L229.5,383.5z"/>
<path class="st8" d="M284,363.6l0.8-0.1l0.8,0.1l0.7,0.1l0.8,0.2l0.6,0.2l0.6,0.4l0.3,0.6l-0.2,0.9l-0.5,1.6l-0.6,1.2l-0.2,0.7
	l-0.2,0.6l-0.2,0.7l-0.3,0.6l-0.3,1.4l-0.2,0.7l-0.2,0.6l-0.2,0.8l-0.2,0.7l-0.4,0.5l-0.2,0.7l-0.2,0.6l-0.2,0.7l-0.2,0.7l-0.5,2.1
	l-0.2,0.9l-0.2,1l-0.2,0.8l-0.2,0.9l-0.2,1l-0.1,0.8v0.7l-0.1,0.7v0.7l0.2,1.4l0.2,0.7l0.4,0.5l0.5,0.3l0.7,0.1l0.6-0.1l0.7-0.3
	l1.1-0.8l0.5-0.5l0.5-0.5l0.5-0.4l0.9-1.1l0.8-1.1l0.5-0.6l0.5-0.5l0.3-0.5l0.3-0.7l0.4-0.6l0.4-0.7l0.3-0.4l0.5-0.8l0.4-0.8
	l0.4-0.8l0.7-1.4l0.5-0.6l0.6-0.4l0.9,0.2l0.6,0.8l0.1,0.8l-0.2,0.7l-0.3,0.6l-0.4,0.5l-0.4,0.6l-0.6,1.2l-0.2,0.7l-0.3,0.6
	l-0.8,1.2l-0.4,0.5l-0.8,1.2l-0.4,0.5l-0.9,1.1l-0.4,0.5l-0.5,0.6l-0.9,1.1l-1,0.9l-0.5,0.5l-1.1,0.9l-1.2,0.8l-1.8,0.9l-1.4,0.3
	l-0.7,0.1l-0.9-0.1l-0.9-0.2l-0.8-0.3l-0.7-0.6l-0.6-0.7l-0.5-0.7l-0.4-0.9L277,391l-0.2-1.2l-0.1-1l0.1-0.8l0.2-0.8l-0.1-0.3
	l-0.2,0.4l-0.4,0.6l-0.8,1.1l-0.5,0.6l-1.4,1.6l-1.5,1.5l-0.5,0.5l-0.5,0.4l-0.6,0.4l-1.2,0.7l-1.2,0.6l-0.7,0.2l-2.8,0.6l-0.7,0.1
	l-0.7-0.1l-0.8-0.1l-0.7-0.1l-0.5-0.2l-0.7-0.2l-0.6-0.3l-1.1-0.8l-0.5-0.5l-0.8-1.1l-0.3-0.7l-0.2-0.6l-0.1-0.7l-0.1-0.8v-1.8
	l0.1-0.7l0.2-0.7l0.1-0.7l0.2-0.7l0.1-0.7l0.2-0.9l0.2-1l0.3-1.4l0.2-0.7l0.2-0.9l0.5-1.6l0.2-0.6l0.2-0.7l0.2-0.7l0.1-0.6l1.1-3.2
	l0.2-0.8l0.8-2.5l0.2-0.6l0.2-0.7l0.4-0.9l0.2-0.9l0.2-0.7l0.3-0.6l0.5-0.4l0.7-0.3l0.7-0.2l0.8-0.2l0.7,0.1l0.7,0.2l0.7,0.2
	l0.6,0.3l0.3,0.5v0.6l-0.2,0.7l-0.2,0.7l-0.2,0.6l-0.5,1.4l-0.3,0.8l-0.1,0.5l-0.3,0.9l-0.2,0.4l-0.2,0.8l-0.2,0.7l-0.2,1l-0.3,1
	l-0.2,0.5l-0.3,0.8l-0.2,0.7l-0.2,0.7l-0.2,0.6l-0.3,1.4l-0.1,0.7l-0.2,0.7l-0.2,0.7l-0.3,1.4l-0.2,0.6l-0.2,0.7l-0.2,0.7l-0.2,1
	l-0.2,1.2v1.4l0.2,1.2l0.6,1.1l1,0.6l0.9,0.2l1.4-0.3l0.6-0.3l0.5-0.2l0.6-0.3l0.7-0.4l0.6-0.4l1.1-0.9l0.5-0.5l1.4-1.6l0.4-0.5
	l0.5-0.7l0.5-0.8l0.5-0.8l0.6-1.2l0.4-0.7l0.3-0.6l0.3-0.7l0.2-0.6l0.2-0.7l0.2-0.6l0.2-0.7l0.2-0.6l0.3-0.7l0.2-0.6l0.3-1.4
	l0.2-0.7l0.2-0.6l0.2-0.7l0.2-0.6l0.3-0.7l0.2-0.7l0.2-0.6l0.5-1.4l0.2-0.6l0.5-1.4l0.2-0.6l0.2-0.7l0.3-0.6l0.4-0.6l0.5-0.4
	L284,363.6z"/>
<path class="st8" d="M312,368.4l-0.6,0.3l-0.5,0.3l-0.5,0.4l-0.6,0.5l-0.5,0.5l-1.4,0.8l-0.5,0.4l-0.5,0.5l-0.5,0.5l-0.9,1.1
	l-0.5,0.5l-1.1,1l-0.8,1.2l-0.5,0.6l-0.9,1.8l-0.8,2.5l-0.2,1l-0.3,1.2l-0.3,1l-0.5,2.1l-0.3,1l-0.3,1.2l-0.2,1l-0.2,0.7l-0.2,1
	l-0.2,0.8l-0.2,0.8l-0.1,0.7l-0.2,0.6l-0.2,0.6l-0.5,0.4l-0.7,0.2l-0.7,0.1l-1,0.1l-1.2-0.1l-1-0.2l-0.6-0.3l-0.5-0.7l-0.1-0.8
	l0.2-0.8l0.2-1l0.2-0.9l0.2-0.7l0.2-0.7l0.2-0.7l0.2-0.6l0.2-0.7l0.2-0.7l0.2-0.6l0.2-0.7l0.2-0.7l0.2-0.6l0.3-1.4l0.2-0.6l0.1-0.7
	l0.2-0.7l0.2-0.7l0.2-0.7l0.2-0.9l0.3-1l0.4-1.4l0.2-0.6l0.2-0.7l0.2-0.7l0.2-0.7l0.2-0.6l0.2-0.7l0.2-0.7l0.2-1l0.2-0.9l0.2-0.7
	l0.5-1.4l0.2-0.6l0.2-0.7l0.3-1.4l0.5-0.8l1-0.5l1.2-0.2l1.2,0.2l1.2,0.4l0.8,0.8l0.2,0.9l-0.2,0.8l-0.2,0.5l-0.2,0.7l-0.2,0.7
	l-0.2,0.6l-0.2,0.7l-0.2,0.7l-0.2,0.7l-0.1,0.5l0.1,0.1l0.3-0.4l0.5-0.5l0.4-0.5l0.9-1.1l0.5-0.5l1-0.8l0.5-0.5l1-1l1.5-1.2l0.6-0.4
	l0.6-0.3l0.6-0.4l0.6-0.2l0.7-0.2l1-0.2l0.9-0.2h1.8l1.2,0.2l0.8,0.2l0.7,0.3l0.7,0.4l0.5,0.5l0.4,0.5l0.4,0.6l0.3,0.6l0.2,0.7
	l0.2,0.9l0.2,0.9v1.5l-0.1,0.7v0.7l-0.1,0.6l-0.2,0.7l-0.2,0.8l-0.2,0.5l0.1,0.7l-0.2,1l-0.3,1.2l-0.3,1l-0.2,0.7l-0.2,1l-0.3,1.3
	l-0.3,1.2l-0.3,1.1l-0.2,0.7l-0.2,0.5l-0.2,0.7l-0.2,0.7l-0.2,0.6l-0.5,2.1l-0.1,0.7v1.4l0.3,0.6l0.5,0.4l0.7,0.1l0.7-0.2l0.7-0.3
	l0.6-0.4l0.5-0.4l0.6-0.5l1-1l0.4-0.5l0.5-0.6l0.4-0.5l0.5-0.6l0.4-0.5l0.5-0.7l0.7-1.2l0.5-0.7l0.2-0.4l0.5-0.7l0.4-0.7l0.6-1.2
	l0.3-0.7l0.2-0.6l0.2-0.7l0.4-0.6l0.7-0.5l1,0.2l0.6,0.8v0.8l-0.2,0.7l-0.3,0.6l-0.3,0.7l-0.3,0.6l-0.4,0.6l-0.3,0.6l-0.5,0.7
	l-0.2,0.5l-0.8,1.4l-0.2,0.5l-0.4,0.7l-0.8,1.2l-0.5,0.7l-0.3,0.4l-0.5,0.6l-0.5,0.7l-0.5,0.5l-0.8,0.9l-0.5,0.5l-1.1,0.9l-0.5,0.5
	l-0.6,0.5l-0.6,0.4l-1.2,0.6l-0.6,0.2l-0.7,0.2l-0.7,0.2l-0.6,0.1l-0.8,0.1h-0.7l-0.7-0.1l-0.6-0.2l-0.7-0.2l-0.6-0.2l-0.6-0.4
	l-0.5-0.4l-0.5-0.5l-0.3-0.7l-0.2-0.6l-0.2-0.7l-0.2-0.6v-1.7l0.2-1l0.1-0.8l0.2-1l0.7-2.5l0.2-1.3l0.3-1.3l0.3-1.2l0.3-1l0.2-0.7
	l0.3-1l0.3-1.2l0.2-1.2l0.3-1l0.3-1.4l0.1-0.7l0.3-1.5l0.1-0.7l-0.2-0.8l-0.5-0.8l-0.7-0.7l-0.7-0.2l-0.7-0.1l-0.7,0.1L312,368.4z"
	/>
<path class="st8" d="M354.8,378.8v0.8l-0.3,0.8l-0.9,1.7l-0.3,0.7l-0.3,0.6l-0.8,1.2l-0.3,0.5l-0.4,0.6l-0.6,1.2l-0.3,0.5l-0.5,0.7
	l-0.9,1.1l-0.4,0.6l-0.4,0.5l-0.5,0.5l-1.5,1.5l-1.1,0.8l-1.1,0.9l-0.6,0.5l-0.8,0.5l-0.9,0.4l-0.7,0.3l-0.7,0.2l-0.6,0.2l-0.7,0.1
	h-2.1l-0.7-0.1l-0.7-0.2l-0.9-0.3l-0.8-0.4l-0.6-0.4l-1.1-0.9l-0.4-0.5l-0.4-0.6l-0.6-1.2l-0.2-0.6l-0.2-0.7l-0.2-0.7L330,389v-0.7
	l-0.1-0.7v-0.7l-0.1-0.8v-0.7l0.2-2.1v-0.7l0.4-3.5l0.2-0.7l0.1-0.7l0.3-1.4l0.2-1l0.2-0.9l0.2-0.7l0.2-0.7l0.2-0.7l0.2-0.7l0.2-0.7
	l0.2-0.9l0.3-1l0.5-1.4v-0.6l-0.2-0.4l-0.5-0.2l-0.6-0.1l-0.8-0.2l-0.8-0.3l-0.5-0.7l-0.2-0.7l-0.1-0.8l0.2-0.6l0.3-0.5l0.5-0.4
	l1-0.1l1.2,0.1h1.2l0.8-0.2l0.3-0.5l0.2-0.8l0.2-0.6l0.2-0.7l0.3-0.6l0.3-0.7l0.2-0.6l0.5-1.4l0.3-1.4l0.2-0.7l0.3-0.6l0.5-1.4
	l0.2-0.6l0.3-0.7l0.2-0.7l0.2-0.6l0.2-0.7l0.3-0.6l0.3-0.7l0.2-0.6l0.2-0.7l0.3-0.7l0.4-0.5l0.6-0.4l0.7-0.2l0.8,0.1l0.9,0.2l1,0.2
	l0.7,0.4l0.6,0.5l0.2,0.8l-0.2,0.7l-0.4,1l-0.5,1.1l-0.4,1l-0.2,0.8l-0.2,0.5l-0.2,0.8l-0.8,2.5l-0.2,0.6l-0.2,0.7l-0.3,1l-0.5,1.2
	l-0.5,1.6l-0.2,0.7l-0.3,0.6l-0.2,0.6v0.5l0.5,0.4l0.8,0.2h0.8l1.3-0.1l1.1-0.1h2.4l1,0.1l0.5,0.5l0.2,0.8v1l-0.2,0.7l-0.4,0.5
	l-0.5,0.4l-0.7,0.2l-0.7,0.2l-0.8,0.1l-2.1,0.1h-0.8l-0.7-0.1h-2.8l-0.5,0.3l-0.2,0.6l-0.3,0.9l-0.3,1.2l-0.3,1.3l-0.4,1.2l-0.3,1.3
	l-0.3,1.2l-0.2,1.1l-0.1,0.5l-0.2,1.1l-0.2,0.8l-0.2,0.8l-0.3,1.4l-0.1,0.9l-0.2,1l-0.2,1.4v2.1l0.2,1l0.2,0.9l0.2,0.7l0.3,0.7
	l0.4,0.5l0.8,0.5l1.1,0.5l0.8,0.2h0.8l0.8-0.2l1.8-0.9l2.1-1.8l0.5-0.5l0.4-0.5l0.8-1l1-1.2l0.4-0.5l0.3-0.6l0.4-0.6l0.5-0.6
	l0.4-0.5l0.4-0.6l0.3-0.6l0.2-0.7l0.4-0.8l0.4-0.6l0.5-0.8l0.9-0.6l1,0.2L354.8,378.8z"/>
<path class="st8" d="M389.8,381l-0.2,0.4l-0.4,0.8l-0.4,0.5l-0.3,0.6l-0.3,0.7l-0.3,0.6l-0.8,1.2l-0.4,0.5l-0.4,0.6l-0.3,0.6
	l-0.4,0.6l-0.5,0.5l-0.5,0.6l-0.5,0.5l-0.8,1.1l-0.5,0.5l-0.5,0.5l-2.1,1.8l-0.6,0.4l-0.7,0.4l-0.8,0.4l-0.9,0.4l-0.7,0.2l-0.7,0.2
	H375l-0.9-0.1l-0.9-0.2l-0.7-0.2l-0.5-0.4l-0.5-0.5l-0.5-0.8l-0.5-0.8l-0.2-0.7l-0.2-0.9l-0.1-1v-0.8l0.1-1l0.1-0.9l-0.2-0.2
	l-0.4,0.5l-0.8,1.2L368,390l-0.5,0.5l-0.4,0.5l-0.5,0.5l-0.4,0.5l-0.5,0.5l-0.5,0.5l-0.5,0.5l-0.5,0.4l-0.6,0.4l-0.8,0.5l-1.2,0.5
	l-1.2,0.4l-1,0.2l-1.4,0.2l-0.8-0.1l-0.9-0.2l-0.9-0.2l-0.7-0.2l-0.6-0.2l-0.5-0.4l-1.1-0.9l-0.4-0.5l-0.4-0.6l-0.5-0.8l-0.5-1.2
	l-0.2-1l-0.1-0.8l-0.2-1l-0.1-1.2v-1l0.1-0.8l0.1-1l0.2-0.9l0.2-0.8l0.2-0.9l0.2-1l0.2-0.7l0.3-0.6l0.2-0.7l1.8-3.7l0.4-0.6l0.4-0.5
	l0.4-0.6l0.8-1.1l0.5-0.5l1-1.2l0.3-0.3l0.5-0.6l1.1-0.9l0.7-0.7l0.8-0.6l1.1-0.8l0.6-0.4l0.5-0.4l0.7-0.3l0.9-0.4l0.8-0.5l0.8-0.4
	l0.9-0.3l0.9-0.2l0.8-0.2l1.9-0.2l0.7-0.1h0.9l1.5,0.1l1.8,0.2l1.7,0.3l0.7,0.2l0.8,0.2l3.1,1.4l0.5,0.5l0.5,0.4l0.5,0.5l0.5,0.5
	l0.2,0.8l-0.3,1.1l-0.8,0.9l-0.8,0.5l-0.6,0.1l-0.6-0.2l-0.6-0.5l-0.7-0.4l-0.6-0.4l-0.5-0.2l-0.6-0.3l-0.7-0.3l-0.6-0.2l-1.3-0.3
	l-0.8-0.2l-0.8-0.2H372l-0.5,0.1l-0.8,0.1l-1,0.2l-1.9,0.7l-0.8,0.4l-0.8,0.5l-0.5,0.4l-0.6,0.4l-0.5,0.4l-0.5,0.5l-0.6,0.5
	l-0.3,0.3l-0.5,0.6l-0.5,0.5l-0.4,0.5l-0.9,1.1l-0.4,0.5l-0.4,0.6l-0.9,1.8l-0.4,0.6l-0.5,1.4l-0.3,0.7l-0.3,0.6l-0.5,2.1l-0.2,0.8
	l-0.2,2.1v2.1l0.1,0.8l0.2,0.7l0.3,0.6l0.4,0.6l0.5,0.5l0.7,0.3l0.9,0.2l1-0.1l0.7-0.2l1.2-0.6l1.1-0.9l0.5-0.5l0.5-0.5l0.5-0.5
	l0.4-0.5l0.5-0.5l0.4-0.5l0.8-1.2l0.4-0.5l1.2-1.8l0.5-0.8l0.5-1l0.3-0.5l0.9-2l0.3-0.7l0.2-0.5l0.3-0.7l0.2-0.6l0.2-0.7l0.3-0.8
	l0.5-1.5l0.3-0.8l0.2-0.8l0.5-0.7l0.8-0.4l0.7-0.2l0.7,0.1l0.7,0.2l1.2,0.6l0.6,0.4l0.3,0.5l0.1,0.7l-0.2,0.6l-0.3,0.5l-0.2,0.7
	l-0.3,1.4l-0.2,0.7l-0.2,0.6l-0.5,1.4l-0.2,0.8l-0.1,0.5l-0.2,0.9l-0.2,0.7l-0.3,1.3l-0.2,0.9l-0.2,0.8l-0.2,0.8l-0.2,1.2l-0.2,1.3
	l-0.1,1.2l0.1,1l0.4,0.6l0.8,0.4l1.2,0.1l0.9-0.3l0.7-0.4l1.1-0.8l0.5-0.5l0.9-1l0.9-1.1l0.8-1.1l0.4-0.6l0.5-0.6l0.2-0.5l1.2-1.8
	l0.3-0.6l0.4-0.6l1.5-3.1l0.7-0.4l0.9,0.2l0.6,0.8l0.1,0.8l-0.3,0.7L389.8,381z"/>
<path class="st8" d="M400.9,342.6l1.4,0.2l0.8,0.2l0.7,0.2l0.6,0.3l0.5,0.5l0.2,0.6l-0.2,0.6l-0.3,0.8l-0.2,0.5l-0.3,0.8l-0.2,0.6
	l-0.2,0.7l-0.2,0.6l-0.3,0.6l-0.3,0.7l-0.3,0.6l-0.5,1.4l-0.2,0.6l-0.2,0.7l-0.2,0.7l-0.2,0.6l-0.5,1.4l-0.4,0.9l-0.3,0.9l-0.3,0.7
	l-0.2,0.7l-0.2,0.7l-0.2,0.7l-0.2,0.6l-0.5,1.4l-0.2,0.6l-0.2,0.7l-0.2,0.7l-0.1,0.6l-0.2,0.7l-0.1,0.5l0.4-0.1l0.7-0.3l0.6-0.5
	l0.8-0.5l0.8-0.5l0.7-0.3l0.8-0.4l0.9-0.3l0.8-0.2l1-0.2l1.2-0.2l1.3-0.1h1l0.8,0.1l1.4,0.3l0.6,0.3l0.7,0.3l0.6,0.4l0.5,0.4
	l0.9,1.1l0.4,0.5l0.5,0.5l0.4,0.6l0.2,0.7l0.3,0.6l0.2,0.7l0.2,0.7l0.1,0.6l0.2,0.7l0.1,0.8l0.1,0.7v0.7l-0.1,0.7v0.7l-0.1,0.7
	l-0.1,0.8l-0.3,1.4l-0.1,0.8l-0.3,1.4l-0.5,1.4l-0.2,0.7l-0.6,1.4l-0.2,0.7l-0.3,0.6l-0.6,1.4l-0.5,0.6l-0.2,0.5l0.2,0.3l0.5,0.2
	l0.7-0.1l0.8-0.1l0.7-0.1l0.7-0.2l0.6-0.2l0.7-0.2l0.6-0.4l1.1-0.9l0.5-0.4l1.1-1.1l0.4-0.5l0.4-0.6l0.5-0.6l0.8-1.2l0.4-0.5
	l0.3-0.6l0.4-0.7l0.2-0.6l0.4-0.6l0.6-0.4l0.9,0.2l0.6,0.7l0.2,0.8l-0.2,0.7L426,382l-0.4,0.6l-0.3,0.6l-0.4,0.6l-0.5,0.6l-0.3,0.4
	l-0.5,0.7l-0.4,0.6l-0.5,0.6l-0.5,0.5l-0.5,0.5l-0.5,0.4l-0.5,0.5l-0.6,0.5l-0.5,0.5l-0.5,0.4l-0.6,0.3l-1.3,0.5l-0.7,0.2l-0.6,0.2
	l-0.7,0.1l-0.8,0.1l-0.7,0.1h-1.2l-0.8-0.1l-1.4-0.2l-0.6,0.2l-0.5,0.4l-0.5,0.5l-1.1,0.9l-0.6,0.4l-0.7,0.5l-1.2,0.7l-0.5,0.3
	l-0.6,0.3l-0.7,0.3l-0.7,0.2l-0.6,0.2l-0.7,0.2l-0.7,0.2l-2.8,0.3h-0.7l-1.6-0.2l-0.7-0.1l-0.6-0.2l-2.1-0.7l-0.6-0.4l-0.7-0.4
	l-0.5-0.5l-0.5-0.5l-0.5-0.6l-0.4-0.5l-0.4-0.7l-0.2-0.6l-0.2-0.7l-0.3-1.4l-0.2-0.6l-0.1-0.7l-0.1-0.8l0.1-0.7v-0.7l0.1-0.7
	l0.1-0.8l0.2-1.4v-0.7l0.1-0.7l0.1-0.8l0.2-1l0.5-2.6l0.2-1l0.2-0.8l0.3-1.4l0.1-0.7l0.2-0.7l0.2-0.7l0.2-0.7l0.2-0.7l0.3-1.4l0.3-1
	l0.2-0.9l0.3-1.4l0.2-0.7l0.4-1.4l0.2-0.7l0.2-0.6l0.5-1.4l0.2-0.6l0.5-1.4l0.2-0.6l0.3-0.7l0.5-1.3l0.2-0.7l0.2-0.8l0.2-0.5
	l0.2-0.8l0.2-0.7l0.2-0.6l0.3-0.7l0.2-0.6l0.3-0.7l0.2-0.6l0.2-0.7l0.3-0.6l0.2-0.7l0.2-0.6l0.7-2.1l0.6-1.2l0.5-0.5l0.6-0.3
	L400.9,342.6z M404.1,367.5l-0.8,0.2l-0.5,0.2l-0.8,0.2l-0.6,0.3l-0.7,0.3l-0.6,0.3l-0.5,0.4l-1.2,0.8l-0.5,0.4l-0.6,0.5l-0.4,0.3
	l-0.5,0.6l-0.4,0.5l-0.2,0.6l-0.2,0.7l-0.2,0.6l-0.2,0.7l-0.2,0.7l-0.2,1l-0.2,0.9l-0.2,0.7l-0.2,0.7L394,380l-0.2,0.9l-0.2,1
	l-0.1,0.8v0.7l-0.1,0.7v0.7l0.1,0.7v1.5l0.2,1l0.2,0.9l0.3,0.7l0.3,0.6l1.1,0.9l0.6,0.4l0.6,0.2l1.4,0.2l1.4-0.2l1.4-0.3l0.6-0.2
	l0.6-0.3l0.6-0.5l0.5-0.4l0.6-0.4l0.5-0.5l0.3-0.5v-0.4l-0.3-0.6l-0.4-0.8l-0.2-0.9l0.2-0.8l0.6-0.7l0.8-0.5l0.7-0.2l0.6,0.1
	l0.5,0.2l0.5-0.2l0.3-0.5l0.3-0.6l0.2-0.7l0.2-0.7l0.2-0.6l0.7-2.1l0.2-0.7l0.1-0.7l0.2-0.7l0.2-2.1v-2.1l-0.1-0.7l-0.3-1.4
	l-0.3-0.6l-0.4-0.6l-0.5-0.5l-1.2-0.6l-0.7-0.2l-0.6-0.1l-1.4-0.2L404.1,367.5z"/>
<path class="st8" d="M442.1,378.9v0.8l-0.2,0.7l-0.6,1.2l-0.7,1.2l-0.4,0.7l-0.3,0.6l-0.5,0.7l-0.2,0.5l-0.4,0.7l-0.4,0.6l-0.4,0.5
	l-0.5,0.6l-0.4,0.5l-0.8,1.2l-1.4,1.6l-0.9,1l-0.5,0.5l-0.5,0.5l-0.5,0.5l-1.7,1.3l-0.5,0.4l-0.7,0.3l-0.7,0.2l-0.6,0.2l-1.4,0.3
	h-1.3l-0.8-0.1l-0.6-0.2l-0.7-0.2l-0.6-0.4l-0.5-0.5l-0.4-0.5l-0.4-0.6l-0.3-0.7l-0.2-0.6l-0.2-0.7l-0.1-0.7v-0.7l0.2-1.4l0.2-0.7
	l0.2-0.7l0.3-1.4l0.2-0.6l0.2-0.7l0.2-0.7l0.2-0.6l0.7-2.1l0.1-0.6l0.2-0.7l0.2-0.7l0.2-0.7l0.2-0.6l0.5-1.4l0.2-0.9l0.2-1l0.5-1.4
	l0.2-0.7l0.2-0.5l0.2-0.7l0.3-0.8l0.2-0.6l0.5-2.1l0.2-0.7l0.2-0.9l0.3-1l0.2-0.7l0.3-0.6l0.5-0.4l0.7-0.3l0.6-0.1l0.8,0.1l1.4,0.2
	l1.2,0.5l0.4,0.5v0.7l-0.2,0.7l-0.2,0.9l-0.2,1l-0.5,1.4l-0.2,0.6l-0.2,0.7l-0.2,0.8l-0.2,0.9l-0.8,2.3l-0.2,0.7l-0.3,1l-0.5,1.6
	l-0.2,0.7l-0.2,0.6l-0.2,0.7l-0.5,1.3l-0.2,0.7l-0.5,1.9l-0.5,1.4l-0.2,0.7l-0.2,1l-0.2,1.2l-0.2,1.3l0.2,1.2l0.6,0.8l0.8,0.2
	l0.7-0.1l0.7-0.3l0.5-0.4l0.6-0.5l2.5-2.5l0.5-0.5l0.4-0.5l0.5-0.6l0.8-1.2l0.5-0.5l0.3-0.5l0.4-0.6l0.5-0.7l0.3-0.7l0.6-1.3
	l0.9-1.8l0.4-0.6l0.7-0.4l1,0.2L442.1,378.9z M429.8,355.4l0.4-0.6l0.6-0.5l0.6-0.4l0.8-0.2l0.7-0.2h0.8l0.7,0.2l0.6,0.4l0.5,0.5
	l0.5,0.5l0.4,0.6l0.2,0.7l0.1,0.7v0.8l-0.2,0.7l-0.4,0.6l-0.5,0.6l-0.5,0.5l-0.6,0.5l-0.7,0.3l-0.8,0.2l-0.7-0.1l-0.8-0.2l-1.2-0.8
	l-0.5-0.5l-0.4-0.6l-0.2-0.7l-0.1-0.7l0.1-0.7l0.2-0.8L429.8,355.4z"/>
<path class="st8" d="M462.2,358.6l-0.4,0.7l-0.6,1.2l-0.4,0.8l-0.5,0.8l-0.4,0.5l-0.4,0.6l-0.4,0.5l-0.4,0.7l-0.3,0.5l-0.4,0.6
	l-0.5,0.7l-0.7,0.9l-0.7,0.7l-0.3,0.4l-0.5,0.6l-1,1l-0.5,0.5l-0.8,0.9l-0.5,0.5l-0.6,0.6l-0.8,0.6l-1.2,1l-0.6,0.4l-1.7,1.1
	l-0.5,0.2l-0.6,0.4l-0.8,0.7l-0.5,0.7l-0.3,0.6l-0.2,0.8l-0.2,1.4v0.5l-0.2,0.8l-0.2,0.7l-0.1,0.8v1.6l-0.1,1v1.5l0.2,0.8l0.1,0.5
	l0.2,0.8l0.3,0.7l0.3,0.6l0.5,0.5l0.6,0.4l0.6,0.2l0.8,0.2h1.3l0.6-0.1l0.7-0.2l0.9-0.4l0.8-0.5l0.6-0.5l0.8-0.6l0.7-0.7l0.9-0.8
	l0.6-0.5l0.5-0.6l0.3-0.4l0.5-0.6l0.3-0.5l0.5-0.7l0.3-0.4l0.5-0.7l0.6-1.2l0.4-0.6l0.5-0.7l0.4-0.7l0.4-0.8l0.7-1l0.8-0.6l1,0.2
	l0.6,0.8v0.8l-0.2,0.7l-0.3,0.6l-0.4,0.6l-0.3,0.7l-0.3,0.6l-0.2,0.6l-0.4,0.6l-0.3,0.5l-0.4,0.6l-0.5,0.7l-0.2,0.4l-0.4,0.7
	l-0.5,0.6l-0.8,1.1l-0.5,0.7l-0.3,0.3l-0.5,0.7l-0.5,0.5l-0.6,0.8l-0.7,0.6l-0.5,0.5l-0.5,0.4l-0.5,0.5l-0.7,0.4l-0.6,0.3l-0.7,0.3
	l-0.6,0.3l-0.6,0.2l-0.7,0.3l-0.9,0.3l-1.5,0.3l-0.9,0.1l-0.8-0.1h-0.5l-0.8-0.1l-0.7-0.2l-0.6-0.2l-0.7-0.2l-0.6-0.3l-0.6-0.4
	l-0.5-0.5l-0.5-0.5l-0.5-0.5l-0.3-0.6l-0.3-0.7l-0.2-0.6l-0.2-0.7l-0.2-0.7l-0.1-0.7l-0.2-0.8v-0.4l-0.2-0.8l-0.1-0.7v-0.7l0.1-0.7
	l0.1-0.8v-0.5l0.1-1l0.2-1.7l0.1-0.9v-0.7l0.2-0.7l0.2-0.8l0.5-2.5l0.2-0.9l0.2-1.4l0.2-0.4l0.2-0.9l0.2-0.5l0.3-1.2l0.2-1l0.2-0.7
	l0.2-0.9l0.3-1.1l0.1-0.5l0.3-1.1l0.3-1l0.2-0.5l0.3-1l0.3-0.9l0.3-0.7l0.8-2l0.2-0.5l0.5-1.1l0.5-1.2l0.4-0.9l0.3-0.7l0.2-0.5
	l0.4-0.7l0.5-1.3l0.4-0.8l0.4-0.7l0.5-0.7l0.6-1l1-1.4l0.5-0.6l1-1l0.3-0.4l0.5-0.5l0.5-0.4l1.2-0.8l0.8-0.5l0.8-0.4l0.7-0.2
	l0.7-0.2h1.4l0.8,0.2l0.5,0.1l0.8,0.2l0.6,0.3l1.1,0.9l0.4,0.6l0.5,0.8l0.4,0.9l0.3,0.7l0.3,0.9l0.2,1v1.4l-0.2,2.1l-0.3,1.4
	l-0.2,0.6l-0.2,0.8l-0.6,1.8l-0.3,0.6L462.2,358.6z M449.6,360.8l-1.1,3.2l-0.2,0.7l-0.2,0.7l-0.3,1l-0.5,1.6l-0.2,0.8l-0.1,0.5
	l-0.2,0.8l-0.2,0.7l-0.2,0.8l0.2,0.5l0.5-0.3l0.8-0.6l3.1-3.1l0.4-0.5l0.4-0.6l0.5-0.7l0.3-0.3l0.5-0.7l0.5-0.7l0.5-0.8l0.5-0.8
	l0.4-0.6l0.3-0.5l0.4-0.5l0.6-1.2l0.3-0.8l0.2-0.5l0.3-0.8l0.3-0.7l0.2-0.7l0.2-0.7l0.2-0.8l0.3-0.8l0.2-0.8l0.3-0.8l0.1-0.8
	l0.1-0.7v-1.5l-0.2-0.6l-0.2-0.6l-0.5-0.4l-0.6-0.2l-0.7,0.2l-0.7,0.5l-0.5,0.5l-0.4,0.5l-0.4,0.5l-0.4,0.6l-0.8,1.2l-0.4,0.7
	l-0.3,0.7l-0.3,0.6l-0.3,0.7l-0.3,0.6l-0.3,0.7l-0.2,0.6l-0.3,0.8l-0.5,1.2l-0.3,0.7L449.6,360.8z"/>
<path class="st8" d="M479.1,378.9v0.8l-0.2,0.7l-0.6,1.2l-0.7,1.2l-0.4,0.7l-0.4,0.6l-0.5,0.7l-0.2,0.5l-0.4,0.7l-0.4,0.6l-0.4,0.5
	l-0.5,0.6l-0.4,0.5l-0.8,1.2l-1.4,1.6l-0.9,1l-0.5,0.5l-0.5,0.5l-0.5,0.5l-1.7,1.3l-0.5,0.4l-0.7,0.3l-0.7,0.2l-0.6,0.2l-1.4,0.3
	h-1.3l-0.8-0.1l-0.6-0.2l-0.7-0.2l-0.6-0.4l-0.5-0.5l-0.4-0.5l-0.4-0.6l-0.3-0.7l-0.2-0.6l-0.2-0.7l-0.1-0.7v-0.7l0.2-1.4l0.2-0.7
	l0.2-0.7l0.3-1.4l0.2-0.6l0.2-0.7l0.2-0.7l0.2-0.6l0.7-2.1l0.1-0.6l0.2-0.7l0.2-0.7l0.2-0.7l0.2-0.6l0.5-1.4l0.2-0.9l0.2-1l0.5-1.4
	l0.2-0.7l0.2-0.5l0.2-0.7l0.3-0.8l0.2-0.6l0.5-2.1l0.2-0.7l0.2-0.9l0.3-1l0.2-0.7l0.3-0.6l0.5-0.4l0.7-0.3l0.6-0.1l0.8,0.1l1.4,0.2
	l1.2,0.5l0.4,0.5v0.7l-0.2,0.7l-0.2,0.9l-0.2,1l-0.5,1.4l-0.2,0.6l-0.2,0.7l-0.2,0.8l-0.2,0.9l-0.8,2.3l-0.2,0.7l-0.3,1l-0.5,1.6
	l-0.2,0.7l-0.2,0.6l-0.2,0.7l-0.5,1.3l-0.2,0.7l-0.5,1.9l-0.5,1.4l-0.2,0.7l-0.2,1l-0.2,1.2l-0.2,1.3l0.2,1.2l0.6,0.8l0.8,0.2
	l0.7-0.1l0.7-0.3l0.5-0.4l0.6-0.5l2.5-2.5l0.5-0.5l0.4-0.5l0.5-0.6l0.8-1.2l0.5-0.5l0.3-0.5l0.4-0.6l0.5-0.7l0.3-0.7l0.6-1.3
	l0.9-1.8l0.4-0.6l0.7-0.4l1,0.2L479.1,378.9z M466.8,355.4l0.4-0.6l0.6-0.5l0.6-0.4l0.8-0.2l0.7-0.2h0.8l0.7,0.2l0.6,0.4l0.5,0.5
	l0.5,0.5l0.4,0.6l0.2,0.7l0.1,0.7v0.8l-0.2,0.7l-0.4,0.6l-0.5,0.6l-0.5,0.5l-0.6,0.5l-0.7,0.3l-0.8,0.2l-0.7-0.1l-0.8-0.2l-1.2-0.8
	l-0.5-0.5l-0.4-0.6l-0.2-0.7l-0.1-0.7l0.1-0.7l0.2-0.8L466.8,355.4z"/>
<path class="st8" d="M500.6,378.8v0.8l-0.3,0.8l-0.9,1.7l-0.3,0.7l-0.3,0.6l-0.8,1.2l-0.3,0.5l-0.4,0.6l-0.6,1.2l-0.3,0.5l-0.5,0.8
	l-0.9,1.1l-0.4,0.6l-0.4,0.5l-0.5,0.5l-1.5,1.5l-1.1,0.8L490,394l-0.6,0.5l-0.8,0.5l-0.9,0.4l-0.7,0.3l-0.7,0.2l-0.6,0.2l-0.7,0.1
	h-2.1l-0.7-0.1l-0.7-0.2l-0.9-0.3l-0.8-0.4l-0.6-0.4L478,394l-0.4-0.5l-0.4-0.6l-0.6-1.2l-0.2-0.6l-0.2-0.7l-0.2-0.7l-0.2-0.6v-0.7
	l-0.1-0.7v-0.7l-0.1-0.8v-0.7l0.2-2.1v-0.7l0.4-3.5l0.2-0.7l0.1-0.7l0.3-1.4l0.2-1l0.2-0.9l0.2-0.7l0.2-0.7l0.2-0.7l0.2-0.7l0.2-0.7
	l0.2-0.9l0.3-1l0.5-1.4V367l-0.2-0.4l-0.5-0.2l-0.6-0.1l-0.8-0.2l-0.8-0.3l-0.5-0.7l-0.2-0.7l-0.1-0.8l0.2-0.6l0.3-0.5l0.5-0.4
	l1-0.1l1.2,0.1h1.2l0.8-0.2l0.3-0.5l0.2-0.8l0.2-0.6l0.2-0.7l0.3-0.6l0.3-0.7l0.2-0.6l0.5-1.4l0.3-1.4l0.2-0.7l0.3-0.6l0.5-1.4
	l0.2-0.6l0.3-0.7l0.2-0.7l0.2-0.6l0.2-0.7l0.3-0.6l0.3-0.7l0.2-0.6l0.2-0.7l0.3-0.7l0.4-0.5l0.6-0.4l0.7-0.2l0.8,0.1l0.9,0.2l1,0.2
	l0.7,0.4l0.6,0.5l0.2,0.8l-0.2,0.7l-0.4,1l-0.5,1.1l-0.4,1l-0.2,0.8l-0.2,0.5l-0.2,0.8l-0.8,2.5l-0.2,0.6l-0.2,0.7l-0.3,1l-0.5,1.2
	l-0.6,1.8l-0.2,0.7l-0.3,0.6l-0.2,0.6v0.5l0.5,0.4l0.8,0.2h0.8l1.3-0.1l1.1-0.1h2.4l1,0.1l0.5,0.5l0.2,0.8v1l-0.2,0.7l-0.4,0.5
	l-0.5,0.4l-0.7,0.2l-0.7,0.2l-0.8,0.1l-2.1,0.1h-0.8l-0.7-0.1H486l-0.5,0.3l-0.2,0.6l-0.3,0.9l-0.3,1.2l-0.3,1.3L484,373l-0.3,1.3
	l-0.3,1.2l-0.2,1.1l-0.1,0.5l-0.3,1.1l-0.2,0.8l-0.2,0.8l-0.3,1.4L482,382l-0.2,1l-0.2,1.4v2.1l0.2,1l0.2,0.9l0.2,0.7l0.3,0.7
	l0.4,0.5l0.8,0.5l1.1,0.5l0.8,0.2h0.8l0.8-0.2l1.8-0.9l2.1-1.8l0.5-0.5l0.4-0.5l0.8-1l1-1.2l0.4-0.5l0.3-0.6l0.4-0.6l0.5-0.6
	l0.4-0.5l0.4-0.6l0.3-0.6l0.2-0.7l0.4-0.8l0.4-0.6l0.5-0.8l0.9-0.6l1,0.2L500.6,378.8z"/>
<path class="st8" d="M536,378.8l0.1,0.8l-0.3,0.6l-0.3,0.8l-0.7,1.4l-0.5,0.8l-0.5,0.7l-0.5,0.8l-0.4,0.8l-0.3,0.7l-0.8,1.2
	l-0.3,0.4l-0.4,0.7l-0.4,0.6l-0.5,0.6l-0.5,0.7l-0.6,0.8l-0.5,0.6l-0.5,0.5l-1,1l-0.4,0.5l-0.5,0.5l-1,0.8l-0.5,0.5l-0.6,0.5
	l-1.3,0.8l-0.5,0.3l-1.7,1.1l-1.4,0.7l-0.8,0.4l-0.5,0.5l-0.5,0.5l-0.5,1.4l-0.2,0.7l-0.7,2.1l-0.2,0.8l-0.2,0.7l-0.2,0.8l-0.3,0.9
	l-0.4,0.9l-0.3,0.7l-0.2,0.6l-0.4,0.7l-0.2,0.5l-0.4,0.7l-0.6,1.2l-0.4,0.5l-0.9,1.1l-0.5,0.5l-0.5,0.5l-0.6,0.5l-0.8,0.5l-0.8,0.5
	l-0.7,0.4l-0.9,0.3l-1.1,0.2l-0.9,0.2h-2.1l-1.2-0.2l-0.9-0.3l-0.8-0.3l-0.8-0.6l-0.8-0.8l-0.6-0.8l-0.4-0.8l-0.2-0.9l-0.2-0.9V412
	l0.1-0.7l0.2-0.7l0.2-0.6l0.2-0.7l0.2-0.6l0.3-0.7l0.5-0.8l0.5-0.8l0.5-0.6l1.4-1.4l0.6-0.4l0.7-0.5l2.1-1.5l0.6-0.4l0.8-0.4
	l0.4-0.2l2-0.9l0.5-0.2l1-0.5l0.9-0.4l0.7-0.4l0.8-0.4l0.7-0.6l0.4-0.6l0.2-0.7l0.2-0.6l0.2-0.7l0.2-0.7l0.2-0.6l0.2-0.7l0.4-1.3
	l0.2-0.7l0.2-0.7l0.6-1.8l0.2-0.8l0.2-0.7h-0.1l-0.4,0.5l-0.5,0.5l-0.4,0.5l-0.5,0.5l-0.8,1.1l-0.5,0.5l-0.5,0.6l-0.9,0.9l-0.8,0.6
	l-0.7,0.7l-0.6,0.5l-0.5,0.4l-0.7,0.3l-0.8,0.5l-0.9,0.5l-0.7,0.2l-1.4,0.3l-0.9,0.1l-1,0.2l-0.7-0.1l-0.8-0.2l-0.7-0.2l-0.8-0.3
	l-0.8-0.4l-0.6-0.5l-0.5-0.5l-0.4-0.6l-0.4-0.8l-0.3-0.9l-0.1-0.8v-0.9l-0.1-1v-0.8l0.1-0.9l0.2-1l0.1-0.8l0.2-0.8l0.2-0.5l0.2-0.8
	l0.1-0.7l0.2-0.7l0.2-0.7l0.2-0.7l0.6-2.8l0.2-0.6l0.5-1.4l0.3-0.8l0.2-0.7l0.2-0.5l0.5-1.4l0.2-0.6l0.2-0.8l0.1-0.7l0.2-0.6
	l0.5-1.4l0.2-0.7l0.2-0.7l0.5-2.1l0.2-0.6l0.4-0.5l0.7-0.3l0.7-0.1l0.8-0.1h0.7l0.8,0.1l0.6,0.2l0.6,0.4l0.3,0.5v0.6l-0.1,0.7
	l-0.2,0.7l-0.2,0.7l-0.5,2.1L507,370l-0.2,0.7l-0.2,0.7l-0.5,2.1l-0.2,0.6l-0.2,0.7l-0.3,0.7l-0.2,1l-0.2,0.9l-0.3,1.4l-0.5,1.4
	l-0.1,0.7l-0.2,0.7l-0.2,0.6l-0.2,0.7l-0.2,0.7l-0.2,0.8l-0.1,0.5l-0.2,0.8l-0.2,0.7l-0.2,0.8l-0.1,0.7v1.5l0.1,0.7l0.3,0.7l0.5,0.5
	l0.7,0.2l0.7,0.2l0.7,0.1l0.7-0.2l0.7-0.2l0.6-0.4l0.5-0.5l0.6-0.5l0.6-0.5l0.3-0.3l0.8-0.6l0.9-0.9l0.5-0.5l0.4-0.5l0.5-0.7
	l0.2-0.4l0.5-0.7l0.5-0.6l0.4-0.5l0.4-0.7l0.3-0.6l0.2-0.7l0.4-0.7l0.3-0.4l0.6-1.4l0.2-0.6l0.2-0.7l0.5-1l0.5-1.1l0.3-1l0.2-0.7
	l0.2-0.7l0.2-0.7l0.2-0.6l0.3-0.7l0.3-0.8l0.2-0.9l0.2-0.8l0.3-1.4l0.2-0.8l0.2-0.9l0.2-0.8l0.3-0.6l0.5-0.5l0.7-0.2l0.7-0.1h1.5
	l0.8,0.2l0.7,0.2l0.6,0.4l0.2,0.5v0.7l-0.1,0.7l-0.2,0.7l-0.5,1.2l-0.2,0.7l-0.2,1l-0.2,0.9l-0.2,0.8l-0.2,0.9l-0.3,0.8l-0.2,0.8
	l-0.2,0.9l-0.3,1l-0.3,1.4l-0.2,0.7l-0.2,0.9l-0.3,0.9l-0.2,0.7l-0.2,0.7l-0.2,0.7L522,383l-0.2,1l-0.2,0.7l-0.2,0.6l-0.2,0.7
	l-0.2,0.9l-0.3,0.9l-0.2,0.8l-0.2,1l-0.2,0.9l-0.3,1.4l-0.2,0.8l-0.2,0.5l-0.2,0.8v0.8l0.5,0.2l1-0.3l0.8-0.5l0.7-0.4l0.5-0.4
	l0.6-0.5l0.5-0.5l0.4-0.3l0.6-0.6l0.5-0.5l0.5-0.5l0.5-0.5l0.5-0.5l0.4-0.5l0.9-1.1l0.5-0.5l0.4-0.5l0.5-0.6l0.4-0.6l0.7-1.2
	l0.8-1.2l0.8-1.7l0.4-0.7l0.4-0.6l0.9-1.8l0.7-0.5l0.9,0.1L536,378.8z M511,404l0.2-0.9l-0.4-0.2l-0.8,0.3l-0.6,0.4l-0.6,0.5
	l-0.5,0.4l-1.6,0.9l-0.5,0.5l-0.6,0.5l-1.2,1.2l-0.8,1l-0.7,1.1l-0.4,1.2l-0.1,0.9l0.2,0.7l0.7,0.7l1,0.5h1l0.8-0.2l1.2-0.8l0.5-0.6
	l0.4-0.6l0.5-0.5l0.4-0.6l0.4-0.8l0.3-0.7l0.2-0.5l0.2-0.8l0.3-0.9l0.3-1.2L511,404z"/>
<g>
	<path class="st2" d="M89.7,285.3c-0.2,1.9,0.1,3.2,0.8,4c0.4,0.5,0.8,0.7,1.1,0.8c0.4,0.1,0.6,0.1,0.6,0.1v0.8
		c-0.1,0-0.3,0-0.6,0.1c-0.3,0.1-0.7,0.3-1.2,0.6c-0.5,0.3-0.9,0.8-1.3,1.4c-0.4,0.6-0.6,1.6-0.8,2.8l-1.2,8.8
		c-0.5,3.5-1.5,6.3-3.2,8.2s-3.5,3.3-5.4,4.2c-1.9,0.9-3.6,1.4-5.1,1.6S71.1,319,71,319H57c-0.1,0-0.5,0-1.2,0s-1.6-0.2-2.6-0.5
		s-2.1-0.7-3.2-1.3c-1.1-0.5-2.2-1.4-3.1-2.5c-2.2-2.4-3-5.9-2.5-10.2l1.1-8.7c0.3-1.7,0-3.1-0.7-4c-0.4-0.4-0.8-0.6-1.2-0.8
		c-0.3-0.1-0.5-0.1-0.6-0.1v-0.7c0.7-0.1,1.3-0.4,1.7-0.7c0.4-0.3,0.8-0.8,1.3-1.4c0.4-0.6,0.7-1.6,0.8-2.8l2.9-22.8
		c0.4-3.5,1.5-6.3,3.2-8.2s3.5-3.3,5.4-4.2s3.6-1.4,5.1-1.6c1.5-0.2,2.3-0.2,2.4-0.2h14c0.1,0,0.4,0,1.2,0c0.7,0,1.6,0.2,2.6,0.5
		c1,0.3,2.1,0.7,3.2,1.3c1.2,0.6,2.2,1.4,3.2,2.4c2.1,2.6,3,6,2.5,10.1L89.7,285.3z M59.5,302.2c-0.1,0.5,0,1,0.3,1.4
		c0.1,0.2,0.4,0.4,0.9,0.5c0.2,0.1,0.4,0.1,0.5,0.1h9.4c0.1,0,0.4-0.1,1.1-0.2c0.6-0.2,1-0.8,1.2-1.8l4.7-37.3
		c0-0.6-0.1-1.1-0.4-1.4c-0.2-0.2-0.5-0.4-0.9-0.5c-0.2-0.1-0.4-0.1-0.5-0.1h-9.3c-0.1,0-0.4,0.1-1.1,0.3c-0.6,0.2-1,0.8-1.2,1.7
		L59.5,302.2z"/>
	<path class="st2" d="M171.5,250c-1.2,3.6-2.5,7.4-3.8,11.4c-1.1,3.4-2.3,7.2-3.8,11.5c-1.4,4.2-2.9,8.6-4.3,13
		c-0.1,1.5,0.2,2.7,0.9,3.5c0.3,0.4,0.7,0.6,1,0.7c0.4,0.1,0.6,0.1,0.6,0.1v0.3v0.1v0.1v0.3v-0.3v0.3h-0.1c-0.2,0-0.5,0-0.9,0.1
		s-0.9,0.2-1.4,0.4c-0.5,0.2-1.1,0.6-1.6,1.1s-1,1.2-1.4,2l-0.4,1.4v-0.1c-1.5,4.8-2.8,8.5-3.8,11.3c-1,2.8-1.7,5-2.2,6.5
		s-0.8,2.5-1,3c-0.2,0.5-0.3,0.8-0.3,0.9c-0.3,0.6-0.7,1-1,1.2c-0.4,0.1-0.6,0.2-0.6,0.2h-11.7c-0.2,0-0.5-0.1-0.8-0.3
		c-0.3-0.2-0.5-0.6-0.7-1.1c-0.1-0.2-0.2-2.2-0.5-6c-0.3-3.8-0.8-9.4-1.4-16.8l-0.8-9.4l-3.2,9.8c-0.8,2.5-1.7,5.1-2.6,7.6
		c-0.9,2.6-1.7,4.9-2.4,7.1c-0.7,2.2-1.3,3.9-1.8,5.4c-0.5,1.4-0.8,2.2-0.8,2.3c-0.1,0.3-0.3,0.6-0.5,0.7c-0.2,0.2-0.4,0.3-0.5,0.4
		c-0.2,0.1-0.4,0.2-0.6,0.2h-11.7c-0.3,0-0.5-0.1-0.8-0.3c-0.3-0.2-0.5-0.6-0.6-1.1c0-0.1,0-0.4-0.1-0.9s-0.2-1.6-0.3-3.2
		c-0.1-1.6-0.3-3.9-0.6-6.9c-0.3-3-0.6-6.9-1-11.9c-0.1-0.9-0.4-1.6-0.9-2.1s-0.9-0.9-1.4-1.1s-0.9-0.4-1.4-0.4
		c-0.5-0.1-0.7-0.1-0.8-0.1v-0.8c0.6-0.1,1.2-0.3,1.6-0.6c0.4-0.3,0.8-0.7,1.2-1.3c0.4-0.6,0.7-1.4,0.9-2.5c-0.4-4.4-0.7-8.8-1.1-13
		c-0.3-4.2-0.6-8.1-1-11.6c-0.3-4-0.6-7.8-0.9-11.4c0.1-0.6,0.4-1,0.7-1.2c0.4-0.2,0.7-0.3,1-0.3h11.7c0.1,0,0.3,0,0.4,0.1
		s0.2,0.1,0.3,0.1c0.1,0,0.2,0.1,0.3,0.2c0.3,0.3,0.4,0.6,0.3,1.2l1.8,35.3c0.4-1.3,0.9-3,1.6-5.3c0.7-2.2,1.5-4.6,2.3-7.1
		s1.7-5.1,2.5-7.8c0.8-2.7,1.6-5.1,2.3-7.3c0.7-2.2,1.3-4.1,1.8-5.5s0.8-2.3,0.8-2.5c0.3-0.7,0.6-1.1,0.9-1.3
		c0.4-0.1,0.6-0.2,0.7-0.2h12.2c0.1,0,0.3,0,0.4,0.1c0.3,0.1,0.4,0.3,0.6,0.4c0.1,0.1,0.2,0.4,0.2,0.8v0.4l1.7,35.3
		c0.4-1.3,0.9-3,1.7-5.3c0.7-2.2,1.5-4.6,2.3-7.1c0.8-2.5,1.6-5.1,2.5-7.8c0.9-2.7,1.7-5.1,2.4-7.3c0.7-2.2,1.3-4.1,1.8-5.5
		s0.8-2.3,0.8-2.5c0.3-0.7,0.6-1.1,0.9-1.3c0.4-0.1,0.6-0.2,0.7-0.2h12.1c0.1,0,0.2,0,0.5,0c0.3,0,0.4,0.2,0.6,0.4
		C171.8,249.1,171.6,249.5,171.5,250z"/>
	<path class="st2" d="M224,248.8c0.2,0.2,0.3,0.6,0.3,1.2l-4.4,35.5c-0.2,1.9,0.1,3.2,0.8,4c0.3,0.4,0.7,0.6,1.2,0.8
		c0.2,0.1,0.4,0.1,0.6,0.1v0.8c-0.1,0-0.3,0-0.6,0.1c-0.3,0.1-0.7,0.3-1.2,0.6c-0.5,0.3-0.9,0.8-1.3,1.4c-0.4,0.6-0.6,1.6-0.8,2.8
		h-0.1l-2.7,21.5c-0.1,0.6-0.3,1.1-0.7,1.3c-0.4,0.2-0.7,0.3-1,0.3h-11.7c-0.5,0-0.9-0.2-1.1-0.6s-0.3-0.7-0.4-0.8l-9.3-32l-4,31.9
		c-0.1,0.6-0.3,1.1-0.7,1.3c-0.4,0.2-0.7,0.3-1,0.3h-11.7c-0.1,0-0.2,0-0.5,0c-0.3,0-0.5-0.2-0.7-0.4c-0.3-0.3-0.4-0.6-0.3-1.2
		l2.8-22.5c0.1-1.3-0.1-2.3-0.8-3c-0.4-0.4-0.8-0.6-1.2-0.8c-0.3-0.1-0.5-0.1-0.6-0.1v-0.8c0.6-0.1,1.2-0.3,1.5-0.5
		c0.4-0.2,0.8-0.6,1.2-1.2c0.4-0.5,0.7-1.3,0.9-2.3l4.6-36.5c0.1-0.6,0.3-1,0.7-1.2c0.4-0.2,0.7-0.3,1-0.3h12c0.5,0,0.9,0.2,1.1,0.6
		c0.2,0.4,0.3,0.7,0.4,0.8l9.2,32l4.1-31.9c0.1-0.6,0.3-1,0.7-1.2c0.4-0.2,0.7-0.3,1-0.3h11.5c0.1,0,0.2,0,0.5,0
		C223.6,248.3,223.9,248.5,224,248.8z"/>
	<path class="st2" d="M282,248.6c0.2,0.2,0.3,0.6,0.3,1.2l-1.4,11.7c-0.1,0.6-0.4,1-0.7,1.2c-0.4,0.2-0.7,0.3-1,0.3h-25.7
		c-0.1,0-0.2,0-0.4,0.1c-0.2,0.1-0.4,0.3-0.4,0.7l-2.4,18.6c0,0.3,0.1,0.4,0.2,0.5c0.1,0.2,0.2,0.3,0.5,0.3h11.7c0.1,0,0.2,0,0.4,0
		c0.2,0,0.4,0.2,0.6,0.4c0.3,0.3,0.4,0.6,0.3,1.1l-1.4,11.7c-0.1,0.6-0.3,1-0.7,1.2c-0.4,0.2-0.7,0.3-1,0.3h-11.7
		c-0.1,0-0.2,0-0.5,0.1c-0.3,0.1-0.4,0.3-0.5,0.7l-0.6,4.7c0,0.3,0,0.4,0.1,0.5s0.3,0.2,0.6,0.2h25.6c0.1,0,0.2,0,0.4,0.1
		c0.2,0.1,0.4,0.2,0.6,0.4c0.1,0.1,0.2,0.3,0.3,0.4c0.1,0.2,0.1,0.4,0,0.7l-1.4,11.7c-0.1,0.6-0.3,1-0.7,1.2c-0.4,0.2-0.7,0.3-1,0.3
		h-39.7c-0.1,0-0.2,0-0.5,0c-0.3,0-0.5-0.2-0.7-0.4c-0.3-0.3-0.4-0.6-0.3-1.1l2.7-21.6c0.2-1.9-0.1-3.2-0.8-4
		c-0.5-0.4-0.8-0.6-1.1-0.8c-0.2-0.1-0.4-0.1-0.6-0.1v-0.8c0.7-0.1,1.3-0.4,1.7-0.7c0.4-0.3,0.8-0.8,1.2-1.4s0.7-1.6,0.9-2.8
		l4.4-35.5c0.1-0.6,0.3-1,0.7-1.2c0.4-0.2,0.7-0.3,1-0.3h39.7c0.1,0,0.2,0,0.5,0C281.6,248.2,281.8,248.4,282,248.6z"/>
	<path class="st2" d="M334.2,252.6c2.2,2.6,3,5.9,2.4,10l-2.8,22.8c-0.2,1.7-0.6,2.9-1.3,3.7c-0.7,0.8-1.3,1.3-1.9,1.5
		c0.4,0.3,0.7,0.5,0.9,0.7c0.9,1,1.3,2.5,1.1,4.3c-0.2,1.3-0.4,2.4-0.5,3.5c-0.1,1-0.3,2.2-0.4,3.5c-0.2,1.3-0.3,2.7-0.5,4
		l-1.4,10.8c-0.1,0.6-0.3,1-0.7,1.2c-0.4,0.2-0.7,0.3-1,0.3h-0.1h-11.4c-0.5,0-0.9-0.2-1.3-0.5c-0.3-0.3-0.4-0.5-0.4-0.7
		c-0.1-0.1-0.1-0.3,0-0.4l2.2-17.7c0.1-0.5,0-1-0.3-1.4c-0.3-0.3-0.6-0.4-1.1-0.4H305c-0.1,0-0.2,0-0.4,0.1
		c-0.2,0.1-0.4,0.3-0.4,0.7l-2.4,18.6c0,0.3-0.1,0.7-0.4,1c-0.3,0.4-0.7,0.5-1.4,0.5h-11.6c-0.3,0-0.6,0-0.7-0.1
		c-0.2-0.1-0.3-0.2-0.4-0.3c-0.1-0.3-0.2-0.5-0.2-0.7s0-0.4,0.1-0.4l2.6-21.5c0.3-1.7,0-3.1-0.7-4c-0.4-0.4-0.8-0.6-1.2-0.8
		c-0.3-0.1-0.5-0.1-0.6-0.1V290c0.7-0.1,1.3-0.4,1.7-0.7c0.4-0.3,0.8-0.8,1.3-1.4c0.4-0.6,0.7-1.6,0.8-2.8l4.4-35.5
		c0.1-0.6,0.4-1,0.7-1.2c0.4-0.2,0.7-0.3,0.9-0.3H324c0.1,0,0.4,0,1.2,0.1c0.7,0.1,1.6,0.2,2.6,0.5c1,0.3,2.1,0.7,3.2,1.3
		C332.2,250.8,333.2,251.5,334.2,252.6z M321.6,264.9c0.1-0.6,0-1-0.3-1.4c-0.2-0.2-0.5-0.4-0.9-0.5c-0.2-0.1-0.4-0.1-0.5-0.1h-10.4
		c-0.1,0-0.3,0-0.5,0.1s-0.4,0.3-0.4,0.7l-2.3,18.6c-0.1,0.2,0,0.4,0.1,0.5s0.2,0.2,0.5,0.2h10.5c0.1,0,0.4-0.1,1.1-0.2
		c0.6-0.2,1-0.7,1.2-1.7L321.6,264.9z"/>
	<path class="st2" d="M393.6,248.8c0.3,0.3,0.4,0.6,0.3,1.2l-1.4,11.7c-0.1,0.6-0.4,1-0.7,1.2c-0.4,0.2-0.7,0.3-1,0.3H371
		c-1,0-1.8,0-2.7,0.1c-0.8,0.1-1.5,0.3-2.2,0.7c-0.6,0.4-1.2,1.1-1.7,2s-0.8,2.2-1,3.9l-0.9,7c-0.3,2.3,0,3.9,0.9,4.9
		c0.7,0.8,1.7,1.2,3,1.4c1.3,0.1,2.6,0.2,4,0.2h7.1c0.1,0,0.4,0,0.9,0s1.2,0.2,2,0.4c0.8,0.2,1.6,0.6,2.5,1.1s1.7,1.2,2.5,2.1
		c2.3,2.6,3.1,6.2,2.5,10.8l-0.9,7c-0.5,3.5-1.5,6.3-3.2,8.2s-3.5,3.3-5.4,4.2c-1.9,0.9-3.6,1.4-5.1,1.6s-2.3,0.2-2.4,0.2H344
		c-0.1,0-0.2,0-0.5,0s-0.5-0.2-0.7-0.4c-0.3-0.3-0.4-0.6-0.3-1.1l1.4-11.7c0.1-0.6,0.4-1,0.7-1.2c0.4-0.2,0.7-0.3,1-0.3h23.3
		c0.7-0.1,1.3-0.2,1.7-0.4c0.4-0.2,0.8-0.5,1.2-1c0.4-0.4,0.6-1.1,0.7-1.8c0.1-1,0-1.7-0.5-2.1c-0.4-0.4-0.9-0.6-1.4-0.8
		c-0.3-0.1-0.5-0.1-0.8-0.1h-10.3c-0.1,0-0.3,0-0.8,0s-1.1-0.1-1.9-0.3c-0.8-0.2-1.6-0.4-2.6-0.7c-0.9-0.3-1.9-0.8-2.8-1.4
		c-3.9-2.6-5.5-6.6-4.7-12.1l2.7-20.9c0.3-2.4,0.8-4.4,1.7-6c0.9-1.6,1.9-3,3.1-4.1s2.4-1.9,3.7-2.5c1.3-0.6,2.5-1,3.6-1.3
		c1.1-0.3,2.4-0.4,3.9-0.6h26.8c0.1,0,0.2,0,0.5,0C393.1,248.3,393.4,248.5,393.6,248.8z"/>
	<path class="st2" d="M444.5,285.4c-0.3,1.9-0.1,3.2,0.8,4c0.1,0.3,0.3,0.4,0.5,0.5s0.4,0.2,0.5,0.2c0.2,0.1,0.4,0.1,0.6,0.1v0.8
		c-0.7,0.1-1.3,0.4-1.7,0.7c-0.4,0.3-0.8,0.8-1.3,1.4c-0.4,0.6-0.7,1.6-0.8,2.8l-2.7,21.6c-0.1,0.6-0.3,1-0.7,1.2
		c-0.4,0.2-0.7,0.3-1,0.3h-11.7c-0.1,0-0.2,0-0.5,0s-0.5-0.2-0.7-0.4c-0.3-0.3-0.4-0.6-0.3-1.1l2.3-18.7c0.1-0.2,0-0.4-0.1-0.5
		s-0.2-0.2-0.5-0.2h-11.7c-0.1,0-0.2,0-0.5,0.1s-0.4,0.3-0.5,0.7l-2.3,18.7c-0.1,0.6-0.3,1-0.7,1.2c-0.4,0.2-0.7,0.3-1,0.3h-11.7
		c-0.1,0-0.2,0-0.5,0s-0.5-0.2-0.7-0.4c-0.3-0.3-0.4-0.6-0.3-1.1l2.7-21.6c0.2-1.8-0.1-3.1-0.8-4c-0.5-0.4-0.8-0.6-1.1-0.8
		c-0.2-0.1-0.4-0.1-0.6-0.1v-0.8c0.7-0.1,1.3-0.4,1.7-0.7c0.4-0.3,0.8-0.8,1.2-1.4c0.4-0.6,0.7-1.6,0.9-2.8l4.4-35.5
		c0.1-0.6,0.3-1,0.7-1.2c0.4-0.2,0.7-0.3,1-0.3H419c0.1,0,0.2,0,0.5,0s0.5,0.2,0.7,0.4c0.2,0.2,0.3,0.6,0.3,1.2l-4.2,32.6
		c0,0.2,0.1,0.4,0.2,0.5c0.1,0.2,0.2,0.3,0.5,0.3h11.7c0.1,0,0.2,0,0.4-0.1c0.2-0.1,0.4-0.3,0.4-0.7l4.1-32.6c0.1-0.6,0.3-1,0.7-1.2
		c0.4-0.2,0.7-0.3,1-0.3h11.7c0.1,0,0.2,0,0.5,0s0.5,0.2,0.7,0.4c0.2,0.2,0.3,0.6,0.3,1.2L444.5,285.4z"/>
	<path class="st2" d="M474.2,285.4c-0.3,1.9-0.1,3.2,0.8,4c0.1,0.3,0.3,0.4,0.5,0.5s0.4,0.2,0.5,0.2c0.2,0.1,0.4,0.1,0.6,0.1v0.8
		c-0.7,0.1-1.3,0.4-1.7,0.7c-0.4,0.3-0.8,0.8-1.3,1.4c-0.4,0.6-0.7,1.6-0.8,2.8l-2.7,21.5c-0.1,0.6-0.3,1.1-0.7,1.3
		c-0.4,0.2-0.7,0.3-1,0.3h-11.6c-0.1,0-0.2,0-0.5,0s-0.5-0.2-0.7-0.4c-0.3-0.3-0.4-0.6-0.3-1.2l2.8-21.9c0.1-1.6-0.2-2.8-0.9-3.6
		c-0.5-0.4-0.8-0.6-1.1-0.8c-0.2-0.1-0.4-0.1-0.6-0.1v-0.8c0.6-0.1,1.2-0.3,1.6-0.6c0.4-0.3,0.8-0.7,1.2-1.4
		c0.4-0.6,0.7-1.5,0.9-2.7l4.5-35.8c0.1-0.6,0.3-1,0.7-1.2c0.4-0.2,0.7-0.3,1-0.3h11.7c0.1,0,0.2,0,0.5,0s0.5,0.2,0.7,0.4
		c0.2,0.2,0.3,0.6,0.3,1.2L474.2,285.4z"/>
	<path class="st2" d="M533,252.6c2.3,2.6,3.1,5.9,2.5,10l-2.6,21c-0.3,2.4-0.9,4.4-1.8,6c-0.9,1.6-1.9,3-3.1,4.1
		c-1.2,1.1-2.4,1.9-3.8,2.5c-1.3,0.6-2.5,1-3.6,1.3c-1.1,0.3-2.4,0.5-3.9,0.6H504c-0.1,0-0.2,0-0.5,0.1s-0.4,0.3-0.5,0.7l-2.3,18.6
		c-0.1,0.6-0.3,1.1-0.7,1.3c-0.4,0.2-0.7,0.3-1,0.3h-11.7c-0.1,0-0.2,0-0.5,0s-0.5-0.2-0.7-0.4c-0.3-0.3-0.4-0.6-0.3-1.2l2.7-21.5
		c0.2-1.9-0.1-3.2-0.8-4c-0.5-0.4-0.8-0.6-1.1-0.8c-0.2-0.1-0.4-0.1-0.6-0.1v-0.8c0.7-0.1,1.3-0.4,1.7-0.7c0.4-0.3,0.8-0.8,1.2-1.4
		c0.4-0.6,0.7-1.6,0.9-2.8l4.4-35.5c0.1-0.6,0.3-1,0.7-1.2c0.4-0.2,0.7-0.3,1-0.3h27c0.1,0,0.5,0,1.2,0.1s1.6,0.2,2.6,0.5
		c1,0.3,2.1,0.7,3.2,1.3C531,250.8,532.1,251.5,533,252.6z M520.4,264.9c0.1-0.6,0-1-0.3-1.4c-0.2-0.2-0.5-0.4-0.9-0.5
		c-0.2-0.1-0.4-0.1-0.5-0.1h-10.5c-0.1,0-0.2,0-0.4,0.1c-0.2,0.1-0.4,0.3-0.4,0.7l-2.4,18.6c0,0.2,0.1,0.4,0.2,0.5s0.2,0.2,0.5,0.2
		h10.5c0.5-0.1,0.8-0.1,1.1-0.2c0.3-0.1,0.5-0.3,0.7-0.5c0.2-0.3,0.4-0.6,0.4-1.2L520.4,264.9z"/>
</g>
<g>
	<path class="st6" d="M226.9,225v-46.1H218c-9.4,0-12.7,3.6-12.7,8.1c0,3.8,2.5,7.1,8,7.1v7.6c-10.9,0-16-6.7-16-14.7
		c0-9.1,5.8-15.6,20.7-15.6h31.8v7.6h-14.9v46.1h-8V225z"/>
	<path class="st6" d="M288,225l-4.4-10.7h-24.2L255,225h-8.5c7.4-17.9,14.9-35.8,22.4-53.7h5.4c7.4,17.9,14.9,35.8,22.4,53.7H288z
		 M276.4,196.8l-2.5-7.1l-2.3-7.4c-0.8,2.5-1.6,4.9-2.4,7.4l-2.5,7.1l-4.1,9.9h17.9L276.4,196.8z"/>
	<path class="st6" d="M331.6,225l-21.2-24.2V225h-8.1v-53.7h8.1v24.3l21.2-24.3h9.8l-23.2,26.8l23.2,26.8h-9.8V225z"/>
	<path class="st6" d="M348.2,225v-53.7h34.1v7.6h-26.1v15.5h22.2v7.6h-22.2v15.4h26.1v7.6H348.2z"/>
</g>
</svg>
