<?xml version="1.0" encoding="utf-8"?>
<!-- Generator: Adobe Illustrator 22.1.0, SVG Export Plug-In . SVG Version: 6.00 Build 0)  -->
<svg version="1.1" id="wall_mural" xmlns="http://www.w3.org/2000/svg" xmlns:xlink="http://www.w3.org/1999/xlink" x="0px" y="0px"
	 viewBox="0 0 576 576" style="enable-background:new 0 0 576 576;" xml:space="preserve">
<style type="text/css">
	.st0{opacity:0.5;}
	.st1{fill:#BAAFAB;}
	.st2{fill:#EE7623;}
	.st3{fill:#8C9091;}
	.st4{fill:#D3D655;}
	.st5{fill:none;stroke:#8C9091;stroke-miterlimit:10;}
	.st6{fill:#87D1E6;}
	.st7{fill:#6BB1BA;}
	.st8{fill:#AFBC37;}
	.st9{fill:#8C9091;stroke:#D3D655;stroke-miterlimit:10;}
	.st10{fill:#FFFFFF;}
</style>
<g>
	<g>
		<path class="st6" d="M137.1,170.7c1.8,1.5,2.8,2.3,4.6,3.8c0-1.8,0-2.8,0-4.6c6.6-1.2,9.8-1.7,16.4-2.7c2.2,1.9,3.4,2.9,5.6,4.8
			c-0.3-2.2-0.5-3.3-0.8-5.6c10.3-1.6,20.7-2.9,31-4.1c4.6,4.3,6.8,6.5,11.3,10.8c0.4,3.8,0.6,5.8,1,9.6c-2,0.5-3,0.7-5,1.1
			c-3,0.8-5.8,3.7-6.1,8.8c-1.4,20.7-2.5,41.5-3.4,62.2c-5.4,0.7-8.1,1.1-13.5,1.9c-3.7-3.6-5.6-5.4-9.4-8.9c-1.3-3.3-2-5-3.4-8.2
			c0.1,7.7,0.1,11.5,0.2,19.2c-5.6,0.9-8.4,1.4-14,2.4c-3.9-3.5-5.9-5.2-9.8-8.6c-8.8-19.8-17.9-39.4-27.3-58.9
			c-1.3-3-3-5.5-5.7-5.4c-2,0.2-3,0.4-5,0.6c-1-4.4-1.5-6.6-2.5-11C113.2,175.3,125.1,172.9,137.1,170.7z M165.7,168.2
			c0.4,2.8,0.6,4.1,1,6.9c1.7,0,2.6,0,4.3,0c4-0.1,4.4,2.5,4,8.2c-0.5,10.1-1,20.1-1.4,30.2c-5.6-14.7-11.4-29.3-17.4-43.8
			c-4.7,0.7-7,1.1-11.6,1.9c0.1,15.4,0.3,30.9,0.6,46.3c-4.2-9.6-8.5-19.1-12.9-28.6c-2.3-4.9-2.8-6.9-0.1-7.8
			c1.7-0.6,2.5-0.8,4.2-1.4c-0.5-2.7-0.8-4.1-1.3-6.8c-10.3,1.9-20.7,4-30.9,6.3c0.6,2.7,0.9,4.1,1.5,6.8c1.7-0.1,2.6-0.2,4.3-0.3
			c2.9-0.2,5.3,2.9,7.2,6.7c9.1,19,17.9,38.1,26.4,57.3c4-0.8,6-1.1,10-1.8c-0.3-15.5-0.5-31.1-0.6-46.6c6,14.5,11.9,29.1,17.6,43.8
			c4-0.6,6-0.9,10-1.5c0.7-19,1.7-37.9,2.8-56.9c0.5-8.4,1.4-13.3,5.1-14.2c1.6-0.4,2.5-0.7,4.1-1.1c-0.3-2.8-0.5-4.2-0.8-6.9
			C181.3,166,176.1,166.7,165.7,168.2z M133.1,175.8c0.2,1.1,0.3,1.6,0.5,2.6c-1.3,0.4-1.9,0.7-3.1,1.1c-3.9,1.2-3.9,3.6-0.5,10.8
			c3.7,8,5.6,12,9.2,20c-1.9-0.6-3.4-0.4-4.9,0.9c2.6,1.9,3.9,2.9,6.5,4.9c0.3,6.8,2.8,19.9,2.8,19.9c-0.1,0-6.9-12.3-11.5-18.2
			c0.7-2.6,1.1-3.9,1.8-6.5c-2.3-0.6-3.7-0.3-4.5,0.9c-3.5-7.5-5.2-11.2-8.8-18.7c-3.3-6.6-6.4-10.3-10.1-10c-1.2,0-1.7,0.1-2.9,0.1
			c-0.2-1.1-0.3-1.6-0.6-2.6C117.3,178.8,122.6,177.8,133.1,175.8z M134.2,211.2c-0.5-2.8,0.5-7.1,0.1-8.7
			c-1-3.5-10.9-14.7-10.9-14.7s1.5,13.1,3.2,16.2c1.1,2,5.3,4.8,7.2,7.3C133.9,211.2,134,211.2,134.2,211.2z M154.5,172.1
			c4.6,11.1,9,22.2,13.4,33.4c-1.8-0.7-3.5-0.4-5.1,0.8c2.6,2,3.8,3,6.3,5.1c0.4,6.7,2.4,19.9,2.4,19.9c-0.1,0-6.7-12.4-11-18.6
			c0.7-2.5,1.1-3.8,1.8-6.3c-2.4-0.6-4.3,0.7-4.3,0.7c-0.4,0-4.2-9.2-5.6-9c-1.7,0.3-1.9,10.2-1.9,10.2c-0.1,0-2.2-0.6-3,0.5
			c-0.2-11.8-0.4-23.7-0.5-35.5C150,172.8,151.5,172.6,154.5,172.1z M162.7,205.8c-0.3-2.8,0.7-7.1,0.4-8.7
			c-0.8-3.4-10.4-14.7-10.4-14.7s1.5,12.4,3.2,15.8c1,2.1,4.7,5.1,6.3,7.6C162.4,205.8,162.5,205.8,162.7,205.8z M189.6,167.1
			c0.1,1.1,0.2,1.6,0.3,2.7c-1.5,0.4-2.2,0.6-3.7,1.1c-2.5,0.7-4.7,3.2-5.1,12.5c-0.5,8.2-0.8,12.2-1.3,20.4
			c-1.2-0.8-2.6-0.6-3.6,0.5c0.4-8.2,0.7-12.2,1.2-20.4c0.4-8.2-1.2-10.9-5.1-11c-1.5,0-2.2,0-3.7,0c-0.2-1.2-0.3-1.7-0.4-2.9
			C176.8,168.7,181.1,168.1,189.6,167.1z"/>
		<path class="st6" d="M209.1,172.7c-1.8-0.1-2.6-0.2-4.4-0.3c-0.5-4.5-0.7-6.7-1.2-11.2c19.3-1.9,38.7-3.3,58.1-4.2
			c4.5,4.8,6.7,7.2,11,12.1c0.3,9.6,0.5,19.2,0.8,28.8c-5.5,0.2-8.2,0.2-13.7,0.5c-3.7-4.1-5.5-6.2-9.3-10.3
			c-0.1-1.7-0.1-2.6-0.2-4.3c-0.1-2.6-0.9-4-3-3.9c-2.3,0.1-3.2,2.1-2.9,4.5c0.1,1.2,0.2,1.8,0.3,3c5,5.4,7.5,8.2,12.3,13.7
			c0.1,2.2,0.2,3.3,0.3,5.5c2.6-0.1,3.9-0.2,6.5-0.3c4.2,4.9,6.3,7.4,10.4,12.4c0.3,9.9,0.5,19.7,0.8,29.6
			c-18,0.6-35.9,1.7-53.9,3.3c-3.5-3.8-5.3-5.7-8.9-9.4c-0.5-4.5-0.7-6.7-1.2-11.2c1.9-0.5,2.9-0.7,4.8-1.2c2.3-0.7,2.9-4.2,2.5-8.5
			c-1.3-13.8-2.6-27.7-3.9-41.5C213.8,174.2,211.7,172.7,209.1,172.7z M246.3,200.7c-0.2-3.5-0.3-5.2-0.5-8.7
			c-5.2,0.3-7.8,0.5-13,0.9c-0.5-6.3-0.7-9.5-1.2-15.8c-0.4-5.6,1.4-8.7,8.3-9.2c6.4-0.4,12,4.1,12.5,13.2c0.1,2.1,0.2,3.1,0.3,5.1
			c3.3-0.2,5-0.2,8.3-0.4c-0.4-10.6-0.7-16-1.1-26.6c-17.9,0.9-35.7,2.1-53.6,3.8c0.3,2.8,0.4,4.2,0.7,6.9c1.8,0.1,2.6,0.1,4.4,0.2
			c2.7,0.2,4.7,3.6,5.2,9.3c1.3,14,2.6,28.1,3.9,42.1c0.5,5.6-0.2,9.3-3.1,10.1c-1.6,0.4-2.4,0.6-4,1c0.3,2.8,0.4,4.2,0.7,6.9
			c16.3-1.7,32.6-2.8,49-3.5c-0.5-11-0.7-16.6-1.1-27.6c-3.2,0.1-4.9,0.2-8.1,0.4c0.1,2.4,0.2,3.6,0.3,6c0.4,7.6-1.4,13.9-10.2,14.4
			c-6.4,0.4-8.6-3-8.9-7.8c-0.6-8-0.9-12-1.5-20C238.6,201.2,241.1,201,246.3,200.7z M257.6,161.5c0.4,9,0.6,13.5,1,22.5
			c-1.5,0.1-2.2,0.1-3.7,0.2c-0.1-1.2-0.1-1.8-0.1-3.1c-0.6-12.7-8.9-15.6-15-15.2c-9.1,0.6-11,6.2-10.6,11.4
			c0.6,7.2,0.8,10.8,1.4,18c5.2-0.4,7.9-0.6,13.1-0.9c0.1,1.2,0.1,1.8,0.2,2.9c-3.1-0.8-7.2,0.6-9,0.7c-1.9,0.2-8.7,0.1-8.9,0.6
			c-0.1,0.4,4.4,4.7,4.6,5.6c0.5,1.8-2.6,20.3-2.6,20.3s-6.1-17.9-5.9-19.6c0.1-1.1,3.7-5.9,3.5-6.3c-0.3-0.6-3.7-0.7-4.8,0.4
			c-0.7-7.9-1.1-11.8-1.8-19.7c-0.8-9.2-3.9-11.3-6.4-11.6c-1.4-0.1-2.1-0.1-3.6-0.1c-0.1-1.1-0.2-1.6-0.3-2.7
			C225,163.4,241.3,162.2,257.6,161.5z M225.9,198.5c0.4-4.3,3.3-8,3.4-8.9c0-1.3-5.6-16.1-5.6-16.1s-3.2,15.8-3,16.8
			c0.2,0.9,3.8,4,4.8,8.2C225.7,198.5,225.8,198.5,225.9,198.5z M246.5,221.5c0.1,2,0.7,3.7,2,3.7c1.5-0.1,3.8-3.1,3.4-10.3
			c0-0.8-0.1-1.2-0.1-2c-2.3,0.1-3.5,0.2-5.8,0.3C246.2,216.6,246.3,218.2,246.5,221.5z"/>
		<path class="st6" d="M283.2,176c-0.1-5.6-2-7.3-4.6-7.5c-1.7-0.3-2.6-0.4-4.3-0.6c-0.1-4.5-0.2-6.7-0.3-11.2
			c12.6-0.3,25.3-0.4,37.9-0.2c4,4.9,5.9,7.3,9.8,12.2c-0.1,3.9-0.2,5.8-0.3,9.6c-1.7,0.2-2.5,0.3-4.2,0.5c-2.4,0.2-4.6,2.7-4.7,9.3
			c-0.2,13.4-0.5,26.9-0.7,40.3c3.2,4.2,4.8,6.3,7.9,10.6c-0.1,3.7-0.2,5.6-0.3,9.3c-11.8-0.3-23.5-0.4-35.3-0.2
			c-3.2-4.1-4.8-6.1-8.1-10.1c-0.1-4.5-0.2-6.7-0.3-11.2c2-0.3,2.9-0.5,4.9-0.8c2.4-0.5,3.2-4,3.2-8.2
			C283.6,203.8,283.4,189.9,283.2,176z M286,218.2c0.1,5.6-0.9,9.2-3.9,9.8c-1.6,0.3-2.4,0.4-4,0.7c0.1,2.8,0.1,4.2,0.2,7
			c10.1-0.2,20.1-0.3,30.2-0.1c0-2.8,0.1-4.2,0.1-7c-1.6-0.3-2.4-0.4-4-0.7c-3.1-0.6-4.1-4.2-4.1-9.8c0.1-14.1,0.1-28.2,0.2-42.3
			c0-5.7,1.7-9.3,4.4-9.7c1.7-0.2,2.6-0.3,4.3-0.6c0-2.8,0.1-4.2,0.1-7c-11-0.1-21.9,0-32.9,0.2c0.1,2.8,0.1,4.2,0.2,7
			c1.7,0.2,2.6,0.3,4.3,0.5c2.7,0.4,4.4,4,4.5,9.7C285.6,190.1,285.8,204.2,286,218.2z M298.1,195.7c-1.3-1-4.7-0.5-4.8,0
			c-0.2,0.5,4,5,4.2,6c0.3,1.8-4.2,20-4.2,20s-4.7-18.3-4.4-20c0.2-1.1,4.2-5.6,4-6c-0.2-0.6-3.5-1-4.8,0
			c-0.1-7.9-0.1-11.9-0.2-19.8c-0.1-9.3-3-11.6-5.4-12c-1.4-0.2-2.1-0.3-3.5-0.4c0-1.1,0-1.6-0.1-2.7c9.4-0.2,18.8-0.2,28.2-0.1
			c0,1.1,0,1.6,0,2.7c-1.4,0.2-2.1,0.3-3.5,0.5c-2.4,0.5-5.3,2.8-5.3,12.1C298.2,183.8,298.2,187.8,298.1,195.7z M293.3,195.6
			c0.8-4.3,4.1-7.7,4.2-8.6c0.1-1.2-4.4-16.5-4.4-16.5s-4.4,15.5-4.3,16.5c0.1,0.9,3.5,4.3,4.1,8.5
			C293.1,195.6,293.1,195.6,293.3,195.6z"/>
		<path class="st6" d="M329.5,176.5c0.2-5.6-1.6-7.4-4.2-7.7c-1.7-0.3-2.6-0.5-4.3-0.9c0.1-4.5,0.2-6.7,0.3-11.2
			c14.1,0.5,28.2,1.2,42.3,2.1c19.2,1.2,35.1,18,33.1,37.4c-0.8,7.8-5.7,13.2-11.4,15.6c3.6,0.4,5.3,0.6,8.9,1
			c3.4,5.2,5.1,7.8,8.4,13c-0.4,2.9-0.5,4.3-0.9,7.2c-0.8,10.2-6.4,21.3-18.2,19.8c-6.7-0.9-13.9-6-17.6-15.7
			c-3.1-8-2.6-19-3.3-21.5c-2.4-0.2-3.6-0.3-6-0.4c-0.4,5.7-0.6,8.6-1,14.3c3.2,4.4,4.7,6.6,7.8,11c-0.3,4.1-0.5,6.2-0.8,10.4
			c-11.9-1-23.8-1.7-35.7-2.1c-3-4.2-4.5-6.3-7.6-10.5c0.1-4.5,0.2-6.7,0.3-11.2c2-0.2,3-0.4,4.9-0.6c2.4-0.4,3.4-3.8,3.6-8.1
			C328.5,204.2,329,190.4,329.5,176.5z M357.6,204.2c6,0.4,7.4,8.3,7.6,15.4c0.5,14.9,3.8,19.9,12.7,20.8c7.3,0.7,12.5-3.1,14.5-20
			c0.3-2.2,0.4-3.4,0.6-5.6c-3-0.3-4.5-0.5-7.4-0.8c-0.2,2.2-0.4,3.4-0.6,5.6c-0.3,2.7-1.2,6.6-3.1,6.4c-2-0.2-2.2-3.6-2.2-10.5
			c0-6.7-1.2-11.5-5.4-15c0-0.1,0-0.1,0-0.2c5.2-2.1,10.2-7.3,11.3-16.8c1.7-14.1-10.7-22.1-23.5-22.5c-12.8-0.9-25.6-1.6-38.5-2
			c-0.1,2.8-0.1,4.2-0.2,7c1.7,0.3,2.6,0.4,4.3,0.7c2.7,0.6,4.2,4.2,3.9,9.9c-0.6,14.1-1.1,28.2-1.7,42.2c-0.2,5.6-1.4,9.1-4.4,9.6
			c-1.6,0.2-2.4,0.3-4,0.5c-0.1,2.8-0.1,4.2-0.2,7c10.3,0.3,20.5,0.8,30.8,1.5c0.2-2.8,0.3-4.2,0.5-6.9c-1.1-0.2-1.7-0.3-2.9-0.6
			c-4.5-0.8-5.7-4.7-5.3-10.4c0.4-6.4,0.5-9.7,0.9-16.1C350.3,203.7,352.7,203.8,357.6,204.2z M361.9,163c11.7,0.4,23.2,7,21.6,20.2
			c-1.1,8.5-8.6,16.4-11,15.8c-0.6-0.1-5.2-0.4-5.2-0.4c-0.1,0.4,4.9,4,6.1,6.5c1.5,3.3,0.1,20.1,0.1,20.1s-8.4-19.2-8.5-20.8
			c-0.1-0.8,2.4-4.9,1.8-5.9s-4.5-0.3-6.1-0.5c-1.6-0.1-5.6-0.4-7.2-0.5c-1.7-0.1-5.9-0.4-7.6-0.5s-7.1-0.9-7.3-0.4
			c-0.2,0.4,3.8,5.2,3.9,6.2c0.2,1.9-5.4,19.8-5.4,19.8s-3.5-18.3-3.1-20.2c0.2-1.1,4.2-5.4,4.1-5.8c-0.2-0.7-3.4-1.1-4.6-0.2
			c0.3-7.9,0.5-11.9,0.8-19.8c0.4-9.3-2.4-11.7-4.8-12.3c-1.4-0.2-2.1-0.4-3.5-0.6c0-1.1,0.1-1.6,0.1-2.7
			C338,161.5,349.9,162.1,361.9,163z M338.5,196.6c0.9-4.2,4.5-7.5,4.6-8.3c0.2-1.2-3.7-16.7-3.7-16.7s-4.9,15.1-4.9,16.3
			c0,0.9,3,4.4,3.4,8.7C338.1,196.5,338.2,196.5,338.5,196.6z M352.1,168.8c-5.5-0.3-7.3,2.5-7.7,9c-0.3,6.4-0.5,9.7-0.9,16.1
			c6.4,0.3,9.6,0.5,16,1c4.9,0.4,11.7-3,12.5-11.6c0.7-8.2-3.6-13.3-10.9-13.9C357.5,169.1,355.7,169,352.1,168.8z M361.4,171.5
			c4.4,0.3,8.9,3.9,8.3,11.6c-0.5,6.6-5.5,10-9.8,9.7c-5.5-0.4-8.3-0.6-13.8-0.9c0.3-5.6,0.5-8.3,0.8-13.9c0.3-5.9,2.2-7.2,5-7
			C355.7,171.1,357.6,171.2,361.4,171.5z M361.2,184c-1.5-0.1-2.6,1.2-2.8,3.6c-0.1,1.2-0.1,1.8-0.2,3c0.9,0.1,1.3,0.1,2.2,0.2
			c2.2,0.2,5.6-1.9,5.8-4.2c0.1-1.2-0.9-2.3-1.9-2.4C363,184.1,362.4,184.1,361.2,184z M367.2,198.4c4.5-2.3,11.1-4.8,12.6-7.5
			c1.1-1.9-3.3-16.9-3.3-16.9s-2.8,13.8-3.9,15.7c-1.1,1.8-3.2,6.6-5.9,8.6C366.9,198.4,367,198.4,367.2,198.4z"/>
		<path class="st6" d="M417.8,184.2c0.8-5.6-0.9-7.5-3.4-8.1c-1.7-0.5-2.5-0.8-4.2-1.3c0.6-4.5,0.9-6.7,1.4-11.1
			c14,1.9,28,4,41.9,6.4c26.3,4.8,33.2,35.9,28.1,58.2c-3.8,16.8-19.8,35.8-38.9,33c-11.6-2.1-23.3-4-35.1-5.6
			c-2.6-4.5-3.9-6.7-6.5-11.2c0.6-4.5,0.9-6.7,1.4-11.2c2,0,3-0.1,5-0.1c2.4-0.2,3.8-3.4,4.4-7.7C413.9,211.7,415.8,198,417.8,184.2
			z M414.1,226.4c-0.8,5.6-2.3,8.9-5.4,9.1c-1.6,0-2.5,0-4.1,0.1c-0.4,2.8-0.5,4.1-0.9,6.9c10.2,1.3,20.4,2.9,30.6,4.6
			c19.2,3.2,34.2-13.9,37.9-31.1c3.9-17.9,1.5-40.5-20.2-44c-12.7-2.2-25.4-4.2-38.2-5.9c-0.4,2.8-0.5,4.1-0.9,6.9
			c1.7,0.5,2.5,0.7,4.2,1.2c2.6,0.9,3.7,4.6,2.9,10.3C418,198.5,416.1,212.4,414.1,226.4z M422.4,184.9c1.3-9.2-1.2-11.9-3.5-12.7
			c-1.4-0.4-2.1-0.6-3.4-1c0.1-1.1,0.2-1.6,0.4-2.7c12,1.6,24,3.5,35.9,5.6c20,2.9,18.7,39.2,18.6,39.2c-0.3,0.1-6.1-1.4-6.2-1.3
			c-0.2,0.4,2.6,5,2.4,6.6c-0.6,5.4-14.4,17.6-14.4,17.6c-0.1-0.1,4.8-17.2,5.9-19.3c0.5-0.9,5.7-4.3,5.5-5
			c-0.3-0.9-5.9-1.2-5.9-1.2c-0.8-0.7,6.3-30.1-7.9-32.5c-3.5-0.6-5.3-0.9-8.9-1.5c-5.4-0.9-7.4,4.1-8.3,10.2
			c-1.2,7.6-1.8,11.4-3,19c-1.4-1.2-4.7-1.3-4.9-0.8c-0.3,0.5,3.1,5.5,3.1,6.5c0,1.9-7.1,19.2-7.1,19.2s-1.7-18.6-1.2-20.4
			c0.4-1.1,4.8-4.9,4.8-5.4c-0.1-0.6-3.4-1.5-4.7-0.7C420.7,196.6,421.3,192.7,422.4,184.9z M424.7,205.1c1.5-4.1,5.1-6.9,5.3-7.8
			c0.4-1.3-1.7-17-1.7-17c-0.1,0-6.6,14.4-6.6,15.7c0,1,2.5,4.7,2.7,9C424.4,205.1,424.5,205.1,424.7,205.1z M450,180.5
			c11.2,4.2,6.8,22.1,5,30.8c-1.8,8.9-6.4,27.4-18.4,27.2c-2.3-0.4-3.4-0.6-5.7-1c-2.6-0.4-3.4-3.5-2.5-9.1
			c2.2-13.7,4.4-27.4,6.5-41.2c0.9-5.6,1.7-9.1,6-8.4C444.6,179.6,446.4,179.9,450,180.5z M450,193.2c-2-0.4-3.9,1.5-4.5,5
			c-2,11.5-4,23-6,34.6c-0.2,1.1,0.1,2.3,1.4,2.5c1.5,0.3,9.4-10.1,12-24.3c2.3-12.3,2.2-16.9,0.2-17.2
			C451.8,193.5,451.2,193.4,450,193.2z M464.2,212c1.9-2.2,4.9-5.6,5.3-7.7c0.5-2.4-4.6-17.7-4.6-17.7c-0.1,0-3.9,15-4,16
			s2.9,6.4,2.8,9.3C463.8,211.9,463.9,211.9,464.2,212z"/>
	</g>
</g>
<g>
	<g>
		<g>
			<path class="st2" d="M145.7,419.3c5.6,7.1,8.4,10.6,14.2,17.6c-0.9-0.1-1.4-0.2-2.4-0.4c-5-6-7.4-9.1-12.2-15.2
				C145.5,420.5,145.6,420.1,145.7,419.3z M145,423.2c4.1,5.2,6.2,7.8,10.4,13c-0.9-0.1-1.4-0.2-2.4-0.4c-3.4-4.2-5.1-6.3-8.4-10.5
				C144.8,424.5,144.9,424.1,145,423.2z M144.4,427.2c2.6,3.3,4,5,6.7,8.3c-0.9-0.2-1.4-0.2-2.4-0.4c-1.9-2.3-2.8-3.5-4.7-5.8
				C144.1,428.4,144.2,428,144.4,427.2z M143.7,431.2c1.1,1.4,1.7,2.2,2.9,3.6c-0.9-0.2-1.4-0.2-2.4-0.4c-0.4-0.4-0.5-0.7-0.9-1.1
				C143.5,432.4,143.5,432,143.7,431.2z M148.8,418.3c6,7.7,9.1,11.5,15.5,19.1c-0.5,0-0.8,0-1.2-0.1s-0.7-0.1-1.1-0.2
				c-6.4-7.6-9.5-11.5-15.6-19.2C147.4,418.1,147.9,418.2,148.8,418.3z M153.1,419.1c5.9,7.4,8.9,11,15,18.3c-0.8,0-1.2,0-2,0.1
				c-6.3-7.4-9.3-11.2-15.3-18.7C151.8,418.8,152.2,418.9,153.1,419.1z M157.4,419.7c5.5,6.9,8.4,10.3,14.2,17.1
				c-0.3,0.1-0.6,0.2-0.8,0.2c-0.3,0-0.6,0.1-1,0.2c-6-7.1-9-10.7-14.7-17.9C156,419.5,156.5,419.6,157.4,419.7z M161.7,420.4
				c5.1,6.3,7.8,9.4,13.1,15.6c-0.7,0.2-1,0.3-1.7,0.5c-5.6-6.5-8.4-9.8-13.8-16.4C160.4,420.2,160.8,420.3,161.7,420.4z
				 M163.9,420.7c0.4,0.1,1.1,0.1,2,0.1c4.7,5.7,7.1,8.5,11.9,14.1c-0.3,0.1-0.6,0.2-0.8,0.4c-0.3,0.1-0.5,0.3-0.7,0.4
				c-5.1-5.9-7.6-8.9-12.5-14.9C163.9,420.7,163.9,420.7,163.9,420.7z M167.5,420.5c0.5,0,1.1-0.2,1.6-0.5
				c4.5,5.4,6.7,8.1,11.4,13.5c-0.4,0.1-0.8,0.4-1.4,0.8C174.4,428.8,172.1,426.1,167.5,420.5z M170.4,419.4c0.6-0.4,1-0.7,1.2-1
				c4.5,5.4,6.8,8.1,11.4,13.4c-0.5,0.4-0.8,0.5-1.3,0.9C177.1,427.4,174.8,424.8,170.4,419.4z M172.5,417.4c0.3-0.5,0.6-1,0.8-1.4
				c4.7,5.6,7,8.3,11.8,13.8c-0.2,0.2-0.4,0.4-0.6,0.6c-0.2,0.2-0.4,0.3-0.6,0.5C179.3,425.5,177,422.8,172.5,417.4z M176,409.9
				c5.1,6.1,7.6,9.1,12.9,15.1c-0.2,0.4-0.5,0.9-1,1.4c-5.5-6.3-8.2-9.5-13.5-15.9c0-0.3,0.1-0.5,0.1-0.8
				C175.2,409.8,175.5,409.8,176,409.9z M174.3,412.4c5.1,6.1,7.7,9.1,12.9,15.1c-0.2,0.2-0.4,0.4-0.5,0.7c-0.2,0.2-0.3,0.4-0.5,0.7
				c-4.9-5.7-7.4-8.6-12.1-14.4c0-0.2,0-0.4,0.1-0.6C174.1,413.3,174.2,413,174.3,412.4z M180.3,410.5c3.9,4.7,5.9,7,10,11.7
				c-0.2,0.6-0.5,1.1-0.7,1.6c-4.7-5.4-7-8.1-11.6-13.6C179,410.3,179.4,410.4,180.3,410.5z M184.6,411c2.7,3.2,4.1,4.8,6.8,8
				c-0.2,0.7-0.4,1-0.6,1.7c-3.4-4-5.2-6-8.5-10C183.3,410.9,183.7,410.9,184.6,411z M189,411.6c1.2,1.4,1.8,2.1,3.1,3.6
				c0,0.4-0.1,0.6-0.1,0.9c-0.1,0.5-0.1,0.7-0.1,1.2c-2.1-2.4-3.1-3.6-5.1-6C187.6,411.4,188,411.4,189,411.6z M192.4,411.9
				c-0.1,0.5-0.1,0.8-0.1,1.3c-0.5-0.6-0.8-0.9-1.2-1.5C191.5,411.9,191.8,411.9,192.4,411.9z"/>
			<path class="st2" d="M209.9,384.2c0-0.4,0.1-0.7,0.1-1s0.1-0.6,0.2-1c6.2,7.2,9.3,10.8,15.8,17.8c-0.1,0.8-0.1,1.3-0.2,2.1
				C219.3,395,216.1,391.4,209.9,384.2z M209.7,386.1c6.2,7.2,9.4,10.8,16,17.9c-0.1,0.8-0.1,1.3-0.2,2.1c-6.6-7.1-9.8-10.7-16.1-18
				C209.6,387.3,209.6,386.9,209.7,386.1z M209.3,390.1c6.3,7.2,9.5,10.8,16.1,18c-0.1,0.8-0.1,1.3-0.2,2.1
				c-6.6-7.1-9.8-10.7-16.1-18C209.2,391.3,209.3,390.9,209.3,390.1z M209,393.9c6.3,7.3,9.6,10.8,16.2,18c-0.1,0.8-0.1,1.3-0.2,2.1
				c-6.6-7.1-9.9-10.7-16.2-18C208.9,395.2,208.9,394.8,209,393.9z M208.6,397.9c6.4,7.3,9.6,10.8,16.3,18c-0.1,0.8-0.1,1.3-0.2,2.1
				c-6.7-7.1-10-10.7-16.3-18C208.5,399.2,208.5,398.8,208.6,397.9z M208.2,401.9c6.1,6.9,9.2,10.3,15.5,17.1
				c-0.9-0.1-1.4-0.1-2.3-0.2c-5.5-5.9-8.2-8.8-13.4-14.8C208.1,403.2,208.1,402.8,208.2,401.9z M207.8,406
				c4.5,5.1,6.9,7.7,11.6,12.8c-0.9-0.1-1.4-0.1-2.3-0.2c-3.8-4.2-5.7-6.2-9.5-10.5C207.7,407.2,207.8,406.8,207.8,406z M207.5,410
				c3,3.4,4.5,5.1,7.6,8.4c-0.9-0.1-1.4-0.1-2.3-0.2c-2.2-2.4-3.3-3.6-5.5-6.1C207.3,411.2,207.4,410.8,207.5,410z M207.1,414
				c1.4,1.6,2.2,2.4,3.6,4c-0.9-0.1-1.4-0.1-2.3-0.2c-0.6-0.7-0.9-1-1.5-1.7C207,415.2,207,414.8,207.1,414z M211.1,378.8
				c5.9,6.9,9,10.4,15.2,17.2c-0.1,0.8-0.1,1.3-0.2,2.1c-6.4-7-9.5-10.5-15.5-17.5C210.8,379.9,210.9,379.5,211.1,378.8z
				 M211.6,377.4c0.2-0.3,0.3-0.6,0.4-0.8c0.1-0.2,0.2-0.5,0.4-0.8c5.6,6.5,8.4,9.7,14.2,16.1c-0.1,0.8-0.1,1.3-0.2,2.1
				C220.4,387.5,217.4,384.2,211.6,377.4z M214,373.3c5.1,5.9,7.6,8.9,12.9,14.7c-0.1,0.8-0.1,1.3-0.2,2.1
				c-5.6-6.1-8.3-9.2-13.6-15.5C213.5,374.1,213.6,373.8,214,373.3z M214.8,372.2c0.2-0.4,0.5-0.8,1-1.2c4.6,5.3,6.9,8,11.6,13.3
				c-0.2,0.8-0.3,1.4-0.4,1.9v0.1C222,380.6,219.6,377.8,214.8,372.2z M216.6,369.9c0.2-0.1,0.4-0.3,0.6-0.5
				c0.2-0.2,0.4-0.4,0.6-0.5c4.3,5.1,6.6,7.7,11.1,12.7c-0.2,0.1-0.3,0.3-0.5,0.6c-0.1,0.2-0.3,0.5-0.4,0.7
				C223.3,377.7,221.1,375.1,216.6,369.9z M219.8,367c4.4,5.1,6.6,7.7,11.2,12.7c-0.3,0.1-0.8,0.4-1.3,0.9c-4.5-5-6.7-7.5-11.1-12.6
				C219.1,367.6,219.4,367.4,219.8,367z M221,366.3c0.2-0.1,0.4-0.3,0.6-0.4c0.3-0.1,0.5-0.3,0.6-0.4c4.6,5.3,6.9,7.9,11.6,13.2
				c-0.7,0.1-1.3,0.3-1.6,0.5C227.7,374,225.4,371.4,221,366.3z M223.5,364.8c0.3-0.2,0.7-0.5,1.4-0.7c5,5.8,7.6,8.7,12.8,14.4
				c-0.6,0-0.9-0.1-1.6-0.1c-0.2,0-0.4,0-0.6,0C230.6,373,228.2,370.3,223.5,364.8z M226.1,363.6c0.2-0.1,0.5-0.2,0.8-0.3
				c0.3-0.1,0.5-0.2,0.8-0.3c5.5,6.3,8.3,9.5,14.1,15.7c-0.9,0-1.3-0.1-2.2-0.1C234.1,372.6,231.4,369.6,226.1,363.6z M229.1,362.6
				c0.3-0.1,0.6-0.2,0.9-0.2c0.3,0,0.5-0.1,0.8-0.1c5.9,6.7,8.9,10,15.1,16.6c-0.9,0-1.3-0.1-2.2-0.1
				C237.7,372.4,234.8,369.1,229.1,362.6z M232.3,362c0.3-0.1,0.6-0.1,0.9-0.1c0.3,0,0.6-0.1,1-0.1c6.1,7,9.3,10.4,15.7,17.3
				c-0.9,0-1.3-0.1-2.2-0.1C241.4,372.3,238.4,368.9,232.3,362z M253.1,379.2c-0.5,0-0.7,0-1.2,0c-6.5-6.9-9.7-10.4-16-17.4
				c0.5,0,0.7,0,1.2,0.1c0.4,0,0.6,0,1,0.1c5.9,6.6,8.9,9.9,15.1,16.4C253.1,378.6,253.1,378.8,253.1,379.2z M253.2,376.4
				c-5.4-5.7-8.1-8.6-13.3-14.4c0.9,0,1.3,0.1,2.1,0.1c4.4,4.9,6.6,7.3,11.2,12.1C253.3,375.1,253.2,375.5,253.2,376.4z
				 M253.4,372.4c-3.8-4-5.7-6.1-9.4-10.1c0.9,0,1.3,0.1,2.1,0.1c2.9,3.2,4.4,4.8,7.3,7.9C253.4,371.1,253.4,371.5,253.4,372.4z
				 M253.5,368.3c-2.2-2.4-3.3-3.5-5.5-5.9c0.9,0,1.3,0.1,2.1,0.1c1.4,1.5,2.1,2.2,3.4,3.7C253.6,367.1,253.5,367.5,253.5,368.3z
				 M253.7,364.3c-0.6-0.7-1-1-1.6-1.7c0.7,0,1,0,1.7,0.1C253.7,363.3,253.7,363.7,253.7,364.3z M251.4,428.9
				c5.5,5.4,8.2,8,13.9,13.3c-0.6,0.3-1,0.4-1.6,0.7c-5.1-4.7-7.6-7.1-12.5-12c0-0.8,0-1.2,0.1-2
				C251.3,428.9,251.3,428.9,251.4,428.9z M251.1,432.7c4.4,4.3,6.7,6.5,11.2,10.8c-0.3,0.2-0.5,0.2-0.8,0.3c-0.3,0-0.6,0.1-0.9,0.3
				c-3.9-3.6-5.8-5.5-9.6-9.2C251,434,251,433.6,251.1,432.7z M250.9,436.8c3.2,3.1,4.9,4.6,8.2,7.7c-0.4,0.1-1.1,0.3-2,0.4
				c-2.5-2.4-3.8-3.6-6.3-6C250.9,438,250.9,437.6,250.9,436.8z M250.8,440.7c1.8,1.8,2.7,2.7,4.6,4.5c-0.4,0.1-0.7,0.1-1,0.1
				s-0.6,0-1,0.1c-1.1-1-1.6-1.5-2.7-2.6C250.7,441.9,250.7,441.5,250.8,440.7z M250.6,444.7c0.3,0.3,0.5,0.4,0.8,0.7
				c-0.3,0-0.5,0-0.8,0C250.6,445.1,250.6,445,250.6,444.7z M253.2,428.7c0.7-0.1,1.3-0.3,1.8-0.4c5.1,4.9,7.6,7.4,12.9,12.3
				c-0.3,0.2-0.5,0.3-0.7,0.5s-0.5,0.3-0.7,0.5C261,436.4,258.4,433.8,253.2,428.7z M256.3,427.6c0.5-0.3,1-0.6,1.3-0.9
				c5,4.8,7.5,7.2,12.6,12c-0.5,0.5-1,0.8-1.3,1C263.8,434.9,261.3,432.5,256.3,427.6z M258.6,425.8c0.3-0.3,0.6-0.8,0.9-1.4
				c5.1,4.9,7.6,7.4,12.9,12.2c-0.2,0.2-0.4,0.5-0.5,0.6c-0.2,0.2-0.4,0.4-0.5,0.5C266.1,433,263.6,430.6,258.6,425.8z M260.1,423.1
				c0.3-0.5,0.4-1.2,0.4-1.9c5.4,5.3,8.2,7.9,13.7,13c-0.2,0.2-0.3,0.5-0.5,0.7c-0.1,0.2-0.3,0.4-0.5,0.6
				C267.9,430.6,265.3,428.1,260.1,423.1z M260.9,405.3c6.9,6.8,10.4,10.2,17.5,16.8c0,0.4,0,0.7-0.1,1c0,0.3-0.1,0.6-0.2,1
				c-7.1-6.6-10.5-9.9-17.3-16.7C260.9,406.5,260.9,406.1,260.9,405.3z M260.8,409.3c6.7,6.6,10.1,9.9,17.1,16.4
				c-0.2,0.7-0.2,1.1-0.4,1.8c-6.8-6.3-10.2-9.5-16.8-16C260.8,410.6,260.8,410.1,260.8,409.3z M260.7,413.3
				c6.4,6.3,9.7,9.4,16.4,15.5c-0.2,0.3-0.3,0.6-0.4,0.8c-0.1,0.2-0.2,0.5-0.3,0.8c-6.4-6-9.6-9-15.8-15
				C260.7,414.6,260.7,414.1,260.7,413.3z M260.6,417.3c6,5.8,9,8.7,15.2,14.4c-0.4,0.6-0.6,1.1-0.8,1.3c-5.9-5.4-8.8-8.1-14.5-13.6
				C260.6,418.6,260.6,418.2,260.6,417.3z M264.2,404.4c5.6,5.5,8.5,8.3,14.3,13.7c0,0.9,0,1.3,0,2.1c-6.7-6.3-10-9.4-16.5-15.9
				C262.9,404.4,263.3,404.4,264.2,404.4z M268.4,404.5c4,3.9,6,5.8,10.1,9.7c0,0.9,0,1.3,0,2.1c-5-4.7-7.5-7.1-12.4-11.9
				C267,404.5,267.5,404.5,268.4,404.5z M272.6,404.5c2.3,2.2,3.5,3.4,5.9,5.6c0,0.9,0,1.3,0,2.1c-3.3-3.1-4.9-4.6-8.1-7.8
				C271.3,404.5,271.7,404.5,272.6,404.5z M278.5,406.1c0,0.9,0,1.3,0,2.1c-1.6-1.5-2.3-2.2-3.9-3.7c0.9,0,1.4,0,2.3,0
				C277.5,405.2,277.9,405.5,278.5,406.1z"/>
			<path class="st2" d="M293.6,387.5c0-0.4,0-0.7,0-1s0-0.6,0.1-1c6.9,6.5,10.4,9.7,17.7,16c0,0.9,0,1.3,0.1,2.1
				C304.1,397.2,300.6,394,293.6,387.5z M293.6,389.4c7,6.5,10.6,9.7,17.9,16.1c0,0.9,0,1.3,0.1,2.1c-7.3-6.3-10.9-9.6-17.9-16.1
				C293.6,390.6,293.6,390.2,293.6,389.4z M293.7,393.4c7,6.5,10.6,9.7,18,16.1c0,0.9,0,1.3,0.1,2.1c-7.4-6.3-11-9.6-18-16.1
				C293.7,394.7,293.7,394.2,293.7,393.4z M293.7,397.3c7.1,6.5,10.7,9.7,18,16.1c0,0.9,0,1.3,0.1,2.1c-7.4-6.3-11-9.6-18.1-16.1
				C293.7,398.6,293.7,398.1,293.7,397.3z M293.8,401.3c7.1,6.5,10.7,9.7,18.1,16.1c0,0.9,0,1.3,0.1,2.1
				c-7.4-6.3-11.1-9.6-18.2-16.1C293.8,402.6,293.8,402.1,293.8,401.3z M293.9,405.3c6.8,6.2,10.2,9.2,17.3,15.3
				c-0.9,0-1.4,0.1-2.3,0.1c-6.1-5.2-9.1-7.9-15-13.2C293.9,406.6,293.9,406.2,293.9,405.3z M293.9,409.3c5.1,4.6,7.7,6.9,12.9,11.4
				c-0.9,0-1.4,0-2.3,0.1c-4.3-3.7-6.4-5.6-10.5-9.3C293.9,410.6,293.9,410.2,293.9,409.3z M294,413.4c3.4,3,5,4.5,8.5,7.5
				c-0.9,0-1.4,0-2.3,0.1c-2.5-2.2-3.7-3.3-6.1-5.4C294,414.6,294,414.2,294,413.4z M294,417.4c1.6,1.4,2.4,2.2,4,3.6
				c-0.9,0-1.4,0-2.3,0c-0.7-0.6-1-0.9-1.7-1.5C294.1,418.7,294.1,418.2,294,417.4z M294.2,382c6.6,6.2,10,9.3,16.9,15.4
				c0,0.9,0,1.3,0.1,2.1c-7.1-6.2-10.6-9.4-17.4-15.7C294,383.1,294.1,382.7,294.2,382z M294.6,380.6c0.2-0.3,0.3-0.6,0.3-0.8
				c0-0.2,0.1-0.5,0.3-0.8c6.2,5.8,9.4,8.7,15.9,14.5c0,0.9,0,1.3,0.1,2.1C304.3,389.6,301,386.6,294.6,380.6z M296.4,376.2
				c5.7,5.3,8.6,8,14.4,13.2c0,0.9,0.1,1.3,0.1,2.1c-6.2-5.5-9.2-8.3-15.2-13.9C296,377,296.1,376.7,296.4,376.2z M297.1,375
				c0.2-0.4,0.4-0.8,0.8-1.3c5.1,4.8,7.7,7.2,13,11.9c-0.1,0.8-0.2,1.4-0.2,1.9v0.1C305.2,382.6,302.5,380.1,297.1,375z
				 M298.6,372.6c0.2-0.2,0.3-0.4,0.5-0.6s0.4-0.4,0.5-0.6c4.9,4.6,7.4,6.9,12.4,11.4c-0.2,0.2-0.3,0.4-0.4,0.6s-0.2,0.5-0.3,0.7
				C306.2,379.6,303.7,377.2,298.6,372.6z M301.6,369.3c4.9,4.6,7.4,6.9,12.5,11.4c-0.3,0.2-0.7,0.5-1.2,1c-5-4.5-7.5-6.7-12.4-11.3
				C300.9,370,301.1,369.8,301.6,369.3z M302.6,368.5c0.2-0.2,0.4-0.3,0.6-0.5s0.4-0.3,0.6-0.5c5.1,4.8,7.7,7.1,13,11.8
				c-0.7,0.2-1.2,0.4-1.6,0.7C310.1,375.4,307.6,373.1,302.6,368.5z M305,366.7c0.2-0.2,0.7-0.5,1.3-0.9c5.6,5.2,8.5,7.8,14.3,12.9
				c-0.6,0-0.9,0-1.6,0.1c-0.2,0-0.4,0-0.6,0C312.9,374.1,310.2,371.6,305,366.7z M307.4,365.2c0.2-0.2,0.5-0.3,0.8-0.4
				s0.5-0.2,0.8-0.4c6.2,5.7,9.3,8.5,15.7,14.1c-0.9,0.1-1.3,0.1-2.2,0.1C316.3,373.3,313.3,370.7,307.4,365.2z M310.2,363.9
				c0.3-0.2,0.6-0.3,0.9-0.3c0.3-0.1,0.5-0.1,0.8-0.2c6.6,6,9.9,9,16.8,14.9c-0.9,0.1-1.3,0.1-2.2,0.1
				C319.9,372.7,316.6,369.8,310.2,363.9z M313.4,363c0.3-0.1,0.6-0.2,0.9-0.2c0.3-0.1,0.6-0.1,1-0.2c6.9,6.3,10.4,9.4,17.5,15.5
				c-0.9,0.1-1.3,0.1-2.2,0.1C323.6,372.2,320.1,369.1,313.4,363z M335.9,377.8c-0.5,0-0.7,0.1-1.2,0.1c-7.3-6.1-10.8-9.2-17.8-15.5
				c0.5,0,0.7,0,1.2-0.1c0.4,0,0.6,0,0.9,0c6.6,5.9,9.9,8.8,16.8,14.6C335.9,377.2,335.9,377.4,335.9,377.8z M335.7,374.9
				c-6-5.1-9-7.6-14.8-12.8c0.9,0,1.3-0.1,2.1-0.1c4.9,4.4,7.4,6.5,12.5,10.8C335.7,373.7,335.7,374.1,335.7,374.9z M335.5,370.9
				c-4.2-3.6-6.3-5.4-10.4-9c0.9-0.1,1.3-0.1,2.1-0.1c3.2,2.8,4.9,4.2,8.1,7C335.4,369.7,335.4,370.1,335.5,370.9z M335.2,366.9
				c-2.5-2.1-3.7-3.2-6.1-5.3c0.9-0.1,1.3-0.1,2.1-0.1c1.5,1.3,2.3,2,3.8,3.3C335.1,365.7,335.1,366.1,335.2,366.9z M334.9,362.9
				c-0.7-0.6-1.1-0.9-1.8-1.5c0.7,0,1-0.1,1.7-0.1C334.8,361.9,334.8,362.3,334.9,362.9z M339.7,427.3c6,4.7,9.1,7.1,15.3,11.7
				c-0.6,0.3-0.9,0.5-1.5,0.8c-5.6-4.2-8.3-6.3-13.7-10.5C339.7,428.5,339.7,428.1,339.7,427.3C339.6,427.3,339.6,427.3,339.7,427.3
				z M339.8,431.2c4.9,3.8,7.3,5.7,12.3,9.5c-0.2,0.2-0.5,0.3-0.8,0.4s-0.6,0.2-0.9,0.4c-4.2-3.2-6.4-4.8-10.5-8.1
				C339.9,432.5,339.9,432.1,339.8,431.2z M340.1,435.2c3.6,2.7,5.4,4.1,9,6.8c-0.4,0.2-1.1,0.4-1.9,0.6c-2.8-2.1-4.1-3.2-6.9-5.3
				C340.2,436.5,340.2,436.1,340.1,435.2z M340.4,439.1c2,1.6,3,2.4,5.1,4c-0.3,0.1-0.7,0.2-1,0.2s-0.6,0.1-1,0.2
				c-1.2-0.9-1.8-1.4-3-2.3C340.5,440.4,340.5,440,340.4,439.1z M340.7,443.1c0.3,0.3,0.5,0.4,0.8,0.6c-0.3,0-0.5,0-0.8,0.1
				C340.7,443.5,340.7,443.4,340.7,443.1z M341.5,426.9c0.7-0.2,1.3-0.4,1.8-0.6c5.6,4.4,8.4,6.5,14.2,10.8
				c-0.2,0.2-0.5,0.4-0.7,0.5c-0.2,0.2-0.4,0.4-0.7,0.5C350.1,433.7,347.2,431.5,341.5,426.9z M344.5,425.5c0.5-0.4,0.9-0.7,1.2-1
				c5.5,4.3,8.3,6.4,13.9,10.5c-0.5,0.5-0.9,0.9-1.2,1.2C352.7,432,350,429.8,344.5,425.5z M346.5,423.5c0.2-0.3,0.5-0.8,0.8-1.5
				c5.6,4.3,8.4,6.5,14.2,10.7c-0.2,0.3-0.3,0.5-0.5,0.7s-0.3,0.4-0.5,0.6C354.9,429.8,352,427.7,346.5,423.5z M347.7,420.6
				c0.2-0.6,0.3-1.2,0.2-1.9c6,4.6,9,6.9,15.1,11.4c-0.2,0.3-0.3,0.5-0.4,0.8c-0.1,0.2-0.2,0.5-0.4,0.6
				C356.4,427.2,353.4,425,347.7,420.6z M346.6,402.8c7.6,6,11.4,9,19.3,14.8c0,0.4,0.1,0.7,0,1c0,0.3,0,0.6-0.1,1
				c-7.8-5.8-11.6-8.7-19.1-14.7C346.7,404.1,346.7,403.7,346.6,402.8z M346.9,406.8c7.4,5.8,11.2,8.7,18.8,14.4
				c-0.1,0.7-0.1,1.1-0.2,1.8c-7.5-5.5-11.2-8.3-18.5-14C347,408.1,347,407.7,346.9,406.8z M347.3,410.8c7.1,5.5,10.7,8.3,18.1,13.6
				c-0.1,0.3-0.2,0.6-0.3,0.9c-0.1,0.2-0.1,0.5-0.2,0.9c-7.1-5.2-10.6-7.8-17.4-13.2C347.4,412.1,347.3,411.7,347.3,410.8z
				 M347.6,414.8c6.6,5.1,9.9,7.7,16.7,12.7c-0.3,0.7-0.5,1.1-0.6,1.4c-6.5-4.7-9.6-7.1-15.9-11.9
				C347.7,416.1,347.7,415.7,347.6,414.8z M349.8,401.6c6.2,4.9,9.3,7.3,15.7,12c0.1,0.8,0.1,1.3,0.2,2.1c-7.4-5.5-11-8.3-18.2-13.9
				C348.4,401.7,348.9,401.7,349.8,401.6z M353.9,401.2c4.4,3.4,6.6,5.1,11.2,8.5c0.1,0.8,0.1,1.3,0.2,2.1
				c-5.5-4.1-8.3-6.2-13.6-10.4C352.6,401.3,353,401.3,353.9,401.2z M358.2,400.8c2.6,2,3.9,3,6.5,4.9c0.1,0.8,0.1,1.3,0.2,2.1
				c-3.6-2.7-5.4-4.1-8.9-6.8C356.8,400.9,357.3,400.9,358.2,400.8z M364.2,401.7c0.1,0.8,0.1,1.3,0.2,2.1c-1.7-1.3-2.6-1.9-4.3-3.2
				c0.9-0.1,1.4-0.1,2.3-0.2C363.1,400.9,363.5,401.2,364.2,401.7z"/>
			<path class="st2" d="M372.9,357.5c0.6-0.1,0.9-0.1,1.4-0.2c7.5,5.7,11.3,8.5,19,14.1c-0.9,0.1-1.3,0.2-2.2,0.3
				c-7.4-5.3-11-8-18.1-13.5C372.9,357.9,372.9,357.8,372.9,357.5z M373.5,362.2c-0.1-0.8-0.2-1.3-0.3-2.1c6.3,4.8,9.5,7.2,16,11.9
				c-0.9,0.1-1.3,0.2-2.2,0.3C381.5,368.3,378.8,366.3,373.5,362.2z M374,366.2c-0.1-0.8-0.2-1.3-0.3-2.1c4.5,3.4,6.8,5.1,11.4,8.5
				c-0.9,0.1-1.3,0.2-2.2,0.3C379.3,370.2,377.5,368.9,374,366.2z M374.5,370.2c-0.1-0.8-0.2-1.3-0.3-2.1c2.7,2,4,3.1,6.8,5.1
				c-0.9,0.1-1.3,0.2-2.2,0.3C377.1,372.1,376.2,371.5,374.5,370.2z M374.9,373.9c-0.1-0.8-0.1-1.1-0.2-1.9c0.9,0.7,1.3,1,2.2,1.6
				C376.1,373.8,375.7,373.8,374.9,373.9z M376.2,357.1c0.9-0.1,1.3-0.2,2.1-0.3c7.5,5.7,11.3,8.5,19.1,14c-0.9,0.1-1.3,0.2-2.2,0.3
				C387.5,365.6,383.7,362.8,376.2,357.1z M380.1,356.6c0.9-0.1,1.3-0.2,2.1-0.3c7.5,5.6,11.3,8.4,19.1,13.9
				c-0.9,0.1-1.3,0.2-2.2,0.3C391.4,365,387.6,362.2,380.1,356.6z M384.1,356c0.8-0.1,1.3-0.2,2.1-0.3c7.6,5.6,11.4,8.4,19.2,13.8
				c-0.9,0.1-1.3,0.2-2.2,0.4C395.5,364.4,391.6,361.6,384.1,356z M388.1,355.4c0.8-0.1,1.3-0.2,2.1-0.3c7.2,5.3,10.9,7.9,18.3,13
				c0.1,0.3,0.1,0.5,0.1,0.8c-0.5,0.1-0.8,0.1-1.3,0.2C399.5,363.8,395.7,361,388.1,355.4z M392.1,354.8c0.8-0.1,1.3-0.2,2.1-0.3
				c5.4,3.9,8.1,5.8,13.6,9.6c0.1,0.8,0.2,1.3,0.4,2.1C401.7,361.7,398.5,359.5,392.1,354.8z M396.1,354.2c0.8-0.1,1.3-0.2,2.1-0.3
				c3.6,2.5,5.3,3.8,9,6.3c0.1,0.8,0.2,1.3,0.4,2.1C402.9,359.1,400.7,357.5,396.1,354.2z M400.1,353.6c0.8-0.1,1.3-0.2,2.1-0.3
				c1.7,1.2,2.6,1.8,4.3,3c0.1,0.8,0.2,1.3,0.4,2.1C404.2,356.4,402.8,355.5,400.1,353.6z M406.2,354.5c-0.9-0.6-1.3-0.9-2.2-1.5
				c0.8-0.1,1.1-0.2,1.9-0.3C406,353.3,406.1,353.7,406.2,354.5z M424.6,408.1c0.5-0.1,0.7-0.1,1.1-0.2c7.8,4.9,11.7,7.3,19.7,11.9
				c0.2,0.8,0.3,1.3,0.4,2.1c-8.6-5-12.8-7.5-21.1-12.8C424.7,408.8,424.7,408.5,424.6,408.1z M425.5,413c-0.2-0.8-0.2-1.3-0.4-2.1
				c8.3,5.2,12.5,7.8,21.1,12.7c0.2,0.8,0.3,1.2,0.4,2.1C438.1,420.8,433.8,418.2,425.5,413z M426.2,417c-0.2-0.8-0.2-1.3-0.4-2.1
				c8.4,5.2,12.6,7.7,21.2,12.7c0.1,0.6,0.2,0.8,0.3,1.4c-0.3,0.1-0.5,0.1-0.8,0.2C438.3,424.4,434.2,421.9,426.2,417z M426.9,420.9
				c-0.2-0.8-0.2-1.3-0.4-2.1c7.1,4.4,10.7,6.5,17.9,10.7c-0.9,0.2-1.4,0.3-2.3,0.5C436,426.5,432.9,424.6,426.9,420.9z
				 M427.7,424.9c-0.2-0.8-0.2-1.3-0.4-2.1c5.1,3.1,7.6,4.6,12.8,7.7c-0.9,0.2-1.4,0.3-2.3,0.5C433.6,428.5,431.6,427.3,427.7,424.9
				z M428.4,428.8c-0.2-0.8-0.2-1.3-0.4-2.1c3,1.9,4.5,2.8,7.6,4.6c-0.9,0.2-1.4,0.3-2.3,0.4C431.3,430.6,430.3,430,428.4,428.8z
				 M429.1,432.6c-0.1-0.7-0.2-1.1-0.3-1.9c1,0.6,1.5,0.9,2.4,1.5C430.3,432.3,429.9,432.4,429.1,432.6z M427.8,407.5
				c0.9-0.2,1.4-0.3,2.3-0.4c5.8,3.6,8.7,5.3,14.6,8.8c0.2,0.8,0.3,1.3,0.4,2.1C438,413.9,434.6,411.8,427.8,407.5z M432.1,406.7
				c0.9-0.2,1.4-0.3,2.3-0.4c3.8,2.3,5.7,3.4,9.5,5.7c0.2,0.8,0.3,1.3,0.4,2.1C439.3,411.2,436.9,409.7,432.1,406.7z M436.4,405.9
				c0.9-0.2,1.4-0.3,2.3-0.5c1.7,1,2.6,1.6,4.4,2.6c0.2,0.8,0.3,1.3,0.4,2.1C440.6,408.4,439.2,407.6,436.4,405.9z M440.7,405
				c0.7-0.1,1-0.2,1.6-0.3c0.1,0.6,0.2,0.9,0.3,1.5C441.8,405.7,441.4,405.5,440.7,405z"/>
		</g>
		<g>
			<path class="st2" d="M141.1,394.1c-8.1,5.2-12.2,7.8-20.6,12.8c0-0.4,0-0.8,0.1-1.1c0.1-0.3,0.1-0.7,0.2-1.1
				c0.1-0.3,0.1-0.4,0.1-0.7c8-4.8,12-7.3,19.8-12.3c0.3,0.1,0.4,0.1,0.7,0.1C141.3,392.7,141.2,393.2,141.1,394.1z M139.7,391.5
				c-7.3,4.7-11.1,7-18.6,11.5c0.2-1.2,0.4-1.7,0.6-2.9c6-3.6,9-5.5,14.9-9.2C137.9,391.2,138.5,391.3,139.7,391.5z M135.5,390.7
				c-5.4,3.4-8.1,5.1-13.6,8.4c0.2-1.2,0.4-1.7,0.6-2.9c4-2.4,6-3.6,9.9-6.1C133.7,390.4,134.3,390.5,135.5,390.7z M131.3,389.9
				c-3.4,2.1-5.1,3.2-8.6,5.3c0.2-1.2,0.4-1.7,0.6-2.9c2-1.2,2.9-1.8,4.9-3C129.5,389.5,130.1,389.7,131.3,389.9z M127.1,389.1
				c-1.4,0.9-2.1,1.3-3.5,2.2c0.2-1.1,0.3-1.7,0.6-2.8C125.3,388.7,125.9,388.8,127.1,389.1z M140.3,398c-7.9,5.1-11.8,7.5-20,12.4
				c-0.1-0.4-0.1-0.9-0.1-1.3s0.1-0.8,0.1-1.3c8.3-5,12.4-7.5,20.5-12.8C140.7,396.3,140.6,396.8,140.3,398z M139.6,402
				c-7.5,4.7-11.3,7.1-19,11.6c-0.1-0.4-0.1-0.8-0.2-1.2c0-0.4-0.1-0.8-0.2-1.2c8-4.8,12-7.2,19.8-12.2
				C139.9,400.2,139.8,400.8,139.6,402z M138.9,405.9c-6.9,4.3-10.3,6.4-17.4,10.6c-0.3-0.8-0.5-1.5-0.6-2.2
				c7.5-4.5,11.2-6.7,18.5-11.3C139.2,404.2,139.1,404.8,138.9,405.9z M138.5,408.1c-0.1,0.7-0.2,1.2-0.2,1.5
				c-6.2,3.9-9.3,5.8-15.6,9.6c-0.2-0.4-0.4-0.7-0.5-1c-0.2-0.3-0.3-0.6-0.4-1c6.9-4.1,10.2-6.1,16.9-10.3
				C138.6,407.4,138.6,407.7,138.5,408.1z M138.4,410.6c0.1,0.4,0.2,0.8,0.3,1.1c0.1,0.3,0.2,0.7,0.3,1.1c-5.9,3.7-8.9,5.5-15,9.1
				c-0.2-0.3-0.4-0.6-0.6-0.9s-0.3-0.6-0.5-1C129.2,416.3,132.3,414.4,138.4,410.6z M139.5,413.5c0.1,0.3,0.3,0.6,0.5,0.9
				s0.5,0.6,0.8,0.8c-5.9,3.7-8.9,5.5-14.9,9.1c-0.2-0.3-0.4-0.6-0.7-0.9c-0.3-0.3-0.5-0.6-0.7-0.9
				C130.5,419,133.5,417.2,139.5,413.5z M141.3,415.7c0.4,0.2,0.7,0.5,1,0.7s0.6,0.4,1,0.7c-6.1,3.9-9.1,5.8-15.4,9.6
				c-0.3-0.3-0.6-0.6-0.8-0.8c-0.3-0.3-0.5-0.5-0.7-0.8C132.4,421.3,135.4,419.5,141.3,415.7z M147.2,418.1
				c-6.7,4.3-10.1,6.4-17,10.5c-0.3-0.2-0.6-0.5-0.9-0.7c-0.3-0.3-0.6-0.5-0.9-0.8c6.3-3.8,9.5-5.7,15.6-9.6c0.4,0.2,1,0.3,1.8,0.4
				C146.5,418,146.7,418,147.2,418.1z M151.6,418.8c-7.3,4.7-11,7.1-18.6,11.6c-0.7-0.4-1.3-0.8-2-1.3c7.1-4.3,10.5-6.4,17.4-10.8
				C149.7,418.5,150.3,418.6,151.6,418.8z M156,419.5c-7.8,5.1-11.8,7.6-19.9,12.6c-0.4-0.2-0.8-0.4-1.2-0.6
				c-0.4-0.1-0.8-0.3-1.2-0.6c7.7-4.7,11.5-7.1,19-11.9C154,419.2,154.7,419.3,156,419.5z M160.3,420.2c-8.1,5.4-12.3,8-20.7,13.1
				c-0.4-0.2-0.9-0.3-1.3-0.4c-0.5-0.1-0.9-0.3-1.3-0.5c8.2-5,12.2-7.5,20.1-12.7C158.4,419.9,159,420,160.3,420.2z M161.4,420.4
				c1,0.2,1.5,0.2,2.6,0.4c0,0.2-0.1,0.4-0.1,0.6c-7.9,5.3-11.9,7.9-20,13c-0.3,0-0.4-0.1-0.7-0.1c-0.4-0.1-0.8-0.1-1.2-0.2
				s-0.8-0.2-1.2-0.3C149.1,428.4,153.2,425.8,161.4,420.4z M157.3,369.4c-1.2-0.2-1.7-0.3-2.9-0.5v-0.1c7.8-5.3,11.6-8,19.2-13.6
				h0.1c0.5,0.1,0.9,0.1,1.4,0.2c0.4,0.1,0.9,0.2,1.3,0.3C168.9,361.3,165,364,157.3,369.4z M172.5,355.1c-7,5.2-10.6,7.7-17.9,12.7
				c0.2-1.2,0.3-1.7,0.5-2.9c5.9-4,8.8-6.1,14.5-10.2C170.7,354.8,171.3,354.9,172.5,355.1z M168.5,354.4c-5.2,3.8-7.9,5.6-13.2,9.3
				c0.2-1.2,0.3-1.7,0.5-2.9c3.9-2.7,5.9-4.1,9.8-6.9C166.7,354.2,167.3,354.3,168.5,354.4z M164.6,353.8c-3.4,2.5-5.2,3.7-8.7,6.1
				c0.2-1.2,0.3-1.7,0.5-2.9c2.1-1.5,3.1-2.2,5.2-3.7C162.8,353.5,163.4,353.6,164.6,353.8z M160.6,353.2c-1.6,1.1-2.4,1.7-4,2.8
				c0.2-1.2,0.3-1.7,0.5-2.9c0.2-0.2,0.3-0.2,0.6-0.4C158.8,352.9,159.4,353,160.6,353.2z M145,434.5c7.6-4.8,11.3-7.2,18.7-12.1
				c-0.2,1.2-0.3,1.8-0.4,2.9c-5.9,4-8.9,5.9-15,9.7C147,434.8,146.3,434.7,145,434.5z M158.3,369.6c7.7-5.3,11.5-8.1,18.9-13.6
				c0.4,0.1,0.8,0.3,1.1,0.4c0.4,0.1,0.8,0.3,1.1,0.4c-7.2,5.4-10.8,8.1-18.2,13.3C160.1,369.9,159.5,369.8,158.3,369.6z
				 M149.4,435.2c5.5-3.5,8.3-5.3,13.7-8.9c-0.2,1.2-0.3,1.8-0.4,2.9c-3.9,2.6-5.9,3.9-9.9,6.5C151.4,435.6,150.7,435.5,149.4,435.2
				z M162.4,370.3c7.3-5.2,10.9-7.8,17.9-13.1c0.9,0.4,1.6,0.7,2.1,1.1c-6.7,5.1-10.1,7.5-17.1,12.4
				C164.2,370.5,163.6,370.4,162.4,370.3z M153.9,436c3.5-2.2,5.2-3.4,8.6-5.6c-0.2,1.2-0.3,1.8-0.4,2.9c-2,1.3-2.9,1.9-4.9,3.2
				C155.9,436.3,155.2,436.2,153.9,436z M166.5,370.9c6.8-4.8,10.1-7.3,16.7-12.3c0.4,0.2,0.7,0.4,1,0.6s0.6,0.4,0.9,0.6
				c-6.1,4.7-9.2,7-15.5,11.5C168.3,371.2,167.7,371.1,166.5,370.9z M158.4,436.6c1.4-0.9,2.1-1.4,3.6-2.3c-0.2,1.1-0.2,1.7-0.4,2.8
				C160.2,436.9,159.6,436.8,158.4,436.6z M187.4,361.7c-5.6,4.2-8.4,6.3-14.1,10.5c-0.8-0.3-1.5-0.5-2-0.5c-0.3,0-0.4-0.1-0.7-0.1
				c6.2-4.4,9.2-6.6,15.2-11.1C186.4,360.9,186.7,361.2,187.4,361.7z M187.9,362.2c0.3,0.3,0.5,0.5,0.7,0.8s0.5,0.5,0.8,0.7
				c-5.4,4.1-8.1,6.1-13.6,10.1c-0.6-0.6-1.2-1-1.8-1.3C179.7,368.4,182.4,366.4,187.9,362.2z M189.8,364.4c0.3,0.3,0.5,0.5,0.7,0.8
				s0.4,0.5,0.6,0.8c-5.4,4.1-8.1,6.1-13.6,10.2c-0.2-0.6-0.7-1.2-1.2-1.7C181.8,370.4,184.5,368.4,189.8,364.4z M191.6,366.6
				c0.2,0.3,0.4,0.6,0.6,0.9c0.2,0.3,0.4,0.6,0.6,0.9c-5.6,4.3-8.4,6.4-14.1,10.6c-0.1-0.4-0.2-0.8-0.3-1.1
				c-0.1-0.3-0.2-0.7-0.3-1.1C183.5,372.8,186.2,370.7,191.6,366.6z M193,369.2c0.2,0.3,0.4,0.7,0.6,1c0.2,0.3,0.3,0.6,0.4,0.9
				c-5.4,4.1-8.1,6.2-13.6,10.2c-0.7-0.1-1.1-0.1-1.8-0.2c0.1-0.5,0.1-0.9,0-1.2C184.4,375.6,187.3,373.5,193,369.2z M194.3,371.8
				c0.1,0.4,0.2,0.8,0.3,1c0.1,0.3,0.2,0.6,0.3,1c-4.1,3.2-6.2,4.8-10.3,7.9c-1.2-0.2-1.8-0.2-3.1-0.4
				C186.7,377.6,189.2,375.7,194.3,371.8z M195.1,374.8c0.1,0.4,0.2,0.8,0.2,1.2c0,0.4,0.1,0.7,0.2,1.2c-2.8,2.1-4.2,3.2-7,5.2
				c-1.2-0.2-1.8-0.2-3.1-0.4C189.4,379.1,191.3,377.7,195.1,374.8z M195.6,377.9c0.1,0.4,0.2,0.8,0.2,1.3c0,0.4,0,0.9,0,1.3
				c-1.2,1-1.9,1.4-3.1,2.4c-1.2-0.1-1.8-0.2-3.1-0.4C192.1,380.7,193.3,379.7,195.6,377.9z M195.7,381.5c0,0.3,0,0.9-0.1,1.7
				c-0.7-0.1-1.1-0.1-1.8-0.2C194.6,382.4,195,382.1,195.7,381.5z"/>
			<path class="st2" d="M255.4,362.7c-6.9,6.4-10.4,9.5-17.6,15.7c-0.7,0-1-0.1-1.7-0.1c0-0.5,0-0.8,0.1-1.3
				c6.6-5.7,9.9-8.6,16.2-14.5c0.5,0,0.8,0,1.3,0.1C254.4,362.7,254.7,362.7,255.4,362.7z M251.4,362.6c-5.9,5.4-9,8.1-15.1,13.4
				c0.1-1.2,0.1-1.8,0.2-3c4.9-4.2,7.2-6.3,12-10.6C249.6,362.5,250.2,362.5,251.4,362.6z M247.3,362.4c-4.3,3.9-6.4,5.8-10.8,9.6
				c0.1-1.2,0.1-1.8,0.2-3c3.1-2.7,4.6-4.1,7.7-6.8C245.5,362.3,246.1,362.3,247.3,362.4z M243.4,362.2c-2.6,2.4-4,3.6-6.7,5.9
				c0.1-1.2,0.1-1.8,0.2-3c1.4-1.2,2.1-1.9,3.5-3.1C241.6,362.1,242.2,362.1,243.4,362.2z M239.4,362c-1,0.8-1.4,1.3-2.4,2.1
				c0.1-0.9,0.1-1.3,0.1-2.2C238,361.9,238.5,361.9,239.4,362z M256.3,362.9c0.4,0.1,0.8,0.2,1.2,0.2c0.4,0.1,0.8,0.2,1.2,0.3
				c-6.6,6.2-10,9.2-16.9,15.3c-1.2-0.1-1.8-0.1-3-0.2C246,372.4,249.5,369.2,256.3,362.9z M259.8,363.6c0.4,0.2,0.8,0.3,1.1,0.4
				c0.4,0.1,0.7,0.2,1.1,0.4c-6.3,5.9-9.4,8.8-15.9,14.6c-1.2-0.1-1.8-0.1-3-0.1C249.9,372.8,253.2,369.7,259.8,363.6z M262.7,364.6
				c0.4,0.2,0.7,0.3,1.1,0.5c0.3,0.2,0.7,0.3,1.1,0.5c-5.8,5.5-8.7,8.2-14.7,13.5c-1.2-0.1-1.8-0.1-3-0.1
				C253.5,373.3,256.6,370.4,262.7,364.6z M265.4,366c0.4,0.2,0.7,0.4,1,0.6s0.6,0.4,0.9,0.5c-5.2,5-7.8,7.4-13.1,12.3
				c-0.2-0.1-0.6-0.1-1.1-0.2c-0.8,0-1.2,0-1.9-0.1C257,373.9,259.8,371.3,265.4,366z M267.9,367.6c0.5,0.4,1.1,0.8,1.7,1.3
				c-4.9,4.7-7.3,7-12.4,11.5c-0.5-0.3-1.2-0.6-2.2-0.9C260.3,374.8,262.8,372.4,267.9,367.6z M270.2,369.4c0.3,0.2,0.6,0.5,0.8,0.7
				c0.2,0.2,0.5,0.5,0.7,0.7c-4.8,4.6-7.3,6.9-12.2,11.4c-0.2-0.2-0.5-0.5-0.7-0.7c-0.2-0.2-0.5-0.5-0.8-0.7
				C262.9,376.3,265.3,374,270.2,369.4z M272.2,371.4c0.5,0.6,0.9,1.1,1.3,1.7c-5,4.8-7.5,7.1-12.6,11.8c-0.2-0.6-0.5-1.3-0.9-2
				C264.9,378.3,267.3,376,272.2,371.4z M273.9,373.7c0.2,0.3,0.5,0.6,0.7,0.9s0.4,0.6,0.5,0.9c-5.2,5-7.8,7.4-13.1,12.3
				c-0.2,0-0.4,0-0.6,0c0-0.4,0-0.8,0-1.1c0-0.3-0.1-0.7-0.2-1.1C266.4,380.9,268.9,378.5,273.9,373.7z M275.5,376.1
				c0.2,0.4,0.3,0.7,0.5,1s0.3,0.6,0.5,1c-4.1,3.9-6.1,5.9-10.3,9.8c-1.2,0-1.8,0-3.1-0.1C268.1,383.1,270.6,380.8,275.5,376.1z
				 M276.8,378.8c0.2,0.4,0.3,0.8,0.4,1.1c0.1,0.4,0.3,0.7,0.4,1.1c-2.9,2.8-4.4,4.2-7.4,6.9c-1.2,0-1.8,0-2.9,0
				C271.1,384.3,273,382.5,276.8,378.8z M277.8,381.9c0.2,0.4,0.3,0.8,0.4,1.2c0.1,0.4,0.2,0.8,0.2,1.2c-1.6,1.5-2.4,2.2-3.9,3.6
				c-1.2,0-1.8,0-3.1,0C273.9,385.5,275.2,384.3,277.8,381.9z M278.5,385.3c0.1,0.4,0.1,0.8,0.1,1.3s0,0.9,0,1.4c-1.2,0-1.8,0-3.1,0
				C276.7,386.9,277.3,386.4,278.5,385.3z"/>
			<path class="st2" d="M336.4,361.1c-6.1,7.1-9.3,10.6-15.8,17.6c-0.7,0-1,0.1-1.7,0.1c0-0.5,0-0.8-0.1-1.3
				c6-6.4,8.9-9.6,14.6-16.2c0.5,0,0.8-0.1,1.3-0.1C335.4,361.2,335.7,361.2,336.4,361.1z M332.4,361.4c-5.3,6.1-8,9.1-13.5,15
				c-0.1-1.2-0.1-1.8-0.1-3c4.4-4.7,6.5-7.1,10.7-11.9C330.6,361.6,331.2,361.5,332.4,361.4z M328.3,361.7
				c-3.8,4.3-5.8,6.5-9.7,10.7c-0.1-1.2-0.1-1.8-0.1-3c2.8-3,4.2-4.5,6.9-7.6C326.6,361.8,327.2,361.8,328.3,361.7z M324.4,361.9
				c-2.4,2.6-3.6,4-6,6.6c-0.1-1.2-0.1-1.8-0.1-3c1.3-1.4,1.9-2.1,3.2-3.5C322.6,362,323.2,362,324.4,361.9z M320.4,362.2
				c-0.9,0.9-1.3,1.4-2.1,2.4c0-0.9-0.1-1.3-0.1-2.2C319,362.2,319.5,362.2,320.4,362.2z M337.4,361.2c0.4,0,0.8,0.1,1.3,0.1
				c0.4,0,0.9,0.1,1.3,0.2c-5.9,6.9-8.9,10.3-15.1,17c-1.2,0.1-1.8,0.1-3,0.2C328.1,371.7,331.3,368.2,337.4,361.2z M340.9,361.5
				c0.4,0.1,0.8,0.2,1.2,0.3c0.4,0,0.7,0.1,1.2,0.3c-5.6,6.5-8.4,9.8-14.3,16.2c-1.2,0.1-1.8,0.1-3,0.2
				C332,371.7,335,368.3,340.9,361.5z M343.9,362.2c0.4,0.1,0.8,0.3,1.1,0.4c0.3,0.1,0.7,0.3,1.1,0.4c-5.1,6.1-7.7,9.1-13.1,15
				c-1.2,0.1-1.8,0.1-3,0.2C335.7,371.8,338.5,368.7,343.9,362.2z M346.8,363.3c0.4,0.1,0.8,0.3,1.1,0.4c0.3,0.2,0.6,0.3,0.9,0.4
				c-4.6,5.5-6.9,8.2-11.7,13.7c-0.2-0.1-0.6-0.1-1.1,0c-0.8,0.1-1.2,0.1-1.9,0.1C339.2,372.1,341.8,369.2,346.8,363.3z
				 M349.4,364.6c0.6,0.3,1.2,0.7,1.8,1.1c-4.3,5.2-6.5,7.7-11,12.8c-0.5-0.3-1.3-0.5-2.2-0.7C342.6,372.6,344.9,369.9,349.4,364.6z
				 M351.8,366.1c0.3,0.2,0.6,0.4,0.9,0.6s0.5,0.4,0.8,0.6c-4.3,5.1-6.5,7.7-10.9,12.7c-0.3-0.2-0.5-0.4-0.8-0.6s-0.6-0.4-0.9-0.6
				C345.4,373.8,347.5,371.2,351.8,366.1z M354.1,367.9c0.5,0.5,1,1,1.5,1.5c-4.4,5.3-6.7,7.9-11.3,13.1c-0.3-0.6-0.7-1.3-1.1-1.9
				C347.6,375.6,349.8,373.1,354.1,367.9z M356.1,370c0.3,0.3,0.5,0.6,0.7,0.8c0.2,0.3,0.4,0.5,0.6,0.8c-4.6,5.5-6.9,8.2-11.7,13.7
				c-0.2,0-0.4,0-0.6,0.1c0-0.4-0.1-0.7-0.2-1.1c-0.1-0.3-0.2-0.7-0.3-1C349.3,378,351.6,375.3,356.1,370z M357.9,372.2
				c0.2,0.4,0.4,0.7,0.6,1s0.4,0.6,0.6,0.9c-3.6,4.4-5.4,6.5-9.1,10.9c-1.2,0.1-1.8,0.2-3.1,0.3C351.3,380,353.5,377.4,357.9,372.2z
				 M359.5,374.7c0.2,0.4,0.4,0.7,0.5,1.1c0.2,0.3,0.3,0.7,0.5,1.1c-2.6,3.1-3.9,4.6-6.6,7.7c-1.2,0.1-1.8,0.2-2.9,0.3
				C354.5,380.8,356.1,378.8,359.5,374.7z M360.8,377.7c0.2,0.4,0.4,0.8,0.5,1.2c0.1,0.4,0.3,0.8,0.4,1.2c-1.4,1.6-2.1,2.4-3.5,4.1
				c-1.2,0.1-1.8,0.2-3.1,0.3C357.4,381.8,358.5,380.4,360.8,377.7z M361.9,381c0.1,0.4,0.2,0.8,0.3,1.3c0.1,0.5,0.1,0.9,0.2,1.4
				c-1.2,0.1-1.8,0.2-3.1,0.3C360.3,382.8,360.8,382.2,361.9,381z"/>
			<path class="st2" d="M383.1,370.9c5.2-6.6,7.7-10,12.6-16.7c0.8-0.1,1.1-0.2,1.9-0.3c0.1,0.4,0.1,0.6,0.2,1.1
				c-5.6,7.6-8.4,11.4-14.3,18.9C383.4,372.7,383.3,372.1,383.1,370.9z M391.8,354.9c1.2-0.2,1.8-0.3,2.9-0.5
				c-4.6,6.2-6.9,9.3-11.7,15.5c-0.2-1.2-0.2-1.8-0.4-2.9C386.3,362.1,388.2,359.7,391.8,354.9z M387.8,355.5
				c1.2-0.2,1.8-0.3,2.9-0.4c-3.3,4.4-4.9,6.5-8.3,10.9c-0.2-1.2-0.2-1.8-0.4-2.9C384.4,360,385.5,358.5,387.8,355.5z M383.8,356.1
				c1.2-0.2,1.8-0.2,2.9-0.4c-1.9,2.5-2.9,3.8-4.8,6.3c-0.2-1.2-0.2-1.8-0.4-2.9C382.4,357.8,382.9,357.2,383.8,356.1z M381.2,356.4
				c0.6-0.1,0.9-0.1,1.5-0.2c-0.5,0.7-0.8,1-1.3,1.7C381.3,357.3,381.2,357,381.2,356.4z M384.1,377.9c-0.2-1.2-0.2-1.8-0.4-2.9
				c5.9-7.5,8.7-11.3,14.3-18.9c0.2,1.2,0.3,1.7,0.5,2.9C392.9,366.6,390,370.4,384.1,377.9z M384.6,381.7c-0.2-1.2-0.2-1.8-0.4-2.9
				c5.9-7.5,8.8-11.3,14.4-18.9c0.2,1.2,0.3,1.8,0.5,2.9C393.5,370.4,390.6,374.2,384.6,381.7z M385.2,385.7
				c-0.2-1.2-0.2-1.8-0.4-2.9c6-7.5,8.9-11.3,14.5-18.9c0.2,1.2,0.3,1.8,0.5,2.9C394.1,374.4,391.1,378.2,385.2,385.7z M385.7,389.7
				c-0.2-1.2-0.2-1.8-0.4-2.9c6-7.5,8.9-11.3,14.6-18.9c0.2,1.2,0.3,1.8,0.5,2.9C394.7,378.4,391.7,382.2,385.7,389.7z M386.3,393.7
				c-0.2-1.2-0.2-1.8-0.4-2.9c6-7.5,9-11.3,14.7-18.9c0.2,1.2,0.3,1.8,0.5,2.9C395.3,382.4,392.3,386.2,386.3,393.7z M386.8,397.7
				c-0.2-1.2-0.2-1.8-0.4-2.9c6.1-7.5,9-11.3,14.8-18.9c0.2,1.2,0.3,1.8,0.5,2.9C395.9,386.3,392.9,390.1,386.8,397.7z M387.3,401.6
				c-0.2-1.2-0.2-1.8-0.4-2.9c6.1-7.5,9.1-11.3,14.9-18.9c0.2,1.2,0.3,1.8,0.5,2.9C396.5,390.3,393.5,394.1,387.3,401.6z
				 M387.9,405.5c-0.2-1.2-0.2-1.8-0.4-2.9c6.1-7.5,9.1-11.3,14.9-19c0.2,1.2,0.3,1.8,0.5,2.9C397,394.2,394,398,387.9,405.5z
				 M388.4,409.5c-0.2-1.2-0.2-1.8-0.4-2.9c6.2-7.5,9.2-11.3,15-19c0.2,1.2,0.3,1.8,0.5,2.9C397.6,398.2,394.6,402,388.4,409.5z
				 M389,413.5c-0.2-1.2-0.2-1.8-0.4-2.9c6.2-7.5,9.2-11.3,15.1-19c0.2,1.2,0.3,1.8,0.5,2.9C398.2,402.1,395.2,405.9,389,413.5z
				 M389.5,417.5c-0.2-1.2-0.2-1.8-0.4-2.9c6.2-7.5,9.3-11.3,15.2-19c0.2,1.2,0.3,1.8,0.5,2.9C398.8,406.1,395.8,409.9,389.5,417.5z
				 M390.1,421.4c-0.2-1.2-0.2-1.8-0.4-2.9c6.3-7.5,9.3-11.3,15.3-19c0.2,1.2,0.3,1.8,0.5,2.9C399.4,410.1,396.4,413.9,390.1,421.4z
				 M390.6,425.4c-0.2-1.2-0.2-1.8-0.4-2.9c6.3-7.5,9.4-11.4,15.4-19c0.2,1.2,0.3,1.8,0.5,2.9C400,414.1,396.9,417.9,390.6,425.4z
				 M391.1,429.3c-0.2-1.2-0.2-1.8-0.4-2.9c6.3-7.6,9.4-11.4,15.5-19c0.2,1.2,0.3,1.8,0.5,2.9C400.6,417.9,397.5,421.7,391.1,429.3z
				 M391.7,433.3c-0.2-1.2-0.2-1.8-0.4-2.9c6.4-7.6,9.5-11.4,15.6-19c0.2,1.2,0.3,1.8,0.5,2.9C401.2,421.9,398.1,425.7,391.7,433.3z
				 M392.2,437.3c-0.2-1.2-0.2-1.8-0.4-2.9c6.4-7.6,9.6-11.4,15.7-19.1c0.2,1.2,0.3,1.8,0.5,2.9
				C401.8,425.9,398.7,429.7,392.2,437.3z M392.4,438.4v-0.1c6.5-7.6,9.6-11.4,15.7-19.1c0.2,1.2,0.3,1.8,0.5,2.9
				c-5.1,6.4-7.7,9.5-13,15.8C394.3,438.2,393.6,438.3,392.4,438.4z M400,437.4c-1.3,0.2-2,0.3-3.3,0.5c4.9-5.8,7.3-8.7,12-14.6
				c0.2,1.2,0.3,1.8,0.5,2.9C405.6,430.6,403.7,432.9,400,437.4z M404.5,436.7c-1.3,0.2-2,0.3-3.3,0.5c3.3-4,5-6,8.2-10
				c0.2,1.2,0.3,1.8,0.5,2.9C407.7,432.7,406.6,434.1,404.5,436.7z M408.8,436c-1.3,0.2-1.9,0.3-3.1,0.5c1.8-2.1,2.6-3.2,4.4-5.4
				c0.2,1.1,0.3,1.7,0.4,2.8C409.8,434.8,409.5,435.2,408.8,436z M410.8,435.7c-0.3,0.1-0.5,0.1-0.8,0.1c0.3-0.3,0.4-0.5,0.7-0.8
				C410.7,435.3,410.7,435.4,410.8,435.7z M442.7,413c0.5-0.1,0.8-0.2,1.3-0.3c0.1,0.7,0.2,1,0.4,1.7c-5.2,7.1-7.9,10.7-13.3,17.7
				c-0.8,0.1-1.2,0.2-2,0.4c-0.1-0.5-0.1-0.7-0.2-1.2C434.5,424.1,437.3,420.4,442.7,413z M438.4,413.9c1.3-0.3,1.9-0.4,3.2-0.6
				c-5,6.9-7.6,10.3-12.9,17.1c-0.2-1.2-0.3-1.7-0.5-2.9C432.3,422.1,434.3,419.4,438.4,413.9z M434,414.8c1.3-0.2,1.9-0.4,3.2-0.6
				c-3.6,4.9-5.5,7.4-9.3,12.2c-0.2-1.2-0.3-1.7-0.5-2.9C430.1,420,431.4,418.3,434,414.8z M429.7,415.6c1.3-0.2,1.9-0.4,3.2-0.6
				c-2.2,3-3.4,4.5-5.6,7.4c-0.2-1.2-0.3-1.7-0.5-2.9C427.9,418,428.5,417.2,429.7,415.6z M426.1,416.3c1-0.2,1.5-0.3,2.4-0.4
				c-0.8,1.1-1.2,1.6-2,2.7C426.3,417.6,426.2,417.2,426.1,416.3z M435.5,431.4c-1.3,0.2-2,0.4-3.3,0.6c5-6.5,7.5-9.8,12.3-16.4
				c0.2,1.2,0.4,1.7,0.6,2.9C441.3,423.6,439.4,426.2,435.5,431.4z M439.8,430.5c-1.3,0.3-2,0.4-3.3,0.6c3.6-4.7,5.4-7,8.8-11.8
				c0.2,1.2,0.4,1.7,0.6,2.9C443.5,425.6,442.3,427.2,439.8,430.5z M444.2,429.6c-1.3,0.3-2,0.4-3.3,0.7c2.1-2.8,3.1-4.2,5.2-7
				c0.2,1.2,0.4,1.7,0.6,2.9C445.7,427.6,445.2,428.3,444.2,429.6z M447.3,429c-0.8,0.2-1.2,0.2-2,0.4c0.6-0.9,1-1.3,1.6-2.1
				C447.1,428,447.2,428.3,447.3,429z"/>
		</g>
		<g>
			<path class="st2" d="M127.5,372.2c0.7-3.3,2-6.3,3.9-9s4.2-4.9,6.9-6.7s5.6-3,8.8-3.7s6.5-0.8,10-0.2c-1.1,6.5-1.7,9.8-2.8,16.3
				c-2.3-0.4-4.4,0-6.4,1.3c-1.9,1.3-3.1,3.1-3.5,5.3c-2,10.9-4,21.7-6,32.6c-7.1-1.3-10.6-2-17.7-3.5
				C123,393.9,125.3,383.1,127.5,372.2z M195.7,383.2c-0.2,1.6-0.3,2.5-0.5,4.1c-6.9-0.8-10.3-1.2-17.2-2.2c0.2-1.6,0.3-2.5,0.6-4.1
				C185.4,382,188.8,382.4,195.7,383.2z"/>
			<path class="st2" d="M224.6,419.1c-0.2,2.3,0.6,4.3,2.2,6c1.7,1.7,3.7,2.7,6.2,2.8c7.2,0.4,10.9,0.6,18.1,0.9
				c-0.3,6.6-0.4,9.9-0.6,16.5c-7.4-0.3-11.1-0.5-18.5-0.9c-3.9-0.2-7.4-1.1-10.7-2.7c-3.2-1.5-6-3.5-8.3-6c-2.3-2.4-4-5.2-5.2-8.3
				c-1.1-3.1-1.5-6.4-1.2-9.9C213.9,418.3,217.5,418.6,224.6,419.1z M278.6,388c0,11-0.1,22.1-0.1,33.1c-7.2,0-10.8-0.1-18-0.3
				c0.3-11,0.6-22.1,0.9-33.1C268.3,387.9,271.7,388,278.6,388z"/>
			<path class="st2" d="M312.1,420.6c0.1,2.3,1,4.2,2.9,5.7c1.8,1.5,4,2.3,6.5,2.1c7.2-0.4,10.9-0.6,18.1-1.1
				c0.5,6.6,0.7,9.9,1.2,16.5c-7.4,0.5-11.1,0.8-18.5,1.1c-3.9,0.2-7.5-0.3-10.9-1.5s-6.4-2.9-8.9-5c-2.5-2.2-4.6-4.8-6-7.7
				c-1.5-3-2.2-6.2-2.3-9.7C301.3,420.9,304.9,420.8,312.1,420.6z M362.3,383.7c1.2,11,2.3,22,3.5,32.9c-7.2,0.8-10.7,1.1-17.9,1.7
				c-0.9-11-1.8-22-2.8-33C352,384.8,355.4,384.5,362.3,383.7z"/>
			<path class="st2" d="M426.1,416.3c1.2,6.5,1.8,9.8,3,16.3c-15.3,2.7-30.5,5-45.9,7.1c-0.8-6.6-1.2-9.9-2.1-16.4
				C396.2,421.2,411.1,418.9,426.1,416.3z"/>
		</g>
	</g>
</g>
<path class="st3" d="M328.8,309.7c4.7-3.5,7-7.8,7-12.8c0-3.3-1.1-6.4-3.4-9.3c-1.6-3.6-3.8-6.2-6.7-7.7c-2.9-1.5-6-2.2-9.4-2.2
	c-1,0-1.9,0.1-3,0.2c-1,0.1-2,0.3-3,0.5c-0.4-1.8-1.2-3.6-2.2-5.4c-1.1-1.8-2.3-3.3-3.8-4.7c-1.5-1.4-3.1-2.5-5-3.4
	c-1.8-0.9-3.6-1.3-5.4-1.3c-2.3,0-4.5,0.4-6.6,1.3c-2,0.9-3.8,2-5.4,3.4s-3,3-4.1,4.7c-1.1,1.8-1.9,3.5-2.3,5.4
	c-1.8-0.4-3.9-0.6-6.2-0.6c-3.4,0-6.5,0.7-9.4,2.2c-2.8,1.5-5,4.1-6.5,7.7c-2,3-3,6.1-3,9.4c0,5.2,2.2,9.4,6.7,12.6
	c-4.7,3.5-7,8-7,13.3c0,3.5,1.1,7.1,3.4,10.7c1.4,2.8,3.4,4.9,6.1,6.5c2.7,1.5,5.6,2.3,8.8,2.3c2.3,0,4.7-0.5,7.2-1.4
	c0.9,4.6,3,8.2,6.3,10.8c3.4,2.6,7.4,3.9,12.1,3.9c1.8,0,3.6-0.3,5.4-1s3.5-1.7,5-3s2.8-2.8,3.8-4.6c1.1-1.8,1.8-3.8,2.2-6.1
	c2.3,1,4.7,1.4,7.2,1.4c3.2,0,6.1-0.8,8.8-2.3c2.7-1.5,4.7-3.7,6.1-6.5c2-3.7,3-7.4,3-11C335.5,317.4,333.3,313.1,328.8,309.7z
	 M284,325.9h-6.9v-32.1h6.9V325.9z M301.2,327c-4.7,0-9.3-1.7-12.5-4.4l3.8-5.1c2.1,1.9,5.6,3,8.8,3c2.9,0,6-1,6-4
	c0-2.8-2.8-3-6-3.5c-6.7-1.1-11.7-2.9-11.7-9.5c0-7.3,6.1-10.9,12.4-10.9c4.1,0,8.5,1.6,11.6,4.4l-3.8,5.2c-1.8-1.9-4.9-3.1-7.7-3.1
	c-2.7,0-5.6,1-5.6,4c0,2.6,2.3,3,4.9,3.5c8.5,1.5,12.8,3.4,12.8,9.5C314.2,323.4,307.9,327,301.2,327z"/>
<g>
	<path class="st4" d="M85.5,191.6c0.2,0,0.5,0.1,0.6,0.3c0.4,0.4,0.3,1.2-0.1,1.5c-0.1,0.1-0.4,0.2-0.7,0.2l-27.6-2.9
		c-0.3-0.1-0.5-0.1-0.7-0.3c-0.4-0.4-0.3-1.1,0.1-1.5c0.2-0.2,0.4-0.3,0.8-0.3L85.5,191.6z M86.5,201.9c0.3,0.4,0.4,1,0,1.4
		c-0.1,0.1-0.2,0.1-28.3,11.4c-0.4,0.2-0.8,0-1-0.2c-0.3-0.4-0.4-1.1,0-1.4c0.1-0.1,0.1-0.1,28.2-11.3
		C85.9,201.5,86.3,201.6,86.5,201.9z M90.2,177.8c0.4,0.4,0.3,1.2-0.1,1.6c-0.2,0.2-0.5,0.3-0.9,0.1c-29.8-15-30-15-30.1-15.2
		c-0.4-0.4-0.3-1.1,0.1-1.4c0.3-0.2,0.7-0.4,1.1-0.2C90,177.6,90.1,177.7,90.2,177.8z M86.1,209.5c0.4-0.4,1.1-0.2,1.4,0.1
		s0.4,0.8,0.1,1.2c-15.9,18.8-16,18.8-16,18.9c-0.5,0.5-1.1,0.3-1.5,0c-0.3-0.3-0.4-0.8,0-1.3C86.1,209.6,86.1,209.5,86.1,209.5z
		 M97,168.6c0.4,0.5,0.3,1.1-0.1,1.4c-0.4,0.3-1.1,0.5-1.5-0.2l-18-24.4c-0.4-0.5-0.1-1,0.2-1.3c0.3-0.3,1-0.5,1.4,0L97,168.6z
		 M93.2,131.7c0.4-0.3,1-0.4,1.5,0.1c0.1,0.1,0.1,0.1,12.3,31.1c0.2,0.5,0,0.9-0.3,1.1c-0.4,0.3-1,0.4-1.4,0
		c-0.1-0.1-0.2-0.3-12.4-31.3C92.7,132.2,93,131.9,93.2,131.7z M119.1,132.7c0-0.4,0.2-0.6,0.4-0.8c0.4-0.4,1-0.3,1.4,0.1
		c0.1,0.1,0.3,0.5,0.3,0.7l0.4,27.6c0,0.4-0.2,0.6-0.4,0.8c-0.4,0.4-1.1,0.3-1.4-0.1c-0.2-0.2-0.2-0.4-0.3-0.7L119.1,132.7z
		 M143.1,134.6c0.1-0.1,0.2-0.2,0.2-0.3c0.5-0.4,1.1-0.4,1.4,0c0.2,0.3,0.3,0.7,0.1,1.2l-13.6,26.8l-0.1,0.1c-0.5,0.4-1.1,0.4-1.4,0
		c-0.2-0.2-0.5-0.7-0.2-1.1L143.1,134.6z M158.8,148.6c0.3,0.3,0.4,0.9-0.1,1.5c-6.7,4.6-13.3,9.5-20.1,14.1c-0.5,0.3-1,0.1-1.3-0.2
		c-0.4-0.4-0.4-1.1,0.2-1.5c6.7-4.7,13.3-9.5,20.1-14.1C158.1,148.2,158.5,148.3,158.8,148.6z"/>
</g>
<g>
	<path class="st4" d="M423.2,294.9c-0.5,0.4-1,0.3-1.3,0c-0.4-0.3-0.5-0.9,0-1.5c0,0,0.1-0.1,18.9-16c0.4-0.3,0.8-0.3,1.2,0.1
		c0.4,0.3,0.5,1,0.1,1.4C442,278.9,442,279,423.2,294.9z M449.9,279.7c-11.2,28-11.3,28.1-11.3,28.2c-0.4,0.4-1.1,0.3-1.4,0
		c-0.3-0.2-0.4-0.6-0.2-1c11.2-28.1,11.3-28.2,11.4-28.3c0.4-0.4,1-0.4,1.4,0C450,278.8,450.1,279.1,449.9,279.7z M462.8,307.2
		c0,0.4-0.1,0.6-0.3,0.8c-0.4,0.4-1,0.5-1.5,0.1c-0.2-0.2-0.3-0.4-0.3-0.7l-2.9-27.6c0-0.3,0.1-0.5,0.2-0.7c0.4-0.4,1.1-0.5,1.5-0.1
		c0.1,0.1,0.2,0.3,0.3,0.6L462.8,307.2z M488.9,304.8c0.2,0.5,0.1,0.9-0.2,1.1c-0.3,0.4-1,0.5-1.4,0.1c-0.1-0.1-0.2-0.2-15.2-30.1
		c-0.2-0.4-0.1-0.7,0.1-0.9c0.4-0.4,1.1-0.5,1.6-0.1C473.9,274.9,473.9,275,488.9,304.8z M507.5,286.1c0.5,0.4,0.3,1.1,0,1.4
		s-0.8,0.6-1.3,0.2l-24.4-18c-0.6-0.4-0.5-1.2-0.2-1.5s0.9-0.5,1.4-0.1L507.5,286.1z M503.2,207.4c-4.6,6.8-9.5,13.3-14.1,20.1
		c-0.5,0.7-1.1,0.6-1.5,0.2c-0.3-0.3-0.5-0.8-0.2-1.3c4.6-6.8,9.5-13.3,14.1-20.1c0.5-0.5,1.1-0.4,1.5-0.1
		C503.2,206.5,503.4,206.9,503.2,207.4z M518.9,272.1c-31-12.3-31.2-12.3-31.3-12.4c-0.4-0.4-0.4-1,0-1.4c0.2-0.3,0.6-0.5,1.1-0.3
		c31,12.3,31,12.3,31.1,12.3c0.5,0.4,0.4,1.1,0.1,1.5C519.7,272,519.3,272.3,518.9,272.1z M490.2,235.6c-0.4,0.2-0.9,0-1.1-0.2
		c-0.4-0.3-0.4-0.9,0-1.4l0.1-0.1l26.8-13.6c0.5-0.2,1-0.1,1.2,0.1c0.4,0.3,0.4,0.9,0,1.4c-0.1,0.1-0.1,0.1-0.3,0.2L490.2,235.6z
		 M491.3,245.5c-0.3,0-0.5-0.1-0.7-0.3c-0.4-0.4-0.4-1-0.1-1.4c0.2-0.2,0.4-0.3,0.8-0.4l27.6,0.4c0.2,0,0.6,0.2,0.7,0.3
		c0.4,0.4,0.4,0.9,0.1,1.4c-0.1,0.1-0.3,0.4-0.8,0.4L491.3,245.5z"/>
</g>
</svg>
