<svg xmlns="http://www.w3.org/2000/svg" width="329.26" height="41.928" viewBox="0 0 329.26 41.928">
  <g id="Overture" transform="translate(231.898 29.53)">
    <path id="Path_3" data-name="Path 3" d="M0,21.079v-.116C0,9.439,9.428,0,22.4,0s22.28,9.324,22.28,20.848v.116c0,11.525-9.428,20.965-22.4,20.965S0,32.6,0,21.079Zm35.013,0v-.116A12.531,12.531,0,0,0,22.281,8.223,12.334,12.334,0,0,0,9.669,20.848v.116A12.53,12.53,0,0,0,22.4,33.7,12.335,12.335,0,0,0,35.013,21.079ZM45.113.7H55.322l10.99,28.55L77.3.7h9.969l-17,40.827H62.108ZM92.37.7H124.08V8.628H101.559v8.223h19.818v7.934H101.559V33.3H124.38v7.933H92.37Zm39,0h19.218c5.345,0,9.489,1.448,12.251,4.111a12.476,12.476,0,0,1,3.6,9.266v.116c0,6.544-3.663,10.656-9.008,12.567L167.7,41.232H156.892l-9.009-12.972h-7.267V41.232h-9.249Zm18.618,19.69c4.5,0,7.086-2.317,7.086-5.733v-.116c0-3.822-2.762-5.792-7.267-5.792h-9.189V20.385ZM183.238,8.918H170.446V.7h34.832V8.918H192.486V41.232h-9.249Zm27.267,14.941V.7h9.25V23.628c0,6.6,3.422,10.018,9.068,10.018s9.069-3.3,9.069-9.729V.7h9.248V23.569c0,12.277-7.146,18.3-18.437,18.3S210.505,35.789,210.505,23.859ZM255.169.7h19.218c5.345,0,9.488,1.448,12.25,4.111a12.471,12.471,0,0,1,3.6,9.266v.116c0,6.544-3.665,10.656-9.01,12.567L291.5,41.232H280.693l-9.009-12.972h-7.267V41.232h-9.248Zm18.617,19.69c4.5,0,7.086-2.317,7.086-5.733v-.116c0-3.822-2.762-5.792-7.266-5.792h-9.189V20.385ZM297.251.7h31.709V8.628H306.438v8.223h19.82v7.934h-19.82V33.3H329.26v7.933H297.251Z" transform="translate(-231.898 -29.53)" fill="#ee7623"/>
  </g>
</svg>
