<?xml version="1.0" encoding="utf-8"?>
<!-- Generator: Adobe Illustrator 26.0.0, SVG Export Plug-In . SVG Version: 6.00 Build 0)  -->
<svg version="1.1" xmlns="http://www.w3.org/2000/svg" xmlns:xlink="http://www.w3.org/1999/xlink" x="0px" y="0px"
	 viewBox="0 0 492.2 123.7" style="enable-background:new 0 0 492.2 123.7;" xml:space="preserve">
<style type="text/css">
	.st0{fill:url(#SVGID_1_);}
	.st1{fill:url(#SVGID_00000141433290225287280790000005292363232461215137_);}
	.st2{fill:url(#SVGID_00000002354597060723675400000000635854898260982948_);}
	.st3{fill:url(#SVGID_00000126292355349385266660000007759009493970548664_);}
	.st4{fill:url(#SVGID_00000132790468638828527140000005819199530559612344_);}
	.st5{fill:url(#SVGID_00000093885812097147602060000006018643809478814350_);}
	.st6{fill:url(#SVGID_00000157282162540678440420000002871134348885423511_);}
	.st7{fill:url(#SVGID_00000169520135969749155640000001527434201412705698_);}
</style>
<g id="Layer_1">
</g>
<g id="Layer_2">
	<g>
		<path d="M196,42.9c0,6.5-4.7,10.2-14.2,10.2h-17.1V14.5h16c8.2,0,13.2,3.5,13.2,9.8c0,4.6-2.6,7.5-6.4,8.8
			C193,34.2,196,37.5,196,42.9z M167.5,17v15.3h13.1c6.7,0,10.5-2.6,10.5-7.7c0-5.1-3.8-7.6-10.5-7.6H167.5z M193.2,42.6
			c0-5.5-4-7.9-11.4-7.9h-14.3v15.9h14.3C189.2,50.6,193.2,48.2,193.2,42.6z"/>
		<path d="M229.4,53l-9.2-12.9c-1.2,0.2-2.4,0.3-3.7,0.3h-11V53h-2.8V14.5h13.8c9.7,0,15.5,4.8,15.5,13c0,6.1-3.3,10.3-9,12
			l9.6,13.5H229.4z M216.5,38c8.2,0,12.6-3.8,12.6-10.4c0-6.7-4.4-10.4-12.6-10.4h-11V38H216.5z"/>
		<path d="M265,42.2h-22.3L237.8,53h-3l17.7-38.5h2.8L273,53h-3L265,42.2z M264,39.8l-10.1-22.2l-10.1,22.2H264z"/>
		<path d="M308,14.5V53h-2.3l-26.2-33.4V53h-2.8V14.5h2.4L305.2,48V14.5H308z"/>
		<path d="M318.1,14.5h15.2c12.2,0,20.4,8,20.4,19.2S345.5,53,333.3,53h-15.2V14.5z M333.1,50.5c10.9,0,17.9-6.9,17.9-16.7
			s-7-16.7-17.9-16.7h-12.2v33.4H333.1z"/>
	</g>
	<g>
		<path d="M161.9,92.9V69.2H174v23.3c0,7.3,3.1,10.3,8.1,10.3c5,0,8.1-2.9,8.1-10.3V69.2h11.9v23.7c0,12.8-7.5,19.9-20.1,19.9
			S161.9,105.6,161.9,92.9z"/>
		<path d="M249.8,69.2v42.8h-10l-18.9-22.8v22.8h-11.8V69.2h10L237.9,92V69.2H249.8z"/>
		<path d="M297.8,100.2c0,7.4-6.1,11.7-17.6,11.7h-23.1V69.2H279c11.2,0,16.7,4.6,16.7,11.2c0,4.1-2.1,7.4-5.7,9.3
			C294.8,91.4,297.8,95,297.8,100.2z M269.1,77.9v8.2h8.3c4,0,6.1-1.4,6.1-4.2c0-2.7-2.1-4.1-6.1-4.1H269.1z M285.6,98.9
			c0-2.9-2.2-4.3-6.4-4.3h-10.1v8.7h10.1C283.4,103.2,285.6,101.8,285.6,98.9z"/>
		<path d="M300.7,90.6c0-12.8,10.1-22.2,23.8-22.2c13.7,0,23.8,9.4,23.8,22.2s-10.1,22.2-23.8,22.2
			C310.7,112.8,300.7,103.4,300.7,90.6z M336,90.6c0-7.4-5.1-12.2-11.5-12.2s-11.5,4.8-11.5,12.2c0,7.4,5.1,12.2,11.5,12.2
			S336,98,336,90.6z"/>
		<path d="M352.9,92.9V69.2H365v23.3c0,7.3,3.1,10.3,8.1,10.3c5,0,8.1-2.9,8.1-10.3V69.2h11.9v23.7c0,12.8-7.5,19.9-20.1,19.9
			S352.9,105.6,352.9,92.9z"/>
		<path d="M440.8,69.2v42.8h-10l-18.9-22.8v22.8h-11.8V69.2h10L428.9,92V69.2H440.8z"/>
		<path d="M448.1,69.2h20.2c14.2,0,23.9,8.2,23.9,21.4s-9.7,21.4-23.9,21.4h-20.2V69.2z M467.8,102.3c7.3,0,12.2-4.3,12.2-11.7
			c0-7.4-4.9-11.7-12.2-11.7h-7.6v23.5H467.8z"/>
	</g>
	<g>
		<linearGradient id="SVGID_1_" gradientUnits="userSpaceOnUse" x1="5.3119" y1="18.8602" x2="107.4577" y2="18.8602">
			<stop  offset="0" style="stop-color:#F16143"/>
			<stop  offset="1" style="stop-color:#FAA549"/>
		</linearGradient>
		<path class="st0" d="M107.5,19c0,0-1.7,12.7-7.2,18.7c0.2-0.2-12-9.4-13.1-10.2c-6-4.3-12.6-8-19.4-10.8c-6.4-2.6-13-4.5-19.8-5.7
			c-6.8-1.2-13.5-2.1-20.4-1.5c-7.7,0.7-14.9,3.6-21,8.2c-0.4,0.3-0.8,0.6-1.2,0.9c0,0,7.3-15.5,28.3-18.1
			c15.5-1.9,32.1,0.8,46.9,5.6C90,9.3,99.2,13.3,107.5,19z"/>
		
			<linearGradient id="SVGID_00000005964254686074671420000015455178260702314656_" gradientUnits="userSpaceOnUse" x1="0" y1="38.0174" x2="93.5517" y2="38.0174">
			<stop  offset="0" style="stop-color:#F16143"/>
			<stop  offset="1" style="stop-color:#FAA549"/>
		</linearGradient>
		<path style="fill:url(#SVGID_00000005964254686074671420000015455178260702314656_);" d="M93.5,45.5c-0.4-0.9-4.8-4.8-6-6
			c-2.6-2.5-5.4-4.9-8.3-7c-5.9-4.4-12.4-8-19.2-10.8c-9.8-4-20.1-7-30.8-6.4c-1.5,0.1-3.1,0.2-4.6,0.4C18.3,16.4,12.9,18,8,22.1
			c-4.7,4-7.7,9.9-8,16.1c-0.4,9.3,5.8,16.9,12.5,22.5c-0.3-1.8-0.6-5.7-0.6-5.7S9.1,51,8.1,49.4c-1.3-2.1-1.9-4.6-2.3-7
			c-0.5-3-0.2-5.8,1.5-8.3c1.9-2.8,4.8-5.6,8-7c3.3-1.5,6.9-2,10.4-2.1c12.4-0.4,24.8,3.3,35.1,10.2c7.6,5.1,15.5,11.9,19.5,20.1
			C85.1,52.7,89.5,49.4,93.5,45.5C93.6,45.6,93.6,45.5,93.5,45.5z"/>
		
			<linearGradient id="SVGID_00000080886332771387255820000009516361218949751187_" gradientUnits="userSpaceOnUse" x1="38.3938" y1="123.6607" x2="38.3938" y2="30.9628">
			<stop  offset="0" style="stop-color:#C2DA6C"/>
			<stop  offset="0.3011" style="stop-color:#C4D96B"/>
			<stop  offset="0.4096" style="stop-color:#CAD866"/>
			<stop  offset="0.4869" style="stop-color:#D5D75D"/>
			<stop  offset="0.549" style="stop-color:#E4D751"/>
			<stop  offset="0.5914" style="stop-color:#F2D543"/>
		</linearGradient>
		<path style="fill:url(#SVGID_00000080886332771387255820000009516361218949751187_);" d="M13.9,34.2c0,0,11.9-4.7,19.8-2.8
			c-0.3,0-2.4,15.1-2.5,16.4c-0.9,7.4-0.9,14.9,0,22.2c0.8,6.8,2.4,13.6,4.7,20.1c2.3,6.5,4.7,12.9,8.6,18.6
			c4.4,6.3,10.4,11.2,17.4,14.4c0.5,0.2,0.9,0.4,1.4,0.6c0,0-17.1,1.2-29.5-15.9C24.5,95.1,18.8,79.3,15.8,64
			C13.9,54.3,12.9,44.2,13.9,34.2z"/>
		
			<linearGradient id="SVGID_00000135681365562688978250000013951497101589420683_" gradientUnits="userSpaceOnUse" x1="60.6475" y1="72.1541" x2="82.403" y2="125.847">
			<stop  offset="0" style="stop-color:#F2D543"/>
			<stop  offset="7.170784e-02" style="stop-color:#E4D751"/>
			<stop  offset="0.1767" style="stop-color:#D5D75D"/>
			<stop  offset="0.3073" style="stop-color:#CAD866"/>
			<stop  offset="0.4908" style="stop-color:#C4D96B"/>
			<stop  offset="1" style="stop-color:#C2DA6C"/>
		</linearGradient>
		<path style="fill:url(#SVGID_00000135681365562688978250000013951497101589420683_);" d="M43.8,33.5c-0.5,0.8-1.8,6.5-2.3,8.2
			c-1,3.5-1.6,7.1-2.1,10.6c-1,7.3-1,14.7-0.1,22c1.3,10.5,3.7,20.9,9.4,30c0.8,1.3,1.7,2.6,2.6,3.9c3.7,5.2,7.7,9.2,13.7,11.4
			c5.8,2.2,12.4,1.9,18-0.9c8.3-4.1,12-13.3,13.6-21.8c-1.5,1.1-4.6,3.3-4.6,3.3s-2.3,4.4-3.1,6.1c-1.2,2.2-3.1,3.9-5,5.5
			c-2.4,1.9-4.9,3-8,2.7c-3.4-0.3-7.2-1.5-10-3.6c-2.9-2.1-5.1-5-6.9-8.1c-6.4-10.7-9.2-23.3-8.1-35.7c0.8-9.1,2.9-19.3,8.1-26.8
			C54.2,37.4,49.1,35.2,43.8,33.5C43.9,33.5,43.8,33.5,43.8,33.5z"/>
		
			<linearGradient id="SVGID_00000063600647310363418130000003247246515030824881_" gradientUnits="userSpaceOnUse" x1="61.1477" y1="64.4334" x2="130.8554" y2="64.4334">
			<stop  offset="0.2255" style="stop-color:#00ADBF"/>
			<stop  offset="0.8222" style="stop-color:#074B7F"/>
		</linearGradient>
		<path style="fill:url(#SVGID_00000063600647310363418130000003247246515030824881_);" d="M73.7,108.7c0,0-10.1-8.3-12.5-16.1
			c0.1,0.3,14.7-5.8,15.9-6.4c6.8-3,13.4-7.4,19.3-11.9c5.5-4.2,9.8-8.9,14.3-14.2c4.4-5.2,8.9-10.6,11.8-16.8
			c3.3-7,4.7-14,3.9-21.6c-0.1-0.5-0.1-1-0.2-1.5c0,0,9.7,14.1,1.3,33.5c-6.2,14.4-17,27.3-28.6,37.6
			C91.4,97.9,82.8,104.5,73.7,108.7z"/>
		
			<linearGradient id="SVGID_00000015325851952905678960000001578423713213683359_" gradientUnits="userSpaceOnUse" x1="56.452" y1="42.9345" x2="122.2355" y2="42.9345">
			<stop  offset="0.2255" style="stop-color:#00ADBF"/>
			<stop  offset="0.8222" style="stop-color:#074B7F"/>
		</linearGradient>
		<path style="fill:url(#SVGID_00000015325851952905678960000001578423713213683359_);" d="M58.5,83.6c1,0.1,6.4-2.6,8.1-3.1
			c3.5-0.9,6.9-2.2,10.2-3.6c6.8-2.9,13.2-6.6,19-11c8.4-6.4,16.2-13.8,21.1-23.3c0.7-1.4,1.4-2.8,2-4.2c2.6-5.8,4-11.3,2.9-17.6
			c-1-6.1-4.7-11.7-9.9-15C104.2,0.6,94.5,2.1,86.3,5c1.7,0.7,5.2,2.3,5.2,2.3s5-0.3,6.8-0.4c2.5-0.1,4.9,0.7,7.2,1.5
			c2.8,1.1,5.1,2.7,6.3,5.5c1.5,3.1,2.4,7,2,10.4c-0.4,3.5-1.8,6.9-3.5,10c-6,10.9-15.4,19.7-26.6,25.1c-8.3,3.9-18.1,7.3-27.2,6.6
			c0,5.5,0.6,11,1.8,16.4C58.3,82.6,58.4,83.5,58.5,83.6z"/>
	</g>
	
		<linearGradient id="SVGID_00000053536183737548720210000005439288761888707746_" gradientUnits="userSpaceOnUse" x1="61.315" y1="64.6781" x2="130.9606" y2="64.6781">
		<stop  offset="0.2255" style="stop-color:#00ADBF"/>
		<stop  offset="0.8222" style="stop-color:#074B7F"/>
	</linearGradient>
	<path style="fill:url(#SVGID_00000053536183737548720210000005439288761888707746_);" d="M73.9,108.9c0,0-10.1-7.9-12.6-15.8
		c0.1,0.3,14.3-5.6,15.5-6.2c6.8-3,13.3-6.8,19.3-11.3c5.5-4.2,10.6-9,15-14.3c4.5-5.3,8.8-10.6,11.7-16.9c3.3-7,4.4-14.7,3.6-22.4
		c-0.1-0.5-0.1-1-0.2-1.5c0,0,9.7,14.2,1.3,33.7c-6.3,14.4-17.1,27.4-28.7,37.8C91.3,98.7,83,104.7,73.9,108.9z"/>
	
		<linearGradient id="SVGID_00000116227786624143938170000013065966797300176561_" gradientUnits="userSpaceOnUse" x1="57.0376" y1="42.9175" x2="123.2137" y2="42.9175">
		<stop  offset="0.2255" style="stop-color:#00ADBF"/>
		<stop  offset="0.8222" style="stop-color:#074B7F"/>
	</linearGradient>
	<path style="fill:url(#SVGID_00000116227786624143938170000013065966797300176561_);" d="M58.9,83.3c1,0.1,6.6-1.7,8.3-2.2
		c3.5-0.9,7-2.2,10.3-3.6c6.8-2.9,13.3-6.6,19.2-11.1C105.1,60,113,52.5,117.9,43c0.7-1.4,1.4-2.8,2-4.2c2.7-5.8,4-11.3,2.9-17.7
		c-1-6.1-4.7-11.7-9.9-15.1C105.1,0.8,95.3,2.3,87,5.2c1.7,0.7,5.4,2.6,5.4,2.6s4.9-0.6,6.7-0.6c2.5-0.1,5,0.7,7.3,1.6
		c2.8,1.1,5.1,2.8,6.4,5.5c1.5,3.1,2.4,7,2,10.5c-0.4,3.6-1.8,7-3.5,10.1c-6,10.9-15.5,19.9-26.8,25.3c-8.3,4-18.2,7.4-27.4,6.6
		C57,72.3,57.6,77.9,58.9,83.3C58.9,83.3,58.9,83.3,58.9,83.3z"/>
</g>
<g id="Layer_3">
</g>
</svg>
