<?xml version="1.0" encoding="UTF-8"?>
<svg width="20px" height="26px" viewBox="0 0 20 26" version="1.1" xmlns="http://www.w3.org/2000/svg" xmlns:xlink="http://www.w3.org/1999/xlink">
    <!-- Generator: Sketch 48.2 (47327) - http://www.bohemiancoding.com/sketch -->
    <title>ribbon</title>
    <desc>Created with Sketch.</desc>
    <defs></defs>
    <g id="About-Us" stroke="none" stroke-width="1" fill="none" fill-rule="evenodd" transform="translate(-366.000000, -2730.000000)">
        <g id="Awards" transform="translate(0.000000, 2448.000000)" fill="#FFFFFF" fill-rule="nonzero">
            <g id="ribbon" transform="translate(365.884615, 282.405864)">
                <circle id="Oval" cx="9.92096698" cy="9.82569682" r="4.98076923"></circle>
                <path d="M18.7863516,7.23435067 L17.7046208,6.89300451 L18.1853901,6.08531221 C18.4605584,5.64227184 18.4603503,5.08143329 18.1848532,4.63859727 C17.9093561,4.19576125 17.4063472,3.94772503 16.8873131,3.99877375 L15.4450054,4.13819682 L15.5940439,2.73915836 C15.649226,2.22135338 15.4061201,1.71702344 14.9666684,1.43765044 C14.5272167,1.15827744 13.9673849,1.15215508 13.5219285,1.42185067 L12.8873131,1.80646605 L12.670967,1.09492759 C12.5117194,0.607610008 12.0937464,0.249961825 11.5876666,0.167976909 C11.0815869,0.0859919939 10.5720767,0.293387894 10.2671208,0.705504514 L9.62289005,1.61415836 L8.90173621,0.763196822 C8.56722302,0.353320866 8.02662852,0.172646873 7.51289157,0.299026161 C6.99915463,0.42540545 6.60407499,0.836255282 6.49789005,1.35454298 L6.25750544,2.56608144 L4.93058236,1.96992759 C4.45436475,1.75607888 3.89800674,1.83140996 3.49580383,2.16419714 C3.09360092,2.49698432 2.91544107,3.02940152 3.03635159,3.53723528 L3.28635159,4.60935067 L2.55558236,4.60935067 C2.03486013,4.60568672 1.55706786,4.8975105 1.32255809,5.36245162 C1.08804832,5.82739273 1.13735917,6.38507993 1.44981313,6.80165836 L1.99308236,7.53242759 L0.969043901,7.95069682 C0.496162678,8.14904926 0.173618075,8.59484856 0.133127342,9.10604406 C0.0926366091,9.61723957 0.340977863,10.1082575 0.776736209,10.3785814 L1.73827467,10.9410814 L0.88250544,11.9026199 C0.533397461,12.2893413 0.43381178,12.8405898 0.625542709,13.3250164 C0.817273638,13.8094429 1.2671441,14.1432225 1.78635159,14.1862737 L3.12289005,14.2968507 L2.76712082,15.3353122 C2.62347361,15.756388 2.69321211,16.2209947 2.95415251,16.581341 C3.2150929,16.9416872 3.63474629,17.1529074 4.07962082,17.1478122 L2.39692852,23.3978122 C2.37300252,23.4873846 2.39211788,23.58299 2.44864586,23.6564764 C2.50517384,23.7299628 2.59267739,23.7729619 2.68539005,23.7728122 L2.76712082,23.7728122 L4.57481313,23.292043 C4.86719589,23.2122664 5.17986026,23.2968697 5.39212082,23.5131968 L6.69981313,24.8353122 C6.7567095,24.8936167 6.83469399,24.9265435 6.91615929,24.9266584 C7.05571339,24.929014 7.17880873,24.8356998 7.21423621,24.7006968 L8.88731313,18.4506968 L9.08923621,18.8064661 C9.29327395,19.1605267 9.6451693,19.4045857 10.0482789,19.4716155 C10.4513885,19.5386452 10.8633292,19.4215983 11.170967,19.1526199 L12.6565439,24.6814661 C12.6919714,24.816469 12.8150667,24.9097832 12.9546208,24.9074276 C13.0360861,24.9073127 13.1140706,24.8743859 13.170967,24.8160814 L14.4786593,23.4939661 C14.6909198,23.2776389 15.0035842,23.1930356 15.295967,23.2728122 L17.1036593,23.7535814 L17.1853901,23.7535814 C17.2781027,23.7537311 17.3656063,23.710732 17.4221342,23.6372456 C17.4786622,23.5637592 17.4977776,23.4681538 17.4738516,23.3785814 L15.5892362,16.4843507 L16.0075054,16.5853122 C16.5137853,16.7094714 17.0466624,16.5355964 17.3822816,16.1367297 C17.7179009,15.7378631 17.7981185,15.1831058 17.5892362,14.7055045 L17.0219285,13.4074276 L18.1901977,13.1622353 C18.7003324,13.0547116 19.1052482,12.6670041 19.2348106,12.1620167 C19.364373,11.6570293 19.1961308,11.1222691 18.8007747,10.7824276 L18.2478901,10.3016584 L19.1661593,9.65742759 C19.5897299,9.35642173 19.8065819,8.84171472 19.7261143,8.32835173 C19.6456467,7.81498874 19.2817078,7.39131841 18.7863516,7.23435067 Z M6.32000544,22.3978122 C5.7746377,21.9003823 5.0221144,21.6979177 4.30077467,21.854543 L5.36327467,17.8978122 C5.4486421,18.3081381 5.71710867,18.6568273 6.09197389,18.8442599 C6.46683911,19.0316925 6.90687044,19.0372522 7.28635159,18.8593507 L6.32000544,22.3978122 Z M15.0603901,21.8208891 C14.4939957,21.8170331 13.9461285,22.0224833 13.5219285,22.3978122 L12.3200054,17.9266584 L13.0267362,18.4603122 C13.4986273,18.8185028 14.1480539,18.8301691 14.6325054,18.4891584 L15.5411593,21.854543 C15.3825385,21.8263987 15.2213849,21.815118 15.0603901,21.8208891 Z M15.2094285,16.3930045 L15.2094285,16.8737737 C15.2094285,16.8737737 15.2094285,16.917043 15.2094285,16.9410814 L15.2094285,16.3930045 Z M9.92096698,16.2487737 C6.37485607,16.2434652 3.50397092,13.3654093 3.50750864,9.81929616 C3.51104635,6.27318305 6.38766826,3.40086102 9.93378269,3.40262789 C13.4798971,3.40439476 16.3536553,6.27958194 16.3536593,9.82569682 C16.3523847,11.530478 15.6739404,13.1649293 14.4675764,14.36949 C13.2612125,15.5740507 11.6257481,16.2500493 9.92096698,16.2487737 Z" id="Shape"></path>
            </g>
        </g>
    </g>
</svg>