<?xml version="1.0" encoding="utf-8"?>
<!-- Generator: Adobe Illustrator 22.1.0, SVG Export Plug-In . SVG Version: 6.00 Build 0)  -->
<svg version="1.1" id="Layer_1" xmlns="http://www.w3.org/2000/svg" xmlns:xlink="http://www.w3.org/1999/xlink" x="0px" y="0px"
	 viewBox="0 0 19.2 16.1" style="enable-background:new 0 0 19.2 16.1;" xml:space="preserve">
<style type="text/css">
	.st0{fill:#D3D655;}
</style>
<path class="st0" d="M19,0c-1.6,0.4-3.1,1.2-4.4,2.1c-1.3,0.9-2.6,2-3.8,3.1C9.7,6.4,8.6,7.6,7.5,8.8C7,9.4,6.5,10.1,6,10.7
	l-0.1,0.1L3.3,6.6L0,8.9l4.6,5.4l1.5,1.8L7,14.2l0.6-1l0.6-1c0.4-0.7,0.8-1.3,1.3-2c0.8-1.3,1.7-2.6,2.7-3.8c1-1.2,2-2.4,3.1-3.4
	c1.2-1,2.5-2,3.9-2.4L19,0z"/>
</svg>
