<?xml version="1.0" encoding="utf-8"?>
<!-- Generator: Adobe Illustrator 27.3.1, SVG Export Plug-In . SVG Version: 6.00 Build 0)  -->
<svg version="1.1" id="Layer_1" xmlns="http://www.w3.org/2000/svg" xmlns:xlink="http://www.w3.org/1999/xlink" x="0px" y="0px"
	 viewBox="0 0 306 180" style="enable-background:new 0 0 306 180;" xml:space="preserve">
<style type="text/css">
	.st0{fill:#EE7623;}
</style>
<g>
	<g>
		<g>
			<path class="st0" d="M23.5,84.3c0-4,0.5-7.6,1.7-10.7c1.1-3.1,2.5-5.8,4.2-7.8C31.1,63.7,33,62,35,61c2-1.1,3.9-1.7,5.6-1.7
				c1,0,1.9,0.2,2.7,0.5s1.5,0.9,2,1.4c0.5,0.6,1,1.2,1.3,1.9s0.5,1.3,0.5,1.9s-0.1,1.1-0.3,1.5c-0.2,0.5-0.4,0.7-0.6,0.9
				c-0.2,0.2-0.4,0.2-0.6,0c-0.2-0.2-0.3-0.6-0.3-1.2c0-1.1-0.3-2.1-0.7-2.9c-0.5-0.9-1.3-1.3-2.5-1.3c-1.5,0-2.7,0.7-4,2
				c-1.1,1.3-2.1,3-2.9,5c-0.7,1.9-1.3,4.1-1.7,6.4s-0.6,4.4-0.6,6.3s0.3,4,0.9,6.3c0.6,2.3,1.4,4.5,2.3,6.5c0.9,2,1.9,3.7,3.1,5
				c1.1,1.3,2.1,2.1,3.1,2.1c1.7,0,3.4-0.6,5-1.8c1.6-1.2,3.2-2.7,4.6-4.6c1.4-1.9,2.7-3.9,4-6.2c1.3-2.2,2.3-4.4,3.4-6.4
				c1-2.1,1.8-3.9,2.5-5.6c0.7-1.6,1.1-2.7,1.5-3.4c0.1-0.4,0.3-0.7,0.7-0.7c0.3-0.1,0.5-0.1,0.7-0.1c0.2,0.1,0.4,0.2,0.5,0.3
				c0.1,0.2,0.1,0.5,0,0.7c-0.3,0.7-0.9,2-1.5,3.8c-0.7,1.8-1.5,3.8-2.6,6s-2.3,4.6-3.7,7s-2.9,4.6-4.7,6.6
				c-1.7,1.9-3.6,3.6-5.7,4.8c-2.1,1.3-4.3,1.9-6.7,1.9c-2.5,0-4.8-0.6-6.8-1.7s-3.8-2.6-5.3-4.5s-2.6-4-3.4-6.3
				C23.9,89.3,23.5,86.8,23.5,84.3z"/>
			<path class="st0" d="M92.5,74.4c0.1-0.3,0.2-0.6,0.4-0.7c0.2-0.2,0.5-0.3,0.7-0.2c0.2,0,0.4,0.1,0.5,0.3c0.1,0.2,0.1,0.5,0.1,0.9
				c-0.3,1.3-0.6,3.5-1.1,6.4s-1.2,6.2-1.9,9.7c-0.7,3.6-1.6,7.2-2.5,11.1c-0.9,3.8-1.9,7.2-2.9,10.3c-1.1,3.1-2.1,5.7-3.3,7.6
				c-1.1,2-2.2,3-3.3,3c-1.7,0-3.2-0.4-4.4-1.1c-1.2-0.8-2.1-1.8-2.9-3.1c-0.7-1.3-1.3-2.7-1.7-4.2c-0.4-1.5-0.7-3.2-0.9-4.7
				c-0.2-1.6-0.3-3.1-0.3-4.5s-0.1-2.6-0.1-3.5c0-0.5,0-1.3,0.1-2.3c0.1-1.1,0.1-2.4,0.3-3.9c0.1-1.5,0.3-3.1,0.3-4.8
				c0.1-1.7,0.3-3.5,0.4-5.2c0.3-4.1,0.7-8.6,1.1-13.5c-0.5,0-1,0.1-1.7,0.4c-0.6,0.3-1.3,0.6-2,0.9s-1.5,0.6-2.4,0.9
				s-1.8,0.4-2.8,0.4c-0.9,0-1.6-0.3-2.1-0.9s-1-1.4-1.3-2.4c-0.3-0.9-0.6-2-0.7-3.1c-0.1-1.1-0.2-2.1-0.2-3.1
				c0-1.2,0.1-2.4,0.4-3.8c0.3-1.3,0.7-2.5,1.1-3.6c0.5-1.1,1.1-2,1.7-2.7s1.5-1.1,2.3-1.1c0.8,0,1.4,0.3,1.9,0.8s0.8,1.2,1.1,2.1
				c0.3,0.9,0.4,1.8,0.5,2.9c0.1,1.1,0.1,2.2,0.1,3.4c-0.1,2.7-0.5,5.7-1.1,9.1c1.1-0.6,2.2-1.1,3.4-1.7c1-0.4,2.1-0.7,3.2-1.1
				s2.3-0.5,3.3-0.5c1.9,0,3.4,0.7,4.4,2.1s1.7,3.3,2.2,5.6c0.5,2.3,0.6,4.9,0.6,7.8c-0.1,2.9-0.2,6-0.5,9s-0.6,6-1,9
				c-0.4,2.9-0.7,5.6-0.9,7.8c-0.3,2.3-0.3,4.2-0.3,5.6s0.3,2.1,0.8,2.1s1.1-0.9,1.8-2.7c0.7-1.8,1.5-4.1,2.3-6.8s1.6-5.9,2.4-9.3
				s1.6-6.7,2.3-9.9c0.7-3.2,1.3-6.1,1.9-8.7C91.8,77.6,92.2,75.6,92.5,74.4z M63.7,72.4c0.6-2.9,1-5.6,1.1-7.9
				c0.1-1,0.1-1.9,0.1-2.9c0-0.9-0.1-1.8-0.2-2.5s-0.3-1.3-0.7-1.8c-0.3-0.5-0.7-0.7-1.3-0.7c-0.4,0-0.7,0.3-1.1,0.9
				c-0.3,0.6-0.7,1.3-1,2.2s-0.5,1.8-0.7,2.9c-0.2,1.1-0.3,2-0.3,2.9c0,1,0.1,2,0.2,2.9c0.1,0.9,0.3,1.7,0.6,2.3s0.7,1.1,1.2,1.5
				C62.2,72.5,62.9,72.5,63.7,72.4z"/>
			<path class="st0" d="M123.9,73.7c0.1-0.3,0.3-0.5,0.5-0.6s0.4-0.1,0.6-0.1s0.3,0.1,0.5,0.3c0.1,0.2,0.1,0.3,0.1,0.5
				c-0.3,0.9-0.7,2.2-1.3,3.9c-0.6,1.7-1.3,3.6-2.3,5.8c-0.9,2.1-2,4.3-3.3,6.6c-1.3,2.2-2.7,4.3-4.2,6.1c-1.6,1.8-3.3,3.4-5.2,4.5
				s-3.9,1.7-6,1.7c-2.3,0-4.4-0.5-6.2-1.3c-1.9-0.9-3.4-2.1-4.7-3.8c-1.3-1.6-2.2-3.5-2.9-5.6c-0.7-2.1-1-4.6-1-7.1
				c0-2.6,0.5-5.1,1.5-7.3c1-2.2,2.2-4.2,3.8-5.8c1.5-1.7,3.3-2.9,5.2-3.9c1.9-0.9,3.8-1.4,5.6-1.4c1.1,0,2,0.2,2.8,0.7
				s1.5,1.1,1.9,1.8c0.5,0.7,0.9,1.6,1.1,2.5c0.3,0.9,0.4,1.9,0.4,2.9c0,0.9-0.2,1.7-0.6,2.6s-0.9,1.7-1.5,2.5s-1.3,1.5-2.1,2.3
				c-0.8,0.7-1.6,1.4-2.5,1.9c-1.9,1.5-4.2,2.8-6.6,4c0.5,2.2,1.1,4.1,1.9,5.8c0.3,0.7,0.7,1.4,1.1,2.1c0.5,0.7,0.9,1.3,1.5,1.8
				c0.5,0.5,1.1,0.9,1.8,1.3c0.7,0.3,1.4,0.5,2.3,0.5c1.5,0,2.9-0.5,4.4-1.5c1.4-1.1,2.7-2.3,4-4c1.2-1.6,2.3-3.4,3.4-5.4
				s1.9-3.9,2.7-5.8c0.8-1.9,1.5-3.6,2-5.1C123.2,75.6,123.6,74.4,123.9,73.7z M105.4,71c-1.2,0-2.3,0.2-3.1,0.6
				c-0.9,0.4-1.6,0.9-2.2,1.6s-1.1,1.4-1.5,2.3s-0.7,1.7-0.9,2.6c-0.5,2.1-0.7,4.4-0.5,7.1c2.1-0.9,3.9-1.9,5.5-3.2
				c1.3-1,2.6-2.1,3.8-3.4c1.1-1.3,1.7-2.6,1.7-4c0-1-0.2-1.8-0.7-2.6C107.1,71.4,106.4,71,105.4,71z"/>
			<path class="st0" d="M161.7,74.8c0.1-0.5,0.3-0.8,0.5-1c0.3-0.2,0.5-0.3,0.7-0.3s0.4,0.1,0.5,0.4s0.1,0.5,0,0.9
				c-0.3,0.9-0.7,2.3-1.4,4.4c-0.6,1.9-1.4,4.2-2.3,6.6c-0.9,2.4-2,4.8-3.2,7.4c-1.2,2.5-2.5,4.8-4,6.9c-1.4,2.1-2.9,3.8-4.6,5.1
				c-1.7,1.3-3.3,2-5,2s-3.2-0.5-4.4-1.3c-1.3-0.9-2.4-2.1-3.4-3.8c-0.9-1.6-1.7-3.6-2.2-5.9s-0.8-4.9-0.9-7.7c-1,1.5-2.1,2.9-3.3,4
				s-2.5,1.6-4,1.6c-0.8,0-1.7-0.3-2.6-0.9s-1.7-1.5-2.5-2.5c-0.7-1.1-1.4-2.3-1.9-3.8c-0.5-1.4-0.7-2.9-0.7-4.4
				c0-1.7,0.5-3.8,1.3-6.2c0.9-2.3,2.1-4.6,3.8-6.6c1.7-2.1,3.8-3.9,6.2-5.4c2.5-1.5,5.3-2.2,8.5-2.2c1.1,0,2.2,0.2,3.2,0.6
				c0.9,0.4,1.7,0.9,2.4,1.6c0.7,0.7,1.1,1.4,1.5,2.2c0.3,0.8,0.5,1.6,0.5,2.4s-0.1,1.1-0.3,1.1c-0.3-0.1-0.6-0.3-1.1-0.7
				s-1.3-0.8-2.2-1.3s-2.1-0.7-3.4-0.7c-1.5,0-3.1,0.7-4.6,2.1s-2.9,3.2-4,5.2c-1.2,2-2.1,4.2-2.9,6.4c-0.7,2.2-1.1,4.2-1.1,5.8
				c0,1,0.1,2,0.3,2.9c0.2,0.9,0.6,1.4,1.3,1.4c0.5,0,1.1-0.5,1.7-1.4c0.7-0.9,1.3-2.1,2-3.4s1.3-2.7,1.9-4c0.6-1.4,1.1-2.5,1.4-3.5
				c0.1-0.3,0.2-0.6,0.3-0.9s0.2-0.5,0.3-0.7c0.5-1.1,1-2,1.7-2.7c0.6-0.7,1.3-1,2-1c0.8,0,1.5,0.3,2.1,0.8s1.1,1.2,1.5,1.9
				c0.4,0.7,0.7,1.5,0.9,2.3s0.3,1.4,0.3,1.9c0,0.3-0.1,1.1-0.3,2.3c-0.2,1.2-0.5,2.7-0.7,4.4s-0.4,3.5-0.5,5.4s-0.1,3.6,0.1,5.2
				c0.2,1.6,0.5,2.9,1.1,4c0.5,1,1.5,1.5,2.7,1.5c1.1,0,2.3-0.6,3.6-1.8c1.2-1.2,2.3-2.7,3.5-4.6c1.1-1.8,2.2-3.9,3.3-6.1
				s2-4.4,2.8-6.6c0.8-2.1,1.5-4.1,2.1-5.8C160.9,76.9,161.4,75.6,161.7,74.8z"/>
			<path class="st0" d="M188.2,75c0-0.3,0.1-0.6,0.3-0.7c0.2-0.2,0.5-0.3,0.7-0.3c0.3,0,0.5,0.1,0.7,0.3c0.2,0.2,0.3,0.5,0.3,0.9
				c0,1.1-0.2,2.7-0.6,5c-0.4,2.3-0.9,4.8-1.7,7.5c-0.7,2.7-1.7,5.6-2.7,8.4s-2.3,5.5-3.7,7.9c-1.4,2.3-2.9,4.3-4.6,5.8
				c-1.7,1.5-3.5,2.3-5.4,2.3c-1.3,0-2.6-0.6-3.9-1.8c-1.3-1.2-2.5-2.8-3.7-5c-1.1-2.1-2.3-4.6-3.3-7.5s-1.9-6-2.6-9.5
				c-0.7-3.4-1.3-7-1.7-10.8s-0.6-7.6-0.6-11.6c0-2.6,0.2-5.6,0.5-8.9c0.3-3.3,0.9-6.7,1.4-10.3c-0.9,0-1.7,0.1-2.6,0.1
				c-0.8,0.1-1.7,0.2-2.7,0.3s-1.9,0.3-3,0.5c-0.3,0.1-0.6,0.1-0.8-0.1s-0.3-0.3-0.3-0.6c0-0.2,0.1-0.5,0.2-0.7
				c0.2-0.2,0.5-0.4,0.9-0.5c1-0.3,2.1-0.5,3.6-0.7c1.4-0.2,3.1-0.4,5.2-0.5c0.5-3.2,1.1-6.3,1.8-9.3c0.7-2.9,1.3-5.6,1.9-7.9
				c0.6-2.3,1.2-4.1,1.8-5.5c0.5-1.3,1-2.1,1.3-2.1c0.5,0,1.2,0.1,2.1,0.4c0.9,0.3,1.7,0.7,2.5,1.4c0.8,0.7,1.5,1.6,2.1,2.7
				c0.5,1.1,0.9,2.5,0.9,4.2s-0.3,4-0.8,6.8s-1.1,5.9-1.8,9.4c1.7,0.1,3.4,0.3,4.8,0.5c1.5,0.1,2.7,0.3,4,0.5
				c0.3,0.1,0.6,0.2,0.7,0.4c0.1,0.2,0.2,0.5,0.2,0.7c0,0.3-0.1,0.5-0.3,0.6c-0.2,0.2-0.5,0.2-0.9,0.2c-1.1-0.1-2.1-0.3-3.2-0.3
				c-1.1-0.1-2-0.2-2.8-0.3c-1-0.1-1.9-0.2-2.9-0.2c-0.7,3.5-1.3,7.1-1.8,10.9S167,65,167,68.7c0,1.7,0.1,4,0.1,6.6
				c0.1,2.6,0.2,5.4,0.4,8.3s0.5,5.8,0.8,8.8c0.3,2.9,0.8,5.6,1.3,7.9s1.1,4.2,1.9,5.6c0.7,1.4,1.6,2.1,2.6,2.1s2.1-0.7,3.2-2
				c1.1-1.3,2.2-3.1,3.3-5.2s2-4.4,2.9-7c0.9-2.5,1.7-5,2.5-7.5c0.7-2.4,1.3-4.7,1.7-6.8C188,77.7,188.2,76.2,188.2,75z"/>
			<path class="st0" d="M211.8,74.1c0.1-0.3,0.3-0.6,0.5-0.7s0.5-0.2,0.7-0.1c0.2,0,0.4,0.1,0.5,0.3c0.1,0.1,0.1,0.3,0.1,0.7
				c-0.3,0.9-0.7,2.2-1.3,4c-0.6,1.7-1.3,3.7-2.3,5.8c-0.9,2.1-1.9,4.2-3.1,6.4s-2.4,4.2-3.8,6c-1.4,1.8-2.9,3.3-4.4,4.4
				s-3.2,1.7-4.9,1.7c-1.5,0-2.9-0.5-4.2-1.5s-2.3-2.3-3.2-3.9c-0.9-1.5-1.6-3.3-2.1-5.2c-0.5-1.9-0.7-3.8-0.7-5.5s0.1-3.7,0.3-5.8
				s0.4-4.2,0.7-6.2s0.5-3.9,0.7-5.5c0.2-1.7,0.3-2.9,0.3-3.8s0.5-1.5,1.5-1.9c1-0.3,2.1-0.3,3.3,0.1c1.2,0.3,2.3,1.1,3.3,2.3
				c1,1.1,1.5,2.7,1.5,4.8c0,1.1-0.1,2.6-0.3,4.4c-0.2,1.7-0.4,3.6-0.6,5.6c-0.2,1.9-0.3,3.9-0.5,5.8s-0.1,3.7,0.1,5.3
				c0.2,1.6,0.6,2.9,1.3,3.8c0.6,1,1.5,1.5,2.7,1.5c0.9,0,1.9-0.5,2.9-1.3c1-0.9,1.9-2.1,2.9-3.5c0.9-1.4,1.8-3,2.7-4.8
				c0.9-1.7,1.7-3.5,2.4-5.2s1.3-3.2,1.9-4.6C211.1,76,211.5,74.8,211.8,74.1z M190.4,53.3c-0.8,0-1.5-0.3-2.1-1
				c-0.5-0.7-1-1.4-1.3-2.3c-0.3-0.9-0.5-1.8-0.7-2.7c-0.1-0.9-0.2-1.7-0.2-2.3c0-0.9,0.6-1.4,1.8-1.3c1.2,0,2.5,0.4,4,1.1
				c1.4,0.7,2.7,1.8,4,3.2c1.2,1.4,1.8,3,1.8,4.8c0,0.9-0.2,1.4-0.7,1.5c-0.5,0.2-1,0.2-1.7,0s-1.5-0.4-2.3-0.7
				C192.1,53.4,191.2,53.3,190.4,53.3z"/>
			<path class="st0" d="M252.5,74c0.1-0.5,0.2-0.7,0.5-0.9c0.3-0.1,0.5-0.2,0.7-0.1c0.3,0.1,0.5,0.2,0.6,0.5c0.2,0.3,0.2,0.6,0.2,1
				c-0.1,0.6-0.3,1.5-0.5,2.6c-0.3,1.1-0.6,2.3-1,3.5c-0.4,1.3-0.9,2.5-1.5,3.8s-1.3,2.5-2.2,3.5c-0.9,1.1-1.8,1.9-2.9,2.6
				c-1.1,0.7-2.3,1-3.6,1c-0.9,0-1.8-0.1-2.7-0.2s-1.7-0.3-2.3-0.5c-0.7-0.2-1.5-0.5-2.3-0.8c-0.2,1.4-0.5,3.2-0.9,5.4
				c-0.3,2.2-0.8,4.5-1.3,7c-0.5,2.4-1.1,4.9-1.9,7.4c-0.7,2.5-1.5,4.7-2.4,6.7s-1.8,3.6-2.8,4.8c-1,1.3-2.1,1.9-3.2,1.9
				c-2.4,0-4.5-0.7-6.2-1.9c-1.7-1.3-3.2-3.1-4.5-5.2c-1.2-2.1-2.2-4.6-2.9-7.4s-1.3-5.7-1.7-8.7s-0.7-6-0.8-9s-0.2-5.7-0.2-8.2
				c0-2.7,0-4.9,0.1-6.4s0.2-2.5,0.5-3.2c0.3-0.6,0.7-1,1.4-1.1s1.6-0.1,2.8-0.1c1.1,0,2.2,0.1,3.2,0.5c1,0.3,1.9,0.7,2.6,1.4
				c0.7,0.7,1.3,1.5,1.8,2.5s0.7,2.2,0.7,3.6c0,0.9,0,2.5,0.1,4.8c0.1,2.2,0.1,4.8,0.3,7.6c0.1,2.8,0.3,5.8,0.5,8.8
				c0.2,3.1,0.5,5.8,0.9,8.4c0.3,2.5,0.7,4.6,1.2,6.2s1,2.5,1.7,2.5c0.8,0,1.5-0.7,2.3-1.9s1.5-2.9,2.2-4.9c0.7-1.9,1.3-4.2,1.9-6.4
				c0.6-2.3,1.1-4.6,1.6-6.7s0.9-4,1.1-5.6c0.3-1.6,0.5-2.7,0.5-3.2c-1.9-0.9-3.4-1.9-4.5-2.9s-2.1-2.3-3-3.9s-1.4-3.5-1.4-5.8
				c0-1.2,0.1-2.4,0.2-3.6c0.1-1.1,0.4-2.1,0.8-3c0.4-0.9,0.9-1.6,1.5-2.1s1.5-0.8,2.5-0.8c1.3,0,2.4,0.4,3.3,1.3
				c0.9,0.9,1.5,1.9,1.9,3.4c0.5,1.4,0.8,3,0.9,4.8c0.2,1.9,0.3,3.8,0.3,5.7c0,0.5,0,1.1-0.1,1.7s-0.1,1.2-0.1,1.8
				c-0.1,0.7-0.2,1.3-0.2,2c0.6,0.3,1.3,0.6,1.9,0.8c0.6,0.2,1.4,0.3,2.2,0.5c0.9,0.1,1.8,0.2,2.8,0.2c1.6,0,3-0.7,4.2-1.9
				c1.1-1.3,2.1-2.8,2.9-4.6c0.7-1.7,1.3-3.4,1.7-5.2C252,75.9,252.3,74.6,252.5,74z M234.2,85.9c0.1-0.4,0.1-0.9,0.1-1.5
				c0.1-0.6,0.1-1.4,0.1-2.3c0-1.1,0-2.5-0.1-4s-0.2-2.9-0.5-4.3c-0.3-1.3-0.7-2.5-1.4-3.4c-0.6-0.9-1.5-1.4-2.6-1.4
				c-0.6,0-1.1,0.3-1.4,0.7c-0.3,0.5-0.7,1.1-0.9,1.9c-0.2,0.7-0.3,1.5-0.5,2.5c-0.1,0.9-0.1,1.7-0.1,2.3c0,1.9,0.3,3.6,1.1,5
				c0.7,1.3,1.5,2.4,2.4,3.3c0.9,0.8,2.1,1.6,3.6,2.3C234.1,86.7,234.2,86.4,234.2,85.9z"/>
			<path class="st0" d="M282.5,73.7c0.1-0.3,0.3-0.5,0.5-0.6s0.4-0.1,0.6-0.1s0.3,0.1,0.5,0.3c0.1,0.2,0.1,0.3,0.1,0.5
				c-0.3,0.9-0.7,2.2-1.3,3.9c-0.6,1.7-1.3,3.6-2.3,5.8c-0.9,2.1-2,4.3-3.2,6.6c-1.3,2.2-2.7,4.3-4.2,6.1c-1.6,1.8-3.3,3.4-5.2,4.5
				s-3.9,1.7-6,1.7c-2.3,0-4.4-0.5-6.2-1.3c-1.9-0.9-3.4-2.1-4.7-3.8c-1.3-1.6-2.2-3.5-2.9-5.6s-1-4.6-1-7.1c0-2.6,0.5-5.1,1.5-7.3
				c1-2.2,2.2-4.2,3.8-5.8c1.5-1.7,3.3-2.9,5.2-3.9c1.9-0.9,3.8-1.4,5.6-1.4c1.1,0,2,0.2,2.8,0.7s1.5,1.1,1.9,1.8
				c0.5,0.7,0.9,1.6,1.1,2.5c0.3,0.9,0.4,1.9,0.4,2.9c0,0.9-0.2,1.7-0.6,2.6s-0.9,1.7-1.5,2.5s-1.3,1.5-2.1,2.3
				c-0.8,0.7-1.6,1.4-2.5,1.9c-1.9,1.5-4.2,2.8-6.6,4c0.5,2.2,1.1,4.1,1.9,5.8c0.3,0.7,0.7,1.4,1.1,2.1c0.5,0.7,0.9,1.3,1.5,1.8
				c0.5,0.5,1.1,0.9,1.8,1.3s1.4,0.5,2.3,0.5c1.5,0,2.9-0.5,4.4-1.5c1.4-1.1,2.7-2.3,4-4c1.2-1.6,2.3-3.4,3.4-5.4s1.9-3.9,2.7-5.8
				c0.8-1.9,1.5-3.6,2-5.1C281.9,75.6,282.3,74.4,282.5,73.7z M264.1,71c-1.2,0-2.3,0.2-3.1,0.6c-0.9,0.4-1.6,0.9-2.2,1.6
				s-1.1,1.4-1.5,2.3s-0.7,1.7-0.9,2.6c-0.5,2.1-0.7,4.4-0.5,7.1c2.1-0.9,3.9-1.9,5.5-3.2c1.3-1,2.6-2.1,3.8-3.4
				c1.1-1.3,1.7-2.6,1.7-4c0-1-0.2-1.8-0.7-2.6C265.8,71.4,265.1,71,264.1,71z"/>
		</g>
	</g>
	<g>
		<path class="st0" d="M185.9,50.6c0.3,0.9,0.7,1.7,1.3,2.3c0.5,0.7,1.3,1,2.1,1s1.7,0.1,2.5,0.4c0.9,0.3,1.6,0.5,2.3,0.7
			s1.3,0.2,1.7,0c0.5-0.2,0.7-0.7,0.7-1.5c0-1.8-0.6-3.4-1.8-4.8c-1.2-1.4-2.5-2.5-4-3.2c-1.4-0.7-2.7-1.1-4-1.1
			c-1.2,0-1.8,0.4-1.8,1.3c0,0.6,0.1,1.3,0.2,2.3C185.4,48.9,185.6,49.8,185.9,50.6z"/>
		<path class="st0" d="M283,74c-0.1-0.2-0.3-0.3-0.5-0.3s-0.4,0-0.6,0.1s-0.4,0.3-0.5,0.6c-0.3,0.7-0.6,1.9-1.1,3.4s-1.2,3.2-2,5.1
			s-1.7,3.8-2.7,5.8c-1.1,2-2.2,3.8-3.4,5.4s-2.5,2.9-4,4c-1.4,1.1-2.9,1.5-4.4,1.5c-0.8,0-1.6-0.1-2.3-0.5
			c-0.7-0.4-1.3-0.7-1.8-1.3c-0.5-0.5-1-1.1-1.5-1.8c-0.5-0.7-0.8-1.4-1.1-2.1c-0.8-1.7-1.4-3.6-1.9-5.8c2.5-1.2,4.7-2.5,6.6-4
			c0.8-0.6,1.7-1.3,2.5-1.9c0.8-0.7,1.5-1.5,2.1-2.3s1.1-1.6,1.5-2.5s0.6-1.7,0.6-2.6c0-1-0.1-1.9-0.4-2.9c-0.3-0.9-0.7-1.8-1.1-2.5
			c-0.5-0.7-1.1-1.3-1.9-1.8s-1.7-0.7-2.8-0.7c-1.9,0-3.8,0.5-5.6,1.4c-1.8,0.9-3.6,2.3-5.2,3.9c-1.5,1.7-2.8,3.6-3.8,5.8
			c-1,2.2-1.5,4.7-1.5,7.3c0,0.8,0.1,1.6,0.1,2.3c-0.1,0.1-0.2,0.3-0.3,0.3c-1.1,1.3-2.5,1.9-4.2,1.9c-1,0-1.9-0.1-2.8-0.2
			c-0.9-0.1-1.6-0.3-2.2-0.5c-0.7-0.2-1.4-0.5-1.9-0.8c0.1-0.7,0.1-1.3,0.2-2c0.1-0.6,0.1-1.2,0.1-1.8c0.1-0.6,0.1-1.2,0.1-1.7
			c0-1.9-0.1-3.8-0.3-5.7s-0.5-3.5-0.9-4.8c-0.5-1.4-1.1-2.5-1.9-3.4c-0.9-0.9-1.9-1.3-3.3-1.3c-1,0-1.8,0.3-2.5,0.8
			c-0.6,0.5-1.1,1.3-1.5,2.1c-0.4,0.8-0.7,1.9-0.8,3s-0.2,2.3-0.2,3.6c0,2.2,0.5,4.2,1.4,5.8s1.9,2.9,3,3.9s2.6,2,4.5,2.9
			c-0.1,0.5-0.2,1.5-0.5,3.2c-0.3,1.6-0.7,3.5-1.1,5.6c-0.5,2.1-1,4.4-1.6,6.7c-0.6,2.3-1.3,4.5-1.9,6.4c-0.7,1.9-1.4,3.6-2.2,4.9
			c-0.7,1.3-1.5,1.9-2.3,1.9c-0.7,0-1.3-0.8-1.7-2.5c-0.5-1.6-0.9-3.7-1.2-6.2s-0.6-5.3-0.9-8.4c-0.3-3.1-0.4-6-0.5-8.8
			s-0.2-5.4-0.3-7.6s-0.1-3.8-0.1-4.8c0-1.3-0.2-2.5-0.7-3.6c-0.5-1-1-1.8-1.8-2.5c-0.7-0.7-1.6-1.1-2.6-1.4s-2.1-0.5-3.2-0.5
			c-1.2,0-2.1,0.1-2.8,0.1c-0.7,0.1-1.1,0.4-1.4,1.1c-0.3,0.6-0.5,1.7-0.5,3.2c-0.1,1.5-0.1,3.6-0.1,6.4c0,1.3,0,2.7,0.1,4.2
			c-0.1,0.1-0.1,0.3-0.2,0.5c-0.9,1.7-1.8,3.4-2.7,4.8s-1.9,2.6-2.9,3.5s-1.9,1.3-2.9,1.3c-1.2,0-2.1-0.5-2.7-1.5s-1-2.3-1.3-3.8
			c-0.2-1.6-0.3-3.4-0.1-5.3c0.1-1.9,0.3-3.9,0.5-5.8s0.4-3.8,0.6-5.6c0.2-1.7,0.3-3.2,0.3-4.4c0-2.1-0.5-3.6-1.5-4.8
			c-1-1.1-2.1-1.9-3.3-2.3c-1.2-0.3-2.3-0.4-3.3-0.1c-1,0.3-1.5,1-1.5,1.9s-0.1,2.1-0.3,3.8c-0.2,1.7-0.4,3.5-0.7,5.5
			s-0.5,4.1-0.7,6.2s-0.3,4-0.3,5.8c0,1.7,0.3,3.6,0.7,5.4c-0.3,0.7-0.5,1.5-0.8,2.2c-0.9,2.5-1.9,4.9-2.9,7
			c-1.1,2.1-2.1,3.8-3.3,5.2c-1.1,1.3-2.2,2-3.2,2s-1.9-0.7-2.6-2.1s-1.3-3.4-1.9-5.6c-0.5-2.3-1-5-1.3-7.9s-0.6-5.8-0.8-8.8
			c-0.2-2.9-0.3-5.7-0.4-8.3c-0.1-2.6-0.1-4.8-0.1-6.6c0-3.7,0.3-7.4,0.7-11.1c0.5-3.8,1.1-7.4,1.8-10.9c0.9,0.1,1.9,0.1,2.9,0.2
			c0.8,0.1,1.7,0.2,2.8,0.3s2.1,0.2,3.2,0.3c0.3,0.1,0.6,0,0.9-0.2c0.2-0.2,0.3-0.4,0.3-0.6c0-0.3-0.1-0.5-0.2-0.7
			c-0.1-0.2-0.4-0.3-0.7-0.4c-1.1-0.2-2.5-0.3-4-0.5c-1.5-0.1-3.1-0.3-4.8-0.5c0.7-3.5,1.3-6.6,1.8-9.4s0.8-5.1,0.8-6.8
			c0-1.7-0.3-3-0.9-4.2c-0.5-1.1-1.3-2-2.1-2.7s-1.6-1.1-2.5-1.4s-1.5-0.4-2.1-0.4c-0.3,0-0.8,0.7-1.3,2.1c-0.5,1.3-1.1,3.2-1.8,5.5
			c-0.6,2.3-1.3,4.9-1.9,7.9c-0.7,2.9-1.3,6-1.8,9.3c-2.1,0.1-3.8,0.3-5.2,0.5s-2.5,0.5-3.6,0.7c-0.5,0.1-0.7,0.3-0.9,0.5
			s-0.3,0.5-0.2,0.7c0,0.2,0.1,0.4,0.3,0.6c0.2,0.2,0.5,0.2,0.8,0.1c1-0.2,2-0.3,3-0.5c1-0.1,1.9-0.2,2.7-0.3
			c0.9-0.1,1.7-0.1,2.6-0.1c-0.6,3.5-1.1,6.9-1.4,10.3c-0.3,3.3-0.5,6.3-0.5,8.9c0,4,0.2,7.8,0.6,11.6c0.3,2.8,0.7,5.6,1.2,8.2
			c-0.7,1.7-1.4,3.4-2.2,5.1c-1.1,2.2-2.1,4.3-3.3,6.1c-1.1,1.8-2.3,3.4-3.5,4.6s-2.3,1.8-3.6,1.8s-2.1-0.5-2.7-1.5
			c-0.5-1-0.9-2.3-1.1-4c-0.2-1.6-0.2-3.4-0.1-5.2c0.1-1.9,0.3-3.7,0.5-5.4c0.2-1.7,0.5-3.2,0.7-4.4c0.2-1.3,0.3-2,0.3-2.3
			c0-0.5-0.1-1.1-0.3-1.9s-0.5-1.5-0.9-2.3c-0.4-0.7-0.9-1.4-1.5-1.9s-1.3-0.8-2.1-0.8c-0.7,0-1.4,0.3-2,1s-1.1,1.5-1.7,2.7
			c-0.1,0.3-0.2,0.5-0.3,0.7c-0.1,0.3-0.2,0.5-0.3,0.9c-0.3,0.9-0.8,2.1-1.4,3.5c-0.6,1.4-1.2,2.7-1.9,4s-1.3,2.4-2,3.4
			c-0.7,0.9-1.3,1.4-1.7,1.4c-0.7,0-1.1-0.5-1.3-1.4c-0.2-0.9-0.3-1.9-0.3-2.9c0-1.6,0.3-3.6,1.1-5.8c0.7-2.2,1.7-4.4,2.9-6.4
			c1.2-2,2.5-3.8,4-5.2s3-2.1,4.6-2.1c1.3,0,2.4,0.2,3.4,0.7c0.9,0.5,1.7,0.9,2.2,1.3s0.9,0.6,1.1,0.7c0.3,0.1,0.3-0.3,0.3-1.1
			c0-0.8-0.2-1.6-0.5-2.4s-0.9-1.5-1.5-2.2s-1.5-1.2-2.4-1.6c-0.9-0.4-2-0.6-3.2-0.6c-3.2,0-6,0.7-8.5,2.2c-2.5,1.5-4.6,3.2-6.2,5.4
			c-1.7,2.1-2.9,4.3-3.8,6.6c-0.9,2.3-1.3,4.4-1.3,6.2c0,1.5,0.3,3,0.7,4.4c0.1,0.2,0.1,0.3,0.2,0.5c-0.1,0.2-0.3,0.5-0.3,0.7
			c-1.1,2-2.2,3.8-3.4,5.4c-1.2,1.6-2.5,2.9-4,4c-1.4,1.1-2.9,1.5-4.4,1.5c-0.8,0-1.6-0.1-2.3-0.5s-1.3-0.7-1.8-1.3
			c-0.5-0.5-1-1.1-1.5-1.8c-0.5-0.7-0.8-1.4-1.1-2.1c-0.8-1.7-1.4-3.6-1.9-5.8c2.5-1.2,4.7-2.5,6.6-4c0.8-0.6,1.7-1.3,2.5-1.9
			c0.8-0.7,1.5-1.5,2.1-2.3s1.1-1.6,1.5-2.5s0.6-1.7,0.6-2.6c0-1-0.1-1.9-0.4-2.9c-0.3-0.9-0.7-1.8-1.1-2.5
			c-0.5-0.7-1.1-1.3-1.9-1.8s-1.7-0.7-2.8-0.7c-1.9,0-3.8,0.5-5.6,1.4c-1.9,0.9-3.6,2.3-5.2,3.9c-1.5,1.7-2.8,3.6-3.8,5.8
			c-1,2.2-1.5,4.7-1.5,7.3c0,2,0.2,3.8,0.6,5.6c-0.7,2.8-1.3,5.6-2,8.6c-0.8,3.4-1.6,6.5-2.4,9.3c-0.8,2.7-1.5,5.1-2.3,6.8
			c-0.7,1.8-1.3,2.7-1.8,2.7s-0.8-0.7-0.8-2.1s0.1-3.3,0.3-5.6c0.3-2.3,0.5-4.9,0.9-7.8s0.7-6,1-9s0.4-6,0.5-9
			c0.1-2.9-0.1-5.6-0.6-7.8c-0.5-2.3-1.1-4.2-2.2-5.6c-1-1.4-2.5-2.1-4.4-2.1c-1,0-2.1,0.2-3.3,0.5c-1.2,0.3-2.2,0.7-3.2,1.1
			c-1.1,0.5-2.3,1.1-3.4,1.7c0.6-3.4,1-6.4,1.1-9.1c0.1-1.1,0.1-2.2-0.1-3.4c-0.1-1.1-0.2-2.1-0.5-2.9c-0.3-0.8-0.6-1.5-1.1-2.1
			c-0.5-0.5-1.1-0.8-1.9-0.8s-1.6,0.3-2.3,1.1s-1.3,1.7-1.7,2.7c-0.5,1.1-0.9,2.3-1.1,3.6C56.1,63,56,64.2,56,65.5
			c0,1,0.1,2,0.2,3.1c0.1,1.1,0.3,2.1,0.7,3.1c0.3,0.9,0.8,1.7,1.3,2.4c0.5,0.6,1.3,0.9,2.1,0.9c0.3,0,0.6,0,0.9-0.1
			c-0.3,0.7-0.7,1.5-1.1,2.7c-0.7,1.6-1.5,3.5-2.5,5.6s-2.1,4.2-3.4,6.4c-1.3,2.2-2.6,4.3-4,6.2c-1.4,1.9-2.9,3.4-4.6,4.6
			c-1.6,1.2-3.3,1.8-5,1.8c-1,0-2-0.7-3.1-2.1c-1.1-1.3-2.1-3.1-3.1-5s-1.7-4.2-2.3-6.5c-0.6-2.3-0.9-4.4-0.9-6.3s0.2-4,0.6-6.3
			c0.4-2.3,0.9-4.4,1.7-6.4c0.7-1.9,1.7-3.6,2.9-5s2.5-2,4-2c1.2,0,2.1,0.4,2.5,1.3c0.5,0.9,0.7,1.8,0.7,2.9c0,0.6,0.1,1,0.3,1.2
			s0.4,0.2,0.6,0c0.2-0.2,0.4-0.5,0.6-0.9c0.2-0.5,0.3-0.9,0.3-1.5s-0.1-1.2-0.5-1.9c-0.3-0.7-0.7-1.3-1.3-1.9
			c-0.5-0.6-1.2-1.1-2-1.4c-0.8-0.3-1.7-0.5-2.7-0.5c-1.7,0-3.6,0.5-5.6,1.7c-2,1.1-3.8,2.7-5.6,4.8c-1.7,2.1-3.2,4.8-4.2,7.8
			c-0.7,3.3-1.2,6.8-1.2,10.8c0,2.5,0.4,4.9,1.2,7.2c0.8,2.3,1.9,4.5,3.4,6.3c1.5,1.9,3.2,3.4,5.3,4.5s4.4,1.7,6.8,1.7
			s4.6-0.6,6.7-1.9s4-2.9,5.7-4.8s3.3-4.2,4.7-6.6s2.6-4.8,3.7-7c1.1-2.2,1.9-4.3,2.6-6c0.7-1.8,1.2-3.1,1.5-3.8c0,0,0,0,0-0.1
			c0.7-0.3,1.4-0.5,2-0.7c0.7-0.3,1.4-0.6,2-0.9s1.1-0.4,1.7-0.4c-0.5,4.9-0.8,9.4-1.1,13.5c-0.1,1.7-0.3,3.5-0.4,5.2
			s-0.3,3.4-0.3,4.8c-0.1,1.5-0.2,2.7-0.3,3.9c-0.1,1.1-0.1,1.9-0.1,2.3c0,0.9,0,2.1,0.1,3.5c0,1.4,0.1,2.9,0.3,4.5
			c0.2,1.6,0.5,3.2,0.9,4.7s1,2.9,1.7,4.2s1.7,2.3,2.9,3.1c1.2,0.8,2.7,1.1,4.4,1.1c1.1,0,2.1-1,3.3-3c1.1-2,2.2-4.6,3.3-7.6
			c1.1-3.2,2-6.6,2.9-10.3c0.7-2.7,1.3-5.4,1.9-8c0.6,1.3,1.3,2.5,2.1,3.6c1.3,1.6,2.8,2.8,4.7,3.8c1.9,0.9,3.9,1.3,6.2,1.3
			c2.1,0,4.2-0.6,6-1.7c1.9-1.1,3.6-2.7,5.2-4.5s3-3.9,4.2-6.1c0.1-0.3,0.3-0.5,0.5-0.8c0.2,0.4,0.5,0.8,0.7,1.2
			c0.7,1.1,1.6,1.9,2.5,2.5s1.7,0.9,2.6,0.9c1.5,0,2.9-0.5,4-1.6c1.2-1.1,2.3-2.4,3.3-4c0.1,2.8,0.3,5.4,0.9,7.7
			c0.5,2.3,1.3,4.3,2.2,5.9s2,2.9,3.4,3.8c1.3,0.9,2.7,1.3,4.4,1.3s3.4-0.7,5-2s3.1-3,4.6-5.1c1.4-2.1,2.7-4.4,4-6.9
			c0.6-1.3,1.2-2.5,1.7-3.8c0.7,3.1,1.5,6,2.4,8.6c1,2.9,2.1,5.4,3.3,7.5c1.1,2.1,2.4,3.8,3.7,5s2.6,1.8,3.9,1.8
			c1.9,0,3.7-0.7,5.4-2.3c1.7-1.5,3.2-3.5,4.6-5.8c1.4-2.3,2.6-5,3.7-7.9c0.1-0.3,0.2-0.5,0.3-0.7c0.3,0.6,0.5,1.1,0.9,1.7
			c0.9,1.5,1.9,2.9,3.2,3.9s2.6,1.5,4.2,1.5c1.7,0,3.4-0.6,4.9-1.7s3-2.6,4.4-4.4c1.3-1.7,2.5-3.6,3.6-5.6c0.1,2.9,0.4,5.8,0.8,8.8
			c0.4,3,1,5.9,1.7,8.7c0.7,2.8,1.7,5.3,2.9,7.4s2.7,3.9,4.5,5.2c1.7,1.3,3.8,1.9,6.2,1.9c1.1,0,2.1-0.6,3.2-1.9s1.9-2.9,2.8-4.8
			c0.9-1.9,1.7-4.2,2.4-6.7s1.3-5,1.9-7.4s1-4.8,1.3-7s0.7-4,0.9-5.4c0.9,0.3,1.7,0.6,2.3,0.8c0.7,0.2,1.5,0.3,2.3,0.5
			c0.9,0.1,1.8,0.2,2.7,0.2c1.3,0,2.6-0.3,3.6-1c0.4-0.3,0.8-0.5,1.2-0.9c0.1,0.7,0.3,1.5,0.5,2.2c0.7,2.1,1.7,4,2.9,5.6
			c1.3,1.6,2.8,2.8,4.7,3.8c1.9,0.9,3.9,1.3,6.2,1.3c2.1,0,4.2-0.6,6-1.7c1.9-1.1,3.6-2.7,5.2-4.5s3-3.9,4.2-6.1
			c1.3-2.2,2.3-4.4,3.2-6.6c0.9-2.1,1.7-4,2.3-5.8c0.6-1.7,1-3,1.3-3.9C283.2,74.4,283.1,74.2,283,74z M60.6,72.8
			c-0.5-0.3-0.9-0.8-1.2-1.5s-0.5-1.5-0.6-2.3c-0.1-0.9-0.2-1.9-0.2-2.9c0-0.9,0.1-1.8,0.3-2.9s0.4-2,0.7-2.9s0.6-1.6,1-2.2
			c0.3-0.6,0.7-0.9,1.1-0.9c0.5,0,0.9,0.2,1.3,0.7c0.3,0.5,0.5,1.1,0.7,1.8c0.1,0.7,0.2,1.6,0.2,2.5s0,1.9-0.1,2.9
			c-0.2,2.3-0.6,5-1.1,7.9C61.8,73.2,61.1,73.2,60.6,72.8z M96.6,78.8c0.2-0.9,0.5-1.7,0.9-2.6s0.9-1.7,1.5-2.3
			c0.6-0.7,1.3-1.2,2.2-1.6c0.9-0.4,1.9-0.6,3.1-0.6c1,0,1.7,0.4,2.1,1.1c0.5,0.7,0.7,1.6,0.7,2.6c0,1.4-0.6,2.7-1.7,4
			s-2.4,2.4-3.8,3.4C100,84,98.2,85,96.1,86C96,83.2,96.1,80.9,96.6,78.8z M233.2,85.1c-0.1,0.6-0.1,1.1-0.1,1.5
			c-0.1,0.5-0.1,0.7-0.1,0.9c-1.5-0.7-2.7-1.5-3.6-2.3c-0.9-0.8-1.7-1.9-2.4-3.3s-1.1-3-1.1-5c0-0.7,0.1-1.5,0.1-2.3
			s0.2-1.7,0.5-2.5c0.2-0.7,0.5-1.4,0.9-1.9c0.3-0.5,0.9-0.7,1.4-0.7c1.1,0,2,0.5,2.6,1.4s1.1,2.1,1.4,3.4c0.3,1.3,0.5,2.7,0.5,4.3
			c0.1,1.5,0.1,2.9,0.1,4C233.3,83.7,233.3,84.5,233.2,85.1z M255.3,78.8c0.2-0.9,0.5-1.7,0.9-2.6c0.4-0.9,0.9-1.7,1.5-2.3
			c0.6-0.7,1.3-1.2,2.2-1.6s1.9-0.6,3.1-0.6c1,0,1.7,0.4,2.1,1.1c0.5,0.7,0.7,1.6,0.7,2.6c0,1.4-0.6,2.7-1.7,4s-2.4,2.4-3.8,3.4
			c-1.6,1.1-3.4,2.2-5.5,3.2C254.6,83.2,254.8,80.9,255.3,78.8z"/>
	</g>
	<g>
		<polygon class="st0" points="229,149.8 232.2,149.8 230.7,145.5 		"/>
		<path class="st0" d="M115,143.7h-2.5v3.5h2.5c1.4,0,2.2-0.6,2.2-1.7l0,0C117.2,144.3,116.4,143.7,115,143.7z"/>
		<path class="st0" d="M134.3,143.6c-2.2,0-3.6,1.8-3.6,3.9l0,0c0,2.1,1.4,3.9,3.6,3.9s3.6-1.8,3.6-3.9l0,0
			C137.9,145.4,136.6,143.6,134.3,143.6z"/>
		<path class="st0" d="M57.2,143.6c-2.2,0-3.6,1.8-3.6,3.9l0,0c0,2.1,1.4,3.9,3.6,3.9s3.6-1.8,3.6-3.9l0,0
			C60.8,145.4,59.4,143.6,57.2,143.6z"/>
		<path class="st0" d="M21.8,132.6v29h262.4v-29H21.8z M38.4,156.7c-4.9,0-9.1-3.6-9.1-9.1l0,0c0-5.3,4-9.2,9.3-9.2
			c3.9,0,6.4,1.9,7.9,4.6l-4.9,2.8c-0.7-1.3-1.5-2.1-3.2-2.1c-1.9,0-3.3,1.7-3.3,3.9l0,0c0,2.2,1.4,3.9,3.3,3.9
			c1.7,0,2.6-0.8,3.3-2.2l4.9,2.8C45.2,154.6,42.8,156.7,38.4,156.7z M66.6,147.5c0,5.2-4.2,9.2-9.6,9.2s-9.6-4-9.6-9.1l0,0
			c0-5.2,4.2-9.2,9.6-9.2S66.6,142.3,66.6,147.5L66.6,147.5z M86.4,156.3h-5.2l-6.5-8.1v8.1h-5.8v-17.5h5.4l6.3,7.8v-7.8h5.8
			C86.4,138.8,86.4,156.3,86.4,156.3z M104.7,143.7h-5.2v12.5h-5.8v-12.5h-5.2v-5h16.2V143.7z M117.1,156.3l-3.3-5h-1.3v5h-5.8
			v-17.5h8.5c3.1,0,5.2,0.8,6.3,1.9c1.1,1.1,1.7,2.4,1.7,4.2l0,0c0,2.5-1.4,4.3-3.5,5.4l4,6L117.1,156.3L117.1,156.3z M143.9,147.5
			c0,5.2-4.2,9.2-9.6,9.2s-9.6-4-9.6-9.1l0,0c0-5.2,4.2-9.2,9.6-9.2S143.9,142.3,143.9,147.5L143.9,147.5z M160.2,156.3h-14.1v-17.5
			h5.8v12.5h8.2v5H160.2z M183.8,143.7H175v2.2h8.2v4.6H175v5.7h-5.8v-17.5H184v5H183.8z M196.3,156.3l-3.3-5h-1.3v5h-5.9v-17.5h8.6
			c3.1,0,5.2,0.8,6.3,1.9c1.1,1.1,1.7,2.4,1.7,4.2l0,0c0,2.5-1.4,4.3-3.5,5.4l4,6L196.3,156.3L196.3,156.3z M219.4,156.3h-15v-17.5
			h15v4.9h-9.2v1.8h8.6v4.2h-8.6v1.9h9.3v4.7L219.4,156.3L219.4,156.3z M234.6,156.3l-1-2.4h-6.1l-0.8,2.4h-6.3l7.4-17.7h5.8
			l7.4,17.7H234.6z M253.1,156.3l-3.5-5.6l-1.5,1.8v3.8h-5.8v-17.5h5.8v6.5l5-6.5h6.8l-6.1,7.7l6.3,9.9L253.1,156.3L253.1,156.3z
			 M276.4,150.7c0,3.6-3.1,6-7.8,6c-3.6,0-6.8-1-9.1-2.9l3.2-3.8c1.9,1.4,4,2.1,6.1,2.1c1.1,0,1.5-0.3,1.5-0.7l0,0
			c0-0.6-0.6-0.8-2.4-1.1c-3.9-0.8-7.4-1.9-7.4-5.7l0,0c0-3.3,2.6-5.8,7.4-5.8c3.3,0,5.8,0.8,7.9,2.4l-2.9,3.9
			c-1.7-1.3-3.6-1.7-5.3-1.7c-0.8,0-1.3,0.3-1.3,0.7l0,0c0,0.4,0.4,0.8,2.4,1.1C273.3,145.8,276.4,147.1,276.4,150.7L276.4,150.7z"
			/>
		<path class="st0" d="M194.2,143.7h-2.5v3.5h2.5c1.4,0,2.2-0.6,2.2-1.7l0,0C196.4,144.3,195.6,143.7,194.2,143.7z"/>
	</g>
	<g>
		<path class="st0" d="M287.2,133.1v4.2h-0.6v-4.2h-1.3v-0.6h3.3v0.6H287.2z M293.3,137.3v-3.9l-1.6,3.9h-0.2l-1.6-3.9v3.9h-0.6
			v-4.7h0.9l1.4,3.4l1.4-3.4h0.9v4.7H293.3z"/>
	</g>
</g>
</svg>
