<?xml version="1.0" encoding="utf-8"?>
<!-- Generator: Adobe Illustrator 22.1.0, SVG Export Plug-In . SVG Version: 6.00 Build 0)  -->
<svg version="1.1" id="_x2014_ÎÓÈ_x5F_1" xmlns="http://www.w3.org/2000/svg" xmlns:xlink="http://www.w3.org/1999/xlink"
	 x="0px" y="0px" viewBox="0 0 500 500" style="enable-background:new 0 0 500 500;" xml:space="preserve">
<style type="text/css">
	.st0{fill:#D8AE8B;}
	.st1{fill:#EDCEA6;}
	.st2{fill:#EDEDED;}
	.st3{fill:#6BCAC6;}
	.st4{fill:#464E5B;}
	.st5{fill:#D8DADC;}
	.st6{fill:#5FC1D8;}
	.st7{fill:#FFFFFF;}
	.st8{fill:#E2B90E;}
	.st9{fill:#966B4B;}
	.st10{fill:#EFC03C;}
	.st11{fill:#C9DC50;}
	.st12{fill:#EF7521;}
	.st13{opacity:0.37;}
	.st14{fill:#DADADA;}
	.st15{fill:#EF586E;}
</style>
<g>
	<path class="st0" d="M290,227.7c0,0-8.9,4.5-15.4,3.3c-1.2-0.5-27-9.6-35.1-7.5c-2,0.3-15.2,3.5-17.2,5.3c-1.3,0.5-5.6,3.3-5.6,6.3
		c0,1.7-2.8,12.4-5,15.1c-0.8,1.5,4.3,10.1,13.7,1.5c2.2-1.8,3.6-3.6,4.3-8.4c2.2,0.5,11.3-0.8,11.4-1.5
		c0.2-0.7,44.5,25.8,44.3,26.2c3.2-2.6,16.2-0.5,16.2-0.5L290,227.7z"/>
	<path class="st1" d="M283.2,265.4L265.1,255c-0.2-0.1-0.4-0.2-0.6-0.3c0,0,0-0.1,0-0.1l-18.4-10.9c0,0-10.6-11.3-14-13.3
		c-3.6,2.1-13.7,7.4-21.4,6.4c-5.1-0.7-10.5-2.3-10.5-2.3l-11.7,35.4c0,0,1,0.5,4,1.5c17.1,8.9,27.4,18.4,33.9,23.9
		c0.6,0.5,1.2,1,1.8,1.5c0.1,0.1,0.3,0.2,0.5,0.4c2.7,2.1,4.6,3.1,5.6,3.5l13.1,8c2.7,1.6,6.2,0.8,7.8-1.9c1.6-2.7,0.8-6.2-1.9-7.8
		l4.6,2.8c2.7,1.6,6.4,0.5,8.3-2.6c1.9-3.1,1.2-6.9-1.5-8.6l1,0.4c3.6,2.1,8.2,0.7,10.3-2.9c1.9-3.2,1.2-7.2-1.4-9.5l0.8,0.5
		c3.6,2,8.2,0.7,10.3-3C287.9,272.1,286.7,267.4,283.2,265.4z"/>
	<path class="st0" d="M232.1,291.9c1.3-2.8,0.1-6.2-2.7-7.5l0,0c-2.8-1.3-6.2-0.1-7.5,2.7l-1.7,3.6c-1.3,2.8-0.1,6.2,2.7,7.5l0,0
		c2.8,1.3,6.2,0.1,7.5-2.7L232.1,291.9z"/>
	<path class="st0" d="M241.9,296.6c1.2-2.5,0-5.5-2.5-6.7l0,0c-2.5-1.2-5.5-0.1-6.7,2.5l-1.9,4.1c-1.2,2.5-0.1,5.5,2.5,6.7l0,0
		c2.5,1.2,5.5,0.1,6.7-2.5L241.9,296.6z"/>
	<path class="st0" d="M211,279.9c0.9-2-0.4-4.6-2.9-5.8l0,0c-2.5-1.2-5.3-0.5-6.3,1.6l-1.5,3.3c-0.9,2,0.4,4.6,2.9,5.8l0,0
		c2.5,1.2,5.3,0.5,6.3-1.6L211,279.9z"/>
	<path class="st0" d="M222.2,284.9c1.3-2.9,0-6.3-2.8-7.6l0,0c-2.9-1.3-6.3,0-7.6,2.8l-2.3,5.1c-1.3,2.9,0,6.3,2.8,7.6l0,0
		c2.9,1.3,6.3,0,7.6-2.8L222.2,284.9z"/>
	<path class="st0" d="M216.7,235c0,1.7-2.8,12.4-5,15.1c-0.8,1.5,4.3,10.1,13.7,1.5c2.2-1.8,3.6-3.6,4.3-8.4
		c2.2,0.5,11.3-0.8,11.4-1.5c0-0.1,2.9,0.7,5.3,2.1c-1.5-3.5-7.4-14-10.8-19.4c-4.7,1.1-11.9,3.1-13.4,4.4
		C221,229.2,216.7,232,216.7,235z"/>
	
		<rect x="285.2" y="223.7" transform="matrix(0.9731 -0.2302 0.2302 0.9731 -49.7431 73.5565)" class="st2" width="10.4" height="52.5"/>
	
		<rect x="173.1" y="248.8" transform="matrix(0.3367 -0.9416 0.9416 0.3367 -106.9897 356.1848)" class="st2" width="52.5" height="10.4"/>
	<path class="st3" d="M333.9,210.7L287,222l13.2,54.8l36.1-8.7c2.1-7.9,3.3-16.2,3.3-24.8C339.6,231.8,337.6,220.9,333.9,210.7z"/>
	<path class="st4" d="M205.6,226.1l-48.7-17.4c-4.2,10.7-6.5,22.4-6.5,34.6c0,8.4,1.1,16.5,3.1,24.2l33.3,11.8L205.6,226.1z"/>
</g>
<rect x="279.9" y="112.4" transform="matrix(0.5088 -0.8609 0.8609 0.5088 52.4037 319.6456)" class="st5" width="52.7" height="3"/>
<rect x="108.9" y="328.5" transform="matrix(0.7453 -0.6667 0.6667 0.7453 -185.5305 174.2301)" class="st5" width="52.7" height="3"/>
<rect x="136.7" y="136.8" transform="matrix(0.5795 -0.815 0.815 0.5795 -74.8533 181.2359)" class="st5" width="3" height="52.7"/>
<rect x="345.7" y="220.3" transform="matrix(0.9794 -0.2019 0.2019 0.9794 -37.1214 79.6898)" class="st5" width="52.7" height="3"/>
<rect x="306.6" y="337.5" transform="matrix(0.8814 -0.4723 0.4723 0.8814 -135.3223 188.6869)" class="st5" width="3" height="52.7"/>
<path class="st5" d="M370.5,439c14-18.5,10.4-44.8-8-58.8c-18.5-14-44.8-10.4-58.8,8c-14,18.5-10.4,44.8,8,58.8
	C330.1,461.1,356.4,457.4,370.5,439z"/>
<g>
	<path class="st6" d="M343.3,396.3h-30.5c0,0-2.7,0-2.7,2.7c0,2.7,0,18,0,20.7c0,2.7,2.7,2.7,2.7,2.7h2.7v9.9l9.9-9.9h18
		c0,0,2.7,0,2.7-2.7c0-2.7,0-18,0-20.7C346,396.3,343.3,396.3,343.3,396.3z"/>
	<path class="st7" d="M364.9,406.2h-26c0,0-2.7,0-2.7,2.7c0,2.7,0,14.4,0,17.1c0,2.7,2.7,2.7,2.7,2.7H355l8.1,8.1v-8.1h1.8
		c0,0,2.7,0,2.7-2.7c0-2.7,0-14.4,0-17.1C367.6,406.2,364.9,406.2,364.9,406.2z"/>
</g>
<path class="st5" d="M134.7,130c3.3-23-12.6-44.3-35.5-47.6c-23-3.3-44.3,12.6-47.6,35.5c-3.3,23,12.6,44.3,35.5,47.6
	C110,168.9,131.3,153,134.7,130z"/>
<g>
	<g>
		<g>
			<g>
				<polygon class="st8" points="68.8,103.8 71.9,110 78.7,111 73.8,115.8 74.9,122.6 68.8,119.4 62.7,122.6 63.9,115.8 59,111 
					65.8,110 				"/>
			</g>
		</g>
		<g>
			<polygon class="st8" points="93.2,103.8 96.2,110 103,111 98.1,115.8 99.3,122.6 93.2,119.4 87.1,122.6 88.3,115.8 83.3,111 
				90.1,110 			"/>
		</g>
		<g>
			<polygon class="st8" points="117.5,103.8 120.6,110 127.4,111 122.5,115.8 123.6,122.6 117.5,119.4 111.4,122.6 112.6,115.8 
				107.7,111 114.5,110 			"/>
		</g>
	</g>
	<g>
		<g>
			<g>
				<polygon class="st8" points="81,126 84.1,132.2 90.9,133.1 85.9,138 87.1,144.7 81,141.5 74.9,144.7 76.1,138 71.2,133.1 
					78,132.2 				"/>
			</g>
		</g>
		<g>
			<polygon class="st8" points="105.4,126 108.4,132.2 115.2,133.1 110.3,138 111.4,144.7 105.4,141.5 99.3,144.7 100.4,138 
				95.5,133.1 102.3,132.2 			"/>
		</g>
	</g>
</g>
<path class="st5" d="M472.2,222.9c6.2-22.4-6.9-45.5-29.3-51.7c-22.4-6.2-45.5,6.9-51.7,29.3c-6.2,22.4,6.9,45.5,29.3,51.7
	C442.8,258.3,466,245.2,472.2,222.9z"/>
<g>
	<g>
		<path class="st8" d="M451.1,191c-2-1.6-5.4,0.2-5.4,0.2s-0.1-0.2-0.2-0.4c-0.2-0.1-0.4-0.1-0.7-0.2v-2h-23.6v2.2
			c-0.3,0-0.5,0-0.5,0c-1.2-1-3.5-0.5-3.7-0.5c-7.3,1.9-2.3,8.6-2,8.9c1.3,2.9,9.9,7.7,10.3,7.9c0.8,1.3,4.1,5,4.5,5.4
			c2.8,3.8,0.1,7.4-0.2,7.7c-0.5,0.5,0.2,0.8,0.4,1.1c-1.9,3.5-4.3,3.8-4.3,3.8s-0.2,0.7-0.1,1h15.3c0-0.2,0-0.7-0.2-0.9
			c-3.1-1.7-4-3.7-4.1-4.1c0.7-0.2,0.4-0.8,0.4-0.9c-3.8-4.3,0.1-8.2,0.2-8.4c1.1-0.4,3.7-4.4,4-4.8c1.2-0.9,6.8-4.2,6.9-4.3
			c2.4-1.3,3.5-3.7,3.6-3.9c1-1.4,1.5-3.5,1.5-3.7C453.8,192.2,451.2,191.1,451.1,191z M416.8,198.4c-0.1-0.2-2.7-5.7,1-6
			c1.8-0.2,2.9,3.5,4,2.3l2.2,10C424,204.6,418.6,201.6,416.8,198.4z M449.5,198.5c-1.7,3.2-7.2,6.2-7.2,6.2l2.2-10
			c1.1,1.2,2.2-2.5,4-2.3C452.2,192.9,449.7,198.4,449.5,198.5z"/>
		<g>
			<path class="st9" d="M444,226.2h-22c0,0-1.6,0-1.6,1.6c0,1.6,0,10.6,0,12.2c0,1.6,1.6,1.6,1.6,1.6h22c0,0,1.6,0,1.6-1.6
				c0-1.6,0-10.6,0-12.2C445.6,226.2,444,226.2,444,226.2z"/>
		</g>
	</g>
	<path class="st10" d="M445.6,187.8c0-0.6-0.5-1-1-1h-23.4c-0.6,0-1,0.5-1,1l0,0c0,0.6,0.5,1,1,1h23.4
		C445.2,188.8,445.6,188.4,445.6,187.8L445.6,187.8z"/>
</g>
<path class="st5" d="M139.1,375.9c7.8-21.8-3.6-45.9-25.5-53.7c-21.8-7.8-45.9,3.6-53.7,25.5c-7.8,21.8,3.6,45.9,25.5,53.7
	C107.3,409.1,131.3,397.7,139.1,375.9z"/>
<g>
	<rect x="69.7" y="374.1" class="st7" width="3.3" height="1.3"/>
	<rect x="96.2" y="374.1" class="st7" width="6" height="1.3"/>
	<rect x="96.2" y="360.9" class="st7" width="6" height="1.3"/>
	<g>
		<g>
			<g>
				<rect x="69.7" y="367.5" class="st7" width="3.3" height="1.3"/>
			</g>
			<g>
				<rect x="81.6" y="367.5" class="st7" width="6" height="1.3"/>
			</g>
			<g>
				<rect x="96.2" y="367.5" class="st7" width="6" height="1.3"/>
			</g>
			<g>
				<rect x="110.8" y="367.5" class="st7" width="3.3" height="1.3"/>
			</g>
		</g>
	</g>
	<rect x="110.8" y="374.1" class="st7" width="3.3" height="1.3"/>
	<rect x="110.8" y="360.9" class="st7" width="3.3" height="1.3"/>
	<rect x="110.8" y="354.3" class="st7" width="3.3" height="1.3"/>
	<rect x="110.8" y="347.6" class="st7" width="3.3" height="1.3"/>
	<rect x="81.6" y="374.1" class="st7" width="6" height="1.3"/>
	<rect x="69.7" y="360.9" class="st7" width="17.9" height="1.3"/>
	<rect x="69.7" y="354.3" class="st7" width="32.5" height="1.3"/>
	<rect x="69.7" y="347.6" class="st7" width="32.5" height="1.3"/>
</g>
<path class="st6" d="M81.6,366.8H73c-0.5,0-1,0.4-1,1v13.9c0,0.5,0.4,1,1,1h8.6c0.6,0,1-0.4,1-1v-13.9
	C82.6,367.3,82.2,366.8,81.6,366.8z"/>
<path class="st11" d="M96.2,358.2h-8.6c-0.6,0-1,0.4-1,1v22.5c0,0.5,0.4,1,1,1h8.6c0.5,0,1-0.4,1-1v-22.5
	C97.2,358.7,96.8,358.2,96.2,358.2z"/>
<path class="st12" d="M110.8,345.6h-8.6c-0.5,0-1,0.4-1,1v35.1c0,0.5,0.4,1,1,1h8.6c0.5,0,1-0.4,1-1v-35.1
	C111.8,346.1,111.3,345.6,110.8,345.6z"/>
<rect x="69" y="381.3" class="st7" width="46.6" height="2.4"/>
<g>
	<g>
		
			<rect x="124.3" y="351.5" transform="matrix(0.517 -0.856 0.856 0.517 -249.7065 283.4817)" class="st7" width="4.1" height="23"/>
		<g class="st13">
			<path class="st14" d="M112.2,343.6c-4.4-2.6-10.1-1.2-12.7,3.1c-2.6,4.4-1.2,10.1,3.1,12.7c4.4,2.6,10.1,1.2,12.7-3.1
				C118,351.9,116.6,346.2,112.2,343.6z"/>
		</g>
	</g>
	<g>
		<path class="st7" d="M96.9,345.2c-3.5,5.8-1.6,13.3,4.1,16.8c5.8,3.5,13.3,1.6,16.8-4.1c3.5-5.8,1.6-13.3-4.1-16.8
			C107.9,337.5,100.4,339.4,96.9,345.2z M115.3,356.2c-2.6,4.3-8.2,5.7-12.6,3.1c-4.3-2.6-5.7-8.2-3.1-12.6
			c2.6-4.3,8.2-5.7,12.6-3.1C116.5,346.3,117.9,351.9,115.3,356.2z"/>
	</g>
</g>
<path class="st5" d="M329.8,24.7c-23.2-0.8-42.6,17.3-43.4,40.5s17.3,42.6,40.5,43.4c23.2,0.8,42.6-17.3,43.4-40.5
	S353,25.5,329.8,24.7z"/>
<path class="st15" d="M343.5,48.6c-6.5-1.2-12.2,2-14.9,7.2c-2.7-5.1-8.5-8.4-14.9-7.2c-4.7,0.9-8.8,4.5-10.3,9
	c-5.2,15,17.1,28.2,23.6,31.7c1.1,0.6,2.3,0.6,3.4,0c6.5-3.5,28.7-16.7,23.6-31.7C352.2,53.1,348.2,49.5,343.5,48.6z"/>
<g>
	<path id="Fill-3_1_" class="st12" d="M245.6,336.2c-10.3,0-20.3-1.7-29.6-4.8l-8.9,25.3c12.1,4.1,25,6.3,38.5,6.3
		c33.4,0,63.6-13.6,85.4-35.5l-18.8-19.1C295.2,325.6,271.6,336.2,245.6,336.2"/>
	<path id="Fill-4_1_" class="st6" d="M151.9,242.6c0-51.7,41.9-93.6,93.6-93.6c0.5,0,1,0,1.6,0v-26.8c-0.5,0-1,0-1.6,0
		c-66.5,0-120.4,53.9-120.4,120.4c0,53,34.3,98.1,82,114.1l8.9-25.3C178.8,319,151.9,283.9,151.9,242.6"/>
	<path id="Fill-5_1_" class="st11" d="M247.1,122.2V149c51,0.8,92.1,42.4,92.1,93.6c0,25.7-10.3,48.9-27.1,65.8l18.8,19.1
		c21.7-21.8,35-51.8,35-84.9C366,176.6,312.9,123,247.1,122.2"/>
</g>
</svg>
