<?xml version="1.0" encoding="UTF-8"?>
<svg width="320px" height="323px" viewBox="0 0 320 323" version="1.1" xmlns="http://www.w3.org/2000/svg" xmlns:xlink="http://www.w3.org/1999/xlink">
    <!-- Generator: Sketch 48.2 (47327) - http://www.bohemiancoding.com/sketch -->
    <title>Data</title>
    <desc>Created with Sketch.</desc>
    <defs></defs>
    <g id="About-Us" stroke="none" stroke-width="1" fill="none" fill-rule="evenodd" transform="translate(-151.000000, -3795.000000)">
        <g id="Data-driven-decisions" transform="translate(151.000000, 3770.000000)">
            <g id="Data" transform="translate(0.000000, 25.580906)">
                <path d="M239.168,289.655 C233.625,289.655 228.297,288.742 223.311,287.082 L218.564,300.618 C225.035,302.8 231.959,304 239.168,304 C257.041,304 273.213,296.727 284.896,284.982 L274.816,274.771 C265.727,283.959 253.113,289.655 239.168,289.655" id="Fill-3" fill="#EF7521"></path>
                <path d="M189.012,239.5 C189.012,211.8 211.467,189.345 239.168,189.345 C239.447,189.345 239.723,189.361 240,189.366 L240,175.021 C239.723,175.018 239.447,175 239.168,175 C203.545,175 174.668,203.878 174.668,239.5 C174.668,267.914 193.049,292.02 218.564,300.618 L223.311,287.082 C203.385,280.444 189.012,261.657 189.012,239.5" id="Fill-4" fill="#C9DC50"></path>
                <path d="M240,175.021 L240,189.366 C267.314,189.813 289.322,212.079 289.322,239.5 C289.322,253.254 283.783,265.711 274.816,274.771 L284.896,284.982 C296.496,273.32 303.668,257.248 303.668,239.5 C303.668,204.157 275.236,175.469 240,175.021" id="Fill-5" fill="#5FC1D8"></path>
                <path d="M159.667,320 C159.667,320 191.668,320 191.668,288 C191.668,256 191.668,32 191.668,32 C191.668,32 191.668,0 223.668,0 L80,0 C80,0 48,0 48,32 C48,64 48,320 48,320 L159.667,320" id="Fill-6" fill="#D8DADC"></path>
                <path d="M0,288 C0,288 0.13,320 32,320 C63.87,320 159.667,320 159.667,320 C159.667,320 127.667,320 127.667,288 L0,288" id="Fill-7" fill="#B2B4B6"></path>
                <path d="M223.668,0 C223.668,0 255.668,0 255.668,32 C255.668,64 255.668,128 255.668,128 C255.668,128 255.668,144 271.668,144 L191.668,144 L191.668,32 C191.668,32 191.668,0 223.668,0" id="Fill-8" fill="#B2B4B6"></path>
                <path d="M271.668,144 C271.668,144 287.668,144 287.668,128 C287.668,112 287.668,96 287.668,96 C287.668,96 287.668,80 303.668,80 L255.334,80 L255.334,128 C255.334,128 255.668,144 271.668,144" id="Fill-9" fill="#D8DADC"></path>
                <path d="M320,96 C320,96 319.668,80 303.668,80 C287.668,80 287.668,96 287.668,96 L320,96" id="Fill-10" fill="#B4BDBB"></path>
                <polygon id="Fill-11" fill="#FFFFFE" points="64.334 80 175.668 80 175.668 31.667 64.334 31.667"></polygon>
                <path d="M64.334,80 L79.833,70.027 L88.333,72.127 L103.667,60.974 L113.667,63.729 L123.333,60.974 C123.333,60.974 128,62.417 129,62.417 C130,62.417 150,51.395 150,51.395 L159.667,54.807 L175.668,44.834 L175.668,80 L64.334,80" id="Fill-12" fill="#EF7521"></path>
                <path d="M79.833,112.025 C71.231,112.292 64.334,119.332 64.334,128 C64.334,136.836 71.497,144 80.334,144 C84.625,144 88.513,142.301 91.386,139.552 L79.833,128 L79.833,112.025" id="Fill-13" fill="#5FC1D8"></path>
                <path d="M96.334,128 C96.334,119.164 89.171,112 80.334,112 C80.165,112 80.001,112.02 79.833,112.025 L79.833,128 L91.386,139.552 C94.43,136.639 96.334,132.545 96.334,128" id="Fill-14" fill="#FFFFFE"></path>
                <polygon id="Fill-15" fill="#5D5D5E" points="112 114 175.668 114 175.668 110 112 110"></polygon>
                <polygon id="Fill-16" fill="#5D5D5E" points="0 50 150.25 50 150.25 46 0 46"></polygon>
                <polygon id="Fill-17" fill="#5D5D5E" points="0 66 92.25 66 92.25 62 0 62"></polygon>
                <polygon id="Fill-18" fill="#5D5D5E" points="0 178 92.25 178 92.25 174 0 174"></polygon>
                <polygon id="Fill-19" fill="#5D5D5E" points="0 194 92.25 194 92.25 190 0 190"></polygon>
                <polygon id="Fill-20" fill="#5D5D5E" points="0 210 92.25 210 92.25 206 0 206"></polygon>
                <polygon id="Fill-21" fill="#5D5D5E" points="0 226 92.25 226 92.25 222 0 222"></polygon>
                <polygon id="Fill-22" fill="#5D5D5E" points="0 258 176.168 258 176.168 254 0 254"></polygon>
                <polygon id="Fill-23" fill="#5D5D5E" points="0 274 176.168 274 176.168 270 0 270"></polygon>
                <polygon id="Fill-24" fill="#5D5D5E" points="112 129.667 175.668 129.667 175.668 125.667 112 125.667"></polygon>
                <polygon id="Fill-25" fill="#5D5D5E" points="112 146 175.668 146 175.668 142 112 142"></polygon>
                <polygon id="Fill-26" fill="#FFFFFE" points="110.271 230.521 182.188 230.521 182.188 181.521 110.271 181.521"></polygon>
                <polygon id="Fill-27" fill="#C9DC50" points="115.679 230.521 124.407 230.521 124.407 215.25 115.679 215.25"></polygon>
                <polygon id="Fill-28" fill="#EF7521" points="133.136 230.521 141.865 230.521 141.865 222.885 133.136 222.885"></polygon>
                <polygon id="Fill-29" fill="#5FC1D8" points="150.595 230.521 159.323 230.521 159.323 193 150.595 193"></polygon>
                <polygon id="Fill-30" fill="#69C6E2" points="124.407 230.521 133.136 230.521 133.136 210.25 124.407 210.25"></polygon>
                <polygon id="Fill-31" fill="#C9DC50" points="141.865 230.521 150.595 230.521 150.595 200.75 141.865 200.75"></polygon>
                <polygon id="Fill-32" fill="#EF7521" points="159.323 230.521 168.053 230.521 168.053 217 159.323 217"></polygon>
                <polygon id="Fill-33" fill="#C9DC50" points="168.053 230.521 176.781 230.521 176.781 225 168.053 225"></polygon>
                <path d="M105.75,222 L173.668,222 L173.668,177 L105.75,177 L105.75,222 Z M175.668,226 L103.75,226 C102.646,226 101.75,225.104 101.75,224 L101.75,175 C101.75,173.896 102.646,173 103.75,173 L175.668,173 C176.772,173 177.668,173.896 177.668,175 L177.668,224 C177.668,225.104 176.772,226 175.668,226 Z" id="Fill-34" fill="#5D5D5E"></path>
                <path d="M273.777,192.417 L270.223,190.583 L286.223,159.583 C286.566,158.918 287.252,158.5 288,158.5 L320,158.5 L320,162.5 L289.219,162.5 L273.777,192.417" id="Fill-35" fill="#5D5D5E"></path>
                <path d="M320,321.642 L275.359,321.642 C274.829,321.642 274.32,321.431 273.945,321.056 L250.316,297.427 L253.145,294.599 L276.188,317.642 L320,317.642 L320,321.642" id="Fill-36" fill="#5D5D5E"></path>
                <polygon id="Fill-37" fill="#5D5D5E" points="304 306 320 306 320 302 304 302"></polygon>
                <polygon id="Fill-38" fill="#5D5D5E" points="304 291.655 320 291.655 320 287.655 304 287.655"></polygon>
                <polygon id="Fill-39" fill="#5D5D5E" points="304 274.816 320 274.816 320 270.816 304 270.816"></polygon>
            </g>
        </g>
    </g>
</svg>