<?xml version="1.0" encoding="UTF-8"?>
<svg width="313px" height="312px" viewBox="0 0 313 312" version="1.1" xmlns="http://www.w3.org/2000/svg" xmlns:xlink="http://www.w3.org/1999/xlink">
    <!-- Generator: Sketch 48.2 (47327) - http://www.bohemiancoding.com/sketch -->
    <title>globe</title>
    <desc>Created with Sketch.</desc>
    <defs></defs>
    <g id="About-Us" stroke="none" stroke-width="1" fill="none" fill-rule="evenodd" transform="translate(-977.000000, -3349.000000)">
        <g id="We're-a-global-network" transform="translate(150.000000, 3349.000000)">
            <g id="globe" transform="translate(827.612024, 0.000000)">
                <path d="M311.864255,156.076411 C311.864255,158.374899 311.813568,160.662849 311.715205,162.935743 C308.287044,242.113156 245.778693,305.96798 167.173393,311.523999 C163.489287,311.785966 159.772561,311.917452 156.023214,311.917452 C155.020511,311.917452 154.019815,311.907917 153.022131,311.888846 C68.3383826,310.290443 0.182172788,241.141065 0.182172788,156.076411 C0.182172788,70.007547 69.9543506,0.235369249 156.023214,0.235369249 C173.343179,0.235369249 190.003709,3.06230951 205.567187,8.27656644 C267.346345,28.9775178 311.864255,87.3275119 311.864255,156.076411" id="Fill-1" fill="#D8DADC"></path>
                <path d="M254.295145,201.132308 C253.479633,200.669599 252.432265,201.128293 251.523911,200.892924 C251.06873,200.77549 250.678288,200.490437 250.299388,200.211407 C248.839999,199.135433 247.381613,198.058958 245.921721,196.982984 C245.508194,196.678359 245.044983,196.358176 244.532591,196.398325 C244.069882,196.435462 243.688473,196.758655 243.268924,196.958895 C241.118482,197.985687 238.304088,195.724336 236.300689,197.016106 C235.933333,197.252479 235.510772,197.611304 235.122338,197.410563 C234.831764,196.683377 234.540689,195.955188 234.249614,195.228003 C234.192905,195.086982 234.128668,194.936426 233.997182,194.860646 C233.54702,194.601188 233.071765,195.478929 232.586472,195.29224 C232.471046,195.248579 232.386735,195.150717 232.301921,195.061387 C231.151673,193.847404 229.276247,193.773631 227.604072,193.782665 C227.235209,193.78417 226.851291,193.789189 226.520068,193.951287 C226.19286,194.112382 225.955483,194.406469 225.729649,194.693027 C225.125919,195.45484 224.52219,196.217156 223.918962,196.979471 C223.783963,197.149599 223.604802,197.338296 223.39051,197.301661 C223.079361,197.248966 223.058785,196.765681 223.279099,196.538342 C223.498409,196.3105 223.830636,196.238735 224.104146,196.08015 C224.932706,195.598872 225.05566,194.471709 225.084266,193.513671 C225.089786,193.291852 225.086775,193.044438 224.9312,192.886355 C224.751537,192.70368 224.455443,192.727267 224.202007,192.766412 C222.278403,193.068527 220.388423,193.579916 218.574223,194.289537 C218.503462,193.451441 219.222618,192.781969 219.875027,192.25151 C220.663941,191.609639 221.47594,190.930632 221.894485,190.004712 C222.313533,189.077789 222.206638,187.82968 221.381591,187.235987 C219.513191,185.893529 220.114913,182.68769 218.397571,181.15804 C218.028207,180.828824 217.572524,180.617544 217.122863,180.409777 C213.453311,178.718531 209.397834,176.988642 205.498433,178.049058 C204.795838,178.239763 204.064637,178.521303 203.363046,178.328089 C202.320195,178.042033 201.675313,176.788403 200.596328,176.735206 C200.364974,176.724165 200.10652,176.763812 199.926354,176.61978 C199.642807,176.392942 199.789348,175.947296 199.767267,175.584456 C199.729628,174.969184 199.161028,174.542609 198.645624,174.203356 C197.803012,173.64931 196.959397,173.094762 196.116785,172.540715 C195.376049,172.052914 194.303589,171.59422 193.699357,172.24412 C192.919477,171.957562 193.046446,170.749099 192.453255,170.167451 C192.146121,169.866339 191.695958,169.782529 191.282933,169.664092 C190.248613,169.367998 189.303623,168.770291 188.592497,167.962307 C189.047176,167.690804 189.568602,167.159341 189.263475,166.72574 C189.060726,166.436672 188.633649,166.453735 188.283355,166.502415 C186.984057,166.682581 185.683754,166.862746 184.383452,167.042911 C183.736061,167.591939 182.910011,167.929686 182.063384,167.990411 C180.417807,168.108848 178.813381,167.220567 177.172822,167.392201 C175.906144,167.524189 174.350399,168.178606 173.554459,167.184936 C173.375298,166.961109 173.275429,166.682079 173.097773,166.45775 C172.344993,165.50724 170.812332,166.010097 169.658571,165.638224 C169.618925,165.182039 169.579278,164.725352 169.53913,164.268666 C168.952965,163.84209 167.984388,164.557231 168.220761,165.243767 C167.215549,165.227708 166.463772,166.12201 165.869578,166.933507 C165.727554,167.126219 165.58302,167.325957 165.522797,167.558315 C165.270867,168.525386 166.539552,169.295731 166.544571,170.295423 C166.550091,171.210302 165.182541,171.749293 164.561748,171.076809 C163.659917,170.100202 164.905518,168.588118 164.833753,167.260716 C164.80866,166.794494 164.612435,166.331785 164.70026,165.873593 C164.861355,165.024457 165.940841,164.268164 165.490177,163.531443 C164.560242,163.72566 163.703077,164.252105 163.108381,164.992338 C161.004109,164.430764 158.587685,165.294956 156.602855,166.188757 C155.590616,166.644942 154.537226,167.131238 153.851694,168.003961 C153.497386,168.455127 153.261013,168.985084 153.028655,169.509019 C152.457546,170.797277 151.886436,172.085534 151.314825,173.37329 C150.869681,173.737636 150.187161,173.624719 149.703374,173.313068 C149.219587,173.002421 148.861264,172.534191 148.428666,172.15479 C146.791621,170.717984 144.318487,170.745084 142.217227,171.319204 C141.578869,171.493849 140.94553,171.712657 140.285593,171.765352 C138.852802,171.879273 137.337706,171.075805 136.803232,169.741879 C136.582919,169.193855 136.503626,168.546464 136.05798,168.157528 C135.746831,167.885523 135.318248,167.801212 134.95591,167.601976 C133.785588,166.963117 133.588359,165.395828 133.530144,164.063909 C133.463398,162.567383 133.399662,161.044759 133.770532,159.593399 C133.916571,159.020283 134.130361,158.458207 134.166494,157.867525 C134.295973,155.79738 132.267983,154.232601 130.299714,153.577682 C127.313184,152.583009 124.082252,152.745108 120.939144,152.918247 C121.28191,151.118099 121.736589,149.33953 122.299669,147.59559 C122.598773,146.669168 122.927487,145.752784 123.257205,144.836902 C123.611513,143.851262 123.978368,142.84354 124.651354,142.041076 C125.480416,141.051421 126.845457,140.092379 126.502691,138.846779 C126.183512,137.686996 124.660889,137.462668 123.457444,137.465679 C121.569974,137.470195 119.572597,137.504321 117.967168,138.496987 C116.793835,139.222166 115.94219,140.421093 115.554257,141.743979 C115.334947,142.49425 115.24361,143.309762 114.786421,143.942599 C114.329233,144.57644 113.307459,144.897124 112.774993,144.326517 C112.133122,143.637974 110.930682,143.390058 110.033368,143.678122 C109.137559,143.965182 108.229706,144.431404 107.305292,144.253246 C106.615244,144.119251 106.04564,143.643494 105.545293,143.150172 C103.242287,140.880791 101.695575,137.856623 101.206268,134.66082 C101.157588,134.347162 101.119949,134.023968 101.193722,133.715328 C101.281044,133.346466 101.519425,133.033811 101.664962,132.683518 C102.278227,131.203552 101.131492,129.57303 101.200246,127.97262 C101.281044,126.078625 103.032513,124.585611 103.181061,122.695631 C103.236767,121.979988 103.058107,121.23323 103.297993,120.55623 C103.447545,120.133669 103.747654,119.781368 104.068338,119.467208 C105.087602,118.46601 106.376362,117.740832 107.761979,117.390037 C108.142384,117.293681 108.546878,117.217901 108.849495,116.967978 C109.219863,116.662851 109.367408,116.157987 109.710174,115.82325 C110.470482,115.080006 111.743684,115.475968 112.772484,115.20848 C113.218129,115.092552 113.624129,114.846644 114.076801,114.76434 C116.127875,114.38795 117.435705,117.3258 119.515386,117.471337 C120.596378,117.546615 121.557929,116.8385 122.407567,116.166518 C122.556116,116.049084 122.718214,115.905053 122.71972,115.715854 C122.722229,115.44686 122.394017,115.226045 122.472808,114.969598 C122.51948,114.816031 122.689107,114.743262 122.841168,114.692575 C125.223467,113.898141 127.908884,114.057228 130.180273,115.127682 C131.123255,115.571822 132.111405,116.183581 133.127156,115.954736 C133.652095,115.837302 134.116309,115.501061 134.650281,115.439333 C135.500923,115.341471 136.291342,115.989866 136.660204,116.763222 C137.03007,117.535574 137.079252,118.415825 137.167578,119.267972 C137.364806,121.177023 137.79088,123.061482 138.43275,124.870664 C138.843266,126.028941 139.423409,127.245434 140.523472,127.79396 C141.623534,128.342987 143.303739,127.742269 143.349408,126.513732 C143.381025,125.673127 142.675419,124.949455 142.659862,124.10885 C142.649323,123.541756 142.953948,123.022338 143.093965,122.472808 C143.570224,120.613943 142.168045,118.862977 141.51413,117.059817 C140.761852,114.987664 141.052425,112.535107 142.382337,110.777114 C143.47989,109.328264 145.143534,108.44199 146.724372,107.542669 C149.91064,105.729473 152.966425,103.684922 155.858606,101.431098 C155.15551,99.4056179 155.350731,96.9691196 156.291204,95.0425044 C156.486425,94.6435309 156.717277,94.2510816 156.789544,93.8124617 C156.894432,93.174606 156.668598,92.4459149 157.043984,91.9194706 C157.346602,91.4949026 157.937283,91.3744578 158.286573,90.9875288 C158.725193,90.5032403 158.669487,89.7584898 158.908871,89.1502435 C159.370075,87.9779139 160.805877,87.5433089 162.064525,87.4860976 C163.322672,87.42989 164.658606,87.5824535 165.775731,87.0003035 C165.98651,86.8903976 166.195281,86.7428527 166.283607,86.5220372 C166.443698,86.1225619 166.141081,85.6824364 165.790285,85.434019 C165.43949,85.1845979 165.015925,85.0194881 164.751449,84.6802352 C164.130656,83.8858012 164.780556,82.6753308 165.658298,82.1800015 C166.536039,81.6846722 167.593445,81.5827959 168.470684,81.0864629 C169.062369,80.7517267 169.542141,80.2548918 170.055537,79.8097478 C171.375412,78.6670276 172.941696,77.8525195 174.491921,77.0495541 C174.97069,76.8016385 175.544308,76.5517155 176.02408,76.7971218 C175.49061,77.5273185 174.574727,77.8414788 173.786817,78.2851172 C172.998406,78.7282537 172.230068,79.5161636 172.390661,80.4054478 C172.576347,81.4287269 173.929846,81.8482764 174.904445,81.483429 C175.878041,81.1195852 176.559558,80.2568992 177.251613,79.4800301 C177.844302,78.8150744 178.495206,78.1747094 179.297168,77.7862749 C180.139278,77.3767625 181.101331,77.2673585 181.947456,76.8673813 C182.794584,76.4674041 183.559409,75.5991977 183.359671,74.684319 C181.663407,75.4150175 179.846196,75.8646782 178.004394,76.0107175 C176.286549,74.7455451 174.655526,73.3614334 173.128888,71.8704269 C173.54643,71.2441138 174.147148,70.7412567 174.837197,70.4396428 C175.152862,69.7661555 174.565694,68.9491382 173.851557,68.7413709 C173.136917,68.5341054 172.376108,68.7504042 171.664479,68.9651975 C169.951654,69.4821065 168.23933,69.9985137 166.527508,70.5154227 C166.044223,70.1134381 166.636912,69.3235208 167.250679,69.1905297 C167.865449,69.0575385 168.597653,69.1423517 169.024229,68.6811485 C169.27114,68.4151662 169.338891,68.0362668 169.471882,67.6995232 C169.904479,66.6054828 171.058742,65.9430363 172.212503,65.7151948 C173.367268,65.4868515 174.558166,65.6098056 175.734511,65.6133186 C179.249492,65.6238575 182.759956,64.5378467 185.654145,62.5424775 C185.203983,65.0095889 184.754322,67.4782058 184.304661,69.9453172 C184.200276,70.5199394 184.124998,71.1964378 184.538525,71.6079576 C185.102608,72.1715389 186.040572,71.7916359 186.782312,71.5000591 C188.084119,70.9881686 189.533472,70.8586904 190.904535,71.130695 C190.451362,71.630541 191.085704,72.4585991 191.758188,72.52384 C192.429668,72.5895828 193.070535,72.2468169 193.740007,72.1604982 C194.583623,72.0525997 195.658091,72.2578577 196.100224,71.5321777 C196.593546,70.72319 195.669132,69.7741852 194.793899,69.411847 C193.919169,69.0485052 192.825128,68.6911855 192.633922,67.7637604 C192.569183,67.453615 192.624889,67.1183769 192.498422,66.827302 C192.293164,66.3555598 191.689936,66.1954685 191.177544,66.2466576 C190.664649,66.2963411 190.169822,66.495075 189.654419,66.4935694 C188.556865,66.4910602 187.583771,65.4221124 187.683138,64.3295775 C187.783509,63.2445705 188.716455,62.0366093 187.996797,61.2185883 C187.777487,60.969669 187.445762,60.8421982 187.222437,60.5967919 C186.681941,60.0056086 186.942905,58.9662701 186.401405,58.3765924 C185.665688,57.5746306 184.069292,58.2139919 183.401325,57.3553207 C183.106235,56.9769232 183.103224,56.4068178 182.744399,56.087639 C182.469383,55.8432364 182.070912,55.8211548 181.706566,55.7805047 C180.200002,55.6103764 178.762192,54.8912205 177.722352,53.787143 C176.600208,53.6631852 175.470034,52.7713917 175.261765,51.6612919 C175.188494,51.2693444 175.201542,50.8553153 175.044462,50.4884605 C174.92201,50.202404 174.705711,49.9695441 174.493929,49.7422045 C173.275931,48.4383893 172.057431,47.135076 170.839934,45.8312608 C170.459529,45.423254 169.82619,44.9951731 169.411158,45.3680501 C169.195361,45.5612637 169.17077,45.8839554 169.134134,46.1710156 C168.978058,47.3834934 168.183624,48.6185547 166.980681,48.8373628 C166.021138,49.0120078 165.078155,48.5186859 164.240562,48.0193417 C164.499016,46.1258488 162.865484,44.5053641 161.197825,43.5719168 C159.566299,42.6590454 153.707662,40.8212582 152.576987,42.1039956 C152.189054,42.5436191 152.329573,43.2125897 152.392305,43.7947397 C152.51275,44.9203969 152.239239,46.084195 151.629989,47.0377164 C151.303785,47.5470976 150.8747,48.0238584 150.769813,48.6195584 C150.664423,49.2152584 151.101538,49.955994 151.699245,49.8611437 C152.848991,51.64724 153.852196,53.8784803 152.169984,55.1898232 C150.007497,56.8760507 147.735105,55.5175335 148.98472,58.7053064 C150.275487,61.9969629 149.232134,63.6721496 147.836981,64.0445248 C146.236069,64.4721039 144.805285,62.7713227 144.515715,61.1397973 C144.22715,59.5092755 144.586477,57.7989591 144.176463,56.1940319 C139.30447,56.1062076 135.447224,51.147394 130.579246,51.3541576 C131.423866,50.2209726 131.199537,48.4353782 130.101482,47.5465958 C129.755705,47.5129716 129.409928,47.4793474 129.064151,47.4457233 C129.221733,45.139205 130.775973,42.9842464 132.914872,42.1065048 C137.451125,40.2451305 133.048867,42.7503828 142.742667,36.7075658 C143.404612,37.7529265 142.358749,39.4446743 143.298219,40.2511528 C144.579451,41.3502117 146.50707,38.5443493 147.965456,39.3949909 C148.385507,39.6398953 148.625895,40.147771 149.082581,40.3138844 C149.992442,40.644104 150.690018,39.2002717 150.152031,38.3952989 C149.615048,37.5908278 148.543591,37.381555 147.586055,37.2415379 C147.085205,36.440078 147.691946,35.4077655 148.365433,34.745319 C149.039924,34.0838762 149.868484,33.3857981 149.86748,32.4408081 C149.866978,32.0468532 149.714415,31.6669502 149.691832,31.2729953 C149.60752,29.815613 151.40265,28.8400099 152.825404,29.1672184 C154.24866,29.4949286 155.313092,30.6436711 156.283174,31.7352023 C156.859302,32.3825932 157.473069,33.2608366 157.092162,34.0392113 C156.836217,34.5641499 156.177283,34.8672694 156.085946,35.443899 C156.015686,35.8875374 156.314791,36.3728296 156.105016,36.7697957 C155.903773,37.1502005 155.388871,37.1833229 154.983876,37.3273548 C154.579884,37.4723904 154.239627,38.0605626 154.606984,38.2833855 C156.35795,37.3348826 158.379416,40.110132 160.239285,39.398002 C160.121851,40.3570438 161.142119,41.0330404 162.040938,41.386847 C163.63633,42.0146657 165.32055,42.4166502 167.026852,42.5772433 C166.023647,41.7486833 165.01994,40.9196215 164.016735,40.0900578 C165.308004,39.8858035 166.672042,40.1743692 167.769595,40.8854955 C168.184628,41.1544889 168.663396,41.4977566 169.125101,41.3211042 C169.854294,41.04107 169.603367,39.9389999 169.149692,39.3036535 C167.916638,37.5782815 166.103442,36.2744663 164.07495,35.6546774 C165.518783,34.7965081 167.309897,35.8453817 168.650348,36.8571182 C168.339199,35.5598271 169.658571,34.5029238 170.805808,33.820905 C167.081052,32.9943525 163.580123,31.1831635 160.752681,28.6222055 C160.911768,27.5266596 159.713342,26.7743813 158.699097,26.3317466 C156.509008,25.375214 154.319422,24.4181795 152.129835,23.4621488 C151.766494,22.3003581 152.436468,21.0161153 153.411569,20.2889297 C154.387674,19.5617441 155.610189,19.267658 156.795065,18.9906349 C157.917711,18.7291693 159.238087,18.5113649 160.106293,19.2701672 C160.447052,19.5682682 160.674392,19.989825 161.052287,20.239748 C161.876832,20.784259 162.964349,20.2949519 163.951996,20.2894315 C164.983807,20.284413 165.928295,20.825411 166.816575,21.3498478 C169.191848,22.7535318 171.56712,24.1572158 173.942392,25.5603979 C173.802375,25.974427 174.187798,26.4035116 174.607348,26.5259639 C175.027399,26.6494198 175.476558,26.5781566 175.911665,26.6203123 C177.273193,26.7502923 178.367735,28.1655189 178.15244,29.5160065 C178.03852,30.2336568 177.613952,30.9071441 177.677185,31.6313186 C177.72988,32.2225019 178.100248,32.732385 178.471117,33.1960975 C182.689697,38.477101 188.771157,42.2389941 195.380064,43.6552245 C195.671641,43.718458 196.014909,43.7636248 196.23472,43.5618797 C196.786257,43.0560115 195.764484,42.3604427 195.466383,41.6734053 C195.252593,41.1790797 195.459357,40.6154983 195.488464,40.0780133 C195.543166,39.0647713 194.957002,38.1353388 194.336711,37.3328752 C193.715416,36.5309134 193.014829,35.7359776 192.774441,34.7498357 C192.533552,33.7646974 192.956614,32.523614 193.937236,32.263152 C194.344741,32.1552536 194.796409,32.2260149 195.176312,32.044344 C195.858832,31.7176374 195.953683,30.7726474 195.77151,30.037934 C195.589337,29.3032206 195.225995,28.576035 195.342425,27.8282735 C195.459357,27.0810137 196.41589,26.4371358 196.970438,26.9520374 C197.450711,25.6221259 197.511436,24.1441676 197.14157,22.7796281 C195.979779,23.4726877 194.345242,23.2363147 193.426851,22.2431469 C193.994447,22.1563262 194.561541,22.0700074 195.129639,21.9831868 C195.176312,21.2248863 194.297064,20.7661923 193.54579,20.6527734 C192.795519,20.5403582 191.927815,20.5207859 191.446537,19.9331156 C191.037527,19.431764 191.044553,18.6458616 190.541695,18.2388585 C190.191904,17.9553113 189.703098,17.946278 189.25394,17.9046241 C187.482397,17.7405181 185.794162,16.8236319 184.690586,15.4284794 C184.404028,15.0661412 184.148585,14.6656622 183.771191,14.3966688 C183.38376,14.1201476 182.905996,14.0102417 182.445796,13.8842764 C180.639124,13.3919583 178.920276,12.5759446 177.395645,11.4879264 C176.697567,10.989586 175.900624,10.7612427 175.045466,10.8269855 C174.190308,10.8927283 173.266897,11.0392695 172.523652,10.6106867 C172.324918,10.4967659 172.137727,10.3411914 171.910889,10.311582 C171.576153,10.2694263 171.282067,10.5098141 170.99049,10.6789387 C169.498982,11.5396173 167.588426,10.6157052 165.902199,10.9644933 C165.676866,11.0111657 165.444508,11.0879492 165.292447,11.2610887 C165.155942,11.4166632 165.095218,11.6389843 164.926595,11.7604328 C164.752452,11.8848925 164.518589,11.8643165 164.304799,11.8723461 C163.577112,11.8999481 162.929721,12.3174901 162.32298,12.7209802 C161.204349,13.464727 160.085216,14.2089756 158.967086,14.9537261 C158.803482,14.132192 159.177363,13.2293577 159.873935,12.7646415 C158.282558,12.2166176 156.542632,12.4188645 154.871962,12.6286392 C153.528501,12.7967601 152.184537,12.964881 150.841076,13.1335037 C150.357289,13.1937262 149.863465,13.2579634 149.426853,13.4757678 C149.027378,13.6760073 148.694147,13.9981972 148.281122,14.1693292 C147.859063,14.3439742 147.387823,14.3474871 146.946693,14.4629134 C146.505062,14.5778379 146.048878,14.864898 145.973098,15.3145587 C145.911872,15.6713764 146.104583,16.0156479 146.189898,16.3669453 C146.275715,16.7177408 146.175345,17.1914904 145.820032,17.2617499 C145.402992,17.3440539 145.160597,16.8296541 144.911176,16.4848808 C144.323004,15.6703727 143.153183,15.601117 142.149978,15.6442764 C140.265519,15.7255766 138.389591,15.9323402 136.514667,16.1391038 C136.1177,16.1827651 135.721236,16.2269282 135.323267,16.2705894 C134.23575,16.3905324 133.147732,16.5104753 132.063227,16.6600277 C130.788017,16.8371819 129.517826,17.0549863 128.256167,17.3144445 C128.493543,18.7482397 129.198146,20.1002328 130.237484,21.1154822 C130.71826,21.5862207 131.284852,22.3776436 130.767441,22.8067282 C130.488411,23.0375808 130.056315,22.9402212 129.75972,22.7329558 C129.462622,22.5251885 129.237792,22.2270875 128.937182,22.0253425 C128.647612,21.8311252 128.299828,21.7352712 128.014273,21.5355335 C127.163632,20.9413391 126.887111,19.5697737 125.49798,20.1228162 C125.453315,19.7363891 125.408651,19.3499619 125.364989,18.963033 C123.502611,19.305297 121.654787,19.7248464 119.828041,20.2201758 C119.24288,20.3787614 118.596994,20.596064 118.323484,21.1365601 C117.916481,21.9435404 118.688833,22.9412249 119.576612,23.1128588 C120.463889,23.2844927 121.354679,22.9040878 122.17822,22.5317126 C122.567658,22.8293116 122.301676,23.5936344 121.811365,23.5851029 C121.753652,24.409648 123.265736,25.0148832 122.771913,25.6773297 C122.380467,26.2022684 121.553915,25.5267737 120.911542,25.6547463 C120.450339,25.7460837 120.183353,26.2730297 120.21497,26.7422627 C120.247088,27.2124993 120.500022,27.6340562 120.745931,28.0355389 C119.388919,27.4006943 118.127761,26.5641047 117.016156,25.5603979 C116.554953,25.1448633 116.106798,24.6916896 115.541209,24.4352425 C114.97562,24.1792973 114.245423,24.1662491 113.790242,24.5883078 C113.662771,24.0990008 113.737548,23.5610139 113.991987,23.1238996 C112.134628,22.9939196 110.27777,22.8629358 108.420411,22.7319521 C107.881922,22.6943131 107.242059,22.5909313 107.015723,22.1006205 C106.807454,21.6519635 107.046336,21.0407061 106.714611,20.6748549 C106.478238,20.414393 106.071235,20.4199134 105.757577,20.2613277 C104.865783,19.8101615 105.196003,18.4054738 105.909136,17.7043846 C106.208743,17.4097967 106.587642,17.0534807 106.469707,16.6499906 C106.368332,16.2996969 105.951794,16.1646983 105.592467,16.09745 C101.41002,15.3095401 96.8933398,16.5430958 93.6910132,19.3469508 C93.6021851,18.2514048 91.0266734,18.5480002 90.0575945,18.9826052 C89.4001665,19.2781969 88.8340759,19.8869451 88.8069758,20.606101 C88.7487608,22.1352484 89.2862458,22.6832723 86.389046,22.54727 C85.1896164,22.4915643 84.0182905,22.8975637 82.9147149,23.3708115 C79.7610681,24.7238083 76.6651344,26.9480226 75.7156277,30.2446976 C75.6127478,30.6020173 75.5239197,30.9894481 75.2539226,31.2443896 C75.0576979,31.4295735 74.7927193,31.5184016 74.5367741,31.6017092 C72.006931,32.42776 69.4785935,33.2538107 66.9487505,34.0793595 C68.0854485,34.1722024 69.2221464,34.2570156 70.3598481,34.3332974 C73.1190382,34.5179794 76.3660297,34.437181 77.9985589,32.2054389 C78.3759526,31.6890317 78.8221003,30.9974777 79.4469078,31.1349856 C79.6361066,31.1766394 79.7982052,31.2950768 79.9547835,31.4105031 C80.4260238,31.7582875 80.8972642,32.1070756 81.3690064,32.4553619 C81.9491489,32.3263856 82.5287896,32.1969074 83.1084303,32.0669274 C84.2832691,33.5338449 85.5188322,35.481538 84.6511277,37.148695 C84.2601839,37.8989658 83.5084075,38.3952989 82.7345495,38.7410759 C84.0288295,41.0265163 82.9036741,43.8695159 81.7735002,46.2397695 C81.171778,47.5024327 80.1715841,48.7043716 79.9452483,50.0849703 C79.8830184,50.4598548 79.9306945,50.846282 79.8699702,51.2211665 C79.6667196,52.4672685 78.3689267,53.2401227 77.8996938,54.4114486 C77.41942,55.6073653 77.8861437,56.9563472 78.4025509,58.1367065 C78.9184562,59.3180694 79.501108,60.5817363 79.2386387,61.842392 C79.1989922,62.0315908 79.1287328,62.2323321 78.9641248,62.3332047 C78.7789409,62.4466235 78.5400587,62.3939289 78.3307858,62.3387251 C77.8294343,62.2047302 77.1459099,62.1515337 76.9386445,62.6272908 C76.8483109,62.8335525 76.8929758,63.071431 76.8628646,63.2952577 C76.7835718,63.896478 76.2039311,64.28692 75.882243,64.8028253 C75.5108715,65.399529 75.4702214,66.1994833 74.9528105,66.6752404 C74.6747837,66.9311856 74.2968881,67.0526341 74.0012965,67.2864978 C73.6986789,67.5263838 73.4989412,67.8691496 73.3057276,68.2028822 C72.4013878,69.7726796 71.4955424,71.3419752 70.5907007,72.9117727 C70.278046,73.4532725 69.9653913,73.9967798 69.709948,74.5663834 C68.9958106,76.1607717 68.7278208,77.9729644 67.7010288,79.3861836 C66.7214109,80.7351655 66.1558221,81.9682194 65.3056824,83.4030183 C65.0176186,83.8893142 64.6422322,84.3264285 64.4088704,84.841832 C64.1057509,85.5133118 64.0640971,86.2691031 64.0279636,87.0043183 C63.9075188,89.4066906 63.8011259,91.8923705 64.6678267,94.1356553 C65.2856083,95.7340584 66.3620839,97.1101404 67.1193806,98.6463137 C67.9118072,100.25375 68.3469141,102.03533 68.3845531,103.826946 C68.4312255,106.032592 67.9057849,108.361192 68.8206637,110.368104 C69.1102331,111.00345 69.5378122,111.582087 69.7109517,112.258586 C69.8840911,112.935084 69.7034239,113.78422 69.0705867,114.078808 C68.9220381,114.147562 68.757932,114.181688 68.6179149,114.267003 C68.0307464,114.62633 68.2746472,115.577844 68.795571,116.028007 C69.3169967,116.477165 70.0251119,116.702498 70.4592151,117.236971 C71.2862695,118.254228 70.7277067,119.761294 70.8817757,121.063604 C71.0544132,122.509945 72.1138258,123.661197 72.9052486,124.884716 C73.694664,126.105223 74.2472046,127.479298 74.5222203,128.907071 C75.6915388,127.532996 75.4912992,125.212426 74.1031727,124.058665 C73.8547553,123.851901 73.5626766,123.661699 73.4512651,123.357576 C73.3373444,123.043415 73.4507633,122.697638 73.5501302,122.37846 C74.0961468,120.627493 74.1834693,118.587459 73.1320864,117.08491 C72.9293376,116.794337 72.6869424,116.528354 72.5303641,116.211183 C72.1263721,115.390653 72.3667599,114.413544 72.2849578,113.50268 C72.0987702,111.435044 70.2539571,109.769393 70.1852031,107.694731 C70.1305011,106.053168 71.2044674,104.600804 72.3266116,103.400873 C72.1584907,104.947083 73.6419694,106.138483 74.1694174,107.60239 C74.3581142,108.127328 74.4208459,108.687899 74.4931128,109.240941 C75.1525482,114.301631 76.7118067,119.28102 79.3836743,123.628075 C80.3487384,125.197872 81.4723882,126.720495 81.9456359,128.501071 C82.5769675,130.876343 82.9980226,133.341949 82.1052253,135.630903 C81.9260637,136.092106 81.70575,136.560335 81.7268279,137.055163 C81.7509168,137.606198 82.0710993,138.096508 82.4023226,138.537638 C83.9149087,140.553081 85.8751482,142.182097 87.8479339,143.749887 C89.8633772,145.351803 91.9129465,146.911564 94.0076827,148.409094 C95.8063253,149.694341 97.67322,150.951484 99.7825099,151.61393 C100.475569,151.831734 101.210283,151.983294 101.928435,151.867868 C102.902031,151.711791 103.77927,151.07494 104.765914,151.074438 C105.656202,151.072932 106.455153,151.588336 107.193881,152.08517 C108.721523,153.110457 110.276265,154.161338 111.40142,155.616713 C111.673425,155.967508 111.918329,156.340385 112.222452,156.663077 C112.847762,157.326026 113.685857,157.74156 114.50438,158.142039 C117.217901,159.471449 120.407179,160.813907 123.140273,159.524144 C122.806039,162.381697 126.291411,164.272179 126.9112,167.081052 C127.078819,167.838349 127.053224,168.699028 127.568126,169.278166 C128.083027,169.857807 129.386843,169.548665 129.185599,168.7999 C130.112523,169.536119 131.038944,170.27284 131.965867,171.008557 C132.199229,171.193741 132.437108,171.384947 132.586158,171.642398 C132.827048,172.058434 132.814501,172.61248 133.150743,172.955748 C133.325388,173.13491 133.567783,173.226247 133.803153,173.312566 C135.667538,173.9986 137.532927,174.684131 139.397814,175.370667 C139.952362,175.574419 140.16565,176.184673 140.528992,176.650895 C140.891832,177.117117 141.676229,177.408694 142.031541,176.937453 C141.827287,176.500339 141.472476,176.135491 141.041886,175.919193 C140.942519,175.737522 141.096588,175.507673 141.286791,175.425369 C141.476491,175.343567 141.69279,175.353102 141.895539,175.308939 C143.091957,175.048979 143.339873,173.129891 144.54683,172.921622 C145.534478,172.751996 146.220511,173.849047 146.611455,174.771956 C146.65612,174.87885 146.701789,174.985243 146.746454,175.091134 C147.261857,176.309133 147.776759,177.527131 148.374466,178.705985 C148.704184,179.357892 149.065017,180.014316 149.164885,180.737989 C149.246688,181.333187 149.145815,181.934909 149.130258,182.535126 C149.103157,183.611602 149.359103,184.695103 149.865473,185.645614 C150.094318,186.075702 150.382382,186.511813 150.361304,186.99861 C150.340728,187.474367 150.01904,187.890404 149.64265,188.181981 C148.421641,189.131487 146.429784,189.260464 145.883768,190.707809 C145.753788,191.054088 145.733212,191.432987 145.627321,191.787296 C145.340762,192.745334 144.437426,193.42936 143.467344,193.674264 C143.20638,193.740007 142.931364,193.781661 142.707538,193.931715 C142.121875,194.324165 142.186614,195.178319 142.163027,195.882419 C142.140443,196.587022 141.661675,197.476306 140.98618,197.274059 C141.264709,197.936505 140.586705,198.570346 140.26853,199.214224 C139.935299,199.888213 140.017101,200.747888 140.472283,201.345596 C140.841145,201.830888 141.402719,202.122967 141.858903,202.526457 C142.31559,202.929445 142.68395,203.559271 142.471666,204.129376 C142.201168,204.852045 141.248148,204.978011 140.619326,205.425664 C140.240928,205.694657 139.974946,206.094634 139.763665,206.508162 C139.292927,207.429063 139.053041,208.466896 139.073115,209.500714 C139.093189,210.578695 139.402331,211.663702 140.039183,212.534417 C141.459428,214.474583 144.289881,215.14807 145.359331,217.301523 C145.883768,218.359932 146.884965,219.387728 147.145427,220.540485 C147.221709,220.879236 147.255835,221.226518 147.323083,221.567277 C147.540888,222.669849 148.094934,223.672552 148.641452,224.655181 C149.170406,225.605691 149.702872,226.561722 150.384389,227.409854 C150.786374,227.9097 151.250588,228.390476 151.439285,229.003741 C151.631495,229.630556 151.509043,230.312574 151.636513,230.955951 C151.875898,232.16893 152.934306,233.022081 153.921954,233.766831 C154.658675,234.322383 155.400916,234.881448 156.22797,235.289957 C157.356137,235.848018 158.614283,236.112996 159.730907,236.693641 C160.542906,237.117205 161.262564,237.698853 162.070046,238.129945 C163.3302,238.802429 164.793604,239.106552 165.91625,239.988308 C167.02635,240.861031 167.673741,242.217039 167.960299,243.599143 C168.246858,244.98175 168.206709,246.408519 168.165557,247.819731 C168.134442,248.892191 168.090279,250.012328 167.569356,250.950292 C166.826111,251.384897 166.388494,252.294256 166.226898,253.139879 C166.141081,253.585525 166.156638,254.043717 166.172698,254.49689 C166.213849,255.662194 166.247474,256.86865 165.803835,257.946631 C165.530827,258.609579 165.084177,259.20277 164.91706,259.899342 C164.805147,260.36707 164.825723,260.855373 164.791095,261.335145 C164.628495,263.596998 163.234848,265.697255 163.402969,267.958606 C163.467708,268.833839 163.767314,269.707063 163.608227,270.569248 C163.516387,271.070599 163.273992,271.530297 163.03511,271.980961 C161.928021,274.068671 160.819929,276.156883 159.71284,278.245096 C159.42829,278.781577 159.142233,279.321571 158.961064,279.901212 C158.63787,280.934528 158.663967,282.040613 158.693074,283.122609 C158.705621,283.588831 158.729208,284.089178 159.009242,284.461554 C159.151266,284.650251 159.350502,284.793781 159.469943,284.997533 C159.616986,285.247958 159.621001,285.5571 159.593901,285.847673 C159.429795,287.581075 158.305142,289.052509 157.224149,290.418554 C156.978241,290.473758 157.00233,290.542511 156.938093,290.78591 C156.314791,293.143618 155.719091,295.774333 156.881885,297.917749 C157.24874,298.593746 157.770166,299.171379 158.286573,299.740481 C159.163813,300.706047 160.086219,301.698713 161.293679,302.192537 C162.166904,302.549856 163.149031,302.627643 163.972572,303.087843 C164.444314,302.495154 165.151426,302.095177 165.903202,301.997316 L165.468597,302.197555 C166.725238,302.301941 168.001451,302.174972 169.212424,301.823674 C169.424206,301.498473 169.079432,301.070392 168.708061,300.957475 C168.336689,300.844056 167.921657,300.887718 167.574374,300.714578 C167.175401,300.515844 166.960106,300.081741 166.77191,299.677749 C166.485352,299.059968 166.198794,298.442688 165.912737,297.824906 C166.605797,297.046532 168.091785,297.382773 168.680459,296.521593 C168.833022,296.29877 168.896758,296.025762 169.047314,295.801935 C169.407143,295.267461 170.12931,295.16157 170.737556,294.949788 C171.65645,294.631111 172.449378,293.963144 172.919615,293.112503 C171.781913,292.970478 170.392783,292.613661 170.141354,291.495029 C170.106225,291.337949 170.103213,291.158787 170.20258,291.03232 C170.312486,290.894311 170.5057,290.8642 170.680847,290.843624 C171.554072,290.742249 172.426795,290.639871 173.30002,290.537995 C173.598121,290.502865 173.910273,290.463721 174.158189,290.294094 C174.484896,290.071271 174.633946,289.674305 174.811602,289.320498 C175.317972,288.317293 176.211271,287.51483 177.262654,287.117864 C177.052378,286.947234 176.841097,286.777105 176.630821,286.606977 C176.718143,286.294824 176.869703,286.000738 177.072954,285.747804 C176.237368,285.73576 175.883059,284.368711 176.606732,283.951671 C177.268175,283.570764 178.069133,284.061075 178.823418,284.17901 C180.280299,284.404844 181.532423,283.208426 182.52007,282.11288 C182.655571,281.962324 182.799101,281.791694 182.803618,281.589447 C182.80964,281.354077 182.626463,281.104656 182.746406,280.902911 C182.816164,280.785477 182.9612,280.740813 183.092685,280.707188 C185.291305,280.149127 187.578753,279.998571 189.769343,279.410901 C191.959933,278.822227 194.143497,277.694562 195.291738,275.73884 C194.914846,275.637967 194.537452,275.537095 194.161564,275.437226 C194.624775,274.782809 194.363811,273.740459 193.646662,273.38314 C193.170905,273.146265 192.441211,273.032344 192.439705,272.50038 C193.923686,272.101908 195.472405,272.718686 197.005567,272.80651 C200.073899,272.982661 202.834093,271.05454 205.188287,269.078241 C207.093825,267.479336 208.740406,265.833257 210.675051,264.269482 C211.635598,263.493115 212.563525,262.677603 213.490448,261.862091 C214.625641,260.863403 215.759829,259.865718 216.894018,258.868033 C217.119852,258.6693 217.350203,258.465547 217.491725,258.20107 C217.81793,257.592322 217.599122,256.853092 217.540907,256.165051 C217.483194,255.47701 217.765235,254.604287 218.452775,254.542057 C218.125566,253.127834 219.482578,251.938943 220.684517,251.123934 C223.314731,249.342354 225.999144,247.558265 229.016287,246.564093 C230.619709,246.036646 232.343073,245.717969 233.706107,244.72179 C234.281231,244.300735 234.770538,243.772785 235.244288,243.239315 C237.335009,240.888131 239.219469,238.353772 240.871068,235.674878 C241.504407,234.646581 242.348023,233.917388 242.881995,232.83489 C244.380529,229.79968 244.301236,226.208919 245.563398,223.06832 C246.209283,221.458877 247.190406,220.009524 248.164002,218.574223 C248.973994,217.382321 249.782981,216.189416 250.592471,214.99651 C251.660415,213.423702 252.732876,211.841358 253.536845,210.117993 C254.478824,208.098535 255.03839,205.901923 255.176902,203.677708 C255.235117,202.731213 255.120192,201.600537 254.295145,201.132308" id="Fill-2" fill="#FFFFFF"></path>
                <path d="M311.864255,156.076411 C311.864255,158.374899 311.813568,160.662849 311.715205,162.935743 C311.646953,162.676285 311.590745,162.415823 311.538051,162.161383 C311.14259,160.229749 310.746628,158.297614 310.351167,156.363471 L310.824917,156.827685 C310.535348,154.045912 309.571287,151.338413 308.041136,148.998772 C305.825955,149.904116 305.670883,153.000049 304.146252,154.844862 C302.700412,156.592316 300.066686,157.128295 298.875286,159.058424 C298.613318,159.484999 298.42161,159.975812 298.032172,160.287463 C297.141382,161.0016 295.737196,160.33815 295.178633,159.343476 C294.619569,158.350308 294.594476,157.155395 294.328494,156.045798 C294.063515,154.9362 293.378485,153.758852 292.252828,153.580694 C291.359027,153.438669 290.380915,153.966619 289.572931,153.560619 C288.928049,153.239433 288.681639,152.463066 288.485916,151.768501 C287.811425,149.364623 287.005951,146.950206 285.555092,144.9177 C284.123305,142.907777 282.046133,141.223557 281.462478,138.826705 C281.178931,137.66642 281.283818,136.451935 281.299375,135.257022 C281.367126,130.407612 279.92229,125.548668 277.212281,121.525309 C276.661246,120.706786 276.047981,119.90382 275.753393,118.960838 C275.506983,118.185474 275.491928,117.357416 275.477876,116.542406 C275.404103,112.214924 275.334848,107.844283 276.207571,103.604124 C276.653217,101.437622 277.346276,99.2861768 277.274511,97.0750107 C277.177151,94.0684069 275.687651,91.3077113 274.864611,88.4135227 C274.036553,85.495747 273.687263,82.0726049 271.237716,80.2865086 C270.187839,79.5196766 268.778133,79.083566 268.215555,77.9117382 C267.95961,77.3802755 267.922473,76.7660069 267.693628,76.2204922 C267.120009,74.8624769 265.548706,74.2808288 264.142011,73.8422089 C262.293183,70.3292351 261.013457,66.5151491 259.164629,63.0026771 C260.688758,63.4779323 262.322291,62.1048614 262.607343,60.5330565 C262.892396,58.9602479 262.176753,57.37138 261.245815,56.0740889 C260.706824,55.3228144 260.023802,54.5886028 259.119964,54.3938837 C258.417369,54.2448333 257.674626,54.4420617 256.97705,54.279963 C255.909608,54.0315456 255.219057,53.0323554 254.633394,52.1069377 C252.40115,48.589949 250.167903,45.0754696 247.937666,41.5584809 C249.432688,44.2544374 250.117717,47.3950361 249.875322,50.4698919 C247.555254,48.0203454 245.233178,45.5682897 242.913612,43.1162339 C242.286295,45.1763421 243.008462,47.5817255 244.664578,48.9573057 C243.421487,50.0066812 241.425616,49.0792561 240.535328,47.7152185 C239.646546,46.3516828 239.377051,44.6624442 238.525406,43.2753214 C236.180245,39.4597299 229.725406,38.0746145 229.909084,33.5995877 C234.797638,35.9061059 239.639018,38.3114893 244.430213,40.811723 C245.578453,39.1917402 244.5622,36.881709 243.109335,35.5282103 C241.656469,34.1762172 239.779035,33.2507996 238.651873,31.6172667 C238.157045,30.8996163 237.737496,29.9997932 236.902412,29.7589035 C236.090915,29.5260435 235.268879,30.0329155 234.436304,30.1679141 C233.332728,30.3485813 232.238688,29.8698131 231.221933,29.4040932 C227.701431,27.7881252 224.112677,26.1279941 221.288748,23.4741933 C219.70791,21.9882053 218.39456,20.2136517 216.665675,18.9023087 C214.088156,16.943073 210.648954,16.1652002 207.47975,16.826643 C206.88957,14.6541196 206.300394,12.4815962 205.712724,10.3090728 C205.532057,9.64361513 205.357412,8.91442213 205.567187,8.27656644 C267.346345,28.9775178 311.864255,87.3275119 311.864255,156.076411" id="Fill-3" fill="#FFFFFF"></path>
                <path d="M176.982118,307.295382 L176.924405,307.409303 C176.231847,308.040132 175.147342,307.900617 174.280139,308.249405 C173.888192,308.406485 173.538902,308.664438 173.141434,308.804455 C172.437835,309.052371 171.609777,308.924398 170.980955,309.326383 C170.818355,309.43127 170.678839,309.564763 170.516741,309.669149 C170.290405,309.816694 170.028939,309.90251 169.776507,310.000874 C168.839547,310.373751 168.016507,310.967443 167.173393,311.523999 C163.489287,311.785966 159.772561,311.917452 156.023214,311.917452 C155.020511,311.917452 154.019815,311.907917 153.022131,311.888846 C153.103933,311.690614 153.068803,311.440189 152.948358,311.275581 C152.87308,311.323759 152.762673,311.252496 152.745108,311.169189 L152.92728,311.249987 C152.879103,311.190266 152.81888,311.145601 152.749122,311.124524 L152.75665,311.097423 C153.383465,311.058781 154.008273,311.020138 154.632578,310.980492 C154.849379,310.968949 155.094283,310.941849 155.225769,310.769211 C155.352236,310.608618 155.231289,310.297971 155.043596,310.323566 C156.300739,309.985818 157.66829,310.528824 158.928945,310.197098 C159.217511,310.12182 159.497545,309.998866 159.794643,309.952696 C160.595601,309.828738 161.438714,310.267358 162.207052,310.006896 C162.376176,309.949183 162.558851,309.754966 162.440414,309.620971 C163.309122,309.473426 164.178332,309.327888 165.04704,309.182351 C165.312521,309.135678 165.661811,308.969063 165.576998,308.713118 C166.168181,308.512878 166.799011,308.91135 167.420807,308.871704 C167.920151,308.841091 168.352749,308.538473 168.810439,308.34275 C169.394596,308.092325 170.035965,308.013032 170.6683,307.937253 C171.355338,307.855952 172.043379,307.776158 172.730918,307.698872 C173.541411,307.604022 174.350399,307.510175 175.160892,307.417332 C175.70992,307.355604 176.260955,307.290865 176.809481,307.227632 C176.877733,307.219602 176.96907,307.229639 176.982118,307.295382" id="Fill-4" fill="#FFFFFF"></path>
                <path d="M29.6244068,65.2650323 C29.6244068,65.1927654 29.5506344,65.1164837 29.5506344,65.0442168 C29.9947746,64.3747443 30.4394167,63.7820555 31.0321056,63.116096 C30.5874635,63.7820555 30.0685471,64.523293 29.6244068,65.2650323" id="Fill-5" fill="#97CBE4"></path>
                <path d="M279.012429,60.3744708 C277.686031,58.5417022 274.579056,54.9057742 273.16132,53.2647136 C275.042267,42.2645887 275.050297,28.7150484 267.161663,20.8239054 C257.387064,11.0508121 239.376047,13.1751576 225.979572,16.8999136 C190.574818,26.5269676 143.467344,57.857676 100.655735,100.671794 C29.9024336,171.299632 -1.5973994,244.844242 20.8098535,267.248985 C28.7391374,275.415144 42.1541809,275.095464 53.3254378,273.17738 C55.5481466,275.249031 57.9184002,277.173638 60.2886539,279.025478 C45.1361939,282.771813 26.5610936,283.524092 15.5509316,272.507907 C5.47772997,262.435709 3.7744395,244.953144 10.5143308,221.994856 C22.5136458,179.14611 62.4044679,128.465942 95.3968129,95.4128722 C166.380967,24.5526762 245.302434,-11.8186478 272.346311,15.5654854 C283.505021,26.7246978 282.666926,45.0318084 279.012429,60.3744708" id="Fill-6" fill="#EF7521"></path>
                <path d="M301.529086,90.1509392 C289.467541,133.224516 249.515493,183.807826 216.647106,216.735934 C149.059496,284.199586 67.9765463,325.215564 39.6981103,296.58031 C28.5469275,285.428625 29.3318263,267.00659 33.1052621,251.770321 C34.8828268,254.211336 36.8827127,256.584099 38.956371,258.8048 L38.956371,258.88058 C36.9519685,269.910816 37.0272465,283.465375 44.8827579,291.321388 C49.548489,295.987621 56.5849757,298.432149 65.6956225,298.432149 C110.422304,298.432149 174.948106,247.916087 211.388184,211.477514 C281.320955,141.661675 313.965516,67.6262526 291.234065,44.8958061 C283.345934,36.7743123 269.913325,37.1732858 258.792254,38.8961486 C258.792254,38.8961486 253.276383,34.1847487 251.680991,33.1198158 C266.985512,29.3754875 285.433644,28.5820573 296.492486,39.6368842 C306.566189,49.7100858 308.269981,67.1886364 301.529086,90.1509392" id="Fill-7" fill="#3BABC5"></path>
                <path d="M276.198035,293.249509 C239.120604,330.776601 138.74139,252.966739 99.1742635,213.40162 C81.1757928,195.405157 65.177208,176.591676 51.8449703,158.074791 C51.8449703,157.998509 51.8449703,157.998509 51.8449703,157.998509 C29.9230096,127.534 -7.33860242,62.8521211 19.3288841,36.3788519 C30.3169645,25.0811279 49.3201457,26.1219719 64.5845191,29.9340504 C61.9919444,31.7131207 59.5479182,33.6372267 57.1033903,35.6371125 C45.90955,33.6718546 32.6305087,33.5483986 24.587806,41.561492 C-1.13920724,67.2990442 44.6935592,148.481361 104.433687,208.215467 C167.071517,270.852293 245.812819,313.18413 270.938612,288.063356 C281.594967,277.416034 276.568403,262.115025 276.568403,254.804526 C279.856045,249.881344 278.339946,253.283911 282.419512,246.880763 C282.419512,246.956543 282.493786,247.02881 282.493786,247.101578 C286.376124,262.875835 287.669401,281.772623 276.198035,293.249509" id="Fill-8" fill="#B4CB22"></path>
                <path d="M292.715035,275.766442 C281.652178,287.140447 263.025387,286.003247 247.533172,282.284012 C250.051975,280.431671 252.496001,278.508067 254.866254,276.507679 C265.994352,278.461896 279.47564,278.569293 287.456615,270.584303 C310.23273,247.809694 275.000613,187.415149 255.681264,160.367257 C242.348525,141.629556 226.053345,122.370932 207.610734,104.002093 C145.801966,42.1943292 66.5432529,-1.35149123 41.1048054,24.0819377 C30.938259,34.2570156 35.5492882,49.9534848 35.5492882,57.2649871 C33.5704802,59.8404988 31.2940731,62.4787422 29.6244068,65.2650323 C29.6244068,65.1927654 29.5506344,65.1164837 29.5506344,65.0442168 C25.6667908,49.2634363 24.3955961,30.3410535 35.8453817,18.8992976 C62.2785027,-7.87006518 126.562412,29.0046178 158.133006,51.8580184 C176.501844,65.1164837 195.093004,80.9685274 212.869655,98.7436733 C230.868126,116.74365 246.940483,135.629899 260.199451,154.146784 C282.340219,184.791459 319.549137,249.1381 292.715035,275.766442" id="Fill-9" fill="#3BABC5"></path>
                <g id="airplane" transform="translate(57.149850, 157.476339) rotate(-44.000000) translate(-57.149850, -157.476339) translate(28.649850, 128.476339)" fill-rule="nonzero">
                    <g id="Group" transform="translate(10.829255, 17.901421)" fill="#FFFFFF">
                        <path d="M4.95239505,2.59957368 L4.95239505,0.901590717 C4.95239505,0.405213036 4.55005508,0.00276256501 4.05356689,0.00276256501 L0.941150648,0.00276256501 C0.444772967,0.00276256501 0.042322496,0.405102533 0.042322496,0.901590717 L0.042322496,6.93127561" id="Shape"></path>
                        <path d="M34.4352624,6.93138612 L34.4352624,0.90170122 C34.4352624,0.405323539 34.0329224,0.00287306761 33.5364342,0.00287306761 L30.424018,0.00287306761 C29.9276403,0.00287306761 29.5251898,0.405213036 29.5251898,0.90170122 L29.5251898,2.59968418" id="Shape"></path>
                    </g>
                    <g id="Group" transform="translate(10.829255, 17.901421)" fill="#F4F4F4">
                        <path d="M1.73665887,8.91457629 L0.042322496,8.91457629 L0.042322496,0.901590717 C0.042322496,0.405213036 0.444662464,0.00276256501 0.941150648,0.00276256501 L1.73665887,0.00276256501 L1.73665887,8.91457629 Z" id="Shape"></path>
                        <path d="M31.2195262,8.91457629 L29.5251898,8.91457629 L29.5251898,0.901590717 C29.5251898,0.405213036 29.9275298,0.00276256501 30.424018,0.00276256501 L31.2195262,0.00276256501 L31.2195262,8.91457629 Z" id="Shape"></path>
                    </g>
                    <path d="M37.4257942,51.7469313 L29.3599884,50.270727 L26.7758851,50.270727 L25.390956,50.523778 L18.7100793,51.7469313 C17.7240646,51.9236249 17.0982884,50.7199201 17.8038475,50.0142505 L22.413574,45.404524 L23.9056906,43.9124074 L32.2302935,43.9124074 L38.3321366,50.0142505 C39.0375852,50.7199201 38.412914,51.9236249 37.4257942,51.7469313 Z" id="Shape" fill="#8E8F90"></path>
                    <g id="Group" transform="translate(0.000000, 13.702322)" fill="#5D5D5E">
                        <path d="M55.2949488,19.9723505 C55.5218106,20.1765593 55.6973992,20.3975645 55.8280133,20.630062 C56.8202162,22.4047338 55.0341626,24.7917004 52.862676,23.9129837 L32.678271,15.7597704 L23.4591496,15.7597704 L3.27485507,23.9128732 C1.10336847,24.7917004 -0.688320698,22.3990981 0.309517784,20.630062 C0.428639587,20.397675 0.609974355,20.1820844 0.836836193,19.9780966 L23.4648957,0.0261891163 L32.6725249,0.0261891163 L55.2949488,19.9723505 Z" id="Shape"></path>
                        <path d="M28.2200436,30.2101954 L28.2200436,36.5685151 L26.7757746,36.5685151 L25.3908455,36.821566 C24.0810582,35.6086895 23.0233273,33.2833833 22.4134635,31.7023121 L23.9055801,30.2101954 L28.2200436,30.2101954 Z" id="Shape"></path>
                    </g>
                    <path d="M55.8281238,34.3328265 C55.3061095,35.3074594 54.155888,35.948043 52.8621235,35.4271337 L32.6724144,27.2678427 L31.3855011,27.2667377 L23.4587076,27.2622071 L22.1728993,27.7820113 L3.26899843,35.4214981 C1.98208514,35.9481535 0.825122918,35.3018238 0.309849292,34.332937 C0.428418582,34.1004395 0.609642847,33.8849594 0.836504686,33.6809716 L22.1728993,14.8670199 L23.4643432,13.7282906 L32.6724144,13.7282906 L55.2946173,33.6752255 C55.5214791,33.8792133 55.6970677,34.100329 55.8281238,34.3328265 Z" id="Shape" fill="#8E8F90"></path>
                    <polygon id="Shape" fill="#5D5D5E" points="31.3855011 13.7282906 31.3855011 27.2667377 23.4587076 27.2620966 22.1728993 27.7819008 22.1728993 14.8670199 23.4643432 13.7282906"></polygon>
                    <path d="M28.8609587,51.1693342 L30.657068,47.95404 C31.9801156,45.596688 32.677608,42.9345699 32.677608,40.2324498 L32.677608,8.3755446 C32.677608,5.48137099 31.8930395,3.27474457 30.9712269,1.68107606 C29.6745893,-0.56046919 26.4612842,-0.559585169 25.1667463,1.68328611 C24.2470331,3.27684411 23.4645642,5.48269703 23.4645642,8.3755446 L23.4645642,40.2323393 C23.4645642,42.9345699 24.1541004,45.5965775 25.4771481,47.9539295 L27.2732573,51.1692237 L27.2732573,51.1771799" id="Shape" fill="#FFFFFF"></path>
                    <g id="Group" transform="translate(23.426551, 0.000000)">
                        <path d="M3.4589524,47.9539295 L4.27965521,51.1695552 L4.27965521,51.1753013 L3.84648502,51.1776219 L3.84648502,51.1696657 L2.05114927,47.95404 C0.727770127,45.5967985 0.0381233972,42.9351224 0.0381233972,40.2324498 L0.0381233972,8.37587611 C0.0381233972,5.48280753 0.820039798,3.27717562 1.73997395,1.68361762 C2.38751919,0.562016226 3.51597174,0 4.64331927,0 C4.12804565,0.001105026 3.61398755,0.563121252 3.31761957,1.68361762 C2.89704668,3.27717562 2.53912875,5.48291803 2.53912875,8.37587611 L2.53912875,40.2323393 C2.53912875,42.9350119 2.85483468,45.596688 3.4589524,47.9539295 Z" id="Shape" fill="#F4F4F4"></path>
                        <polygon id="Shape" fill="#D5D8DB" points="4.88617099 51.1729808 4.27965521 51.1854143 4.27965521 51.1793492"></polygon>
                    </g>
                    <g id="Group" transform="translate(25.194593, 4.199099)" fill="#8E8F90">
                        <path d="M2.8766037,52.3782326 C2.40431558,52.3782326 2.02164508,51.9954516 2.02164508,51.523274 L2.02164508,40.1152065 C2.02164508,39.6430289 2.40431558,39.2602479 2.8766037,39.2602479 C3.34889181,39.2602479 3.73156232,39.6430289 3.73156232,40.1152065 L3.73156232,51.523274 C3.73156232,51.9954516 3.34878131,52.3782326 2.8766037,52.3782326 Z" id="Shape"></path>
                        <path d="M4.8100677,2.61648057 C4.59127255,2.61648057 4.3724774,2.53305111 4.20550797,2.36608168 C3.47276523,1.63333894 2.28055267,1.63333894 1.54792043,2.36608168 C1.21398157,2.69991004 0.672739832,2.69991004 0.338800973,2.36608168 C0.00497261702,2.03225333 0.00497261702,1.49090109 0.338800973,1.15707273 C1.73820591,-0.2422217 4.01511199,-0.2422217 5.41462742,1.15707273 C5.74845578,1.49090109 5.74845578,2.03225333 5.41462742,2.36608168 C5.24765799,2.53305111 5.02875234,2.61648057 4.8100677,2.61648057 Z" id="Shape"></path>
                    </g>
                </g>
                <g id="box-(1)" transform="translate(102.724652, 55.168503)" fill-rule="nonzero">
                    <polygon id="Shape" fill="#EFC75E" points="0 10.3181049 20.7033972 0.0310474571 41.4067944 10.3180228 41.4067944 11.6767186 20.7033972 21.963694 0 11.7091624"></polygon>
                    <polygon id="Shape" fill="#E7BF55" points="0 10.3181049 20.7033972 20.6050802 41.4067944 10.3181049 41.4067944 30.9244172 20.6386739 41.2113925 0 30.9244993"></polygon>
                    <polygon id="Shape" fill="#DBB551" points="20.7033972 41.179113 20.7033972 20.6051624 0.129364405 10.382746 0 10.382746 0 30.9243351 20.6386739 41.2113104"></polygon>
                    <polygon id="Shape" fill="#F7E3AF" points="8.44310134 6.14501456 29.1141369 16.4319899 33.3195067 14.3616666 12.5837479 4.07477341"></polygon>
                    <path d="M29.1141369,16.432072 L33.3195067,14.3617487 L33.3195067,20.8315295 L32.1872602,20.6374419 L30.9903725,22.0931405 L29.1141369,21.9637761 C29.1141369,21.963694 29.1141369,16.432072 29.1141369,16.432072 Z" id="Shape" fill="#F1D999"></path>
                    <path d="M16.4333041,28.8217323 L9.44590135,25.328072 C9.057726,25.1339843 8.73419179,25.3604336 8.73419179,25.8456939 L8.73419179,30.536324 C8.73419179,31.0215842 9.05764387,31.5714856 9.44590135,31.7655733 L16.4656657,35.2592336 C16.853841,35.4533213 17.1773753,35.226872 17.1773753,34.7416117 L17.1773753,30.01862 C17.1449315,29.5333597 16.8214794,29.0159021 16.4333041,28.8217323 Z M14.8481589,32.6712884 L10.3839781,30.4392391 C10.1898904,30.3421542 10.0281644,30.0510637 10.0281644,29.7922528 C10.0281644,29.5334418 10.1898904,29.4040774 10.3839781,29.5010802 L14.8481589,31.7331295 C15.0422466,31.8302144 15.2039726,32.1213049 15.2039726,32.3801158 C15.2039726,32.6389268 15.0422466,32.7682912 14.8481589,32.6712884 Z M15.4951452,31.0537816 L10.3839781,28.4658364 C10.1898904,28.3687515 10.0281644,28.0776611 10.0281644,27.8188501 C10.0281644,27.5600392 10.1898904,27.4306748 10.3839781,27.5276775 L15.4951452,30.1156227 C15.6892329,30.2127076 15.8509589,30.5037981 15.8509589,30.762609 C15.851041,31.0537816 15.6892329,31.1507844 15.4951452,31.0537816 Z" id="Shape" fill="#F2F2F2"></path>
                </g>
                <g id="box-(1)-copy" transform="translate(175.500402, 212.885291)" fill-rule="nonzero">
                    <polygon id="Shape" fill="#EFC75E" points="0 8.93412511 17.9264256 0.0268830244 35.8528513 8.93405399 35.8528513 10.1105063 17.9264256 19.0176773 0 10.1385984"></polygon>
                    <polygon id="Shape" fill="#E7BF55" points="0 8.93412511 17.9264256 17.8412961 35.8528513 8.93412511 35.8528513 26.776488 17.8703838 35.6836589 0 26.7765591"></polygon>
                    <polygon id="Shape" fill="#DBB551" points="17.9264256 35.6557091 17.9264256 17.8413672 0.112012602 8.99009585 0 8.99009585 0 26.7764168 17.8703838 35.6835878"></polygon>
                    <polygon id="Shape" fill="#F7E3AF" points="7.31061801 5.32077637 25.2090227 14.2279473 28.8503213 12.435319 10.8958747 3.52821915"></polygon>
                    <path d="M25.2090227,14.2280185 L28.8503213,12.4353901 L28.8503213,18.0373715 L27.8699443,17.869317 L26.8335966,19.129761 L25.2090227,19.0177484 C25.2090227,19.0176773 25.2090227,14.2280185 25.2090227,14.2280185 Z" id="Shape" fill="#F1D999"></path>
                    <path d="M14.2290852,24.9558387 L8.17891125,21.9307873 C7.84280233,21.7627328 7.56266415,21.9588082 7.56266415,22.3789799 L7.56266415,26.4404502 C7.56266415,26.8606219 7.84273121,27.3367643 8.17891125,27.5048188 L14.2571062,30.5298702 C14.5932151,30.6979247 14.8733533,30.5018493 14.8733533,30.0816776 L14.8733533,25.9921864 C14.8452612,25.5720147 14.5651942,25.1239643 14.2290852,24.9558387 Z M12.8565575,28.2890492 L8.99116263,26.3563874 C8.82310817,26.2723246 8.68307464,26.0202784 8.68307464,25.7961821 C8.68307464,25.5720858 8.82310817,25.4600732 8.99116263,25.5440649 L12.8565575,27.4767267 C13.024612,27.5607895 13.1646455,27.8128357 13.1646455,28.036932 C13.1646455,28.2610283 13.024612,28.3730409 12.8565575,28.2890492 Z M13.4167627,26.8885006 L8.99116263,24.6476796 C8.82310817,24.5636168 8.68307464,24.3115707 8.68307464,24.0874743 C8.68307464,23.863378 8.82310817,23.7513654 8.99116263,23.8353571 L13.4167627,26.0761781 C13.5848172,26.1602409 13.7248507,26.412287 13.7248507,26.6363833 C13.7249219,26.8885006 13.5848172,26.9724922 13.4167627,26.8885006 Z" id="Shape" fill="#F2F2F2"></path>
                </g>
                <g id="box-(1)-copy-2" transform="translate(282.219967, 82.350858)" fill-rule="nonzero">
                    <polygon id="Shape" fill="#EFC75E" points="0 7.20611701 14.4591574 0.0216834012 28.9183147 7.20605965 28.9183147 8.15496659 14.4591574 15.3393428 0 8.17762517"></polygon>
                    <polygon id="Shape" fill="#E7BF55" points="0 7.20611701 14.4591574 14.3904933 28.9183147 7.20611701 28.9183147 21.5974707 14.4139549 28.781847 0 21.5975281"></polygon>
                    <polygon id="Shape" fill="#DBB551" points="14.4591574 28.7593031 14.4591574 14.3905506 0.0903475052 7.25126208 0 7.25126208 0 21.5974134 14.4139549 28.7817896"></polygon>
                    <polygon id="Shape" fill="#F7E3AF" points="5.89662314 4.2916499 20.3331793 11.4760262 23.2701902 10.0301219 8.78843167 2.845803"></polygon>
                    <path d="M20.3331793,11.4760835 L23.2701902,10.0301793 L23.2701902,14.5486444 L22.4794345,14.4130945 L21.6435336,15.4297477 L20.3331793,15.3394002 C20.3331793,15.3393428 20.3331793,11.4760835 20.3331793,11.4760835 Z" id="Shape" fill="#F1D999"></path>
                    <path d="M11.476944,20.1289652 L6.59697405,17.689009 C6.32587418,17.553459 6.09991937,17.7116102 6.09991937,18.0505137 L6.09991937,21.3264282 C6.09991937,21.6653317 6.32581681,22.0493803 6.59697405,22.1849303 L11.4995452,24.6248866 C11.7706451,24.7604365 11.9965999,24.6022853 11.9965999,24.2633818 L11.9965999,20.9648661 C11.9739413,20.6259626 11.7480438,20.2645725 11.476944,20.1289652 Z M10.3698859,22.8174775 L7.25212253,21.2586246 C7.1165726,21.1908209 7.00362387,20.9875247 7.00362387,20.8067723 C7.00362387,20.6260199 7.1165726,20.5356724 7.25212253,20.6034187 L10.3698859,22.1622717 C10.5054358,22.2300753 10.6183845,22.4333716 10.6183845,22.614124 C10.6183845,22.7948763 10.5054358,22.8852238 10.3698859,22.8174775 Z M10.8217381,21.6878182 L7.25212253,19.8804092 C7.1165726,19.8126056 7.00362387,19.6093093 7.00362387,19.428557 C7.00362387,19.2478046 7.1165726,19.1574571 7.25212253,19.2252034 L10.8217381,21.0326124 C10.9572881,21.100416 11.0702368,21.3037123 11.0702368,21.4844646 C11.0702941,21.6878182 10.9572881,21.7555645 10.8217381,21.6878182 Z" id="Shape" fill="#F2F2F2"></path>
                </g>
            </g>
        </g>
    </g>
</svg>