<?xml version="1.0" encoding="utf-8"?>
<!-- Generator: Adobe Illustrator 22.1.0, SVG Export Plug-In . SVG Version: 6.00 Build 0)  -->
<svg version="1.1" id="Layer_1" xmlns="http://www.w3.org/2000/svg" xmlns:xlink="http://www.w3.org/1999/xlink" x="0px" y="0px"
	 viewBox="0 0 290.6 75" style="enable-background:new 0 0 290.6 75;" xml:space="preserve">
<style type="text/css">
	.st0{fill:#EE7623;}
	.st1{fill:#D3D655;}
	.st2{fill:#87D1E6;}
	.st3{fill:#8C9091;}
</style>
<path class="st0" d="M37.5,5.2C19.7,5.2,5.2,19.7,5.2,37.5c0,17.8,14.5,32.2,32.2,32.2s32.2-14.5,32.2-32.2
	C69.7,19.7,55.2,5.2,37.5,5.2 M37.5,75C16.8,75,0,58.1,0,37.5S16.8,0,37.5,0C58.1,0,75,16.8,75,37.5S58.1,75,37.5,75"/>
<path class="st1" d="M37.5,41.4l5.9-16.5c-1.8-0.9-3.9-1.4-6-1.4c-2.1,0-4.1,0.5-5.9,1.3L37.5,41.4z"/>
<path class="st1" d="M41.3,51.4c6-1.7,10.3-7.1,10.3-13.6c0-2.6-0.7-5.1-2-7.2L41.3,51.4z"/>
<path class="st1" d="M25.3,30.6c-1.2,2.1-2,4.5-2,7.2c0,6.5,4.4,11.9,10.3,13.6L25.3,30.6z"/>
<path class="st2" d="M53.9,48.8c-3.6,5.5-9.8,9.1-16.8,9.1c-11.1,0-20.2-9-20.2-20.2c0-11.1,9-20.2,20.2-20.2
	c6.7,0,12.7,3.3,16.4,8.4l4.6-3.6c-4.7-6.3-12.3-10.5-20.8-10.5c-14.3,0-25.9,11.6-25.9,25.9c0,14.3,11.6,25.9,25.9,25.9
	c9,0,16.9-4.6,21.5-11.5L53.9,48.8z"/>
<path class="st3" d="M103.3,46.5c2.8,0,4.9,0.9,6.8,2.6c0.1,0.1,0.2,0.4,0,0.5l-0.4,0.5c-0.2,0.2-0.3,0.1-0.5,0
	c-1.6-1.4-3.6-2.3-5.9-2.3c-4.9,0-8.7,4-8.7,8.8c0,4.8,3.8,8.7,8.7,8.7c2.4,0,4.2-0.9,5.9-2.3c0.2-0.1,0.3-0.1,0.4-0.1l0.5,0.5
	c0.1,0.1,0.1,0.3,0,0.5c-1.9,1.8-4.3,2.7-6.8,2.7c-5.6,0-10.1-4.4-10.1-10C93.2,51,97.7,46.5,103.3,46.5"/>
<path class="st3" d="M124.6,65.3c4.9,0,8.8-3.9,8.8-8.8c0-4.9-3.9-8.8-8.8-8.8c-4.9,0-8.8,3.9-8.8,8.8
	C115.8,61.4,119.7,65.3,124.6,65.3 M124.6,46.5c5.6,0,10,4.5,10,10c0,5.6-4.4,10-10,10c-5.6,0-10-4.4-10-10
	C114.6,51,119,46.5,124.6,46.5"/>
<path class="st3" d="M147.8,57.6c2.7,0,4.9-2.1,4.9-4.8c0-2.6-2.3-4.7-4.9-4.7h-5.8v9.5H147.8z M140.6,47.2c0-0.2,0.1-0.4,0.4-0.4
	h6.9c3.4,0,6.2,2.6,6.2,6c0,2.8-1.9,5.1-4.6,5.8l4.1,7.2c0.1,0.2,0.1,0.5-0.2,0.5h-0.9c-0.2,0-0.3-0.1-0.4-0.2l-4-7.3
	c-0.4,0-0.7,0-1,0h-5.1v7.1c0,0.2-0.2,0.4-0.4,0.4h-0.5c-0.2,0-0.4-0.2-0.4-0.4V47.2z"/>
<path class="st3" d="M160.1,47.2c0-0.2,0.2-0.4,0.4-0.4h11.1c0.2,0,0.4,0.2,0.4,0.4v0.5c0,0.2-0.2,0.4-0.4,0.4h-10.2v7.7h8.8
	c0.2,0,0.4,0.2,0.4,0.4v0.5c0,0.2-0.2,0.4-0.4,0.4h-8.8v8.2h10.2c0.2,0,0.4,0.2,0.4,0.4v0.4c0,0.2-0.2,0.4-0.4,0.4h-11.1
	c-0.2,0-0.4-0.2-0.4-0.4V47.2z"/>
<path class="st3" d="M183.7,47.2c-0.1-0.2,0-0.4,0.2-0.4h0.8c0.2,0,0.3,0.1,0.3,0.2l7.5,17.3h0.1l7.6-17.3c0-0.1,0.1-0.2,0.3-0.2
	h0.7c0.3,0,0.4,0.2,0.3,0.4l-8.5,19.1c-0.1,0.1-0.2,0.2-0.3,0.2h-0.1c-0.2,0-0.3-0.2-0.3-0.2L183.7,47.2z"/>
<path class="st3" d="M215.9,59.8l-4.8-11.2h-0.1l-4.8,11.2H215.9z M202.2,65.9l8.6-19.4c0.1-0.1,0.2-0.2,0.3-0.2h0.1
	c0.1,0,0.3,0,0.4,0.2l8.5,19.4c0.1,0.2,0.1,0.3-0.3,0.3h-0.7c-0.2,0-0.3-0.1-0.4-0.2l-2.3-5.1h-10.6l-2.2,5.1
	c-0.1,0.1-0.2,0.2-0.4,0.2h-0.8C202.2,66.3,202.1,66.1,202.2,65.9"/>
<path class="st3" d="M224.6,47.2c0-0.2,0.2-0.4,0.4-0.4h0.6c0.2,0,0.3,0.2,0.3,0.4v17.9h8.9c0.3,0,0.4,0.2,0.4,0.4V66
	c0,0.2-0.2,0.3-0.4,0.3h-9.8c-0.2,0-0.4-0.2-0.4-0.4V47.2z"/>
<path class="st3" d="M239,47.2c0-0.2,0.2-0.4,0.4-0.4h0.6c0.2,0,0.4,0.2,0.4,0.4V59c0,3.6,2.3,6.2,6,6.2c3.7,0,6-2.6,6-6.2V47.2
	c0-0.2,0.1-0.4,0.4-0.4h0.6c0.2,0,0.4,0.2,0.4,0.4v12c0,4.3-2.9,7.4-7.3,7.4c-4.4,0-7.3-3.1-7.3-7.4V47.2z"/>
<path class="st3" d="M260.7,47.2c0-0.2,0.2-0.4,0.4-0.4h11.1c0.2,0,0.4,0.2,0.4,0.4v0.5c0,0.2-0.2,0.4-0.4,0.4H262v7.7h8.8
	c0.2,0,0.4,0.2,0.4,0.4v0.5c0,0.2-0.2,0.4-0.4,0.4H262v8.2h10.2c0.2,0,0.4,0.2,0.4,0.4v0.4c0,0.2-0.2,0.4-0.4,0.4H261
	c-0.2,0-0.4-0.2-0.4-0.4V47.2z"/>
<path class="st3" d="M277.6,63.7l0.2-0.3c0.2-0.2,0.4-0.3,0.6-0.1c0.3,0.2,2.3,2.1,5.1,2.1c2.5,0,4.7-1.7,4.7-3.7
	c0-2.5-2-3.6-5.4-4.7c-3.2-1.1-5.4-2.3-5.4-5.5c0-2.1,1.7-4.9,6-4.9c2.8,0,4.8,1.4,4.8,1.4c0.1,0.1,0.3,0.3,0.1,0.6
	c-0.1,0.1-0.2,0.2-0.2,0.4c-0.2,0.2-0.3,0.3-0.6,0.1c-0.1-0.1-1.9-1.3-4.1-1.3c-3.4,0-4.7,2.1-4.7,3.7c0,2.4,1.8,3.4,4.6,4.3
	c3.8,1.3,6.2,2.6,6.2,5.9c0,2.8-2.9,4.9-6.1,4.9c-3.3,0-5.5-1.9-5.9-2.3C277.5,64.1,277.3,64,277.6,63.7"/>
<path class="st0" d="M93.2,28.5L93.2,28.5c0-6.9,5.6-12.5,13.3-12.5c7.7,0,13.3,5.5,13.3,12.4v0.1c0,6.9-5.6,12.5-13.3,12.5
	C98.8,40.9,93.2,35.3,93.2,28.5z M114.1,28.5L114.1,28.5c0-4.2-3.1-7.7-7.6-7.7c-4.4,0-7.5,3.4-7.5,7.5v0.1c0,4.1,3.1,7.6,7.6,7.6
	C111,36,114.1,32.6,114.1,28.5z M120.1,16.3h6.1l6.5,17l6.5-17h5.9l-10.1,24.3h-4.9L120.1,16.3z M148.2,16.3h18.9V21h-13.4v4.9h11.8
	v4.7h-11.8v5.1h13.6v4.7h-19.1V16.3z M171.4,16.3h11.4c3.2,0,5.6,0.9,7.3,2.4c1.4,1.3,2.1,3.2,2.1,5.5v0.1c0,3.9-2.2,6.3-5.4,7.5
	l6.1,8.6h-6.4l-5.4-7.7h-4.3v7.7h-5.5V16.3z M182.5,28c2.7,0,4.2-1.4,4.2-3.4v-0.1c0-2.3-1.6-3.4-4.3-3.4h-5.5V28H182.5z
	 M202.3,21.2h-7.6v-4.9h20.7v4.9h-7.6v19.2h-5.5V21.2z M218.5,30.1V16.3h5.5V30c0,3.9,2,6,5.4,6c3.4,0,5.4-2,5.4-5.8V16.3h5.5v13.6
	c0,7.3-4.3,10.9-11,10.9C222.6,40.8,218.5,37.2,218.5,30.1z M245.1,16.3h11.4c3.2,0,5.6,0.9,7.3,2.4c1.4,1.3,2.1,3.2,2.1,5.5v0.1
	c0,3.9-2.2,6.3-5.4,7.5l6.1,8.6h-6.4l-5.4-7.7h-4.3v7.7h-5.5V16.3z M256.2,28c2.7,0,4.2-1.4,4.2-3.4v-0.1c0-2.3-1.6-3.4-4.3-3.4
	h-5.5V28H256.2z M270.2,16.3H289V21h-13.4v4.9h11.8v4.7h-11.8v5.1h13.6v4.7h-19.1V16.3z"/>
</svg>
