<?xml version="1.0" encoding="utf-8"?>
<!-- Generator: Adobe Illustrator 22.1.0, SVG Export Plug-In . SVG Version: 6.00 Build 0)  -->
<svg version="1.1" id="Layer_1" xmlns="http://www.w3.org/2000/svg" xmlns:xlink="http://www.w3.org/1999/xlink" x="0px" y="0px"
	 viewBox="0 0 262.4 141.5" style="enable-background:new 0 0 262.4 141.5;" xml:space="preserve">
<style type="text/css">
	.st0{fill:#FFFFFF;}
	.st1{fill:none;stroke:#FFFFFF;stroke-width:0.6704;}
</style>
<g>
	<g>
		<path class="st0" d="M1.7,64.3c0-4,0.5-7.6,1.7-10.7c1.1-3.1,2.5-5.8,4.2-7.8c1.7-2.1,3.6-3.8,5.6-4.8c2-1.1,3.9-1.7,5.6-1.7
			c1,0,1.9,0.2,2.7,0.5c0.8,0.3,1.5,0.9,2,1.4c0.5,0.6,1,1.2,1.3,1.9c0.3,0.7,0.5,1.3,0.5,1.9c0,0.6-0.1,1.1-0.3,1.5
			c-0.2,0.5-0.4,0.7-0.6,0.9c-0.2,0.2-0.4,0.2-0.6,0c-0.2-0.2-0.3-0.6-0.3-1.2c0-1.1-0.3-2.1-0.7-2.9c-0.5-0.9-1.3-1.3-2.5-1.3
			c-1.5,0-2.7,0.7-4,2c-1.1,1.3-2.1,3-2.9,5c-0.7,1.9-1.3,4.1-1.7,6.4c-0.4,2.3-0.6,4.4-0.6,6.3c0,1.9,0.3,4,0.9,6.3
			c0.6,2.3,1.4,4.5,2.3,6.5c0.9,2,1.9,3.7,3.1,5c1.1,1.3,2.1,2.1,3.1,2.1c1.7,0,3.4-0.6,5-1.8c1.6-1.2,3.2-2.7,4.6-4.6
			c1.4-1.9,2.7-3.9,4-6.2c1.3-2.2,2.3-4.4,3.4-6.4c1-2.1,1.8-3.9,2.5-5.6c0.7-1.6,1.1-2.7,1.5-3.4c0.1-0.4,0.3-0.7,0.7-0.7
			c0.3-0.1,0.5-0.1,0.7-0.1c0.2,0.1,0.4,0.2,0.5,0.3c0.1,0.2,0.1,0.5,0,0.7c-0.3,0.7-0.9,2-1.5,3.8c-0.7,1.8-1.5,3.8-2.6,6
			c-1.1,2.2-2.3,4.6-3.7,7c-1.4,2.4-2.9,4.6-4.7,6.6c-1.7,1.9-3.6,3.6-5.7,4.8c-2.1,1.3-4.3,1.9-6.7,1.9c-2.5,0-4.8-0.6-6.8-1.7
			s-3.8-2.6-5.3-4.5c-1.5-1.9-2.6-4-3.4-6.3C2.1,69.3,1.7,66.8,1.7,64.3z"/>
		<path class="st0" d="M70.7,54.4c0.1-0.3,0.2-0.6,0.4-0.7c0.2-0.2,0.5-0.3,0.7-0.2c0.2,0,0.4,0.1,0.5,0.3c0.1,0.2,0.1,0.5,0.1,0.9
			c-0.3,1.3-0.6,3.5-1.1,6.4s-1.2,6.2-1.9,9.7c-0.7,3.6-1.6,7.2-2.5,11.1c-0.9,3.8-1.9,7.2-2.9,10.3c-1.1,3.1-2.1,5.7-3.3,7.6
			c-1.1,2-2.2,3-3.3,3c-1.7,0-3.2-0.4-4.4-1.1c-1.2-0.8-2.1-1.8-2.9-3.1c-0.7-1.3-1.3-2.7-1.7-4.2c-0.4-1.5-0.7-3.2-0.9-4.7
			c-0.2-1.6-0.3-3.1-0.3-4.5s-0.1-2.6-0.1-3.5c0-0.5,0-1.3,0.1-2.3c0.1-1.1,0.1-2.4,0.3-3.9c0.1-1.5,0.3-3.1,0.3-4.8
			c0.1-1.7,0.3-3.5,0.4-5.2c0.3-4.1,0.7-8.6,1.1-13.5c-0.5,0-1,0.1-1.7,0.4c-0.6,0.3-1.3,0.6-2,0.9c-0.7,0.3-1.5,0.6-2.4,0.9
			c-0.9,0.3-1.8,0.4-2.8,0.4c-0.9,0-1.6-0.3-2.1-0.9c-0.5-0.6-1-1.4-1.3-2.4c-0.3-0.9-0.6-2-0.7-3.1c-0.1-1.1-0.2-2.1-0.2-3.1
			c0-1.2,0.1-2.4,0.4-3.8c0.3-1.3,0.7-2.5,1.1-3.6c0.5-1.1,1.1-2,1.7-2.7s1.5-1.1,2.3-1.1c0.8,0,1.4,0.3,1.9,0.8
			c0.5,0.5,0.8,1.2,1.1,2.1c0.3,0.9,0.4,1.8,0.5,2.9c0.1,1.1,0.1,2.2,0.1,3.4c-0.1,2.7-0.5,5.7-1.1,9.1c1.1-0.6,2.2-1.1,3.4-1.7
			c1-0.4,2.1-0.7,3.2-1.1c1.1-0.4,2.3-0.5,3.3-0.5c1.9,0,3.4,0.7,4.4,2.1c1,1.4,1.7,3.3,2.2,5.6c0.5,2.3,0.6,4.9,0.6,7.8
			c-0.1,2.9-0.2,6-0.5,9s-0.6,6-1,9c-0.4,2.9-0.7,5.6-0.9,7.8c-0.3,2.3-0.3,4.2-0.3,5.6c0,1.4,0.3,2.1,0.8,2.1
			c0.5,0,1.1-0.9,1.8-2.7c0.7-1.8,1.5-4.1,2.3-6.8s1.6-5.9,2.4-9.3c0.8-3.4,1.6-6.7,2.3-9.9c0.7-3.2,1.3-6.1,1.9-8.7
			C70,57.6,70.4,55.6,70.7,54.4z M41.9,52.4c0.6-2.9,1-5.6,1.1-7.9c0.1-1,0.1-1.9,0.1-2.9c0-0.9-0.1-1.8-0.2-2.5s-0.3-1.3-0.7-1.8
			c-0.3-0.5-0.7-0.7-1.3-0.7c-0.4,0-0.7,0.3-1.1,0.9c-0.3,0.6-0.7,1.3-1,2.2c-0.3,0.9-0.5,1.8-0.7,2.9c-0.2,1.1-0.3,2-0.3,2.9
			c0,1,0.1,2,0.2,2.9c0.1,0.9,0.3,1.7,0.6,2.3s0.7,1.1,1.2,1.5C40.4,52.5,41.1,52.5,41.9,52.4z"/>
		<path class="st0" d="M102.1,53.7c0.1-0.3,0.3-0.5,0.5-0.6c0.2-0.1,0.4-0.1,0.6-0.1s0.3,0.1,0.5,0.3c0.1,0.2,0.1,0.3,0.1,0.5
			c-0.3,0.9-0.7,2.2-1.3,3.9c-0.6,1.7-1.3,3.6-2.3,5.8c-0.9,2.1-2,4.3-3.3,6.6c-1.3,2.2-2.7,4.3-4.2,6.1c-1.6,1.8-3.3,3.4-5.2,4.5
			s-3.9,1.7-6,1.7c-2.3,0-4.4-0.5-6.2-1.3c-1.9-0.9-3.4-2.1-4.7-3.8c-1.3-1.6-2.2-3.5-2.9-5.6c-0.7-2.1-1-4.6-1-7.1
			c0-2.6,0.5-5.1,1.5-7.3c1-2.2,2.2-4.2,3.8-5.8c1.5-1.7,3.3-2.9,5.2-3.9c1.9-0.9,3.8-1.4,5.6-1.4c1.1,0,2,0.2,2.8,0.7
			c0.8,0.5,1.5,1.1,1.9,1.8c0.5,0.7,0.9,1.6,1.1,2.5c0.3,0.9,0.4,1.9,0.4,2.9c0,0.9-0.2,1.7-0.6,2.6c-0.4,0.9-0.9,1.7-1.5,2.5
			c-0.6,0.8-1.3,1.5-2.1,2.3c-0.8,0.7-1.6,1.4-2.5,1.9c-1.9,1.5-4.2,2.8-6.6,4c0.5,2.2,1.1,4.1,1.9,5.8c0.3,0.7,0.7,1.4,1.1,2.1
			c0.5,0.7,0.9,1.3,1.5,1.8c0.5,0.5,1.1,0.9,1.8,1.3c0.7,0.3,1.4,0.5,2.3,0.5c1.5,0,2.9-0.5,4.4-1.5c1.4-1.1,2.7-2.3,4-4
			c1.2-1.6,2.3-3.4,3.4-5.4c1.1-2,1.9-3.9,2.7-5.8c0.8-1.9,1.5-3.6,2-5.1C101.4,55.6,101.8,54.4,102.1,53.7z M83.6,51
			c-1.2,0-2.3,0.2-3.1,0.6c-0.9,0.4-1.6,0.9-2.2,1.6c-0.6,0.7-1.1,1.4-1.5,2.3c-0.4,0.9-0.7,1.7-0.9,2.6c-0.5,2.1-0.7,4.4-0.5,7.1
			c2.1-0.9,3.9-1.9,5.5-3.2c1.3-1,2.6-2.1,3.8-3.4c1.1-1.3,1.7-2.6,1.7-4c0-1-0.2-1.8-0.7-2.6C85.3,51.4,84.6,51,83.6,51z"/>
		<path class="st0" d="M139.9,54.8c0.1-0.5,0.3-0.8,0.5-1c0.3-0.2,0.5-0.3,0.7-0.3c0.2,0,0.4,0.1,0.5,0.4c0.1,0.3,0.1,0.5,0,0.9
			c-0.3,0.9-0.7,2.3-1.4,4.4c-0.6,1.9-1.4,4.2-2.3,6.6c-0.9,2.4-2,4.8-3.2,7.4c-1.2,2.5-2.5,4.8-4,6.9c-1.4,2.1-2.9,3.8-4.6,5.1
			s-3.3,2-5,2s-3.2-0.5-4.4-1.3c-1.3-0.9-2.4-2.1-3.4-3.8c-0.9-1.6-1.7-3.6-2.2-5.9c-0.5-2.3-0.8-4.9-0.9-7.7c-1,1.5-2.1,2.9-3.3,4
			c-1.2,1.1-2.5,1.6-4,1.6c-0.8,0-1.7-0.3-2.6-0.9c-0.9-0.6-1.7-1.5-2.5-2.5c-0.7-1.1-1.4-2.3-1.9-3.8c-0.5-1.4-0.7-2.9-0.7-4.4
			c0-1.7,0.5-3.8,1.3-6.2c0.9-2.3,2.1-4.6,3.8-6.6c1.7-2.1,3.8-3.9,6.2-5.4c2.5-1.5,5.3-2.2,8.5-2.2c1.1,0,2.2,0.2,3.2,0.6
			c0.9,0.4,1.7,0.9,2.4,1.6c0.7,0.7,1.1,1.4,1.5,2.2c0.3,0.8,0.5,1.6,0.5,2.4c0,0.8-0.1,1.1-0.3,1.1c-0.3-0.1-0.6-0.3-1.1-0.7
			c-0.5-0.4-1.3-0.8-2.2-1.3c-0.9-0.5-2.1-0.7-3.4-0.7c-1.5,0-3.1,0.7-4.6,2.1c-1.5,1.4-2.9,3.2-4,5.2c-1.2,2-2.1,4.2-2.9,6.4
			c-0.7,2.2-1.1,4.2-1.1,5.8c0,1,0.1,2,0.3,2.9c0.2,0.9,0.6,1.4,1.3,1.4c0.5,0,1.1-0.5,1.7-1.4c0.7-0.9,1.3-2.1,2-3.4
			c0.7-1.3,1.3-2.7,1.9-4c0.6-1.4,1.1-2.5,1.4-3.5c0.1-0.3,0.2-0.6,0.3-0.9c0.1-0.3,0.2-0.5,0.3-0.7c0.5-1.1,1-2,1.7-2.7
			c0.6-0.7,1.3-1,2-1c0.8,0,1.5,0.3,2.1,0.8c0.6,0.5,1.1,1.2,1.5,1.9c0.4,0.7,0.7,1.5,0.9,2.3c0.2,0.8,0.3,1.4,0.3,1.9
			c0,0.3-0.1,1.1-0.3,2.3s-0.5,2.7-0.7,4.4c-0.2,1.7-0.4,3.5-0.5,5.4c-0.1,1.9-0.1,3.6,0.1,5.2c0.2,1.6,0.5,2.9,1.1,4
			c0.5,1,1.5,1.5,2.7,1.5c1.1,0,2.3-0.6,3.6-1.8c1.2-1.2,2.3-2.7,3.5-4.6c1.1-1.8,2.2-3.9,3.3-6.1s2-4.4,2.8-6.6
			c0.8-2.1,1.5-4.1,2.1-5.8C139.1,56.9,139.6,55.6,139.9,54.8z"/>
		<path class="st0" d="M166.4,55c0-0.3,0.1-0.6,0.3-0.7c0.2-0.2,0.5-0.3,0.7-0.3c0.3,0,0.5,0.1,0.7,0.3c0.2,0.2,0.3,0.5,0.3,0.9
			c0,1.1-0.2,2.7-0.6,5c-0.4,2.3-0.9,4.8-1.7,7.5c-0.7,2.7-1.7,5.6-2.7,8.4s-2.3,5.5-3.7,7.9c-1.4,2.3-2.9,4.3-4.6,5.8
			c-1.7,1.5-3.5,2.3-5.4,2.3c-1.3,0-2.6-0.6-3.9-1.8c-1.3-1.2-2.5-2.8-3.7-5c-1.1-2.1-2.3-4.6-3.3-7.5c-1-2.9-1.9-6-2.6-9.5
			c-0.7-3.4-1.3-7-1.7-10.8c-0.4-3.8-0.6-7.6-0.6-11.6c0-2.6,0.2-5.6,0.5-8.9c0.3-3.3,0.9-6.7,1.4-10.3c-0.9,0-1.7,0.1-2.6,0.1
			c-0.8,0.1-1.7,0.2-2.7,0.3c-1,0.1-1.9,0.3-3,0.5c-0.3,0.1-0.6,0.1-0.8-0.1c-0.2-0.2-0.3-0.3-0.3-0.6c0-0.2,0.1-0.5,0.2-0.7
			c0.2-0.2,0.5-0.4,0.9-0.5c1-0.3,2.1-0.5,3.6-0.7c1.4-0.2,3.1-0.4,5.2-0.5c0.5-3.2,1.1-6.3,1.8-9.3c0.7-2.9,1.3-5.6,1.9-7.9
			c0.6-2.3,1.2-4.1,1.8-5.5c0.5-1.3,1-2.1,1.3-2.1c0.5,0,1.2,0.1,2.1,0.4c0.9,0.3,1.7,0.7,2.5,1.4c0.8,0.7,1.5,1.6,2.1,2.7
			c0.5,1.1,0.9,2.5,0.9,4.2c0,1.7-0.3,4-0.8,6.8c-0.5,2.8-1.1,5.9-1.8,9.4c1.7,0.1,3.4,0.3,4.8,0.5c1.5,0.1,2.7,0.3,4,0.5
			c0.3,0.1,0.6,0.2,0.7,0.4c0.1,0.2,0.2,0.5,0.2,0.7c0,0.3-0.1,0.5-0.3,0.6c-0.2,0.2-0.5,0.2-0.9,0.2c-1.1-0.1-2.1-0.3-3.2-0.3
			c-1.1-0.1-2-0.2-2.8-0.3c-1-0.1-1.9-0.2-2.9-0.2c-0.7,3.5-1.3,7.1-1.8,10.9c-0.5,3.8-0.7,7.4-0.7,11.1c0,1.7,0.1,4,0.1,6.6
			c0.1,2.6,0.2,5.4,0.4,8.3c0.2,2.9,0.5,5.8,0.8,8.8c0.3,2.9,0.8,5.6,1.3,7.9c0.5,2.3,1.1,4.2,1.9,5.6c0.7,1.4,1.6,2.1,2.6,2.1
			s2.1-0.7,3.2-2c1.1-1.3,2.2-3.1,3.3-5.2s2-4.4,2.9-7c0.9-2.5,1.7-5,2.5-7.5c0.7-2.4,1.3-4.7,1.7-6.8
			C166.2,57.7,166.4,56.2,166.4,55z"/>
		<path class="st0" d="M190,54.1c0.1-0.3,0.3-0.6,0.5-0.7c0.2-0.1,0.5-0.2,0.7-0.1c0.2,0,0.4,0.1,0.5,0.3c0.1,0.1,0.1,0.3,0.1,0.7
			c-0.3,0.9-0.7,2.2-1.3,4c-0.6,1.7-1.3,3.7-2.3,5.8c-0.9,2.1-1.9,4.2-3.1,6.4s-2.4,4.2-3.8,6c-1.4,1.8-2.9,3.3-4.4,4.4
			c-1.5,1.1-3.2,1.7-4.9,1.7c-1.5,0-2.9-0.5-4.2-1.5c-1.3-1-2.3-2.3-3.2-3.9c-0.9-1.5-1.6-3.3-2.1-5.2c-0.5-1.9-0.7-3.8-0.7-5.5
			c0-1.7,0.1-3.7,0.3-5.8c0.2-2.1,0.4-4.2,0.7-6.2c0.3-2,0.5-3.9,0.7-5.5c0.2-1.7,0.3-2.9,0.3-3.8c0-0.9,0.5-1.5,1.5-1.9
			c1-0.3,2.1-0.3,3.3,0.1c1.2,0.3,2.3,1.1,3.3,2.3c1,1.1,1.5,2.7,1.5,4.8c0,1.1-0.1,2.6-0.3,4.4c-0.2,1.7-0.4,3.6-0.6,5.6
			c-0.2,1.9-0.3,3.9-0.5,5.8s-0.1,3.7,0.1,5.3c0.2,1.6,0.6,2.9,1.3,3.8c0.6,1,1.5,1.5,2.7,1.5c0.9,0,1.9-0.5,2.9-1.3
			c1-0.9,1.9-2.1,2.9-3.5c0.9-1.4,1.8-3,2.7-4.8c0.9-1.7,1.7-3.5,2.4-5.2c0.7-1.7,1.3-3.2,1.9-4.6C189.3,56,189.7,54.8,190,54.1z
			 M168.6,33.3c-0.8,0-1.5-0.3-2.1-1c-0.5-0.7-1-1.4-1.3-2.3c-0.3-0.9-0.5-1.8-0.7-2.7c-0.1-0.9-0.2-1.7-0.2-2.3
			c0-0.9,0.6-1.4,1.8-1.3c1.2,0,2.5,0.4,4,1.1c1.4,0.7,2.7,1.8,4,3.2c1.2,1.4,1.8,3,1.8,4.8c0,0.9-0.2,1.4-0.7,1.5
			c-0.5,0.2-1,0.2-1.7,0c-0.7-0.2-1.5-0.4-2.3-0.7C170.3,33.4,169.4,33.3,168.6,33.3z"/>
		<path class="st0" d="M230.7,54c0.1-0.5,0.2-0.7,0.5-0.9c0.3-0.1,0.5-0.2,0.7-0.1c0.3,0.1,0.5,0.2,0.6,0.5c0.2,0.3,0.2,0.6,0.2,1
			c-0.1,0.6-0.3,1.5-0.5,2.6c-0.3,1.1-0.6,2.3-1,3.5c-0.4,1.3-0.9,2.5-1.5,3.8c-0.6,1.3-1.3,2.5-2.2,3.5c-0.9,1.1-1.8,1.9-2.9,2.6
			c-1.1,0.7-2.3,1-3.6,1c-0.9,0-1.8-0.1-2.7-0.2c-0.9-0.1-1.7-0.3-2.3-0.5c-0.7-0.2-1.5-0.5-2.3-0.8c-0.2,1.4-0.5,3.2-0.9,5.4
			c-0.3,2.2-0.8,4.5-1.3,7c-0.5,2.4-1.1,4.9-1.9,7.4c-0.7,2.5-1.5,4.7-2.4,6.7s-1.8,3.6-2.8,4.8c-1,1.3-2.1,1.9-3.2,1.9
			c-2.4,0-4.5-0.7-6.2-1.9c-1.7-1.3-3.2-3.1-4.5-5.2c-1.2-2.1-2.2-4.6-2.9-7.4c-0.7-2.8-1.3-5.7-1.7-8.7c-0.4-3-0.7-6-0.8-9
			s-0.2-5.7-0.2-8.2c0-2.7,0-4.9,0.1-6.4s0.2-2.5,0.5-3.2c0.3-0.6,0.7-1,1.4-1.1c0.7-0.1,1.6-0.1,2.8-0.1c1.1,0,2.2,0.1,3.2,0.5
			c1,0.3,1.9,0.7,2.6,1.4c0.7,0.7,1.3,1.5,1.8,2.5c0.5,1,0.7,2.2,0.7,3.6c0,0.9,0,2.5,0.1,4.8c0.1,2.2,0.1,4.8,0.3,7.6
			c0.1,2.8,0.3,5.8,0.5,8.8c0.2,3.1,0.5,5.8,0.9,8.4c0.3,2.5,0.7,4.6,1.2,6.2c0.5,1.6,1,2.5,1.7,2.5c0.8,0,1.5-0.7,2.3-1.9
			s1.5-2.9,2.2-4.9c0.7-1.9,1.3-4.2,1.9-6.4c0.6-2.3,1.1-4.6,1.6-6.7c0.5-2.1,0.9-4,1.1-5.6c0.3-1.6,0.5-2.7,0.5-3.2
			c-1.9-0.9-3.4-1.9-4.5-2.9c-1.1-1-2.1-2.3-3-3.9c-0.9-1.6-1.4-3.5-1.4-5.8c0-1.2,0.1-2.4,0.2-3.6c0.1-1.1,0.4-2.1,0.8-3
			c0.4-0.9,0.9-1.6,1.5-2.1c0.6-0.5,1.5-0.8,2.5-0.8c1.3,0,2.4,0.4,3.3,1.3s1.5,1.9,1.9,3.4c0.5,1.4,0.8,3,0.9,4.8
			c0.2,1.9,0.3,3.8,0.3,5.7c0,0.5,0,1.1-0.1,1.7c-0.1,0.6-0.1,1.2-0.1,1.8c-0.1,0.7-0.2,1.3-0.2,2c0.6,0.3,1.3,0.6,1.9,0.8
			c0.6,0.2,1.4,0.3,2.2,0.5c0.9,0.1,1.8,0.2,2.8,0.2c1.6,0,3-0.7,4.2-1.9c1.1-1.3,2.1-2.8,2.9-4.6c0.7-1.7,1.3-3.4,1.7-5.2
			C230.2,55.9,230.5,54.6,230.7,54z M212.4,65.9c0.1-0.4,0.1-0.9,0.1-1.5c0.1-0.6,0.1-1.4,0.1-2.3c0-1.1,0-2.5-0.1-4
			s-0.2-2.9-0.5-4.3c-0.3-1.3-0.7-2.5-1.4-3.4c-0.6-0.9-1.5-1.4-2.6-1.4c-0.6,0-1.1,0.3-1.4,0.7c-0.3,0.5-0.7,1.1-0.9,1.9
			c-0.2,0.7-0.3,1.5-0.5,2.5c-0.1,0.9-0.1,1.7-0.1,2.3c0,1.9,0.3,3.6,1.1,5c0.7,1.3,1.5,2.4,2.4,3.3c0.9,0.8,2.1,1.6,3.6,2.3
			C212.3,66.7,212.4,66.4,212.4,65.9z"/>
		<path class="st0" d="M260.7,53.7c0.1-0.3,0.3-0.5,0.5-0.6c0.2-0.1,0.4-0.1,0.6-0.1c0.2,0,0.3,0.1,0.5,0.3c0.1,0.2,0.1,0.3,0.1,0.5
			c-0.3,0.9-0.7,2.2-1.3,3.9c-0.6,1.7-1.3,3.6-2.3,5.8c-0.9,2.1-2,4.3-3.2,6.6c-1.3,2.2-2.7,4.3-4.2,6.1c-1.6,1.8-3.3,3.4-5.2,4.5
			c-1.9,1.1-3.9,1.7-6,1.7c-2.3,0-4.4-0.5-6.2-1.3c-1.9-0.9-3.4-2.1-4.7-3.8c-1.3-1.6-2.2-3.5-2.9-5.6c-0.7-2.1-1-4.6-1-7.1
			c0-2.6,0.5-5.1,1.5-7.3c1-2.2,2.2-4.2,3.8-5.8c1.5-1.7,3.3-2.9,5.2-3.9c1.9-0.9,3.8-1.4,5.6-1.4c1.1,0,2,0.2,2.8,0.7
			c0.8,0.5,1.5,1.1,1.9,1.8c0.5,0.7,0.9,1.6,1.1,2.5c0.3,0.9,0.4,1.9,0.4,2.9c0,0.9-0.2,1.7-0.6,2.6c-0.4,0.9-0.9,1.7-1.5,2.5
			c-0.6,0.8-1.3,1.5-2.1,2.3c-0.8,0.7-1.6,1.4-2.5,1.9c-1.9,1.5-4.2,2.8-6.6,4c0.5,2.2,1.1,4.1,1.9,5.8c0.3,0.7,0.7,1.4,1.1,2.1
			c0.5,0.7,0.9,1.3,1.5,1.8c0.5,0.5,1.1,0.9,1.8,1.3s1.4,0.5,2.3,0.5c1.5,0,2.9-0.5,4.4-1.5c1.4-1.1,2.7-2.3,4-4
			c1.2-1.6,2.3-3.4,3.4-5.4c1.1-2,1.9-3.9,2.7-5.8c0.8-1.9,1.5-3.6,2-5.1C260.1,55.6,260.5,54.4,260.7,53.7z M242.3,51
			c-1.2,0-2.3,0.2-3.1,0.6c-0.9,0.4-1.6,0.9-2.2,1.6c-0.6,0.7-1.1,1.4-1.5,2.3c-0.4,0.9-0.7,1.7-0.9,2.6c-0.5,2.1-0.7,4.4-0.5,7.1
			c2.1-0.9,3.9-1.9,5.5-3.2c1.3-1,2.6-2.1,3.8-3.4c1.1-1.3,1.7-2.6,1.7-4c0-1-0.2-1.8-0.7-2.6C244,51.4,243.3,51,242.3,51z"/>
	</g>
</g>
<g>
	<path class="st1" d="M164.1,30.6c0.3,0.9,0.7,1.7,1.3,2.3c0.5,0.7,1.3,1,2.1,1s1.7,0.1,2.5,0.4c0.9,0.3,1.6,0.5,2.3,0.7
		c0.7,0.2,1.3,0.2,1.7,0c0.5-0.2,0.7-0.7,0.7-1.5c0-1.8-0.6-3.4-1.8-4.8c-1.2-1.4-2.5-2.5-4-3.2c-1.4-0.7-2.7-1.1-4-1.1
		c-1.2,0-1.8,0.4-1.8,1.3c0,0.6,0.1,1.3,0.2,2.3C163.6,28.9,163.8,29.8,164.1,30.6z"/>
	<path class="st1" d="M261.2,54c-0.1-0.2-0.3-0.3-0.5-0.3s-0.4,0-0.6,0.1c-0.2,0.1-0.4,0.3-0.5,0.6c-0.3,0.7-0.6,1.9-1.1,3.4
		c-0.5,1.5-1.2,3.2-2,5.1c-0.8,1.9-1.7,3.8-2.7,5.8c-1.1,2-2.2,3.8-3.4,5.4c-1.2,1.6-2.5,2.9-4,4c-1.4,1.1-2.9,1.5-4.4,1.5
		c-0.8,0-1.6-0.1-2.3-0.5s-1.3-0.7-1.8-1.3c-0.5-0.5-1-1.1-1.5-1.8c-0.5-0.7-0.8-1.4-1.1-2.1c-0.8-1.7-1.4-3.6-1.9-5.8
		c2.5-1.2,4.7-2.5,6.6-4c0.8-0.6,1.7-1.3,2.5-1.9c0.8-0.7,1.5-1.5,2.1-2.3c0.6-0.8,1.1-1.6,1.5-2.5c0.4-0.9,0.6-1.7,0.6-2.6
		c0-1-0.1-1.9-0.4-2.9c-0.3-0.9-0.7-1.8-1.1-2.5c-0.5-0.7-1.1-1.3-1.9-1.8c-0.8-0.5-1.7-0.7-2.8-0.7c-1.9,0-3.8,0.5-5.6,1.4
		s-3.6,2.3-5.2,3.9c-1.5,1.7-2.8,3.6-3.8,5.8c-1,2.2-1.5,4.7-1.5,7.3c0,0.8,0.1,1.6,0.1,2.3c-0.1,0.1-0.2,0.3-0.3,0.3
		c-1.1,1.3-2.5,1.9-4.2,1.9c-1,0-1.9-0.1-2.8-0.2c-0.9-0.1-1.6-0.3-2.2-0.5c-0.7-0.2-1.4-0.5-1.9-0.8c0.1-0.7,0.1-1.3,0.2-2
		c0.1-0.6,0.1-1.2,0.1-1.8c0.1-0.6,0.1-1.2,0.1-1.7c0-1.9-0.1-3.8-0.3-5.7c-0.2-1.9-0.5-3.5-0.9-4.8c-0.5-1.4-1.1-2.5-1.9-3.4
		c-0.9-0.9-1.9-1.3-3.3-1.3c-1,0-1.8,0.3-2.5,0.8c-0.6,0.5-1.1,1.3-1.5,2.1s-0.7,1.9-0.8,3c-0.1,1.1-0.2,2.3-0.2,3.6
		c0,2.2,0.5,4.2,1.4,5.8c0.9,1.6,1.9,2.9,3,3.9s2.6,2,4.5,2.9c-0.1,0.5-0.2,1.5-0.5,3.2c-0.3,1.6-0.7,3.5-1.1,5.6
		c-0.5,2.1-1,4.4-1.6,6.7c-0.6,2.3-1.3,4.5-1.9,6.4c-0.7,1.9-1.4,3.6-2.2,4.9c-0.7,1.3-1.5,1.9-2.3,1.9c-0.7,0-1.3-0.8-1.7-2.5
		c-0.5-1.6-0.9-3.7-1.2-6.2c-0.3-2.5-0.6-5.3-0.9-8.4c-0.3-3.1-0.4-6-0.5-8.8c-0.1-2.8-0.2-5.4-0.3-7.6c-0.1-2.2-0.1-3.8-0.1-4.8
		c0-1.3-0.2-2.5-0.7-3.6c-0.5-1-1-1.8-1.8-2.5c-0.7-0.7-1.6-1.1-2.6-1.4c-1-0.3-2.1-0.5-3.2-0.5c-1.2,0-2.1,0.1-2.8,0.1
		c-0.7,0.1-1.1,0.4-1.4,1.1c-0.3,0.6-0.5,1.7-0.5,3.2c-0.1,1.5-0.1,3.6-0.1,6.4c0,1.3,0,2.7,0.1,4.2c-0.1,0.1-0.1,0.3-0.2,0.5
		c-0.9,1.7-1.8,3.4-2.7,4.8c-0.9,1.4-1.9,2.6-2.9,3.5s-1.9,1.3-2.9,1.3c-1.2,0-2.1-0.5-2.7-1.5s-1-2.3-1.3-3.8
		c-0.2-1.6-0.3-3.4-0.1-5.3c0.1-1.9,0.3-3.9,0.5-5.8c0.2-1.9,0.4-3.8,0.6-5.6c0.2-1.7,0.3-3.2,0.3-4.4c0-2.1-0.5-3.6-1.5-4.8
		c-1-1.1-2.1-1.9-3.3-2.3c-1.2-0.3-2.3-0.4-3.3-0.1c-1,0.3-1.5,1-1.5,1.9s-0.1,2.1-0.3,3.8c-0.2,1.7-0.4,3.5-0.7,5.5
		c-0.3,2-0.5,4.1-0.7,6.2c-0.2,2.1-0.3,4-0.3,5.8c0,1.7,0.3,3.6,0.7,5.4c-0.3,0.7-0.5,1.5-0.8,2.2c-0.9,2.5-1.9,4.9-2.9,7
		c-1.1,2.1-2.1,3.8-3.3,5.2c-1.1,1.3-2.2,2-3.2,2s-1.9-0.7-2.6-2.1s-1.3-3.4-1.9-5.6c-0.5-2.3-1-5-1.3-7.9c-0.3-2.9-0.6-5.8-0.8-8.8
		c-0.2-2.9-0.3-5.7-0.4-8.3c-0.1-2.6-0.1-4.8-0.1-6.6c0-3.7,0.3-7.4,0.7-11.1c0.5-3.8,1.1-7.4,1.8-10.9c0.9,0.1,1.9,0.1,2.9,0.2
		c0.8,0.1,1.7,0.2,2.8,0.3c1.1,0.1,2.1,0.2,3.2,0.3c0.3,0.1,0.6,0,0.9-0.2c0.2-0.2,0.3-0.4,0.3-0.6c0-0.3-0.1-0.5-0.2-0.7
		c-0.1-0.2-0.4-0.3-0.7-0.4c-1.1-0.2-2.5-0.3-4-0.5c-1.5-0.1-3.1-0.3-4.8-0.5c0.7-3.5,1.3-6.6,1.8-9.4c0.5-2.8,0.8-5.1,0.8-6.8
		c0-1.7-0.3-3-0.9-4.2c-0.5-1.1-1.3-2-2.1-2.7s-1.6-1.1-2.5-1.4c-0.9-0.3-1.5-0.4-2.1-0.4c-0.3,0-0.8,0.7-1.3,2.1
		c-0.5,1.3-1.1,3.2-1.8,5.5c-0.6,2.3-1.3,4.9-1.9,7.9c-0.7,2.9-1.3,6-1.8,9.3c-2.1,0.1-3.8,0.3-5.2,0.5c-1.4,0.2-2.5,0.5-3.6,0.7
		c-0.5,0.1-0.7,0.3-0.9,0.5c-0.2,0.2-0.3,0.5-0.2,0.7c0,0.2,0.1,0.4,0.3,0.6c0.2,0.2,0.5,0.2,0.8,0.1c1-0.2,2-0.3,3-0.5
		c1-0.1,1.9-0.2,2.7-0.3c0.9-0.1,1.7-0.1,2.6-0.1c-0.6,3.5-1.1,6.9-1.4,10.3c-0.3,3.3-0.5,6.3-0.5,8.9c0,4,0.2,7.8,0.6,11.6
		c0.3,2.8,0.7,5.6,1.2,8.2c-0.7,1.7-1.4,3.4-2.2,5.1c-1.1,2.2-2.1,4.3-3.3,6.1c-1.1,1.8-2.3,3.4-3.5,4.6c-1.2,1.2-2.3,1.8-3.6,1.8
		s-2.1-0.5-2.7-1.5c-0.5-1-0.9-2.3-1.1-4c-0.2-1.6-0.2-3.4-0.1-5.2c0.1-1.9,0.3-3.7,0.5-5.4c0.2-1.7,0.5-3.2,0.7-4.4
		c0.2-1.3,0.3-2,0.3-2.3c0-0.5-0.1-1.1-0.3-1.9c-0.2-0.8-0.5-1.5-0.9-2.3c-0.4-0.7-0.9-1.4-1.5-1.9c-0.6-0.5-1.3-0.8-2.1-0.8
		c-0.7,0-1.4,0.3-2,1s-1.1,1.5-1.7,2.7c-0.1,0.3-0.2,0.5-0.3,0.7c-0.1,0.3-0.2,0.5-0.3,0.9c-0.3,0.9-0.8,2.1-1.4,3.5
		c-0.6,1.4-1.2,2.7-1.9,4c-0.7,1.3-1.3,2.4-2,3.4c-0.7,0.9-1.3,1.4-1.7,1.4c-0.7,0-1.1-0.5-1.3-1.4c-0.2-0.9-0.3-1.9-0.3-2.9
		c0-1.6,0.3-3.6,1.1-5.8c0.7-2.2,1.7-4.4,2.9-6.4c1.2-2,2.5-3.8,4-5.2c1.5-1.4,3-2.1,4.6-2.1c1.3,0,2.4,0.2,3.4,0.7
		c0.9,0.5,1.7,0.9,2.2,1.3c0.5,0.4,0.9,0.6,1.1,0.7c0.3,0.1,0.3-0.3,0.3-1.1c0-0.8-0.2-1.6-0.5-2.4c-0.3-0.8-0.9-1.5-1.5-2.2
		c-0.6-0.7-1.5-1.2-2.4-1.6c-0.9-0.4-2-0.6-3.2-0.6c-3.2,0-6,0.7-8.5,2.2s-4.6,3.2-6.2,5.4c-1.7,2.1-2.9,4.3-3.8,6.6
		s-1.3,4.4-1.3,6.2c0,1.5,0.3,3,0.7,4.4c0.1,0.2,0.1,0.3,0.2,0.5c-0.1,0.2-0.3,0.5-0.3,0.7c-1.1,2-2.2,3.8-3.4,5.4
		c-1.2,1.6-2.5,2.9-4,4c-1.4,1.1-2.9,1.5-4.4,1.5c-0.8,0-1.6-0.1-2.3-0.5s-1.3-0.7-1.8-1.3c-0.5-0.5-1-1.1-1.5-1.8
		c-0.5-0.7-0.8-1.4-1.1-2.1c-0.8-1.7-1.4-3.6-1.9-5.8c2.5-1.2,4.7-2.5,6.6-4c0.8-0.6,1.7-1.3,2.5-1.9c0.8-0.7,1.5-1.5,2.1-2.3
		c0.6-0.8,1.1-1.6,1.5-2.5c0.4-0.9,0.6-1.7,0.6-2.6c0-1-0.1-1.9-0.4-2.9c-0.3-0.9-0.7-1.8-1.1-2.5c-0.5-0.7-1.1-1.3-1.9-1.8
		c-0.8-0.5-1.7-0.7-2.8-0.7c-1.9,0-3.8,0.5-5.6,1.4c-1.9,0.9-3.6,2.3-5.2,3.9c-1.5,1.7-2.8,3.6-3.8,5.8c-1,2.2-1.5,4.7-1.5,7.3
		c0,2,0.2,3.8,0.6,5.6c-0.7,2.8-1.3,5.6-2,8.6c-0.8,3.4-1.6,6.5-2.4,9.3c-0.8,2.7-1.5,5.1-2.3,6.8c-0.7,1.8-1.3,2.7-1.8,2.7
		c-0.5,0-0.8-0.7-0.8-2.1s0.1-3.3,0.3-5.6c0.3-2.3,0.5-4.9,0.9-7.8c0.4-2.9,0.7-6,1-9c0.3-3,0.4-6,0.5-9c0.1-2.9-0.1-5.6-0.6-7.8
		c-0.5-2.3-1.1-4.2-2.2-5.6c-1-1.4-2.5-2.1-4.4-2.1c-1,0-2.1,0.2-3.3,0.5s-2.2,0.7-3.2,1.1c-1.1,0.5-2.3,1.1-3.4,1.7
		c0.6-3.4,1-6.4,1.1-9.1c0.1-1.1,0.1-2.2-0.1-3.4c-0.1-1.1-0.2-2.1-0.5-2.9s-0.6-1.5-1.1-2.1c-0.5-0.5-1.1-0.8-1.9-0.8
		s-1.6,0.3-2.3,1.1s-1.3,1.7-1.7,2.7c-0.5,1.1-0.9,2.3-1.1,3.6c-0.3,1.3-0.4,2.5-0.4,3.8c0,1,0.1,2,0.2,3.1c0.1,1.1,0.3,2.1,0.7,3.1
		c0.3,0.9,0.8,1.7,1.3,2.4c0.5,0.6,1.3,0.9,2.1,0.9c0.3,0,0.6,0,0.9-0.1c-0.3,0.7-0.7,1.5-1.1,2.7c-0.7,1.6-1.5,3.5-2.5,5.6
		c-1,2.1-2.1,4.2-3.4,6.4c-1.3,2.2-2.6,4.3-4,6.2c-1.4,1.9-2.9,3.4-4.6,4.6c-1.6,1.2-3.3,1.8-5,1.8c-1,0-2-0.7-3.1-2.1
		c-1.1-1.3-2.1-3.1-3.1-5s-1.7-4.2-2.3-6.5c-0.6-2.3-0.9-4.4-0.9-6.3c0-1.9,0.2-4,0.6-6.3c0.4-2.3,0.9-4.4,1.7-6.4
		c0.7-1.9,1.7-3.6,2.9-5s2.5-2,4-2c1.2,0,2.1,0.4,2.5,1.3c0.5,0.9,0.7,1.8,0.7,2.9c0,0.6,0.1,1,0.3,1.2c0.2,0.2,0.4,0.2,0.6,0
		c0.2-0.2,0.4-0.5,0.6-0.9c0.2-0.5,0.3-0.9,0.3-1.5c0-0.6-0.1-1.2-0.5-1.9c-0.3-0.7-0.7-1.3-1.3-1.9c-0.5-0.6-1.2-1.1-2-1.4
		c-0.8-0.3-1.7-0.5-2.7-0.5c-1.7,0-3.6,0.5-5.6,1.7c-2,1.1-3.8,2.7-5.6,4.8c-1.7,2.1-3.2,4.8-4.2,7.8C1,57.6,0.5,61.1,0.5,65.1
		c0,2.5,0.4,4.9,1.2,7.2c0.8,2.3,1.9,4.5,3.4,6.3c1.5,1.9,3.2,3.4,5.3,4.5c2.1,1.1,4.4,1.7,6.8,1.7c2.4,0,4.6-0.6,6.7-1.9
		c2.1-1.3,4-2.9,5.7-4.8c1.7-1.9,3.3-4.2,4.7-6.6s2.6-4.8,3.7-7c1.1-2.2,1.9-4.3,2.6-6c0.7-1.8,1.2-3.1,1.5-3.8c0,0,0,0,0-0.1
		c0.7-0.3,1.4-0.5,2-0.7c0.7-0.3,1.4-0.6,2-0.9c0.6-0.3,1.1-0.4,1.7-0.4c-0.5,4.9-0.8,9.4-1.1,13.5c-0.1,1.7-0.3,3.5-0.4,5.2
		c-0.1,1.7-0.3,3.4-0.3,4.8c-0.1,1.5-0.2,2.7-0.3,3.9c-0.1,1.1-0.1,1.9-0.1,2.3c0,0.9,0,2.1,0.1,3.5c0,1.4,0.1,2.9,0.3,4.5
		c0.2,1.6,0.5,3.2,0.9,4.7c0.4,1.5,1,2.9,1.7,4.2s1.7,2.3,2.9,3.1c1.2,0.8,2.7,1.1,4.4,1.1c1.1,0,2.1-1,3.3-3c1.1-2,2.2-4.6,3.3-7.6
		c1.1-3.2,2-6.6,2.9-10.3c0.7-2.7,1.3-5.4,1.9-8c0.6,1.3,1.3,2.5,2.1,3.6c1.3,1.6,2.8,2.8,4.7,3.8c1.9,0.9,3.9,1.3,6.2,1.3
		c2.1,0,4.2-0.6,6-1.7c1.9-1.1,3.6-2.7,5.2-4.5c1.6-1.8,3-3.9,4.2-6.1c0.1-0.3,0.3-0.5,0.5-0.8c0.2,0.4,0.5,0.8,0.7,1.2
		c0.7,1.1,1.6,1.9,2.5,2.5c0.9,0.6,1.7,0.9,2.6,0.9c1.5,0,2.9-0.5,4-1.6c1.2-1.1,2.3-2.4,3.3-4c0.1,2.8,0.3,5.4,0.9,7.7
		c0.5,2.3,1.3,4.3,2.2,5.9c0.9,1.6,2,2.9,3.4,3.8c1.3,0.9,2.7,1.3,4.4,1.3s3.4-0.7,5-2c1.6-1.3,3.1-3,4.6-5.1c1.4-2.1,2.7-4.4,4-6.9
		c0.6-1.3,1.2-2.5,1.7-3.8c0.7,3.1,1.5,6,2.4,8.6c1,2.9,2.1,5.4,3.3,7.5c1.1,2.1,2.4,3.8,3.7,5c1.3,1.2,2.6,1.8,3.9,1.8
		c1.9,0,3.7-0.7,5.4-2.3c1.7-1.5,3.2-3.5,4.6-5.8c1.4-2.3,2.6-5,3.7-7.9c0.1-0.3,0.2-0.5,0.3-0.7c0.3,0.6,0.5,1.1,0.9,1.7
		c0.9,1.5,1.9,2.9,3.2,3.9c1.3,1,2.6,1.5,4.2,1.5c1.7,0,3.4-0.6,4.9-1.7s3-2.6,4.4-4.4c1.3-1.7,2.5-3.6,3.6-5.6
		c0.1,2.9,0.4,5.8,0.8,8.8c0.4,3,1,5.9,1.7,8.7c0.7,2.8,1.7,5.3,2.9,7.4c1.2,2.1,2.7,3.9,4.5,5.2c1.7,1.3,3.8,1.9,6.2,1.9
		c1.1,0,2.1-0.6,3.2-1.9s1.9-2.9,2.8-4.8c0.9-1.9,1.7-4.2,2.4-6.7c0.7-2.5,1.3-5,1.9-7.4s1-4.8,1.3-7c0.3-2.2,0.7-4,0.9-5.4
		c0.9,0.3,1.7,0.6,2.3,0.8c0.7,0.2,1.5,0.3,2.3,0.5c0.9,0.1,1.8,0.2,2.7,0.2c1.3,0,2.6-0.3,3.6-1c0.4-0.3,0.8-0.5,1.2-0.9
		c0.1,0.7,0.3,1.5,0.5,2.2c0.7,2.1,1.7,4,2.9,5.6c1.3,1.6,2.8,2.8,4.7,3.8c1.9,0.9,3.9,1.3,6.2,1.3c2.1,0,4.2-0.6,6-1.7
		c1.9-1.1,3.6-2.7,5.2-4.5c1.6-1.8,3-3.9,4.2-6.1c1.3-2.2,2.3-4.4,3.2-6.6c0.9-2.1,1.7-4,2.3-5.8c0.6-1.7,1-3,1.3-3.9
		C261.4,54.4,261.3,54.2,261.2,54z M38.8,52.8c-0.5-0.3-0.9-0.8-1.2-1.5c-0.3-0.7-0.5-1.5-0.6-2.3c-0.1-0.9-0.2-1.9-0.2-2.9
		c0-0.9,0.1-1.8,0.3-2.9c0.2-1.1,0.4-2,0.7-2.9c0.3-0.9,0.6-1.6,1-2.2c0.3-0.6,0.7-0.9,1.1-0.9c0.5,0,0.9,0.2,1.3,0.7
		c0.3,0.5,0.5,1.1,0.7,1.8c0.1,0.7,0.2,1.6,0.2,2.5c0,0.9,0,1.9-0.1,2.9c-0.2,2.3-0.6,5-1.1,7.9C40,53.2,39.3,53.2,38.8,52.8z
		 M74.8,58.8c0.2-0.9,0.5-1.7,0.9-2.6c0.4-0.9,0.9-1.7,1.5-2.3c0.6-0.7,1.3-1.2,2.2-1.6c0.9-0.4,1.9-0.6,3.1-0.6
		c1,0,1.7,0.4,2.1,1.1c0.5,0.7,0.7,1.6,0.7,2.6c0,1.4-0.6,2.7-1.7,4c-1.1,1.3-2.4,2.4-3.8,3.4C78.2,64,76.4,65,74.3,66
		C74.2,63.2,74.3,60.9,74.8,58.8z M211.4,65.1c-0.1,0.6-0.1,1.1-0.1,1.5c-0.1,0.5-0.1,0.7-0.1,0.9c-1.5-0.7-2.7-1.5-3.6-2.3
		c-0.9-0.8-1.7-1.9-2.4-3.3s-1.1-3-1.1-5c0-0.7,0.1-1.5,0.1-2.3s0.2-1.7,0.5-2.5c0.2-0.7,0.5-1.4,0.9-1.9c0.3-0.5,0.9-0.7,1.4-0.7
		c1.1,0,2,0.5,2.6,1.4c0.6,0.9,1.1,2.1,1.4,3.4c0.3,1.3,0.5,2.7,0.5,4.3c0.1,1.5,0.1,2.9,0.1,4C211.5,63.7,211.5,64.5,211.4,65.1z
		 M233.5,58.8c0.2-0.9,0.5-1.7,0.9-2.6c0.4-0.9,0.9-1.7,1.5-2.3c0.6-0.7,1.3-1.2,2.2-1.6c0.9-0.4,1.9-0.6,3.1-0.6
		c1,0,1.7,0.4,2.1,1.1c0.5,0.7,0.7,1.6,0.7,2.6c0,1.4-0.6,2.7-1.7,4c-1.1,1.3-2.4,2.4-3.8,3.4c-1.6,1.1-3.4,2.2-5.5,3.2
		C232.8,63.2,233,60.9,233.5,58.8z"/>
</g>
<g>
	<polygon class="st0" points="207.2,129.8 210.4,129.8 208.9,125.5 	"/>
	<path class="st0" d="M93.2,123.7h-2.5v3.5h2.5c1.4,0,2.2-0.6,2.2-1.7l0,0C95.4,124.3,94.6,123.7,93.2,123.7z"/>
	<path class="st0" d="M112.5,123.6c-2.2,0-3.6,1.8-3.6,3.9l0,0c0,2.1,1.4,3.9,3.6,3.9s3.6-1.8,3.6-3.9l0,0
		C116.1,125.4,114.8,123.6,112.5,123.6z"/>
	<path class="st0" d="M35.4,123.6c-2.2,0-3.6,1.8-3.6,3.9l0,0c0,2.1,1.4,3.9,3.6,3.9s3.6-1.8,3.6-3.9l0,0
		C39,125.4,37.6,123.6,35.4,123.6z"/>
	<path class="st0" d="M0,112.6v29h262.4v-29H0z M16.6,136.7c-4.9,0-9.1-3.6-9.1-9.1l0,0c0-5.3,4-9.2,9.3-9.2c3.9,0,6.4,1.9,7.9,4.6
		l-4.9,2.8c-0.7-1.3-1.5-2.1-3.2-2.1c-1.9,0-3.3,1.7-3.3,3.9l0,0c0,2.2,1.4,3.9,3.3,3.9c1.7,0,2.6-0.8,3.3-2.2l4.9,2.8
		C23.4,134.6,21,136.7,16.6,136.7z M44.8,127.5c0,5.2-4.2,9.2-9.6,9.2s-9.6-4-9.6-9.1l0,0c0-5.2,4.2-9.2,9.6-9.2
		S44.8,122.3,44.8,127.5L44.8,127.5z M64.6,136.3h-5.2l-6.5-8.1v8.1h-5.8v-17.5h5.4l6.3,7.8v-7.8h5.8V136.3z M82.9,123.7h-5.2v12.5
		h-5.8v-12.5h-5.2v-5h16.2V123.7z M95.3,136.3l-3.3-5h-1.3v5h-5.8v-17.5h8.5c3.1,0,5.2,0.8,6.3,1.9c1.1,1.1,1.7,2.4,1.7,4.2l0,0
		c0,2.5-1.4,4.3-3.5,5.4l4,6H95.3z M122.1,127.5c0,5.2-4.2,9.2-9.6,9.2s-9.6-4-9.6-9.1l0,0c0-5.2,4.2-9.2,9.6-9.2
		S122.1,122.3,122.1,127.5L122.1,127.5z M138.4,136.3h-14.1v-17.5h5.8v12.5h8.2V136.3z M162,123.7h-8.8v2.2h8.2v4.6h-8.2v5.7h-5.8
		v-17.5h14.8v5H162z M174.5,136.3l-3.3-5h-1.3v5H164v-17.5h8.6c3.1,0,5.2,0.8,6.3,1.9c1.1,1.1,1.7,2.4,1.7,4.2l0,0
		c0,2.5-1.4,4.3-3.5,5.4l4,6H174.5z M197.6,136.3h-15v-17.5h15v4.9h-9.2v1.8h8.6v4.2h-8.6v1.9h9.3v4.7H197.6z M212.8,136.3l-1-2.4
		h-6.1l-0.8,2.4h-6.3l7.4-17.7h5.8l7.4,17.7H212.8z M231.3,136.3l-3.5-5.6l-1.5,1.8v3.8h-5.8v-17.5h5.8v6.5l5-6.5h6.8l-6.1,7.7
		l6.3,9.9H231.3z M254.6,130.7c0,3.6-3.1,6-7.8,6c-3.6,0-6.8-1-9.1-2.9l3.2-3.8c1.9,1.4,4,2.1,6.1,2.1c1.1,0,1.5-0.3,1.5-0.7l0,0
		c0-0.6-0.6-0.8-2.4-1.1c-3.9-0.8-7.4-1.9-7.4-5.7l0,0c0-3.3,2.6-5.8,7.4-5.8c3.3,0,5.8,0.8,7.9,2.4l-2.9,3.9
		c-1.7-1.3-3.6-1.7-5.3-1.7c-0.8,0-1.3,0.3-1.3,0.7l0,0c0,0.4,0.4,0.8,2.4,1.1C251.5,125.8,254.6,127.1,254.6,130.7L254.6,130.7z"/>
	<path class="st0" d="M172.4,123.7h-2.5v3.5h2.5c1.4,0,2.2-0.6,2.2-1.7l0,0C174.6,124.3,173.8,123.7,172.4,123.7z"/>
</g>
</svg>
