<?xml version="1.0" encoding="UTF-8"?>
<svg width="290px" height="75px" viewBox="0 0 290 75" version="1.1" xmlns="http://www.w3.org/2000/svg" xmlns:xlink="http://www.w3.org/1999/xlink">
    <!-- Generator: Sketch 52.2 (67145) - http://www.bohemiancoding.com/sketch -->
    <title>corevalues</title>
    <desc>Created with Sketch.</desc>
    <g id="Desktop" stroke="none" stroke-width="1" fill="none" fill-rule="evenodd">
        <g id="Home" transform="translate(-139.000000, -3706.000000)" fill-rule="nonzero">
            <g id="Core-Values" transform="translate(0.000000, 3612.000000)">
                <g id="corevalues" transform="translate(139.000000, 94.000000)">
                    <path d="M37.5,5.2 C19.7,5.2 5.2,19.7 5.2,37.5 C5.2,55.3 19.7,69.7 37.4,69.7 C55.1,69.7 69.6,55.2 69.6,37.5 C69.7,19.7 55.2,5.2 37.5,5.2 M37.5,75 C16.8,75 0,58.1 0,37.5 C0,16.9 16.8,0 37.5,0 C58.1,0 75,16.8 75,37.5 C75,58.2 58.1,75 37.5,75" id="Shape" fill="#EE7623"></path>
                    <path d="M37.5,41.4 L43.4,24.9 C41.6,24 39.5,23.5 37.4,23.5 C35.3,23.5 33.3,24 31.5,24.8 L37.5,41.4 Z" id="Shape" fill="#D3D655"></path>
                    <path d="M41.3,51.4 C47.3,49.7 51.6,44.3 51.6,37.8 C51.6,35.2 50.9,32.7 49.6,30.6 L41.3,51.4 Z" id="Shape" fill="#D3D655"></path>
                    <path d="M25.3,30.6 C24.1,32.7 23.3,35.1 23.3,37.8 C23.3,44.3 27.7,49.7 33.6,51.4 L25.3,30.6 Z" id="Shape" fill="#D3D655"></path>
                    <path d="M53.9,48.8 C50.3,54.3 44.1,57.9 37.1,57.9 C26,57.9 16.9,48.9 16.9,37.7 C16.9,26.6 25.9,17.5 37.1,17.5 C43.8,17.5 49.8,20.8 53.5,25.9 L58.1,22.3 C53.4,16 45.8,11.8 37.3,11.8 C23,11.8 11.4,23.4 11.4,37.7 C11.4,52 23,63.6 37.3,63.6 C46.3,63.6 54.2,59 58.8,52.1 L53.9,48.8 Z" id="Shape" fill="#87D1E6"></path>
                    <path d="M103.3,46.5 C106.1,46.5 108.2,47.4 110.1,49.1 C110.2,49.2 110.3,49.5 110.1,49.6 L109.7,50.1 C109.5,50.3 109.4,50.2 109.2,50.1 C107.6,48.7 105.6,47.8 103.3,47.8 C98.4,47.8 94.6,51.8 94.6,56.6 C94.6,61.4 98.4,65.3 103.3,65.3 C105.7,65.3 107.5,64.4 109.2,63 C109.4,62.9 109.5,62.9 109.6,62.9 L110.1,63.4 C110.2,63.5 110.2,63.7 110.1,63.9 C108.2,65.7 105.8,66.6 103.3,66.6 C97.7,66.6 93.2,62.2 93.2,56.6 C93.2,51 97.7,46.5 103.3,46.5" id="Shape" fill="#8C9091"></path>
                    <path d="M124.6,65.3 C129.5,65.3 133.4,61.4 133.4,56.5 C133.4,51.6 129.5,47.7 124.6,47.7 C119.7,47.7 115.8,51.6 115.8,56.5 C115.8,61.4 119.7,65.3 124.6,65.3 M124.6,46.5 C130.2,46.5 134.6,51 134.6,56.5 C134.6,62.1 130.2,66.5 124.6,66.5 C119,66.5 114.6,62.1 114.6,56.5 C114.6,51 119,46.5 124.6,46.5" id="Shape" fill="#8C9091"></path>
                    <path d="M147.8,57.6 C150.5,57.6 152.7,55.5 152.7,52.8 C152.7,50.2 150.4,48.1 147.8,48.1 L142,48.1 L142,57.6 L147.8,57.6 Z M140.6,47.2 C140.6,47 140.7,46.8 141,46.8 L147.9,46.8 C151.3,46.8 154.1,49.4 154.1,52.8 C154.1,55.6 152.2,57.9 149.5,58.6 L153.6,65.8 C153.7,66 153.7,66.3 153.4,66.3 L152.5,66.3 C152.3,66.3 152.2,66.2 152.1,66.1 L148.1,58.8 C147.7,58.8 147.4,58.8 147.1,58.8 L142,58.8 L142,65.9 C142,66.1 141.8,66.3 141.6,66.3 L141.1,66.3 C140.9,66.3 140.7,66.1 140.7,65.9 L140.7,47.2 L140.6,47.2 Z" id="Shape" fill="#8C9091"></path>
                    <path d="M160.1,47.2 C160.1,47 160.3,46.8 160.5,46.8 L171.6,46.8 C171.8,46.8 172,47 172,47.2 L172,47.7 C172,47.9 171.8,48.1 171.6,48.1 L161.4,48.1 L161.4,55.8 L170.2,55.8 C170.4,55.8 170.6,56 170.6,56.2 L170.6,56.7 C170.6,56.9 170.4,57.1 170.2,57.1 L161.4,57.1 L161.4,65.3 L171.6,65.3 C171.8,65.3 172,65.5 172,65.7 L172,66.1 C172,66.3 171.8,66.5 171.6,66.5 L160.5,66.5 C160.3,66.5 160.1,66.3 160.1,66.1 L160.1,47.2 Z" id="Shape" fill="#8C9091"></path>
                    <path d="M183.7,47.2 C183.6,47 183.7,46.8 183.9,46.8 L184.7,46.8 C184.9,46.8 185,46.9 185,47 L192.5,64.3 L192.6,64.3 L200.2,47 C200.2,46.9 200.3,46.8 200.5,46.8 L201.2,46.8 C201.5,46.8 201.6,47 201.5,47.2 L193,66.3 C192.9,66.4 192.8,66.5 192.7,66.5 L192.6,66.5 C192.4,66.5 192.3,66.3 192.3,66.3 L183.7,47.2 Z" id="Shape" fill="#8C9091"></path>
                    <path d="M215.9,59.8 L211.1,48.6 L211,48.6 L206.2,59.8 L215.9,59.8 Z M202.2,65.9 L210.8,46.5 C210.9,46.4 211,46.3 211.1,46.3 L211.2,46.3 C211.3,46.3 211.5,46.3 211.6,46.5 L220.1,65.9 C220.2,66.1 220.2,66.2 219.8,66.2 L219.1,66.2 C218.9,66.2 218.8,66.1 218.7,66 L216.4,60.9 L205.8,60.9 L203.6,66 C203.5,66.1 203.4,66.2 203.2,66.2 L202.4,66.2 C202.2,66.3 202.1,66.1 202.2,65.9 Z" id="Shape" fill="#8C9091"></path>
                    <path d="M224.6,47.2 C224.6,47 224.8,46.8 225,46.8 L225.6,46.8 C225.8,46.8 225.9,47 225.9,47.2 L225.9,65.1 L234.8,65.1 C235.1,65.1 235.2,65.3 235.2,65.5 L235.2,66 C235.2,66.2 235,66.3 234.8,66.3 L225,66.3 C224.8,66.3 224.6,66.1 224.6,65.9 L224.6,47.2 Z" id="Shape" fill="#8C9091"></path>
                    <path d="M239,47.2 C239,47 239.2,46.8 239.4,46.8 L240,46.8 C240.2,46.8 240.4,47 240.4,47.2 L240.4,59 C240.4,62.6 242.7,65.2 246.4,65.2 C250.1,65.2 252.4,62.6 252.4,59 L252.4,47.2 C252.4,47 252.5,46.8 252.8,46.8 L253.4,46.8 C253.6,46.8 253.8,47 253.8,47.2 L253.8,59.2 C253.8,63.5 250.9,66.6 246.5,66.6 C242.1,66.6 239.2,63.5 239.2,59.2 L239.2,47.2 L239,47.2 Z" id="Shape" fill="#8C9091"></path>
                    <path d="M260.7,47.2 C260.7,47 260.9,46.8 261.1,46.8 L272.2,46.8 C272.4,46.8 272.6,47 272.6,47.2 L272.6,47.7 C272.6,47.9 272.4,48.1 272.2,48.1 L262,48.1 L262,55.8 L270.8,55.8 C271,55.8 271.2,56 271.2,56.2 L271.2,56.7 C271.2,56.9 271,57.1 270.8,57.1 L262,57.1 L262,65.3 L272.2,65.3 C272.4,65.3 272.6,65.5 272.6,65.7 L272.6,66.1 C272.6,66.3 272.4,66.5 272.2,66.5 L261,66.5 C260.8,66.5 260.6,66.3 260.6,66.1 L260.6,47.2 L260.7,47.2 Z" id="Shape" fill="#8C9091"></path>
                    <path d="M277.6,63.7 L277.8,63.4 C278,63.2 278.2,63.1 278.4,63.3 C278.7,63.5 280.7,65.4 283.5,65.4 C286,65.4 288.2,63.7 288.2,61.7 C288.2,59.2 286.2,58.1 282.8,57 C279.6,55.9 277.4,54.7 277.4,51.5 C277.4,49.4 279.1,46.6 283.4,46.6 C286.2,46.6 288.2,48 288.2,48 C288.3,48.1 288.5,48.3 288.3,48.6 C288.2,48.7 288.1,48.8 288.1,49 C287.9,49.2 287.8,49.3 287.5,49.1 C287.4,49 285.6,47.8 283.4,47.8 C280,47.8 278.7,49.9 278.7,51.5 C278.7,53.9 280.5,54.9 283.3,55.8 C287.1,57.1 289.5,58.4 289.5,61.7 C289.5,64.5 286.6,66.6 283.4,66.6 C280.1,66.6 277.9,64.7 277.5,64.3 C277.5,64.1 277.3,64 277.6,63.7" id="Shape" fill="#8C9091"></path>
                    <path d="M93.2,28.5 C93.2,21.6 98.8,16 106.5,16 C114.2,16 119.8,21.5 119.8,28.4 L119.8,28.5 C119.8,35.4 114.2,41 106.5,41 C98.8,40.9 93.2,35.3 93.2,28.5 Z M114.1,28.5 C114.1,24.3 111,20.8 106.5,20.8 C102.1,20.8 99,24.2 99,28.3 L99,28.4 C99,32.5 102.1,36 106.6,36 C111,36 114.1,32.6 114.1,28.5 Z M120.1,16.3 L126.2,16.3 L132.7,33.3 L139.2,16.3 L145.1,16.3 L135,40.6 L130.1,40.6 L120.1,16.3 Z M148.2,16.3 L167.1,16.3 L167.1,21 L153.7,21 L153.7,25.9 L165.5,25.9 L165.5,30.6 L153.7,30.6 L153.7,35.7 L167.3,35.7 L167.3,40.4 L148.2,40.4 L148.2,16.3 Z M171.4,16.3 L182.8,16.3 C186,16.3 188.4,17.2 190.1,18.7 C191.5,20 192.2,21.9 192.2,24.2 L192.2,24.3 C192.2,28.2 190,30.6 186.8,31.8 L192.9,40.4 L186.5,40.4 L181.1,32.7 L176.8,32.7 L176.8,40.4 L171.3,40.4 L171.3,16.3 L171.4,16.3 Z M182.5,28 C185.2,28 186.7,26.6 186.7,24.6 L186.7,24.5 C186.7,22.2 185.1,21.1 182.4,21.1 L176.9,21.1 L176.9,28 L182.5,28 Z M202.3,21.2 L194.7,21.2 L194.7,16.3 L215.4,16.3 L215.4,21.2 L207.8,21.2 L207.8,40.4 L202.3,40.4 L202.3,21.2 Z M218.5,30.1 L218.5,16.3 L224,16.3 L224,30 C224,33.9 226,36 229.4,36 C232.8,36 234.8,34 234.8,30.2 L234.8,16.3 L240.3,16.3 L240.3,29.9 C240.3,37.2 236,40.8 229.3,40.8 C222.6,40.8 218.5,37.2 218.5,30.1 Z M245.1,16.3 L256.5,16.3 C259.7,16.3 262.1,17.2 263.8,18.7 C265.2,20 265.9,21.9 265.9,24.2 L265.9,24.3 C265.9,28.2 263.7,30.6 260.5,31.8 L266.6,40.4 L260.2,40.4 L254.8,32.7 L250.5,32.7 L250.5,40.4 L245,40.4 L245,16.3 L245.1,16.3 Z M256.2,28 C258.9,28 260.4,26.6 260.4,24.6 L260.4,24.5 C260.4,22.2 258.8,21.1 256.1,21.1 L250.6,21.1 L250.6,28 L256.2,28 Z M270.2,16.3 L289,16.3 L289,21 L275.6,21 L275.6,25.9 L287.4,25.9 L287.4,30.6 L275.6,30.6 L275.6,35.7 L289.2,35.7 L289.2,40.4 L270.1,40.4 L270.1,16.3 L270.2,16.3 Z" id="Shape" fill="#EE7623"></path>
                </g>
            </g>
        </g>
    </g>
</svg>