<?xml version="1.0" encoding="UTF-8"?>
<svg width="243px" height="19px" viewBox="0 0 243 19" version="1.1" xmlns="http://www.w3.org/2000/svg" xmlns:xlink="http://www.w3.org/1999/xlink">
    <!-- Generator: Sketch 52.2 (67145) - http://www.bohemiancoding.com/sketch -->
    <title>madewithlove</title>
    <desc>Created with Sketch.</desc>
    <g id="Desktop" stroke="none" stroke-width="1" fill="none" fill-rule="evenodd" opacity="0.919999957">
        <g id="Home" transform="translate(-546.000000, -3532.000000)" fill-rule="nonzero">
            <g id="Footer" transform="translate(0.000000, 3374.000000)">
                <g id="madewithlove" transform="translate(546.000000, 158.000000)">
                    <path d="M81.6,0 C81.7,0 81.8,0 81.8,0.1 L81.9,0 L82,0 C82.1,0 82.1,0 82.1,0.1 L82.2,0 L82.4,0 C83.8,0.2 84.8,0.6 85.4,1.1 C86.3,1.7 87,2.4 87.5,3.2 C87.7,2.6 88.3,1.9 89.3,1.2 C90.2,0.6 91.2,0.2 92.4,2.22044605e-16 L92.6,2.22044605e-16 C92.7,2.22044605e-16 92.7,2.22044605e-16 92.7,0.1 L92.9,0 L93.1,0 C94.7,0.4 95.9,0.9 96.5,1.7 C97.2,2.2 97.7,3.1 98.1,4.6 C98.2,4.9 98.3,5.4 98.3,6 L98.2,6.2 C98.2,6.2 98.2,6.3 98.3,6.3 C98.3,6.9 98.2,7.5 97.9,8.1 C97.9,8.2 98,8.3 98,8.3 C97.9,8.4 97.6,9 97.2,10 C95.9,11.9 93.9,13.8 91.3,15.7 C89.4,16.9 88.3,17.5 88.1,17.5 C87.8,17.7 87.5,17.8 87.4,17.8 C85.8,17.1 83.6,15.5 80.6,13 C79.1,11.5 78.2,10.4 77.8,9.5 C77.7,9.5 77.5,9 77.1,7.9 L77.2,7.9 C77,7.5 76.8,7 76.8,6.5 C76.8,6.4 76.8,6.4 76.9,6.4 L76.8,6 C76.8,3.2 78.2,1.3 80.9,0.1 C80.9,0.1 81,0.1 81,0.2 C81.3,0.2 81.5,0.1 81.6,0 Z" id="Shape" fill="#BF0416"></path>
                    <g id="Group" transform="translate(103.000000, 4.000000)" fill="#8C9091">
                        <path d="M0.6,1.2 C0.6,0.6 1.1,0.1 1.7,0.1 C2.3,0.1 2.8,0.6 2.8,1.2 C2.8,1.8 2.3,2.3 1.7,2.3 C1.1,2.3 0.6,1.8 0.6,1.2 Z M0.8,11.1 L0.8,3.2 L2.5,3.2 L2.5,11.1 L0.8,11.1 Z" id="Shape"></path>
                        <path d="M10,11.1 L10,6.2 C10,5 9.4,4.6 8.4,4.6 C7.5,4.6 6.8,5.1 6.4,5.6 L6.4,11.1 L4.7,11.1 L4.7,3.2 L6.4,3.2 L6.4,4.3 C7,3.7 8,3 9.2,3 C10.9,3 11.7,3.9 11.7,5.5 L11.7,11 L10,11 L10,11.1 Z" id="Shape"></path>
                        <path d="M17.7,5.7 C17.7,2.3 20.2,0.1 23.4,0.1 C25.6,0.1 26.9,1.2 27.7,2.5 L26.1,3.3 C25.6,2.4 24.5,1.7 23.4,1.7 C21.3,1.7 19.7,3.3 19.7,5.6 C19.7,7.9 21.3,9.5 23.4,9.5 C24.6,9.5 25.6,8.8 26.1,7.9 L27.7,8.7 C26.9,10 25.5,11.2 23.3,11.2 C20.2,11.3 17.7,9 17.7,5.7 Z" id="Shape"></path>
                        <path d="M34.6,11.1 L34.6,6.2 C34.6,5 34,4.6 33,4.6 C32.1,4.6 31.4,5.1 31,5.6 L31,11.1 L29.3,11.1 L29.3,0.3 L31,0.3 L31,4.3 C31.5,3.7 32.5,3 33.8,3 C35.5,3 36.3,3.9 36.3,5.5 L36.3,11.1 L34.6,11.1 Z" id="Shape"></path>
                        <path d="M38.3,1.2 C38.3,0.6 38.8,0.1 39.4,0.1 C40,0.1 40.5,0.6 40.5,1.2 C40.5,1.8 40,2.3 39.4,2.3 C38.8,2.3 38.3,1.8 38.3,1.2 Z M38.5,11.1 L38.5,3.2 L40.2,3.2 L40.2,11.1 L38.5,11.1 Z" id="Shape"></path>
                        <path d="M42,7.2 C42,4.8 43.7,3.1 46.1,3.1 C47.6,3.1 48.6,3.8 49.1,4.5 L48,5.5 C47.6,4.9 47,4.6 46.2,4.6 C44.8,4.6 43.8,5.7 43.8,7.2 C43.8,8.7 44.8,9.8 46.2,9.8 C47,9.8 47.6,9.5 48,8.9 L49.1,10 C48.5,10.7 47.6,11.4 46.1,11.4 C43.6,11.3 42,9.5 42,7.2 Z" id="Shape"></path>
                        <path d="M55.4,11.1 L55.4,10.2 C54.8,10.9 53.9,11.3 52.8,11.3 C51.5,11.3 50.1,10.4 50.1,8.7 C50.1,6.9 51.5,6.1 52.8,6.1 C53.9,6.1 54.8,6.4 55.4,7.1 L55.4,6 C55.4,5.1 54.6,4.5 53.6,4.5 C52.7,4.5 51.9,4.8 51.3,5.5 L50.6,4.3 C51.5,3.4 52.6,3 53.9,3 C55.7,3 57.2,3.7 57.2,5.8 L57.2,11 L55.4,11 L55.4,11.1 Z M55.4,9.3 L55.4,8.1 C55,7.6 54.3,7.3 53.5,7.3 C52.5,7.3 51.8,7.9 51.8,8.7 C51.8,9.6 52.5,10.1 53.5,10.1 C54.2,10.1 54.9,9.8 55.4,9.3 Z" id="Shape"></path>
                        <path d="M59.2,13.1 L60,11.9 C60.7,12.6 61.5,12.9 62.5,12.9 C63.6,12.9 64.8,12.4 64.8,10.7 L64.8,9.8 C64.2,10.6 63.3,11.1 62.3,11.1 C60.3,11.1 58.8,9.7 58.8,7.1 C58.8,4.5 60.2,3.1 62.3,3.1 C63.3,3.1 64.2,3.5 64.8,4.4 L64.8,3.2 L66.5,3.2 L66.5,10.6 C66.5,13.4 64.4,14.2 62.5,14.2 C61.1,14.3 60.2,14 59.2,13.1 Z M64.8,8.5 L64.8,5.6 C64.4,5 63.6,4.6 62.8,4.6 C61.4,4.6 60.6,5.6 60.6,7.1 C60.6,8.6 61.5,9.6 62.8,9.6 C63.6,9.6 64.4,9.1 64.8,8.5 Z" id="Shape"></path>
                        <path d="M68.3,7.2 C68.3,4.9 69.8,3.1 72.3,3.1 C74.8,3.1 76.3,5 76.3,7.2 C76.3,9.4 74.8,11.3 72.3,11.3 C69.8,11.3 68.3,9.4 68.3,7.2 Z M74.6,7.2 C74.6,5.8 73.8,4.6 72.3,4.6 C70.9,4.6 70,5.8 70,7.2 C70,8.6 70.8,9.8 72.3,9.8 C73.8,9.8 74.6,8.6 74.6,7.2 Z" id="Shape"></path>
                        <path d="M89.1,11.1 C88.8,10.9 88.5,10.5 88.1,10.2 C87.3,10.9 86.3,11.3 85.1,11.3 C83.2,11.3 81.6,10.3 81.6,8.2 C81.6,6.5 82.7,5.7 84,5 C83.5,4.2 83.2,3.4 83.2,2.6 C83.2,1.2 84.5,-4.4408921e-16 86.1,-4.4408921e-16 C87.6,-4.4408921e-16 88.8,0.8 88.8,2.2 C88.8,3.8 87.5,4.6 86.1,5.2 C86.5,5.7 86.9,6.2 87.2,6.5 C87.6,6.9 87.9,7.4 88.3,7.8 C88.8,7 89.2,6.2 89.4,5.5 L90.8,6.1 C90.4,7 89.9,7.9 89.3,8.8 C90,9.5 90.6,10.2 91.4,10.9 L89.1,10.9 L89.1,11.1 Z M87.2,9.2 C86.6,8.6 86.1,8 85.9,7.7 C85.5,7.2 85.1,6.7 84.7,6.2 C84,6.7 83.5,7.2 83.5,8.2 C83.5,9.4 84.4,10.1 85.4,10.1 C86.1,9.9 86.7,9.6 87.2,9.2 Z M85.5,4.3 C86.5,3.8 87.4,3.3 87.4,2.4 C87.4,1.7 86.9,1.3 86.3,1.3 C85.6,1.3 85,1.9 85,2.7 C85,3.2 85.2,3.7 85.5,4.3 Z" id="Shape"></path>
                        <path d="M97,11.1 L97,0.3 L101,0.3 C104.4,0.3 106.7,2.5 106.7,5.7 C106.7,8.9 104.4,11.1 101,11.1 L97,11.1 Z M104.8,5.7 C104.8,3.6 103.5,2 101.1,2 L99,2 L99,9.5 L101.1,9.5 C103.4,9.4 104.8,7.7 104.8,5.7 Z" id="Shape"></path>
                        <path d="M113.3,11.1 L113.3,10.2 C112.7,10.9 111.8,11.3 110.7,11.3 C109.4,11.3 108,10.4 108,8.7 C108,6.9 109.4,6.1 110.7,6.1 C111.8,6.1 112.7,6.4 113.3,7.1 L113.3,6 C113.3,5.1 112.5,4.5 111.5,4.5 C110.6,4.5 109.8,4.8 109.2,5.5 L108.5,4.3 C109.4,3.4 110.5,3 111.8,3 C113.6,3 115.1,3.7 115.1,5.8 L115.1,11 L113.3,11 L113.3,11.1 Z M113.3,9.3 L113.3,8.1 C112.9,7.6 112.2,7.3 111.4,7.3 C110.4,7.3 109.7,7.9 109.7,8.7 C109.7,9.6 110.4,10.1 111.4,10.1 C112.2,10.1 112.9,9.8 113.3,9.3 Z" id="Shape"></path>
                        <polygon id="Shape" points="117.3 11.1 117.3 0.3 119 0.3 119 11.1"></polygon>
                        <polygon id="Shape" points="121.2 11.1 121.2 0.3 122.9 0.3 122.9 11.1"></polygon>
                        <path d="M129.9,11.1 L129.9,10.2 C129.3,10.9 128.4,11.3 127.3,11.3 C126,11.3 124.6,10.4 124.6,8.7 C124.6,6.9 126,6.1 127.3,6.1 C128.4,6.1 129.3,6.4 129.9,7.1 L129.9,6 C129.9,5.1 129.1,4.5 128.1,4.5 C127.2,4.5 126.4,4.8 125.8,5.5 L125,4.3 C125.9,3.4 127,3 128.3,3 C130.1,3 131.6,3.7 131.6,5.8 L131.6,11 L129.9,11 L129.9,11.1 Z M129.9,9.3 L129.9,8.1 C129.5,7.6 128.8,7.3 128,7.3 C127,7.3 126.3,7.9 126.3,8.7 C126.3,9.6 127,10.1 128,10.1 C128.8,10.1 129.5,9.8 129.9,9.3 Z" id="Shape"></path>
                        <path d="M133.2,10.1 L134,8.9 C134.6,9.5 135.6,10 136.7,10 C137.7,10 138.3,9.6 138.3,9 C138.3,7.5 133.6,8.6 133.6,5.5 C133.6,4.2 134.7,3.1 136.7,3.1 C138,3.1 139,3.6 139.7,4.2 L139,5.4 C138.5,4.9 137.7,4.5 136.7,4.5 C135.8,4.5 135.3,4.9 135.3,5.5 C135.3,6.9 140,5.8 140,9 C140,10.4 138.8,11.5 136.7,11.5 C135.2,11.3 134,10.9 133.2,10.1 Z" id="Shape"></path>
                    </g>
                    <g id="Group" transform="translate(0.000000, 4.000000)" fill="#8C9091">
                        <polygon id="Shape" points="9.4 11.1 9.4 2.7 6 11.1 5.2 11.1 1.9 2.7 1.9 11.1 0 11.1 0 0.2 2.7 0.2 5.7 7.6 8.6 0.2 11.3 0.2 11.3 11 9.4 11"></polygon>
                        <path d="M18.3,11.1 L18.3,10.2 C17.7,10.9 16.8,11.3 15.7,11.3 C14.4,11.3 13,10.4 13,8.7 C13,6.9 14.4,6.1 15.7,6.1 C16.8,6.1 17.7,6.4 18.3,7.1 L18.3,5.9 C18.3,5 17.5,4.4 16.5,4.4 C15.6,4.4 14.8,4.7 14.2,5.4 L13.5,4.2 C14.4,3.3 15.5,2.9 16.8,2.9 C18.6,2.9 20.1,3.6 20.1,5.7 L20.1,10.9 L18.3,10.9 L18.3,11.1 Z M18.3,9.3 L18.3,8.1 C17.9,7.6 17.2,7.3 16.4,7.3 C15.4,7.3 14.7,7.9 14.7,8.7 C14.7,9.6 15.4,10.1 16.4,10.1 C17.2,10.1 17.9,9.8 18.3,9.3 Z" id="Shape"></path>
                        <path d="M27.8,11.1 L27.8,10 C27.2,10.8 26.3,11.3 25.3,11.3 C23.3,11.3 21.8,9.8 21.8,7.2 C21.8,4.7 23.3,3.1 25.3,3.1 C26.3,3.1 27.2,3.5 27.8,4.4 L27.8,0.2 L29.5,0.2 L29.5,11 L27.8,11 L27.8,11.1 Z M27.8,8.7 L27.8,5.6 C27.4,5 26.6,4.5 25.8,4.5 C24.4,4.5 23.6,5.6 23.6,7.1 C23.6,8.6 24.5,9.7 25.8,9.7 C26.6,9.8 27.4,9.3 27.8,8.7 Z" id="Shape"></path>
                        <path d="M31.3,7.2 C31.3,4.9 33,3.1 35.3,3.1 C37.7,3.1 39.2,4.9 39.2,7.4 L39.2,7.8 L33.2,7.8 C33.3,9 34.2,10 35.7,10 C36.5,10 37.4,9.7 37.9,9.1 L38.7,10.2 C37.9,10.9 36.7,11.4 35.5,11.4 C33,11.3 31.3,9.6 31.3,7.2 Z M35.2,4.4 C33.8,4.4 33.1,5.5 33,6.5 L37.4,6.5 C37.4,5.6 36.8,4.4 35.2,4.4 Z" id="Shape"></path>
                        <polygon id="Shape" points="51.8 11.1 50 5.3 48.2 11.1 46.4 11.1 44 3.2 45.8 3.2 47.5 8.9 49.4 3.2 50.9 3.2 52.8 8.9 54.5 3.2 56.3 3.2 53.9 11.1 51.8 11.1"></polygon>
                        <path d="M57.1,1.2 C57.1,0.6 57.6,0.1 58.2,0.1 C58.8,0.1 59.3,0.6 59.3,1.2 C59.3,1.8 58.8,2.3 58.2,2.3 C57.5,2.3 57.1,1.8 57.1,1.2 Z M57.3,11.1 L57.3,3.2 L59,3.2 L59,11.1 L57.3,11.1 Z" id="Shape"></path>
                        <path d="M61.5,9.3 L61.5,4.7 L60.2,4.7 L60.2,3.2 L61.5,3.2 L61.5,1.1 L63.2,1.1 L63.2,3.2 L64.8,3.2 L64.8,4.7 L63.2,4.7 L63.2,8.8 C63.2,9.3 63.5,9.7 63.9,9.7 C64.2,9.7 64.5,9.6 64.6,9.4 L65,10.7 C64.7,11 64.2,11.2 63.4,11.2 C62.2,11.3 61.5,10.6 61.5,9.3 Z" id="Shape"></path>
                        <path d="M71.7,11.1 L71.7,6.2 C71.7,5 71.1,4.6 70.1,4.6 C69.2,4.6 68.5,5.1 68.1,5.6 L68.1,11.1 L66.4,11.1 L66.4,0.2 L68.1,0.2 L68.1,4.2 C68.6,3.7 69.6,3 70.9,3 C72.6,3 73.4,3.9 73.4,5.5 L73.4,11.1 L71.7,11.1 Z" id="Shape"></path>
                    </g>
                </g>
            </g>
        </g>
    </g>
</svg>