<?xml version="1.0" encoding="UTF-8"?>
<svg width="214px" height="133px" viewBox="0 0 214 133" version="1.1" xmlns="http://www.w3.org/2000/svg" xmlns:xlink="http://www.w3.org/1999/xlink">
    <!-- Generator: Sketch 48.2 (47327) - http://www.bohemiancoding.com/sketch -->
    <title>Map</title>
    <desc>Created with Sketch.</desc>
    <defs></defs>
    <g id="Home" stroke="none" stroke-width="1" fill="none" fill-rule="evenodd" transform="translate(-517.000000, -4361.000000)">
        <g id="Footer" transform="translate(151.000000, 4361.000000)">
            <g id="Headquartered" transform="translate(292.977031, 0.000000)">
                <g id="Map" transform="translate(72.399951, 0.500000)">
                    <polygon id="Fill-1" fill="#CECECE" points="147.354039 103.719823 149.951473 103.165942 158.688501 102.172082 158.500896 101.799106 158.130153 101.153656 158.148021 100.260299 158.148021 99.3825762 157.799611 98.4534853 157.846513 96.7337738 158.422728 95.8002161 157.98275 95.0207624 157.165328 93.4819556 155.55952 88.5662607 153.77504 82.5316366 148.548903 83.0274495 143.517072 83.4942284 143.834214 84.2870824 143.83198 84.3183499 143.648842 90.9626899 143.577374 99.1436033 144.350127 106.784036 148.084358 106.987275 148.29653 106.382025 148.4216 105.446234 147.304904 104.302738"></polygon>
                    <polygon id="Fill-2" fill="#CECECE" points="135.458549 80.2790378 136.175467 79.7184565 136.514943 79.0372721 136.521643 78.8228665 133.747771 79.0037712 134.08948 78.2176174 134.8801 77.1500562 134.598693 76.7078446 130.002373 76.669877 125.682994 76.8708822 121.146975 77.0138193 116.338483 77.0473202 117.218439 82.253356 117.213973 87.2070186 117.167071 91.6157336 117.316709 91.8279058 118.051494 91.7542039 119.054287 91.7542039 119.221792 91.7542039 119.03642 94.6486794 123.016324 94.5526435 127.695279 94.2020011 131.208404 94.1975343 131.333474 93.3622458 130.775126 92.0624119 130.810861 90.7826785 131.652849 88.9289635 132.050393 87.8346016 132.805279 87.0551479 133.231857 86.7670404 133.683002 85.4493394 133.651735 84.6497852 134.388754 84.2142738 134.408855 84.0735701 134.219016 84.0869705 134.440122 83.8345972 134.451289 83.7564285 134.516057 83.7519617 134.8734 83.3454845 134.72823 81.8736794 135.353579 81.1478271"></polygon>
                    <polygon id="Fill-3" fill="#CECECE" points="51.6748727 70.01504 43.9562713 68.6794718 37.6380065 67.5449089 36.8764199 71.4734447 36.6419138 71.6186152 36.1595012 72.4293363 35.514051 72.0362594 34.8261664 71.5382131 34.1092477 71.3885759 33.8077399 71.8017533 34.0176787 72.5231388 33.7854059 73.630901 33.671503 74.5912594 33.6692696 75.6364867 33.2158911 76.5633442 33.2069575 76.9809884 33.2918264 77.6934403 33.4459304 78.6158311 33.7787058 79.6409578 34.4330895 80.8871903 32.8808823 81.7001449 32.0857949 83.8933354 31.0584348 84.8469937 31.0897023 85.7001492 31.0830021 86.4371685 31.7195187 87.3305251 30.9199645 88.4070199 30.36385 88.2841833 29.9261053 88.9408005 35.7195231 92.5834622 44.8719619 97.8766003 53.2873814 99.1608004 57.3633211 70.9195636"></polygon>
                    <polygon id="Fill-4" fill="#CECECE" points="4.06432386 36.9653111 2.00067002 40.6593408 3.12853278 43.9089256 2.40044711 48.0228329 4.06879064 52.9496948 5.31278976 55.1272516 4.823677 56.2439474 6.06990952 63.9178809 8.55120759 69.9569718 8.29660094 72.7576449 9.05148731 73.755971 12.1760022 75.0044369 13.5473046 77.0189561 15.1441796 77.6264386 18.8605432 81.7314124 20.028607 84.7755251 20.1000756 86.6203066 24.8504995 87.3193582 30.2173395 87.9424744 30.2240397 87.9313075 30.7868544 88.0563774 31.3318019 87.3260583 30.7667539 86.5376711 30.7756874 85.704616 30.7399532 84.7152235 31.8164479 83.7146641 32.6271691 81.4790391 34.0096385 80.7554202 33.4847914 79.750394 33.1386157 78.6805994 32.9800449 77.7358748 32.8929427 76.9966222 32.8996428 76.5745112 27.4970685 68.8268757 21.9359235 60.5945942 16.3167102 51.99827 20.2742801 37.369555 5.23908784 32.8938382"></polygon>
                    <polygon id="Fill-5" fill="#CECECE" points="70.2736646 72.262502 77.1636777 72.9548534 82.0235378 73.3680308 84.9358805 73.59137 85.7734023 73.653905 86.2625151 66.3685816 86.7538612 58.3953735 87.0821698 53.6248491 79.7231445 53.0508674 79.7231445 53.0553342 79.566807 53.0397005 79.4104696 53.0285335 79.4104696 53.0263001 75.7231401 52.677891 68.0514399 51.8314356 64.2211733 51.3423229 60.5494776 50.835343 57.717537 70.65446 63.8816978 71.4919819"></polygon>
                    <polygon id="Fill-6" fill="#CECECE" points="197.888991 37.9153959 195.199987 38.5161782 195.905739 42.1387394 196.392618 42.558617 195.662299 43.2822359 195.811937 43.5837438 198.311102 41.7702298 200.40379 40.9595086 201.875595 40.3140585 201.900162 39.6574413 201.18771 37.1493426"></polygon>
                    <polygon id="Fill-7" fill="#CECECE" points="190.366481 53.061811 190.337447 53.072978 190.283846 52.9166406 189.939903 51.9116144 190.277145 51.424735 189.743365 51.384534 189.520026 51.6123399 189.350288 51.9920165 191.007465 58.0422743 193.225222 57.533061 191.713216 55.4269728"></polygon>
                    <polygon id="Fill-8" fill="#CECECE" points="36.7444265 18.498736 36.8828968 19.3384912 36.6528574 20.1916468 37.2134387 21.2726083 37.733819 21.8398898 37.7494527 22.7600471 37.2112053 23.3675297 36.4473854 24.5311267 35.5584955 26.0408994 34.5579361 26.8516206 33.8209169 27.8209125 33.6556459 28.4886966 34.2139938 28.9532421 34.3703312 29.7773636 33.7092473 31.1464326 31.5986922 39.8722936 38.3167342 41.3619658 42.5378443 42.2977569 53.526131 44.2765418 55.5808513 32.0107552 55.5272499 31.9593872 55.4379142 31.8700515 55.4379142 31.8700515 55.1498067 31.5841774 54.9264675 30.840458 54.7366292 30.7354886 54.0867123 31.5975777 53.1285873 31.6176782 51.2704055 30.9811616 51.085034 31.4591074 49.8745357 31.034763 48.9633119 31.6936136 48.5144002 30.0498373 48.2396931 29.3172849 47.5361747 29.0515113 47.35527 28.5489982 47.3843041 27.21343 46.881791 26.4674772 46.7902219 24.7812665 46.5333819 24.0844484 46.3011091 23.9549116 45.8633644 24.5087928 44.9052394 25.0425734 44.2486223 24.2608863 44.5032289 22.8203487 44.9610742 22.588076 44.9342735 21.2971756 45.5596231 20.0129755 46.0688364 19.1464195 45.1888801 18.9230804 44.4004929 17.9448548 43.7639763 16.1626083 43.3753661 15.3027526 42.6919483 14.6573024 42.1983688 13.6411092 42.4016074 12.7298855 41.8075252 11.2000122 42.7031153 5.95600873 39.7371712 5.27929107 38.2787665 11.5394877"></polygon>
                    <polygon id="Fill-9" fill="#CECECE" points="141.371453 46.6419269 141.237449 45.444829 138.481444 45.6391341 134.559608 45.929475 130.988415 46.1595143 131.042017 46.2421498 131.062117 46.2711839 131.53783 46.5123902 131.752235 47.0573377 132.355251 47.4213806 132.826497 47.8881594 132.701427 49.3711314 132.053743 50.5927966 131.790203 51.0260746 130.867812 51.3968176 129.652847 51.7027923 129.420574 52.4040772 129.871719 52.739086 130.106226 53.6257424 129.630513 54.5727005 129.409407 55.3901218 128.473616 56.1829758 128.446816 56.9601961 128.462449 56.971363 128.442349 57.0562319 128.433415 57.3376393 128.390981 57.3041384 128.172108 58.311398 128.576352 59.7497022 129.257537 60.7279277 130.034757 61.5297153 130.966081 62.1505982 131.379259 62.3828709 131.79467 63.4169312 131.897406 64.1718176 132.207847 64.2968875 132.976134 63.9038106 133.923092 64.8083342 133.733254 65.873662 133.416112 66.6240815 133.232974 67.4415029 133.786855 68.0936532 134.570775 68.7123027 135.035321 68.7011357 136.185518 69.7619968 136.645596 69.8960002 137.069941 71.2137013 136.976138 71.970821 137.500985 73.0093481 137.887362 72.8619443 138.325107 73.2728883 138.251405 73.0071147 138.561846 72.3326305 139.812546 72.5515029 140.73717 72.9066121 141.096746 72.5738368 140.842139 71.4549076 141.820365 70.8943263 142.338511 70.5660177 142.001269 70.1751742 142.421147 69.3823202 142.387646 69.1723814 142.360845 69.1679146 142.365312 69.0473114 142.334045 68.8463062 142.374246 68.8530064 142.412213 67.9529496 142.867825 66.5079452 143.580277 65.3510483 143.794683 64.471092 144.08279 64.151717 144.053756 63.5710352 144.053756 63.5554015 143.783516 62.7692476 143.388205 62.3940379 143.718747 60.8797983 142.635553 49.2103272"></polygon>
                    <polygon id="Fill-10" fill="#CECECE" points="153.511053 52.7879972 152.930371 47.9817385 149.526682 48.4083163 145.48201 48.817027 144.517185 49.4758775 143.125782 49.6389151 142.980612 49.5250121 144.037006 60.8996755 143.733264 62.2866117 144.057106 62.5948198 144.365314 63.5172105 144.403282 64.2653967 144.07944 64.6227393 143.860568 65.4937621 143.143649 66.6551257 142.719305 68.0264281 142.685804 68.9019176 142.895743 68.9354185 142.884576 68.3502699 144.07944 68.6830453 144.903562 68.0375951 146.160961 68.6629447 146.366433 68.2430671 147.353592 67.5953836 148.229082 68.0755628 148.532823 67.5909168 149.258675 66.2642822 149.68302 67.061603 150.34857 67.32961 151.023055 65.8109037 151.570236 65.5875645 151.98118 64.6852743 152.465826 64.2765636 152.436792 63.2000689 153.497653 63.2782376 154.047067 62.7712577 154.66125 62.6886222 154.737185 62.4474159 154.27934 61.4289893 154.489278 61.136415"></polygon>
                    <polygon id="Fill-11" fill="#CECECE" points="138.861121 108.413518 138.749451 107.942273 138.546212 107.156119 137.936497 106.613405 137.57022 105.907653 137.818127 105.005363 137.871728 104.342046 133.898525 104.583252 129.867253 104.630153 129.588079 103.156115 130.121859 102.528532 130.447935 101.311333 130.80081 100.179004 131.589198 99.348182 131.738835 98.3699565 132.252515 97.8719101 131.683 97.0790561 131.828171 96.4358393 131.135819 95.401779 131.473061 94.6736934 131.285456 94.5106558 127.707563 94.5151226 123.033074 94.865765 119.037537 94.9640343 119.403813 100.18347 120.114032 100.730651 120.390972 101.561473 120.790749 102.727303 121.322296 103.8641 121.760041 104.596652 121.358031 106.577671 121.096724 107.129318 120.768415 108.261648 121.08109 108.574323 121.096724 109.726753 120.413306 110.452605 120.031396 111.122623 120.326204 111.636303 124.14977 111.68097 127.615994 112.223685 130.246929 113.161709 134.095063 114.001464 140.024718 113.420782 138.492611 110.602242"></polygon>
                    <polygon id="Fill-12" fill="#CECECE" points="207.400336 35.0419142 208.152989 36.4355506 206.305974 36.8129938 204.275821 34.4679326 203.59687 31.9509003 203.322162 31.9687674 202.719147 32.4578802 202.46454 33.0832298 198.261297 34.1798251 198.267997 34.1865253 197.997757 34.2512936 197.912888 34.2713941 197.910655 34.2691607 195.098815 34.9190777 195.16805 38.2021634 197.819086 37.6080812 201.254042 36.8107604 202.902285 36.2948469 203.570069 37.5790471 204.311555 37.9810576 204.592962 38.6309745 206.232272 38.2602315 208.376328 36.8174606 208.273592 35.5131599"></polygon>
                    <polygon id="Fill-13" fill="#CECECE" points="175.834249 56.7761646 176.40823 56.0570125 177.131849 55.717537 177.569594 55.0653867 178.755525 55.0452861 179.086067 54.6254085 179.673449 54.1653298 178.612588 54.3819688 175.184332 55.0229522 175.537208 57.1000064"></polygon>
                    <polygon id="Fill-14" fill="#CECECE" points="193.624999 58.0476345 193.430694 57.8086616 190.786359 58.4161441 189.073347 52.164881 185.84833 52.8907332 182.556311 53.5607507 180.037045 54.0900645 181.193942 54.2330016 181.859493 54.9030191 182.250336 55.4211659 182.810917 55.4703005 183.4184 55.7472411 183.547937 55.8053093 183.512202 55.9281458 183.387132 56.356957 184.135319 56.4753268 184.865638 56.8259693 185.142578 56.5065943 185.995734 57.0872761 185.520021 57.7237927 185.537888 58.1503705 184.95944 58.7690199 184.957207 58.7712533 184.854471 59.3497018 184.778535 59.7852131 185.151512 59.8901825 185.821529 59.4948722 186.248107 60.2341248 188.590935 61.085047 187.655144 57.0560086 187.911984 55.141992 188.220192 55.1218915 189.198417 58.7556196 191.532312 60.5356327 191.668548 60.2944264 191.706516 60.2296581 191.766818 60.2095575 192.595406 59.9460173"></polygon>
                    <polygon id="Fill-15" fill="#CECECE" points="204.096703 8.82658695 202.669565 7.91982996 201.282629 12.1856079 201.360798 16.3129156 200.768949 18.9661848 199.616519 20.1923168 202.571296 28.9427451 202.57353 29.4028238 203.402118 29.9187372 203.712559 30.4659182 203.882297 30.3922163 204.793521 27.687579 207.976104 23.495503 211.01575 21.2933789 213.81419 18.7339121 213.137472 16.8310625 210.00179 14.8053763 207.873368 8.15433608 206.086655 7.28778014"></polygon>
                    <polygon id="Fill-16" fill="#CECECE" points="131.247042 25.0952814 131.588751 25.9975716 134.695399 26.6832228 136.78362 27.431409 137.757379 27.3577071 138.583733 27.3666407 138.860674 28.2153295 139.716063 28.4587692 140.164975 29.2717237 140.162741 29.2717237 140.164975 29.2739571 139.961736 29.7519029 139.894734 30.3906529 140.712156 30.3616188 140.709922 30.3638522 140.712156 30.3638522 140.49775 31.3242106 140.890827 31.7351546 142.644039 28.3694335 145.071736 27.6458146 147.758506 26.3057796 150.746784 26.5179519 153.507256 25.7407316 151.59324 24.0455873 151.888047 23.6123094 151.108594 23.6078426 150.95449 24.1416232 149.650189 24.0567543 148.761299 22.7457534 145.487147 23.558708 142.414 25.052847 139.698196 23.3108015 137.516172 22.8015882 138.315726 20.2666888 135.75626 21.9752333 133.06949 23.8423487 130.963401 25.030513"></polygon>
                    <polygon id="Fill-17" fill="#CECECE" points="150.235114 27.6165572 149.984974 29.5015397 149.256889 30.113489 148.924113 32.6349881 148.618139 32.6617888 148.166993 31.2502853 147.065931 32.4138823 146.364646 34.1849619 145.685695 36.7466621 145.725896 38.8594505 147.287037 41.8588954 147.550577 45.2849181 146.239577 47.987322 145.815232 48.4652678 149.491395 48.0945248 153.201058 47.6277459 153.252426 48.0208229 155.025739 47.7617494 156.747684 47.5339435 158.081019 47.3083709 159.057011 45.267051 159.628759 43.3798351 160.948694 40.3982573 160.468514 38.4239391 159.40542 35.6835676 158.163654 35.4133273 156.227304 37.932593 155.293746 38.0018281 154.878335 36.5568238 156.620381 34.2363299 156.627081 31.9582705 156.035232 29.782947 153.201058 28.2106393"></polygon>
                    <polygon id="Fill-18" fill="#CECECE" points="106.546624 13.7679659 106.859299 14.5250856 106.825798 15.1839361 106.702962 15.8249195 106.734229 16.8187788 106.778897 17.7233024 107.158574 18.6479265 107.578451 19.7445218 107.743722 20.7897491 107.806257 21.4128653 107.815191 22.1208505 107.942494 23.5904221 108.060864 23.8785297 108.094365 25.066694 108.255169 26.087354 108.541043 26.9070087 108.766616 27.7177298 108.759915 28.5105838 108.775549 28.5105838 108.759915 28.6780882 108.757682 28.8232587 108.746515 28.8232587 108.686213 29.4999763 107.864325 30.0784247 107.696821 30.66134 108.002796 31.3603915 108.654946 31.7802691 109.077057 36.7517989 109.007822 41.3771529 112.90509 41.3816196 117.943622 41.2386826 123.359596 41.0443775 128.038552 40.921541 127.949216 40.5150637 127.877747 39.3112656 127.761611 38.9740235 126.508678 38.2906057 125.519286 37.4396835 125.237879 36.9036695 124.849268 36.6066284 123.678971 35.9522447 123.225593 35.9209772 122.026261 34.893617 122.102197 33.6875856 122.053062 32.3006494 122.271935 31.061117 121.46568 30.1074588 122.006161 29.0197971 123.678971 27.8517333 123.529334 25.0242595 124.449491 24.6981844 124.427157 23.9924326 126.752118 21.6652386 129.144081 19.4474807 132.221694 17.7166022 128.322192 16.7540104 125.559487 17.5758986 122.117831 16.1040935 118.609172 15.3961083 116.179242 15.1303347 115.024579 14.2101774 114.401463 11.4497054 113.53714 11.4809729 113.55054 13.4753916 106.519824 13.4530577"></polygon>
                    <polygon id="Fill-19" fill="#CECECE" points="42.7281293 12.7037548 42.5293574 13.6015782 42.949235 14.4681341 43.6371196 15.1180511 44.0547639 16.047142 44.6778801 17.7891875 45.3679981 18.6445764 46.5516957 18.9438509 45.8370104 20.1610493 45.2496284 21.3670808 45.2786625 22.7808177 44.7850829 23.0287242 44.5840777 24.1722207 44.979388 24.6412329 45.6561057 24.2637897 46.2211537 23.5491044 46.7884352 23.8684794 47.10111 24.7417355 47.1926791 26.3654112 47.7018924 27.1202976 47.6706249 28.4983002 47.7822945 28.8087416 48.4858128 29.0745152 48.8141214 29.9544715 49.1468967 31.1739033 49.8236144 30.6847906 50.9023425 31.0622337 51.087714 30.5865213 53.1781686 31.30344 53.9285881 31.2855729 54.6499736 30.3274479 55.1904544 30.6267224 55.4271939 31.417343 55.5857647 31.5759138 56.0123425 28.9338115 63.223964 30.0237066 68.8029762 30.841128 75.2842786 31.5781472 81.1424648 32.2057302 81.6628451 28.1655248 81.7209132 27.7076796 82.0938896 21.4876839 82.8711099 12.214642 72.9124168 11.1671814 62.8353539 9.7713116 52.8118923 8.04489989 43.0095366 6.0214471 42.1295803 11.1671814"></polygon>
                    <polygon id="Fill-20" fill="#CECECE" points="188.15922 68.8949941 183.915776 69.8151515 175.875566 71.3137572 169.840942 72.1311786 169.144124 72.2272144 169.141891 72.7185606 169.322795 73.5382153 168.465173 73.9156585 167.94926 74.8916506 167.194373 74.9005841 165.765003 76.1334163 165.369692 75.7403394 164.617039 76.417057 164.692975 76.7878001 163.909054 77.346148 163.562878 77.8508945 162.629321 78.4494434 161.69353 78.8157196 160.916309 79.0502257 160.456231 79.6800422 160.228425 80.2942249 159.428871 80.7096357 159.462372 81.5181235 162.35238 81.1473805 164.436135 80.8816069 164.804644 80.6850684 166.930833 79.4812703 170.792367 78.9251558 172.889522 78.8358202 172.956524 79.1082939 173.224531 78.8090195 174.169255 79.6979093 174.242957 80.1825553 178.749941 79.4433027 184.268652 83.2914364 185.575186 82.753189 188.610365 79.5259382 192.206126 76.7699329 193.939238 72.6024242 192.315562 67.9569697"></polygon>
                    <polygon id="Fill-21" fill="#CECECE" points="82.044755 27.5772495 88.6980286 28.0752958 96.0079193 28.4616726 101.810271 28.6827783 108.445677 28.5175074 108.452377 27.7603876 108.240205 27.0010345 107.947631 26.1501123 107.780126 25.0847845 107.748859 23.9457547 107.630489 23.6420135 107.500953 22.1344742 107.494252 21.4309558 107.431717 20.8301735 107.270913 19.8095135 106.868903 18.7642862 106.469126 17.7949943 106.422224 16.8301691 106.388723 15.8005756 106.516027 15.1350249 106.542828 14.5811438 106.234619 13.8173238 106.203352 13.4488142 94.7817873 13.0691376 83.1837847 12.2427827 82.4065645 21.5091245"></polygon>
                    <polygon id="Fill-22" fill="#CECECE" points="108.828034 47.2449426 108.69403 46.836232 108.122282 46.7714636 107.729205 46.4699557 107.570634 46.0657119 106.576775 45.6413674 105.656618 45.0026174 104.367951 45.0316515 103.519262 44.9981507 103.170853 45.2371236 101.685647 44.7524776 100.774424 44.1114942 93.3260627 43.8166865 87.7224832 43.4839112 80.5912638 42.93003 79.93688 50.554829 79.7492751 52.739086 87.4165085 53.3354015 87.0680994 58.4208342 93.7370067 58.7982774 98.8112725 59.001516 107.79844 59.1846541 112.926307 59.1846541 112.528764 58.3471323 111.939148 57.7173158 111.251264 56.8775606 111.166395 56.4264155 110.902855 55.4816908 111.012291 54.5570667 110.927422 53.7128447 110.538812 52.2678403 110.308772 51.7161926 110.002798 51.5330545 109.975997 50.2890554 109.750425 49.493968 109.04914 48.5112757 109.060307 48.0623639"></polygon>
                    <polygon id="Fill-23" fill="#CECECE" points="198.887763 23.9774689 198.923498 24.7323553 198.215513 25.5989112 197.668332 25.974121 197.677265 26.3895318 197.811269 27.2136533 197.692899 28.5514549 197.520928 29.0450344 197.395858 30.0947285 197.583463 31.2873596 197.552195 31.6246017 197.811269 32.9445362 197.701833 33.6078535 198.007807 33.9227617 202.233384 32.8172329 202.458957 32.2633517 203.202676 31.660336 203.586819 31.6357687 203.785591 30.7759129 203.763257 30.7870799 203.577886 30.8652486 203.166942 30.1438631 202.260185 29.578815 202.257951 28.9958998 199.341142 20.3638413 198.479053 20.7323509 198.470119 21.8267128 198.470119 21.8289462 198.474586 21.9473159 198.436618 23.3476525"></polygon>
                    <polygon id="Fill-24" fill="#CECECE" points="193.925837 47.0618045 194.640523 44.2789986 194.200544 44.1137276 191.520475 43.1042346 191.223433 43.3432075 190.837057 44.5916734 190.392612 45.1075869 190.725387 45.6748683 190.417179 46.4096542 190.551183 47.0551043 190.982227 47.1087057 191.183232 47.6603535 192.757774 48.7100475 192.306628 49.5185353 191.569609 50.3716909 191.366371 50.7513674 190.682953 51.3901174 190.287642 51.9596323 190.528849 52.6564505 190.787922 52.5514811 192.040855 53.6637101 192.983346 53.7217783 193.459058 54.695537 195.187704 50.5749295 194.977765 47.0461708"></polygon>
                    <polygon id="Fill-25" fill="#CECECE" points="64.1711454 97.1898323 68.2403849 97.649911 76.0438551 98.4114975 79.9120894 98.7286392 81.6653018 76.0329137 81.712203 75.3919303 81.8439731 73.667752 77.1359836 73.2679749 70.2392704 72.5756235 63.8428368 71.80287 57.6742092 70.9653481 57.6719758 70.9698149 53.5982695 99.2043516 56.7786192 99.6420963 57.1158613 97.558342 64.4547861 98.4807327 64.1644452 97.8375159"></polygon>
                    <polygon id="Fill-26" fill="#CECECE" points="37.3878666 67.1797494 37.3878666 67.1797494 37.4057337 67.0926471 42.3214286 42.5722407 31.5140467 40.1758115 31.5118133 40.1802783 31.5073465 40.1936786 31.3666428 40.1579444 26.2365423 38.8715108 20.5793614 37.4533072 16.6552924 51.9457853 22.1985703 60.4215064 27.7552486 68.6493211 33.0349864 76.2160518 33.3565948 75.5616681 33.3588281 74.563342 33.4771979 73.5806497 33.6938369 72.5331891 33.4637976 71.740335 33.9752442 71.0412835 34.9557031 71.2422887 35.6882556 71.7760693 36.0522984 71.9971751 36.4118745 71.3941593 36.5950126 71.278023 37.327565 67.4879574 37.327565 67.4879574 37.3588325 67.3338534"></polygon>
                    <polygon id="Fill-27" fill="#CECECE" points="195.83226 43.9591769 195.698257 44.0574461 195.280613 43.2199243 195.93053 42.5744741 195.617855 42.3042337 194.892003 38.5856367 194.862968 38.5923369 194.858502 38.4136655 194.833934 38.2774287 194.856268 38.2707285 194.782566 34.8134383 193.929411 30.8670353 193.455932 30.9519042 193.254926 30.6526297 193.301828 29.8687093 192.642977 28.6559776 192.74348 27.5437486 192.366037 26.8513972 191.899258 25.361725 191.879157 24.6984077 191.727287 23.8541857 186.586019 25.1517862 185.245984 26.4047189 182.39841 30.5208596 182.921024 31.1372757 183.604441 33.1517949 181.125377 35.4946227 177.998628 35.7090283 175.133187 36.0887049 173.511745 36.9909951 174.221963 38.2305274 174.22643 38.2573281 174.411802 38.7888753 171.776399 42.3734689 171.979638 43.5080318 177.639052 42.4360038 183.052794 41.3148412 188.149393 40.1892119 189.185687 40.8123281 189.80657 41.2031717 189.835604 41.8128876 190.192947 42.3891026 190.849564 42.5655405 191.457046 42.7486786 191.463746 42.7464453 191.541915 42.7754793 191.821089 42.8603482 191.803222 42.8737486 194.918803 44.0485126 194.974638 44.0686131 195.014839 44.0842468 194.985805 44.193683 195.117575 45.687822 197.306299 45.1272407 201.873585 42.4404706 200.855158 41.9625248"></polygon>
                    <polygon id="Fill-28" fill="#CECECE" points="158.174151 47.6123355 156.796149 47.8468417 155.067504 48.0746476 153.289724 48.333721 153.823504 52.7513696 154.792796 61.0171519 156.050196 60.9702507 156.872084 61.4035287 158.042381 62.3839876 158.920104 62.6296607 159.527587 62.9267018 160.43211 62.6631615 161.153496 62.8529998 161.937416 62.4710899 162.781638 62.2455173 163.23725 62.9646694 163.949702 63.292978 164.789457 63.0540051 165.144566 62.3772874 165.037364 61.2695252 165.472875 59.9473574 166.256795 60.0054255 166.361765 60.4297699 166.435467 60.3694684 166.475668 59.9294902 166.491302 58.9601983 167.304256 57.8479692 167.84027 57.8881703 168.286948 57.6849317 168.662158 57.3945908 169.484046 56.1394247 169.466179 55.6480785 169.660484 54.4867149 169.832455 53.1332796 169.814588 51.9897831 169.504147 51.2907315 170.015594 50.9333888 168.923465 44.5369553 167.31989 45.4236118 165.307604 47.1790576 162.623067 48.2979868 160.644282 48.3203207"></polygon>
                    <polygon id="Fill-29" fill="#CECECE" points="170.340105 50.9635396 171.108392 55.4325562 174.976626 54.7424382 178.55452 54.0746541 179.769485 53.8245143 182.491989 53.252766 185.781775 52.5849819 189.073794 51.8434959 189.256932 51.4303185 189.620975 51.0573421 190.505398 51.1265772 191.112881 50.5570624 191.322819 50.1796192 192.059839 49.3242302 192.343479 48.8105501 190.925276 47.8635921 190.753305 47.3968132 190.290992 47.3365117 190.089987 46.3783867 190.375861 45.6994356 190.007352 45.0718526 190.556766 44.435336 190.952076 43.1600694 191.162015 42.9903316 190.762238 42.8674951 189.991718 42.6597897 189.527173 41.9093701 189.500372 41.3800563 189.022426 41.0785484 188.093335 40.5224339 183.119572 41.6212626 177.703597 42.7446585 171.727041 43.8769881 171.617605 43.2695056 171.501469 42.6195886 169.212243 44.3571673 170.235136 50.3538237"></polygon>
                    <polygon id="Fill-30" fill="#CECECE" points="203.337126 37.8075231 202.745277 36.6729601 201.490111 37.066037 202.215964 39.6188037 202.195863 40.1213168 204.304185 38.7544811 204.065212 38.2050668"></polygon>
                    <polygon id="Fill-31" fill="#CECECE" points="174.303035 92.206019 174.921685 93.1462768 175.064622 94.0418669 175.383997 94.1334359 176.085282 94.2562725 180.040618 90.9843538 183.129399 87.2300225 184.069657 83.5382262 178.673783 79.7727279 173.97696 80.543248 173.876458 79.85313 173.242174 79.2590479 172.791029 79.761561 172.645859 79.1607786 170.814478 79.2367139 167.035579 79.7838949 164.954058 80.9608923 164.585549 81.1574307 164.219272 81.6018757 163.765894 82.4996991 164.858022 83.0960146 165.66651 83.3081868 166.711737 84.8380601 167.316986 85.6264473 168.967463 86.6046728 169.351606 87.187588 170.481702 87.8531387 171.162887 88.9743013 172.688293 89.7805557 173.19304 90.9195854 173.566016 91.4824001 173.492314 91.8196422"></polygon>
                    <polygon id="Fill-32" fill="#CECECE" points="108.385376 29.3275585 108.432277 28.8317456 101.808037 28.9970165 95.994519 28.7759108 88.6779281 28.389534 82.0157209 27.8892543 81.7812148 29.7117018 81.4350391 32.3962385 80.7873556 40.514617 80.6176178 42.6162385 87.742137 43.1701196 93.3412498 43.502895 100.878946 43.7999361 101.848238 44.4833539 103.119038 44.8920646 103.427246 44.6798924 104.369737 44.71786 105.752207 44.6865925 106.741599 45.3744771 107.813627 45.8278556 107.987832 46.274534 108.244672 46.468839 108.660083 46.5157403 108.662316 46.2946345 108.0325 45.7005523 108.371975 44.7781616 108.568514 43.9719072 108.648916 43.491728 108.182137 42.8239439 108.200004 41.3767062 108.693584 41.3767062 108.765052 36.7625191 108.356341 31.9607272 107.755559 31.572117 107.362482 30.6854606 107.594755 29.8859064"></polygon>
                    <polygon id="Fill-33" fill="#CECECE" points="192.213719 25.3309042 192.660398 26.7424077 193.064642 27.4749602 192.966372 28.5894226 193.620756 29.7976874 193.573855 30.5659741 193.600656 30.6061752 194.174637 30.5034392 195.05906 34.6061795 197.654261 34.0076306 197.368387 33.7150563 197.491224 32.9512364 197.236617 31.6402355 197.267885 31.2985266 197.078046 30.1014287 197.216517 28.9579322 197.388488 28.466586 197.493457 27.2248203 197.36392 26.407399 197.35052 25.8110834 198.020537 25.3532381 198.601219 24.6296193 198.578885 24.0846717 198.12104 23.4459217 198.154541 22.1438544 192.032815 23.7764637 192.193619 24.6787539"></polygon>
                    <polygon id="Fill-34" fill="#CECECE" points="20.5949951 4.3401499 19.9048771 8.61932821 18.4062714 9.91469534 18.0868964 5.38091039 14.0332906 3.18325305 13.1064331 7.85327489 12.7379235 12.0654515 13.345406 12.1949882 14.4085004 12.5567976 15.1097854 13.2737163 16.0433431 13.8789654 16.425253 15.1006306 16.259982 15.9671866 16.3024165 16.6282705 16.9501 17.0012469 17.754121 17.2268194 19.2259261 17.0995161 20.0947154 17.173218 21.329781 17.7740004 21.7563588 18.1492102 22.4554103 18.1760109 23.3755677 17.9928728 24.9233081 18.4886857 26.3080109 18.296614 27.1388325 18.0598745 27.9763544 18.5154864 29.3297897 18.3234147 36.3739068 20.0230257 36.5637451 19.3217408 36.4252748 18.4909191 37.9730152 11.4691359 39.4336533 5.20670584 29.787635 2.75667525 20.2912539 0.000670017481"></polygon>
                    <polygon id="Fill-35" fill="#CECECE" points="123.349546 35.6156725 123.769424 35.6424732 125.03129 36.3504584 125.484668 36.6966341 125.770542 37.2393482 126.699633 38.0411358 128.021801 38.7558211 128.189306 39.2695012 128.263008 40.4822328 128.446146 41.2862538 129.022361 42.137176 128.678418 42.5838543 128.740953 43.56878 128.908458 43.9908911 129.169765 44.7212101 130.409297 45.1343876 130.80014 45.855773 134.538838 45.6168001 138.460674 45.3264592 141.183178 45.1343876 141.180945 45.1232206 141.218912 45.1187538 141.207745 44.0422591 140.51316 41.5855283 140.517627 41.5520274 140.959839 38.6151175 141.464585 34.9657556 142.873855 31.1109217 142.661683 31.1399558 140.245153 34.7714505 139.476867 33.9852967 140.727566 32.0221455 140.151351 31.4213631 140.151351 31.4191297 140.316622 30.6910441 139.543869 30.7178448 139.543869 30.7156114 139.664472 29.6502836 139.814109 29.2907075 139.503667 28.7278928 138.612544 28.4732862 138.353471 27.6804322 137.766089 27.673732 136.78563 27.7474339 136.743195 27.7496673 136.687361 27.7295668 134.596906 26.9813806 131.358488 26.2689287 131.012313 25.3644051 130.563401 25.2594357 130.556701 25.2639025 130.337828 25.3889724 130.221692 25.3041035 128.057535 23.7407294 124.769983 24.91326 124.769983 24.9177268 123.854293 25.2415686 124.01063 28.1628448 123.782824 28.1628448 122.252951 29.2326393 121.83754 30.0612276 122.60806 30.970218 122.37132 32.3214199 122.415988 33.6927224 122.348987 34.7580502"></polygon>
                    <polygon id="Fill-36" fill="#CECECE" points="164.135073 63.5679085 164.237809 63.9096174 164.345012 64.9101768 164.930161 65.6270955 165.220502 66.3239137 165.890519 66.8800282 166.332731 67.3736078 166.975948 67.3512739 167.107718 67.1860029 167.168019 67.3445737 167.393592 67.3356401 167.239488 67.5299452 167.503028 68.22453 167.974274 68.5729391 168.552722 68.8342459 169.723019 68.0235247 170.2769 68.3049321 171.541 67.7108499 171.5544 67.1614356 171.556634 67.1614356 171.558867 67.1547354 172.139549 67.2775719 172.557193 66.844294 173.131175 66.8197267 173.600187 66.4087826 173.604654 66.0335728 173.448316 65.4908587 173.428216 65.4283237 173.428216 65.4283237 173.430449 65.4238569 173.85926 64.3763962 174.47791 63.6259767 174.538212 62.8710903 175.058592 61.8548971 175.264064 60.5126288 176.047984 60.8990055 176.617499 61.1134111 177.01951 60.8878386 177.115545 60.4433936 177.743128 58.7996174 178.091538 58.9671218 178.484614 58.3172048 179.121131 57.5176506 179.471774 56.9771699 179.525375 55.4048622 181.812368 56.3763875 181.997739 55.6081008 181.861503 55.4271961 181.615829 55.1011209 181.046315 54.5316061 179.896118 54.388669 179.295336 54.8599146 178.911192 55.3557276 177.740895 55.3758281 177.343351 55.9654435 176.608566 56.3093858 176.072552 56.9816366 175.335532 57.7834242 174.877687 55.0810204 170.853115 55.7979391 170.073662 51.2775545 169.897224 51.400391 170.129496 51.9207713 170.147364 53.1491367 169.970926 54.5316061 169.778854 55.666169 169.803421 56.2267503 168.896664 57.6114531 168.434352 57.964329 167.898338 58.2077686 167.453893 58.1742678 166.801743 59.065391 166.788343 59.9453473 166.736975 60.5327293 166.17416 60.9794076 166.006656 60.30269 165.693981 60.2781227 165.356739 61.3054828 165.466175 62.4422791 165.006096 63.3177686"></polygon>
                    <polygon id="Fill-37" fill="#CECECE" points="53.7838644 44.6419247 53.7838644 44.6419247 53.0021773 49.2136773 60.4416047 50.5045777 64.2629378 51.0316581 68.0887376 51.5207708 75.7537376 52.3672263 79.4366003 52.713402 79.6353722 50.4107752 80.2942227 42.7457752 81.1094106 32.5190751 75.2489911 31.8892587 68.7632218 31.1522394 63.1775094 30.3348181 56.2718626 29.2895908 55.8810191 31.7284545 55.8318845 31.8155567 55.9167534 31.9004256 53.8352324 44.3314833 53.8128985 44.4699536"></polygon>
                    <polygon id="Fill-38" fill="#CECECE" points="80.2010903 99.0678913 76.0157144 98.7217156 68.2100107 97.9623625 64.4824802 97.5402515 64.4802468 97.7702908 64.8532232 98.5944123 66.2133587 100.553097 68.2591454 102.393411 70.6689749 104.932778 71.8928735 107.784819 72.7214618 110.654727 74.8476506 112.369972 78.3295081 114.154452 81.4339224 110.350986 85.223988 110.500623 88.3328691 112.780916 90.4300238 116.445911 91.8593944 119.530225 94.4545955 122.598905 95.3412519 126.275068 96.5294163 128.691598 100.084976 130.384508 103.350194 131.579373 104.922502 131.47217 104.145282 129.870828 103.948743 127.340396 103.948743 127.331462 104.047012 123.729001 105.163708 121.361606 107.747742 118.873608 112.254727 116.667017 116.341833 112.805483 120.002362 111.699954 119.669587 111.121506 120.169866 110.252716 120.781816 109.6028 120.770649 108.704976 120.415539 108.3521 120.806383 107.003132 121.065456 106.458184 121.427266 104.653604 121.040889 104.001453 120.495942 102.835623 119.848258 100.921606 119.102305 100.345391 118.724862 94.9718511 118.702528 94.9718511 118.711462 94.8110469 118.702528 94.6547095 118.722629 94.6547095 118.885666 92.0662087 118.066011 92.0662087 117.163721 92.1600111 116.902414 91.7848013 115.0889 90.8311431 113.961038 90.3330968 113.029713 90.6725723 111.504307 90.6256711 110.666785 90.6346046 109.940933 91.0410819 109.17488 91.2688879 108.545063 91.0120478 107.068791 91.286755 106.488109 90.5050679 105.878394 91.1661519 104.583026 90.7730749 103.475264 90.009255 102.124062 90.5162349 101.579115 89.2365015 99.6896654 89.3035033 98.4166322 88.9863616 96.9403603 88.5575505 96.3775456 87.5301903 95.3077511 87.8138311 94.5796654 87.3336519 93.5210378 86.6971353 93.9520824 76.9327472 90.0079128 76.7362087 85.9051724 76.4883022 81.967703 76.2068949"></polygon>
                    <polygon id="Fill-39" fill="#CECECE" points="51.7260173 69.7052686 57.4077656 70.6097922 60.2397061 50.7862083 52.6417079 49.4685073 53.474763 44.5863133 52.5389719 44.4188089 42.6294134 42.634329 38.618242 62.6432844 37.6980847 67.2351375 44.0096494 68.3697004"></polygon>
                    <polygon id="Fill-40" fill="#CECECE" points="90.0253332 76.4217472 94.2799442 76.6339194 93.8444329 86.5256108 94.7467231 87.0660915 95.3631392 87.4748022 96.5379032 87.1643608 97.1520858 88.2922235 98.4965876 88.6830671 99.7227196 88.9868083 101.78414 88.9153398 102.29782 90.1146711 103.519485 89.6545924 104.741151 90.4988144 105.779678 90.8092559 106.514463 90.0119351 107.204581 90.9432594 108.578117 90.6864193 109.1923 90.9365592 109.833283 90.7467209 110.58147 90.3201431 111.508327 90.3112095 112.977899 90.3558774 113.973991 89.9940679 115.226924 90.5479491 116.855067 91.4055714 116.899734 87.2045618 116.904201 82.266533 116.022011 77.0493302 115.995211 77.0515636 115.997444 76.9041598 115.96841 76.7366554 115.997444 76.7366554 115.999678 76.4061134 116.006378 74.715436 112.569188 74.7578704 105.230263 74.7333031 97.8891051 74.5635654 93.8153988 74.4094613 89.7439259 74.2084561 86.0677633 73.9895837 86.0677633 73.9918171 85.9091925 73.9784168 85.7528551 73.9694832 85.7528551 73.9672498 83.0437511 73.7617778 82.1570946 73.6925426 82.0766925 74.7534036 81.9918236 75.8946668 85.9270596 76.1760741"></polygon>
                    <polygon id="Fill-41" fill="#CECECE" points="20.5099029 37.1118216 31.2904842 39.8142254 33.4122062 31.0392298 33.4189064 31.0235961 33.4189064 31.0235961 34.0420226 29.7326957 33.9258863 29.1229798 33.3050034 28.6025996 33.5328094 27.6824422 34.3435305 26.6193478 35.3172892 25.833194 36.1816118 24.3658557 36.969999 23.1665244 37.4323111 22.6439108 37.4211441 21.9649597 36.9454317 21.4334125 36.3803836 20.3457508 29.3139326 18.641673 27.9158295 18.8404449 27.1028749 18.396 26.3613889 18.6059388 24.8940506 18.8091774 23.3574772 18.3155979 22.4797543 18.4920358 21.6332989 18.4585349 21.137486 18.0252569 20.0096232 17.4803094 19.2257028 17.415541 17.7248636 17.5450777 16.8114064 17.2837709 15.9984519 16.8169921 15.9448505 15.9482028 16.0989545 15.1173811 15.7795795 14.0810874 14.8973898 13.5048723 14.2340725 12.8303881 13.2513802 12.4953793 12.6639982 12.3703094 9.75612236 19.4121931 7.74606991 24.8326345 5.0101652 29.6388933 5.27817219 32.5758032"></polygon>
                    <polygon id="Fill-42" fill="#CECECE" points="86.5769766 66.3902454 86.0878638 73.6755689 89.761793 73.8944412 93.8287991 74.0976799 97.900272 74.2517839 105.23473 74.4192883 112.566955 74.4438556 115.984044 74.4014211 115.932676 69.1283836 115.892475 63.7861108 114.885215 63.3394325 114.362602 62.2339037 114.014192 61.682256 114.574774 60.6995636 114.485438 60.1546161 114.063327 60.1680164 113.125303 59.497999 107.794197 59.497999 98.8025622 59.3170942 93.7215963 59.1116222 87.0482222 58.7319456"></polygon>
                    <polygon id="Fill-43" fill="#CECECE" points="143.334381 90.9564364 143.517519 84.3433638 143.18921 83.5214757 138.713494 83.773849 134.729123 84.0507895 134.682222 84.4058988 133.974237 84.823543 133.998804 85.4980273 133.494057 86.967599 132.993778 87.3070745 132.321527 88.0061261 131.944084 89.0468866 131.122195 90.8559338 131.093161 92.0016636 131.658209 93.3215981 131.513039 94.2931234 131.859215 94.5879311 131.495172 95.374085 132.162956 96.372411 132.022252 97.0089276 132.667702 97.9089844 132.033419 98.5231671 131.886015 99.4924591 131.077528 100.341148 130.749219 101.399776 130.40751 102.679509 129.922864 103.24679 130.126103 104.312118 133.889368 104.269684 138.21098 104.006144 138.126112 105.071471 137.905006 105.871025 138.188646 106.418206 138.825163 106.985488 139.055202 107.865444 139.144538 108.245121 141.540967 108.146852 144.040132 106.842551 143.262912 99.1507502"></polygon>
                    <polygon id="Fill-44" fill="#CECECE" points="163.927815 63.959422 163.807212 63.5752787 163.021058 63.2112358 162.639148 62.6104535 162.029432 62.7712577 161.18521 63.1866685 160.437024 62.9901301 159.498999 63.2626038 158.793247 62.9186615 157.893191 62.6685217 156.682692 61.6567953 155.976941 61.2860523 154.737408 61.3351869 154.639139 61.4647236 155.072417 62.4273154 154.902679 62.9744963 154.190227 63.0705322 153.609545 63.6020794 152.758623 63.5395444 152.785424 64.4195007 152.240476 64.8795794 151.802732 65.8332376 151.257784 66.0543434 150.511831 67.7338538 149.459904 67.3117428 149.256665 66.9253661 148.80552 67.7494876 148.336508 68.493207 147.369449 67.9616598 146.610096 68.4597061 146.301888 69.0850558 144.941753 68.4061047 144.151132 69.029221 143.206407 68.7656808 143.215341 69.3061615 142.712828 69.223526 142.748562 69.4356982 142.380053 70.1325164 142.81333 70.6372629 141.982509 71.1643433 141.198588 71.6110217 141.444261 72.6808162 140.805511 73.2704316 139.713383 72.850554 138.748558 72.6830496 138.583287 73.0336921 138.770892 73.6903092 138.802159 73.7193433 138.793226 73.7684779 138.940629 74.2799246 138.737391 74.0900863 138.701657 74.293325 138.851294 75.1509473 138.161176 75.6802612 137.754698 75.9572017 142.860232 75.5909255 142.77983 74.8003049 143.836224 74.6931021 143.985861 74.9075077 146.429191 74.5412314 151.025511 74.1347542 153.372806 74.014151 154.543103 73.8153792 158.14333 73.5875732 160.850201 73.0604928 161.960197 72.6205147 162.701683 72.2185042 162.755284 72.1202349 162.987557 71.6847236 164.01045 70.9276038 164.213689 70.5814281 164.325358 70.3915898 164.365559 69.9315112 164.367793 69.9292778 165.576058 69.1274902 165.681027 68.9957201 166.724021 67.6735523 166.199174 67.6914194 165.66316 67.0995706 164.961875 66.5166554 164.6492 65.7707026 164.043951 65.0359168"></polygon>
                    <polygon id="Fill-45" fill="#CECECE" points="137.050733 76.007453 137.133369 76.0029862 137.977591 75.4245378 138.509138 75.0180605 138.384068 74.2944417 138.46447 73.8321296 137.816787 73.2246471 137.347775 73.4033184 136.65319 72.0275492 136.749226 71.2436287 136.398583 70.1492669 136.025607 70.0420641 134.915611 69.0191707 134.466699 69.0303377 133.559942 68.3089522 132.894392 67.5250317 133.122198 66.5133053 133.437106 65.7695859 133.58451 64.9186637 132.918959 64.2843805 132.226608 64.6417232 131.610192 64.3938167 131.487355 63.4803595 131.130012 62.6026366 130.801704 62.4194985 129.821245 61.760648 129.00829 60.9186594 128.289138 59.8868324 127.84916 58.3212249 128.110467 57.1040265 127.621354 56.7511506 126.893268 56.0141314 122.736927 56.291072 118.276844 56.4585763 114.801686 56.5233447 111.507434 56.5456786 111.540935 56.7310501 111.543168 56.7399837 112.175218 57.5105038 112.802801 58.1894548 113.300847 59.2369155 114.15847 59.8533316 114.752552 59.833231 114.904422 60.7600886 114.381809 61.6735457 114.645349 62.09119 115.118828 63.0984496 116.204256 63.5830955 116.246691 69.1263735 116.298059 74.4016445 116.320393 74.4016445 116.311459 76.7333053 121.140052 76.6998044 125.66937 76.5568674 129.995449 76.3580955 134.772674 76.3960632 135.259553 77.1643499 134.352796 78.3882485 134.238893 78.6584889 136.550454 78.5043848 136.760393 77.3653551 136.961398 76.6216357 137.003832 76.326828 136.619689 76.3536287 137.0418 76.0632878"></polygon>
                    <polygon id="Fill-46" fill="#CECECE" points="165.77952 75.7063918 167.07712 74.5874626 167.760538 74.5785291 168.238484 73.6717721 168.962103 73.3546305 168.828099 72.735981 168.830333 72.2826025 166.983318 72.6622791 161.073764 73.3479303 160.917426 73.3657974 158.174821 73.899578 154.570127 74.127384 153.397597 74.3261558 151.045835 74.4489924 146.465149 74.8532362 143.840914 75.2463132 143.684577 75.022974 143.123995 75.0810422 143.208864 75.8828298 137.326111 76.3027074 137.265809 76.6935509 137.069271 77.4350369 136.839231 78.6701025 136.825831 79.1167808 136.42382 79.9230352 135.756036 80.4478822 135.655534 81.2809373 135.052518 81.9755221 135.199922 83.4517939 134.960949 83.7198009 138.692946 83.4584941 143.282566 83.2016541 148.519869 82.7170081 153.877776 82.2077948 157.084926 81.8705527 159.150813 81.5623446 159.106146 80.5238175 159.974935 80.0726724 160.18934 79.5143245 160.723121 78.7795387 161.59191 78.5182319 162.500901 78.1631226 163.340656 77.6226418 163.682365 77.1223621 164.343449 76.6511165 164.27198 76.3027074 165.379743 75.3088481"></polygon>
                    <polygon id="Fill-47" fill="#CECECE" points="170.734746 71.6934338 175.826878 71.0010824 183.855921 69.5069434 188.092665 68.5845527 192.166371 67.6688621 190.368491 64.890523 189.099925 62.7151996 186.066979 60.5019085 186.035711 60.4907415 186.022311 60.470641 186.011144 60.4483071 185.709636 59.9279268 185.195956 60.2316681 184.552739 60.04853 184.418736 60.0127957 184.418736 60.0105623 184.523705 59.4142468 184.664409 58.6236262 185.216057 58.0317774 185.20489 57.6878351 185.169156 57.4577957 184.818513 57.1518211 184.016725 56.7676777 182.982665 56.6158071 183.168037 55.9792905 182.725825 55.7805186 182.28808 55.7403176 182.033474 56.8123456 179.824649 55.8743211 179.786682 57.0781192 179.375738 57.7034688 178.739221 58.5074898 178.216607 59.3762791 177.917333 59.2333421 177.410353 60.5465763 177.30315 61.0557896 177.29645 61.0915239 177.236149 61.1250247 176.6443 61.4600335 176.6443 61.4600335 176.642066 61.4600335 175.936315 61.1897931 175.922914 61.1853263 175.509737 60.9820877 175.357866 61.953613 174.84642 62.9586393 174.781651 63.7492599 174.745917 63.7939277 174.120567 64.5577476 173.760991 65.4444041 173.926262 65.9804181 173.917329 66.5476996 173.912862 66.5521663 173.912862 66.5566331 173.254011 67.1373149 172.691197 67.1618822 172.242285 67.6308945 171.862608 67.548259 171.853675 67.9123018 171.851441 67.9145352 171.851441 67.919002 170.2702 68.660488 169.745353 68.392481 168.579523 69.1987354 167.802302 68.8391593 167.239488 68.4282153 167.009448 67.8184994 166.203194 68.8346926 165.772149 69.3729399 165.772149 69.3751733 165.769916 69.3774067 164.668854 70.1099592 164.635353 70.4896357 164.487949 70.7353088 164.248976 71.1417861 163.232783 71.9011392 163.045178 72.2450815 162.935742 72.4483202 162.933509 72.4505536 162.931275 72.4505536 162.082587 72.9106322 162.069186 72.9173324 166.93128 72.3522843 168.829663 71.9614408 168.831896 71.9525072 168.963666 71.9324067 169.146804 71.8966724 169.146804 71.9100728"></polygon>
                    <polygon id="Fill-48" fill="#CECECE" points="191.919805 60.4909649 191.729967 60.8237402 191.160452 64.3078311 191.283288 64.341332 192.471453 60.3145269"></polygon>
                    <polygon id="Fill-49" fill="#CECECE" points="159.334622 81.8515688 157.125797 82.1821108 154.092851 82.5014858 155.859464 88.4735749 157.458573 93.3691693 158.26036 94.8700085 158.789674 95.808033 158.159858 96.8286929 158.11519 98.4010006 158.461365 99.3256247 158.461365 100.265883 158.447965 101.072137 158.778507 101.650585 159.068848 102.224567 159.846068 103.426132 164.201182 103.097823 171.533406 102.83205 171.935417 103.560135 172.234691 103.23406 171.966684 101.43618 172.618835 101.103404 173.579193 101.349078 174.363114 101.302176 174.713756 98.3853669 175.926488 94.5484001 175.305605 94.4389639 174.782991 94.2893267 174.62442 93.2641999 174.088406 92.4534788 173.130281 91.9956335 173.230784 91.5444884 172.911409 91.0598424 172.44463 90.007915 170.937091 89.2105942 170.255906 88.0849648 169.130277 87.4216475 168.746134 86.8387323 167.104591 85.8672069 166.454674 85.0229849 165.471982 83.5824473 164.726029 83.3836755 163.35026 82.6310225 163.966676 81.4182909 164.11408 81.2396195 162.477003 81.4495583"></polygon>
                    <polygon id="Fill-50" fill="#CECECE" points="172.309733 101.612618 172.566573 103.334563 171.871989 104.096149 171.353842 103.151425 164.218156 103.410498 159.682137 103.75444 158.853549 102.468007 150.002618 103.475266 147.64639 103.977779 147.628523 104.187718 148.751919 105.335682 148.597815 106.472478 148.439244 106.932557 153.149467 105.844895 157.669851 107.707543 158.799948 108.944842 163.494537 106.197771 166.384545 107.848247 169.7391 110.512683 171.228772 113.284322 170.91163 116.52274 171.666517 118.861101 174.453789 122.242456 177.567137 126.246927 179.539222 127.149217 180.633584 129.255306 182.898243 129.478645 184.591154 128.310581 184.769825 123.803597 183.775966 119.318946 180.890424 114.443452 180.548715 112.469134 177.908846 109.020778 175.52135 105.103409 174.391254 101.617085 173.547032 101.663986 172.655909 101.43618"></polygon>
                    <polygon id="Fill-51" fill="#CECECE" points="117.953449 41.5533675 112.908217 41.6940711 108.508435 41.6896043 108.499502 42.7281314 108.977448 43.4182494 108.876945 44.0346655 108.671473 44.8788876 108.398999 45.6136734 108.977448 46.1608543 108.972981 46.6700676 109.129318 47.1524802 109.374991 48.0212695 109.363824 48.4143465 110.036075 49.3546043 110.286215 50.2635947 110.313016 51.3534898 110.558689 51.5008937 110.837863 52.1753779 111.239873 53.6672835 111.326976 54.5606401 111.219773 55.4562302 111.436412 56.2312171 114.797666 56.2088832 118.268357 56.1441148 122.72174 55.9766104 127.016552 55.6907363 127.83844 56.521558 128.139948 56.738197 128.162282 56.0324452 129.131574 55.2127905 129.343746 54.4467372 129.772557 53.5913482 129.596119 52.9257975 129.051171 52.5215536 129.410747 51.4383587 130.779817 51.0944164 131.577137 50.7750414 131.780376 50.4377993 132.394559 49.2809024 132.501761 48.0078692 132.146652 47.6572267 131.498969 47.27085 131.28903 46.7393028 130.842351 46.5137302 130.627946 46.1809549 130.619012 46.1809549 130.574344 46.0983194 130.433641 45.879447 130.455975 45.8772136 130.190201 45.3925676 128.926101 44.9682232 128.613427 44.1016673 128.428055 43.6125545 128.354353 42.4846918 128.633527 42.1251157 128.153348 41.4148972 128.110914 41.2339925 123.369423 41.3590624"></polygon>
                    <g id="Makers" transform="translate(0.781397, 3.500000)">
                        <polygon id="Star" fill="#EF7521" points="140.233485 51.1020494 133.493448 54.6454969 134.78068 47.1403546 129.327875 41.8251834 136.863467 40.7301979 140.233485 33.9017939 143.603504 40.7301979 151.139096 41.8251834 145.686291 47.1403546 146.973523 54.6454969"></polygon>
                        <circle id="Oval-2" fill="#5FC1D8" cx="2.49789789" cy="41.054136" r="2.15234218"></circle>
                        <circle id="Oval-2-Copy-10" fill="#5FC1D8" cx="5.80258224" cy="46.4931547" r="2.15234218"></circle>
                        <circle id="Oval-2-Copy" fill="#5FC1D8" cx="11.3945507" cy="68.7184633" r="2.15234218"></circle>
                        <circle id="Oval-2-Copy-11" fill="#5FC1D8" cx="21.3181662" cy="79.1928078" r="2.15234218"></circle>
                        <circle id="Oval-2-Copy-2" fill="#5FC1D8" cx="21.3181662" cy="2.38765782" r="2.15234218"></circle>
                        <circle id="Oval-2-Copy-9" fill="#5FC1D8" cx="13.5468928" cy="17.1255529" r="2.15234218"></circle>
                        <circle id="Oval-2-Copy-3" fill="#5FC1D8" cx="181.21294" cy="119.476563" r="2.15234218"></circle>
                        <circle id="Oval-2-Copy-4" fill="#5FC1D8" cx="201.112765" cy="33.9017939" r="2.15234218"></circle>
                        <circle id="Oval-2-Copy-5" fill="#5FC1D8" cx="127.175533" cy="68.7184633" r="2.15234218"></circle>
                        <circle id="Oval-2-Copy-6" fill="#5FC1D8" cx="108.497898" cy="108.668905" r="2.15234218"></circle>
                        <circle id="Oval-2-Copy-7" fill="#5FC1D8" cx="42.8913119" cy="81.1928078" r="2.15234218"></circle>
                        <circle id="Oval-2-Copy-12" fill="#5FC1D8" cx="31.391905" cy="66.5661211" r="2.15234218"></circle>
                        <circle id="Oval-2-Copy-13" fill="#5FC1D8" cx="74.3140089" cy="56.7978391" r="2.15234218"></circle>
                        <circle id="Oval-2-Copy-14" fill="#5FC1D8" cx="70.0093246" cy="77.0404656" r="2.15234218"></circle>
                        <circle id="Oval-2-Copy-15" fill="#5FC1D8" cx="60.4949653" cy="91.4765625" r="2.15234218"></circle>
                        <circle id="Oval-2-Copy-16" fill="#5FC1D8" cx="101.191149" cy="106.668905" r="2.15234218"></circle>
                        <circle id="Oval-2-Copy-17" fill="#5FC1D8" cx="106.191149" cy="99.6689047" r="2.15234218"></circle>
                        <circle id="Oval-2-Copy-18" fill="#5FC1D8" cx="95.1911492" cy="93.6689047" r="2.15234218"></circle>
                        <circle id="Oval-2-Copy-19" fill="#5FC1D8" cx="103.191149" cy="88.6689047" r="2.15234218"></circle>
                        <circle id="Oval-2-Copy-20" fill="#5FC1D8" cx="133.191149" cy="81.6689047" r="2.15234218"></circle>
                        <circle id="Oval-2-Copy-21" fill="#5FC1D8" cx="151.191149" cy="72.6689047" r="2.15234218"></circle>
                        <circle id="Oval-2-Copy-22" fill="#5FC1D8" cx="173.191149" cy="77.6689047" r="2.15234218"></circle>
                        <circle id="Oval-2-Copy-23" fill="#5FC1D8" cx="190.191149" cy="52.6689047" r="2.15234218"></circle>
                        <circle id="Oval-2-Copy-24" fill="#5FC1D8" cx="194.191149" cy="40.6689047" r="2.15234218"></circle>
                        <circle id="Oval-2-Copy-25" fill="#5FC1D8" cx="158.191149" cy="38.6689047" r="2.15234218"></circle>
                        <circle id="Oval-2-Copy-26" fill="#5FC1D8" cx="136.191149" cy="28.6689047" r="2.15234218"></circle>
                        <circle id="Oval-2-Copy-8" fill="#5FC1D8" cx="47.1959962" cy="91.4765625" r="2.15234218"></circle>
                    </g>
                </g>
            </g>
        </g>
    </g>
</svg>