<?xml version="1.0" encoding="utf-8"?>
<!-- Generator: Adobe Illustrator 22.0.1, SVG Export Plug-In . SVG Version: 6.00 Build 0)  -->
<svg version="1.1" id="Layer_1" xmlns="http://www.w3.org/2000/svg" xmlns:xlink="http://www.w3.org/1999/xlink" x="0px" y="0px"
	 viewBox="0 0 227.5 29" style="enable-background:new 0 0 227.5 29;" xml:space="preserve">
<style type="text/css">
	.st0{fill:#FFFFFF;}
</style>
<path class="st0" d="M0,14.6L0,14.6C0,6.5,6.5,0,15.5,0c9,0,15.4,6.4,15.4,14.4v0.1c0,8-6.5,14.5-15.5,14.5C6.4,29,0,22.5,0,14.6z
	 M24.2,14.6L24.2,14.6c0-4.9-3.7-8.9-8.8-8.9c-5.1,0-8.7,3.9-8.7,8.7v0.1c0,4.8,3.7,8.8,8.8,8.8C20.6,23.3,24.2,19.4,24.2,14.6z
	 M31.2,0.5h7.1l7.6,19.7l7.6-19.7h6.9L48.6,28.7h-5.6L31.2,0.5z M63.8,0.5h21.9V6H70.2v5.7h13.7v5.5H70.2V23h15.8v5.5H63.8V0.5z
	 M90.8,0.5H104c3.7,0,6.6,1,8.5,2.8c1.6,1.6,2.5,3.8,2.5,6.4v0.1c0,4.5-2.5,7.4-6.2,8.7l7.1,10h-7.5l-6.2-9h-5v9h-6.4V0.5z
	 M103.6,14.1c3.1,0,4.9-1.6,4.9-4V10c0-2.6-1.9-4-5-4h-6.3v8H103.6z M126.6,6.2h-8.8V0.5h24.1v5.7H133v22.3h-6.4V6.2z M145.4,16.5
	v-16h6.4v15.8c0,4.6,2.4,6.9,6.3,6.9c3.9,0,6.3-2.3,6.3-6.7v-16h6.4v15.8c0,8.5-4.9,12.6-12.7,12.6
	C150.2,28.9,145.4,24.7,145.4,16.5z M176.3,0.5h13.3c3.7,0,6.6,1,8.5,2.8c1.6,1.6,2.5,3.8,2.5,6.4v0.1c0,4.5-2.5,7.4-6.2,8.7l7.1,10
	h-7.5l-6.2-9h-5v9h-6.4V0.5z M189.2,14.1c3.1,0,4.9-1.6,4.9-4V10c0-2.6-1.9-4-5-4h-6.3v8H189.2z M205.4,0.5h21.9V6h-15.6v5.7h13.7
	v5.5h-13.7V23h15.8v5.5h-22.1V0.5z"/>
</svg>
