<?xml version="1.0" encoding="UTF-8"?>
<svg width="128px" height="51px" viewBox="0 0 128 51" version="1.1" xmlns="http://www.w3.org/2000/svg" xmlns:xlink="http://www.w3.org/1999/xlink">
    <!-- Generator: Sketch 52.2 (67145) - http://www.bohemiancoding.com/sketch -->
    <title>Women Owned ALT INFO PMS_WBE_09.07.16_v1</title>
    <desc>Created with Sketch.</desc>
    <g id="Desktop" stroke="none" stroke-width="1" fill="none" fill-rule="evenodd" opacity="0.919999957">
        <g id="Home" transform="translate(-1160.000000, -3464.000000)" fill-rule="nonzero">
            <g id="Footer" transform="translate(0.000000, 3374.000000)">
                <g id="Women-Owned-ALT-INFO-PMS_WBE_09.07.16_v1" transform="translate(1160.000000, 90.000000)">
                    <path d="M0,1.2440678 L3.69109948,1.2440678 L7.69633508,13.7728814 C8.16753927,15.0745763 8.56020942,17.1084746 8.56020942,17.1084746 C8.56020942,17.1084746 9.10994764,15.0745763 9.65968586,13.7728814 L14.8429319,1 L15.3141361,1 L20.5759162,13.7728814 C21.1256545,15.0745763 21.6753927,17.1084746 21.6753927,17.1084746 C21.6753927,17.1084746 22.1465969,15.0745763 22.539267,13.7728814 L26.5445026,1.2440678 L30,1.2440678 L22.1465969,25 L21.6753927,25 L16.0209424,11.0067797 C15.5497382,9.86779661 15.078534,8.15932203 15.078534,8.15932203 C15.078534,8.15932203 14.5287958,9.86779661 14.0575916,11.0067797 L8.32460733,25 L7.93193717,25 L0,1.2440678 Z" id="Shape" fill="#000000"></path>
                    <path d="M56,1 L56.4035088,1 L67.5403509,13.6815068 L78.5964912,1 L79,1 L79,24 L75.5298246,24 L75.5298246,12.1849315 C75.5298246,10.9246575 75.6912281,8.87671233 75.6912281,8.87671233 C75.6912281,8.87671233 74.5614035,10.609589 73.5929825,11.6335616 L67.7017544,18.4863014 L67.2982456,18.4863014 L61.4070175,11.6335616 C60.5192982,10.609589 59.3894737,8.87671233 59.3894737,8.87671233 C59.3894737,8.87671233 59.5508772,10.8458904 59.5508772,12.1849315 L59.5508772,24 L56,24 L56,1 Z" id="Shape" fill="#000000"></path>
                    <polygon id="Shape" fill="#000000" points="84 1 98.5238095 1 98.5238095 4.183391 87.5714286 4.183391 87.5714286 13.0968858 97.2539683 13.0968858 97.2539683 16.1211073 87.5714286 16.1211073 87.5714286 20.816609 99 20.816609 99 24 84 24"></polygon>
                    <path d="M105.428571,11.0067797 C104.52381,10.0305085 103.207792,8.40338983 103.207792,8.40338983 C103.207792,8.40338983 103.454545,10.3559322 103.454545,11.820339 L103.454545,24.7559322 L100,24.7559322 L100,1 L100.493506,1 L113.571429,14.9118644 C114.47619,15.8881356 115.792208,17.5152542 115.792208,17.5152542 C115.792208,17.5152542 115.545455,15.4813559 115.545455,14.0983051 L115.545455,1.2440678 L119,1.2440678 L119,25 L118.506494,25 L105.428571,11.0067797 Z" id="Shape" fill="#000000"></path>
                    <path d="M21.3257329,39 C21.3257329,33.9803922 17.8859935,30.2941176 13.0390879,30.2941176 C8.19218241,30.2941176 4.6742671,34.0588235 4.6742671,39 C4.6742671,44.0196078 8.11400651,47.7058824 13.0390879,47.7058824 C17.8859935,47.7058824 21.3257329,43.9411765 21.3257329,39 M1,39 C1,32.0196078 6.31596091,27 13.0390879,27 C19.6840391,27 25,32.0196078 25,39 C25,45.9803922 19.6058632,51 12.9609121,51 C6.31596091,51 1,45.9803922 1,39" id="Shape" fill="#000000"></path>
                    <path d="M25,27.2368421 L28.740458,27.2368421 L32.7862595,39.7894737 C33.2442748,41.1315789 33.6259542,43.1842105 33.6259542,43.1842105 C33.6259542,43.1842105 34.1603053,41.2105263 34.6946565,39.7894737 L39.8854962,27 L40.3435115,27 L45.610687,39.7894737 C46.1450382,41.1315789 46.6793893,43.1842105 46.6793893,43.1842105 C46.6793893,43.1842105 47.1374046,41.1315789 47.5954198,39.7894737 L51.5648855,27.2368421 L55,27.2368421 L47.1374046,51 L46.6793893,51 L41.0305344,36.9473684 C40.5725191,35.8421053 40.1145038,34.1052632 40.1145038,34.1052632 C40.1145038,34.1052632 39.5801527,35.8421053 39.1221374,36.9473684 L33.3206107,51 L32.8625954,51 L25,27.2368421 Z" id="Shape" fill="#000000"></path>
                    <path d="M65.4285714,37.0263158 C64.4705882,36 63.1932773,34.4210526 63.1932773,34.4210526 C63.1932773,34.4210526 63.4327731,36.3947368 63.4327731,37.8157895 L63.4327731,50.7631579 L60,50.7631579 L60,27 L60.4789916,27 L73.5714286,40.9736842 C74.4495798,41.9210526 75.8067227,43.5789474 75.8067227,43.5789474 C75.8067227,43.5789474 75.5672269,41.5263158 75.5672269,40.1842105 L75.5672269,27.2368421 L79,27.2368421 L79,51 L78.5210084,51 L65.4285714,37.0263158 Z" id="Shape" fill="#000000"></path>
                    <polygon id="Shape" fill="#000000" points="82 27 96.5384615 27 96.5384615 30.2214765 85.5384615 30.2214765 85.5384615 39.5637584 95.3076923 39.5637584 95.3076923 42.7852349 85.5384615 42.7852349 85.5384615 47.6979866 97 47.6979866 97 51 82 51"></polygon>
                    <path d="M106.228216,47.6979866 C112.377593,47.6979866 115.215768,44.0738255 115.215768,39 C115.215768,33.8456376 112.377593,30.3020134 106.228216,30.3020134 L103.705394,30.3020134 L103.705394,47.7785235 L106.228216,47.7785235 L106.228216,47.6979866 Z M100,27 L106.46473,27 C114.033195,27 119,31.8322148 119,39 C119,46.1677852 114.033195,51 106.46473,51 L100,51 L100,27 Z" id="Shape" fill="#000000"></path>
                    <path d="M38.6183575,11.7855422 C39.236715,12.0457831 39.8550725,12.4795181 40.47343,13 C40.47343,13 40.5507246,12.913253 40.5507246,12.913253 C40.7826087,12.653012 41.0144928,12.3060241 41.1690821,11.9590361 C41.4009662,11.5253012 41.5555556,11.0915663 41.7101449,10.5710843 C41.7874396,10.3975904 41.7874396,10.2240964 41.7874396,10.0506024 L41.8647343,9.79036145 C41.8647343,9.61686747 41.942029,9.53012048 41.942029,9.35662651 C42.0193237,8.74939759 42.0193237,8.05542169 41.942029,7.36144578 C41.8647343,6.66746988 41.7101449,5.88674699 41.5555556,5.1060241 C41.5555556,5.01927711 41.4782609,4.93253012 41.4009662,4.75903614 C41.2463768,4.41204819 40.9371981,4.15180723 40.6280193,4.06506024 C40.3188406,3.97831325 40.0869565,3.97831325 39.8550725,4.06506024 C39.468599,4.15180723 39.236715,4.49879518 39.0048309,4.84578313 C38.8502415,5.19277108 38.7729469,5.62650602 38.9275362,6.06024096 C38.9275362,6.23373494 39.0048309,6.32048193 39.0048309,6.4939759 C39.0048309,6.66746988 39.0821256,6.84096386 39.0821256,6.92771084 C39.0821256,7.01445783 39.1594203,7.18795181 39.1594203,7.2746988 C39.1594203,7.36144578 39.1594203,7.44819277 39.236715,7.53493976 C39.3140097,8.14216867 39.3140097,8.74939759 39.236715,9.26987952 C39.1594203,9.53012048 39.1594203,9.70361446 39.0821256,9.87710843 C39.0048309,10.0506024 38.9275362,10.2240964 38.8502415,10.3975904 C38.7729469,10.5710843 38.6183575,10.8313253 38.4637681,11.0048193 C38.3091787,11.1783133 38.2318841,11.2650602 38.0772947,11.4385542 C38.0772947,11.4385542 38,11.5253012 38,11.5253012 C38.1545894,11.6120482 38.2318841,11.6120482 38.3864734,11.6987952 L38.6183575,11.7855422 Z" id="Shape" fill="#F88D2B"></path>
                    <path d="M32.0031293,9 C33.0923315,9 34,8.09090909 34,7 C34,5.90909091 33.0923315,5 32.0031293,5 C30.9139271,5 30.0062586,5.90909091 30.0062586,7 C29.9154917,8.09090909 30.8231602,9 32.0031293,9" id="Shape" fill="#F88D2B"></path>
                    <path d="M38.3768233,14.8961039 C38.4721701,15.025974 38.5675168,15.2207792 38.6628636,15.4155844 C38.7582103,15.5454545 38.7582103,15.7402597 38.8535571,15.8701299 C38.8535571,15.9350649 38.8535571,15.9350649 38.8535571,16 C38.9489038,15.9350649 39.1395973,15.8701299 39.2349441,15.8051948 L39.7116779,15.5454545 C40.2837584,15.2207792 41.1418792,14.8961039 42,14.6363636 C42,14.6363636 42,14.5714286 42,14.5714286 C41.8093065,14.3116883 41.7139597,14.0519481 41.4279195,13.7922078 C41.1418792,13.4675325 40.8558389,13.1428571 40.4744519,12.8831169 C40.3791052,12.8181818 40.1884116,12.6883117 40.0930649,12.6233766 L39.8070246,12.4935065 C39.7116779,12.4285714 39.5209844,12.3636364 39.4256376,12.2987013 C38.8535571,12.038961 38.1861298,11.7792208 37.5187025,11.5194805 C36.7559285,11.3246753 35.9931544,11.1298701 35.1350336,11 C35.0396869,11 34.9443401,11 34.7536466,11 C34.2769128,11 33.8955258,11.1298701 33.5141388,11.3246753 C33.2280985,11.5194805 33.1327517,11.6493506 33.037405,11.9090909 C32.9420582,12.2337662 33.037405,12.5584416 33.2280985,12.8181818 C33.5141388,13.0779221 33.8955258,13.2727273 34.2769128,13.3376623 C34.4676063,13.3376623 34.5629531,13.4025974 34.7536466,13.4025974 C34.9443401,13.4025974 35.1350336,13.4675325 35.2303804,13.5324675 C35.3257271,13.5324675 35.5164206,13.5974026 35.6117674,13.5974026 C35.7071141,13.5974026 35.8024609,13.6623377 35.8978077,13.6623377 C36.5652349,13.8571429 37.0419687,14.0519481 37.5187025,14.3116883 C37.709396,14.4415584 37.9000895,14.5714286 37.9954363,14.6363636 C38.090783,14.7012987 38.2814765,14.7662338 38.3768233,14.8961039" id="Shape" fill="#D41367"></path>
                    <path d="M32.9981616,15.2666667 C32.7259357,15.0888889 32.3629679,15 32,15 C31.2740643,15 30.6388705,15.3555556 30.2759026,15.9777778 C30.0036767,16.4222222 29.9129347,16.9555556 30.0944187,17.4888889 C30.2759026,18.0222222 30.5481285,18.4666667 31.0018384,18.7333333 C31.2740643,18.9111111 31.6370321,19 32,19 C32.7259357,19 33.3611295,18.6444444 33.7240974,18.0222222 C33.9963233,17.5777778 34.0870653,17.0444444 33.9055813,16.5111111 C33.8148393,15.9777778 33.4518715,15.5333333 32.9981616,15.2666667" id="Shape" fill="#D41367"></path>
                    <path d="M39.8489933,20 C40.3257271,20 40.7071141,19.8529412 41.0885012,19.5588235 C41.1838479,19.4852941 41.2791947,19.4117647 41.4698882,19.2647059 C41.5652349,19.1911765 41.7559285,19.0441176 41.8512752,18.9705882 C41.946622,18.8970588 42.0419687,18.8235294 42.1373155,18.75 C42.2326622,18.6764706 42.328009,18.6764706 42.4233557,18.6029412 C42.9954363,18.2352941 43.5675168,18.0147059 44.0442506,17.8676471 C44.3302908,17.7941176 44.5209844,17.7205882 44.7116779,17.7205882 C45.1884116,17.6470588 45.6651454,17.6470588 46.1418792,17.7205882 C46.3325727,17.7941176 46.618613,17.7941176 46.8093065,17.8676471 C46.9046532,17.8676471 46.9046532,17.8676471 47,17.9411765 C47,17.7941176 46.9046532,17.7205882 46.9046532,17.5735294 L46.8093065,17.1323529 C46.7139597,16.5441176 46.7139597,15.8088235 46.8093065,15.0735294 C46.8093065,15.0735294 46.7139597,15.0735294 46.7139597,15.0735294 C46.3325727,15 45.8558389,15 45.4744519,15 C44.9023714,15 44.3302908,15.0735294 43.8535571,15.1470588 C43.6628636,15.1470588 43.4721701,15.2205882 43.2814765,15.2941176 L42.8047428,15.4411765 C42.6140493,15.5147059 42.5187025,15.5147059 42.328009,15.5882353 C41.6605817,15.8088235 40.9931544,16.1029412 40.4210739,16.3970588 C39.7536466,16.7647059 39.0862193,17.2058824 38.5141388,17.7205882 C38.418792,17.7941176 38.3234453,17.8676471 38.2280985,18.0147059 C38.037405,18.3088235 37.9420582,18.6764706 38.037405,18.9705882 C38.1327517,19.2647059 38.3234453,19.4852941 38.5141388,19.6323529 C38.8955258,19.8529412 39.3722596,20 39.8489933,20 Z" id="Shape" fill="#592C82"></path>
                    <path d="M43,22 C42.6369924,22 42.2739848,22.0888889 42.0017291,22.2666667 C41.0034582,22.8 40.7312025,24.0444444 41.2757139,25.0222222 C41.6387215,25.6444444 42.2739848,26 43,26 C43.3630076,26 43.7260152,25.9111111 43.9982709,25.7333333 C44.9965418,25.2 45.2687975,23.9555556 44.7242861,22.9777778 C44.3612785,22.3555556 43.7260152,22 43,22" id="Shape" fill="#592C82"></path>
                    <path d="M47.3816425,15.2144578 C46.763285,14.9542169 46.1449275,14.5204819 45.52657,14 C45.52657,14 45.4492754,14.086747 45.4492754,14.086747 C45.2173913,14.346988 44.9855072,14.6939759 44.8309179,15.0409639 C44.5990338,15.4746988 44.4444444,15.9084337 44.2898551,16.4289157 C44.2898551,16.6024096 44.2125604,16.7759036 44.2125604,16.9493976 L44.1352657,17.2096386 C44.1352657,17.3831325 44.057971,17.4698795 44.057971,17.6433735 C43.9806763,18.2506024 43.9806763,18.9445783 44.057971,19.6385542 C44.1352657,20.3325301 44.2898551,21.113253 44.4444444,21.8939759 C44.4444444,21.9807229 44.5217391,22.1542169 44.5990338,22.2409639 C44.7536232,22.5879518 45.0628019,22.8481928 45.3719807,22.9349398 C45.6811594,23.0216867 45.9130435,23.0216867 46.1449275,22.9349398 C46.531401,22.8481928 46.763285,22.5012048 46.9951691,22.1542169 C47.1497585,21.8072289 47.2270531,21.373494 47.0724638,20.939759 C47.0724638,20.7662651 46.9951691,20.6795181 46.9951691,20.5060241 C46.9951691,20.3325301 46.9178744,20.1590361 46.9178744,20.0722892 C46.9178744,19.9855422 46.8405797,19.8120482 46.8405797,19.7253012 C46.8405797,19.6385542 46.8405797,19.5518072 46.763285,19.4650602 C46.6859903,18.8578313 46.6859903,18.2506024 46.763285,17.7301205 C46.8405797,17.4698795 46.8405797,17.2963855 46.9178744,17.1228916 C46.9951691,16.9493976 47.0724638,16.7759036 47.1497585,16.6024096 C47.2270531,16.4289157 47.3816425,16.1686747 47.5362319,15.9951807 C47.6908213,15.8216867 47.7681159,15.7349398 47.9227053,15.5614458 C47.9227053,15.5614458 48,15.4746988 48,15.4746988 C47.8454106,15.3879518 47.7681159,15.3879518 47.6135266,15.3012048 L47.3816425,15.2144578 Z" id="Shape" fill="#DF1683"></path>
                    <path d="M51,19 C49.9090909,19 49,19.9090909 49,21 C49,22.0909091 49.9090909,23 51,23 C52.0909091,23 53,22.0909091 53,21 C53,19.9090909 52.1818182,19 51,19" id="Shape" fill="#DF1683"></path>
                    <path d="M51.3417002,14 C51.8184339,14 52.199821,13.8717949 52.4858612,13.6794872 C52.7719015,13.4871795 52.8672483,13.3589744 52.962595,13.1025641 C53.0579418,12.7820513 52.962595,12.4615385 52.7719015,12.2051282 C52.4858612,11.9487179 52.1044742,11.7564103 51.7230872,11.6923077 C51.5323937,11.6923077 51.4370469,11.6282051 51.2463534,11.6282051 C51.0556599,11.5641026 50.8649664,11.5641026 50.7696196,11.5 C50.6742729,11.5 50.4835794,11.4358974 50.3882326,11.4358974 C50.2928859,11.4358974 50.1975391,11.3717949 50.1021923,11.3717949 C49.4347651,11.1794872 48.9580313,10.9871795 48.4812975,10.7307692 C48.290604,10.6025641 48.0999105,10.474359 48.0045637,10.4102564 C47.909217,10.2820513 47.7185235,10.1538462 47.6231767,10.0897436 C47.5278299,9.96153846 47.4324832,9.76923077 47.3371364,9.57692308 C47.2417897,9.44871795 47.2417897,9.25641026 47.1464429,9.12820513 C47.1464429,9.06410256 47.1464429,9.06410256 47.1464429,9 C47.0510962,9.06410256 46.8604027,9.12820513 46.7650559,9.19230769 L46.2883221,9.44871795 C45.7162416,9.76923077 44.8581208,10.0897436 44,10.3461538 C44,10.3461538 44,10.4102564 44,10.4102564 C44.0953468,10.6666667 44.2860403,10.9230769 44.5720805,11.1794872 C44.8581208,11.5 45.1441611,11.8205128 45.5255481,12.0769231 C45.6208948,12.1410256 45.8115884,12.2692308 45.9069351,12.3333333 L46.1929754,12.4615385 C46.2883221,12.525641 46.4790156,12.5897436 46.5743624,12.6538462 C47.1464429,12.974359 47.8138702,13.1666667 48.4812975,13.4230769 C49.2440715,13.6153846 50.0068456,13.8076923 50.8649664,14 C51.0556599,14 51.1510067,14 51.3417002,14 Z" id="Shape" fill="#007CBA"></path>
                    <path d="M51.9111463,8.74840359 C52.8186156,9.28388981 54.1798196,8.926899 54.7243012,8.03442195 C55.2687828,7.0526972 54.996542,5.89247704 53.9983257,5.26774311 C53.7260849,5.0892477 53.3630972,5 53.0001095,5 C52.274134,5 51.6389055,5.35699082 51.2759177,5.98172475 C51.0036769,6.42796327 50.91293,6.9634495 51.0944239,7.49893573 C51.0944239,8.03442195 51.4574116,8.48066047 51.9111463,8.74840359" id="Shape" fill="#007CBA"></path>
                    <path d="M41.0649405,6.81924722 C41.1298809,7.41277295 41.1298809,8.15468011 41.0649405,8.89658727 C41.0649405,8.89658727 41.1298809,8.89658727 41.1298809,8.89658727 C41.7792857,9.04496871 42.4936309,9.04496871 43.1430356,8.82239656 C43.2729166,8.82239656 43.4027975,8.74820584 43.5326785,8.67401512 L43.7274999,8.59982441 C43.8573808,8.52563369 43.9223213,8.52563369 44.0522022,8.45144298 C44.5067856,8.22887083 44.9613689,7.93210796 45.3510117,7.6353451 C45.805595,7.26439152 46.2601783,6.81924722 46.6498212,6.2999122 C46.7147616,6.22572149 46.7797021,6.15153077 46.8446426,6.00314934 C46.9745235,5.70638647 47.039464,5.33543289 46.9745235,5.03867003 C46.9095831,4.74190716 46.7797021,4.51933501 46.6498212,4.37095358 C46.4549998,4.14838143 46.1302974,4 45.8705355,4 C45.5458331,4 45.2211308,4.14838143 45.0263093,4.4451443 C44.9613689,4.51933501 44.8964284,4.59352573 44.7665474,4.74190716 C44.701607,4.81609788 44.571726,4.96447931 44.5067856,5.03867003 C44.4418451,5.11286074 44.3769046,5.18705146 44.3119641,5.26124218 C44.2470237,5.33543289 44.1820832,5.33543289 44.1171427,5.40962361 C43.7274999,5.70638647 43.4027975,6.00314934 43.0131547,6.15153077 C42.8183333,6.22572149 42.6884523,6.2999122 42.5585714,6.2999122 C42.233869,6.37410292 41.9091666,6.37410292 41.5844643,6.2999122 C41.4545833,6.2999122 41.2597619,6.22572149 41.1298809,6.15153077 C41.0649405,6.15153077 41.0649405,6.15153077 41,6.07734006 C41,6.22572149 41.0649405,6.37410292 41.0649405,6.44829364 L41.0649405,6.81924722 Z" id="Shape" fill="#E0E622"></path>
                    <path d="M43.9983257,3.74840359 C44.996542,3.21291736 45.2687828,1.9634495 44.7243012,0.981724749 C44.3613135,0.356990818 43.7260849,0 43.0001095,0 C42.6371217,0 42.274134,0.0892477045 42.0018932,0.267743113 C41.5481585,0.535486227 41.1851708,0.981724749 41.0944239,1.51721098 C40.91293,2.0526972 41.0036769,2.58818343 41.2759177,3.03442195 C41.7296524,3.926899 43.0001095,4.28388981 43.9983257,3.74840359" id="Shape" fill="#E0E622"></path>
                    <path d="M127.533333,4.90909091 L127.4,2.63636364 C127.4,2.36363636 127.4,2 127.4,1.54545455 C127.333333,1.90909091 127.2,2.36363636 127.133333,2.72727273 L126.6,4.90909091 L126,4.90909091 L125.466667,2.72727273 C125.4,2.45454545 125.333333,2 125.266667,1.63636364 C125.266667,2 125.266667,2.36363636 125.266667,2.72727273 L125.133333,5 L124.6,5 L124.8,1.09090909 L125.666667,1.09090909 L126.133333,3 C126.2,3.27272727 126.266667,3.54545455 126.333333,4 C126.4,3.63636364 126.466667,3.27272727 126.533333,3 L127,1.09090909 L127.8,1.09090909 L128,5 L127.533333,5 L127.533333,4.90909091 Z M124.466667,1 L124.466667,1.63636364 L123.533333,1.63636364 L123.533333,4.90909091 L122.933333,4.90909091 L122.933333,1.63636364 L122,1.63636364 L122,1 L124.466667,1 Z" id="Shape" fill="#000000"></path>
                </g>
            </g>
        </g>
    </g>
</svg>