<?xml version="1.0" encoding="utf-8"?>
<!-- Generator: Adobe Illustrator 22.1.0, SVG Export Plug-In . SVG Version: 6.00 Build 0)  -->
<svg version="1.1" id="Layer_1" xmlns="http://www.w3.org/2000/svg" xmlns:xlink="http://www.w3.org/1999/xlink" x="0px" y="0px"
	 viewBox="0 0 143.9 144.8" style="enable-background:new 0 0 143.9 144.8;" xml:space="preserve">
<style type="text/css">
	.st0{fill:#D3D655;}
</style>
<g>
	<path class="st0" d="M71.4,0.4c-39.7,0-72,32.5-72,72.4s32.3,72.4,72,72.4s72-32.5,72-72.4S111.1,0.4,71.4,0.4z M71.4,138
		c-35.7,0-64.8-29.3-64.8-65.2S35.7,7.6,71.4,7.6c35.7,0,64.8,29.3,64.8,65.2S107.2,138,71.4,138z"/>
	<path class="st0" d="M107.3,96.3c-4.8,0-8.8,3.9-8.8,8.8c0,4.8,3.9,8.8,8.8,8.8c4.8,0,8.8-3.9,8.8-8.8
		C116.1,100.2,112.1,96.3,107.3,96.3z M107.3,109.8c-2.6,0-4.7-2.1-4.7-4.7c0-2.6,2.1-4.7,4.7-4.7s4.7,2.1,4.7,4.7
		C112,107.7,109.9,109.8,107.3,109.8z M54.4,96.3c-4.8,0-8.8,3.9-8.8,8.8c0,4.8,3.9,8.8,8.8,8.8c4.8,0,8.8-3.9,8.8-8.8
		C63.2,100.2,59.2,96.3,54.4,96.3z M54.4,109.8c-2.6,0-4.7-2.1-4.7-4.7c0-2.6,2.1-4.7,4.7-4.7c2.6,0,4.7,2.1,4.7,4.7
		C59.1,107.7,57,109.8,54.4,109.8z M90.4,89.7v12.2h-26c-1.4-4.2-5.3-7.3-10-7.3c-4.7,0-8.6,3-10,7.3H38v-4.6h-9.9v-7.6H90.4z
		 M90.4,85.6c0,1.1-0.9,2-2.1,2H21.5c-1.2,0-2.1-0.9-2.1-2V43.8c0-1.1,0.9-2,2.1-2h66.8c1.2,0,2.1,0.9,2.1,2V85.6z M122.3,88.6v-5.5
		l-8.6-18c0,0-1.6-4-6.5-4c-3.5,0-14.3,0-14.3,0v40.8c0,0,1.7,0,4.4,0c1.4-4.2,5.3-7.3,10-7.3s8.6,3,10,7.3c1.5,0,2.7,0,3.6,0
		c1.7,0,1.4-2.2,1.4-2.2v-1.2c0.6-0.1,1.1-0.6,1.1-1.2v-7.5C123.4,89.1,123,88.6,122.3,88.6z M97,83.8V65.2h10.3
		c1.8,0,2.5,1,2.7,1.4l0.1,0.2l8.2,17H97z"/>
</g>
</svg>
