<?xml version="1.0" encoding="utf-8"?>
<!-- Generator: Adobe Illustrator 22.1.0, SVG Export Plug-In . SVG Version: 6.00 Build 0)  -->
<svg version="1.1" id="Layer_1" xmlns="http://www.w3.org/2000/svg" xmlns:xlink="http://www.w3.org/1999/xlink" x="0px" y="0px"
	 viewBox="0 0 143.9 144.8" style="enable-background:new 0 0 143.9 144.8;" xml:space="preserve">
<style type="text/css">
	.st0{fill:#EE7623;}
</style>
<g>
	<path class="st0" d="M71.9,0.4C32.2,0.4,0,32.9,0,72.8c0,39.9,32.3,72.4,72,72.4s72-32.5,72-72.4C143.9,32.9,111.6,0.4,71.9,0.4z
		 M7.1,72.8c0-36,29.1-65.2,64.8-65.2s64.8,29.3,64.8,65.2c0,36-29.1,65.2-64.8,65.2S7.1,108.8,7.1,72.8z"/>
	<path class="st0" d="M115.8,46.7v-1.9c0-1.9-1.5-2.8-2.8-4.6c-1.3-1.8-2.6-1.7-2.6-1.7h-2.7v-1.2h-2.4v1.2h-0.9v-1.2H103v1.2
		l-5.7,0h-5.8l-1.3,1.2h-29l-2.4-1.2h-3.8c-0.1-0.8-0.4-1.2-1.9-1.2c-1.5,0-1.4,1.2-1.4,1.2H41.6l-0.3-0.6l-1,0.1l-0.5,0.6
		c-8,0-8.2,9.4-8.3,13.6c-0.1,4.3,1.1,9.3,1.4,11c0.3,1.7,1.3,1.9,1.3,1.9l4.8,0.8L39,66.6l0.6,0.2l-0.1,0.7c0,0-1.5,0-2.4,0.1
		c-0.9,0.1-0.5,0.9-0.5,0.9l3.5,0.1l0.4-0.9l0.2,1c1,0.8,1.6,0.1,1.6,0.1l0.2-0.9h2l0.3,0.4l1.2,0.2l-0.1,0.9l-0.4,0.2l0.1,1
		l0.3,0.2v3.5l-0.6,0.1l0,0.7c0,0-14.7-0.2-16-0.2c-1.3,0-4.1,14.5-4.4,18.4c-0.2,3.9,0.7,4.6,0.7,4.6s0.2,4.5,0.6,6.1
		c0.4,1.7,3.3,1.5,3.3,1.5l76.6,0.4l3.1,0c3.1,0,3-1.5,3-1.5l0.8-4.8c2.7-0.1,2.8-1.9,2.8-1.9l0.2-3l-0.2-37.1
		C118.9,52.3,115.8,46.7,115.8,46.7z M59.6,79.6H37.8l1.1-3.5h20.6V79.6z M80.9,73.3h-14l-0.4,1.7h-0.6l-0.1-1.7l-7.3-0.1v1.8H48.1
		v-0.7l-0.7-0.1v-6l1.9-0.2c0,0,0.6,0.5,1.1,0.2c0.6-0.2,0.6-0.9,0.2-1.2c-0.4-0.3-0.9,0-0.9,0h-1.8l-0.1-0.6l5-0.2c0,0,1.2,0,2-1.4
		l0.8-1.4c0,0,2.9-4.4,4.6-4.4c0,0,16.2-0.7,19,3.6C79,62.7,81.3,67.4,80.9,73.3z M98.4,56.6c-5.4,0-9.9-1.7-9.9-3.7
		c0-2,4.4-3.7,9.9-3.7c5.4,0,9.9,1.7,9.9,3.7C108.3,55,103.9,56.6,98.4,56.6z"/>
</g>
</svg>
