<?xml version="1.0" encoding="utf-8"?>
<!-- Generator: Adobe Illustrator 22.1.0, SVG Export Plug-In . SVG Version: 6.00 Build 0)  -->
<svg version="1.1" id="Layer_1" xmlns="http://www.w3.org/2000/svg" xmlns:xlink="http://www.w3.org/1999/xlink" x="0px" y="0px"
	 viewBox="0 0 143.9 144.8" style="enable-background:new 0 0 143.9 144.8;" xml:space="preserve">
<style type="text/css">
	.st0{fill:#D3D655;}
</style>
<g>
	<path class="st0" d="M71.4,0C31.5,0-1,32.6-1,72.8s32.5,72.8,72.4,72.8c39.9,0,72.4-32.7,72.4-72.8S111.3,0,71.4,0z M6.2,72.8
		c0-36.2,29.3-65.7,65.2-65.7c36,0,65.2,29.5,65.2,65.7s-29.3,65.7-65.2,65.7C35.5,138.5,6.2,109,6.2,72.8z"/>
	<path class="st0" d="M96.6,58.8l1-1c0,0-0.7-6.6-9-7.3l-1,1.2C87.6,51.7,95.6,53.9,96.6,58.8z"/>
	<path class="st0" d="M98.1,56.9c0,0,10.3-2.8,12.2-12.4c1.9-9.6-2-19.4-7.5-21.6c0,0-2.7-1.3-0.5,2.5c2.2,3.8,1,7-3.2,8.3
		c0,0-8.8,1.7-10,16.3C89.1,49.9,97.1,49.6,98.1,56.9z"/>
	<path class="st0" d="M106.7,100.7l-1.2-1.2c-6.5,2.6-10,9.8-10,9.8l1,1C100.2,103.3,106.7,100.7,106.7,100.7z"/>
	<path class="st0" d="M107.4,101.7c-6.9,3-10,9.4-10,9.4s6.9,10.5,13.4,4.1C117.3,108.8,107.4,101.7,107.4,101.7z"/>
	<path class="st0" d="M104.9,98.5L81.8,74.8C90.2,66.4,96.5,60,96.5,60s-2.5-5.6-10-7.4L74.3,67.1L49.3,41.5
		c1.4,2.3-3.9,2.3-3.9,2.3c0,3.9-3.7,4.4-4.5,4.5c0,0.1-0.1,0.1-0.1,0.2c0.2,4.2-1.7,3-1.7,3l26,26.6l-24.8,29.6l0,0l-4.8,6.1
		l-1.3,1.9c-0.9,1.2-1,1.9-1,2.3c0,0.1,0,0.2,0.1,0.3c0.6,1.5,6.9-4.2,8.5-5.6c0.4-0.3,0.9-0.6,1.3-1c5.8-4.5,17.6-15.9,28.7-26.8
		l23,23.6C94.7,108.4,98.9,100.6,104.9,98.5z M100.9,100.1l-0.5,0.5L78.5,78.1c0.2-0.2,0.3-0.3,0.5-0.5L100.9,100.1z M46.2,44
		l25.5,26.2l-0.5,0.6L45.7,44.5L46.2,44z M41.3,49l0.5-0.5L67.7,75l-0.5,0.6L41.3,49z M96,105.1L74,82.6c0.2-0.2,0.3-0.3,0.5-0.5
		l22,22.5L96,105.1z"/>
	<path class="st0" d="M41,48.3C40.9,48.3,40.9,48.3,41,48.3c-0.1,0-0.1,0.1-0.1,0.1C40.9,48.4,40.9,48.4,41,48.3z"/>
	<path class="st0" d="M32,32L32,32C32,32,32,32,32,32c0-0.1,0-0.1,0-0.2l-4.4-2.3l2.4,4.8C30.5,34.4,32.4,34.3,32,32z"/>
	<path class="st0" d="M39.8,47.7C39.8,47.7,39.8,47.7,39.8,47.7c0.5-0.1,5.9-0.4,4.7-5.1c0,0,6.8,0.8,3.6-2.4L33,32.4c0,0,0,0,0,0
		c0,0,0,0.1,0,0.1l0,0c0,0,0.2,2.6-2.6,2.8l7.6,15C38,50.3,40.1,53.3,39.8,47.7z"/>
</g>
</svg>
