<?xml version="1.0" encoding="utf-8"?>
<!-- Generator: Adobe Illustrator 22.1.0, SVG Export Plug-In . SVG Version: 6.00 Build 0)  -->
<svg version="1.1" id="Layer_1" xmlns="http://www.w3.org/2000/svg" xmlns:xlink="http://www.w3.org/1999/xlink" x="0px" y="0px"
	 viewBox="0 0 143.9 144.8" style="enable-background:new 0 0 143.9 144.8;" xml:space="preserve">
<style type="text/css">
	.st0{fill:#EE7623;}
</style>
<g>
	<path class="st0" d="M71.4,145.5c39.7,0,72-32.5,72-72.4s-32.3-72.4-72-72.4s-72,32.5-72,72.4S31.8,145.5,71.4,145.5z M136.2,73.1
		c0,36-29.1,65.2-64.8,65.2S6.6,109,6.6,73.1S35.7,7.9,71.4,7.9C107.2,7.9,136.2,37.1,136.2,73.1z"/>
	<g>
		<polygon class="st0" points="129.9,82.1 111.1,104.6 26.6,104.6 17.3,82.1 		"/>
		<rect x="103.6" y="70.8" class="st0" width="18.8" height="9.4"/>
		<rect x="62.3" y="70.8" class="st0" width="18.8" height="9.4"/>
		<rect x="82.9" y="70.8" class="st0" width="18.8" height="9.4"/>
		<rect x="82.9" y="48.3" class="st0" width="18.8" height="9.4"/>
		<rect x="93.3" y="59.6" class="st0" width="18.8" height="9.4"/>
		<rect x="72.6" y="59.6" class="st0" width="18.8" height="9.4"/>
		<path class="st0" d="M24.8,80.2h33.8V61.4H53V44.6h-5.6V39H36v5.6h-5.6v16.9h-5.6V80.2z M39.8,55.8h-5.6v-5.6h5.6V55.8z
			 M49.2,55.8h-5.6v-5.6h5.6V55.8z M48.2,68h5.6v5.6h-5.6V68z M38.8,68h5.6v5.6h-5.6V68z M29.5,68h5.6v5.6h-5.6
			C29.5,73.6,29.5,68,29.5,68z"/>
	</g>
</g>
</svg>
