<?xml version="1.0" encoding="utf-8"?>
<!-- Generator: Adobe Illustrator 22.1.0, SVG Export Plug-In . SVG Version: 6.00 Build 0)  -->
<svg version="1.1" id="Layer_1" xmlns="http://www.w3.org/2000/svg" xmlns:xlink="http://www.w3.org/1999/xlink" x="0px" y="0px"
	 viewBox="0 0 143.9 144.8" style="enable-background:new 0 0 143.9 144.8;" xml:space="preserve">
<style type="text/css">
	.st0{fill:#87D1E6;}
</style>
<g>
	<g>
		<path class="st0" d="M72,144.8c39.7,0,72-32.5,72-72.4S111.6,0,72,0S0,32.5,0,72.4S32.3,144.8,72,144.8z M136.7,72.4
			c0,36-29.1,65.2-64.8,65.2S7.1,108.3,7.1,72.4S36.2,7.2,72,7.2C107.7,7.2,136.7,36.4,136.7,72.4z"/>
	</g>
	<g>
		<g>
			<path class="st0" d="M97.9,116.7H47.7c-5.3,0-9.6-4.3-9.6-9.6V42.9c0-5.3,4.3-9.6,9.6-9.6H98c5.3,0,9.6,4.3,9.6,9.6v64.2
				C107.5,112.4,103.2,116.7,97.9,116.7z M47.7,39c-2.1,0-3.9,1.7-3.9,3.9v64.2c0,2.1,1.7,3.9,3.9,3.9H98c2.1,0,3.9-1.7,3.9-3.9
				V42.9c0-2.1-1.7-3.9-3.9-3.9H47.7z"/>
		</g>
		<g>
			<rect x="59.4" y="29.9" class="st0" width="27.6" height="15.3"/>
		</g>
		<g>
			<path class="st0" d="M73.2,35.5c-4.6,0-8.3-3.7-8.3-8.3s3.7-8.3,8.3-8.3c4.6,0,8.3,3.7,8.3,8.3C81.6,31.8,77.8,35.5,73.2,35.5z
				 M73.2,24.5c-1.4,0-2.6,1.2-2.6,2.6s1.2,2.6,2.6,2.6s2.6-1.2,2.6-2.6C75.8,25.7,74.7,24.5,73.2,24.5z"/>
		</g>
		<g>
			<polygon class="st0" points="65.6,103.3 48,85.8 54.3,79.5 64.3,89.5 88.3,54.4 95.6,59.4 			"/>
		</g>
	</g>
</g>
</svg>
