<?xml version="1.0" encoding="utf-8"?>
<!-- Generator: Adobe Illustrator 22.1.0, SVG Export Plug-In . SVG Version: 6.00 Build 0)  -->
<svg version="1.1" id="Layer_1" xmlns="http://www.w3.org/2000/svg" xmlns:xlink="http://www.w3.org/1999/xlink" x="0px" y="0px"
	 viewBox="0 0 143.9 144.8" style="enable-background:new 0 0 143.9 144.8;" xml:space="preserve">
<style type="text/css">
	.st0{fill:#8C9091;}
</style>
<g>
	<path class="st0" d="M71.4,0.4c-39.7,0-72,32.5-72,72.4s32.3,72.4,72,72.4s72-32.5,72-72.4S111.1,0.4,71.4,0.4z M6.6,72.8
		c0-36,29.1-65.2,64.8-65.2c35.7,0,64.8,29.3,64.8,65.2S107.1,138,71.4,138C35.7,138,6.6,108.8,6.6,72.8z"/>
	<path class="st0" d="M70.8,60.7H55.9v20.2h14.9V60.7z M66.5,62l2.8,3.9h-1.9l0,11.2l-1.9,0l0-11.2h-1.9L66.5,62z M60.1,62l2.8,3.9
		h-1.9l0,11.2l-1.9,0l0-11.2h-2L60.1,62z M69.6,79.8H56.9V78h12.8V79.8z"/>
	<path class="st0" d="M41.1,48.4L41.1,48.4l0-0.3l-2.2-1.7l27.3-0.7l3.1,1.8l-12.6-8.5H26v56.2l21.5,14.8V52.3L41.1,48.4L41.1,48.4z
		 M41.1,64.7l-3.5-1.8l0.3-16.5l1.3,0.8l1.9,1.2V64.7z"/>
	<polygon class="st0" points="101.7,45.1 89.5,38.9 62.7,38.9 72.7,45.5 	"/>
	<path class="st0" d="M105.9,47.5l-28.8,0.8l-1-0.5l6.5,4.2h-6.2v0.4l-6.8-4.6l0.1,0l-0.5-0.3l0.4,0.3l-28.6,0.6l6.4,4h29v0h6.7l0,0
		h0v21.2h-6.7V52.3h-29v57.6H116V52.3h0l-13.1-6.7L105.9,47.5z M71.5,81.7H55.1V59.9h16.4V81.7z"/>
	<polygon class="st0" points="101.9,45.1 101.7,45.1 102.9,45.7 	"/>
	<polygon class="st0" points="76.2,47.7 72.7,45.5 72,45.5 	"/>
</g>
</svg>
