<?xml version="1.0" encoding="utf-8"?>
<!-- Generator: Adobe Illustrator 22.1.0, SVG Export Plug-In . SVG Version: 6.00 Build 0)  -->
<svg version="1.1" id="Layer_1" xmlns="http://www.w3.org/2000/svg" xmlns:xlink="http://www.w3.org/1999/xlink" x="0px" y="0px"
	 viewBox="0 0 143.9 144.8" style="enable-background:new 0 0 143.9 144.8;" xml:space="preserve">
<style type="text/css">
	.st0{fill:#EE7623;}
</style>
<g>
	<path class="st0" d="M72,0C32.3,0,0,32.5,0,72.4s32.3,72.4,72,72.4s72-32.5,72-72.4S111.6,0,72,0z M72,137.6
		c-35.7,0-64.8-29.3-64.8-65.2S36.2,7.2,72,7.2c35.7,0,64.8,29.3,64.8,65.2S107.7,137.6,72,137.6z"/>
</g>
<g>
	<rect x="31.6" y="75.4" class="st0" width="18.9" height="36.7"/>
	<rect x="51.8" y="62" class="st0" width="18.9" height="50.1"/>
	<rect x="72" y="70.5" class="st0" width="18.9" height="41.6"/>
	<rect x="92.2" y="50.8" class="st0" width="18.9" height="61.3"/>
	<path class="st0" d="M101.7,25.1c-3.7,0-6.8,3-6.8,6.6c0,1.7,0.6,3.2,1.7,4.4L84.1,52.6c-0.8-0.3-1.7-0.5-2.6-0.5
		c-1.8,0-3.3,0.7-4.5,1.7l-9.7-7.6c0.5-0.9,0.8-2,0.8-3.2c0-3.7-3-6.6-6.8-6.6c-3.7,0-6.8,3-6.8,6.6c0,1.2,0.3,2.3,0.9,3.2
		L43.9,57.9C43,57.5,42,57.3,41,57.3c-3.7,0-6.8,3-6.8,6.6c0,3.7,3,6.6,6.8,6.6c3.7,0,6.8-3,6.8-6.6c0-1.5-0.5-2.8-1.3-4l11.1-11.2
		c1.1,0.7,2.3,1.1,3.7,1.1s2.6-0.4,3.7-1.1l10.1,7.9c-0.3,0.7-0.4,1.4-0.4,2.2c0,3.7,3,6.6,6.8,6.6c3.7,0,6.8-3,6.8-6.6
		c0-1.6-0.6-3.1-1.5-4.2L99.4,38c0.7,0.3,1.5,0.4,2.4,0.4c3.7,0,6.8-3,6.8-6.6C108.4,28.1,105.4,25.1,101.7,25.1z"/>
</g>
</svg>
