<?xml version="1.0" encoding="utf-8"?>
<!-- Generator: Adobe Illustrator 22.1.0, SVG Export Plug-In . SVG Version: 6.00 Build 0)  -->
<svg version="1.1" id="Layer_1" xmlns="http://www.w3.org/2000/svg" xmlns:xlink="http://www.w3.org/1999/xlink" x="0px" y="0px"
	 viewBox="0 0 143.9 144.8" style="enable-background:new 0 0 143.9 144.8;" xml:space="preserve">
<style type="text/css">
	.st0{fill:#D3D655;}
</style>
<g>
	<path class="st0" d="M72,0C32.3,0,0,32.5,0,72.4c0,39.9,32.3,72.4,72,72.4s72-32.5,72-72.4C143.9,32.5,111.6,0,72,0z M7.2,72.4
		c0-36,29.1-65.2,64.8-65.2s64.8,29.3,64.8,65.2c0,36-29.1,65.2-64.8,65.2S7.2,108.4,7.2,72.4z"/>
	<path class="st0" d="M97.4,29.7H47.6l-35.1,47h53.2L97.4,29.7z M21.7,71.5l27.5-36.8h39L63.3,71.5H21.7z"/>
	<polygon class="st0" points="50.2,35.7 25.8,69.1 27.7,70.5 51.4,38.1 83.8,38.1 83.8,35.7 	"/>
	<path class="st0" d="M51.2,46.6c-5.3,4.1-7,10.9-3.7,15.1c3.3,4.2,10.2,4.2,15.5,0.1c5.3-4.1,7-10.9,3.7-15.1
		C63.4,42.5,56.5,42.5,51.2,46.6z M61.8,60.2c-4.2,3.3-9.7,3.3-12.3-0.1c-2.6-3.3-1.3-8.7,2.9-12c4.2-3.3,9.7-3.3,12.3,0.1
		C67.3,51.5,66,56.9,61.8,60.2z"/>
	<path class="st0" d="M78.7,72.3c-4.3,3.1-5.8,8.5-3.4,11.9c2.5,3.4,8,3.6,12.3,0.5c4.3-3.1,5.8-8.5,3.4-11.9
		C88.5,69.4,83,69.2,78.7,72.3z"/>
	<path class="st0" d="M122.1,61.6c-7.9-10.1-21.8-8.3-21.8-8.3C90.6,58.2,86,56,84.5,54.9l1.8,1.6c-1.8-0.9-2.4-2.1-2.4-2.1
		c0,0,0.2,0.2,0.5,0.5L84,54.4l0,0l0,0L67.7,79.2L59,79.3l-14.9,30.4l45.1,4.4l17.3-36.4l4.3,4.2c10.5-2,19.2-10.2,19.2-10.2
		C127.6,67.5,124.7,64.1,122.1,61.6z M88.8,86.3c-5.4,3.9-12.4,3.7-15.5-0.6c-3.1-4.3-1.2-11,4.2-14.9c5.4-3.9,12.4-3.7,15.5,0.6
		C96.1,75.7,94.2,82.3,88.8,86.3z"/>
</g>
</svg>
