<?xml version="1.0" encoding="utf-8"?>
<!-- Generator: Adobe Illustrator 22.1.0, SVG Export Plug-In . SVG Version: 6.00 Build 0)  -->
<svg version="1.1" id="Layer_1" xmlns="http://www.w3.org/2000/svg" xmlns:xlink="http://www.w3.org/1999/xlink" x="0px" y="0px"
	 viewBox="0 0 143.9 144.8" style="enable-background:new 0 0 143.9 144.8;" xml:space="preserve">
<style type="text/css">
	.st0{fill:#87D1E6;}
</style>
<g>
	<path class="st0" d="M71.9,0.4c-39.7,0-72,32.5-72,72.4s32.3,72.4,72,72.4s72-32.5,72-72.4S111.6,0.4,71.9,0.4z M71.9,138
		c-35.7,0-64.8-29.3-64.8-65.2S36.2,7.6,71.9,7.6c35.7,0,64.8,29.3,64.8,65.2S107.6,138,71.9,138z"/>
	<path class="st0" d="M22.2,91.7V76l13.1-1.7V96l16.1,5.2V72.6l24.9-3.2v39.9l-0.1,0l14,4.6l15.1-10.4v-34l12.7,4.9v20.3l8.4-5.8
		V58.4L90.3,28.4L41.9,48v11.7l-25.8,6.5v23.6L22.2,91.7L22.2,91.7z M61.4,46.7l14-4.8v6l-14,3.5V46.7z"/>
	<polygon class="st0" points="90.3,114.9 16.2,90.6 16.2,91.4 90.3,116.8 126.4,91.2 126.4,90 	"/>
</g>
</svg>
