<?xml version="1.0" encoding="utf-8"?>
<!-- Generator: Adobe Illustrator 25.3.1, SVG Export Plug-In . SVG Version: 6.00 Build 0)  -->
<svg version="1.1" id="Layer_1" xmlns="http://www.w3.org/2000/svg" xmlns:xlink="http://www.w3.org/1999/xlink" x="0px" y="0px"
	 viewBox="0 0 159.4 140.5" style="enable-background:new 0 0 159.4 140.5;" xml:space="preserve">
<style type="text/css">
	.st0{fill:#35AFC7;}
	.st1{fill:#4D4D4D;}
</style>
<g>
	<g>
		<path class="st0" d="M82.2,61.8c0,0,38.7-64.3,71.9-61.7c8.5,3.5,6.6,15.5-3.3,33.3c0,18.6,4.5,34.3-35.7,36.9
			c23.2,4.7,32.9,31.7,21.4,48.1c7.3,12.9,8,16.7,7.7,21.4s-14.3-16.4-14.3-16.4s-2.4,0.7-5.9,0c-2,2.9-9.5,5.9-11.8,3.9
			c-2.3-2-3.4-6-3.4-6s-10.2,1.3-9.5-8.7c-4.2-2.4-3.4-13.4-3.4-13.4s-7.6-10.5-9.1-15.4c-1.7-1.7-5.4-5.4-5.4-5.4L82.2,61.8z"/>
		<path class="st0" d="M77.2,61.7c0,0-38.7-64.3-71.9-61.7c-8.5,3.5-6.6,15.5,3.3,33.3c0,18.6-4.5,34.3,35.7,36.9
			C21.1,75,11.5,102,23,118.4c-7.3,12.9-8,16.7-7.7,21.4c0.2,4.7,14.3-16.4,14.3-16.4s2.4,0.7,5.9,0c2,2.9,9.5,5.9,11.8,3.9
			c2.3-2,3.4-6,3.4-6s10.2,1.3,9.5-8.7c4.2-2.4,3.4-13.4,3.4-13.4s7.6-10.5,9.1-15.4c1.7-1.7,5.4-5.4,5.4-5.4L77.2,61.7z"/>
	</g>
	<g>
		<g>
			<g>
				<path class="st1" d="M82,54l-0.5-0.2c0.1-0.1,5.3-15,15.3-23.5l0.6,1.5C87.5,40.2,82,53.9,82,54z"/>
			</g>
			<g>
				<path class="st1" d="M77.4,54l0.5-0.2c-0.1-0.1-5.3-15-15.3-23.5L62,31.9C71.9,40.2,77.4,53.9,77.4,54z"/>
			</g>
		</g>
		<g>
			<ellipse class="st1" cx="79.7" cy="87.4" rx="3.7" ry="25.6"/>
			<ellipse class="st1" cx="79.7" cy="70.3" rx="6.1" ry="12.5"/>
			<circle class="st1" cx="79.7" cy="56.2" r="4.1"/>
		</g>
	</g>
</g>
</svg>
