<?xml version="1.0" encoding="utf-8"?>
<!-- Generator: Adobe Illustrator 25.4.1, SVG Export Plug-In . SVG Version: 6.00 Build 0)  -->
<svg version="1.1" id="Layer_1" xmlns="http://www.w3.org/2000/svg" xmlns:xlink="http://www.w3.org/1999/xlink" x="0px" y="0px"
	 viewBox="0 0 163.3 205.3" style="enable-background:new 0 0 163.3 205.3;" xml:space="preserve">
<style type="text/css">
	.st0{fill:#87D1E6;}
	.st1{fill:#36B0C9;}
	.st2{fill:#C1BCB6;}
	.st3{fill:#DE7A6D;}
	.st4{fill:#E6DBD4;}
	.st5{fill:#B8BE14;}
	.st6{fill:#2F3637;}
	.st7{fill:#ACDCD4;}
	.st8{fill:#2E414C;}
	.st9{fill:#211E1F;}
	.st10{fill:#E6E5E2;}
	.st11{fill:#EAAA28;}
	.st12{fill:#DC8F28;}
	.st13{fill:#2A4740;}
	.st14{fill:#923C2A;}
	.st15{fill:#E48255;}
	.st16{fill:#52BE9D;}
	.st17{fill:#231F20;}
	.st18{fill:#F6C796;}
	.st19{fill:#8C5A3B;}
	.st20{fill:#EE7A6C;}
	.st21{fill:#6E292F;}
	.st22{fill:#1D7089;}
	.st23{fill:#F2AA5A;}
	.st24{fill:#FFFFFF;}
	.st25{fill:#F7D8B8;}
	.st26{fill:#8D616C;}
	.st27{fill:#F4CBC1;}
	.st28{fill:#2DB89B;}
	.st29{fill:#B4D4E2;}
	.st30{fill:#A4DBE3;}
	.st31{fill:#D48B32;}
	.st32{fill:#CDA97A;}
	.st33{fill:#F7E9D8;}
	.st34{fill:#8D392A;}
	.st35{fill:#F4B675;}
	.st36{fill:#A8764E;}
	.st37{fill:#7E523A;}
	.st38{fill:#1C1917;}
	.st39{fill:#ACD2E0;}
</style>
<g>
	<g>
		<polygon class="st0" points="94.9,192.9 65.5,192.9 70,174.7 90.4,174.7 		"/>
		<polygon class="st0" points="106.4,205.3 54,205.3 65.5,192.9 94.9,192.9 		"/>
		<path class="st1" d="M68.5,180.9c2.4,0.2,4.7,0.3,7.1,0.3c5.4,0,10.8-0.5,16.1-1.5l-1.2-5H70L68.5,180.9z"/>
		<g>
			<path class="st1" d="M107.3,16.8l4.3-10.1l-1.5-0.6l-4.2,9.9C106.4,16.1,106.9,16.4,107.3,16.8z"/>
			<path class="st1" d="M88,62.2c-0.2,0.5-0.4,0.9-0.7,1.4c-0.6,1.3-1.2,2.7-1.6,4L88,62.2z"/>
			<path class="st1" d="M44.2,161.3l-4.3,10.1l1.5,0.6l4.3-10.2C45.1,161.8,44.6,161.6,44.2,161.3z"/>
			<path class="st0" d="M163.3,89.2c0-11.3-2.1-22.4-6.4-33c-4.3-10.5-10.4-20-18.3-28.2c-8.2-8.4-17.8-15-28.7-19.7
				c-1.4-0.6-2.8-1.1-4.2-1.7l-2.6,6.2c1.4,0.5,2.8,1.1,4.2,1.6c10,4.3,19,10.4,26.5,18.1c7.3,7.5,13,16.3,16.9,26
				c3.9,9.7,5.9,20,5.9,30.4c0,10.8-2.2,21.4-6.4,31.5s-10.4,19-18.1,26.5c-7.5,7.3-16.3,13-26,16.9c-9.7,3.9-20,5.9-30.4,5.9
				c-10.8,0-21.4-2.2-31.5-6.4c-1.4-0.6-2.7-1.2-4.1-1.9l-2.6,6.2c1.3,0.7,2.7,1.3,4.1,1.9c10.9,4.6,22.3,7,34.1,7
				c11.3,0,22.4-2.1,33-6.4c10.5-4.3,20-10.4,28.2-18.3c8.4-8.2,15-17.8,19.7-28.7C160.9,112.4,163.3,100.9,163.3,89.2z"/>
			<g>
				<path class="st0" d="M152.6,123.4c-0.8-0.3-1.2-1.3-0.8-2.1c0.3-0.8,1.3-1.2,2.1-0.8c0.8,0.3,1.2,1.3,0.8,2.1
					C154.3,123.4,153.4,123.8,152.6,123.4z"/>
				<path class="st0" d="M157.4,109.5c-0.8-0.2-1.4-1-1.2-1.9c0.2-0.8,1-1.4,1.9-1.2c0.8,0.2,1.4,1,1.2,1.9
					C159.1,109.2,158.3,109.7,157.4,109.5z"/>
				<circle class="st0" cx="159.8" cy="93.5" r="1.6"/>
				<path class="st0" d="M159.5,80.4c-0.9,0.1-1.6-0.5-1.8-1.4c-0.1-0.9,0.5-1.6,1.4-1.8c0.9-0.1,1.6,0.5,1.8,1.4
					C161,79.5,160.3,80.3,159.5,80.4z"/>
				<path class="st0" d="M156.7,66c-0.8,0.3-1.7-0.2-2-1c-0.3-0.8,0.2-1.7,1-2s1.7,0.2,2,1C158,64.8,157.5,65.7,156.7,66z"/>
				<ellipse transform="matrix(0.699 -0.7151 0.7151 0.699 9.0175 123.1025)" class="st0" cx="150.7" cy="50.8" rx="1.6" ry="1.6"/>
				
					<ellipse transform="matrix(7.581170e-02 -0.9971 0.9971 7.581170e-02 93.8488 178.0355)" class="st0" cx="143" cy="38.4" rx="1.6" ry="1.6"/>
				<path class="st0" d="M134.3,28.6c-0.6,0.6-1.6,0.7-2.2,0.1c-0.6-0.6-0.7-1.6-0.1-2.2c0.6-0.6,1.6-0.7,2.2-0.1
					C134.9,26.9,134.9,27.9,134.3,28.6z"/>
				<path class="st0" d="M122.9,19.3c-0.5,0.7-1.4,0.9-2.2,0.5c-0.7-0.5-0.9-1.4-0.5-2.2c0.5-0.7,1.4-0.9,2.2-0.5
					C123.2,17.6,123.4,18.6,122.9,19.3z"/>
				<path class="st0" d="M110.1,12.2c-0.3,0.8-1.3,1.2-2.1,0.8c-0.8-0.3-1.2-1.3-0.8-2.1c0.3-0.8,1.3-1.2,2.1-0.8
					C110,10.4,110.4,11.4,110.1,12.2z"/>
				<circle class="st0" cx="42.8" cy="166.6" r="1.6"/>
				<path class="st0" d="M58.3,171.5c0.2-0.8-0.3-1.7-1.2-1.9c-0.8-0.2-1.7,0.3-1.9,1.2c-0.2,0.8,0.3,1.7,1.2,1.9
					C57.3,172.9,58.1,172.3,58.3,171.5z"/>
				<circle class="st0" cx="71.3" cy="173.2" r="1.6"/>
				<path class="st0" d="M87.5,172.5c-0.1-0.9-0.9-1.5-1.8-1.4c-0.9,0.1-1.5,0.9-1.4,1.8c0.1,0.9,0.9,1.5,1.8,1.4
					C87,174.1,87.6,173.3,87.5,172.5z"/>
				
					<ellipse transform="matrix(0.5423 -0.8402 0.8402 0.5423 -96.5772 161.9215)" class="st0" cx="100.3" cy="169.6" rx="1.6" ry="1.6"/>
				<path class="st0" d="M115.3,163.4c-0.4-0.8-1.3-1.1-2.1-0.7c-0.8,0.4-1.1,1.3-0.7,2.1s1.3,1.1,2.1,0.7
					C115.4,165.1,115.7,164.2,115.3,163.4z"/>
				<path class="st0" d="M127.6,155.4c-0.5-0.7-1.5-0.8-2.2-0.3s-0.8,1.5-0.3,2.2c0.5,0.7,1.5,0.8,2.2,0.3
					C128,157.1,128.2,156.1,127.6,155.4z"/>
				<circle class="st0" cx="137.3" cy="146.5" r="1.6"/>
				<path class="st0" d="M147.2,133.6c-0.7-0.5-1.7-0.3-2.2,0.5c-0.5,0.7-0.3,1.7,0.5,2.2s1.7,0.3,2.2-0.5
					C148.1,135.1,147.9,134.1,147.2,133.6z"/>
			</g>
			<ellipse transform="matrix(0.6653 -0.7465 0.7465 0.6653 34.9402 84.8077)" class="st0" cx="112.1" cy="3.4" rx="3.4" ry="3.4"/>
			<ellipse transform="matrix(0.4146 -0.91 0.91 0.4146 -135.9458 138.0924)" class="st0" cx="39.4" cy="174.7" rx="3.4" ry="3.4"/>
		</g>
	</g>
	<g>
		<path class="st2" d="M27.5,104.8C27.6,104.8,27.6,104.8,27.5,104.8L27.5,104.8L27.5,104.8z"/>
		<path class="st3" d="M33.1,115.5c5.3,1.2,8.2-4.6,5-9.8c-3.6-5.7-9.2-4.1-10.5-0.9c0,0-0.2,1-0.3,1.5
			C27,109.2,28.5,114,33.1,115.5z"/>
		<path class="st4" d="M24.8,95.5c0.2,0.1,0.4,0.1,0.6,0.2c4.7,1.2,8.9-5.2,5.7-11.3c-2.7-5.1-8.5-4.4-10.1,1.2
			C20.1,88.6,20.8,93.6,24.8,95.5z"/>
		<path class="st5" d="M27.1,71.6L27.1,71.6c-1.3,2.9-1.3,8.1,2.9,10.1c0,0,0,0,0,0c0,0,0,0,0,0c0,0,0,0,0,0c0,0,0,0,0,0
			c0,0,0,0,0,0c0,0,0,0,0,0c0,0,0,0,0,0c0,0,0,0,0,0c0.8,0.2,1.9,0.6,3.7,0c5.6-1.9,7.4-11.3,1.3-14.2c0,0,0,0,0,0c0,0,0,0,0,0
			c0,0,0,0,0,0c0,0,0,0,0,0c0,0,0,0,0,0c0,0,0,0,0,0c0,0,0,0,0,0c0,0,0,0,0,0C30.8,66.2,28,69.6,27.1,71.6z"/>
		<path class="st6" d="M47.3,109.6C47.3,109.6,47.3,109.6,47.3,109.6C47.3,109.6,47.3,109.6,47.3,109.6
			C47.3,109.6,47.3,109.6,47.3,109.6C47.3,109.6,47.3,109.6,47.3,109.6C47.3,109.6,47.3,109.6,47.3,109.6
			C47.3,109.6,47.3,109.6,47.3,109.6C47.3,109.6,47.3,109.6,47.3,109.6C47.3,109.6,47.3,109.6,47.3,109.6c-5-1.5-7.3,1.6-7.7,3.4
			c-0.6,2.5,0.7,7.1,5.5,9.1c0.8,0.2,2.8,0.8,4.9-0.2C54.7,119.6,54,112.2,47.3,109.6z"/>
		<path class="st7" d="M68.5,69.7C68.5,69.7,68.5,69.7,68.5,69.7C68.5,69.7,68.5,69.7,68.5,69.7C68.5,69.7,68.5,69.7,68.5,69.7
			C68.4,69.7,68.4,69.7,68.5,69.7C68.4,69.7,68.4,69.7,68.5,69.7C68.4,69.7,68.4,69.7,68.5,69.7C68.4,69.7,68.4,69.7,68.5,69.7
			C68.4,69.7,68.4,69.7,68.5,69.7c-5.2-1.4-8.3,1.7-9.2,3.6c-1.9,3.8,0.2,8.5,4.5,10c0.9,0.3,3.1,0.9,5.7-0.3
			C74.9,80.4,75.3,72.4,68.5,69.7z"/>
		<path class="st8" d="M63.9,117C63.9,117,63.9,117,63.9,117C63.9,117,63.9,117,63.9,117C63.9,117,63.9,117,63.9,117
			C63.9,117,63.9,117,63.9,117C63.9,117,63.9,117,63.9,117C63.9,117,63.9,117,63.9,117C63.9,117,63.9,117,63.9,117
			C63.9,117,63.9,117,63.9,117c0.9,0.2,3,0.8,5.5-0.3c5.2-2.4,5.1-10.2-1.6-12.7c0,0,0,0,0,0c0,0,0,0,0,0c0,0,0,0,0,0c0,0,0,0,0,0
			c0,0,0,0,0,0c0,0,0,0,0,0c0,0,0,0,0,0c0,0,0,0,0,0c-5.2-1.4-8.1,1.8-8.9,3.6C57.6,110.7,59.1,115.2,63.9,117z"/>
		<path class="st9" d="M27.5,104.8c0,0,0.1-3.7-1.6-6.6c-2.6-4.4-7.2-4.2-8.4,0.3c-0.1,0.4-0.2,0.8-0.2,1.2c-0.3,3,1.2,7.8,4.9,9.1
			C24.6,109.4,26.4,108.1,27.5,104.8z"/>
		<path class="st2" d="M27.5,104.8C27.5,104.8,27.6,104.8,27.5,104.8C27.6,104.8,27.5,104.8,27.5,104.8
			C27.5,104.8,27.5,104.8,27.5,104.8z"/>
		<path class="st10" d="M70.5,104.5c6.1,1.9,11.5-3.7,9.2-9.5c-2.6-6.3-11.5-6.5-14-0.3C64.4,97.6,65.1,102.5,70.5,104.5z"/>
		<path class="st11" d="M46.2,65.3c-1.6,2.7-1.6,7.8,3.5,9.9c6.2,1.9,11.1-3.3,9.9-8.3C58.1,60.5,49.5,59.5,46.2,65.3z"/>
		<path class="st1" d="M35.4,58.3c-1.6,2.5-2.5,7.2,2,9.3c5.8,1.9,10.2-4.1,9.3-8.6C45.6,53.6,38.7,53.1,35.4,58.3z"/>
		<path class="st12" d="M65.8,121c-2.3-5.3-10.5-6-12.4-1c-1.3,3.3,0.9,7.3,4.8,8.5C64.4,130.2,67.6,125,65.8,121z"/>
		<path class="st13" d="M20,76.4c-2.1-3.6-6-2.3-7.5,2.5c-1.2,4-0.1,8.3,2.5,9.5c0.1,0,0.3,0.1,0.4,0.2C19.7,89.8,22.9,81.3,20,76.4
			z"/>
		<path class="st14" d="M77.7,90.4C77.7,90.4,77.7,90.4,77.7,90.4C77.7,90.4,77.7,90.4,77.7,90.4C77.7,90.4,77.7,90.4,77.7,90.4
			C77.7,90.4,77.7,90.4,77.7,90.4C77.7,90.4,77.7,90.4,77.7,90.4C77.7,90.4,77.7,90.4,77.7,90.4C77.7,90.4,77.7,90.4,77.7,90.4
			C77.7,90.4,77.7,90.4,77.7,90.4c7,1.8,10.7-4.6,8.8-9.2c-2.3-5.7-10.8-6-13.3-0.5l0,0C71.9,83.5,72.4,88.4,77.7,90.4z"/>
		<path class="st15" d="M25.3,61C25.3,61,25.3,61,25.3,61C25.3,61,25.3,61,25.3,61C25.3,61,25.3,61,25.3,61C25.3,61,25.3,61,25.3,61
			C25.3,61,25.3,61,25.3,61C25.3,61,25.3,61,25.3,61C25.3,61,25.3,61,25.3,61C25.3,61,25.3,61,25.3,61c-4-1.4-6.4,3.4-6.7,4
			c-1.2,2.6-1.9,7.5,1.5,9.3c0.4,0.2,1.3,0.5,2.5,0.1C27.3,73,30.1,63.5,25.3,61z"/>
		<path class="st2" d="M46.5,124.7c-3.1-3.9-9.3-4.4-9.9,0.2c-0.4,3.1,2,6.6,5.3,7.8c0.4,0.1,1,0.3,1.6,0.4
			C47.9,133.4,49.6,128.6,46.5,124.7z"/>
		<path class="st16" d="M33.1,117c-3.1-3.1-7.5-2.9-7.6,1.6c-0.1,2.2,1.3,6.4,5.2,8.2c0.4,0.1,0.9,0.3,1.4,0.3
			C36.4,127.3,37,120.9,33.1,117z"/>
		<path class="st2" d="M9.2,93.2c-0.3,2.7,0.6,7.3,3.4,8.8c0,0,0,0,0,0c0,0,0,0,0,0c0,0,0,0,0,0c0,0,0,0,0,0c0,0,0,0,0,0
			c0,0,0,0,0,0c0,0,0,0,0,0c0,0,0,0,0,0c0.2,0.1,0.5,0.2,0.8,0.2c3.8,0.4,4.8-8,1.5-12.1C12.5,87.2,9.6,88.8,9.2,93.2z"/>
		<path class="st2" d="M20.8,120.7c0.3,0.1,0.7,0.3,1.2,0.2c3.3-0.1,3.6-7-0.4-11c-2.8-2.8-5.7-1.6-5.6,2.4
			C16.1,115.8,18.4,119.7,20.8,120.7z"/>
		<path class="st17" d="M54.9,53.6c-1.6,2.4-1.7,6.7,2.9,8.7c5.1,1.8,10.5-2.5,9.5-7.4C66.1,49.3,58.2,48.5,54.9,53.6z"/>
		<path class="st7" d="M86.2,115.1c-2.4-5.7-10.7-5-12.9-0.1c-1.1,2.5-0.5,6.7,4.3,8.4C83,125,88.2,119.9,86.2,115.1z"/>
		<path class="st17" d="M84.8,111.2c6.2,1.5,10.5-4,8.8-8.8c-2.3-6.4-10.5-5.7-13.1-0.4C78.7,105.6,80.7,110,84.8,111.2z"/>
		<path class="st18" d="M67.5,60.6c-1.7,2.9-0.7,7.2,3.8,9c0,0,0,0,0,0c0,0,0,0,0,0c0,0,0,0,0,0c0,0,0,0,0,0c0,0,0,0,0,0
			c0,0,0,0,0,0c0,0,0,0,0,0c0,0,0,0,0,0c5.9,1.6,10.1-3.1,8.8-7.7C78.5,55.6,70.3,55.7,67.5,60.6z"/>
		<path class="st3" d="M59.7,132.1c-2.4-4.6-9.5-5.1-10.7-0.8c-0.6,2.1,0.7,5.7,4.6,7.2c0,0,0,0,0,0c0,0,0,0,0,0c0,0,0,0,0,0
			c0,0,0,0,0,0c0,0,0,0,0,0c0,0,0,0,0,0c0,0,0,0,0,0c0,0,0,0,0,0C58.3,139.8,61.8,136.1,59.7,132.1z"/>
		<path class="st19" d="M26.9,52.1c-1.6,2.4-2.6,6.7,0.6,8.4c3.7,1.6,9.4-3.4,8.7-8.7C35.5,46.9,29.8,47.8,26.9,52.1z"/>
		<path class="st10" d="M44.7,46.7c-1.8,2.3-2.5,6.3,1.4,8c0,0,0,0,0,0c0,0,0,0,0,0c0,0,0,0,0,0c0,0,0,0,0,0c0,0,0,0,0,0
			c0,0,0,0,0,0c0,0,0,0,0,0c0,0,0,0,0,0c0.6,0.2,2.1,0.7,4.2,0c5.5-1.8,7.1-8.7,2.4-10.8c0,0,0,0,0,0c0,0,0,0,0,0c0,0,0,0,0,0
			c0,0,0,0,0,0c0,0,0,0,0,0c0,0,0,0,0,0c0,0,0,0,0,0c0,0,0,0,0,0C49,42.7,45.9,45.2,44.7,46.7z"/>
		<path class="st4" d="M70.8,134.3c5.6,1.4,9.6-3,8-7c-1.9-4.8-9.7-5.1-11.9-0.6C65.5,129.7,67.4,133.3,70.8,134.3z"/>
		<path class="st16" d="M100.2,88c-2.4-5.4-10.1-5.3-12.3,0.1l0,0c-1.1,2.6-0.8,7.3,4.3,9.1C98,98.9,102.3,92.8,100.2,88z"/>
		<path class="st20" d="M40,133.3C40,133.3,40,133.3,40,133.3C40,133.3,40,133.3,40,133.3C40,133.3,40,133.3,40,133.3
			C40,133.3,40,133.3,40,133.3C40,133.3,40,133.3,40,133.3C40,133.3,40,133.3,40,133.3C40,133.3,40,133.3,40,133.3
			C40,133.3,40,133.3,40,133.3c-3.6-1.1-4.4,1.1-4.3,2.5v0c0.1,1.7,1.5,4.9,4.9,6.3c1.3,0.5,2.2,0.3,2.7,0.1
			C46.1,140.9,45.3,135.4,40,133.3z"/>
		<path class="st21" d="M31,136.7c0.4,0.2,0.9,0.3,1.4,0.2c2.9-0.3,2.2-6.3-1.9-9.2c-2.6-1.8-5.2-1.3-4.6,2.2
			C26.2,131.8,27.9,135.3,31,136.7z"/>
		<path class="st22" d="M12.6,114.5c0.3,0.1,0.6,0.2,0.9,0.2c2.9-0.3,1.9-8.9-1.4-11.7c-2.1-1.8-3.7-0.2-3.4,3.4
			C8.9,109.9,10.7,113.6,12.6,114.5z"/>
		<path class="st23" d="M81.1,67.8c-1.3,3-0.2,7,4.3,8.7c6.1,1.6,9.4-3.9,7.9-8C91.4,62.9,83.4,62.5,81.1,67.8z"/>
		<path class="st24" d="M18.1,55.2C18.1,55.2,18.1,55.2,18.1,55.2C18.1,55.2,18.1,55.2,18.1,55.2C18.1,55.2,18.1,55.2,18.1,55.2
			C18.1,55.2,18.1,55.2,18.1,55.2C18.1,55.2,18.1,55.2,18.1,55.2C18.1,55.2,18.1,55.2,18.1,55.2C18.1,55.2,18.1,55.2,18.1,55.2
			C18.1,55.2,18.1,55.2,18.1,55.2c-2.8-1.1-5.1,3.3-5.4,3.8c-1.2,2.4-2.3,6.9,0,8.4c0,0,0,0,0,0c0,0,0,0,0,0c0,0,0,0,0,0
			c0,0,0,0,0,0c0,0,0,0,0,0c0,0,0,0,0,0c0,0,0,0,0,0c0,0,0,0,0,0c0.4,0.2,0.7,0.3,1.4,0.1C17.8,66.6,21.5,57.4,18.1,55.2z"/>
		<path class="st2" d="M11.9,69.8c-1.4-2.7-4-1.1-5.3,3.3c-0.8,2.6-1.1,7.1,1.1,8.6c0,0,0,0,0,0c0,0,0,0,0,0c0,0,0,0,0,0
			c0,0,0,0,0,0c0,0,0,0,0,0c0,0,0,0,0,0c0,0,0,0,0,0s0,0,0,0c0.1,0,0.2,0.1,0.3,0.1C11.2,82.7,14,73.9,11.9,69.8z"/>
		<path class="st7" d="M6.9,83.1c-1.5-1.6-3.1,0.3-3.4,4c-0.2,2.4,0.1,6.8,2.1,8.2c0,0,0,0,0,0c0,0,0,0,0,0c0,0,0,0,0,0c0,0,0,0,0,0
			c0,0,0,0,0,0c0,0,0,0,0,0c0,0,0,0,0,0c0,0,0,0,0,0c0.1,0.1,0.3,0.1,0.5,0.1C8.9,95.6,9.5,86,6.9,83.1z"/>
		<path class="st25" d="M22.3,131.5C22.3,131.5,22.3,131.5,22.3,131.5C22.3,131.5,22.3,131.5,22.3,131.5
			C22.3,131.5,22.3,131.5,22.3,131.5C22.3,131.5,22.3,131.5,22.3,131.5C22.3,131.5,22.3,131.5,22.3,131.5
			C22.3,131.5,22.3,131.5,22.3,131.5C22.3,131.5,22.3,131.5,22.3,131.5c0.4,0.1,0.7,0.3,1.1,0.2c2.4-0.6,0.4-8-3.5-10.2
			c-2.1-1.2-3.3,0.2-2.6,3.2C17.9,126.7,19.8,130.3,22.3,131.5C22.3,131.5,22.3,131.5,22.3,131.5z"/>
		<path class="st16" d="M36.7,48c1.3,0.6,2.8,0.2,3.5-0.1c4.5-1.6,7.6-7.8,3.8-9.8c0,0,0,0,0,0c0,0,0,0,0,0c0,0,0,0,0,0c0,0,0,0,0,0
			c0,0,0,0,0,0c0,0,0,0,0,0c0,0,0,0,0,0c0,0,0,0,0,0c-3.7-1.3-7.1,2.6-7.2,2.7v0C35,42.9,33.8,46.5,36.7,48z"/>
		<path class="st11" d="M64.8,143.7c0.6,0.2,2.4,0.6,4.3-0.3c3.8-1.7,3.8-6.6-1.1-8.3c0,0,0,0,0,0c0,0,0,0,0,0c0,0,0,0,0,0
			c0,0,0,0,0,0c0,0,0,0,0,0c0,0,0,0,0,0c0,0,0,0,0,0c0,0,0,0,0,0c-4-1-6.1,1.1-6.7,2.4C60.3,139.8,61.9,142.7,64.8,143.7z"/>
		<path class="st16" d="M90.4,129.4c4.9,1.1,9.7-3.1,8.4-7.3c-1.5-4.7-8.8-4.9-11.5-0.2C85.6,124.8,87.1,128.4,90.4,129.4z"/>
		<path class="st8" d="M50.5,147c0.2,0.1,0.6,0.2,0.8,0.2c3.1,0.5,5.4-2.5,3.3-5.6c-2.4-3.5-7.7-3.6-8.2-0.2
			C46.1,143.4,48,146.1,50.5,147z"/>
		<path class="st26" d="M64.3,42.5c-2.2,2.7-1.2,6.3,2.1,7.4c4.6,1.4,8.8-2,8.5-5.6C74.7,38.9,67.6,38.5,64.3,42.5z"/>
		<path class="st27" d="M78.9,56.6c4.5,1.5,8.9-2.4,7.6-6.7c-1.5-5.1-8.3-5-10.8-0.9v0C74.3,51.5,75.1,55.1,78.9,56.6z"/>
		<path class="st9" d="M21.1,46.5c-2.2,3-2.6,6.5-0.8,7.4c3.5,1.3,8.5-5,7.9-8.9C27.8,41.6,23.7,43,21.1,46.5z"/>
		<path class="st26" d="M101.7,70.9C101.7,70.9,101.7,70.9,101.7,70.9C101.7,70.9,101.7,70.9,101.7,70.9
			C101.7,70.9,101.7,70.9,101.7,70.9C101.7,70.9,101.7,70.9,101.7,70.9C101.7,70.9,101.7,70.9,101.7,70.9
			C101.7,70.9,101.7,70.9,101.7,70.9C101.7,70.9,101.7,70.9,101.7,70.9C101.7,70.9,101.7,70.9,101.7,70.9c-4.1-1-6.5,1.9-7.1,3.6
			c-1.3,3.4,0.7,7.4,4.3,8.4c0.7,0.2,2.3,0.5,4.1-0.4C108.1,80.1,107.3,72.8,101.7,70.9z"/>
		<path class="st27" d="M106.4,108.8c-2-5.5-9.4-4.5-11.6,0.3l0,0c-1.1,2.5-0.8,6.6,3.5,8.1C103.9,118.4,107.9,113.1,106.4,108.8z"
			/>
		<path class="st22" d="M82.6,139.5C82.6,139.5,82.6,139.5,82.6,139.5C82.6,139.5,82.6,139.5,82.6,139.5
			C82.7,139.5,82.7,139.5,82.6,139.5C82.7,139.5,82.7,139.5,82.6,139.5C82.7,139.5,82.7,139.5,82.6,139.5
			C82.7,139.5,82.7,139.5,82.6,139.5C82.7,139.5,82.7,139.5,82.6,139.5c4.6,1.1,8.7-2.5,8.1-5.8c-0.8-4.4-8.3-4.8-10.8-0.6h0
			C78.8,135,78.9,138.2,82.6,139.5C82.6,139.5,82.6,139.5,82.6,139.5z"/>
		<path class="st14" d="M54.9,36.6c-1.8,1.9-2.8,5.2,0.6,6.7c0,0,0,0,0,0c0,0,0,0,0,0c0,0,0,0,0,0c0,0,0,0,0,0c0,0,0,0,0,0
			c0,0,0,0,0,0s0,0,0,0c0,0,0,0,0,0c4.2,1.3,8.7-2.1,8.8-5.5C64.4,33.6,58.5,32.9,54.9,36.6z"/>
		<path class="st28" d="M4.7,97.1C4.7,97.1,4.7,97.1,4.7,97.1C4.7,97.1,4.7,97.1,4.7,97.1C4.7,97.1,4.7,97.1,4.7,97.1
			C4.7,97.1,4.7,97.1,4.7,97.1C4.7,97.1,4.7,97.1,4.7,97.1C4.7,97.1,4.7,97.1,4.7,97.1C4.7,97.1,4.7,97.1,4.7,97.1
			C4.7,97.1,4.7,97.1,4.7,97.1c-1.6-0.7-1.7,2.3-1.5,4.2c0.2,2.3,1.2,6.3,2.9,7.4c0,0,0,0,0,0c0,0,0,0,0,0c0,0,0,0,0,0c0,0,0,0,0,0
			c0,0,0,0,0,0c0,0,0,0,0,0c0,0,0,0,0,0c0,0,0,0,0,0c0.2,0.1,0.4,0.2,0.6,0.1C8.4,108.3,7.4,99,4.7,97.1z"/>
		<path class="st29" d="M14.9,126.3c0.2,0.1,0.4,0.2,0.6,0.1c2.2-0.4-1.1-9.2-3.9-10.6c-1.4-0.7-1.9,0.9-1.1,3.7
			C11.3,122,13.1,125.3,14.9,126.3z"/>
		<path class="st16" d="M94.7,52.4C94.7,52.4,94.7,52.4,94.7,52.4C94.7,52.4,94.7,52.4,94.7,52.4C94.7,52.4,94.7,52.4,94.7,52.4
			C94.7,52.4,94.7,52.4,94.7,52.4C94.7,52.4,94.7,52.4,94.7,52.4C94.7,52.4,94.7,52.4,94.7,52.4C94.7,52.4,94.7,52.4,94.7,52.4
			C94.7,52.4,94.7,52.4,94.7,52.4c-4.6-1.2-6.3,2.5-6.5,2.9c-0.9,2.2-0.7,6,3.7,7.6c0.7,0.2,2.2,0.6,3.8-0.1
			C99.9,61,100,54.3,94.7,52.4z"/>
		<path class="st3" d="M113.1,94.6c-1.9-4.9-8.8-4.7-10.8,0.4v0c-1.4,3.6,0.2,7.4,3.6,8.3C111.6,104.6,114.6,98.6,113.1,94.6z"/>
		<path class="st30" d="M30.1,41.9c3.5,1.3,8.7-4.2,8.6-7.2c-0.1-2.6-3.9-2.1-7,0.8C29.8,37.4,28,40.6,30.1,41.9z"/>
		<path class="st28" d="M28.5,140.3c0.6,1.5,2.6,4.3,4.8,5.3c0.3,0.1,0.7,0.2,1.1,0.1c1.6-0.7-0.6-6.1-4.3-7.8c0,0,0,0,0,0
			c0,0,0,0,0,0c0,0,0,0,0,0c0,0,0,0,0,0c0,0,0,0,0,0c0,0,0,0,0,0c0,0,0,0,0,0c0,0,0,0,0,0C27.9,137.1,28,138.9,28.5,140.3
			L28.5,140.3z"/>
		<path class="st31" d="M39.2,142.8C39.2,142.8,39.2,142.8,39.2,142.8C39.2,142.8,39.2,142.8,39.2,142.8
			C39.2,142.8,39.2,142.8,39.2,142.8C39.2,142.8,39.2,142.8,39.2,142.8C39.2,142.8,39.2,142.8,39.2,142.8
			C39.2,142.8,39.2,142.8,39.2,142.8C39.2,142.8,39.2,142.8,39.2,142.8C39.2,142.8,39.2,142.8,39.2,142.8c-2.5-0.8-2.9,0.8-2.5,2
			c0.4,1.4,2,3.8,4.4,4.8c0.4,0.1,1,0.3,1.5,0.1C44.6,149,43.2,144.5,39.2,142.8z"/>
		<path class="st17" d="M62.3,144.6C62.3,144.6,62.3,144.6,62.3,144.6C62.3,144.6,62.3,144.6,62.3,144.6
			C62.3,144.6,62.3,144.6,62.3,144.6C62.3,144.6,62.3,144.6,62.3,144.6C62.3,144.6,62.3,144.6,62.3,144.6
			C62.3,144.6,62.3,144.6,62.3,144.6C62.3,144.6,62.3,144.6,62.3,144.6C62.3,144.6,62.3,144.6,62.3,144.6c-3.3-0.9-4.9,0.8-5.3,1.9
			c-0.5,1.3,0.1,3.7,2.9,4.7c1.1,0.3,2.4,0.3,3.4-0.2C66.2,149.7,66.2,146.1,62.3,144.6z"/>
		<path class="st14" d="M3.5,67.4c-0.7,2.4-1.5,6.5-0.3,7.7c0.1,0,0.1,0.1,0.2,0.1c1.9,0.6,4.8-9.2,3.5-11.7
			C6.1,62.1,4.6,63.9,3.5,67.4z"/>
		<path class="st3" d="M9.4,53.9L9.4,53.9C8.2,56.2,7,60,8.2,61.1c0,0,0,0,0,0c0,0,0,0,0,0s0,0,0,0c0,0,0,0,0,0c0,0,0,0,0,0
			c0,0,0,0,0,0c0,0,0,0,0,0c0,0,0,0,0,0c2,1.1,6.7-7.3,5.7-10.4C13.3,49,11.2,50.6,9.4,53.9z"/>
		<path class="st32" d="M1.1,89.5c1.6,0.4,2.5-9.7,1-11.7c-0.7-0.9-1.5,1.1-1.9,4.3C0,84.6,0.1,88.5,1,89.5
			C1.1,89.5,1.1,89.5,1.1,89.5z"/>
		<path class="st33" d="M48.1,31c-1.9,1.6-3.5,4.5-0.9,5.9c3.6,1.2,8.5-2.5,8.7-5.7C56.1,28,51.4,28.3,48.1,31z"/>
		<path class="st5" d="M82,143.3c-0.8-3.5-7-3.9-9.3-0.6c-1.4,2-0.4,4.6,2.1,5.3C78.9,149,82.6,146,82,143.3z"/>
		<path class="st34" d="M26.2,141.3C26.2,141.3,26.2,141.3,26.2,141.3C26.2,141.3,26.2,141.3,26.2,141.3
			C26.2,141.3,26.2,141.3,26.2,141.3C26.2,141.3,26.2,141.3,26.2,141.3C26.2,141.3,26.2,141.3,26.2,141.3
			C26.2,141.3,26.2,141.3,26.2,141.3C26.2,141.3,26.2,141.3,26.2,141.3C26.2,141.3,26.2,141.3,26.2,141.3c0.2,0.1,0.5,0.2,0.7,0.1
			c1.6-0.8-2.8-7.9-5.2-8.5c-1.1-0.3-1.3,0.9-0.4,2.9C22.2,137.7,24.5,140.5,26.2,141.3z"/>
		<path class="st18" d="M18.1,41.7c-1.8,2.3-3.2,5.4-2,6.3c2,1.2,7.6-5.5,7.3-8.6C23.1,37.4,20.2,39,18.1,41.7z"/>
		<path class="st3" d="M50.7,149.2c-2-1.9-5.3-2-5.2,0.4l0,0c0.1,1.1,1.2,3.2,3.4,4c0.3,0.1,0.7,0.2,1.1,0.2
			C52.2,153.7,52.9,151.2,50.7,149.2z"/>
		<path class="st33" d="M115.9,88.3c3.9-2.2,3.7-9.2-1.4-10.9c0,0,0,0,0,0s0,0,0,0c0,0,0,0,0,0c0,0,0,0,0,0c0,0,0,0,0,0c0,0,0,0,0,0
			c0,0,0,0,0,0c0,0,0,0,0,0c-3.7-0.8-5.6,2.1-6,3.7c-0.7,2.4,0,6.4,3.9,7.6C114,89.2,115.3,88.7,115.9,88.3z"/>
		<path class="st1" d="M101,61.7c-0.7,2.2,0.1,6,3.9,7.3c4.3,1.2,7.4-3.3,5.1-7.6C107.6,56.8,102.3,57.7,101,61.7z"/>
		<path class="st35" d="M5.9,111.1c-0.9-0.5-0.9,1.2-0.1,3.7c0.6,2.1,2.1,5.5,3.4,6.5c0.1,0,0.2,0.1,0.3,0.1
			C10.9,121.3,7.8,112.2,5.9,111.1z"/>
		<path class="st14" d="M102.2,134.2C102.2,134.2,102.2,134.2,102.2,134.2C102.2,134.2,102.2,134.2,102.2,134.2
			C102.2,134.2,102.2,134.2,102.2,134.2C102.2,134.2,102.2,134.2,102.2,134.2C102.2,134.2,102.2,134.2,102.2,134.2
			C102.2,134.2,102.2,134.2,102.2,134.2C102.2,134.2,102.2,134.2,102.2,134.2c4.8,1,8.4-3.5,7.7-6.5c-0.8-3.6-7-3.9-9.7,0.4
			C99.1,129.9,98.7,133.1,102.2,134.2C102.2,134.2,102.2,134.2,102.2,134.2z"/>
		<path class="st2" d="M73.8,33L73.8,33c-1.6,1.8-1.7,4.5,1.4,5.7c4.2,1.2,7.3-2.1,7-4.8C81.8,30.4,76.5,29.9,73.8,33z"/>
		<path class="st22" d="M83.6,38.6c-1,1.7-1.2,4.7,2.4,6c4.4,1.2,6.8-2.5,6-5.4C91,35.4,85.7,35.1,83.6,38.6z"/>
		<path class="st35" d="M1.8,103.3C1.8,103.3,1.8,103.3,1.8,103.3C1.8,103.3,1.8,103.3,1.8,103.3C1.8,103.3,1.8,103.3,1.8,103.3
			C1.8,103.3,1.8,103.3,1.8,103.3C1.8,103.3,1.8,103.3,1.8,103.3C1.8,103.3,1.8,103.3,1.8,103.3C1.8,103.3,1.8,103.3,1.8,103.3
			c0,0,0.1,0.1,0.2,0.1c0.7-0.2,0-9.4-1.4-10.9c0,0,0,0,0,0c0,0,0,0,0,0c0,0,0,0,0,0c0,0,0,0,0,0c0,0,0,0,0,0c0,0,0,0,0,0
			c0,0,0,0,0,0c0,0,0,0,0,0c-0.6-0.4-0.7,1.8-0.4,4C0.3,98.8,1,102.4,1.8,103.3C1.8,103.3,1.8,103.3,1.8,103.3z"/>
		<path class="st30" d="M114.8,121.7c3.7-2.1,5.1-8.2,0.2-9.7c0,0,0,0,0,0c0,0,0,0,0,0c0,0,0,0,0,0c0,0,0,0,0,0c0,0,0,0,0,0
			c0,0,0,0,0,0s0,0,0,0c0,0,0,0,0,0c-4.4-0.8-6.5,3.1-6.7,3.6c-1,2.1-1.2,5.7,2.5,6.8C111.6,122.5,113.1,122.7,114.8,121.7z"/>
		<path class="st27" d="M92.9,144.1c0.6,0.1,2.3,0.5,4.5-0.7c3.3-1.7,4.8-5.7,0.7-7c0,0,0,0,0,0c0,0,0,0,0,0c0,0,0,0,0,0
			c0,0,0,0,0,0c0,0,0,0,0,0c0,0,0,0,0,0c0,0,0,0,0,0c0,0,0,0,0,0c-3.3-0.7-5.7,1.2-6.6,2.4C89.8,141,90.4,143.5,92.9,144.1z"/>
		<path class="st10" d="M68.1,154.8c2.8,0.8,6.2-1.1,5.9-3.2c-0.4-2.8-5.7-3.2-7.5-0.6C65.8,152.1,65.8,154,68.1,154.8z"/>
		<path class="st7" d="M65.5,28c-1.5,1.3-2.8,3.8,0,5.1c3.7,1.2,7.3-1.8,7.6-4.2C73.5,25.7,68.8,25.2,65.5,28z"/>
		<path class="st8" d="M41.3,31.5C41.3,31.5,41.3,31.5,41.3,31.5C41.3,31.5,41.3,31.5,41.3,31.5C41.3,31.5,41.3,31.5,41.3,31.5
			C41.3,31.5,41.3,31.5,41.3,31.5C41.3,31.5,41.3,31.5,41.3,31.5C41.3,31.5,41.3,31.5,41.3,31.5C41.3,31.5,41.3,31.5,41.3,31.5
			C41.3,31.5,41.3,31.5,41.3,31.5c0.4,0.1,0.9,0.3,2.1,0.1c3.6-0.8,8.1-5.4,5.9-6.7c0,0,0,0,0,0c0,0,0,0,0,0c0,0,0,0,0,0
			c0,0,0,0,0,0c0,0,0,0,0,0c0,0,0,0,0,0c0,0,0,0,0,0c0,0,0,0,0,0c-1.8-0.7-4.6,0.8-5.9,1.7C41.5,28,39.5,30.4,41.3,31.5z"/>
		<path class="st23" d="M124.5,100.2c-2-4.2-7.1-2.8-8.8,1.3l0,0c-0.9,2.4-0.5,6.2,2.8,7.3C122.6,109.7,126.4,104.3,124.5,100.2z"/>
		<path class="st2" d="M26,36.4c2.3,1,8-4.4,8.1-6.8c0-1.7-2.9-0.5-5.4,1.5C26.6,33,25,35.6,26,36.4z"/>
		<path class="st26" d="M94.4,44.2c-0.9,2.4,0.6,5.3,3.1,6.1c3.9,1,6.1-2.5,4.8-5.8C100.6,40.3,95.7,40.7,94.4,44.2z"/>
		<path class="st25" d="M59.5,154c-1.1-2.3-5.2-2.5-5.7-0.4c-0.2,0.9,0.3,2.5,2.2,3.2c0,0,0,0,0,0c0,0,0,0,0,0c0,0,0,0,0,0
			c0,0,0,0,0,0c0,0,0,0,0,0c0,0,0,0,0,0c0,0,0,0,0,0c0,0,0,0,0,0C58.4,157.5,60.5,155.8,59.5,154z"/>
		<path class="st28" d="M58.4,27.9c3.1,1,7.6-2.1,7.9-4.2c0.3-2.3-3.8-2-6.7,0C57.2,25.2,56.7,27.2,58.4,27.9z"/>
		<path class="st32" d="M84.2,151.9c3.5,0.7,7.3-1.9,7.1-4.1c-0.3-2.5-5.3-2.9-8,0C82.2,149,81.6,151.1,84.2,151.9z"/>
		<path class="st32" d="M38.3,152.7c0.6-0.6-3.2-5.3-5.1-5.6c-0.7-0.1-0.6,0.7,0.3,1.9c1,1.3,2.9,3,4.3,3.7
			C37.9,152.8,38.1,152.9,38.3,152.7z"/>
		<path class="st34" d="M113.5,67.7c-0.4,2.1,0.2,5.5,3.7,6.7c4.6,0.9,5.9-4.4,3.7-7.7C118.7,63.2,114.3,63.8,113.5,67.7L113.5,67.7
			z"/>
		<path class="st32" d="M6.9,55.2c0.9,0.3,5.4-7.9,5.1-9.2c-0.2-0.8-1.5,1.1-2.8,3.2C8.1,51.1,6.5,54.4,6.9,55.2
			C6.9,55.2,6.9,55.2,6.9,55.2z"/>
		<path class="st20" d="M10,124.3C10,124.3,10,124.3,10,124.3C10,124.3,10,124.3,10,124.3C10,124.3,10,124.3,10,124.3
			C10,124.3,10,124.3,10,124.3C10,124.3,10,124.3,10,124.3C10,124.3,10,124.3,10,124.3C9.9,124.3,9.9,124.3,10,124.3
			C9.9,124.3,9.9,124.3,10,124.3c0,0-0.1,0-0.1-0.1c-0.5-0.1,0,1.2,1,3.2c1.1,2,2.8,4.6,3.7,5.3c0,0,0.1,0.1,0.2,0.1
			C15.3,132.6,11.6,125.5,10,124.3z"/>
		<path class="st32" d="M40.2,151c-0.9-0.2-1.1,0.5-0.4,1.5v0c0.7,1.1,2.3,2.6,3.7,3.1c0.4,0.1,0.6,0.1,0.8,0
			C45.2,155,42.4,151.3,40.2,151z"/>
		<path class="st4" d="M26.6,143.4c-0.5,0-0.1,0.9,1,2.3c1.2,1.4,3.3,3.3,4.5,3.9c0.2,0.1,0.3,0.1,0.3,0
			C32.7,149.1,28.1,143.4,26.6,143.4z"/>
		<path class="st32" d="M121.6,87.3c-0.6,2.2,0,5.7,3.1,6.7c0,0,0,0,0,0c0,0,0,0,0,0c0,0,0,0,0,0c0,0,0,0,0,0c0,0,0,0,0,0
			c0,0,0,0,0,0c0,0,0,0,0,0c0,0,0,0,0,0c0.6,0.1,1.4,0.2,2.5-0.3c3.4-1.8,3.5-8.5-0.8-9.8c0,0,0,0,0,0c0,0,0,0,0,0c0,0,0,0,0,0
			c0,0,0,0,0,0c0,0,0,0,0,0c0,0,0,0,0,0c0,0,0,0,0,0c0,0,0,0,0,0C123.5,83.2,122.1,85.7,121.6,87.3z"/>
		<path class="st2" d="M109.1,55.6c0.1,0,0.5,0.1,0.5,0.1c3.3,0.5,4.9-3.6,2.6-6.8c-2.3-3.3-5.9-2.3-6.6,0.9
			C105.3,51.6,106.2,54.6,109.1,55.6z"/>
		<path class="st36" d="M14.6,42.8c0.5,0.2,2.2-1.4,3.8-3.4c1.2-1.5,2.8-3.9,2.5-4.5c0,0,0,0,0,0c0,0,0,0,0,0c0,0,0,0,0,0
			c0,0,0,0,0,0c0,0,0,0,0,0c0,0,0,0,0,0c0,0,0,0,0,0c0,0,0,0,0,0c-0.6-0.4-2.5,1.7-3.5,2.8C16,39.3,14.2,42,14.6,42.8
			C14.6,42.7,14.6,42.8,14.6,42.8z"/>
		<path class="st15" d="M49.1,158.3C49.1,158.3,49.1,158.3,49.1,158.3C49.1,158.3,49.1,158.3,49.1,158.3
			C49.1,158.3,49.1,158.3,49.1,158.3C49.1,158.3,49.1,158.3,49.1,158.3C49.1,158.3,49.1,158.3,49.1,158.3
			C49.1,158.3,49.1,158.3,49.1,158.3C49.1,158.3,49.1,158.3,49.1,158.3C49.1,158.3,49.1,158.3,49.1,158.3c0.2,0.1,0.6,0.2,1,0
			c1-0.5,0.1-2.6-1.9-3.5c-1.3-0.6-2.2-0.1-1.8,1C46.6,156.6,47.8,157.8,49.1,158.3z"/>
		<path class="st32" d="M37.9,26.6c1.6,0.9,7.8-2.9,8.1-4.9c0.2-1.3-2.7-0.5-5.2,1C38.6,24.1,37,26,37.9,26.6z"/>
		<path class="st37" d="M112.3,138.2c3.4,0.5,7-3,6.8-5.7c-0.3-3.1-5.2-2.6-7.6,0.8l0,0C110.4,134.7,109.6,137.4,112.3,138.2z"/>
		<path class="st20" d="M82.5,25.3c-1.4,1.5-1,3.3,0.8,3.9c3,0.9,5.4-1.6,5.2-3.6C88.3,23,84.4,23.2,82.5,25.3z"/>
		<path class="st33" d="M56,19.6c-2.1,1.1-3.6,2.7-2.3,3.4c0,0,0,0,0,0s0,0,0,0c0,0,0,0,0,0c0,0,0,0,0,0c0,0,0,0,0,0c0,0,0,0,0,0
			c0,0,0,0,0,0c0,0,0,0,0,0c2.4,0.9,7.4-2,7.9-3.7C62,17.8,58.7,18.2,56,19.6L56,19.6z"/>
		<path class="st33" d="M62.5,159.6c1.9,0.5,4.3-0.5,4.3-1.8c0-1.8-3.8-2.3-5.2-0.6C60.9,157.9,61.1,159.1,62.5,159.6z"/>
		<path class="st2" d="M90.5,29.6c-0.7,1.2-0.9,3.4,1.7,4.3c0,0,0,0,0,0c0,0,0,0,0,0s0,0,0,0c0,0,0,0,0,0c0,0,0,0,0,0c0,0,0,0,0,0
			c0,0,0,0,0,0c0,0,0,0,0,0c3.1,0.8,4.7-1.9,4.1-4C95.6,27.3,92,27.1,90.5,29.6z"/>
		<path class="st32" d="M21.1,139.8c-0.2,0.4,1.2,2,1.6,2.4c1.4,1.6,3.4,3.5,4.2,4c0.1,0.1,0.2,0.1,0.2,0
			C26.9,145.6,21.8,139.4,21.1,139.8z"/>
		<path class="st7" d="M75.4,155c-0.9,0.8-1.6,2.3,0.4,2.9c2.3,0.6,5.9-1,6-2.7C81.8,153.5,77.7,153,75.4,155z"/>
		<path class="st22" d="M121.8,126.6c3.4,0.7,6.8-3.8,6-6.8c-0.8-2.9-5.2-2.6-7.3,1.3C119.5,122.9,119.1,125.8,121.8,126.6z"/>
		<path class="st23" d="M102,143.8c-1.6,1.8-1.4,3.5,0.4,3.9c3.2,0.6,6.9-2.3,6.9-4.5C109.2,140.8,104.6,140.8,102,143.8z"/>
		<path class="st32" d="M24.8,31.6C24.8,31.6,24.8,31.6,24.8,31.6C24.8,31.6,24.8,31.6,24.8,31.6C24.8,31.6,24.8,31.6,24.8,31.6
			C24.8,31.6,24.8,31.6,24.8,31.6C24.8,31.6,24.8,31.6,24.8,31.6C24.8,31.6,24.8,31.6,24.8,31.6C24.8,31.6,24.8,31.6,24.8,31.6
			C24.9,31.6,24.9,31.6,24.8,31.6c0.6,0.2,2.4-0.8,4.2-2.5c0.3-0.3,3.2-2.9,2.8-3.6c0,0,0,0,0,0c0,0,0,0,0,0c0,0,0,0,0,0s0,0,0,0
			c0,0,0,0,0,0c0,0,0,0,0,0s0,0,0,0c0,0,0,0,0,0c-0.6-0.3-2.7,1.2-3.8,2C26.5,28.9,24.4,31,24.8,31.6C24.8,31.6,24.8,31.6,24.8,31.6
			z"/>
		<path class="st18" d="M75.8,24.6C75.8,24.6,75.8,24.6,75.8,24.6C75.8,24.6,75.8,24.6,75.8,24.6C75.8,24.6,75.8,24.6,75.8,24.6
			C75.8,24.6,75.8,24.6,75.8,24.6C75.8,24.6,75.8,24.6,75.8,24.6C75.9,24.6,75.9,24.6,75.8,24.6C75.9,24.6,75.9,24.6,75.8,24.6
			C75.9,24.6,75.9,24.6,75.8,24.6c2.8,0.9,5.7-1.5,6-3.1c0.3-2-3.2-2-5.5-0.3C75,22.1,73.8,23.7,75.8,24.6z"/>
		<path class="st30" d="M120.5,60.9c0.1,0,0.2,0.1,0.4,0.1c3,0.4,3.9-3.9,1.4-6.9c-2.2-2.6-4.9-1.4-5.2,1.4
			C116.9,57.2,117.9,60.1,120.5,60.9z"/>
		<path class="st2" d="M128.9,79.6C128.9,79.6,128.9,79.6,128.9,79.6C128.9,79.6,128.9,79.6,128.9,79.6
			C128.9,79.6,128.9,79.6,128.9,79.6C128.9,79.6,128.9,79.6,128.9,79.6C128.9,79.6,128.9,79.6,128.9,79.6
			C128.9,79.6,128.9,79.6,128.9,79.6C128.9,79.6,128.9,79.6,128.9,79.6C128.9,79.6,128.9,79.6,128.9,79.6c0.1,0,0.3,0.1,0.4,0.1
			c3,0.3,4.3-4.4,2-7.5c-2.1-2.9-5.2-1.4-5.6,1.8C125.4,75.7,126.3,78.8,128.9,79.6z"/>
		<path class="st16" d="M129.7,113.1C129.7,113.1,129.7,113.1,129.7,113.1C129.7,113.1,129.7,113.1,129.7,113.1
			C129.7,113.1,129.7,113.1,129.7,113.1C129.7,113.1,129.7,113.1,129.7,113.1C129.7,113.1,129.7,113.1,129.7,113.1
			C129.7,113.1,129.7,113.1,129.7,113.1C129.7,113.1,129.7,113.1,129.7,113.1C129.7,113.1,129.7,113.1,129.7,113.1
			c3.5,0.5,6.1-4.8,4.7-7.8c-1.3-2.8-5-1.7-6.4,1.9C127.2,109.1,127.2,112.4,129.7,113.1z"/>
		<path class="st6" d="M55.8,159c-0.8-1.2-3-1.4-3.2-0.3c-0.1,0.7,0.6,1.5,1.5,1.8c0.1,0,0.2,0.1,0.3,0.1
			C55.5,160.8,56.5,160,55.8,159z"/>
		<path class="st5" d="M99.4,34.2c-0.6,1.8,0.5,3.9,2.4,4.5c2.9,0.7,4.2-2.2,2.9-4.6C103.2,31.2,100.2,31.7,99.4,34.2z"/>
		<path class="st33" d="M70.1,20.4c0.8,0.2,1.7,0.2,2.9-0.2c2.4-0.8,4.5-2.7,3.2-3.3c0,0,0,0,0,0c0,0,0,0,0,0c0,0,0,0,0,0
			c0,0,0,0,0,0c0,0,0,0,0,0c0,0,0,0,0,0c0,0,0,0,0,0c0,0,0,0,0,0c-1.2-0.4-3.3,0.2-4.4,0.7C69.5,18.6,69,19.9,70.1,20.4z"/>
		<path class="st18" d="M92.4,152.1c-1.6,1.3-1.7,2.7-0.3,3c2.6,0.5,6.3-1.7,6.4-3.3C98.7,150.2,95,150.1,92.4,152.1z"/>
		<path class="st37" d="M37.2,153.7c0,0.3,1,1,1.3,1.2c1.3,0.9,2.9,1.8,3.5,2.1c0,0,0.1,0,0.1,0c0,0,0,0,0,0
			C41.9,156.6,37.5,153.4,37.2,153.7z"/>
		<path class="st19" d="M111.6,43.5c0.1,0,0.2,0,0.3,0.1c2.5,0.4,3-3,1.2-5.2c-1.6-2.1-3.9-1.7-4.2,0.7
			C108.6,41,109.8,43,111.6,43.5z"/>
		<path class="st16" d="M44.2,157.2c-0.2,0,0.1,0.4,0.8,0.9c1,0.7,2.4,1.5,2.9,1.6c0.1,0,0.2,0,0.1,0
			C47.8,159.4,44.8,157.2,44.2,157.2z"/>
		<path class="st34" d="M51.1,18.9C51.1,18.9,51.1,18.9,51.1,18.9C51.1,18.9,51.1,18.9,51.1,18.9C51.1,18.9,51.1,18.9,51.1,18.9
			C51.1,18.9,51.1,18.9,51.1,18.9C51.1,18.9,51.1,18.9,51.1,18.9C51.1,18.9,51.1,18.9,51.1,18.9C51.1,18.9,51.1,18.9,51.1,18.9
			C51.1,18.9,51.1,18.9,51.1,18.9c1.6,0.6,7-2,7.3-3c0.3-0.8-2.2-0.4-4.4,0.5C52.1,17.2,50.4,18.4,51.1,18.9z"/>
		<path class="st23" d="M138.8,90.9c-1.5-2.6-4.5-1.5-5.2,1.9c-0.4,1.7-0.1,4.7,2.2,5.3C138.5,98.7,140.5,93.9,138.8,90.9z"/>
		<path class="st22" d="M68.3,160.1c-0.9,0.6-1.3,1.4-0.2,1.7c1.6,0.4,4.2-0.4,4.5-1.3C73,159.3,70.1,159.1,68.3,160.1z"/>
		<path class="st29" d="M44.2,18.5c0.1-0.5-1.8,0.1-3.9,1.2c-1.8,1-3.6,2.4-3.3,2.8C37.8,23.1,44,19.6,44.2,18.5z"/>
		<path class="st29" d="M57.8,161.1c-0.4,0.4-0.3,0.9,0.4,1.1c1,0.3,2.5-0.1,2.6-0.7C60.9,160.6,58.7,160.3,57.8,161.1z"/>
		<path class="st37" d="M50.3,160.1c-0.9-0.6-1.3-0.6-1.3-0.6c-0.2,0-0.2,0.2,0.3,0.6c0.5,0.4,1.4,0.9,1.9,1.1c0,0,0,0,0,0
			c0,0,0,0,0,0s0,0,0,0c0,0,0,0,0,0l0,0c0,0,0,0,0,0c0,0,0,0,0,0c0,0,0,0,0,0c0.1,0,0.2,0.1,0.2,0C51.4,161.1,50.9,160.5,50.3,160.1
			z"/>
		<path class="st33" d="M87.9,158.3c0.2-1.1-2.6-1.3-4.8,0c-0.9,0.5-2.1,1.6-0.7,2C84.1,160.8,87.6,159.5,87.9,158.3z"/>
		<path class="st6" d="M66.5,16.7c1.5,0.7,6.1-1.2,6.5-2.1c0.3-0.7-2-0.6-4.3,0.2C67,15.3,65.6,16.2,66.5,16.7z"/>
		<path class="st18" d="M130.8,65c0.2,0,0.4,0.1,0.5,0c2.2-0.1,2.2-4.4-0.1-6.4c-1.7-1.5-3.4-0.5-3.3,1.9
			C127.9,62.6,129.2,64.6,130.8,65z"/>
		<path class="st3" d="M130.3,125.7c-0.8,1.4-1.3,3.6,0.3,4.1c2.4,0.2,5.1-3.5,4.6-5.6C134.7,122,131.8,123.3,130.3,125.7z"/>
		<path class="st5" d="M121.1,137.6L121.1,137.6c-1.4,1.6-1.4,3.3-0.2,3.5c2.4,0.2,5.5-3,5.3-4.8C126,134.6,123,135.3,121.1,137.6z"
			/>
		<path class="st22" d="M97.1,24.9c1.5,0.5,2.8-1,2.4-2.5c-0.5-1.9-2.6-1.5-3.3-0.1C95.6,23.2,95.9,24.4,97.1,24.9z"/>
		<path class="st38" d="M90.8,21.4C90.8,21.4,90.8,21.4,90.8,21.4C90.8,21.4,90.8,21.4,90.8,21.4C90.8,21.4,90.8,21.4,90.8,21.4
			C90.8,21.4,90.8,21.4,90.8,21.4C90.8,21.4,90.8,21.4,90.8,21.4C90.8,21.4,90.8,21.4,90.8,21.4C90.8,21.4,90.8,21.4,90.8,21.4
			C90.8,21.4,90.8,21.4,90.8,21.4c1.6,0.4,3.2-0.8,3.2-2.1c0.1-1.6-2.2-1.4-3.4-0.2C89.8,19.8,89.6,20.9,90.8,21.4z"/>
		<path class="st33" d="M136.9,78.9c-0.2,2,0.9,4.2,2.3,4.5c0.1,0,0.2,0,0.2,0c2,0,3-4.2,0.9-6.5C138.9,75.1,137.1,76.5,136.9,78.9z
			"/>
		<path class="st5" d="M118.5,43.8c0.1,1.4,1.2,3.3,2.7,3.8c0,0,0,0,0,0s0,0,0,0c0,0,0,0,0,0c0,0,0,0,0,0c0,0,0,0,0,0s0,0,0,0
			c0,0,0,0,0,0c0,0,0,0,0,0c0.1,0,0.3,0.1,0.4,0c1.9-0.1,1.6-3.5-0.5-5.4C119.6,40.9,118.4,42,118.5,43.8z"/>
		<path class="st32" d="M85.4,18c1.3,0.4,3.7-0.6,4-1.8c0.3-1.1-2.1-0.8-3.3-0.1C85,16.7,84.5,17.6,85.4,18z"/>
		<path class="st22" d="M110.8,147.7c-1,0.9-1.9,2.4-0.5,2.7c1.9,0.3,5.5-2.1,5.4-3.7C115.6,145.3,112.8,145.9,110.8,147.7z"/>
		<path class="st37" d="M53.3,161.4c-0.4-0.1-0.6,0-0.5,0.2c0.1,0.2,0.5,0.4,0.9,0.5c0.1,0,0.3,0.1,0.4,0
			C54.3,162,53.9,161.5,53.3,161.4z"/>
		<path class="st16" d="M104.3,28.7c0.1,0,0.1,0,0.2,0c1.6,0.3,2-1.7,1-3.2c-0.9-1.4-2.5-1.2-2.8,0.3
			C102.6,27.2,103.2,28.4,104.3,28.7z"/>
		<path class="st14" d="M141.3,109.3C141.3,109.3,141.3,109.3,141.3,109.3C141.3,109.3,141.3,109.3,141.3,109.3
			C141.3,109.3,141.3,109.3,141.3,109.3C141.3,109.3,141.3,109.3,141.3,109.3C141.3,109.3,141.3,109.3,141.3,109.3
			C141.3,109.3,141.3,109.3,141.3,109.3C141.3,109.3,141.3,109.3,141.3,109.3C141.3,109.3,141.3,109.3,141.3,109.3
			c-1.9-0.1-2.9,2.5-3,2.8c-0.5,1.4-0.8,3.6,0.7,4c0.4,0.1,0.8,0,1.1-0.3C142,114.7,143.6,109.9,141.3,109.3z"/>
		<path class="st27" d="M57.1,13.3C56.9,13,55,13.5,54,13.9c-1.4,0.5-3.3,1.3-3.1,1.7C51.7,15.9,56.8,14,57.1,13.3z"/>
		<path class="st29" d="M82.6,13.9c-1,0.4-1.4,0.9-0.9,1.1c1.2,0.4,4.1-0.7,4.5-1.3c0.3-0.6-1.8-0.3-2.9,0
			C83,13.8,82.8,13.9,82.6,13.9z"/>
		<path class="st12" d="M64.4,163.2c0.2-0.4-1.3-0.5-2.4-0.2v0c-0.1,0-0.3,0.1-0.5,0.2c-0.4,0.2-0.1,0.3,0,0.4
			C62.3,163.6,64.2,163.6,64.4,163.2z"/>
		<path class="st26" d="M99.8,155.6c-1,0.6-1.9,1.6-0.9,1.9c1.7,0.2,4.9-1.4,5.1-2.5C104.2,153.9,101.6,154.4,99.8,155.6z"/>
		<path class="st29" d="M70.9,12.2c0.2-0.4-1.7-0.2-3.4,0.2c-1.5,0.4-2.9,1-2.5,1.3C66.1,14.1,70.5,12.7,70.9,12.2z"/>
		<path class="st37" d="M77,162.6c0.2-0.5-1.5-0.6-3.2-0.1c-0.4,0.1-0.7,0.3-0.9,0.4c-0.2,0.1-0.5,0.4,0,0.5
			C74.2,163.8,76.7,163.1,77,162.6z"/>
		<path class="st30" d="M110.2,29.6L110.2,29.6c0.1,1.2,0.9,2.4,1.9,2.6c0.1,0,0.3,0.1,0.4,0c1.2-0.2,0.7-2.5-0.6-3.6
			C110.9,27.9,110.1,28.3,110.2,29.6z"/>
		<path class="st2" d="M146.4,95.9c-0.8-1.3-2.4-0.2-2.8,2v0c-0.4,1.7,0.1,3.3,1.1,3.5C146.5,101.5,147.5,97.6,146.4,95.9z"/>
		<path class="st37" d="M55.4,162.6c-0.2,0-0.1,0.1,0,0.1c0.8,0.2,1,0.1,1,0.1C56.5,162.7,55.9,162.6,55.4,162.6z"/>
		<path class="st14" d="M138.1,65c0,0,0.2,2.8,2,3.2c0.1,0,0.2,0,0.3,0c1.4-0.1,0.8-3.7-0.5-4.8C139.5,63.1,138,62.4,138.1,65z"/>
		<path class="st22" d="M130.2,51c0.1,0,0.3,0,0.5,0c1.3-0.3,0.3-3.4-1.1-4.3c-1.2-0.8-1.7,0.1-1.4,1.5
			C128.4,49,128.9,50.5,130.2,51z"/>
		<path class="st16" d="M91.7,161c0.2-0.4-1.1-0.6-3.1,0.2c-0.4,0.2-0.7,0.3-0.9,0.5c-0.2,0.2-0.6,0.5-0.1,0.6
			C88.9,162.5,91.4,161.5,91.7,161z"/>
		<path class="st37" d="M80,12.6c0.9,0.3,4-0.4,4.2-0.7c0.2-0.2-1-0.3-2.4,0c-0.3,0-0.8,0.1-1.3,0.3C79.6,12.4,79.9,12.5,80,12.6z"
			/>
		<path class="st11" d="M119.9,35.4c0.6,0.1,0.6-0.4,0.5-0.8c-0.2-0.9-0.8-1.9-1.4-2.2c-0.4-0.2-0.8-0.3-0.9-0.3
			c-0.7,0.1-0.4,1.1-0.1,1.6C119.1,35.2,119.7,35.4,119.9,35.4z"/>
		<path class="st33" d="M140,127.3c-0.5,0.3-1.1,1-1.6,1.6c-0.3,0.4-0.5,0.7-0.6,0.8c-0.2,0.3-1,1.7-0.1,1.9c0,0,0,0,0,0
			c0,0,0,0,0,0c0,0,0,0,0,0c0,0,0,0,0,0c0,0,0,0,0,0c0,0,0,0,0,0c0,0,0,0,0,0c0,0,0,0,0,0c0.9,0,1.7-1.2,1.8-1.4
			c0.4-0.7,1-2.1,0.9-2.9C140.4,127.2,140.2,127.2,140,127.3z"/>
		<path class="st34" d="M100.5,18c0.4,0.1,0.7-0.1,0.8-0.4c0-0.2,0-0.3,0-0.5c-0.1-0.4-0.4-0.7-0.8-0.6c-0.2,0.1-0.4,0.3-0.4,0.4
			C99.9,17.3,99.9,17.8,100.5,18z"/>
		<path class="st17" d="M128.7,140.9c-0.8,0.8-1.4,1.8-1.5,2.2c-0.1,0.3,0.3,0.3,0.8,0c1-0.7,3-2.1,3-3.1
			C131,139.3,129.8,139.8,128.7,140.9z"/>
		<path class="st1" d="M147.7,81.4c0,0-0.2-0.1-0.4,0.2c-0.4,0.4-0.3,3.4,0,3.9c0.2,0.3,0.5,0.4,0.5,0.4c0.8,0,1-1.3,0.9-2.2
			C148.7,83,148.1,81.6,147.7,81.4z"/>
		<path class="st18" d="M96.9,15.7c0.5,0.1,0.9-0.2,1.1-0.5c0.1-0.2,0.2-0.6,0-0.7c0,0-0.1,0-0.3,0c-0.3,0-0.5,0.1-0.8,0.3
			c-0.1,0.1-0.4,0.3-0.3,0.7C96.7,15.5,96.8,15.6,96.9,15.7z"/>
		<path class="st17" d="M147.2,70.7c0.3,0.4,0.5,0.6,0.7,0.6c1,0,0-3.4-0.8-4c-0.1,0-0.3-0.1-0.4,0.1c-0.3,0.4-0.3,1.1-0.2,1.7
			C146.6,69.6,147.2,70.7,147.2,70.7z"/>
		<path class="st8" d="M107.6,157.1c0,0-1.8,0.6-2.7,1.1l0,0c-0.3,0.2-0.6,0.3-0.8,0.5c-0.2,0.2-0.5,0.4-0.1,0.5
			c0.7,0.1,1.6-0.4,2.1-0.6c0.7-0.3,1.9-1,1.8-1.4C107.9,157,107.7,157,107.6,157.1z"/>
		<path class="st33" d="M119,149.7c-1.5,0.5-2.4,1.5-2.6,1.8c-0.2,0.3-0.1,0.6,0.2,0.6c1,0,3.3-1.8,3.4-2.3
			C120,149.6,119.9,149.4,119,149.7z"/>
		<path class="st5" d="M64.3,164.4c0.6,0.2,2.6,0.1,2.5,0c-0.1-0.1-2.1-0.1-2.1-0.1C64.6,164.2,63.8,164.2,64.3,164.4z"/>
		<path class="st37" d="M126.9,38.6c0.1,0,0.1,0,0.2,0c0.5-0.1-0.7-3.4-1.9-3.5c-0.4,0,0.2,1.6,0.3,1.8
			C125.6,37.1,126.2,38.4,126.9,38.6z"/>
		<path class="st37" d="M105.2,20.4c0.1,0,0.3,0.1,0.4-0.3c0.1-0.4-0.2-1.2-0.5-1.5c-0.2-0.2-0.4-0.2-0.5-0.2
			c-0.2,0-0.3,0.2-0.4,0.4c0,0.2,0.1,0.5,0.1,0.6C104.4,19.8,104.8,20.3,105.2,20.4z"/>
		<path class="st3" d="M152.3,99.6c0-0.1-0.4-0.5-0.7,0.2c-0.4,0.7-0.6,1.8-0.7,3.1c-0.1,0.8,0.3,0.9,0.4,0.9
			C152.2,103.7,152.7,100.2,152.3,99.6z"/>
		<path class="st18" d="M109.2,22c0.2,0.4,0.8,1,1.2,1c0.3,0,0.3-0.1,0.3-0.4c-0.1-0.4-0.6-1.3-1.1-1.7c0,0-0.3-0.2-0.5-0.1
			c-0.2,0.1-0.2,0.3-0.2,0.5C108.9,21.6,109.1,21.9,109.2,22z"/>
		<path class="st2" d="M146.5,114.8c-0.3,0.3-1.1,1.8-1.3,2.6c-0.2,0.8,0.1,1.3,0.4,1.3c1-0.1,2.2-3.4,1.9-4.1
			C147.3,114.1,146.8,114.5,146.5,114.8z"/>
		<path class="st7" d="M94.6,13.2c-0.1,0-0.3,0.1-0.3,0.1c-0.2,0.1-0.6,0.3-0.2,0.4c0.1,0,0.5,0.1,1.1-0.1c0.4-0.1,1.1-0.4,1.2-0.7
			c0-0.1-0.1-0.1-0.2-0.1C96,12.9,95.1,13.1,94.6,13.2L94.6,13.2z"/>
		<path class="st37" d="M92.7,12.3c0.4,0.2,2.6,0,2.8-0.2c0.1-0.1-0.7-0.3-2-0.1C93.2,12,92.4,12.2,92.7,12.3z"/>
		<path class="st17" d="M77.9,164.3L77.9,164.3c-0.6,0.1-1.3,0.2-1.7,0.4c-0.2,0.1,0,0.2,0.5,0.2c1.3-0.1,3-0.3,3.1-0.6
			C79.9,164.2,79.2,164,77.9,164.3z"/>
		<path class="st16" d="M136.9,52.7c0.3,0.6,0.8,1.4,1.2,1.7c0.1,0.1,0.4,0.2,0.5,0.1c0.3-0.3,0-1.8-0.1-2.3
			c-0.2-0.6-0.6-1.3-1.2-1.6c-0.5-0.3-1.1-0.2-0.8,1C136.6,52.1,136.8,52.5,136.9,52.7z"/>
		<path class="st37" d="M95,162.5c-0.1,0-1.8,0.3-2.5,0.4c-0.6,0.1-1.5,0.3-1.7,0.5c-0.1,0.1,0.5,0.1,1.1,0
			C94.1,163.1,95.5,162.6,95,162.5z"/>
		<path class="st34" d="M1.1,103.6c-0.1,0.7,1.2,5.9,2,7.7c0.7,2.2,1.6,4.5,2.1,5.1c0,0,0,0,0,0c0,0,0,0,0,0c0,0,0,0,0,0
			c0,0,0,0,0,0c0,0,0,0,0,0c0,0,0,0,0,0c0,0,0,0,0,0c0,0,0,0,0,0c0,0,0.1,0,0.1,0C5.5,116,1.4,104,1.1,103.6
			C1.1,103.5,1.1,103.6,1.1,103.6z"/>
		<path class="st39" d="M1.6,69.5c0.5-0.1,1.7-3.7,2.6-6.7c0.4-0.9,0.9-2.1,1.2-3.1l0,0c0.3-0.8,1.1-3.3,0.8-3.6c-0.3,0-1.2,2-2,4
			c-0.4,1-0.9,2.4-1.1,3C2.3,65.1,1.3,68.7,1.6,69.5C1.5,69.5,1.5,69.5,1.6,69.5z"/>
		<path class="st32" d="M5.9,117.9c-0.2,0.2,0.7,2.2,1.2,3.4c0.7,1.5,1.7,3.2,1.9,3.2c0,0,0,0,0,0c0.1-0.3-1-2.7-1.6-3.9
			C7.3,120.2,6.3,118.1,5.9,117.9z"/>
		<path class="st6" d="M14.9,128.3c-0.9-0.4-0.4,1.3-0.2,1.7c0.2,0.4,0.4,0.9,0.7,1.4c0.9,1.7,2.9,4.6,4.4,5.5
			c0.1,0.1,0.3,0.1,0.4,0.1C21.3,136.6,16.6,129,14.9,128.3z"/>
		<path class="st3" d="M60.2,83.6C60.2,83.6,60.2,83.6,60.2,83.6C60.2,83.6,60.2,83.6,60.2,83.6C60.2,83.6,60.2,83.6,60.2,83.6
			C60.2,83.6,60.2,83.6,60.2,83.6C60.2,83.6,60.2,83.6,60.2,83.6C60.2,83.6,60.2,83.6,60.2,83.6C60.2,83.6,60.2,83.6,60.2,83.6
			C60.2,83.6,60.2,83.6,60.2,83.6c-5.3-1.4-8.2,1.7-9,3.6c-1.6,3.8,0.8,8.5,5.1,10c1,0.3,3.2,0.9,5.7-0.3
			C67.4,94.2,67.3,86.3,60.2,83.6z"/>
		<path class="st30" d="M37.6,79.2c-1.4,2.7-1,7.8,4.2,9.9c6.3,1.9,10.8-3.3,9.3-8.3C49.2,74.4,40.6,73.4,37.6,79.2z"/>
		<path class="st10" d="M53.4,96.7C53.4,96.7,53.4,96.7,53.4,96.7C53.4,96.7,53.4,96.7,53.4,96.7C53.4,96.7,53.4,96.7,53.4,96.7
			C53.4,96.7,53.4,96.7,53.4,96.7C53.3,96.6,53.3,96.6,53.4,96.7C53.3,96.6,53.3,96.6,53.4,96.7C53.3,96.6,53.3,96.6,53.4,96.7
			C53.3,96.6,53.3,96.6,53.4,96.7c-5-1.4-7.8,1.6-8.6,3.4c-1.6,3.6,0.6,8.2,4.7,9.5c0.9,0.3,3,0.8,5.4-0.3
			C60.1,106.8,60,99.2,53.4,96.7z"/>
		<path class="st34" d="M31.9,92.4c-1.4,2.6-1.1,7.4,3.8,9.5c6,1.8,10.4-3.1,9-8C43,87.9,34.8,86.9,31.9,92.4z"/>
	</g>
</g>
</svg>
