<?xml version="1.0" encoding="utf-8"?>
<!-- Generator: Adobe Illustrator 25.3.1, SVG Export Plug-In . SVG Version: 6.00 Build 0)  -->
<svg version="1.1" id="Layer_1" xmlns="http://www.w3.org/2000/svg" xmlns:xlink="http://www.w3.org/1999/xlink" x="0px" y="0px"
	 viewBox="0 0 219.5 131" style="enable-background:new 0 0 219.5 131;" xml:space="preserve">
<style type="text/css">
	.st0{fill:#B8BE14;}
	.st1{fill:#4D4D4D;}
</style>
<g>
	<g>
		<path class="st0" d="M114,42.4c0,0,49.9-39.9,104.7,0c3.8,11.4-7.2,10.8-7.2,10.8s0.4,8.3-6.7,9.1c-2.6,5-6.9,5-6.9,5
			s-0.3,8.3-6.1,10.6c-3.1,3.5-3.8,8.1-10.6,10.4c-0.1,6.7-7.6,14.2-7.6,14.2s-2.4,11.5-12.3,16.4c-7.3,8.3-16.5,6-16.5,6
			s-22.9,15.9-30.8-3.1s-2-29-2-29L114,42.4z"/>
		<path class="st0" d="M105.5,42.4c0,0-49.9-39.9-104.7,0C-3,53.8,8,53.2,8,53.2s-0.4,8.3,6.7,9.1c2.6,5,6.9,5,6.9,5
			s0.3,8.3,6.1,10.6c3.1,3.5,3.8,8.1,10.6,10.4c0.1,6.7,7.6,14.2,7.6,14.2s2.4,11.5,12.3,16.4c7.3,8.3,16.5,6,16.5,6
			s22.9,15.9,30.8-3.1s2-29,2-29L105.5,42.4z"/>
	</g>
	<g>
		<g>
			<g>
				<path class="st1" d="M113.1,35.3l-0.8-0.3c0.1-0.2,7.9-22.3,22.8-35l0.8,2.3C121.3,14.7,113.2,35,113.1,35.3z"/>
			</g>
			<g>
				<path class="st1" d="M106.4,35.3l0.8-0.3c-0.1-0.2-7.9-22.3-22.8-35l-0.8,2.3C98.2,14.7,106.3,35,106.4,35.3z"/>
			</g>
		</g>
		<g>
			<ellipse class="st1" cx="109.7" cy="84.9" rx="5.5" ry="38.1"/>
			<ellipse class="st1" cx="109.7" cy="59.5" rx="9.1" ry="18.6"/>
			<circle class="st1" cx="109.7" cy="38.5" r="6.1"/>
		</g>
	</g>
</g>
</svg>
