<?xml version="1.0" encoding="utf-8"?>
<!-- Generator: Adobe Illustrator 25.3.1, SVG Export Plug-In . SVG Version: 6.00 Build 0)  -->
<svg version="1.1" id="Layer_1" xmlns="http://www.w3.org/2000/svg" xmlns:xlink="http://www.w3.org/1999/xlink" x="0px" y="0px"
	 viewBox="0 0 112.7 94.8" style="enable-background:new 0 0 112.7 94.8;" xml:space="preserve">
<style type="text/css">
	.st0{fill:#D4D856;}
	.st1{fill:#4D4D4D;}
</style>
<g>
	<g>
		<path class="st0" d="M59.6,34.1c0,0,20.3-40.3,50.2-33.3c7.1,2.9-1.2,15.2-1.2,15.2s-0.6,7.1-3.1,11.5c-0.2,6.6-0.2,15.1-3.9,17.1
			c-3.7,2.1-21.4,1.9-21.4,1.9s28.3,9.4,23.1,16.1c-0.2,4.6-1.7,9.2-2.9,10c0.3,2-0.8,8.3-3.7,8.8c1.8,3.2-3.8,7.6-6.1,6.9
			c-1.6,2.9-5.1,4-6.9,3.1c-0.8,2.1-5.9,5.6-12.9,0.8c-7-4.8-11.6-15.8-11.6-15.8L56.2,44L59.6,34.1z"/>
		<path class="st0" d="M53.1,34.1c0,0-20.3-40.3-50.2-33.3C-4.2,3.7,4.1,16,4.1,16s0.6,7.1,3.1,11.5c0.2,6.6,0.2,15.1,3.9,17.1
			c3.7,2.1,21.4,1.9,21.4,1.9S4.3,55.9,9.5,62.7c0.2,4.6,1.7,9.2,2.9,10c-0.3,2,0.8,8.3,3.7,8.8c-1.8,3.2,3.8,7.6,6.1,6.9
			c1.6,2.9,5.1,4,6.9,3.1c0.8,2.1,5.9,5.6,12.9,0.8c7-4.8,11.6-15.8,11.6-15.8L56.4,44L53.1,34.1z"/>
	</g>
	<g>
		<g>
			<g>
				<path class="st1" d="M58.7,27.5l-0.6-0.2c0.1-0.2,5.6-15.8,16.2-24.8l0.6,1.6C64.5,13,58.8,27.4,58.7,27.5z"/>
			</g>
			<g>
				<path class="st1" d="M53.9,27.5l0.6-0.2c-0.1-0.2-5.6-15.8-16.2-24.8l-0.6,1.6C48.1,13,53.9,27.4,53.9,27.5z"/>
			</g>
		</g>
		<g>
			<ellipse class="st1" cx="56.3" cy="62.7" rx="3.9" ry="27"/>
			<ellipse class="st1" cx="56.3" cy="44.7" rx="6.5" ry="13.2"/>
			<circle class="st1" cx="56.3" cy="29.8" r="4.3"/>
		</g>
	</g>
</g>
</svg>
