<?xml version="1.0" encoding="utf-8"?>
<!-- Generator: Adobe Illustrator 25.3.1, SVG Export Plug-In . SVG Version: 6.00 Build 0)  -->
<svg version="1.1" id="Layer_1" xmlns="http://www.w3.org/2000/svg" xmlns:xlink="http://www.w3.org/1999/xlink" x="0px" y="0px"
	 viewBox="0 0 246.2 157.8" style="enable-background:new 0 0 246.2 157.8;" xml:space="preserve">
<style type="text/css">
	.st0{fill:#EC7726;}
	.st1{fill:#4D4D4D;}
</style>
<g>
	<g>
		<path class="st0" d="M127.2,78.2c0.2-3.9,1.3-7.6,3.4-10.8c10.1-16.2,44.8-66,89.3-67.3c40.6-1.2,24.6,22.4,14.7,33.7
			c-3.3,3.7-5.2,8.5-5.5,13.5c-0.5,9.5-3.1,25.7-14.9,36.6c-5.4,5-7.7,12.6-6.5,19.9c2.5,16.1-5.3,32.4-9.8,40.1
			c-2,3.4-4.8,6.1-8.2,8.1c-11.3,6.4-38.5,16.1-59.4-23.5c-1.5-2.9-2.4-6.1-2.6-9.3C126.7,98.8,126.9,85.3,127.2,78.2z"/>
		<path class="st0" d="M118.9,78.2c-0.2-3.9-1.3-7.6-3.4-10.8C105.5,51.2,70.8,1.3,26.3,0C-14.3-1.1,1.7,22.5,11.6,33.7
			c3.3,3.7,5.2,8.5,5.5,13.5c0.5,9.5,3.1,25.7,14.9,36.6c5.4,5,7.7,12.6,6.5,19.9c-2.5,16.1,5.3,32.4,9.8,40.1
			c2,3.4,4.8,6.1,8.2,8.1c11.3,6.4,38.5,16.1,59.4-23.5c1.5-2.9,2.4-6.1,2.6-9.3C119.5,98.8,119.3,85.3,118.9,78.2z"/>
	</g>
	<g>
		<g>
			<g>
				<path class="st1" d="M126.3,64.4l-0.8-0.3c0.1-0.2,7.6-21.4,21.9-33.5l0.8,2.2C134.2,44.7,126.4,64.1,126.3,64.4z"/>
			</g>
			<g>
				<path class="st1" d="M119.8,64.4l0.8-0.3c-0.1-0.2-7.6-21.4-21.9-33.5l-0.8,2.2C112,44.7,119.8,64.1,119.8,64.4z"/>
			</g>
		</g>
		<g>
			<ellipse class="st1" cx="123.1" cy="111.9" rx="5.3" ry="36.5"/>
			<ellipse class="st1" cx="123.1" cy="87.5" rx="8.7" ry="17.8"/>
			
				<ellipse transform="matrix(0.2298 -0.9732 0.9732 0.2298 29.1997 171.7129)" class="st1" cx="123.1" cy="67.4" rx="5.8" ry="5.8"/>
		</g>
	</g>
</g>
</svg>
