<?xml version="1.0" encoding="UTF-8"?>
<svg width="140px" height="35px" viewBox="0 0 140 35" version="1.1" xmlns="http://www.w3.org/2000/svg" xmlns:xlink="http://www.w3.org/1999/xlink">
    <!-- Generator: Sketch 48.2 (47327) - http://www.bohemiancoding.com/sketch -->
    <title>espn</title>
    <desc>Created with Sketch.</desc>
    <defs></defs>
    <g id="Home" stroke="none" stroke-width="1" fill="none" fill-rule="evenodd" transform="translate(-159.000000, -2554.000000)">
        <g id="Our-Clients" transform="translate(150.000000, 2314.000000)" fill="#EC433C" fill-rule="nonzero">
            <g id="client-logos" transform="translate(0.000000, 219.919645)">
                <g id="espn" transform="translate(9.749293, 20.043223)">
                    <path d="M45.334206,0.0872312407 C40.174443,0.0804009644 36.7573019,2.80011281 36.2765787,6.86703155 C36.0983104,8.36328268 35.9300573,9.68547194 35.9300573,9.68547194 L103.065063,9.68547194 C103.065063,9.68547194 103.191253,8.69478143 103.2894,7.89958504 C103.79416,3.8026211 102.053541,0.0878321448 95.7220152,0.0878321448 L95.7220152,0.088312868 C95.7220152,0.088312868 48.0542984,0.0901356104 45.334206,0.08713109 L45.334206,0.0872312407 Z M4.36256354,0.0884130187 L3.18419066,9.68565221 L33.6299968,9.68565221 L34.8037628,0.0884130187 L4.36196264,0.0884931392 L4.36256354,0.0884130187 Z M106.562325,0.0884130187 L105.386556,9.68565221 L138.392213,9.68565221 C138.392213,9.68565221 138.432273,9.33852996 138.578493,8.20883031 C139.381702,1.90935265 135.317587,0.0884130187 131.393684,0.0884130187 L106.562325,0.0884931392 L106.562325,0.0884130187 Z M104.931872,13.3397499 L102.360002,34.2852627 L113.747134,34.2812567 L116.321007,13.3437559 L104.931872,13.3393492 L104.931872,13.3397499 Z M126.564418,13.3397499 L123.988543,34.2852627 L135.375675,34.2812567 L137.949547,13.3437559 L126.564418,13.3393492 L126.564418,13.3397499 Z M2.74012256,13.3427544 L0.16384651,34.2862642 L30.6076497,34.2862642 L31.7293373,25.2005947 L12.6660563,25.1985917 L13.1483819,21.2806971 L32.2040515,21.2806971 L33.1795191,13.3433553 L2.74172497,13.3433553 L2.74012256,13.3427544 Z M35.4833853,13.3427544 C34.6481286,18.8089784 37.3842452,21.2800962 41.2620794,21.2800962 C43.3712527,21.2800962 56.6652537,21.2740872 56.6652537,21.2740872 L56.1845305,25.1979908 L34.0291974,25.1999938 L32.9135189,34.2856633 C32.9135189,34.2856633 57.0338082,34.2936753 58.0112788,34.2856633 C58.8184933,34.2275759 64.4609825,34.0733439 66.3818725,29.4584006 C67.0048097,27.9601465 67.5556385,22.5880641 67.7098705,21.4603674 C68.5972055,14.9105131 64.0623828,13.3487634 60.4910096,13.3487634 C58.5220473,13.3487634 39.3712346,13.3427544 35.4833853,13.3427544 Z M70.9247073,13.3427544 L68.3528379,34.2862642 L79.7339609,34.2862642 L81.3363718,21.2806971 L95.6318796,21.2806971 C99.685979,21.2806971 101.865258,19.1010178 102.269867,16.1738137 C102.474174,14.6969918 102.620394,13.3433553 102.620394,13.3433553 L70.9247073,13.3433553 L70.9247073,13.3427544 Z" id="Shape"></path>
                </g>
            </g>
        </g>
    </g>
</svg>